G04 #@! TF.FileFunction,Soldermask,Top*
%FSLAX46Y46*%
G04 Gerber Fmt 4.6, Leading zero omitted, Abs format (unit mm)*
G04 Created by KiCad (PCBNEW 4.0.2-4+6225~38~ubuntu15.04.1-stable) date 2016年06月17日 16時11分24秒*
%MOMM*%
G01*
G04 APERTURE LIST*
%ADD10C,0.100000*%
%ADD11O,2.400000X2.100000*%
%ADD12R,2.000200X2.398980*%
%ADD13C,2.000000*%
%ADD14R,2.300000X1.600000*%
%ADD15O,2.100000X2.100000*%
%ADD16R,3.400000X2.051000*%
%ADD17C,1.200000*%
%ADD18O,2.100000X2.400000*%
%ADD19O,2.000000X2.100000*%
%ADD20R,1.600000X2.100000*%
%ADD21R,1.600000X2.000000*%
%ADD22C,1.900000*%
%ADD23C,1.700000*%
%ADD24R,1.299160X2.398980*%
%ADD25R,1.400760X2.398980*%
%ADD26R,1.200000X1.600000*%
%ADD27R,1.460000X1.050000*%
%ADD28O,2.127200X2.200000*%
%ADD29O,2.127200X2.432000*%
%ADD30O,1.900000X2.432000*%
%ADD31C,1.901140*%
%ADD32O,2.000000X3.400000*%
%ADD33R,2.000000X1.800000*%
%ADD34O,1.800000X2.400000*%
%ADD35O,1.800000X1.670000*%
%ADD36R,1.300000X2.100000*%
%ADD37R,1.797000X1.797000*%
%ADD38C,1.797000*%
%ADD39O,1.300000X2.305000*%
%ADD40R,1.300000X2.305000*%
%ADD41R,2.400000X2.400000*%
%ADD42C,2.400000*%
%ADD43R,1.700000X1.700000*%
%ADD44O,1.800000X2.000000*%
%ADD45O,1.800000X1.800000*%
%ADD46O,1.800000X2.100000*%
%ADD47O,1.800000X1.400000*%
%ADD48O,1.800000X2.051000*%
G04 APERTURE END LIST*
D10*
D11*
X195540000Y-73660000D03*
X195540000Y-63500000D03*
X195540000Y-66040000D03*
X195540000Y-71120000D03*
X195540000Y-68580000D03*
X195540000Y-58420000D03*
X195540000Y-60960000D03*
X195540000Y-55880000D03*
X195540000Y-53340000D03*
D12*
X187335000Y-56520000D03*
D13*
X175435000Y-61420000D03*
X185435000Y-61420000D03*
D14*
X173535000Y-56520000D03*
D11*
X195540000Y-95250000D03*
X195540000Y-92710000D03*
X195540000Y-97790000D03*
X195540000Y-100330000D03*
D15*
X188428000Y-58928000D03*
X188428000Y-61468000D03*
X188428000Y-64008000D03*
D16*
X179370000Y-52070000D03*
X183770000Y-52070000D03*
D17*
X182840000Y-52070000D03*
X180300000Y-52070000D03*
D11*
X190460000Y-58420000D03*
X190460000Y-55880000D03*
X190460000Y-53340000D03*
D18*
X166965000Y-92710000D03*
X169505000Y-92710000D03*
X172045000Y-92710000D03*
D19*
X195540000Y-105410000D03*
D11*
X195540000Y-102870000D03*
X195540000Y-100330000D03*
X167600000Y-111125000D03*
X167600000Y-108585000D03*
X167600000Y-100330000D03*
X167600000Y-97790000D03*
X190460000Y-63500000D03*
X190460000Y-68580000D03*
X190460000Y-66040000D03*
X190460000Y-71120000D03*
X190460000Y-73660000D03*
D20*
X166154000Y-73850500D03*
X169554000Y-73850500D03*
D21*
X171234000Y-101219000D03*
X174634000Y-101219000D03*
D20*
X178063000Y-109982000D03*
X174663000Y-109982000D03*
D22*
X188237500Y-52705000D03*
D23*
X170457500Y-73152000D03*
D24*
X173012740Y-113019840D03*
D25*
X170363520Y-113019840D03*
X170363520Y-105420160D03*
X172964480Y-105420160D03*
D26*
X173220000Y-52324000D03*
X175220000Y-52324000D03*
X174220000Y-52324000D03*
D20*
X178063000Y-113030000D03*
X174663000Y-113030000D03*
D27*
X189995000Y-110149600D03*
X189995000Y-111099600D03*
X189995000Y-112049600D03*
X192195000Y-112049600D03*
X192195000Y-110149600D03*
D18*
X179030000Y-100203000D03*
D28*
X181570000Y-100203000D03*
X184110000Y-100203000D03*
D29*
X186650000Y-100203000D03*
D30*
X189190000Y-100203000D03*
D31*
X185126860Y-104137880D03*
X182586860Y-104137880D03*
X180554860Y-104137880D03*
X178014860Y-104137880D03*
D32*
X187914000Y-105170000D03*
X175114000Y-105170000D03*
D33*
X186980200Y-113309200D03*
X186980200Y-110109200D03*
D34*
X180300000Y-97790000D03*
X180300000Y-95250000D03*
X180300000Y-92710000D03*
X180300000Y-90170000D03*
X180300000Y-87630000D03*
X180300000Y-85090000D03*
X180300000Y-82550000D03*
X180300000Y-80010000D03*
X180300000Y-77470000D03*
D35*
X180300000Y-74930000D03*
D34*
X175220000Y-92710000D03*
X177760000Y-92710000D03*
D36*
X172522000Y-54754000D03*
X172522000Y-72754000D03*
X174022000Y-54754000D03*
X174022000Y-72754000D03*
X175522000Y-54754000D03*
X175522000Y-72754000D03*
X177022000Y-54754000D03*
X177022000Y-72754000D03*
X178522000Y-54754000D03*
X178522000Y-72754000D03*
X180022000Y-54754000D03*
X180022000Y-72754000D03*
X181522000Y-54754000D03*
X181522000Y-72754000D03*
X183022000Y-54754000D03*
X183022000Y-72754000D03*
X184522000Y-54754000D03*
X184522000Y-72754000D03*
D37*
X195540000Y-107950000D03*
D38*
X195540000Y-110490000D03*
X195540000Y-113030000D03*
D39*
X183475000Y-111760000D03*
D40*
X182205000Y-111760000D03*
D39*
X180935000Y-111760000D03*
X179665000Y-111760000D03*
D41*
X167092000Y-53086000D03*
D42*
X169632000Y-53086000D03*
D23*
X191369000Y-93465936D03*
D43*
X192619000Y-95631000D03*
D34*
X175220000Y-95250000D03*
X177760000Y-95250000D03*
X175220000Y-90170000D03*
X177760000Y-90170000D03*
X175220000Y-87630000D03*
X177760000Y-87630000D03*
X175220000Y-77470000D03*
X177760000Y-77470000D03*
X175220000Y-80010000D03*
X177760000Y-80010000D03*
X175220000Y-85090000D03*
X177760000Y-85090000D03*
X175220000Y-82550000D03*
X177760000Y-82550000D03*
X185380000Y-82550000D03*
X187920000Y-82550000D03*
X185380000Y-85090000D03*
X187920000Y-85090000D03*
X185380000Y-80010000D03*
X187920000Y-80010000D03*
X185380000Y-77470000D03*
X187920000Y-77470000D03*
X185380000Y-87630000D03*
X187920000Y-87630000D03*
D44*
X185380000Y-90170000D03*
X187920000Y-90170000D03*
X185380000Y-95250000D03*
X187920000Y-95250000D03*
X185380000Y-92710000D03*
X187920000Y-92710000D03*
X187920000Y-95250000D03*
D45*
X190460000Y-95250000D03*
D34*
X172680000Y-95250000D03*
X175220000Y-95250000D03*
D44*
X182840000Y-97790000D03*
X182840000Y-95250000D03*
D34*
X182840000Y-92710000D03*
X182840000Y-90170000D03*
X182840000Y-87630000D03*
X182840000Y-85090000D03*
X182840000Y-82550000D03*
X182840000Y-80010000D03*
D46*
X182840000Y-77470000D03*
D47*
X182840000Y-74930000D03*
D23*
X191224320Y-103024181D03*
D10*
G36*
X191398570Y-106355042D02*
X189921358Y-106094570D01*
X190181830Y-104617358D01*
X191659042Y-104877830D01*
X191398570Y-106355042D01*
X191398570Y-106355042D01*
G37*
D48*
X185380000Y-74930000D03*
D34*
X187920000Y-74930000D03*
D23*
X171981500Y-74358500D03*
D12*
X155835000Y-56520000D03*
D13*
X143935000Y-61420000D03*
X153935000Y-61420000D03*
D14*
X142035000Y-56520000D03*
D11*
X164040000Y-95250000D03*
X164040000Y-92710000D03*
X164040000Y-97790000D03*
X164040000Y-100330000D03*
D15*
X156928000Y-58928000D03*
X156928000Y-61468000D03*
X156928000Y-64008000D03*
D16*
X147870000Y-52070000D03*
X152270000Y-52070000D03*
D17*
X151340000Y-52070000D03*
X148800000Y-52070000D03*
D11*
X158960000Y-58420000D03*
X158960000Y-55880000D03*
X158960000Y-53340000D03*
D18*
X135465000Y-92710000D03*
X138005000Y-92710000D03*
X140545000Y-92710000D03*
D19*
X164040000Y-105410000D03*
D11*
X164040000Y-102870000D03*
X164040000Y-100330000D03*
X136100000Y-111125000D03*
X136100000Y-108585000D03*
X136100000Y-100330000D03*
X136100000Y-97790000D03*
X158960000Y-63500000D03*
X158960000Y-68580000D03*
X158960000Y-66040000D03*
X158960000Y-71120000D03*
X158960000Y-73660000D03*
X164040000Y-73660000D03*
X164040000Y-63500000D03*
X164040000Y-66040000D03*
X164040000Y-71120000D03*
X164040000Y-68580000D03*
X164040000Y-58420000D03*
X164040000Y-60960000D03*
X164040000Y-55880000D03*
X164040000Y-53340000D03*
D20*
X134654000Y-73850500D03*
X138054000Y-73850500D03*
D21*
X139734000Y-101219000D03*
X143134000Y-101219000D03*
D20*
X146563000Y-109982000D03*
X143163000Y-109982000D03*
D22*
X156737500Y-52705000D03*
D23*
X138957500Y-73152000D03*
D24*
X141512740Y-113019840D03*
D25*
X138863520Y-113019840D03*
X138863520Y-105420160D03*
X141464480Y-105420160D03*
D26*
X141720000Y-52324000D03*
X143720000Y-52324000D03*
X142720000Y-52324000D03*
D20*
X146563000Y-113030000D03*
X143163000Y-113030000D03*
D27*
X158495000Y-110149600D03*
X158495000Y-111099600D03*
X158495000Y-112049600D03*
X160695000Y-112049600D03*
X160695000Y-110149600D03*
D18*
X147530000Y-100203000D03*
D28*
X150070000Y-100203000D03*
X152610000Y-100203000D03*
D29*
X155150000Y-100203000D03*
D30*
X157690000Y-100203000D03*
D31*
X153626860Y-104137880D03*
X151086860Y-104137880D03*
X149054860Y-104137880D03*
X146514860Y-104137880D03*
D32*
X156414000Y-105170000D03*
X143614000Y-105170000D03*
D33*
X155480200Y-113309200D03*
X155480200Y-110109200D03*
D34*
X148800000Y-97790000D03*
X148800000Y-95250000D03*
X148800000Y-92710000D03*
X148800000Y-90170000D03*
X148800000Y-87630000D03*
X148800000Y-85090000D03*
X148800000Y-82550000D03*
X148800000Y-80010000D03*
X148800000Y-77470000D03*
D35*
X148800000Y-74930000D03*
D34*
X143720000Y-92710000D03*
X146260000Y-92710000D03*
D36*
X141022000Y-54754000D03*
X141022000Y-72754000D03*
X142522000Y-54754000D03*
X142522000Y-72754000D03*
X144022000Y-54754000D03*
X144022000Y-72754000D03*
X145522000Y-54754000D03*
X145522000Y-72754000D03*
X147022000Y-54754000D03*
X147022000Y-72754000D03*
X148522000Y-54754000D03*
X148522000Y-72754000D03*
X150022000Y-54754000D03*
X150022000Y-72754000D03*
X151522000Y-54754000D03*
X151522000Y-72754000D03*
X153022000Y-54754000D03*
X153022000Y-72754000D03*
D37*
X164040000Y-107950000D03*
D38*
X164040000Y-110490000D03*
X164040000Y-113030000D03*
D39*
X151975000Y-111760000D03*
D40*
X150705000Y-111760000D03*
D39*
X149435000Y-111760000D03*
X148165000Y-111760000D03*
D41*
X135592000Y-53086000D03*
D42*
X138132000Y-53086000D03*
D23*
X159869000Y-93465936D03*
D43*
X161119000Y-95631000D03*
D34*
X143720000Y-95250000D03*
X146260000Y-95250000D03*
X143720000Y-90170000D03*
X146260000Y-90170000D03*
X143720000Y-87630000D03*
X146260000Y-87630000D03*
X143720000Y-77470000D03*
X146260000Y-77470000D03*
X143720000Y-80010000D03*
X146260000Y-80010000D03*
X143720000Y-85090000D03*
X146260000Y-85090000D03*
X143720000Y-82550000D03*
X146260000Y-82550000D03*
X153880000Y-82550000D03*
X156420000Y-82550000D03*
X153880000Y-85090000D03*
X156420000Y-85090000D03*
X153880000Y-80010000D03*
X156420000Y-80010000D03*
X153880000Y-77470000D03*
X156420000Y-77470000D03*
X153880000Y-87630000D03*
X156420000Y-87630000D03*
D44*
X153880000Y-90170000D03*
X156420000Y-90170000D03*
X153880000Y-95250000D03*
X156420000Y-95250000D03*
X153880000Y-92710000D03*
X156420000Y-92710000D03*
X156420000Y-95250000D03*
D45*
X158960000Y-95250000D03*
D34*
X141180000Y-95250000D03*
X143720000Y-95250000D03*
D44*
X151340000Y-97790000D03*
X151340000Y-95250000D03*
D34*
X151340000Y-92710000D03*
X151340000Y-90170000D03*
X151340000Y-87630000D03*
X151340000Y-85090000D03*
X151340000Y-82550000D03*
X151340000Y-80010000D03*
D46*
X151340000Y-77470000D03*
D47*
X151340000Y-74930000D03*
D23*
X159724320Y-103024181D03*
D10*
G36*
X159898570Y-106355042D02*
X158421358Y-106094570D01*
X158681830Y-104617358D01*
X160159042Y-104877830D01*
X159898570Y-106355042D01*
X159898570Y-106355042D01*
G37*
D48*
X153880000Y-74930000D03*
D34*
X156420000Y-74930000D03*
D23*
X140481500Y-74358500D03*
X203481500Y-74358500D03*
D48*
X216880000Y-74930000D03*
D34*
X219420000Y-74930000D03*
D23*
X222724320Y-103024181D03*
D10*
G36*
X222898570Y-106355042D02*
X221421358Y-106094570D01*
X221681830Y-104617358D01*
X223159042Y-104877830D01*
X222898570Y-106355042D01*
X222898570Y-106355042D01*
G37*
D44*
X214340000Y-97790000D03*
X214340000Y-95250000D03*
D34*
X214340000Y-92710000D03*
X214340000Y-90170000D03*
X214340000Y-87630000D03*
X214340000Y-85090000D03*
X214340000Y-82550000D03*
X214340000Y-80010000D03*
D46*
X214340000Y-77470000D03*
D47*
X214340000Y-74930000D03*
D34*
X204180000Y-95250000D03*
X206720000Y-95250000D03*
D44*
X219420000Y-95250000D03*
D45*
X221960000Y-95250000D03*
D44*
X216880000Y-92710000D03*
X219420000Y-92710000D03*
X216880000Y-95250000D03*
X219420000Y-95250000D03*
X216880000Y-90170000D03*
X219420000Y-90170000D03*
D34*
X216880000Y-87630000D03*
X219420000Y-87630000D03*
X216880000Y-77470000D03*
X219420000Y-77470000D03*
X216880000Y-80010000D03*
X219420000Y-80010000D03*
X216880000Y-85090000D03*
X219420000Y-85090000D03*
X216880000Y-82550000D03*
X219420000Y-82550000D03*
X206720000Y-82550000D03*
X209260000Y-82550000D03*
X206720000Y-85090000D03*
X209260000Y-85090000D03*
X206720000Y-80010000D03*
X209260000Y-80010000D03*
X206720000Y-77470000D03*
X209260000Y-77470000D03*
X206720000Y-87630000D03*
X209260000Y-87630000D03*
X206720000Y-90170000D03*
X209260000Y-90170000D03*
X206720000Y-95250000D03*
X209260000Y-95250000D03*
D23*
X222869000Y-93465936D03*
D43*
X224119000Y-95631000D03*
D41*
X198592000Y-53086000D03*
D42*
X201132000Y-53086000D03*
D39*
X214975000Y-111760000D03*
D40*
X213705000Y-111760000D03*
D39*
X212435000Y-111760000D03*
X211165000Y-111760000D03*
D37*
X227040000Y-107950000D03*
D38*
X227040000Y-110490000D03*
X227040000Y-113030000D03*
D36*
X204022000Y-54754000D03*
X204022000Y-72754000D03*
X205522000Y-54754000D03*
X205522000Y-72754000D03*
X207022000Y-54754000D03*
X207022000Y-72754000D03*
X208522000Y-54754000D03*
X208522000Y-72754000D03*
X210022000Y-54754000D03*
X210022000Y-72754000D03*
X211522000Y-54754000D03*
X211522000Y-72754000D03*
X213022000Y-54754000D03*
X213022000Y-72754000D03*
X214522000Y-54754000D03*
X214522000Y-72754000D03*
X216022000Y-54754000D03*
X216022000Y-72754000D03*
D34*
X206720000Y-92710000D03*
X209260000Y-92710000D03*
X211800000Y-97790000D03*
X211800000Y-95250000D03*
X211800000Y-92710000D03*
X211800000Y-90170000D03*
X211800000Y-87630000D03*
X211800000Y-85090000D03*
X211800000Y-82550000D03*
X211800000Y-80010000D03*
X211800000Y-77470000D03*
D35*
X211800000Y-74930000D03*
D33*
X218480200Y-113309200D03*
X218480200Y-110109200D03*
D31*
X216626860Y-104137880D03*
X214086860Y-104137880D03*
X212054860Y-104137880D03*
X209514860Y-104137880D03*
D32*
X219414000Y-105170000D03*
X206614000Y-105170000D03*
D18*
X210530000Y-100203000D03*
D28*
X213070000Y-100203000D03*
X215610000Y-100203000D03*
D29*
X218150000Y-100203000D03*
D30*
X220690000Y-100203000D03*
D27*
X221495000Y-110149600D03*
X221495000Y-111099600D03*
X221495000Y-112049600D03*
X223695000Y-112049600D03*
X223695000Y-110149600D03*
D20*
X209563000Y-113030000D03*
X206163000Y-113030000D03*
D26*
X204720000Y-52324000D03*
X206720000Y-52324000D03*
X205720000Y-52324000D03*
D24*
X204512740Y-113019840D03*
D25*
X201863520Y-113019840D03*
X201863520Y-105420160D03*
X204464480Y-105420160D03*
D23*
X201957500Y-73152000D03*
D22*
X219737500Y-52705000D03*
D20*
X209563000Y-109982000D03*
X206163000Y-109982000D03*
D21*
X202734000Y-101219000D03*
X206134000Y-101219000D03*
D20*
X197654000Y-73850500D03*
X201054000Y-73850500D03*
D11*
X227040000Y-73660000D03*
X227040000Y-63500000D03*
X227040000Y-66040000D03*
X227040000Y-71120000D03*
X227040000Y-68580000D03*
X227040000Y-58420000D03*
X227040000Y-60960000D03*
X227040000Y-55880000D03*
X227040000Y-53340000D03*
X221960000Y-63500000D03*
X221960000Y-68580000D03*
X221960000Y-66040000D03*
X221960000Y-71120000D03*
X221960000Y-73660000D03*
X199100000Y-100330000D03*
X199100000Y-97790000D03*
X199100000Y-111125000D03*
X199100000Y-108585000D03*
D19*
X227040000Y-105410000D03*
D11*
X227040000Y-102870000D03*
X227040000Y-100330000D03*
D18*
X198465000Y-92710000D03*
X201005000Y-92710000D03*
X203545000Y-92710000D03*
D11*
X221960000Y-58420000D03*
X221960000Y-55880000D03*
X221960000Y-53340000D03*
D16*
X210870000Y-52070000D03*
X215270000Y-52070000D03*
D17*
X214340000Y-52070000D03*
X211800000Y-52070000D03*
D15*
X219928000Y-58928000D03*
X219928000Y-61468000D03*
X219928000Y-64008000D03*
D11*
X227040000Y-95250000D03*
X227040000Y-92710000D03*
X227040000Y-97790000D03*
X227040000Y-100330000D03*
D12*
X218835000Y-56520000D03*
D13*
X206935000Y-61420000D03*
X216935000Y-61420000D03*
D14*
X205035000Y-56520000D03*
M02*
