M48
;DRILL file {KiCad 4.0.2-4+6225~38~ubuntu15.04.1-stable} date 2016年06月17日 16時11分31秒
;FORMAT={-:-/ absolute / inch / decimal}
FMAT,2
INCH,TZ
T1C0.016
T2C0.024
T3C0.024
T4C0.026
T5C0.028
T6C0.030
T7C0.031
T8C0.032
T9C0.032
T10C0.039
T11C0.040
%
G90
G05
M72
T1
X5.3013Y-2.9075
X5.5158Y-3.8925
X5.5163Y-4.02
X5.5283Y-4.2875
X5.5383Y-2.6369
X5.5623Y-2.092
X5.5658Y-4.06
X5.6033Y-2.8825
X5.6068Y-2.7483
X5.6158Y-4.0175
X5.6183Y-2.116
X5.6183Y-2.702
X5.6568Y-2.984
X5.6773Y-2.107
X5.6858Y-2.6
X5.6883Y-2.7025
X5.6895Y-2.7602
X5.6918Y-2.8592
X5.7033Y-3.995
X5.7083Y-3.89
X5.7083Y-3.94
X5.7183Y-2.075
X5.7183Y-2.9775
X5.7283Y-2.433
X5.7283Y-2.86
X5.7283Y-4.208
X5.7483Y-3.815
X5.7608Y-2.535
X5.7683Y-2.21
X5.7758Y-3.835
X5.7803Y-2.435
X5.7883Y-2.1557
X5.7883Y-2.86
X5.7908Y-2.9775
X5.7983Y-4.14
X5.8033Y-3.8775
X5.8045Y-2.5323
X5.8183Y-2.47
X5.8263Y-4.158
X5.8283Y-2.745
X5.8358Y-4.2725
X5.8483Y-2.87
X5.8508Y-2.1675
X5.852Y-2.2712
X5.8545Y-2.63
X5.8708Y-4.02
X5.9008Y-4.265
X5.9063Y-2.863
X5.9103Y-2.733
X5.9443Y-2.468
X5.9508Y-4.185
X5.9552Y-4.025
X5.9654Y-2.8643
X5.9663Y-2.16
X5.9933Y-4.2225
X6.0043Y-2.215
X6.0283Y-2.165
X6.0293Y-2.849
X6.0373Y-2.745
X6.0437Y-2.2542
X6.0833Y-2.465
X6.0843Y-2.6954
X6.1273Y-2.725
X6.1433Y-2.826
X6.1508Y-2.51
X6.1843Y-4.385
X6.2013Y-2.156
X6.2233Y-2.389
X6.24Y-4.3366
X6.3013Y-2.539
X6.3122Y-4.31
X6.3323Y-3.948
X6.3443Y-2.799
X6.3563Y-2.511
X6.3583Y-2.175
X6.3923Y-2.539
X6.5415Y-2.9075
X6.7559Y-3.8925
X6.7565Y-4.02
X6.7684Y-4.2875
X6.7784Y-2.6369
X6.8024Y-2.092
X6.8059Y-4.06
X6.8434Y-2.8825
X6.847Y-2.7483
X6.8559Y-4.0175
X6.8584Y-2.116
X6.8584Y-2.702
X6.8969Y-2.984
X6.9174Y-2.107
X6.9259Y-2.6
X6.9284Y-2.7025
X6.9297Y-2.7602
X6.932Y-2.8592
X6.9434Y-3.995
X6.9484Y-3.89
X6.9484Y-3.94
X6.9584Y-2.075
X6.9584Y-2.9775
X6.9684Y-2.433
X6.9684Y-2.86
X6.9684Y-4.208
X6.9884Y-3.815
X7.0009Y-2.535
X7.0084Y-2.21
X7.0159Y-3.835
X7.0204Y-2.435
X7.0284Y-2.1557
X7.0284Y-2.86
X7.0309Y-2.9775
X7.0384Y-4.14
X7.0434Y-3.8775
X7.0447Y-2.5323
X7.0584Y-2.47
X7.0664Y-4.158
X7.0684Y-2.745
X7.0759Y-4.2725
X7.0884Y-2.87
X7.0909Y-2.1675
X7.0922Y-2.2712
X7.0947Y-2.63
X7.1109Y-4.02
X7.1409Y-4.265
X7.1464Y-2.863
X7.1504Y-2.733
X7.1844Y-2.468
X7.1909Y-4.185
X7.1954Y-4.025
X7.2056Y-2.8643
X7.2064Y-2.16
X7.2334Y-4.2225
X7.2444Y-2.215
X7.2684Y-2.165
X7.2694Y-2.849
X7.2774Y-2.745
X7.2838Y-2.2542
X7.3234Y-2.465
X7.3245Y-2.6954
X7.3674Y-2.725
X7.3834Y-2.826
X7.3909Y-2.51
X7.4244Y-4.385
X7.4414Y-2.156
X7.4634Y-2.389
X7.4801Y-4.3366
X7.5414Y-2.539
X7.5524Y-4.31
X7.5724Y-3.948
X7.5844Y-2.799
X7.5964Y-2.511
X7.5984Y-2.175
X7.6324Y-2.539
X7.7817Y-2.9075
X7.9961Y-3.8925
X7.9967Y-4.02
X8.0086Y-4.2875
X8.0186Y-2.6369
X8.0426Y-2.092
X8.0461Y-4.06
X8.0836Y-2.8825
X8.0871Y-2.7483
X8.0961Y-4.0175
X8.0986Y-2.116
X8.0986Y-2.702
X8.1371Y-2.984
X8.1576Y-2.107
X8.1661Y-2.6
X8.1686Y-2.7025
X8.1698Y-2.7602
X8.1721Y-2.8592
X8.1836Y-3.995
X8.1886Y-3.89
X8.1886Y-3.94
X8.1986Y-2.075
X8.1986Y-2.9775
X8.2086Y-2.433
X8.2086Y-2.86
X8.2086Y-4.208
X8.2286Y-3.815
X8.2411Y-2.535
X8.2486Y-2.21
X8.2561Y-3.835
X8.2606Y-2.435
X8.2686Y-2.1557
X8.2686Y-2.86
X8.2711Y-2.9775
X8.2786Y-4.14
X8.2836Y-3.8775
X8.2848Y-2.5323
X8.2986Y-2.47
X8.3066Y-4.158
X8.3086Y-2.745
X8.3161Y-4.2725
X8.3286Y-2.87
X8.3311Y-2.1675
X8.3323Y-2.2712
X8.3348Y-2.63
X8.3511Y-4.02
X8.3811Y-4.265
X8.3866Y-2.863
X8.3906Y-2.733
X8.4246Y-2.468
X8.4311Y-4.185
X8.4355Y-4.025
X8.4457Y-2.8643
X8.4466Y-2.16
X8.4736Y-4.2225
X8.4846Y-2.215
X8.5086Y-2.165
X8.5096Y-2.849
X8.5176Y-2.745
X8.524Y-2.2542
X8.5636Y-2.465
X8.5647Y-2.6954
X8.6076Y-2.725
X8.6236Y-2.826
X8.6311Y-2.51
X8.6646Y-4.385
X8.6816Y-2.156
X8.7036Y-2.389
X8.7203Y-4.3366
X8.7816Y-2.539
X8.7925Y-4.31
X8.8126Y-3.948
X8.8246Y-2.799
X8.8366Y-2.511
X8.8386Y-2.175
X8.8726Y-2.539
T2
X5.5919Y-2.2252
X6.1352Y-2.2252
X6.8321Y-2.2252
X7.3754Y-2.2252
X8.0722Y-2.2252
X8.6156Y-2.2252
T3
X6.0583Y-2.95
X6.1583Y-2.95
X6.3483Y-4.41
X6.4583Y-2.1
X6.4583Y-2.2
X6.4583Y-2.3
X6.4583Y-2.4
X6.4583Y-2.5
X6.4583Y-2.6
X6.4583Y-2.7
X6.4583Y-2.8
X6.4583Y-2.9
X7.2984Y-2.95
X7.3984Y-2.95
X7.5884Y-4.41
X7.6984Y-2.1
X7.6984Y-2.2
X7.6984Y-2.3
X7.6984Y-2.4
X7.6984Y-2.5
X7.6984Y-2.6
X7.6984Y-2.7
X7.6984Y-2.8
X7.6984Y-2.9
X8.5386Y-2.95
X8.6386Y-2.95
X8.8286Y-4.41
X8.9386Y-2.1
X8.9386Y-2.2
X8.9386Y-2.3
X8.9386Y-2.4
X8.9386Y-2.5
X8.9386Y-2.6
X8.9386Y-2.7
X8.9386Y-2.8
X8.9386Y-2.9
T4
X5.3333Y-3.65
X5.3583Y-3.85
X5.3583Y-3.95
X5.3583Y-4.275
X5.3583Y-4.375
X5.4333Y-3.65
X5.5333Y-3.65
X6.1783Y-2.32
X6.1783Y-2.42
X6.1783Y-2.52
X6.2583Y-2.1
X6.2583Y-2.2
X6.2583Y-2.3
X6.2583Y-2.5
X6.2583Y-2.6
X6.2583Y-2.7
X6.2583Y-2.8
X6.2583Y-2.9
X6.4583Y-3.65
X6.4583Y-3.75
X6.4583Y-3.85
X6.4583Y-3.95
X6.4583Y-3.95
X6.4583Y-4.05
X6.4583Y-4.15
X6.5734Y-3.65
X6.5984Y-3.85
X6.5984Y-3.95
X6.5984Y-4.275
X6.5984Y-4.375
X6.6734Y-3.65
X6.7734Y-3.65
X7.4184Y-2.32
X7.4184Y-2.42
X7.4184Y-2.52
X7.4984Y-2.1
X7.4984Y-2.2
X7.4984Y-2.3
X7.4984Y-2.5
X7.4984Y-2.6
X7.4984Y-2.7
X7.4984Y-2.8
X7.4984Y-2.9
X7.6984Y-3.65
X7.6984Y-3.75
X7.6984Y-3.85
X7.6984Y-3.95
X7.6984Y-3.95
X7.6984Y-4.05
X7.6984Y-4.15
X7.8136Y-3.65
X7.8386Y-3.85
X7.8386Y-3.95
X7.8386Y-4.275
X7.8386Y-4.375
X7.9136Y-3.65
X8.0136Y-3.65
X8.6586Y-2.32
X8.6586Y-2.42
X8.6586Y-2.52
X8.7386Y-2.1
X8.7386Y-2.2
X8.7386Y-2.3
X8.7386Y-2.5
X8.7386Y-2.6
X8.7386Y-2.7
X8.7386Y-2.8
X8.7386Y-2.9
X8.9386Y-3.65
X8.9386Y-3.75
X8.9386Y-3.85
X8.9386Y-3.95
X8.9386Y-3.95
X8.9386Y-4.05
X8.9386Y-4.15
T6
X5.8333Y-4.4
X5.8833Y-4.4
X5.9333Y-4.4
X5.9833Y-4.4
X7.0734Y-4.4
X7.1234Y-4.4
X7.1734Y-4.4
X7.2234Y-4.4
X8.3136Y-4.4
X8.3636Y-4.4
X8.4136Y-4.4
X8.4636Y-4.4
T7
X5.5583Y-3.75
X5.6583Y-3.05
X5.6583Y-3.15
X5.6583Y-3.25
X5.6583Y-3.35
X5.6583Y-3.45
X5.6583Y-3.55
X5.6583Y-3.65
X5.6583Y-3.75
X5.6583Y-3.75
X5.7583Y-3.05
X5.7583Y-3.15
X5.7583Y-3.25
X5.7583Y-3.35
X5.7583Y-3.45
X5.7583Y-3.55
X5.7583Y-3.65
X5.7583Y-3.75
X5.8583Y-2.05
X5.8583Y-2.95
X5.8583Y-3.05
X5.8583Y-3.15
X5.8583Y-3.25
X5.8583Y-3.35
X5.8583Y-3.45
X5.8583Y-3.55
X5.8583Y-3.65
X5.8583Y-3.75
X5.8583Y-3.85
X5.9583Y-2.05
X5.9583Y-2.95
X5.9583Y-3.05
X5.9583Y-3.15
X5.9583Y-3.25
X5.9583Y-3.35
X5.9583Y-3.45
X5.9583Y-3.55
X5.9583Y-3.65
X5.9583Y-3.75
X5.9583Y-3.85
X6.0583Y-3.05
X6.0583Y-3.15
X6.0583Y-3.25
X6.0583Y-3.35
X6.0583Y-3.45
X6.0583Y-3.55
X6.0583Y-3.65
X6.0583Y-3.75
X6.1583Y-3.05
X6.1583Y-3.15
X6.1583Y-3.25
X6.1583Y-3.35
X6.1583Y-3.45
X6.1583Y-3.55
X6.1583Y-3.65
X6.1583Y-3.75
X6.1583Y-3.75
X6.2583Y-3.75
X6.2713Y-4.153
X6.2884Y-4.0561
X6.2941Y-3.6798
X6.3433Y-3.765
X6.7984Y-3.75
X6.8984Y-3.05
X6.8984Y-3.15
X6.8984Y-3.25
X6.8984Y-3.35
X6.8984Y-3.45
X6.8984Y-3.55
X6.8984Y-3.65
X6.8984Y-3.75
X6.8984Y-3.75
X6.9984Y-3.05
X6.9984Y-3.15
X6.9984Y-3.25
X6.9984Y-3.35
X6.9984Y-3.45
X6.9984Y-3.55
X6.9984Y-3.65
X6.9984Y-3.75
X7.0984Y-2.05
X7.0984Y-2.95
X7.0984Y-3.05
X7.0984Y-3.15
X7.0984Y-3.25
X7.0984Y-3.35
X7.0984Y-3.45
X7.0984Y-3.55
X7.0984Y-3.65
X7.0984Y-3.75
X7.0984Y-3.85
X7.1984Y-2.05
X7.1984Y-2.95
X7.1984Y-3.05
X7.1984Y-3.15
X7.1984Y-3.25
X7.1984Y-3.35
X7.1984Y-3.45
X7.1984Y-3.55
X7.1984Y-3.65
X7.1984Y-3.75
X7.1984Y-3.85
X7.2984Y-3.05
X7.2984Y-3.15
X7.2984Y-3.25
X7.2984Y-3.35
X7.2984Y-3.45
X7.2984Y-3.55
X7.2984Y-3.65
X7.2984Y-3.75
X7.3984Y-3.05
X7.3984Y-3.15
X7.3984Y-3.25
X7.3984Y-3.35
X7.3984Y-3.45
X7.3984Y-3.55
X7.3984Y-3.65
X7.3984Y-3.75
X7.3984Y-3.75
X7.4984Y-3.75
X7.5114Y-4.153
X7.5285Y-4.0561
X7.5342Y-3.6798
X7.5834Y-3.765
X8.0386Y-3.75
X8.1386Y-3.05
X8.1386Y-3.15
X8.1386Y-3.25
X8.1386Y-3.35
X8.1386Y-3.45
X8.1386Y-3.55
X8.1386Y-3.65
X8.1386Y-3.75
X8.1386Y-3.75
X8.2386Y-3.05
X8.2386Y-3.15
X8.2386Y-3.25
X8.2386Y-3.35
X8.2386Y-3.45
X8.2386Y-3.55
X8.2386Y-3.65
X8.2386Y-3.75
X8.3386Y-2.05
X8.3386Y-2.95
X8.3386Y-3.05
X8.3386Y-3.15
X8.3386Y-3.25
X8.3386Y-3.35
X8.3386Y-3.45
X8.3386Y-3.55
X8.3386Y-3.65
X8.3386Y-3.75
X8.3386Y-3.85
X8.4386Y-2.05
X8.4386Y-2.95
X8.4386Y-3.05
X8.4386Y-3.15
X8.4386Y-3.25
X8.4386Y-3.35
X8.4386Y-3.45
X8.4386Y-3.55
X8.4386Y-3.65
X8.4386Y-3.75
X8.4386Y-3.85
X8.5386Y-3.05
X8.5386Y-3.15
X8.5386Y-3.25
X8.5386Y-3.35
X8.5386Y-3.45
X8.5386Y-3.55
X8.5386Y-3.65
X8.5386Y-3.75
X8.6386Y-3.05
X8.6386Y-3.15
X8.6386Y-3.25
X8.6386Y-3.35
X8.6386Y-3.45
X8.6386Y-3.55
X8.6386Y-3.65
X8.6386Y-3.75
X8.6386Y-3.75
X8.7386Y-3.75
X8.7516Y-4.153
X8.7687Y-4.0561
X8.7744Y-3.6798
X8.8236Y-3.765
T8
X5.4708Y-2.88
X5.5308Y-2.9275
X6.1708Y-2.075
X6.7109Y-2.88
X6.7709Y-2.9275
X7.4109Y-2.075
X7.9511Y-2.88
X8.0111Y-2.9275
X8.6511Y-2.075
T9
X6.4583Y-4.25
X6.4583Y-4.35
X6.4583Y-4.45
X7.6984Y-4.25
X7.6984Y-4.35
X7.6984Y-4.45
X8.9386Y-4.25
X8.9386Y-4.35
X8.9386Y-4.45
T10
X5.3383Y-2.09
X5.4383Y-2.09
X5.7683Y-4.0999
X5.8683Y-4.0999
X5.9483Y-4.0999
X6.0483Y-4.0999
X6.5784Y-2.09
X6.6784Y-2.09
X7.0085Y-4.0999
X7.1085Y-4.0999
X7.1885Y-4.0999
X7.2885Y-4.0999
X7.8186Y-2.09
X7.9186Y-2.09
X8.2486Y-4.0999
X8.3486Y-4.0999
X8.4286Y-4.0999
X8.5286Y-4.0999
T11
X5.8083Y-3.945
X5.9083Y-3.945
X6.0083Y-3.945
X6.1083Y-3.945
X6.2083Y-3.945
X7.0484Y-3.945
X7.1484Y-3.945
X7.2484Y-3.945
X7.3484Y-3.945
X7.4484Y-3.945
X8.2886Y-3.945
X8.3886Y-3.945
X8.4886Y-3.945
X8.5886Y-3.945
X8.6886Y-3.945
T5
X5.6541Y-4.115G85X5.6541Y-4.1661
G05
X6.8943Y-4.115G85X6.8943Y-4.1661
G05
X8.1344Y-4.115G85X8.1344Y-4.1661
G05
T7
X6.158Y-4.1169G85X6.158Y-4.1642
G05
X7.3982Y-4.1169G85X7.3982Y-4.1642
G05
X8.6383Y-4.1169G85X8.6383Y-4.1642
G05
T0
M30
