G04 #@! TF.FileFunction,Soldermask,Bot*
%FSLAX46Y46*%
G04 Gerber Fmt 4.6, Leading zero omitted, Abs format (unit mm)*
G04 Created by KiCad (PCBNEW 4.0.2-4+6225~38~ubuntu15.04.1-stable) date 2016年06月17日 16時11分24秒*
%MOMM*%
G01*
G04 APERTURE LIST*
%ADD10C,0.100000*%
%ADD11O,2.400000X2.100000*%
%ADD12R,2.000200X2.398980*%
%ADD13C,2.000000*%
%ADD14R,1.101040X2.000200*%
%ADD15R,2.300000X1.600000*%
%ADD16O,2.100000X2.100000*%
%ADD17C,1.200000*%
%ADD18R,2.100000X1.600000*%
%ADD19O,2.100000X2.400000*%
%ADD20O,2.000000X2.100000*%
%ADD21R,1.600000X1.200000*%
%ADD22R,2.000000X1.600000*%
%ADD23O,1.600000X2.000000*%
%ADD24R,1.600000X2.000000*%
%ADD25C,1.900000*%
%ADD26C,1.700000*%
%ADD27R,1.600000X2.100000*%
%ADD28O,2.127200X2.200000*%
%ADD29O,2.127200X2.432000*%
%ADD30O,1.900000X2.432000*%
%ADD31C,1.901140*%
%ADD32O,2.000000X3.400000*%
%ADD33O,1.800000X2.400000*%
%ADD34O,1.800000X1.670000*%
%ADD35R,1.543000X0.908000*%
%ADD36R,1.797000X1.797000*%
%ADD37C,1.797000*%
%ADD38O,1.300000X2.305000*%
%ADD39R,1.300000X2.305000*%
%ADD40R,2.400000X2.400000*%
%ADD41C,2.400000*%
%ADD42R,1.700000X1.700000*%
%ADD43O,1.800000X2.000000*%
%ADD44O,1.800000X1.800000*%
%ADD45O,1.800000X2.100000*%
%ADD46O,1.800000X1.400000*%
%ADD47O,1.800000X2.051000*%
G04 APERTURE END LIST*
D10*
D11*
X195540000Y-73660000D03*
X195540000Y-63500000D03*
X195540000Y-66040000D03*
X195540000Y-71120000D03*
X195540000Y-68580000D03*
X195540000Y-58420000D03*
X195540000Y-60960000D03*
X195540000Y-55880000D03*
X195540000Y-53340000D03*
D12*
X187335000Y-56520000D03*
D13*
X175435000Y-61420000D03*
D14*
X185533740Y-64320100D03*
X184433920Y-64320100D03*
D13*
X185435000Y-61420000D03*
D15*
X173535000Y-56520000D03*
D14*
X176734820Y-64320100D03*
X177834640Y-64320100D03*
X178934460Y-64320100D03*
X180034280Y-64320100D03*
X181134100Y-64320100D03*
X182233920Y-64320100D03*
X183333740Y-64320100D03*
X175635000Y-64320100D03*
D11*
X195540000Y-95250000D03*
X195540000Y-92710000D03*
X195540000Y-97790000D03*
X195540000Y-100330000D03*
D16*
X188428000Y-58928000D03*
X188428000Y-61468000D03*
X188428000Y-64008000D03*
D17*
X182840000Y-52070000D03*
X180300000Y-52070000D03*
D18*
X193000000Y-52275000D03*
X193000000Y-55675000D03*
D11*
X190460000Y-58420000D03*
X190460000Y-55880000D03*
X190460000Y-53340000D03*
D19*
X166965000Y-92710000D03*
X169505000Y-92710000D03*
X172045000Y-92710000D03*
D20*
X195540000Y-105410000D03*
D11*
X195540000Y-102870000D03*
X195540000Y-100330000D03*
X167600000Y-111125000D03*
X167600000Y-108585000D03*
X167600000Y-100330000D03*
X167600000Y-97790000D03*
X190460000Y-63500000D03*
X190460000Y-68580000D03*
X190460000Y-66040000D03*
X190460000Y-71120000D03*
X190460000Y-73660000D03*
D21*
X193000000Y-72652000D03*
X193000000Y-73652000D03*
D22*
X172172000Y-72058000D03*
X172172000Y-68658000D03*
D23*
X182762000Y-102235000D03*
D24*
X179362000Y-102235000D03*
X191829800Y-109474000D03*
X188429800Y-109474000D03*
X191804400Y-112420400D03*
X188404400Y-112420400D03*
X175650000Y-113284000D03*
X172250000Y-113284000D03*
X173110000Y-104013000D03*
X169710000Y-104013000D03*
D18*
X184364000Y-109586500D03*
X184364000Y-106186500D03*
X180871500Y-109586500D03*
X180871500Y-106186500D03*
D25*
X188237500Y-52705000D03*
D26*
X170457500Y-73152000D03*
D27*
X187029200Y-67208400D03*
X183629200Y-67208400D03*
D18*
X193000000Y-62562000D03*
X193000000Y-65962000D03*
X172172000Y-58498000D03*
X172172000Y-61898000D03*
X172172000Y-63578000D03*
X172172000Y-66978000D03*
X193000000Y-71042000D03*
X193000000Y-67642000D03*
D24*
X176187000Y-70104000D03*
X179587000Y-70104000D03*
X179587000Y-66548000D03*
X176187000Y-66548000D03*
D27*
X186953000Y-70104000D03*
X183553000Y-70104000D03*
D19*
X179030000Y-100203000D03*
D28*
X181570000Y-100203000D03*
X184110000Y-100203000D03*
D29*
X186650000Y-100203000D03*
D30*
X189190000Y-100203000D03*
D31*
X185126860Y-104137880D03*
X182586860Y-104137880D03*
X180554860Y-104137880D03*
X178014860Y-104137880D03*
D32*
X187914000Y-105170000D03*
X175114000Y-105170000D03*
D33*
X180300000Y-97790000D03*
X180300000Y-95250000D03*
X180300000Y-92710000D03*
X180300000Y-90170000D03*
X180300000Y-87630000D03*
X180300000Y-85090000D03*
X180300000Y-82550000D03*
X180300000Y-80010000D03*
X180300000Y-77470000D03*
D34*
X180300000Y-74930000D03*
D33*
X175220000Y-92710000D03*
X177760000Y-92710000D03*
D35*
X170140000Y-97536000D03*
X170140000Y-98806000D03*
X170140000Y-100076000D03*
X170140000Y-101346000D03*
X176490000Y-101346000D03*
X176490000Y-100076000D03*
X176490000Y-98806000D03*
X176490000Y-97536000D03*
D36*
X195540000Y-107950000D03*
D37*
X195540000Y-110490000D03*
X195540000Y-113030000D03*
D38*
X183475000Y-111760000D03*
D39*
X182205000Y-111760000D03*
D38*
X180935000Y-111760000D03*
X179665000Y-111760000D03*
D40*
X167092000Y-53086000D03*
D41*
X169632000Y-53086000D03*
D26*
X191369000Y-93465936D03*
D42*
X192619000Y-95631000D03*
D33*
X175220000Y-95250000D03*
X177760000Y-95250000D03*
X175220000Y-90170000D03*
X177760000Y-90170000D03*
X175220000Y-87630000D03*
X177760000Y-87630000D03*
X175220000Y-77470000D03*
X177760000Y-77470000D03*
X175220000Y-80010000D03*
X177760000Y-80010000D03*
X175220000Y-85090000D03*
X177760000Y-85090000D03*
X175220000Y-82550000D03*
X177760000Y-82550000D03*
X185380000Y-82550000D03*
X187920000Y-82550000D03*
X185380000Y-85090000D03*
X187920000Y-85090000D03*
X185380000Y-80010000D03*
X187920000Y-80010000D03*
X185380000Y-77470000D03*
X187920000Y-77470000D03*
X185380000Y-87630000D03*
X187920000Y-87630000D03*
D43*
X185380000Y-90170000D03*
X187920000Y-90170000D03*
X185380000Y-95250000D03*
X187920000Y-95250000D03*
X185380000Y-92710000D03*
X187920000Y-92710000D03*
X187920000Y-95250000D03*
D44*
X190460000Y-95250000D03*
D33*
X172680000Y-95250000D03*
X175220000Y-95250000D03*
D35*
X170775000Y-107696000D03*
X170775000Y-108966000D03*
X170775000Y-110236000D03*
X170775000Y-111506000D03*
X177125000Y-111506000D03*
X177125000Y-110236000D03*
X177125000Y-108966000D03*
X177125000Y-107696000D03*
D43*
X182840000Y-97790000D03*
X182840000Y-95250000D03*
D33*
X182840000Y-92710000D03*
X182840000Y-90170000D03*
X182840000Y-87630000D03*
X182840000Y-85090000D03*
X182840000Y-82550000D03*
X182840000Y-80010000D03*
D45*
X182840000Y-77470000D03*
D46*
X182840000Y-74930000D03*
D26*
X191224320Y-103024181D03*
D10*
G36*
X191398570Y-106355042D02*
X189921358Y-106094570D01*
X190181830Y-104617358D01*
X191659042Y-104877830D01*
X191398570Y-106355042D01*
X191398570Y-106355042D01*
G37*
D47*
X185380000Y-74930000D03*
D33*
X187920000Y-74930000D03*
D26*
X171981500Y-74358500D03*
D18*
X193000000Y-60882000D03*
X193000000Y-57482000D03*
D12*
X155835000Y-56520000D03*
D13*
X143935000Y-61420000D03*
D14*
X154033740Y-64320100D03*
X152933920Y-64320100D03*
D13*
X153935000Y-61420000D03*
D15*
X142035000Y-56520000D03*
D14*
X145234820Y-64320100D03*
X146334640Y-64320100D03*
X147434460Y-64320100D03*
X148534280Y-64320100D03*
X149634100Y-64320100D03*
X150733920Y-64320100D03*
X151833740Y-64320100D03*
X144135000Y-64320100D03*
D11*
X164040000Y-95250000D03*
X164040000Y-92710000D03*
X164040000Y-97790000D03*
X164040000Y-100330000D03*
D16*
X156928000Y-58928000D03*
X156928000Y-61468000D03*
X156928000Y-64008000D03*
D17*
X151340000Y-52070000D03*
X148800000Y-52070000D03*
D18*
X161500000Y-52275000D03*
X161500000Y-55675000D03*
D11*
X158960000Y-58420000D03*
X158960000Y-55880000D03*
X158960000Y-53340000D03*
D19*
X135465000Y-92710000D03*
X138005000Y-92710000D03*
X140545000Y-92710000D03*
D20*
X164040000Y-105410000D03*
D11*
X164040000Y-102870000D03*
X164040000Y-100330000D03*
X136100000Y-111125000D03*
X136100000Y-108585000D03*
X136100000Y-100330000D03*
X136100000Y-97790000D03*
X158960000Y-63500000D03*
X158960000Y-68580000D03*
X158960000Y-66040000D03*
X158960000Y-71120000D03*
X158960000Y-73660000D03*
D21*
X161500000Y-72652000D03*
X161500000Y-73652000D03*
D22*
X140672000Y-72058000D03*
X140672000Y-68658000D03*
D11*
X164040000Y-73660000D03*
X164040000Y-63500000D03*
X164040000Y-66040000D03*
X164040000Y-71120000D03*
X164040000Y-68580000D03*
X164040000Y-58420000D03*
X164040000Y-60960000D03*
X164040000Y-55880000D03*
X164040000Y-53340000D03*
D23*
X151262000Y-102235000D03*
D24*
X147862000Y-102235000D03*
X160329800Y-109474000D03*
X156929800Y-109474000D03*
X160304400Y-112420400D03*
X156904400Y-112420400D03*
X144150000Y-113284000D03*
X140750000Y-113284000D03*
X141610000Y-104013000D03*
X138210000Y-104013000D03*
D18*
X152864000Y-109586500D03*
X152864000Y-106186500D03*
X149371500Y-109586500D03*
X149371500Y-106186500D03*
D25*
X156737500Y-52705000D03*
D26*
X138957500Y-73152000D03*
D27*
X155529200Y-67208400D03*
X152129200Y-67208400D03*
D18*
X161500000Y-62562000D03*
X161500000Y-65962000D03*
X140672000Y-58498000D03*
X140672000Y-61898000D03*
X140672000Y-63578000D03*
X140672000Y-66978000D03*
X161500000Y-71042000D03*
X161500000Y-67642000D03*
D24*
X144687000Y-70104000D03*
X148087000Y-70104000D03*
X148087000Y-66548000D03*
X144687000Y-66548000D03*
D27*
X155453000Y-70104000D03*
X152053000Y-70104000D03*
D19*
X147530000Y-100203000D03*
D28*
X150070000Y-100203000D03*
X152610000Y-100203000D03*
D29*
X155150000Y-100203000D03*
D30*
X157690000Y-100203000D03*
D31*
X153626860Y-104137880D03*
X151086860Y-104137880D03*
X149054860Y-104137880D03*
X146514860Y-104137880D03*
D32*
X156414000Y-105170000D03*
X143614000Y-105170000D03*
D33*
X148800000Y-97790000D03*
X148800000Y-95250000D03*
X148800000Y-92710000D03*
X148800000Y-90170000D03*
X148800000Y-87630000D03*
X148800000Y-85090000D03*
X148800000Y-82550000D03*
X148800000Y-80010000D03*
X148800000Y-77470000D03*
D34*
X148800000Y-74930000D03*
D33*
X143720000Y-92710000D03*
X146260000Y-92710000D03*
D35*
X138640000Y-97536000D03*
X138640000Y-98806000D03*
X138640000Y-100076000D03*
X138640000Y-101346000D03*
X144990000Y-101346000D03*
X144990000Y-100076000D03*
X144990000Y-98806000D03*
X144990000Y-97536000D03*
D36*
X164040000Y-107950000D03*
D37*
X164040000Y-110490000D03*
X164040000Y-113030000D03*
D38*
X151975000Y-111760000D03*
D39*
X150705000Y-111760000D03*
D38*
X149435000Y-111760000D03*
X148165000Y-111760000D03*
D40*
X135592000Y-53086000D03*
D41*
X138132000Y-53086000D03*
D26*
X159869000Y-93465936D03*
D42*
X161119000Y-95631000D03*
D33*
X143720000Y-95250000D03*
X146260000Y-95250000D03*
X143720000Y-90170000D03*
X146260000Y-90170000D03*
X143720000Y-87630000D03*
X146260000Y-87630000D03*
X143720000Y-77470000D03*
X146260000Y-77470000D03*
X143720000Y-80010000D03*
X146260000Y-80010000D03*
X143720000Y-85090000D03*
X146260000Y-85090000D03*
X143720000Y-82550000D03*
X146260000Y-82550000D03*
X153880000Y-82550000D03*
X156420000Y-82550000D03*
X153880000Y-85090000D03*
X156420000Y-85090000D03*
X153880000Y-80010000D03*
X156420000Y-80010000D03*
X153880000Y-77470000D03*
X156420000Y-77470000D03*
X153880000Y-87630000D03*
X156420000Y-87630000D03*
D43*
X153880000Y-90170000D03*
X156420000Y-90170000D03*
X153880000Y-95250000D03*
X156420000Y-95250000D03*
X153880000Y-92710000D03*
X156420000Y-92710000D03*
X156420000Y-95250000D03*
D44*
X158960000Y-95250000D03*
D33*
X141180000Y-95250000D03*
X143720000Y-95250000D03*
D35*
X139275000Y-107696000D03*
X139275000Y-108966000D03*
X139275000Y-110236000D03*
X139275000Y-111506000D03*
X145625000Y-111506000D03*
X145625000Y-110236000D03*
X145625000Y-108966000D03*
X145625000Y-107696000D03*
D43*
X151340000Y-97790000D03*
X151340000Y-95250000D03*
D33*
X151340000Y-92710000D03*
X151340000Y-90170000D03*
X151340000Y-87630000D03*
X151340000Y-85090000D03*
X151340000Y-82550000D03*
X151340000Y-80010000D03*
D45*
X151340000Y-77470000D03*
D46*
X151340000Y-74930000D03*
D26*
X159724320Y-103024181D03*
D10*
G36*
X159898570Y-106355042D02*
X158421358Y-106094570D01*
X158681830Y-104617358D01*
X160159042Y-104877830D01*
X159898570Y-106355042D01*
X159898570Y-106355042D01*
G37*
D47*
X153880000Y-74930000D03*
D33*
X156420000Y-74930000D03*
D26*
X140481500Y-74358500D03*
D18*
X161500000Y-60882000D03*
X161500000Y-57482000D03*
X224500000Y-60882000D03*
X224500000Y-57482000D03*
D26*
X203481500Y-74358500D03*
D47*
X216880000Y-74930000D03*
D33*
X219420000Y-74930000D03*
D26*
X222724320Y-103024181D03*
D10*
G36*
X222898570Y-106355042D02*
X221421358Y-106094570D01*
X221681830Y-104617358D01*
X223159042Y-104877830D01*
X222898570Y-106355042D01*
X222898570Y-106355042D01*
G37*
D43*
X214340000Y-97790000D03*
X214340000Y-95250000D03*
D33*
X214340000Y-92710000D03*
X214340000Y-90170000D03*
X214340000Y-87630000D03*
X214340000Y-85090000D03*
X214340000Y-82550000D03*
X214340000Y-80010000D03*
D45*
X214340000Y-77470000D03*
D46*
X214340000Y-74930000D03*
D35*
X202275000Y-107696000D03*
X202275000Y-108966000D03*
X202275000Y-110236000D03*
X202275000Y-111506000D03*
X208625000Y-111506000D03*
X208625000Y-110236000D03*
X208625000Y-108966000D03*
X208625000Y-107696000D03*
D33*
X204180000Y-95250000D03*
X206720000Y-95250000D03*
D43*
X219420000Y-95250000D03*
D44*
X221960000Y-95250000D03*
D43*
X216880000Y-92710000D03*
X219420000Y-92710000D03*
X216880000Y-95250000D03*
X219420000Y-95250000D03*
X216880000Y-90170000D03*
X219420000Y-90170000D03*
D33*
X216880000Y-87630000D03*
X219420000Y-87630000D03*
X216880000Y-77470000D03*
X219420000Y-77470000D03*
X216880000Y-80010000D03*
X219420000Y-80010000D03*
X216880000Y-85090000D03*
X219420000Y-85090000D03*
X216880000Y-82550000D03*
X219420000Y-82550000D03*
X206720000Y-82550000D03*
X209260000Y-82550000D03*
X206720000Y-85090000D03*
X209260000Y-85090000D03*
X206720000Y-80010000D03*
X209260000Y-80010000D03*
X206720000Y-77470000D03*
X209260000Y-77470000D03*
X206720000Y-87630000D03*
X209260000Y-87630000D03*
X206720000Y-90170000D03*
X209260000Y-90170000D03*
X206720000Y-95250000D03*
X209260000Y-95250000D03*
D26*
X222869000Y-93465936D03*
D42*
X224119000Y-95631000D03*
D40*
X198592000Y-53086000D03*
D41*
X201132000Y-53086000D03*
D38*
X214975000Y-111760000D03*
D39*
X213705000Y-111760000D03*
D38*
X212435000Y-111760000D03*
X211165000Y-111760000D03*
D36*
X227040000Y-107950000D03*
D37*
X227040000Y-110490000D03*
X227040000Y-113030000D03*
D35*
X201640000Y-97536000D03*
X201640000Y-98806000D03*
X201640000Y-100076000D03*
X201640000Y-101346000D03*
X207990000Y-101346000D03*
X207990000Y-100076000D03*
X207990000Y-98806000D03*
X207990000Y-97536000D03*
D33*
X206720000Y-92710000D03*
X209260000Y-92710000D03*
X211800000Y-97790000D03*
X211800000Y-95250000D03*
X211800000Y-92710000D03*
X211800000Y-90170000D03*
X211800000Y-87630000D03*
X211800000Y-85090000D03*
X211800000Y-82550000D03*
X211800000Y-80010000D03*
X211800000Y-77470000D03*
D34*
X211800000Y-74930000D03*
D31*
X216626860Y-104137880D03*
X214086860Y-104137880D03*
X212054860Y-104137880D03*
X209514860Y-104137880D03*
D32*
X219414000Y-105170000D03*
X206614000Y-105170000D03*
D19*
X210530000Y-100203000D03*
D28*
X213070000Y-100203000D03*
X215610000Y-100203000D03*
D29*
X218150000Y-100203000D03*
D30*
X220690000Y-100203000D03*
D27*
X218453000Y-70104000D03*
X215053000Y-70104000D03*
D24*
X211087000Y-66548000D03*
X207687000Y-66548000D03*
X207687000Y-70104000D03*
X211087000Y-70104000D03*
D18*
X224500000Y-71042000D03*
X224500000Y-67642000D03*
X203672000Y-63578000D03*
X203672000Y-66978000D03*
X203672000Y-58498000D03*
X203672000Y-61898000D03*
X224500000Y-62562000D03*
X224500000Y-65962000D03*
D27*
X218529200Y-67208400D03*
X215129200Y-67208400D03*
D26*
X201957500Y-73152000D03*
D25*
X219737500Y-52705000D03*
D18*
X212371500Y-109586500D03*
X212371500Y-106186500D03*
X215864000Y-109586500D03*
X215864000Y-106186500D03*
D24*
X204610000Y-104013000D03*
X201210000Y-104013000D03*
X207150000Y-113284000D03*
X203750000Y-113284000D03*
X223304400Y-112420400D03*
X219904400Y-112420400D03*
X223329800Y-109474000D03*
X219929800Y-109474000D03*
D23*
X214262000Y-102235000D03*
D24*
X210862000Y-102235000D03*
D11*
X227040000Y-73660000D03*
X227040000Y-63500000D03*
X227040000Y-66040000D03*
X227040000Y-71120000D03*
X227040000Y-68580000D03*
X227040000Y-58420000D03*
X227040000Y-60960000D03*
X227040000Y-55880000D03*
X227040000Y-53340000D03*
D22*
X203672000Y-72058000D03*
X203672000Y-68658000D03*
D21*
X224500000Y-72652000D03*
X224500000Y-73652000D03*
D11*
X221960000Y-63500000D03*
X221960000Y-68580000D03*
X221960000Y-66040000D03*
X221960000Y-71120000D03*
X221960000Y-73660000D03*
X199100000Y-100330000D03*
X199100000Y-97790000D03*
X199100000Y-111125000D03*
X199100000Y-108585000D03*
D20*
X227040000Y-105410000D03*
D11*
X227040000Y-102870000D03*
X227040000Y-100330000D03*
D19*
X198465000Y-92710000D03*
X201005000Y-92710000D03*
X203545000Y-92710000D03*
D11*
X221960000Y-58420000D03*
X221960000Y-55880000D03*
X221960000Y-53340000D03*
D18*
X224500000Y-52275000D03*
X224500000Y-55675000D03*
D17*
X214340000Y-52070000D03*
X211800000Y-52070000D03*
D16*
X219928000Y-58928000D03*
X219928000Y-61468000D03*
X219928000Y-64008000D03*
D11*
X227040000Y-95250000D03*
X227040000Y-92710000D03*
X227040000Y-97790000D03*
X227040000Y-100330000D03*
D12*
X218835000Y-56520000D03*
D13*
X206935000Y-61420000D03*
D14*
X217033740Y-64320100D03*
X215933920Y-64320100D03*
D13*
X216935000Y-61420000D03*
D15*
X205035000Y-56520000D03*
D14*
X208234820Y-64320100D03*
X209334640Y-64320100D03*
X210434460Y-64320100D03*
X211534280Y-64320100D03*
X212634100Y-64320100D03*
X213733920Y-64320100D03*
X214833740Y-64320100D03*
X207135000Y-64320100D03*
M02*
