M48
;DRILL file {KiCad 4.0.2+dfsg1-stable} date 2016年08月05日 19時31分11秒
;FORMAT={-:-/ absolute / inch / decimal}
FMAT,2
INCH,TZ
T1C0.039
T2C0.059
T3C0.063
T4C0.094
T5C0.126
T6C0.709
%
G90
G05
M72
T1
X8.695Y-1.93
X8.695Y-2.57
X8.695Y-2.83
X8.695Y-3.47
T2
X5.5684Y-4.965
X5.9306Y-4.965
T3
X7.9726Y-3.6776
X7.9726Y-4.6224
X7.9726Y-4.8776
X7.9726Y-5.8224
X8.9174Y-3.6776
X8.9174Y-4.6224
X8.9174Y-4.8776
X8.9174Y-5.8224
T4
X8.88Y-1.96
X8.88Y-2.54
X8.88Y-2.86
X8.88Y-3.44
T5
X7.665Y-1.84
X7.665Y-3.04
X8.315Y-1.84
X8.315Y-3.04
T6
X8.445Y-4.15
X8.445Y-5.35
T0
M30
