G04 #@! TF.FileFunction,Legend,Bot*
%FSLAX46Y46*%
G04 Gerber Fmt 4.6, Leading zero omitted, Abs format (unit mm)*
G04 Created by KiCad (PCBNEW 4.0.2+dfsg1-stable) date 2016年08月05日 19時27分02秒*
%MOMM*%
G01*
G04 APERTURE LIST*
%ADD10C,0.100000*%
%ADD11C,0.381000*%
%ADD12C,0.500000*%
%ADD13C,0.132500*%
%ADD14C,0.002540*%
%ADD15C,0.150000*%
G04 APERTURE END LIST*
D10*
D11*
X235204000Y24130000D02*
X236474000Y24130000D01*
D10*
X196039714Y-100320000D02*
X196039714Y-99480000D01*
X195439715Y-99480000D02*
X195268286Y-99480000D01*
X195182572Y-99520000D01*
X195096858Y-99600000D01*
X195054000Y-99760000D01*
X195054000Y-100040000D01*
X195096858Y-100200000D01*
X195182572Y-100280000D01*
X195268286Y-100320000D01*
X195439715Y-100320000D01*
X195525429Y-100280000D01*
X195611143Y-100200000D01*
X195654000Y-100040000D01*
X195654000Y-99760000D01*
X195611143Y-99600000D01*
X195525429Y-99520000D01*
X195439715Y-99480000D01*
X194196858Y-100320000D02*
X194711143Y-100320000D01*
X194454001Y-100320000D02*
X194454001Y-99480000D01*
X194539715Y-99600000D01*
X194625429Y-99680000D01*
X194711143Y-99720000D01*
X193425429Y-99480000D02*
X193596858Y-99480000D01*
X193682572Y-99520000D01*
X193725429Y-99560000D01*
X193811143Y-99680000D01*
X193854000Y-99840000D01*
X193854000Y-100160000D01*
X193811143Y-100240000D01*
X193768286Y-100280000D01*
X193682572Y-100320000D01*
X193511143Y-100320000D01*
X193425429Y-100280000D01*
X193382572Y-100240000D01*
X193339715Y-100160000D01*
X193339715Y-99960000D01*
X193382572Y-99880000D01*
X193425429Y-99840000D01*
X193511143Y-99800000D01*
X193682572Y-99800000D01*
X193768286Y-99840000D01*
X193811143Y-99880000D01*
X193854000Y-99960000D01*
X196039714Y-102872000D02*
X196039714Y-102032000D01*
X195439715Y-102032000D02*
X195268286Y-102032000D01*
X195182572Y-102072000D01*
X195096858Y-102152000D01*
X195054000Y-102312000D01*
X195054000Y-102592000D01*
X195096858Y-102752000D01*
X195182572Y-102832000D01*
X195268286Y-102872000D01*
X195439715Y-102872000D01*
X195525429Y-102832000D01*
X195611143Y-102752000D01*
X195654000Y-102592000D01*
X195654000Y-102312000D01*
X195611143Y-102152000D01*
X195525429Y-102072000D01*
X195439715Y-102032000D01*
X194239715Y-102032000D02*
X194668286Y-102032000D01*
X194711143Y-102432000D01*
X194668286Y-102392000D01*
X194582572Y-102352000D01*
X194368286Y-102352000D01*
X194282572Y-102392000D01*
X194239715Y-102432000D01*
X194196858Y-102512000D01*
X194196858Y-102712000D01*
X194239715Y-102792000D01*
X194282572Y-102832000D01*
X194368286Y-102872000D01*
X194582572Y-102872000D01*
X194668286Y-102832000D01*
X194711143Y-102792000D01*
X196039714Y-105424000D02*
X196039714Y-104584000D01*
X195439715Y-104584000D02*
X195268286Y-104584000D01*
X195182572Y-104624000D01*
X195096858Y-104704000D01*
X195054000Y-104864000D01*
X195054000Y-105144000D01*
X195096858Y-105304000D01*
X195182572Y-105384000D01*
X195268286Y-105424000D01*
X195439715Y-105424000D01*
X195525429Y-105384000D01*
X195611143Y-105304000D01*
X195654000Y-105144000D01*
X195654000Y-104864000D01*
X195611143Y-104704000D01*
X195525429Y-104624000D01*
X195439715Y-104584000D01*
X194282572Y-104864000D02*
X194282572Y-105424000D01*
X194496858Y-104544000D02*
X194711143Y-105144000D01*
X194154001Y-105144000D01*
X196039714Y-107976000D02*
X196039714Y-107136000D01*
X195439715Y-107136000D02*
X195268286Y-107136000D01*
X195182572Y-107176000D01*
X195096858Y-107256000D01*
X195054000Y-107416000D01*
X195054000Y-107696000D01*
X195096858Y-107856000D01*
X195182572Y-107936000D01*
X195268286Y-107976000D01*
X195439715Y-107976000D01*
X195525429Y-107936000D01*
X195611143Y-107856000D01*
X195654000Y-107696000D01*
X195654000Y-107416000D01*
X195611143Y-107256000D01*
X195525429Y-107176000D01*
X195439715Y-107136000D01*
X194496858Y-107136000D02*
X194411143Y-107136000D01*
X194325429Y-107176000D01*
X194282572Y-107216000D01*
X194239715Y-107296000D01*
X194196858Y-107456000D01*
X194196858Y-107656000D01*
X194239715Y-107816000D01*
X194282572Y-107896000D01*
X194325429Y-107936000D01*
X194411143Y-107976000D01*
X194496858Y-107976000D01*
X194582572Y-107936000D01*
X194625429Y-107896000D01*
X194668286Y-107816000D01*
X194711143Y-107656000D01*
X194711143Y-107456000D01*
X194668286Y-107296000D01*
X194625429Y-107216000D01*
X194582572Y-107176000D01*
X194496858Y-107136000D01*
X196039714Y-110528000D02*
X196039714Y-109688000D01*
X195439715Y-109688000D02*
X195268286Y-109688000D01*
X195182572Y-109728000D01*
X195096858Y-109808000D01*
X195054000Y-109968000D01*
X195054000Y-110248000D01*
X195096858Y-110408000D01*
X195182572Y-110488000D01*
X195268286Y-110528000D01*
X195439715Y-110528000D01*
X195525429Y-110488000D01*
X195611143Y-110408000D01*
X195654000Y-110248000D01*
X195654000Y-109968000D01*
X195611143Y-109808000D01*
X195525429Y-109728000D01*
X195439715Y-109688000D01*
X194711143Y-109768000D02*
X194668286Y-109728000D01*
X194582572Y-109688000D01*
X194368286Y-109688000D01*
X194282572Y-109728000D01*
X194239715Y-109768000D01*
X194196858Y-109848000D01*
X194196858Y-109928000D01*
X194239715Y-110048000D01*
X194754001Y-110528000D01*
X194196858Y-110528000D01*
X196039714Y-113080000D02*
X196039714Y-112240000D01*
X195439715Y-112240000D02*
X195268286Y-112240000D01*
X195182572Y-112280000D01*
X195096858Y-112360000D01*
X195054000Y-112520000D01*
X195054000Y-112800000D01*
X195096858Y-112960000D01*
X195182572Y-113040000D01*
X195268286Y-113080000D01*
X195439715Y-113080000D01*
X195525429Y-113040000D01*
X195611143Y-112960000D01*
X195654000Y-112800000D01*
X195654000Y-112520000D01*
X195611143Y-112360000D01*
X195525429Y-112280000D01*
X195439715Y-112240000D01*
X194196858Y-113080000D02*
X194711143Y-113080000D01*
X194454001Y-113080000D02*
X194454001Y-112240000D01*
X194539715Y-112360000D01*
X194625429Y-112440000D01*
X194711143Y-112480000D01*
X193425429Y-112520000D02*
X193425429Y-113080000D01*
X193639715Y-112200000D02*
X193854000Y-112800000D01*
X193296858Y-112800000D01*
X196039714Y-115632000D02*
X196039714Y-114792000D01*
X195439715Y-114792000D02*
X195268286Y-114792000D01*
X195182572Y-114832000D01*
X195096858Y-114912000D01*
X195054000Y-115072000D01*
X195054000Y-115352000D01*
X195096858Y-115512000D01*
X195182572Y-115592000D01*
X195268286Y-115632000D01*
X195439715Y-115632000D01*
X195525429Y-115592000D01*
X195611143Y-115512000D01*
X195654000Y-115352000D01*
X195654000Y-115072000D01*
X195611143Y-114912000D01*
X195525429Y-114832000D01*
X195439715Y-114792000D01*
X194196858Y-115632000D02*
X194711143Y-115632000D01*
X194454001Y-115632000D02*
X194454001Y-114792000D01*
X194539715Y-114912000D01*
X194625429Y-114992000D01*
X194711143Y-115032000D01*
X193854000Y-114872000D02*
X193811143Y-114832000D01*
X193725429Y-114792000D01*
X193511143Y-114792000D01*
X193425429Y-114832000D01*
X193382572Y-114872000D01*
X193339715Y-114952000D01*
X193339715Y-115032000D01*
X193382572Y-115152000D01*
X193896858Y-115632000D01*
X193339715Y-115632000D01*
X196039714Y-118184000D02*
X196039714Y-117344000D01*
X195439715Y-117344000D02*
X195268286Y-117344000D01*
X195182572Y-117384000D01*
X195096858Y-117464000D01*
X195054000Y-117624000D01*
X195054000Y-117904000D01*
X195096858Y-118064000D01*
X195182572Y-118144000D01*
X195268286Y-118184000D01*
X195439715Y-118184000D01*
X195525429Y-118144000D01*
X195611143Y-118064000D01*
X195654000Y-117904000D01*
X195654000Y-117624000D01*
X195611143Y-117464000D01*
X195525429Y-117384000D01*
X195439715Y-117344000D01*
X194196858Y-118184000D02*
X194711143Y-118184000D01*
X194454001Y-118184000D02*
X194454001Y-117344000D01*
X194539715Y-117464000D01*
X194625429Y-117544000D01*
X194711143Y-117584000D01*
X193896858Y-117344000D02*
X193339715Y-117344000D01*
X193639715Y-117664000D01*
X193511143Y-117664000D01*
X193425429Y-117704000D01*
X193382572Y-117744000D01*
X193339715Y-117824000D01*
X193339715Y-118024000D01*
X193382572Y-118104000D01*
X193425429Y-118144000D01*
X193511143Y-118184000D01*
X193768286Y-118184000D01*
X193854000Y-118144000D01*
X193896858Y-118104000D01*
X196039714Y-120736000D02*
X196039714Y-119896000D01*
X195439715Y-119896000D02*
X195268286Y-119896000D01*
X195182572Y-119936000D01*
X195096858Y-120016000D01*
X195054000Y-120176000D01*
X195054000Y-120456000D01*
X195096858Y-120616000D01*
X195182572Y-120696000D01*
X195268286Y-120736000D01*
X195439715Y-120736000D01*
X195525429Y-120696000D01*
X195611143Y-120616000D01*
X195654000Y-120456000D01*
X195654000Y-120176000D01*
X195611143Y-120016000D01*
X195525429Y-119936000D01*
X195439715Y-119896000D01*
X194196858Y-120736000D02*
X194711143Y-120736000D01*
X194454001Y-120736000D02*
X194454001Y-119896000D01*
X194539715Y-120016000D01*
X194625429Y-120096000D01*
X194711143Y-120136000D01*
X193382572Y-119896000D02*
X193811143Y-119896000D01*
X193854000Y-120296000D01*
X193811143Y-120256000D01*
X193725429Y-120216000D01*
X193511143Y-120216000D01*
X193425429Y-120256000D01*
X193382572Y-120296000D01*
X193339715Y-120376000D01*
X193339715Y-120576000D01*
X193382572Y-120656000D01*
X193425429Y-120696000D01*
X193511143Y-120736000D01*
X193725429Y-120736000D01*
X193811143Y-120696000D01*
X193854000Y-120656000D01*
D12*
X185250429Y-114720714D02*
X184250429Y-114720714D01*
X183821858Y-116292143D02*
X185250429Y-116292143D01*
X185250429Y-113292143D01*
X183821858Y-113292143D01*
X182679000Y-116149286D02*
X182250429Y-116292143D01*
X181536143Y-116292143D01*
X181250429Y-116149286D01*
X181107572Y-116006429D01*
X180964715Y-115720714D01*
X180964715Y-115435000D01*
X181107572Y-115149286D01*
X181250429Y-115006429D01*
X181536143Y-114863571D01*
X182107572Y-114720714D01*
X182393286Y-114577857D01*
X182536143Y-114435000D01*
X182679000Y-114149286D01*
X182679000Y-113863571D01*
X182536143Y-113577857D01*
X182393286Y-113435000D01*
X182107572Y-113292143D01*
X181393286Y-113292143D01*
X180964715Y-113435000D01*
X179964715Y-113292143D02*
X177964715Y-116292143D01*
X177964715Y-113292143D02*
X179964715Y-116292143D01*
X176964714Y-115435000D02*
X175536143Y-115435000D01*
X177250429Y-116292143D02*
X176250429Y-113292143D01*
X175250429Y-116292143D01*
X172536143Y-116292143D02*
X173536143Y-114863571D01*
X174250428Y-116292143D02*
X174250428Y-113292143D01*
X173107571Y-113292143D01*
X172821857Y-113435000D01*
X172679000Y-113577857D01*
X172536143Y-113863571D01*
X172536143Y-114292143D01*
X172679000Y-114577857D01*
X172821857Y-114720714D01*
X173107571Y-114863571D01*
X174250428Y-114863571D01*
X169393286Y-113292143D02*
X168393286Y-116292143D01*
X167393286Y-113292143D01*
X165250428Y-116149286D02*
X165536142Y-116292143D01*
X166107571Y-116292143D01*
X166393285Y-116149286D01*
X166536142Y-115863571D01*
X166536142Y-114720714D01*
X166393285Y-114435000D01*
X166107571Y-114292143D01*
X165536142Y-114292143D01*
X165250428Y-114435000D01*
X165107571Y-114720714D01*
X165107571Y-115006429D01*
X166536142Y-115292143D01*
X163821856Y-116292143D02*
X163821856Y-114292143D01*
X163821856Y-114863571D02*
X163678999Y-114577857D01*
X163536142Y-114435000D01*
X163250428Y-114292143D01*
X162964713Y-114292143D01*
X161964713Y-116006429D02*
X161821856Y-116149286D01*
X161964713Y-116292143D01*
X162107570Y-116149286D01*
X161964713Y-116006429D01*
X161964713Y-116292143D01*
X160678999Y-113577857D02*
X160536142Y-113435000D01*
X160250428Y-113292143D01*
X159536142Y-113292143D01*
X159250428Y-113435000D01*
X159107571Y-113577857D01*
X158964714Y-113863571D01*
X158964714Y-114149286D01*
X159107571Y-114577857D01*
X160821857Y-116292143D01*
X158964714Y-116292143D01*
X157107571Y-113292143D02*
X156821856Y-113292143D01*
X156536142Y-113435000D01*
X156393285Y-113577857D01*
X156250428Y-113863571D01*
X156107571Y-114435000D01*
X156107571Y-115149286D01*
X156250428Y-115720714D01*
X156393285Y-116006429D01*
X156536142Y-116149286D01*
X156821856Y-116292143D01*
X157107571Y-116292143D01*
X157393285Y-116149286D01*
X157536142Y-116006429D01*
X157678999Y-115720714D01*
X157821856Y-115149286D01*
X157821856Y-114435000D01*
X157678999Y-113863571D01*
X157536142Y-113577857D01*
X157393285Y-113435000D01*
X157107571Y-113292143D01*
X153250428Y-116292143D02*
X154964713Y-116292143D01*
X154107571Y-116292143D02*
X154107571Y-113292143D01*
X154393285Y-113720714D01*
X154678999Y-114006429D01*
X154964713Y-114149286D01*
X150678999Y-113292143D02*
X151250428Y-113292143D01*
X151536142Y-113435000D01*
X151678999Y-113577857D01*
X151964713Y-114006429D01*
X152107570Y-114577857D01*
X152107570Y-115720714D01*
X151964713Y-116006429D01*
X151821856Y-116149286D01*
X151536142Y-116292143D01*
X150964713Y-116292143D01*
X150678999Y-116149286D01*
X150536142Y-116006429D01*
X150393285Y-115720714D01*
X150393285Y-115006429D01*
X150536142Y-114720714D01*
X150678999Y-114577857D01*
X150964713Y-114435000D01*
X151536142Y-114435000D01*
X151821856Y-114577857D01*
X151964713Y-114720714D01*
X152107570Y-115006429D01*
X148536142Y-113292143D02*
X148250427Y-113292143D01*
X147964713Y-113435000D01*
X147821856Y-113577857D01*
X147678999Y-113863571D01*
X147536142Y-114435000D01*
X147536142Y-115149286D01*
X147678999Y-115720714D01*
X147821856Y-116006429D01*
X147964713Y-116149286D01*
X148250427Y-116292143D01*
X148536142Y-116292143D01*
X148821856Y-116149286D01*
X148964713Y-116006429D01*
X149107570Y-115720714D01*
X149250427Y-115149286D01*
X149250427Y-114435000D01*
X149107570Y-113863571D01*
X148964713Y-113577857D01*
X148821856Y-113435000D01*
X148536142Y-113292143D01*
X145821856Y-114577857D02*
X146107570Y-114435000D01*
X146250427Y-114292143D01*
X146393284Y-114006429D01*
X146393284Y-113863571D01*
X146250427Y-113577857D01*
X146107570Y-113435000D01*
X145821856Y-113292143D01*
X145250427Y-113292143D01*
X144964713Y-113435000D01*
X144821856Y-113577857D01*
X144678999Y-113863571D01*
X144678999Y-114006429D01*
X144821856Y-114292143D01*
X144964713Y-114435000D01*
X145250427Y-114577857D01*
X145821856Y-114577857D01*
X146107570Y-114720714D01*
X146250427Y-114863571D01*
X146393284Y-115149286D01*
X146393284Y-115720714D01*
X146250427Y-116006429D01*
X146107570Y-116149286D01*
X145821856Y-116292143D01*
X145250427Y-116292143D01*
X144964713Y-116149286D01*
X144821856Y-116006429D01*
X144678999Y-115720714D01*
X144678999Y-115149286D01*
X144821856Y-114863571D01*
X144964713Y-114720714D01*
X145250427Y-114577857D01*
X142821856Y-113292143D02*
X142536141Y-113292143D01*
X142250427Y-113435000D01*
X142107570Y-113577857D01*
X141964713Y-113863571D01*
X141821856Y-114435000D01*
X141821856Y-115149286D01*
X141964713Y-115720714D01*
X142107570Y-116006429D01*
X142250427Y-116149286D01*
X142536141Y-116292143D01*
X142821856Y-116292143D01*
X143107570Y-116149286D01*
X143250427Y-116006429D01*
X143393284Y-115720714D01*
X143536141Y-115149286D01*
X143536141Y-114435000D01*
X143393284Y-113863571D01*
X143250427Y-113577857D01*
X143107570Y-113435000D01*
X142821856Y-113292143D01*
X139107570Y-113292143D02*
X140536141Y-113292143D01*
X140678998Y-114720714D01*
X140536141Y-114577857D01*
X140250427Y-114435000D01*
X139536141Y-114435000D01*
X139250427Y-114577857D01*
X139107570Y-114720714D01*
X138964713Y-115006429D01*
X138964713Y-115720714D01*
X139107570Y-116006429D01*
X139250427Y-116149286D01*
X139536141Y-116292143D01*
X140250427Y-116292143D01*
X140536141Y-116149286D01*
X140678998Y-116006429D01*
D13*
X160336809Y-118167190D02*
X160412524Y-118129095D01*
X160538714Y-118129095D01*
X160589190Y-118167190D01*
X160614428Y-118205286D01*
X160639667Y-118281476D01*
X160639667Y-118357667D01*
X160614428Y-118433857D01*
X160589190Y-118471952D01*
X160538714Y-118510048D01*
X160437762Y-118548143D01*
X160387286Y-118586238D01*
X160362047Y-118624333D01*
X160336809Y-118700524D01*
X160336809Y-118776714D01*
X160362047Y-118852905D01*
X160387286Y-118891000D01*
X160437762Y-118929095D01*
X160563952Y-118929095D01*
X160639667Y-118891000D01*
X160866809Y-118129095D02*
X160866809Y-118929095D01*
X161068714Y-118929095D01*
X161119190Y-118891000D01*
X161144429Y-118852905D01*
X161169667Y-118776714D01*
X161169667Y-118662429D01*
X161144429Y-118586238D01*
X161119190Y-118548143D01*
X161068714Y-118510048D01*
X160866809Y-118510048D01*
X161396809Y-118129095D02*
X161396809Y-118929095D01*
X161699667Y-118129095D02*
X161472524Y-118586238D01*
X161699667Y-118929095D02*
X161396809Y-118471952D01*
X161926809Y-118548143D02*
X162330619Y-118548143D01*
X162330619Y-118319571D02*
X161926809Y-118319571D01*
X162582999Y-118129095D02*
X162582999Y-118929095D01*
X162709190Y-118929095D01*
X162784904Y-118891000D01*
X162835380Y-118814810D01*
X162860619Y-118738619D01*
X162885857Y-118586238D01*
X162885857Y-118471952D01*
X162860619Y-118319571D01*
X162835380Y-118243381D01*
X162784904Y-118167190D01*
X162709190Y-118129095D01*
X162582999Y-118129095D01*
X163340142Y-118929095D02*
X163239190Y-118929095D01*
X163188714Y-118891000D01*
X163163476Y-118852905D01*
X163112999Y-118738619D01*
X163087761Y-118586238D01*
X163087761Y-118281476D01*
X163112999Y-118205286D01*
X163138238Y-118167190D01*
X163188714Y-118129095D01*
X163289666Y-118129095D01*
X163340142Y-118167190D01*
X163365380Y-118205286D01*
X163390619Y-118281476D01*
X163390619Y-118471952D01*
X163365380Y-118548143D01*
X163340142Y-118586238D01*
X163289666Y-118624333D01*
X163188714Y-118624333D01*
X163138238Y-118586238D01*
X163112999Y-118548143D01*
X163087761Y-118471952D01*
X164021571Y-118929095D02*
X164021571Y-118281476D01*
X164046810Y-118205286D01*
X164072048Y-118167190D01*
X164122524Y-118129095D01*
X164223476Y-118129095D01*
X164273952Y-118167190D01*
X164299191Y-118205286D01*
X164324429Y-118281476D01*
X164324429Y-118929095D01*
X164551571Y-118167190D02*
X164627286Y-118129095D01*
X164753476Y-118129095D01*
X164803952Y-118167190D01*
X164829190Y-118205286D01*
X164854429Y-118281476D01*
X164854429Y-118357667D01*
X164829190Y-118433857D01*
X164803952Y-118471952D01*
X164753476Y-118510048D01*
X164652524Y-118548143D01*
X164602048Y-118586238D01*
X164576809Y-118624333D01*
X164551571Y-118700524D01*
X164551571Y-118776714D01*
X164576809Y-118852905D01*
X164602048Y-118891000D01*
X164652524Y-118929095D01*
X164778714Y-118929095D01*
X164854429Y-118891000D01*
X165258238Y-118548143D02*
X165333952Y-118510048D01*
X165359191Y-118471952D01*
X165384429Y-118395762D01*
X165384429Y-118281476D01*
X165359191Y-118205286D01*
X165333952Y-118167190D01*
X165283476Y-118129095D01*
X165081571Y-118129095D01*
X165081571Y-118929095D01*
X165258238Y-118929095D01*
X165308714Y-118891000D01*
X165333952Y-118852905D01*
X165359191Y-118776714D01*
X165359191Y-118700524D01*
X165333952Y-118624333D01*
X165308714Y-118586238D01*
X165258238Y-118548143D01*
X165081571Y-118548143D01*
X165611571Y-118548143D02*
X166015381Y-118548143D01*
X166015381Y-118319571D02*
X165611571Y-118319571D01*
X166267761Y-118129095D02*
X166267761Y-118929095D01*
X166393952Y-118929095D01*
X166469666Y-118891000D01*
X166520142Y-118814810D01*
X166545381Y-118738619D01*
X166570619Y-118586238D01*
X166570619Y-118471952D01*
X166545381Y-118319571D01*
X166520142Y-118243381D01*
X166469666Y-118167190D01*
X166393952Y-118129095D01*
X166267761Y-118129095D01*
X167024904Y-118662429D02*
X167024904Y-118129095D01*
X166898714Y-118967190D02*
X166772523Y-118395762D01*
X167100619Y-118395762D01*
X168009191Y-118129095D02*
X167832524Y-118510048D01*
X167706333Y-118129095D02*
X167706333Y-118929095D01*
X167908238Y-118929095D01*
X167958714Y-118891000D01*
X167983953Y-118852905D01*
X168009191Y-118776714D01*
X168009191Y-118662429D01*
X167983953Y-118586238D01*
X167958714Y-118548143D01*
X167908238Y-118510048D01*
X167706333Y-118510048D01*
X168236333Y-118548143D02*
X168640143Y-118548143D01*
X168640143Y-118319571D02*
X168236333Y-118319571D01*
X168892523Y-118129095D02*
X168892523Y-118929095D01*
X169018714Y-118929095D01*
X169094428Y-118891000D01*
X169144904Y-118814810D01*
X169170143Y-118738619D01*
X169195381Y-118586238D01*
X169195381Y-118471952D01*
X169170143Y-118319571D01*
X169144904Y-118243381D01*
X169094428Y-118167190D01*
X169018714Y-118129095D01*
X168892523Y-118129095D01*
X169700143Y-118129095D02*
X169397285Y-118129095D01*
X169548714Y-118129095D02*
X169548714Y-118929095D01*
X169498238Y-118814810D01*
X169447762Y-118738619D01*
X169397285Y-118700524D01*
X170154428Y-118929095D02*
X170053476Y-118929095D01*
X170003000Y-118891000D01*
X169977762Y-118852905D01*
X169927285Y-118738619D01*
X169902047Y-118586238D01*
X169902047Y-118281476D01*
X169927285Y-118205286D01*
X169952524Y-118167190D01*
X170003000Y-118129095D01*
X170103952Y-118129095D01*
X170154428Y-118167190D01*
X170179666Y-118205286D01*
X170204905Y-118281476D01*
X170204905Y-118471952D01*
X170179666Y-118548143D01*
X170154428Y-118586238D01*
X170103952Y-118624333D01*
X170003000Y-118624333D01*
X169952524Y-118586238D01*
X169927285Y-118548143D01*
X169902047Y-118471952D01*
X171113477Y-118891000D02*
X171063000Y-118929095D01*
X170987286Y-118929095D01*
X170911572Y-118891000D01*
X170861096Y-118814810D01*
X170835857Y-118738619D01*
X170810619Y-118586238D01*
X170810619Y-118471952D01*
X170835857Y-118319571D01*
X170861096Y-118243381D01*
X170911572Y-118167190D01*
X170987286Y-118129095D01*
X171037762Y-118129095D01*
X171113477Y-118167190D01*
X171138715Y-118205286D01*
X171138715Y-118471952D01*
X171037762Y-118471952D01*
X171365857Y-118548143D02*
X171769667Y-118548143D01*
X171769667Y-118319571D02*
X171365857Y-118319571D01*
X172022047Y-118129095D02*
X172022047Y-118929095D01*
X172148238Y-118929095D01*
X172223952Y-118891000D01*
X172274428Y-118814810D01*
X172299667Y-118738619D01*
X172324905Y-118586238D01*
X172324905Y-118471952D01*
X172299667Y-118319571D01*
X172274428Y-118243381D01*
X172223952Y-118167190D01*
X172148238Y-118129095D01*
X172022047Y-118129095D01*
X172526809Y-118852905D02*
X172552047Y-118891000D01*
X172602524Y-118929095D01*
X172728714Y-118929095D01*
X172779190Y-118891000D01*
X172804428Y-118852905D01*
X172829667Y-118776714D01*
X172829667Y-118700524D01*
X172804428Y-118586238D01*
X172501571Y-118129095D01*
X172829667Y-118129095D01*
X173637286Y-118548143D02*
X173713000Y-118510048D01*
X173738239Y-118471952D01*
X173763477Y-118395762D01*
X173763477Y-118281476D01*
X173738239Y-118205286D01*
X173713000Y-118167190D01*
X173662524Y-118129095D01*
X173460619Y-118129095D01*
X173460619Y-118929095D01*
X173637286Y-118929095D01*
X173687762Y-118891000D01*
X173713000Y-118852905D01*
X173738239Y-118776714D01*
X173738239Y-118700524D01*
X173713000Y-118624333D01*
X173687762Y-118586238D01*
X173637286Y-118548143D01*
X173460619Y-118548143D01*
X173990619Y-118548143D02*
X174394429Y-118548143D01*
X174394429Y-118319571D02*
X173990619Y-118319571D01*
X174646809Y-118129095D02*
X174646809Y-118929095D01*
X174773000Y-118929095D01*
X174848714Y-118891000D01*
X174899190Y-118814810D01*
X174924429Y-118738619D01*
X174949667Y-118586238D01*
X174949667Y-118471952D01*
X174924429Y-118319571D01*
X174899190Y-118243381D01*
X174848714Y-118167190D01*
X174773000Y-118129095D01*
X174646809Y-118129095D01*
X175454429Y-118129095D02*
X175151571Y-118129095D01*
X175303000Y-118129095D02*
X175303000Y-118929095D01*
X175252524Y-118814810D01*
X175202048Y-118738619D01*
X175151571Y-118700524D01*
X175933952Y-118929095D02*
X175681571Y-118929095D01*
X175656333Y-118548143D01*
X175681571Y-118586238D01*
X175732048Y-118624333D01*
X175858238Y-118624333D01*
X175908714Y-118586238D01*
X175933952Y-118548143D01*
X175959191Y-118471952D01*
X175959191Y-118281476D01*
X175933952Y-118205286D01*
X175908714Y-118167190D01*
X175858238Y-118129095D01*
X175732048Y-118129095D01*
X175681571Y-118167190D01*
X175656333Y-118205286D01*
D11*
X234442000Y36576000D02*
X235712000Y36576000D01*
D14*
G36*
X143164560Y-110830360D02*
X143134080Y-110815120D01*
X143070580Y-110774480D01*
X142976600Y-110713520D01*
X142867380Y-110639860D01*
X142755620Y-110563660D01*
X142666720Y-110502700D01*
X142603220Y-110462060D01*
X142575280Y-110449360D01*
X142562580Y-110454440D01*
X142509240Y-110479840D01*
X142433040Y-110517940D01*
X142389860Y-110540800D01*
X142318740Y-110571280D01*
X142285720Y-110576360D01*
X142278100Y-110568740D01*
X142252700Y-110515400D01*
X142214600Y-110423960D01*
X142161260Y-110302040D01*
X142100300Y-110162340D01*
X142036800Y-110009940D01*
X141970760Y-109855000D01*
X141909800Y-109705140D01*
X141856460Y-109573060D01*
X141813280Y-109463840D01*
X141782800Y-109390180D01*
X141772640Y-109357160D01*
X141775180Y-109349540D01*
X141810740Y-109316520D01*
X141871700Y-109270800D01*
X142003780Y-109164120D01*
X142133320Y-109001560D01*
X142212060Y-108816140D01*
X142240000Y-108612940D01*
X142217140Y-108422440D01*
X142140940Y-108239560D01*
X142013940Y-108077000D01*
X141861540Y-107955080D01*
X141681200Y-107876340D01*
X141478000Y-107853480D01*
X141284960Y-107873800D01*
X141099540Y-107947460D01*
X140934440Y-108071920D01*
X140865860Y-108153200D01*
X140769340Y-108318300D01*
X140716000Y-108496100D01*
X140708380Y-108541820D01*
X140718540Y-108737400D01*
X140774420Y-108922820D01*
X140878560Y-109090460D01*
X141020800Y-109227620D01*
X141038580Y-109242860D01*
X141107160Y-109291120D01*
X141150340Y-109326680D01*
X141185900Y-109354620D01*
X140936980Y-109954060D01*
X140896340Y-110048040D01*
X140827760Y-110213140D01*
X140769340Y-110352840D01*
X140721080Y-110464600D01*
X140688060Y-110540800D01*
X140672820Y-110571280D01*
X140670280Y-110571280D01*
X140649960Y-110576360D01*
X140604240Y-110558580D01*
X140520420Y-110517940D01*
X140464540Y-110490000D01*
X140401040Y-110459520D01*
X140373100Y-110449360D01*
X140347700Y-110462060D01*
X140286740Y-110500160D01*
X140197840Y-110561120D01*
X140091160Y-110634780D01*
X139989560Y-110703360D01*
X139895580Y-110764320D01*
X139827000Y-110807500D01*
X139793980Y-110825280D01*
X139788900Y-110825280D01*
X139758420Y-110810040D01*
X139705080Y-110764320D01*
X139623800Y-110688120D01*
X139506960Y-110573820D01*
X139489180Y-110556040D01*
X139395200Y-110459520D01*
X139319000Y-110378240D01*
X139265660Y-110322360D01*
X139247880Y-110294420D01*
X139247880Y-110294420D01*
X139265660Y-110261400D01*
X139308840Y-110195360D01*
X139369800Y-110098840D01*
X139446000Y-109987080D01*
X139644120Y-109700060D01*
X139534900Y-109428280D01*
X139501880Y-109344460D01*
X139458700Y-109242860D01*
X139428220Y-109171740D01*
X139412980Y-109138720D01*
X139382500Y-109128560D01*
X139308840Y-109110780D01*
X139199620Y-109087920D01*
X139070080Y-109065060D01*
X138948160Y-109042200D01*
X138838940Y-109021880D01*
X138757660Y-109006640D01*
X138722100Y-108999020D01*
X138711940Y-108993940D01*
X138706860Y-108976160D01*
X138701780Y-108938060D01*
X138699240Y-108872020D01*
X138696700Y-108765340D01*
X138696700Y-108612940D01*
X138696700Y-108595160D01*
X138699240Y-108447840D01*
X138701780Y-108333540D01*
X138704320Y-108257340D01*
X138709400Y-108226860D01*
X138709400Y-108226860D01*
X138744960Y-108219240D01*
X138823700Y-108201460D01*
X138932920Y-108181140D01*
X139065000Y-108155740D01*
X139075160Y-108153200D01*
X139204700Y-108127800D01*
X139316460Y-108104940D01*
X139392660Y-108087160D01*
X139425680Y-108077000D01*
X139433300Y-108066840D01*
X139458700Y-108016040D01*
X139496800Y-107934760D01*
X139539980Y-107835700D01*
X139583160Y-107731560D01*
X139621260Y-107640120D01*
X139646660Y-107569000D01*
X139654280Y-107538520D01*
X139651740Y-107538520D01*
X139633960Y-107505500D01*
X139588240Y-107436920D01*
X139524740Y-107342940D01*
X139446000Y-107231180D01*
X139440920Y-107223560D01*
X139364720Y-107111800D01*
X139303760Y-107017820D01*
X139263120Y-106949240D01*
X139247880Y-106918760D01*
X139247880Y-106918760D01*
X139273280Y-106885740D01*
X139329160Y-106822240D01*
X139410440Y-106735880D01*
X139509500Y-106639360D01*
X139539980Y-106608880D01*
X139646660Y-106502200D01*
X139722860Y-106433620D01*
X139768580Y-106395520D01*
X139791440Y-106387900D01*
X139793980Y-106387900D01*
X139827000Y-106408220D01*
X139895580Y-106453940D01*
X139992100Y-106519980D01*
X140103860Y-106596180D01*
X140111480Y-106601260D01*
X140223240Y-106677460D01*
X140317220Y-106740960D01*
X140383260Y-106784140D01*
X140411200Y-106801920D01*
X140416280Y-106801920D01*
X140462000Y-106786680D01*
X140540740Y-106758740D01*
X140637260Y-106723180D01*
X140741400Y-106680000D01*
X140832840Y-106641900D01*
X140903960Y-106608880D01*
X140936980Y-106591100D01*
X140936980Y-106588560D01*
X140949680Y-106550460D01*
X140970000Y-106466640D01*
X140992860Y-106352340D01*
X141018260Y-106215180D01*
X141023340Y-106192320D01*
X141048740Y-106060240D01*
X141069060Y-105951020D01*
X141084300Y-105874820D01*
X141091920Y-105844340D01*
X141112240Y-105839260D01*
X141175740Y-105834180D01*
X141274800Y-105831640D01*
X141394180Y-105831640D01*
X141518640Y-105831640D01*
X141643100Y-105834180D01*
X141747240Y-105839260D01*
X141823440Y-105844340D01*
X141853920Y-105849420D01*
X141853920Y-105851960D01*
X141866620Y-105892600D01*
X141884400Y-105976420D01*
X141907260Y-106090720D01*
X141935200Y-106227880D01*
X141940280Y-106253280D01*
X141963140Y-106385360D01*
X141986000Y-106492040D01*
X142001240Y-106568240D01*
X142011400Y-106596180D01*
X142021560Y-106603800D01*
X142077440Y-106626660D01*
X142166340Y-106664760D01*
X142275560Y-106707940D01*
X142529560Y-106812080D01*
X142841980Y-106596180D01*
X142872460Y-106578400D01*
X142984220Y-106502200D01*
X143075660Y-106438700D01*
X143139160Y-106398060D01*
X143167100Y-106382820D01*
X143169640Y-106385360D01*
X143200120Y-106410760D01*
X143261080Y-106469180D01*
X143347440Y-106553000D01*
X143443960Y-106649520D01*
X143517620Y-106723180D01*
X143603980Y-106809540D01*
X143657320Y-106867960D01*
X143687800Y-106906060D01*
X143697960Y-106928920D01*
X143695420Y-106944160D01*
X143675100Y-106977180D01*
X143629380Y-107045760D01*
X143565880Y-107139740D01*
X143489680Y-107251500D01*
X143426180Y-107342940D01*
X143360140Y-107447080D01*
X143314420Y-107523280D01*
X143299180Y-107558840D01*
X143304260Y-107574080D01*
X143324580Y-107635040D01*
X143362680Y-107729020D01*
X143408400Y-107838240D01*
X143517620Y-108084620D01*
X143680180Y-108117640D01*
X143779240Y-108135420D01*
X143916400Y-108160820D01*
X144045940Y-108186220D01*
X144251680Y-108226860D01*
X144259300Y-108978700D01*
X144228820Y-108993940D01*
X144198340Y-109001560D01*
X144122140Y-109019340D01*
X144012920Y-109039660D01*
X143885920Y-109065060D01*
X143776700Y-109085380D01*
X143664940Y-109105700D01*
X143586200Y-109120940D01*
X143550640Y-109128560D01*
X143543020Y-109138720D01*
X143515080Y-109192060D01*
X143476980Y-109278420D01*
X143433800Y-109380020D01*
X143388080Y-109484160D01*
X143349980Y-109583220D01*
X143322040Y-109656880D01*
X143311880Y-109694980D01*
X143327120Y-109722920D01*
X143370300Y-109788960D01*
X143431260Y-109880400D01*
X143504920Y-109989620D01*
X143578580Y-110098840D01*
X143642080Y-110192820D01*
X143685260Y-110258860D01*
X143705580Y-110289340D01*
X143695420Y-110312200D01*
X143652240Y-110363000D01*
X143568420Y-110449360D01*
X143446500Y-110571280D01*
X143426180Y-110589060D01*
X143329660Y-110683040D01*
X143245840Y-110759240D01*
X143189960Y-110810040D01*
X143164560Y-110830360D01*
X143164560Y-110830360D01*
G37*
X143164560Y-110830360D02*
X143134080Y-110815120D01*
X143070580Y-110774480D01*
X142976600Y-110713520D01*
X142867380Y-110639860D01*
X142755620Y-110563660D01*
X142666720Y-110502700D01*
X142603220Y-110462060D01*
X142575280Y-110449360D01*
X142562580Y-110454440D01*
X142509240Y-110479840D01*
X142433040Y-110517940D01*
X142389860Y-110540800D01*
X142318740Y-110571280D01*
X142285720Y-110576360D01*
X142278100Y-110568740D01*
X142252700Y-110515400D01*
X142214600Y-110423960D01*
X142161260Y-110302040D01*
X142100300Y-110162340D01*
X142036800Y-110009940D01*
X141970760Y-109855000D01*
X141909800Y-109705140D01*
X141856460Y-109573060D01*
X141813280Y-109463840D01*
X141782800Y-109390180D01*
X141772640Y-109357160D01*
X141775180Y-109349540D01*
X141810740Y-109316520D01*
X141871700Y-109270800D01*
X142003780Y-109164120D01*
X142133320Y-109001560D01*
X142212060Y-108816140D01*
X142240000Y-108612940D01*
X142217140Y-108422440D01*
X142140940Y-108239560D01*
X142013940Y-108077000D01*
X141861540Y-107955080D01*
X141681200Y-107876340D01*
X141478000Y-107853480D01*
X141284960Y-107873800D01*
X141099540Y-107947460D01*
X140934440Y-108071920D01*
X140865860Y-108153200D01*
X140769340Y-108318300D01*
X140716000Y-108496100D01*
X140708380Y-108541820D01*
X140718540Y-108737400D01*
X140774420Y-108922820D01*
X140878560Y-109090460D01*
X141020800Y-109227620D01*
X141038580Y-109242860D01*
X141107160Y-109291120D01*
X141150340Y-109326680D01*
X141185900Y-109354620D01*
X140936980Y-109954060D01*
X140896340Y-110048040D01*
X140827760Y-110213140D01*
X140769340Y-110352840D01*
X140721080Y-110464600D01*
X140688060Y-110540800D01*
X140672820Y-110571280D01*
X140670280Y-110571280D01*
X140649960Y-110576360D01*
X140604240Y-110558580D01*
X140520420Y-110517940D01*
X140464540Y-110490000D01*
X140401040Y-110459520D01*
X140373100Y-110449360D01*
X140347700Y-110462060D01*
X140286740Y-110500160D01*
X140197840Y-110561120D01*
X140091160Y-110634780D01*
X139989560Y-110703360D01*
X139895580Y-110764320D01*
X139827000Y-110807500D01*
X139793980Y-110825280D01*
X139788900Y-110825280D01*
X139758420Y-110810040D01*
X139705080Y-110764320D01*
X139623800Y-110688120D01*
X139506960Y-110573820D01*
X139489180Y-110556040D01*
X139395200Y-110459520D01*
X139319000Y-110378240D01*
X139265660Y-110322360D01*
X139247880Y-110294420D01*
X139247880Y-110294420D01*
X139265660Y-110261400D01*
X139308840Y-110195360D01*
X139369800Y-110098840D01*
X139446000Y-109987080D01*
X139644120Y-109700060D01*
X139534900Y-109428280D01*
X139501880Y-109344460D01*
X139458700Y-109242860D01*
X139428220Y-109171740D01*
X139412980Y-109138720D01*
X139382500Y-109128560D01*
X139308840Y-109110780D01*
X139199620Y-109087920D01*
X139070080Y-109065060D01*
X138948160Y-109042200D01*
X138838940Y-109021880D01*
X138757660Y-109006640D01*
X138722100Y-108999020D01*
X138711940Y-108993940D01*
X138706860Y-108976160D01*
X138701780Y-108938060D01*
X138699240Y-108872020D01*
X138696700Y-108765340D01*
X138696700Y-108612940D01*
X138696700Y-108595160D01*
X138699240Y-108447840D01*
X138701780Y-108333540D01*
X138704320Y-108257340D01*
X138709400Y-108226860D01*
X138709400Y-108226860D01*
X138744960Y-108219240D01*
X138823700Y-108201460D01*
X138932920Y-108181140D01*
X139065000Y-108155740D01*
X139075160Y-108153200D01*
X139204700Y-108127800D01*
X139316460Y-108104940D01*
X139392660Y-108087160D01*
X139425680Y-108077000D01*
X139433300Y-108066840D01*
X139458700Y-108016040D01*
X139496800Y-107934760D01*
X139539980Y-107835700D01*
X139583160Y-107731560D01*
X139621260Y-107640120D01*
X139646660Y-107569000D01*
X139654280Y-107538520D01*
X139651740Y-107538520D01*
X139633960Y-107505500D01*
X139588240Y-107436920D01*
X139524740Y-107342940D01*
X139446000Y-107231180D01*
X139440920Y-107223560D01*
X139364720Y-107111800D01*
X139303760Y-107017820D01*
X139263120Y-106949240D01*
X139247880Y-106918760D01*
X139247880Y-106918760D01*
X139273280Y-106885740D01*
X139329160Y-106822240D01*
X139410440Y-106735880D01*
X139509500Y-106639360D01*
X139539980Y-106608880D01*
X139646660Y-106502200D01*
X139722860Y-106433620D01*
X139768580Y-106395520D01*
X139791440Y-106387900D01*
X139793980Y-106387900D01*
X139827000Y-106408220D01*
X139895580Y-106453940D01*
X139992100Y-106519980D01*
X140103860Y-106596180D01*
X140111480Y-106601260D01*
X140223240Y-106677460D01*
X140317220Y-106740960D01*
X140383260Y-106784140D01*
X140411200Y-106801920D01*
X140416280Y-106801920D01*
X140462000Y-106786680D01*
X140540740Y-106758740D01*
X140637260Y-106723180D01*
X140741400Y-106680000D01*
X140832840Y-106641900D01*
X140903960Y-106608880D01*
X140936980Y-106591100D01*
X140936980Y-106588560D01*
X140949680Y-106550460D01*
X140970000Y-106466640D01*
X140992860Y-106352340D01*
X141018260Y-106215180D01*
X141023340Y-106192320D01*
X141048740Y-106060240D01*
X141069060Y-105951020D01*
X141084300Y-105874820D01*
X141091920Y-105844340D01*
X141112240Y-105839260D01*
X141175740Y-105834180D01*
X141274800Y-105831640D01*
X141394180Y-105831640D01*
X141518640Y-105831640D01*
X141643100Y-105834180D01*
X141747240Y-105839260D01*
X141823440Y-105844340D01*
X141853920Y-105849420D01*
X141853920Y-105851960D01*
X141866620Y-105892600D01*
X141884400Y-105976420D01*
X141907260Y-106090720D01*
X141935200Y-106227880D01*
X141940280Y-106253280D01*
X141963140Y-106385360D01*
X141986000Y-106492040D01*
X142001240Y-106568240D01*
X142011400Y-106596180D01*
X142021560Y-106603800D01*
X142077440Y-106626660D01*
X142166340Y-106664760D01*
X142275560Y-106707940D01*
X142529560Y-106812080D01*
X142841980Y-106596180D01*
X142872460Y-106578400D01*
X142984220Y-106502200D01*
X143075660Y-106438700D01*
X143139160Y-106398060D01*
X143167100Y-106382820D01*
X143169640Y-106385360D01*
X143200120Y-106410760D01*
X143261080Y-106469180D01*
X143347440Y-106553000D01*
X143443960Y-106649520D01*
X143517620Y-106723180D01*
X143603980Y-106809540D01*
X143657320Y-106867960D01*
X143687800Y-106906060D01*
X143697960Y-106928920D01*
X143695420Y-106944160D01*
X143675100Y-106977180D01*
X143629380Y-107045760D01*
X143565880Y-107139740D01*
X143489680Y-107251500D01*
X143426180Y-107342940D01*
X143360140Y-107447080D01*
X143314420Y-107523280D01*
X143299180Y-107558840D01*
X143304260Y-107574080D01*
X143324580Y-107635040D01*
X143362680Y-107729020D01*
X143408400Y-107838240D01*
X143517620Y-108084620D01*
X143680180Y-108117640D01*
X143779240Y-108135420D01*
X143916400Y-108160820D01*
X144045940Y-108186220D01*
X144251680Y-108226860D01*
X144259300Y-108978700D01*
X144228820Y-108993940D01*
X144198340Y-109001560D01*
X144122140Y-109019340D01*
X144012920Y-109039660D01*
X143885920Y-109065060D01*
X143776700Y-109085380D01*
X143664940Y-109105700D01*
X143586200Y-109120940D01*
X143550640Y-109128560D01*
X143543020Y-109138720D01*
X143515080Y-109192060D01*
X143476980Y-109278420D01*
X143433800Y-109380020D01*
X143388080Y-109484160D01*
X143349980Y-109583220D01*
X143322040Y-109656880D01*
X143311880Y-109694980D01*
X143327120Y-109722920D01*
X143370300Y-109788960D01*
X143431260Y-109880400D01*
X143504920Y-109989620D01*
X143578580Y-110098840D01*
X143642080Y-110192820D01*
X143685260Y-110258860D01*
X143705580Y-110289340D01*
X143695420Y-110312200D01*
X143652240Y-110363000D01*
X143568420Y-110449360D01*
X143446500Y-110571280D01*
X143426180Y-110589060D01*
X143329660Y-110683040D01*
X143245840Y-110759240D01*
X143189960Y-110810040D01*
X143164560Y-110830360D01*
D15*
X197175381Y-129341714D02*
X196175381Y-129341714D01*
X196175381Y-129722667D01*
X196223000Y-129817905D01*
X196270619Y-129865524D01*
X196365857Y-129913143D01*
X196508714Y-129913143D01*
X196603952Y-129865524D01*
X196651571Y-129817905D01*
X196699190Y-129722667D01*
X196699190Y-129341714D01*
X197175381Y-130865524D02*
X197175381Y-130294095D01*
X197175381Y-130579809D02*
X196175381Y-130579809D01*
X196318238Y-130484571D01*
X196413476Y-130389333D01*
X196461095Y-130294095D01*
X196175381Y-131198857D02*
X196175381Y-131865524D01*
X197175381Y-131436952D01*
X196046730Y-129539901D02*
X196046730Y-128539901D01*
X195665777Y-128539901D01*
X195570539Y-128587520D01*
X195522920Y-128635139D01*
X195475301Y-128730377D01*
X195475301Y-128873234D01*
X195522920Y-128968472D01*
X195570539Y-129016091D01*
X195665777Y-129063710D01*
X196046730Y-129063710D01*
X194903873Y-128968472D02*
X194999111Y-128920853D01*
X195046730Y-128873234D01*
X195094349Y-128777996D01*
X195094349Y-128730377D01*
X195046730Y-128635139D01*
X194999111Y-128587520D01*
X194903873Y-128539901D01*
X194713396Y-128539901D01*
X194618158Y-128587520D01*
X194570539Y-128635139D01*
X194522920Y-128730377D01*
X194522920Y-128777996D01*
X194570539Y-128873234D01*
X194618158Y-128920853D01*
X194713396Y-128968472D01*
X194903873Y-128968472D01*
X194999111Y-129016091D01*
X195046730Y-129063710D01*
X195094349Y-129158949D01*
X195094349Y-129349425D01*
X195046730Y-129444663D01*
X194999111Y-129492282D01*
X194903873Y-129539901D01*
X194713396Y-129539901D01*
X194618158Y-129492282D01*
X194570539Y-129444663D01*
X194522920Y-129349425D01*
X194522920Y-129158949D01*
X194570539Y-129063710D01*
X194618158Y-129016091D01*
X194713396Y-128968472D01*
X155408381Y-95559667D02*
X156122667Y-95559667D01*
X156265524Y-95512047D01*
X156360762Y-95416809D01*
X156408381Y-95273952D01*
X156408381Y-95178714D01*
X156408381Y-96035857D02*
X155408381Y-96035857D01*
X155408381Y-96416810D01*
X155456000Y-96512048D01*
X155503619Y-96559667D01*
X155598857Y-96607286D01*
X155741714Y-96607286D01*
X155836952Y-96559667D01*
X155884571Y-96512048D01*
X155932190Y-96416810D01*
X155932190Y-96035857D01*
X156408381Y-97559667D02*
X156408381Y-96988238D01*
X156408381Y-97273952D02*
X155408381Y-97273952D01*
X155551238Y-97178714D01*
X155646476Y-97083476D01*
X155694095Y-96988238D01*
M02*
