G04 #@! TF.FileFunction,Copper,L2,Bot,Signal*
%FSLAX46Y46*%
G04 Gerber Fmt 4.6, Leading zero omitted, Abs format (unit mm)*
G04 Created by KiCad (PCBNEW 4.0.2+dfsg1-stable) date 2016年08月05日 19時27分02秒*
%MOMM*%
G01*
G04 APERTURE LIST*
%ADD10C,0.100000*%
%ADD11C,1.600000*%
%ADD12C,2.000000*%
%ADD13C,6.000000*%
%ADD14O,1.117600X1.400000*%
%ADD15R,1.117600X1.905000*%
%ADD16O,1.117600X1.905000*%
%ADD17C,2.540000*%
%ADD18R,2.500000X2.000000*%
%ADD19C,1.501140*%
%ADD20O,3.000000X3.000000*%
%ADD21C,1.699260*%
%ADD22C,1.300000*%
%ADD23R,1.300000X1.300000*%
%ADD24O,2.540000X2.032000*%
%ADD25O,1.600000X1.600000*%
%ADD26C,5.000000*%
%ADD27O,2.000000X1.700000*%
%ADD28O,1.700000X2.000000*%
%ADD29C,1.700000*%
%ADD30O,1.400000X1.400000*%
%ADD31O,1.400000X1.700000*%
%ADD32R,12.000000X11.750000*%
%ADD33C,1.397000*%
%ADD34O,1.500000X1.600000*%
%ADD35R,2.032000X2.032000*%
%ADD36O,2.032000X2.032000*%
%ADD37R,2.540000X2.540000*%
%ADD38C,1.524000*%
%ADD39R,2.000000X2.000000*%
%ADD40C,1.800000*%
%ADD41R,1.501140X1.501140*%
%ADD42R,2.999740X5.001260*%
%ADD43R,5.001260X5.001260*%
%ADD44R,1.727200X1.727200*%
%ADD45O,1.727200X1.727200*%
%ADD46C,0.600000*%
%ADD47C,0.203200*%
%ADD48C,1.270000*%
%ADD49C,0.508000*%
%ADD50C,0.254000*%
G04 APERTURE END LIST*
D10*
D11*
X214503000Y-115910000D03*
X214503000Y-146390000D03*
D12*
X155702000Y-124206000D03*
X164338000Y-124206000D03*
D13*
X150533000Y-107231000D03*
D14*
X165608000Y-93726000D03*
D15*
X167513000Y-93726000D03*
D16*
X169418000Y-93726000D03*
X171323000Y-93726000D03*
D17*
X189103000Y-131826000D03*
X189103000Y-128016000D03*
X192913000Y-128016000D03*
D18*
X150438000Y-129011000D03*
X140738000Y-129011000D03*
X147038000Y-123211000D03*
X150438000Y-123211000D03*
X140738000Y-123211000D03*
X143838000Y-123211000D03*
D19*
X172149860Y-132458880D03*
X169609860Y-132458880D03*
X167577860Y-132458880D03*
X165037860Y-132458880D03*
D20*
X174937000Y-133491000D03*
X162137000Y-133491000D03*
D21*
X175768000Y-105600000D03*
X175768000Y-103308920D03*
X175768000Y-107891080D03*
D22*
X176490000Y-127000000D03*
D23*
X173990000Y-127000000D03*
D24*
X167182800Y-114706400D03*
X167182800Y-112166400D03*
D25*
X167182800Y-109626400D03*
D26*
X186563000Y-133731000D03*
X186563000Y-125476000D03*
X194183000Y-125476000D03*
D27*
X154813000Y-96901000D03*
X154813000Y-94361000D03*
X154813000Y-91821000D03*
D28*
X142748000Y-120396000D03*
X140208000Y-120396000D03*
X137668000Y-120396000D03*
X166243000Y-98552000D03*
X171323000Y-98552000D03*
X168783000Y-98552000D03*
D29*
X173863000Y-98552000D03*
D11*
X176403000Y-98552000D03*
D28*
X189738000Y-96266000D03*
X187198000Y-96266000D03*
X184658000Y-96266000D03*
X189738000Y-93726000D03*
X187198000Y-93726000D03*
X184658000Y-93726000D03*
D30*
X187198000Y-91186000D03*
D31*
X189738000Y-91186000D03*
D32*
X168593000Y-145021000D03*
D33*
X180213000Y-125476000D03*
X182753000Y-125476000D03*
D12*
X155702000Y-126746000D03*
X164338000Y-126746000D03*
D33*
X163703000Y-108966000D03*
X158623000Y-108966000D03*
X163703000Y-101346000D03*
X158623000Y-101346000D03*
D23*
X159258000Y-114046000D03*
D22*
X159258000Y-111546000D03*
X157393000Y-135636000D03*
D23*
X159893000Y-135636000D03*
D27*
X197359000Y-120396000D03*
X197359000Y-110236000D03*
X197359000Y-112776000D03*
X197359000Y-117856000D03*
X197359000Y-115316000D03*
X197359000Y-105156000D03*
X197359000Y-107696000D03*
X197359000Y-102616000D03*
X197359000Y-100076000D03*
X189739000Y-120396000D03*
X189739000Y-110236000D03*
X189739000Y-112776000D03*
X189739000Y-117856000D03*
X189739000Y-115316000D03*
X189739000Y-105156000D03*
X189739000Y-107696000D03*
X189739000Y-102616000D03*
X189739000Y-100076000D03*
X184659000Y-120396000D03*
X184659000Y-110236000D03*
X184659000Y-112776000D03*
X184659000Y-117856000D03*
X184659000Y-115316000D03*
X184659000Y-105156000D03*
X184659000Y-107696000D03*
X184659000Y-102616000D03*
X184659000Y-100076000D03*
X187199000Y-120396000D03*
X187199000Y-110236000D03*
X187199000Y-112776000D03*
X187199000Y-117856000D03*
X187199000Y-115316000D03*
X187199000Y-105156000D03*
X187199000Y-107696000D03*
X187199000Y-102616000D03*
X187199000Y-100076000D03*
X192279000Y-120396000D03*
X192279000Y-110236000D03*
X192279000Y-112776000D03*
X192279000Y-117856000D03*
X192279000Y-115316000D03*
X192279000Y-105156000D03*
X192279000Y-107696000D03*
X192279000Y-102616000D03*
X192279000Y-100076000D03*
X179579000Y-120396000D03*
X179579000Y-110236000D03*
X179579000Y-112776000D03*
X179579000Y-117856000D03*
X179579000Y-115316000D03*
X179579000Y-105156000D03*
X179579000Y-107696000D03*
X179579000Y-102616000D03*
D34*
X179579000Y-100076000D03*
D29*
X182119000Y-120396000D03*
D27*
X182119000Y-110236000D03*
X182119000Y-112776000D03*
X182119000Y-117856000D03*
X182119000Y-115316000D03*
X182119000Y-105156000D03*
X182119000Y-107696000D03*
X182119000Y-102616000D03*
X182119000Y-100076000D03*
D35*
X153517600Y-133400800D03*
D36*
X153517600Y-135940800D03*
D33*
X158623000Y-91821000D03*
X163703000Y-91821000D03*
X158623000Y-99441000D03*
X163703000Y-99441000D03*
D22*
X170013000Y-126746000D03*
D23*
X167513000Y-126746000D03*
D37*
X216916000Y-38100000D03*
D17*
X221996000Y-38100000D03*
D38*
X215646000Y-53975000D03*
X215646000Y-43815000D03*
D33*
X208026000Y-62230000D03*
X208026000Y-69850000D03*
D39*
X227088000Y-44945000D03*
D12*
X224548000Y-44945000D03*
X194183000Y-81915000D03*
X194183000Y-42037000D03*
X211709000Y-81915000D03*
X211709000Y-42037000D03*
D10*
G36*
X198961000Y-71580000D02*
X192961000Y-71580000D01*
X192961000Y-65580000D01*
X198961000Y-65580000D01*
X198961000Y-71580000D01*
X198961000Y-71580000D01*
G37*
G36*
X198961000Y-66500000D02*
X192961000Y-66500000D01*
X192961000Y-60500000D01*
X198961000Y-60500000D01*
X198961000Y-66500000D01*
X198961000Y-66500000D01*
G37*
G36*
X204041000Y-71580000D02*
X198041000Y-71580000D01*
X198041000Y-65580000D01*
X204041000Y-65580000D01*
X204041000Y-71580000D01*
X204041000Y-71580000D01*
G37*
G36*
X204041000Y-66500000D02*
X198041000Y-66500000D01*
X198041000Y-60500000D01*
X204041000Y-60500000D01*
X204041000Y-66500000D01*
X204041000Y-66500000D01*
G37*
D40*
X220853000Y-71882000D03*
X220853000Y-88138000D03*
D19*
X223393000Y-83820000D03*
X220853000Y-82677000D03*
X223393000Y-81661000D03*
X220853000Y-80518000D03*
X223393000Y-79502000D03*
X220853000Y-78359000D03*
X223393000Y-77343000D03*
D41*
X220853000Y-76200000D03*
D40*
X220853000Y-49022000D03*
X220853000Y-65278000D03*
D19*
X223393000Y-60960000D03*
X220853000Y-59817000D03*
X223393000Y-58801000D03*
X220853000Y-57658000D03*
X223393000Y-56642000D03*
X220853000Y-55499000D03*
X223393000Y-54483000D03*
D41*
X220853000Y-53340000D03*
D42*
X153822400Y-85801200D03*
D43*
X158673800Y-88800940D03*
X158623000Y-82550000D03*
D44*
X152988000Y-38895000D03*
D45*
X152988000Y-36355000D03*
X155528000Y-38895000D03*
X155528000Y-36355000D03*
X158068000Y-38895000D03*
X158068000Y-36355000D03*
X160608000Y-38895000D03*
X160608000Y-36355000D03*
X163148000Y-38895000D03*
X163148000Y-36355000D03*
X165688000Y-38895000D03*
X165688000Y-36355000D03*
X168228000Y-38895000D03*
X168228000Y-36355000D03*
X170768000Y-38895000D03*
X170768000Y-36355000D03*
X173308000Y-38895000D03*
X173308000Y-36355000D03*
X175848000Y-38895000D03*
X175848000Y-36355000D03*
X178388000Y-38895000D03*
X178388000Y-36355000D03*
X180928000Y-38895000D03*
X180928000Y-36355000D03*
X183468000Y-38895000D03*
X183468000Y-36355000D03*
X186008000Y-38895000D03*
X186008000Y-36355000D03*
X188548000Y-38895000D03*
X188548000Y-36355000D03*
X191088000Y-38895000D03*
X191088000Y-36355000D03*
X193628000Y-38895000D03*
X193628000Y-36355000D03*
X196168000Y-38895000D03*
X196168000Y-36355000D03*
X198708000Y-38895000D03*
X198708000Y-36355000D03*
X201248000Y-38895000D03*
X201248000Y-36355000D03*
D12*
X143140717Y-117524015D03*
D46*
X161265796Y-114960400D03*
D12*
X172589969Y-105186760D03*
X147288388Y-120173620D03*
X169226613Y-121569027D03*
D46*
X182524400Y-96367600D03*
D12*
X166624000Y-105410000D03*
X171424600Y-110134400D03*
X149277033Y-111238824D03*
D46*
X150749000Y-102743000D03*
X177909210Y-101225289D03*
X174701200Y-91846400D03*
X153339800Y-92989400D03*
X152908000Y-100711000D03*
X171856979Y-98537771D03*
X157353000Y-129413000D03*
X161145721Y-95478600D03*
X161145721Y-99623461D03*
X194868800Y-99060000D03*
X167323000Y-136906000D03*
X178201042Y-91668600D03*
X146964400Y-97688400D03*
X153831893Y-115199283D03*
X159004000Y-117348000D03*
X139039600Y-121539000D03*
X143433800Y-115620800D03*
X154233000Y-99331000D03*
X174701200Y-114960400D03*
X162374219Y-118416341D03*
X151232980Y-117331019D03*
X156758054Y-116728955D03*
X153162000Y-116078000D03*
X146685000Y-117475000D03*
X149733000Y-117331000D03*
X157108903Y-102733097D03*
X177444400Y-103682800D03*
X154554694Y-115800903D03*
X164985473Y-112026473D03*
X168020512Y-117835260D03*
X173891589Y-113766600D03*
X148233000Y-117331000D03*
X217551000Y-64770000D03*
D47*
X198628000Y-97790000D02*
X198628000Y-98425000D01*
X158297913Y-114736913D02*
X158306399Y-114745399D01*
D48*
X166663000Y-96282000D02*
X168783000Y-98402000D01*
X163055767Y-96282000D02*
X166663000Y-96282000D01*
X154813000Y-96901000D02*
X162436767Y-96901000D01*
X162436767Y-96901000D02*
X163055767Y-96282000D01*
X168783000Y-98402000D02*
X168783000Y-98552000D01*
D49*
X145499323Y-116579622D02*
X144554930Y-117524015D01*
X147132956Y-116579622D02*
X145499323Y-116579622D01*
X149520557Y-114192021D02*
X147132956Y-116579622D01*
X158130622Y-115595400D02*
X156727243Y-114192021D01*
X156727243Y-114192021D02*
X149520557Y-114192021D01*
X161265796Y-114960400D02*
X160630796Y-115595400D01*
X160630796Y-115595400D02*
X158130622Y-115595400D01*
D48*
X142697200Y-118059200D02*
X143140717Y-117615683D01*
D49*
X144554930Y-117524015D02*
X143140717Y-117524015D01*
D48*
X143140717Y-117615683D02*
X143140717Y-117524015D01*
X142548566Y-118059200D02*
X142697200Y-118059200D01*
X140211766Y-120396000D02*
X142548566Y-118059200D01*
X140208000Y-120396000D02*
X140211766Y-120396000D01*
X175768000Y-103308920D02*
X174467809Y-103308920D01*
X174467809Y-103308920D02*
X173589968Y-104186761D01*
X173589968Y-104186761D02*
X172589969Y-105186760D01*
X172366729Y-105410000D02*
X172589969Y-105186760D01*
X166624000Y-105410000D02*
X172366729Y-105410000D01*
X148288387Y-121173619D02*
X147288388Y-120173620D01*
X148314033Y-121199265D02*
X148288387Y-121173619D01*
X157916197Y-121199265D02*
X148314033Y-121199265D01*
X159143196Y-122426263D02*
X157916197Y-121199265D01*
X162166798Y-122426264D02*
X159143196Y-122426263D01*
X163024035Y-121569027D02*
X162166798Y-122426264D01*
X169226613Y-121569027D02*
X163024035Y-121569027D01*
X146288389Y-119173621D02*
X147288388Y-120173620D01*
X145173968Y-118059200D02*
X146288389Y-119173621D01*
X142697200Y-118059200D02*
X145173968Y-118059200D01*
X170640826Y-121569027D02*
X169226613Y-121569027D01*
X182728600Y-122326400D02*
X171398199Y-122326400D01*
X184659000Y-120396000D02*
X182728600Y-122326400D01*
X171398199Y-122326400D02*
X170640826Y-121569027D01*
X168783000Y-98552000D02*
X168783000Y-98272600D01*
X168783000Y-98272600D02*
X171399200Y-95656400D01*
X182219600Y-96367600D02*
X182524400Y-96367600D01*
X181914800Y-96672400D02*
X182219600Y-96367600D01*
X179120800Y-96672400D02*
X181914800Y-96672400D01*
X177698400Y-95250000D02*
X179120800Y-96672400D01*
X172567600Y-95250000D02*
X177698400Y-95250000D01*
X172466000Y-95351600D02*
X172567600Y-95250000D01*
X172262800Y-95351600D02*
X172466000Y-95351600D01*
X171958000Y-95656400D02*
X172262800Y-95351600D01*
X171399200Y-95656400D02*
X171958000Y-95656400D01*
X168783000Y-98552000D02*
X168783000Y-98425000D01*
X171426144Y-110132856D02*
X171426144Y-109980457D01*
X171424600Y-110134400D02*
X171426144Y-110132856D01*
X171426144Y-109980457D02*
X171426144Y-108227635D01*
X171426144Y-108227635D02*
X170996109Y-107797600D01*
X172542200Y-110667800D02*
X172113487Y-110667800D01*
X172113487Y-110667800D02*
X171426144Y-109980457D01*
X171426144Y-109980457D02*
X171424600Y-109978913D01*
X172897800Y-107797600D02*
X170996109Y-107797600D01*
X174523400Y-106248200D02*
X174447200Y-106248200D01*
X175171600Y-105600000D02*
X174523400Y-106248200D01*
X174447200Y-106248200D02*
X172897800Y-107797600D01*
X170996109Y-107797600D02*
X170688000Y-108105709D01*
X175768000Y-105600000D02*
X175171600Y-105600000D01*
X167182800Y-114706400D02*
X168503600Y-114706400D01*
X172542200Y-110667800D02*
X172618400Y-110667800D01*
X168503600Y-114706400D02*
X172542200Y-110667800D01*
X163703000Y-108966000D02*
X163449000Y-108966000D01*
X163449000Y-108966000D02*
X161086800Y-106603800D01*
X154813000Y-91821000D02*
X155721004Y-91821000D01*
X155721004Y-91821000D02*
X157499004Y-93599000D01*
X161925000Y-93599000D02*
X163703000Y-91821000D01*
X157499004Y-93599000D02*
X161925000Y-93599000D01*
X154963000Y-91821000D02*
X154813000Y-91821000D01*
X156387800Y-106603800D02*
X161086800Y-106603800D01*
X161086800Y-106603800D02*
X161340800Y-106603800D01*
X161340800Y-106603800D02*
X163703000Y-108966000D01*
X140738000Y-129011000D02*
X144911400Y-129011000D01*
X159760800Y-131114800D02*
X162137000Y-133491000D01*
X147015200Y-131114800D02*
X159760800Y-131114800D01*
X144911400Y-129011000D02*
X147015200Y-131114800D01*
X176490000Y-127000000D02*
X178689000Y-127000000D01*
X178689000Y-127000000D02*
X180213000Y-125476000D01*
X174937000Y-133491000D02*
X175045400Y-133491000D01*
X175045400Y-133491000D02*
X178511200Y-136956800D01*
X183337200Y-136956800D02*
X186563000Y-133731000D01*
X178511200Y-136956800D02*
X183337200Y-136956800D01*
X186029600Y-122174000D02*
X184962800Y-122174000D01*
X183235600Y-123901200D02*
X182016400Y-123901200D01*
X184962800Y-122174000D02*
X183235600Y-123901200D01*
X180213000Y-125476000D02*
X180441600Y-125476000D01*
X180441600Y-125476000D02*
X182016400Y-123901200D01*
X186029600Y-122174000D02*
X187199000Y-121004600D01*
X187199000Y-121004600D02*
X187199000Y-120396000D01*
X185394600Y-133731000D02*
X186563000Y-133731000D01*
X186563000Y-133731000D02*
X187198000Y-133731000D01*
X187198000Y-133731000D02*
X189103000Y-131826000D01*
X169418000Y-128320800D02*
X172110400Y-128320800D01*
X176490000Y-128259200D02*
X176490000Y-127000000D01*
X175666400Y-129082800D02*
X176490000Y-128259200D01*
X172872400Y-129082800D02*
X175666400Y-129082800D01*
X172110400Y-128320800D02*
X172872400Y-129082800D01*
X164338000Y-126746000D02*
X164439600Y-126746000D01*
X164439600Y-126746000D02*
X166014400Y-128320800D01*
X166014400Y-128320800D02*
X169418000Y-128320800D01*
X169418000Y-128320800D02*
X170013000Y-127725800D01*
X170013000Y-127725800D02*
X170013000Y-126746000D01*
X168593000Y-145021000D02*
X168593000Y-141516600D01*
X168593000Y-141516600D02*
X162137000Y-135060600D01*
X162137000Y-135060600D02*
X162137000Y-133491000D01*
X152527000Y-102743000D02*
X151173264Y-102743000D01*
X156575000Y-106791000D02*
X156387800Y-106603800D01*
X156387800Y-106603800D02*
X152527000Y-102743000D01*
X151173264Y-102743000D02*
X150749000Y-102743000D01*
X168593000Y-145021000D02*
X168593000Y-139835000D01*
X168593000Y-139835000D02*
X174937000Y-133491000D01*
X174937000Y-133491000D02*
X173181980Y-133491000D01*
X173181980Y-133491000D02*
X172149860Y-132458880D01*
X187453000Y-120650000D02*
X187199000Y-120396000D01*
X210566000Y-67310000D02*
X205613000Y-67310000D01*
X181483000Y-82550000D02*
X158623000Y-82550000D01*
X190373000Y-73660000D02*
X181483000Y-82550000D01*
X204343000Y-73660000D02*
X190373000Y-73660000D01*
X205613000Y-74930000D02*
X204343000Y-73660000D01*
X205613000Y-67310000D02*
X205613000Y-74930000D01*
X164846601Y-40593601D02*
X162479399Y-40593601D01*
X162479399Y-40593601D02*
X154813000Y-48260000D01*
X154813000Y-48260000D02*
X154813000Y-78740000D01*
X154813000Y-78740000D02*
X158623000Y-82550000D01*
X158623000Y-82550000D02*
X157073600Y-82550000D01*
X157073600Y-82550000D02*
X153822400Y-85801200D01*
X201248000Y-38895000D02*
X201248000Y-49831000D01*
X201248000Y-49831000D02*
X200279000Y-50800000D01*
X181483000Y-40593601D02*
X182706601Y-40593601D01*
X182706601Y-40593601D02*
X192913000Y-50800000D01*
X192913000Y-50800000D02*
X200279000Y-50800000D01*
X200279000Y-50800000D02*
X208026000Y-50800000D01*
X164846601Y-40593601D02*
X167259000Y-40593601D01*
X167259000Y-40593601D02*
X181483000Y-40593601D01*
X181483000Y-40593601D02*
X181769399Y-40593601D01*
X163148000Y-38895000D02*
X164846601Y-40593601D01*
X181769399Y-40593601D02*
X182604401Y-39758599D01*
X182604401Y-39758599D02*
X183468000Y-38895000D01*
D49*
X158068000Y-36355000D02*
X156750399Y-35037399D01*
X156750399Y-35037399D02*
X152355551Y-35037399D01*
X151670399Y-40121801D02*
X151761199Y-40212601D01*
X152355551Y-35037399D02*
X151670399Y-35722551D01*
X151670399Y-35722551D02*
X151670399Y-40121801D01*
X151761199Y-40212601D02*
X161830399Y-40212601D01*
X161830399Y-40212601D02*
X162284401Y-39758599D01*
X162284401Y-39758599D02*
X163148000Y-38895000D01*
X202819000Y-35975950D02*
X202819000Y-37324000D01*
X202819000Y-37324000D02*
X201248000Y-38895000D01*
X193628000Y-36355000D02*
X194945601Y-35037399D01*
X194945601Y-35037399D02*
X201880449Y-35037399D01*
X201880449Y-35037399D02*
X202819000Y-35975950D01*
X193628000Y-36355000D02*
X192310399Y-35037399D01*
X192310399Y-35037399D02*
X189865601Y-35037399D01*
X189865601Y-35037399D02*
X189411599Y-35491401D01*
X189411599Y-35491401D02*
X188548000Y-36355000D01*
D48*
X215646000Y-43815000D02*
X216281000Y-43815000D01*
X216281000Y-43815000D02*
X221996000Y-38100000D01*
X211709000Y-42037000D02*
X213868000Y-42037000D01*
X213868000Y-42037000D02*
X215646000Y-43815000D01*
X211709000Y-81915000D02*
X211836000Y-81915000D01*
X211836000Y-81915000D02*
X215011000Y-78740000D01*
X215011000Y-78740000D02*
X215011000Y-76835000D01*
X215011000Y-76835000D02*
X210566000Y-72390000D01*
X210566000Y-72390000D02*
X210566000Y-67310000D01*
X210566000Y-67310000D02*
X210566000Y-53340000D01*
X210566000Y-53340000D02*
X208026000Y-50800000D01*
X208026000Y-45720000D02*
X211709000Y-42037000D01*
X208026000Y-50800000D02*
X208026000Y-45720000D01*
D47*
X154190389Y-90664989D02*
X173519789Y-90664989D01*
X173519789Y-90664989D02*
X174701200Y-91846400D01*
X153511390Y-91343988D02*
X153511390Y-92100400D01*
X153339800Y-92989400D02*
X153339800Y-92565136D01*
X153339800Y-92565136D02*
X153511390Y-92393546D01*
X153511390Y-92393546D02*
X153511390Y-92100400D01*
X178333474Y-101225289D02*
X177909210Y-101225289D01*
X193658773Y-101235227D02*
X178343412Y-101235227D01*
X178343412Y-101235227D02*
X178333474Y-101225289D01*
X194818000Y-100076000D02*
X193658773Y-101235227D01*
X194818000Y-100076000D02*
X195454000Y-100076000D01*
X192279000Y-100076000D02*
X194818000Y-100076000D01*
X154190389Y-90664989D02*
X153511390Y-91343988D01*
X195454000Y-100076000D02*
X197359000Y-100076000D01*
X189739000Y-100076000D02*
X192279000Y-100076000D01*
X159673275Y-102346101D02*
X172608899Y-102346101D01*
X172608899Y-102346101D02*
X175603001Y-99351999D01*
X155937624Y-100711000D02*
X157975936Y-102749312D01*
X152908000Y-100711000D02*
X155937624Y-100711000D01*
X157975936Y-102749312D02*
X159270064Y-102749312D01*
X159270064Y-102749312D02*
X159673275Y-102346101D01*
X175603001Y-99351999D02*
X176403000Y-98552000D01*
X152908000Y-100711000D02*
X153207999Y-100411001D01*
D48*
X176936400Y-96774000D02*
X177088800Y-96774000D01*
X178612800Y-98298000D02*
X179578000Y-98298000D01*
X177088800Y-96774000D02*
X178612800Y-98298000D01*
X171323000Y-98552000D02*
X171323000Y-98425000D01*
X171323000Y-98425000D02*
X172974000Y-96774000D01*
X172974000Y-96774000D02*
X176936400Y-96774000D01*
X187198000Y-96266000D02*
X187198000Y-96520000D01*
X187198000Y-96520000D02*
X185420000Y-98298000D01*
X185420000Y-98298000D02*
X179578000Y-98298000D01*
D47*
X157353000Y-129413000D02*
X150840000Y-129413000D01*
X150840000Y-129413000D02*
X150438000Y-129011000D01*
X150438000Y-123211000D02*
X154707000Y-123211000D01*
X154707000Y-123211000D02*
X155702000Y-124206000D01*
X147038000Y-123211000D02*
X148491200Y-123211000D01*
X148491200Y-123211000D02*
X150438000Y-123211000D01*
X150438000Y-129011000D02*
X150897000Y-129011000D01*
X150897000Y-129011000D02*
X154702001Y-125205999D01*
X154702001Y-125205999D02*
X155702000Y-124206000D01*
X161196521Y-95427800D02*
X161145721Y-95478600D01*
X184658000Y-96116000D02*
X183388000Y-94846000D01*
X183388000Y-94846000D02*
X183388000Y-93370400D01*
X183388000Y-93370400D02*
X181864000Y-91846400D01*
X165862000Y-92075000D02*
X165608000Y-92329000D01*
X181864000Y-91846400D02*
X179197000Y-91846400D01*
X179197000Y-91846400D02*
X177444400Y-93599000D01*
X177444400Y-93599000D02*
X172806503Y-93599000D01*
X172806503Y-93599000D02*
X171282503Y-92075000D01*
X171282503Y-92075000D02*
X165862000Y-92075000D01*
X165608000Y-92367997D02*
X162548197Y-95427800D01*
X162548197Y-95427800D02*
X161196521Y-95427800D01*
X165608000Y-92329000D02*
X165608000Y-92367997D01*
X158623000Y-99441000D02*
X160963260Y-99441000D01*
X160963260Y-99441000D02*
X161145721Y-99623461D01*
X194310000Y-98856800D02*
X194513200Y-99060000D01*
X194513200Y-99060000D02*
X194868800Y-99060000D01*
X190298422Y-98856800D02*
X194310000Y-98856800D01*
X188569600Y-97332800D02*
X188774422Y-97332800D01*
X188774422Y-97332800D02*
X190298422Y-98856800D01*
X188569600Y-93318978D02*
X188569600Y-97332800D01*
X185828800Y-94945200D02*
X185828800Y-93316578D01*
X185828800Y-93316578D02*
X186720988Y-92424390D01*
X186720988Y-92424390D02*
X187675012Y-92424390D01*
X187675012Y-92424390D02*
X188569600Y-93318978D01*
X184658000Y-96266000D02*
X184658000Y-96116000D01*
X184658000Y-96116000D02*
X185828800Y-94945200D01*
X199264000Y-100711000D02*
X197359000Y-102616000D01*
X199264000Y-99441000D02*
X199264000Y-100711000D01*
X197509000Y-102616000D02*
X197359000Y-102616000D01*
X192279000Y-102616000D02*
X195327000Y-102616000D01*
X195327000Y-102616000D02*
X195454000Y-102616000D01*
X195454000Y-102616000D02*
X197359000Y-102616000D01*
X189739000Y-102616000D02*
X192279000Y-102616000D01*
D49*
X169609860Y-134619140D02*
X169609860Y-132458880D01*
X167323000Y-136906000D02*
X169609860Y-134619140D01*
X177901043Y-91968599D02*
X178201042Y-91668600D01*
X177067001Y-92802641D02*
X177901043Y-91968599D01*
X173217393Y-92802641D02*
X177067001Y-92802641D01*
X164925389Y-92098859D02*
X165504859Y-91519389D01*
X164925389Y-92251259D02*
X164925389Y-92098859D01*
X162452050Y-94724598D02*
X164925389Y-92251259D01*
X159964400Y-94724598D02*
X162452050Y-94724598D01*
X159664400Y-95024598D02*
X159964400Y-94724598D01*
X171934141Y-91519389D02*
X173217393Y-92802641D01*
X165504859Y-91519389D02*
X171934141Y-91519389D01*
X178201042Y-91668600D02*
X178201042Y-91496158D01*
X182981600Y-91109800D02*
X183540400Y-91668600D01*
X178587400Y-91109800D02*
X182981600Y-91109800D01*
X178201042Y-91496158D02*
X178587400Y-91109800D01*
X184658000Y-92218000D02*
X184658000Y-93726000D01*
X184108600Y-91668600D02*
X184658000Y-92218000D01*
X183540400Y-91668600D02*
X184108600Y-91668600D01*
X157400602Y-95024598D02*
X159664400Y-95024598D01*
X159664400Y-95024598D02*
X159918400Y-95024598D01*
X156260800Y-95402400D02*
X157022800Y-95402400D01*
D47*
X156006800Y-95656400D02*
X156260800Y-95402400D01*
D49*
X146964400Y-97688400D02*
X150164800Y-97688400D01*
X152196800Y-95656400D02*
X153670000Y-95656400D01*
X150164800Y-97688400D02*
X152196800Y-95656400D01*
D47*
X153670000Y-95656400D02*
X156006800Y-95656400D01*
D49*
X157022800Y-95402400D02*
X157400602Y-95024598D01*
D47*
X159004000Y-117348000D02*
X156855283Y-115199283D01*
X154256157Y-115199283D02*
X153831893Y-115199283D01*
X156855283Y-115199283D02*
X154256157Y-115199283D01*
X137668000Y-120246000D02*
X137668000Y-120396000D01*
X141691598Y-116222402D02*
X137668000Y-120246000D01*
X143722570Y-116222402D02*
X141691598Y-116222402D01*
X143920961Y-116024011D02*
X143722570Y-116222402D01*
X146902815Y-116024011D02*
X143920961Y-116024011D01*
X149290416Y-113636410D02*
X146902815Y-116024011D01*
X157995210Y-113636410D02*
X149290416Y-113636410D01*
X158404800Y-114046000D02*
X157995210Y-113636410D01*
X159258000Y-114046000D02*
X158404800Y-114046000D01*
X139039600Y-121539000D02*
X139339599Y-121838999D01*
X139339599Y-121838999D02*
X142215999Y-121838999D01*
X142215999Y-121838999D02*
X143588000Y-123211000D01*
X143588000Y-123211000D02*
X143838000Y-123211000D01*
X146735800Y-115620800D02*
X143433800Y-115620800D01*
X150810600Y-111546000D02*
X146735800Y-115620800D01*
X159258000Y-111546000D02*
X150810600Y-111546000D01*
X154355800Y-99771200D02*
X154233000Y-99648400D01*
X154233000Y-99648400D02*
X154233000Y-99331000D01*
X155568050Y-99771200D02*
X154355800Y-99771200D01*
X164183049Y-98440899D02*
X163179101Y-98440899D01*
X163179101Y-98440899D02*
X159793951Y-101826049D01*
X159793951Y-101826049D02*
X159623101Y-101826049D01*
X173863000Y-98552000D02*
X172561390Y-99853610D01*
X172561390Y-99853610D02*
X165595760Y-99853610D01*
X158142951Y-102346101D02*
X155568050Y-99771200D01*
X165595760Y-99853610D02*
X164183049Y-98440899D01*
X159623101Y-101826049D02*
X159103049Y-102346101D01*
X159103049Y-102346101D02*
X158142951Y-102346101D01*
X193548000Y-119126000D02*
X179197000Y-119126000D01*
X174701200Y-114960400D02*
X178866800Y-119126000D01*
X178866800Y-119126000D02*
X179197000Y-119126000D01*
X169900600Y-119126000D02*
X164465000Y-119126000D01*
X174701200Y-114960400D02*
X174066200Y-114960400D01*
X174066200Y-114960400D02*
X169900600Y-119126000D01*
X175361600Y-115646200D02*
X174701200Y-114985800D01*
X174701200Y-114985800D02*
X174701200Y-114960400D01*
X158007152Y-120219654D02*
X160529786Y-120219654D01*
X160529786Y-120219654D02*
X162039069Y-118710371D01*
X151232980Y-117331019D02*
X151232980Y-118085980D01*
X151232980Y-118085980D02*
X153211263Y-120064263D01*
X153211263Y-120064263D02*
X157851761Y-120064263D01*
X157851761Y-120064263D02*
X158007152Y-120219654D01*
X162674218Y-118716340D02*
X162374219Y-118416341D01*
X162039069Y-118710371D02*
X162045038Y-118716340D01*
X162045038Y-118716340D02*
X162074220Y-118716340D01*
X163083878Y-119126000D02*
X162674218Y-118716340D01*
X162074220Y-118716340D02*
X162374219Y-118416341D01*
X164465000Y-119126000D02*
X163083878Y-119126000D01*
X161925000Y-118824440D02*
X162039069Y-118710371D01*
X161925000Y-119126000D02*
X161925000Y-118824440D01*
X164465000Y-119126000D02*
X164269500Y-119126000D01*
X194818000Y-120396000D02*
X193548000Y-119126000D01*
X194818000Y-120396000D02*
X195327000Y-120396000D01*
X192279000Y-120396000D02*
X194818000Y-120396000D01*
X195327000Y-120396000D02*
X195454000Y-120396000D01*
X195454000Y-120396000D02*
X197359000Y-120396000D01*
X197359000Y-120396000D02*
X197209000Y-120396000D01*
X189739000Y-120396000D02*
X192279000Y-120396000D01*
X173250449Y-112358577D02*
X169181805Y-116427221D01*
X169181805Y-116427221D02*
X166550044Y-116427221D01*
X166550044Y-116427221D02*
X166267454Y-116709811D01*
X161798642Y-116074810D02*
X160389809Y-117483643D01*
X163868750Y-116074810D02*
X161798642Y-116074810D01*
X166267454Y-116709811D02*
X164503750Y-116709810D01*
X159840786Y-118606811D02*
X158802213Y-118606811D01*
X194818000Y-110236000D02*
X193548000Y-108966000D01*
X160389809Y-118057789D02*
X159840786Y-118606811D01*
X160389809Y-117483643D02*
X160389809Y-118057789D01*
X193548000Y-108966000D02*
X179070378Y-108966000D01*
X179070378Y-108966000D02*
X175677801Y-112358577D01*
X175677801Y-112358577D02*
X173250449Y-112358577D01*
X158802213Y-118606811D02*
X157224356Y-117028954D01*
X157058053Y-117028954D02*
X156758054Y-116728955D01*
X164503750Y-116709810D02*
X163868750Y-116074810D01*
X157224356Y-117028954D02*
X157058053Y-117028954D01*
X156333790Y-116728955D02*
X156758054Y-116728955D01*
X153812955Y-116728955D02*
X156333790Y-116728955D01*
X153162000Y-116078000D02*
X153812955Y-116728955D01*
X194818000Y-110236000D02*
X192279000Y-110236000D01*
X195327000Y-110236000D02*
X194818000Y-110236000D01*
X192279000Y-110236000D02*
X189739000Y-110236000D01*
X197359000Y-110236000D02*
X195454000Y-110236000D01*
X195454000Y-110236000D02*
X195327000Y-110236000D01*
X161965657Y-116478021D02*
X160793020Y-117650658D01*
X151855801Y-115922977D02*
X148661287Y-115922977D01*
X158508198Y-119010022D02*
X158182807Y-118684631D01*
X160007801Y-119010022D02*
X158508198Y-119010022D01*
X147109264Y-117475000D02*
X146685000Y-117475000D01*
X169348820Y-116830432D02*
X166717059Y-116830432D01*
X160793020Y-117650658D02*
X160793020Y-118224804D01*
X158182807Y-118684631D02*
X154617455Y-118684631D01*
X164336734Y-117113020D02*
X163701735Y-116478021D01*
X194818000Y-112776000D02*
X193548000Y-111506000D01*
X166717059Y-116830432D02*
X166434469Y-117113022D01*
X173417464Y-112761788D02*
X169348820Y-116830432D01*
X176100986Y-112761788D02*
X173417464Y-112761788D01*
X177356774Y-111506000D02*
X176100986Y-112761788D01*
X154617455Y-118684631D02*
X151855801Y-115922977D01*
X163701735Y-116478021D02*
X161965657Y-116478021D01*
X160793020Y-118224804D02*
X160007801Y-119010022D01*
X166434469Y-117113022D02*
X164336734Y-117113020D01*
X193548000Y-111506000D02*
X177356774Y-111506000D01*
X148661287Y-115922977D02*
X147109264Y-117475000D01*
X194818000Y-112776000D02*
X192279000Y-112776000D01*
X195327000Y-112776000D02*
X194818000Y-112776000D01*
X197359000Y-112776000D02*
X196216000Y-112776000D01*
X196216000Y-112776000D02*
X195454000Y-112776000D01*
X195454000Y-112776000D02*
X195327000Y-112776000D01*
X189739000Y-112776000D02*
X192279000Y-112776000D01*
X157848777Y-119491053D02*
X154283425Y-119491053D01*
X150334601Y-116729399D02*
X149733000Y-117331000D01*
X174989970Y-114358798D02*
X174412430Y-114358798D01*
X174412430Y-114358798D02*
X174387030Y-114384198D01*
X161599440Y-118558836D02*
X160341828Y-119816444D01*
X161599442Y-117984688D02*
X161599442Y-118558833D01*
X161842487Y-117741643D02*
X161599442Y-117984688D01*
X163824905Y-117741643D02*
X161842487Y-117741643D01*
X161599442Y-118558833D02*
X161599440Y-118558836D01*
X194818000Y-117856000D02*
X193548000Y-116586000D01*
X164574262Y-118491000D02*
X163824905Y-117741643D01*
X169398930Y-118491000D02*
X164574262Y-118491000D01*
X174387030Y-114384198D02*
X173505732Y-114384198D01*
X193548000Y-116586000D02*
X177217172Y-116586000D01*
X160341828Y-119816444D02*
X158174168Y-119816444D01*
X173505732Y-114384198D02*
X169398930Y-118491000D01*
X151521771Y-116729399D02*
X150334601Y-116729399D01*
X158174168Y-119816444D02*
X157848777Y-119491053D01*
X177217172Y-116586000D02*
X174989970Y-114358798D01*
X154283425Y-119491053D02*
X151521771Y-116729399D01*
X194818000Y-117856000D02*
X192279000Y-117856000D01*
X195327000Y-117856000D02*
X194818000Y-117856000D01*
X195454000Y-117856000D02*
X195327000Y-117856000D01*
X197359000Y-117856000D02*
X195454000Y-117856000D01*
X189739000Y-117856000D02*
X192279000Y-117856000D01*
X157528329Y-103152523D02*
X157108903Y-102733097D01*
X172480616Y-103044610D02*
X159544992Y-103044610D01*
X159437079Y-103152523D02*
X157528329Y-103152523D01*
X174052226Y-101473000D02*
X172480616Y-103044610D01*
X176530000Y-101473000D02*
X174052226Y-101473000D01*
X178308000Y-103251000D02*
X176530000Y-101473000D01*
X178485800Y-103886000D02*
X178308000Y-103886000D01*
X159544992Y-103044610D02*
X159437079Y-103152523D01*
X178308000Y-103886000D02*
X178308000Y-103251000D01*
X193548000Y-103886000D02*
X178485800Y-103886000D01*
X177444400Y-103682800D02*
X177868664Y-103682800D01*
X177868664Y-103682800D02*
X178071864Y-103886000D01*
X178071864Y-103886000D02*
X178485800Y-103886000D01*
X194818000Y-105156000D02*
X195327000Y-105156000D01*
X192279000Y-105156000D02*
X194818000Y-105156000D01*
X194818000Y-105156000D02*
X193548000Y-103886000D01*
X195327000Y-105156000D02*
X195454000Y-105156000D01*
X195454000Y-105156000D02*
X197359000Y-105156000D01*
X189739000Y-105156000D02*
X192279000Y-105156000D01*
X164685474Y-112431092D02*
X162740366Y-114376200D01*
X162740366Y-114376200D02*
X159986602Y-117129964D01*
X166100439Y-116306600D02*
X164670766Y-116306600D01*
X164670766Y-116306600D02*
X162740366Y-114376200D01*
X169014790Y-116024010D02*
X166383029Y-116024010D01*
X175945800Y-109093000D02*
X169014790Y-116024010D01*
X166383029Y-116024010D02*
X166100439Y-116306600D01*
X177673000Y-109093000D02*
X175945800Y-109093000D01*
X158402398Y-117636770D02*
X158402398Y-117509770D01*
X156693531Y-115800903D02*
X154978958Y-115800903D01*
X158402398Y-117509770D02*
X156693531Y-115800903D01*
X159673770Y-118203602D02*
X158969230Y-118203602D01*
X159986602Y-117890770D02*
X159673770Y-118203602D01*
X154978958Y-115800903D02*
X154554694Y-115800903D01*
X159986602Y-117129964D02*
X159986602Y-117890770D01*
X158969230Y-118203602D02*
X158402398Y-117636770D01*
X164685474Y-112326472D02*
X164685474Y-112431092D01*
X164985473Y-112026473D02*
X164685474Y-112326472D01*
X177673000Y-109093000D02*
X177673000Y-106426000D01*
X177673000Y-106426000D02*
X193548000Y-106426000D01*
X193548000Y-106426000D02*
X194818000Y-107696000D01*
X194818000Y-107696000D02*
X195327000Y-107696000D01*
X192279000Y-107696000D02*
X194818000Y-107696000D01*
X195327000Y-107696000D02*
X195454000Y-107696000D01*
X195454000Y-107696000D02*
X197359000Y-107696000D01*
X189739000Y-107696000D02*
X192279000Y-107696000D01*
X179579000Y-120396000D02*
X182119000Y-120396000D01*
X179579000Y-110236000D02*
X182119000Y-110236000D01*
X179579000Y-112776000D02*
X182119000Y-112776000D01*
X179579000Y-117856000D02*
X182119000Y-117856000D01*
X179579000Y-115316000D02*
X182119000Y-115316000D01*
X179579000Y-105156000D02*
X182119000Y-105156000D01*
X179579000Y-107696000D02*
X182119000Y-107696000D01*
X179579000Y-102616000D02*
X182119000Y-102616000D01*
X179579000Y-100076000D02*
X182119000Y-100076000D01*
X169484444Y-117835260D02*
X168444776Y-117835260D01*
X173553104Y-113766600D02*
X169484444Y-117835260D01*
X173891589Y-113766600D02*
X173553104Y-113766600D01*
X168444776Y-117835260D02*
X168020512Y-117835260D01*
X169515835Y-117233643D02*
X166884074Y-117233643D01*
X163534720Y-116881232D02*
X162132672Y-116881232D01*
X166884074Y-117233643D02*
X166601483Y-117516232D01*
X158341182Y-119413232D02*
X158015792Y-119087842D01*
X151688786Y-116326188D02*
X149237812Y-116326188D01*
X154450439Y-119087841D02*
X151688786Y-116326188D01*
X166601483Y-117516232D02*
X164169718Y-117516230D01*
X173584479Y-113164999D02*
X169515835Y-117233643D01*
X160174816Y-119413233D02*
X158341182Y-119413232D01*
X175540772Y-114046000D02*
X174659771Y-113164999D01*
X161196231Y-117817673D02*
X161196230Y-118391820D01*
X162132672Y-116881232D02*
X161196231Y-117817673D01*
X193548000Y-114046000D02*
X175540772Y-114046000D01*
X194818000Y-115316000D02*
X193548000Y-114046000D01*
X149237812Y-116326188D02*
X148233000Y-117331000D01*
X158015792Y-119087842D02*
X154450439Y-119087841D01*
X161196230Y-118391820D02*
X160174816Y-119413233D01*
X164169718Y-117516230D02*
X163534720Y-116881232D01*
X174659771Y-113164999D02*
X173584479Y-113164999D01*
X194818000Y-115316000D02*
X192279000Y-115316000D01*
X195327000Y-115316000D02*
X194818000Y-115316000D01*
X195454000Y-115316000D02*
X195327000Y-115316000D01*
X196089000Y-115316000D02*
X195454000Y-115316000D01*
X197209000Y-115316000D02*
X196089000Y-115316000D01*
X197359000Y-115316000D02*
X197209000Y-115316000D01*
X197359000Y-115316000D02*
X196089000Y-115316000D01*
X192279000Y-115316000D02*
X189739000Y-115316000D01*
D48*
X220726000Y-62230000D02*
X219456000Y-62230000D01*
X219456000Y-62230000D02*
X217551000Y-60325000D01*
X220853000Y-76200000D02*
X220853000Y-76073000D01*
X220853000Y-76073000D02*
X223266000Y-73660000D01*
X219456000Y-53340000D02*
X220853000Y-53340000D01*
X217551000Y-55245000D02*
X219456000Y-53340000D01*
X217551000Y-60325000D02*
X217551000Y-55245000D01*
X223266000Y-64770000D02*
X220726000Y-62230000D01*
X223266000Y-73660000D02*
X223266000Y-64770000D01*
X220853000Y-76200000D02*
X220726000Y-76200000D01*
X223393000Y-54483000D02*
X224409000Y-54483000D01*
X225298000Y-77343000D02*
X223393000Y-77343000D01*
X228346000Y-74295000D02*
X225298000Y-77343000D01*
X228346000Y-58420000D02*
X228346000Y-74295000D01*
X224409000Y-54483000D02*
X228346000Y-58420000D01*
X223393000Y-77343000D02*
X223139000Y-77343000D01*
X219075000Y-78359000D02*
X220853000Y-78359000D01*
X216916000Y-76200000D02*
X219075000Y-78359000D01*
X216916000Y-65405000D02*
X216916000Y-76200000D01*
X217551000Y-64770000D02*
X216916000Y-65405000D01*
X194183000Y-81915000D02*
X208026000Y-81915000D01*
X208026000Y-69850000D02*
X208026000Y-81915000D01*
D50*
G36*
X228906000Y-57183949D02*
X225307026Y-53584974D01*
X224895008Y-53309673D01*
X224409000Y-53212999D01*
X224408995Y-53213000D01*
X223947559Y-53213000D01*
X223669816Y-53097671D01*
X223118602Y-53097190D01*
X222609163Y-53307686D01*
X222251010Y-53665215D01*
X222251010Y-52589430D01*
X222206732Y-52354113D01*
X222067660Y-52137989D01*
X221855460Y-51992999D01*
X221603570Y-51941990D01*
X220102430Y-51941990D01*
X219867113Y-51986268D01*
X219736990Y-52070000D01*
X219456005Y-52070000D01*
X219456000Y-52069999D01*
X218969992Y-52166673D01*
X218557974Y-52441974D01*
X218557972Y-52441977D01*
X217043016Y-53956932D01*
X217043242Y-53698339D01*
X216831010Y-53184697D01*
X216438370Y-52791371D01*
X215925100Y-52578243D01*
X215369339Y-52577758D01*
X214855697Y-52789990D01*
X214462371Y-53182630D01*
X214249243Y-53695900D01*
X214248758Y-54251661D01*
X214460990Y-54765303D01*
X214853630Y-55158629D01*
X215366900Y-55371757D01*
X215922661Y-55372242D01*
X216285511Y-55222316D01*
X216280999Y-55245000D01*
X216281000Y-55245005D01*
X216281000Y-60324995D01*
X216280999Y-60325000D01*
X216377673Y-60811008D01*
X216652974Y-61223026D01*
X218557972Y-63128023D01*
X218557974Y-63128026D01*
X218904890Y-63359827D01*
X218969992Y-63403327D01*
X219456000Y-63500001D01*
X219456005Y-63500000D01*
X220199948Y-63500000D01*
X220473771Y-63773823D01*
X219984629Y-63975932D01*
X219552449Y-64407357D01*
X219318267Y-64971330D01*
X219317735Y-65581991D01*
X219550932Y-66146371D01*
X219982357Y-66578551D01*
X220546330Y-66812733D01*
X221156991Y-66813265D01*
X221721371Y-66580068D01*
X221996000Y-66305919D01*
X221996000Y-70854283D01*
X221723643Y-70581449D01*
X221159670Y-70347267D01*
X220549009Y-70346735D01*
X219984629Y-70579932D01*
X219552449Y-71011357D01*
X219318267Y-71575330D01*
X219317735Y-72185991D01*
X219550932Y-72750371D01*
X219982357Y-73182551D01*
X220546330Y-73416733D01*
X221156991Y-73417265D01*
X221721371Y-73184068D01*
X221996000Y-72909919D01*
X221996000Y-73133949D01*
X220327958Y-74801990D01*
X220102430Y-74801990D01*
X219867113Y-74846268D01*
X219650989Y-74985340D01*
X219505999Y-75197540D01*
X219454990Y-75449430D01*
X219454990Y-76942938D01*
X218186000Y-75673948D01*
X218186000Y-65931051D01*
X218449026Y-65668025D01*
X218724327Y-65256008D01*
X218821001Y-64770000D01*
X218724327Y-64283992D01*
X218449026Y-63871974D01*
X218037008Y-63596673D01*
X217551000Y-63499999D01*
X217064992Y-63596673D01*
X216652975Y-63871974D01*
X216017974Y-64506974D01*
X215742673Y-64918992D01*
X215645999Y-65405000D01*
X215646000Y-65405005D01*
X215646000Y-76199995D01*
X215645999Y-76200000D01*
X215742673Y-76686008D01*
X216017974Y-77098026D01*
X218176974Y-79257026D01*
X218588992Y-79532327D01*
X219075000Y-79629000D01*
X219782349Y-79629000D01*
X219679056Y-79732113D01*
X219467671Y-80241184D01*
X219467190Y-80792398D01*
X219677686Y-81301837D01*
X220064984Y-81689811D01*
X220060675Y-81705070D01*
X220853000Y-82497395D01*
X221645325Y-81705070D01*
X221640869Y-81689290D01*
X222026944Y-81303887D01*
X222238329Y-80794816D01*
X222238755Y-80306943D01*
X222513007Y-80581674D01*
X222219056Y-80875113D01*
X222007671Y-81384184D01*
X222007190Y-81935398D01*
X222007540Y-81936245D01*
X221824930Y-81884675D01*
X221032605Y-82677000D01*
X221824930Y-83469325D01*
X222065931Y-83401265D01*
X222250767Y-82881966D01*
X222229147Y-82456318D01*
X222604984Y-82832811D01*
X222600675Y-82848070D01*
X223393000Y-83640395D01*
X224185325Y-82848070D01*
X224180869Y-82832290D01*
X224566944Y-82446887D01*
X224778329Y-81937816D01*
X224778810Y-81386602D01*
X224568314Y-80877163D01*
X224272993Y-80581326D01*
X224566944Y-80287887D01*
X224778329Y-79778816D01*
X224778810Y-79227602D01*
X224568314Y-78718163D01*
X224463334Y-78613000D01*
X225297995Y-78613000D01*
X225298000Y-78613001D01*
X225784008Y-78516327D01*
X226196026Y-78241026D01*
X228906000Y-75531052D01*
X228906000Y-89460000D01*
X221673132Y-89460000D01*
X221721371Y-89440068D01*
X222153551Y-89008643D01*
X222387733Y-88444670D01*
X222388265Y-87834009D01*
X222349175Y-87739403D01*
X223716682Y-87739403D01*
X223995455Y-88414086D01*
X224511199Y-88930730D01*
X225185395Y-89210681D01*
X225915403Y-89211318D01*
X226590086Y-88932545D01*
X227106730Y-88416801D01*
X227386681Y-87742605D01*
X227387318Y-87012597D01*
X227108545Y-86337914D01*
X226592801Y-85821270D01*
X225918605Y-85541319D01*
X225188597Y-85540682D01*
X224513914Y-85819455D01*
X223997270Y-86335199D01*
X223717319Y-87009395D01*
X223716682Y-87739403D01*
X222349175Y-87739403D01*
X222155068Y-87269629D01*
X221723643Y-86837449D01*
X221159670Y-86603267D01*
X220549009Y-86602735D01*
X219984629Y-86835932D01*
X219552449Y-87267357D01*
X219318267Y-87831330D01*
X219317735Y-88441991D01*
X219550932Y-89006371D01*
X219982357Y-89438551D01*
X220034012Y-89460000D01*
X189738000Y-89460000D01*
X189738000Y-86614000D01*
X203765964Y-86614000D01*
X203945230Y-87515233D01*
X204455738Y-88279262D01*
X205219767Y-88789770D01*
X206121000Y-88969036D01*
X207022233Y-88789770D01*
X207786262Y-88279262D01*
X208296770Y-87515233D01*
X208476036Y-86614000D01*
X208296770Y-85712767D01*
X207786262Y-84948738D01*
X207551583Y-84791930D01*
X222600675Y-84791930D01*
X222668735Y-85032931D01*
X223188034Y-85217767D01*
X223738538Y-85189805D01*
X224117265Y-85032931D01*
X224185325Y-84791930D01*
X223393000Y-83999605D01*
X222600675Y-84791930D01*
X207551583Y-84791930D01*
X207022233Y-84438230D01*
X206121000Y-84258964D01*
X205219767Y-84438230D01*
X204455738Y-84948738D01*
X203945230Y-85712767D01*
X203765964Y-86614000D01*
X189738000Y-86614000D01*
X189738000Y-83648930D01*
X220060675Y-83648930D01*
X220128735Y-83889931D01*
X220648034Y-84074767D01*
X221198538Y-84046805D01*
X221577265Y-83889931D01*
X221645325Y-83648930D01*
X221611429Y-83615034D01*
X221995233Y-83615034D01*
X222023195Y-84165538D01*
X222180069Y-84544265D01*
X222421070Y-84612325D01*
X223213395Y-83820000D01*
X223572605Y-83820000D01*
X224364930Y-84612325D01*
X224605931Y-84544265D01*
X224790767Y-84024966D01*
X224762805Y-83474462D01*
X224605931Y-83095735D01*
X224364930Y-83027675D01*
X223572605Y-83820000D01*
X223213395Y-83820000D01*
X222421070Y-83027675D01*
X222180069Y-83095735D01*
X221995233Y-83615034D01*
X221611429Y-83615034D01*
X220853000Y-82856605D01*
X220060675Y-83648930D01*
X189738000Y-83648930D01*
X189738000Y-82238795D01*
X192547716Y-82238795D01*
X192796106Y-82839943D01*
X193255637Y-83300278D01*
X193856352Y-83549716D01*
X194506795Y-83550284D01*
X195107943Y-83301894D01*
X195225042Y-83185000D01*
X208026000Y-83185000D01*
X208512008Y-83088327D01*
X208543129Y-83067532D01*
X210736073Y-83067532D01*
X210834736Y-83334387D01*
X211444461Y-83560908D01*
X212094460Y-83536856D01*
X212583264Y-83334387D01*
X212681927Y-83067532D01*
X211709000Y-82094605D01*
X210736073Y-83067532D01*
X208543129Y-83067532D01*
X208924026Y-82813026D01*
X209199327Y-82401008D01*
X209296000Y-81915000D01*
X209296000Y-81650461D01*
X210063092Y-81650461D01*
X210087144Y-82300460D01*
X210289613Y-82789264D01*
X210556468Y-82887927D01*
X211529395Y-81915000D01*
X211888605Y-81915000D01*
X212861532Y-82887927D01*
X213128387Y-82789264D01*
X213246242Y-82472034D01*
X219455233Y-82472034D01*
X219483195Y-83022538D01*
X219640069Y-83401265D01*
X219881070Y-83469325D01*
X220673395Y-82677000D01*
X219881070Y-81884675D01*
X219640069Y-81952735D01*
X219455233Y-82472034D01*
X213246242Y-82472034D01*
X213354908Y-82179539D01*
X213330856Y-81529540D01*
X213128387Y-81040736D01*
X212861532Y-80942073D01*
X211888605Y-81915000D01*
X211529395Y-81915000D01*
X210556468Y-80942073D01*
X210289613Y-81040736D01*
X210063092Y-81650461D01*
X209296000Y-81650461D01*
X209296000Y-80762468D01*
X210736073Y-80762468D01*
X211709000Y-81735395D01*
X212681927Y-80762468D01*
X212583264Y-80495613D01*
X211973539Y-80269092D01*
X211323540Y-80293144D01*
X210834736Y-80495613D01*
X210736073Y-80762468D01*
X209296000Y-80762468D01*
X209296000Y-78458215D01*
X209305155Y-78480372D01*
X209933321Y-79109636D01*
X210754481Y-79450611D01*
X211643619Y-79451387D01*
X212465372Y-79111845D01*
X213094636Y-78483679D01*
X213435611Y-77662519D01*
X213436387Y-76773381D01*
X213096845Y-75951628D01*
X212468679Y-75322364D01*
X211647519Y-74981389D01*
X210758381Y-74980613D01*
X209936628Y-75320155D01*
X209307364Y-75948321D01*
X209296000Y-75975689D01*
X209296000Y-70268779D01*
X209359268Y-70116413D01*
X209359731Y-69585914D01*
X209157146Y-69095620D01*
X208782353Y-68720173D01*
X208292413Y-68516732D01*
X207761914Y-68516269D01*
X207271620Y-68718854D01*
X206896173Y-69093647D01*
X206692732Y-69583587D01*
X206692269Y-70114086D01*
X206756000Y-70268327D01*
X206756000Y-80645000D01*
X195225440Y-80645000D01*
X195110363Y-80529722D01*
X194509648Y-80280284D01*
X193859205Y-80279716D01*
X193258057Y-80528106D01*
X192797722Y-80987637D01*
X192548284Y-81588352D01*
X192547716Y-82238795D01*
X189738000Y-82238795D01*
X189738000Y-77658619D01*
X192455613Y-77658619D01*
X192795155Y-78480372D01*
X193423321Y-79109636D01*
X194244481Y-79450611D01*
X195133619Y-79451387D01*
X195955372Y-79111845D01*
X196584636Y-78483679D01*
X196925611Y-77662519D01*
X196926387Y-76773381D01*
X196586845Y-75951628D01*
X195958679Y-75322364D01*
X195137519Y-74981389D01*
X194248381Y-74980613D01*
X193426628Y-75320155D01*
X192797364Y-75948321D01*
X192456389Y-76769481D01*
X192455613Y-77658619D01*
X189738000Y-77658619D01*
X189738000Y-71695124D01*
X189823877Y-71263392D01*
X189823877Y-71191000D01*
X189838000Y-71120000D01*
X189838000Y-60500000D01*
X192313560Y-60500000D01*
X192313560Y-71580000D01*
X192357838Y-71815317D01*
X192496910Y-72031441D01*
X192709110Y-72176431D01*
X192961000Y-72227440D01*
X204041000Y-72227440D01*
X204276317Y-72183162D01*
X204492441Y-72044090D01*
X204637431Y-71831890D01*
X204688440Y-71580000D01*
X204688440Y-62494086D01*
X206692269Y-62494086D01*
X206894854Y-62984380D01*
X207269647Y-63359827D01*
X207759587Y-63563268D01*
X208290086Y-63563731D01*
X208780380Y-63361146D01*
X209155827Y-62986353D01*
X209359268Y-62496413D01*
X209359731Y-61965914D01*
X209157146Y-61475620D01*
X208782353Y-61100173D01*
X208292413Y-60896732D01*
X207761914Y-60896269D01*
X207271620Y-61098854D01*
X206896173Y-61473647D01*
X206692732Y-61963587D01*
X206692269Y-62494086D01*
X204688440Y-62494086D01*
X204688440Y-60500000D01*
X204644162Y-60264683D01*
X204505090Y-60048559D01*
X204292890Y-59903569D01*
X204041000Y-59852560D01*
X192961000Y-59852560D01*
X192725683Y-59896838D01*
X192509559Y-60035910D01*
X192364569Y-60248110D01*
X192313560Y-60500000D01*
X189838000Y-60500000D01*
X189838000Y-50800000D01*
X189823877Y-50729000D01*
X189823877Y-50656608D01*
X189738000Y-50224876D01*
X189738000Y-49325991D01*
X219317735Y-49325991D01*
X219550932Y-49890371D01*
X219982357Y-50322551D01*
X220546330Y-50556733D01*
X221156991Y-50557265D01*
X221721371Y-50324068D01*
X221898345Y-50147403D01*
X223716682Y-50147403D01*
X223995455Y-50822086D01*
X224511199Y-51338730D01*
X225185395Y-51618681D01*
X225915403Y-51619318D01*
X226590086Y-51340545D01*
X227106730Y-50824801D01*
X227386681Y-50150605D01*
X227387318Y-49420597D01*
X227108545Y-48745914D01*
X226592801Y-48229270D01*
X225918605Y-47949319D01*
X225188597Y-47948682D01*
X224513914Y-48227455D01*
X223997270Y-48743199D01*
X223717319Y-49417395D01*
X223716682Y-50147403D01*
X221898345Y-50147403D01*
X222153551Y-49892643D01*
X222387733Y-49328670D01*
X222388265Y-48718009D01*
X222155068Y-48153629D01*
X221723643Y-47721449D01*
X221159670Y-47487267D01*
X220549009Y-47486735D01*
X219984629Y-47719932D01*
X219552449Y-48151357D01*
X219318267Y-48715330D01*
X219317735Y-49325991D01*
X189738000Y-49325991D01*
X189738000Y-47178619D01*
X192455613Y-47178619D01*
X192795155Y-48000372D01*
X193423321Y-48629636D01*
X194244481Y-48970611D01*
X195133619Y-48971387D01*
X195955372Y-48631845D01*
X196584636Y-48003679D01*
X196925611Y-47182519D01*
X196925614Y-47178619D01*
X208965613Y-47178619D01*
X209305155Y-48000372D01*
X209933321Y-48629636D01*
X210754481Y-48970611D01*
X211643619Y-48971387D01*
X212465372Y-48631845D01*
X213094636Y-48003679D01*
X213435611Y-47182519D01*
X213436387Y-46293381D01*
X213096845Y-45471628D01*
X212894366Y-45268795D01*
X222912716Y-45268795D01*
X223161106Y-45869943D01*
X223620637Y-46330278D01*
X224221352Y-46579716D01*
X224871795Y-46580284D01*
X225472943Y-46331894D01*
X225539574Y-46265379D01*
X225623910Y-46396441D01*
X225836110Y-46541431D01*
X226088000Y-46592440D01*
X228088000Y-46592440D01*
X228323317Y-46548162D01*
X228539441Y-46409090D01*
X228684431Y-46196890D01*
X228735440Y-45945000D01*
X228735440Y-43945000D01*
X228691162Y-43709683D01*
X228552090Y-43493559D01*
X228339890Y-43348569D01*
X228088000Y-43297560D01*
X226088000Y-43297560D01*
X225852683Y-43341838D01*
X225636559Y-43480910D01*
X225539090Y-43623561D01*
X225475363Y-43559722D01*
X224874648Y-43310284D01*
X224224205Y-43309716D01*
X223623057Y-43558106D01*
X223162722Y-44017637D01*
X222913284Y-44618352D01*
X222912716Y-45268795D01*
X212894366Y-45268795D01*
X212468679Y-44842364D01*
X212355127Y-44795213D01*
X214845392Y-44795213D01*
X214914857Y-45037397D01*
X215438302Y-45224144D01*
X215993368Y-45196362D01*
X216377143Y-45037397D01*
X216446608Y-44795213D01*
X215646000Y-43994605D01*
X214845392Y-44795213D01*
X212355127Y-44795213D01*
X211647519Y-44501389D01*
X210758381Y-44500613D01*
X209936628Y-44840155D01*
X209307364Y-45468321D01*
X208966389Y-46289481D01*
X208965613Y-47178619D01*
X196925614Y-47178619D01*
X196926387Y-46293381D01*
X196586845Y-45471628D01*
X195958679Y-44842364D01*
X195137519Y-44501389D01*
X194248381Y-44500613D01*
X193426628Y-44840155D01*
X192797364Y-45468321D01*
X192456389Y-46289481D01*
X192455613Y-47178619D01*
X189738000Y-47178619D01*
X189738000Y-42360795D01*
X192547716Y-42360795D01*
X192796106Y-42961943D01*
X193255637Y-43422278D01*
X193856352Y-43671716D01*
X194506795Y-43672284D01*
X195107943Y-43423894D01*
X195342715Y-43189532D01*
X210736073Y-43189532D01*
X210834736Y-43456387D01*
X211444461Y-43682908D01*
X212094460Y-43658856D01*
X212218922Y-43607302D01*
X214236856Y-43607302D01*
X214264638Y-44162368D01*
X214423603Y-44546143D01*
X214665787Y-44615608D01*
X215466395Y-43815000D01*
X215825605Y-43815000D01*
X216626213Y-44615608D01*
X216868397Y-44546143D01*
X217055144Y-44022698D01*
X217027362Y-43467632D01*
X216868397Y-43083857D01*
X216626213Y-43014392D01*
X215825605Y-43815000D01*
X215466395Y-43815000D01*
X214665787Y-43014392D01*
X214423603Y-43083857D01*
X214236856Y-43607302D01*
X212218922Y-43607302D01*
X212583264Y-43456387D01*
X212681927Y-43189532D01*
X211709000Y-42216605D01*
X210736073Y-43189532D01*
X195342715Y-43189532D01*
X195568278Y-42964363D01*
X195817716Y-42363648D01*
X195818232Y-41772461D01*
X210063092Y-41772461D01*
X210087144Y-42422460D01*
X210289613Y-42911264D01*
X210556468Y-43009927D01*
X211529395Y-42037000D01*
X211888605Y-42037000D01*
X212861532Y-43009927D01*
X213128387Y-42911264D01*
X213156799Y-42834787D01*
X214845392Y-42834787D01*
X215646000Y-43635395D01*
X216446608Y-42834787D01*
X216377143Y-42592603D01*
X215853698Y-42405856D01*
X215298632Y-42433638D01*
X214914857Y-42592603D01*
X214845392Y-42834787D01*
X213156799Y-42834787D01*
X213354908Y-42301539D01*
X213330856Y-41651540D01*
X213128387Y-41162736D01*
X212861532Y-41064073D01*
X211888605Y-42037000D01*
X211529395Y-42037000D01*
X210556468Y-41064073D01*
X210289613Y-41162736D01*
X210063092Y-41772461D01*
X195818232Y-41772461D01*
X195818284Y-41713205D01*
X195569894Y-41112057D01*
X195342703Y-40884468D01*
X210736073Y-40884468D01*
X211709000Y-41857395D01*
X212681927Y-40884468D01*
X212583264Y-40617613D01*
X211973539Y-40391092D01*
X211323540Y-40415144D01*
X210834736Y-40617613D01*
X210736073Y-40884468D01*
X195342703Y-40884468D01*
X195110363Y-40651722D01*
X194509648Y-40402284D01*
X193859205Y-40401716D01*
X193258057Y-40650106D01*
X192797722Y-41109637D01*
X192548284Y-41710352D01*
X192547716Y-42360795D01*
X189738000Y-42360795D01*
X189738000Y-39788976D01*
X189818000Y-39669248D01*
X190028330Y-39984029D01*
X190514511Y-40308885D01*
X191088000Y-40422959D01*
X191661489Y-40308885D01*
X192147670Y-39984029D01*
X192358000Y-39669248D01*
X192568330Y-39984029D01*
X193054511Y-40308885D01*
X193628000Y-40422959D01*
X194201489Y-40308885D01*
X194687670Y-39984029D01*
X194898000Y-39669248D01*
X195108330Y-39984029D01*
X195594511Y-40308885D01*
X196168000Y-40422959D01*
X196741489Y-40308885D01*
X197227670Y-39984029D01*
X197438000Y-39669248D01*
X197648330Y-39984029D01*
X198134511Y-40308885D01*
X198708000Y-40422959D01*
X199281489Y-40308885D01*
X199767670Y-39984029D01*
X199983664Y-39660772D01*
X200041179Y-39783490D01*
X200473053Y-40177688D01*
X200888974Y-40349958D01*
X201121000Y-40228817D01*
X201121000Y-39022000D01*
X201375000Y-39022000D01*
X201375000Y-40228817D01*
X201607026Y-40349958D01*
X202022947Y-40177688D01*
X202454821Y-39783490D01*
X202702968Y-39254027D01*
X202582469Y-39022000D01*
X201375000Y-39022000D01*
X201121000Y-39022000D01*
X201101000Y-39022000D01*
X201101000Y-38768000D01*
X201121000Y-38768000D01*
X201121000Y-38748000D01*
X201375000Y-38748000D01*
X201375000Y-38768000D01*
X202582469Y-38768000D01*
X202702968Y-38535973D01*
X202454821Y-38006510D01*
X202278971Y-37846000D01*
X203765964Y-37846000D01*
X203945230Y-38747233D01*
X204455738Y-39511262D01*
X205219767Y-40021770D01*
X206121000Y-40201036D01*
X207022233Y-40021770D01*
X207786262Y-39511262D01*
X208296770Y-38747233D01*
X208476036Y-37846000D01*
X208296770Y-36944767D01*
X208220086Y-36830000D01*
X214998560Y-36830000D01*
X214998560Y-39370000D01*
X215042838Y-39605317D01*
X215181910Y-39821441D01*
X215394110Y-39966431D01*
X215646000Y-40017440D01*
X218186000Y-40017440D01*
X218421317Y-39973162D01*
X218637441Y-39834090D01*
X218782431Y-39621890D01*
X218817689Y-39447777D01*
X220827828Y-39447777D01*
X220959520Y-39742657D01*
X221667036Y-40014261D01*
X222424632Y-39994436D01*
X223032480Y-39742657D01*
X223164172Y-39447777D01*
X221996000Y-38279605D01*
X220827828Y-39447777D01*
X218817689Y-39447777D01*
X218833440Y-39370000D01*
X218833440Y-37771036D01*
X220081739Y-37771036D01*
X220101564Y-38528632D01*
X220353343Y-39136480D01*
X220648223Y-39268172D01*
X221816395Y-38100000D01*
X222175605Y-38100000D01*
X223343777Y-39268172D01*
X223638657Y-39136480D01*
X223910261Y-38428964D01*
X223890436Y-37671368D01*
X223638657Y-37063520D01*
X223343777Y-36931828D01*
X222175605Y-38100000D01*
X221816395Y-38100000D01*
X220648223Y-36931828D01*
X220353343Y-37063520D01*
X220081739Y-37771036D01*
X218833440Y-37771036D01*
X218833440Y-36830000D01*
X218818806Y-36752223D01*
X220827828Y-36752223D01*
X221996000Y-37920395D01*
X223164172Y-36752223D01*
X223032480Y-36457343D01*
X222324964Y-36185739D01*
X221567368Y-36205564D01*
X220959520Y-36457343D01*
X220827828Y-36752223D01*
X218818806Y-36752223D01*
X218789162Y-36594683D01*
X218650090Y-36378559D01*
X218437890Y-36233569D01*
X218186000Y-36182560D01*
X215646000Y-36182560D01*
X215410683Y-36226838D01*
X215194559Y-36365910D01*
X215049569Y-36578110D01*
X214998560Y-36830000D01*
X208220086Y-36830000D01*
X207786262Y-36180738D01*
X207022233Y-35670230D01*
X206121000Y-35490964D01*
X205219767Y-35670230D01*
X204455738Y-36180738D01*
X203945230Y-36944767D01*
X203765964Y-37846000D01*
X202278971Y-37846000D01*
X202036839Y-37624992D01*
X202307670Y-37444029D01*
X202632526Y-36957848D01*
X202746600Y-36384359D01*
X202746600Y-36325641D01*
X202632526Y-35752152D01*
X202307670Y-35265971D01*
X201909617Y-35000000D01*
X228906000Y-35000000D01*
X228906000Y-57183949D01*
X228906000Y-57183949D01*
G37*
X228906000Y-57183949D02*
X225307026Y-53584974D01*
X224895008Y-53309673D01*
X224409000Y-53212999D01*
X224408995Y-53213000D01*
X223947559Y-53213000D01*
X223669816Y-53097671D01*
X223118602Y-53097190D01*
X222609163Y-53307686D01*
X222251010Y-53665215D01*
X222251010Y-52589430D01*
X222206732Y-52354113D01*
X222067660Y-52137989D01*
X221855460Y-51992999D01*
X221603570Y-51941990D01*
X220102430Y-51941990D01*
X219867113Y-51986268D01*
X219736990Y-52070000D01*
X219456005Y-52070000D01*
X219456000Y-52069999D01*
X218969992Y-52166673D01*
X218557974Y-52441974D01*
X218557972Y-52441977D01*
X217043016Y-53956932D01*
X217043242Y-53698339D01*
X216831010Y-53184697D01*
X216438370Y-52791371D01*
X215925100Y-52578243D01*
X215369339Y-52577758D01*
X214855697Y-52789990D01*
X214462371Y-53182630D01*
X214249243Y-53695900D01*
X214248758Y-54251661D01*
X214460990Y-54765303D01*
X214853630Y-55158629D01*
X215366900Y-55371757D01*
X215922661Y-55372242D01*
X216285511Y-55222316D01*
X216280999Y-55245000D01*
X216281000Y-55245005D01*
X216281000Y-60324995D01*
X216280999Y-60325000D01*
X216377673Y-60811008D01*
X216652974Y-61223026D01*
X218557972Y-63128023D01*
X218557974Y-63128026D01*
X218904890Y-63359827D01*
X218969992Y-63403327D01*
X219456000Y-63500001D01*
X219456005Y-63500000D01*
X220199948Y-63500000D01*
X220473771Y-63773823D01*
X219984629Y-63975932D01*
X219552449Y-64407357D01*
X219318267Y-64971330D01*
X219317735Y-65581991D01*
X219550932Y-66146371D01*
X219982357Y-66578551D01*
X220546330Y-66812733D01*
X221156991Y-66813265D01*
X221721371Y-66580068D01*
X221996000Y-66305919D01*
X221996000Y-70854283D01*
X221723643Y-70581449D01*
X221159670Y-70347267D01*
X220549009Y-70346735D01*
X219984629Y-70579932D01*
X219552449Y-71011357D01*
X219318267Y-71575330D01*
X219317735Y-72185991D01*
X219550932Y-72750371D01*
X219982357Y-73182551D01*
X220546330Y-73416733D01*
X221156991Y-73417265D01*
X221721371Y-73184068D01*
X221996000Y-72909919D01*
X221996000Y-73133949D01*
X220327958Y-74801990D01*
X220102430Y-74801990D01*
X219867113Y-74846268D01*
X219650989Y-74985340D01*
X219505999Y-75197540D01*
X219454990Y-75449430D01*
X219454990Y-76942938D01*
X218186000Y-75673948D01*
X218186000Y-65931051D01*
X218449026Y-65668025D01*
X218724327Y-65256008D01*
X218821001Y-64770000D01*
X218724327Y-64283992D01*
X218449026Y-63871974D01*
X218037008Y-63596673D01*
X217551000Y-63499999D01*
X217064992Y-63596673D01*
X216652975Y-63871974D01*
X216017974Y-64506974D01*
X215742673Y-64918992D01*
X215645999Y-65405000D01*
X215646000Y-65405005D01*
X215646000Y-76199995D01*
X215645999Y-76200000D01*
X215742673Y-76686008D01*
X216017974Y-77098026D01*
X218176974Y-79257026D01*
X218588992Y-79532327D01*
X219075000Y-79629000D01*
X219782349Y-79629000D01*
X219679056Y-79732113D01*
X219467671Y-80241184D01*
X219467190Y-80792398D01*
X219677686Y-81301837D01*
X220064984Y-81689811D01*
X220060675Y-81705070D01*
X220853000Y-82497395D01*
X221645325Y-81705070D01*
X221640869Y-81689290D01*
X222026944Y-81303887D01*
X222238329Y-80794816D01*
X222238755Y-80306943D01*
X222513007Y-80581674D01*
X222219056Y-80875113D01*
X222007671Y-81384184D01*
X222007190Y-81935398D01*
X222007540Y-81936245D01*
X221824930Y-81884675D01*
X221032605Y-82677000D01*
X221824930Y-83469325D01*
X222065931Y-83401265D01*
X222250767Y-82881966D01*
X222229147Y-82456318D01*
X222604984Y-82832811D01*
X222600675Y-82848070D01*
X223393000Y-83640395D01*
X224185325Y-82848070D01*
X224180869Y-82832290D01*
X224566944Y-82446887D01*
X224778329Y-81937816D01*
X224778810Y-81386602D01*
X224568314Y-80877163D01*
X224272993Y-80581326D01*
X224566944Y-80287887D01*
X224778329Y-79778816D01*
X224778810Y-79227602D01*
X224568314Y-78718163D01*
X224463334Y-78613000D01*
X225297995Y-78613000D01*
X225298000Y-78613001D01*
X225784008Y-78516327D01*
X226196026Y-78241026D01*
X228906000Y-75531052D01*
X228906000Y-89460000D01*
X221673132Y-89460000D01*
X221721371Y-89440068D01*
X222153551Y-89008643D01*
X222387733Y-88444670D01*
X222388265Y-87834009D01*
X222349175Y-87739403D01*
X223716682Y-87739403D01*
X223995455Y-88414086D01*
X224511199Y-88930730D01*
X225185395Y-89210681D01*
X225915403Y-89211318D01*
X226590086Y-88932545D01*
X227106730Y-88416801D01*
X227386681Y-87742605D01*
X227387318Y-87012597D01*
X227108545Y-86337914D01*
X226592801Y-85821270D01*
X225918605Y-85541319D01*
X225188597Y-85540682D01*
X224513914Y-85819455D01*
X223997270Y-86335199D01*
X223717319Y-87009395D01*
X223716682Y-87739403D01*
X222349175Y-87739403D01*
X222155068Y-87269629D01*
X221723643Y-86837449D01*
X221159670Y-86603267D01*
X220549009Y-86602735D01*
X219984629Y-86835932D01*
X219552449Y-87267357D01*
X219318267Y-87831330D01*
X219317735Y-88441991D01*
X219550932Y-89006371D01*
X219982357Y-89438551D01*
X220034012Y-89460000D01*
X189738000Y-89460000D01*
X189738000Y-86614000D01*
X203765964Y-86614000D01*
X203945230Y-87515233D01*
X204455738Y-88279262D01*
X205219767Y-88789770D01*
X206121000Y-88969036D01*
X207022233Y-88789770D01*
X207786262Y-88279262D01*
X208296770Y-87515233D01*
X208476036Y-86614000D01*
X208296770Y-85712767D01*
X207786262Y-84948738D01*
X207551583Y-84791930D01*
X222600675Y-84791930D01*
X222668735Y-85032931D01*
X223188034Y-85217767D01*
X223738538Y-85189805D01*
X224117265Y-85032931D01*
X224185325Y-84791930D01*
X223393000Y-83999605D01*
X222600675Y-84791930D01*
X207551583Y-84791930D01*
X207022233Y-84438230D01*
X206121000Y-84258964D01*
X205219767Y-84438230D01*
X204455738Y-84948738D01*
X203945230Y-85712767D01*
X203765964Y-86614000D01*
X189738000Y-86614000D01*
X189738000Y-83648930D01*
X220060675Y-83648930D01*
X220128735Y-83889931D01*
X220648034Y-84074767D01*
X221198538Y-84046805D01*
X221577265Y-83889931D01*
X221645325Y-83648930D01*
X221611429Y-83615034D01*
X221995233Y-83615034D01*
X222023195Y-84165538D01*
X222180069Y-84544265D01*
X222421070Y-84612325D01*
X223213395Y-83820000D01*
X223572605Y-83820000D01*
X224364930Y-84612325D01*
X224605931Y-84544265D01*
X224790767Y-84024966D01*
X224762805Y-83474462D01*
X224605931Y-83095735D01*
X224364930Y-83027675D01*
X223572605Y-83820000D01*
X223213395Y-83820000D01*
X222421070Y-83027675D01*
X222180069Y-83095735D01*
X221995233Y-83615034D01*
X221611429Y-83615034D01*
X220853000Y-82856605D01*
X220060675Y-83648930D01*
X189738000Y-83648930D01*
X189738000Y-82238795D01*
X192547716Y-82238795D01*
X192796106Y-82839943D01*
X193255637Y-83300278D01*
X193856352Y-83549716D01*
X194506795Y-83550284D01*
X195107943Y-83301894D01*
X195225042Y-83185000D01*
X208026000Y-83185000D01*
X208512008Y-83088327D01*
X208543129Y-83067532D01*
X210736073Y-83067532D01*
X210834736Y-83334387D01*
X211444461Y-83560908D01*
X212094460Y-83536856D01*
X212583264Y-83334387D01*
X212681927Y-83067532D01*
X211709000Y-82094605D01*
X210736073Y-83067532D01*
X208543129Y-83067532D01*
X208924026Y-82813026D01*
X209199327Y-82401008D01*
X209296000Y-81915000D01*
X209296000Y-81650461D01*
X210063092Y-81650461D01*
X210087144Y-82300460D01*
X210289613Y-82789264D01*
X210556468Y-82887927D01*
X211529395Y-81915000D01*
X211888605Y-81915000D01*
X212861532Y-82887927D01*
X213128387Y-82789264D01*
X213246242Y-82472034D01*
X219455233Y-82472034D01*
X219483195Y-83022538D01*
X219640069Y-83401265D01*
X219881070Y-83469325D01*
X220673395Y-82677000D01*
X219881070Y-81884675D01*
X219640069Y-81952735D01*
X219455233Y-82472034D01*
X213246242Y-82472034D01*
X213354908Y-82179539D01*
X213330856Y-81529540D01*
X213128387Y-81040736D01*
X212861532Y-80942073D01*
X211888605Y-81915000D01*
X211529395Y-81915000D01*
X210556468Y-80942073D01*
X210289613Y-81040736D01*
X210063092Y-81650461D01*
X209296000Y-81650461D01*
X209296000Y-80762468D01*
X210736073Y-80762468D01*
X211709000Y-81735395D01*
X212681927Y-80762468D01*
X212583264Y-80495613D01*
X211973539Y-80269092D01*
X211323540Y-80293144D01*
X210834736Y-80495613D01*
X210736073Y-80762468D01*
X209296000Y-80762468D01*
X209296000Y-78458215D01*
X209305155Y-78480372D01*
X209933321Y-79109636D01*
X210754481Y-79450611D01*
X211643619Y-79451387D01*
X212465372Y-79111845D01*
X213094636Y-78483679D01*
X213435611Y-77662519D01*
X213436387Y-76773381D01*
X213096845Y-75951628D01*
X212468679Y-75322364D01*
X211647519Y-74981389D01*
X210758381Y-74980613D01*
X209936628Y-75320155D01*
X209307364Y-75948321D01*
X209296000Y-75975689D01*
X209296000Y-70268779D01*
X209359268Y-70116413D01*
X209359731Y-69585914D01*
X209157146Y-69095620D01*
X208782353Y-68720173D01*
X208292413Y-68516732D01*
X207761914Y-68516269D01*
X207271620Y-68718854D01*
X206896173Y-69093647D01*
X206692732Y-69583587D01*
X206692269Y-70114086D01*
X206756000Y-70268327D01*
X206756000Y-80645000D01*
X195225440Y-80645000D01*
X195110363Y-80529722D01*
X194509648Y-80280284D01*
X193859205Y-80279716D01*
X193258057Y-80528106D01*
X192797722Y-80987637D01*
X192548284Y-81588352D01*
X192547716Y-82238795D01*
X189738000Y-82238795D01*
X189738000Y-77658619D01*
X192455613Y-77658619D01*
X192795155Y-78480372D01*
X193423321Y-79109636D01*
X194244481Y-79450611D01*
X195133619Y-79451387D01*
X195955372Y-79111845D01*
X196584636Y-78483679D01*
X196925611Y-77662519D01*
X196926387Y-76773381D01*
X196586845Y-75951628D01*
X195958679Y-75322364D01*
X195137519Y-74981389D01*
X194248381Y-74980613D01*
X193426628Y-75320155D01*
X192797364Y-75948321D01*
X192456389Y-76769481D01*
X192455613Y-77658619D01*
X189738000Y-77658619D01*
X189738000Y-71695124D01*
X189823877Y-71263392D01*
X189823877Y-71191000D01*
X189838000Y-71120000D01*
X189838000Y-60500000D01*
X192313560Y-60500000D01*
X192313560Y-71580000D01*
X192357838Y-71815317D01*
X192496910Y-72031441D01*
X192709110Y-72176431D01*
X192961000Y-72227440D01*
X204041000Y-72227440D01*
X204276317Y-72183162D01*
X204492441Y-72044090D01*
X204637431Y-71831890D01*
X204688440Y-71580000D01*
X204688440Y-62494086D01*
X206692269Y-62494086D01*
X206894854Y-62984380D01*
X207269647Y-63359827D01*
X207759587Y-63563268D01*
X208290086Y-63563731D01*
X208780380Y-63361146D01*
X209155827Y-62986353D01*
X209359268Y-62496413D01*
X209359731Y-61965914D01*
X209157146Y-61475620D01*
X208782353Y-61100173D01*
X208292413Y-60896732D01*
X207761914Y-60896269D01*
X207271620Y-61098854D01*
X206896173Y-61473647D01*
X206692732Y-61963587D01*
X206692269Y-62494086D01*
X204688440Y-62494086D01*
X204688440Y-60500000D01*
X204644162Y-60264683D01*
X204505090Y-60048559D01*
X204292890Y-59903569D01*
X204041000Y-59852560D01*
X192961000Y-59852560D01*
X192725683Y-59896838D01*
X192509559Y-60035910D01*
X192364569Y-60248110D01*
X192313560Y-60500000D01*
X189838000Y-60500000D01*
X189838000Y-50800000D01*
X189823877Y-50729000D01*
X189823877Y-50656608D01*
X189738000Y-50224876D01*
X189738000Y-49325991D01*
X219317735Y-49325991D01*
X219550932Y-49890371D01*
X219982357Y-50322551D01*
X220546330Y-50556733D01*
X221156991Y-50557265D01*
X221721371Y-50324068D01*
X221898345Y-50147403D01*
X223716682Y-50147403D01*
X223995455Y-50822086D01*
X224511199Y-51338730D01*
X225185395Y-51618681D01*
X225915403Y-51619318D01*
X226590086Y-51340545D01*
X227106730Y-50824801D01*
X227386681Y-50150605D01*
X227387318Y-49420597D01*
X227108545Y-48745914D01*
X226592801Y-48229270D01*
X225918605Y-47949319D01*
X225188597Y-47948682D01*
X224513914Y-48227455D01*
X223997270Y-48743199D01*
X223717319Y-49417395D01*
X223716682Y-50147403D01*
X221898345Y-50147403D01*
X222153551Y-49892643D01*
X222387733Y-49328670D01*
X222388265Y-48718009D01*
X222155068Y-48153629D01*
X221723643Y-47721449D01*
X221159670Y-47487267D01*
X220549009Y-47486735D01*
X219984629Y-47719932D01*
X219552449Y-48151357D01*
X219318267Y-48715330D01*
X219317735Y-49325991D01*
X189738000Y-49325991D01*
X189738000Y-47178619D01*
X192455613Y-47178619D01*
X192795155Y-48000372D01*
X193423321Y-48629636D01*
X194244481Y-48970611D01*
X195133619Y-48971387D01*
X195955372Y-48631845D01*
X196584636Y-48003679D01*
X196925611Y-47182519D01*
X196925614Y-47178619D01*
X208965613Y-47178619D01*
X209305155Y-48000372D01*
X209933321Y-48629636D01*
X210754481Y-48970611D01*
X211643619Y-48971387D01*
X212465372Y-48631845D01*
X213094636Y-48003679D01*
X213435611Y-47182519D01*
X213436387Y-46293381D01*
X213096845Y-45471628D01*
X212894366Y-45268795D01*
X222912716Y-45268795D01*
X223161106Y-45869943D01*
X223620637Y-46330278D01*
X224221352Y-46579716D01*
X224871795Y-46580284D01*
X225472943Y-46331894D01*
X225539574Y-46265379D01*
X225623910Y-46396441D01*
X225836110Y-46541431D01*
X226088000Y-46592440D01*
X228088000Y-46592440D01*
X228323317Y-46548162D01*
X228539441Y-46409090D01*
X228684431Y-46196890D01*
X228735440Y-45945000D01*
X228735440Y-43945000D01*
X228691162Y-43709683D01*
X228552090Y-43493559D01*
X228339890Y-43348569D01*
X228088000Y-43297560D01*
X226088000Y-43297560D01*
X225852683Y-43341838D01*
X225636559Y-43480910D01*
X225539090Y-43623561D01*
X225475363Y-43559722D01*
X224874648Y-43310284D01*
X224224205Y-43309716D01*
X223623057Y-43558106D01*
X223162722Y-44017637D01*
X222913284Y-44618352D01*
X222912716Y-45268795D01*
X212894366Y-45268795D01*
X212468679Y-44842364D01*
X212355127Y-44795213D01*
X214845392Y-44795213D01*
X214914857Y-45037397D01*
X215438302Y-45224144D01*
X215993368Y-45196362D01*
X216377143Y-45037397D01*
X216446608Y-44795213D01*
X215646000Y-43994605D01*
X214845392Y-44795213D01*
X212355127Y-44795213D01*
X211647519Y-44501389D01*
X210758381Y-44500613D01*
X209936628Y-44840155D01*
X209307364Y-45468321D01*
X208966389Y-46289481D01*
X208965613Y-47178619D01*
X196925614Y-47178619D01*
X196926387Y-46293381D01*
X196586845Y-45471628D01*
X195958679Y-44842364D01*
X195137519Y-44501389D01*
X194248381Y-44500613D01*
X193426628Y-44840155D01*
X192797364Y-45468321D01*
X192456389Y-46289481D01*
X192455613Y-47178619D01*
X189738000Y-47178619D01*
X189738000Y-42360795D01*
X192547716Y-42360795D01*
X192796106Y-42961943D01*
X193255637Y-43422278D01*
X193856352Y-43671716D01*
X194506795Y-43672284D01*
X195107943Y-43423894D01*
X195342715Y-43189532D01*
X210736073Y-43189532D01*
X210834736Y-43456387D01*
X211444461Y-43682908D01*
X212094460Y-43658856D01*
X212218922Y-43607302D01*
X214236856Y-43607302D01*
X214264638Y-44162368D01*
X214423603Y-44546143D01*
X214665787Y-44615608D01*
X215466395Y-43815000D01*
X215825605Y-43815000D01*
X216626213Y-44615608D01*
X216868397Y-44546143D01*
X217055144Y-44022698D01*
X217027362Y-43467632D01*
X216868397Y-43083857D01*
X216626213Y-43014392D01*
X215825605Y-43815000D01*
X215466395Y-43815000D01*
X214665787Y-43014392D01*
X214423603Y-43083857D01*
X214236856Y-43607302D01*
X212218922Y-43607302D01*
X212583264Y-43456387D01*
X212681927Y-43189532D01*
X211709000Y-42216605D01*
X210736073Y-43189532D01*
X195342715Y-43189532D01*
X195568278Y-42964363D01*
X195817716Y-42363648D01*
X195818232Y-41772461D01*
X210063092Y-41772461D01*
X210087144Y-42422460D01*
X210289613Y-42911264D01*
X210556468Y-43009927D01*
X211529395Y-42037000D01*
X211888605Y-42037000D01*
X212861532Y-43009927D01*
X213128387Y-42911264D01*
X213156799Y-42834787D01*
X214845392Y-42834787D01*
X215646000Y-43635395D01*
X216446608Y-42834787D01*
X216377143Y-42592603D01*
X215853698Y-42405856D01*
X215298632Y-42433638D01*
X214914857Y-42592603D01*
X214845392Y-42834787D01*
X213156799Y-42834787D01*
X213354908Y-42301539D01*
X213330856Y-41651540D01*
X213128387Y-41162736D01*
X212861532Y-41064073D01*
X211888605Y-42037000D01*
X211529395Y-42037000D01*
X210556468Y-41064073D01*
X210289613Y-41162736D01*
X210063092Y-41772461D01*
X195818232Y-41772461D01*
X195818284Y-41713205D01*
X195569894Y-41112057D01*
X195342703Y-40884468D01*
X210736073Y-40884468D01*
X211709000Y-41857395D01*
X212681927Y-40884468D01*
X212583264Y-40617613D01*
X211973539Y-40391092D01*
X211323540Y-40415144D01*
X210834736Y-40617613D01*
X210736073Y-40884468D01*
X195342703Y-40884468D01*
X195110363Y-40651722D01*
X194509648Y-40402284D01*
X193859205Y-40401716D01*
X193258057Y-40650106D01*
X192797722Y-41109637D01*
X192548284Y-41710352D01*
X192547716Y-42360795D01*
X189738000Y-42360795D01*
X189738000Y-39788976D01*
X189818000Y-39669248D01*
X190028330Y-39984029D01*
X190514511Y-40308885D01*
X191088000Y-40422959D01*
X191661489Y-40308885D01*
X192147670Y-39984029D01*
X192358000Y-39669248D01*
X192568330Y-39984029D01*
X193054511Y-40308885D01*
X193628000Y-40422959D01*
X194201489Y-40308885D01*
X194687670Y-39984029D01*
X194898000Y-39669248D01*
X195108330Y-39984029D01*
X195594511Y-40308885D01*
X196168000Y-40422959D01*
X196741489Y-40308885D01*
X197227670Y-39984029D01*
X197438000Y-39669248D01*
X197648330Y-39984029D01*
X198134511Y-40308885D01*
X198708000Y-40422959D01*
X199281489Y-40308885D01*
X199767670Y-39984029D01*
X199983664Y-39660772D01*
X200041179Y-39783490D01*
X200473053Y-40177688D01*
X200888974Y-40349958D01*
X201121000Y-40228817D01*
X201121000Y-39022000D01*
X201375000Y-39022000D01*
X201375000Y-40228817D01*
X201607026Y-40349958D01*
X202022947Y-40177688D01*
X202454821Y-39783490D01*
X202702968Y-39254027D01*
X202582469Y-39022000D01*
X201375000Y-39022000D01*
X201121000Y-39022000D01*
X201101000Y-39022000D01*
X201101000Y-38768000D01*
X201121000Y-38768000D01*
X201121000Y-38748000D01*
X201375000Y-38748000D01*
X201375000Y-38768000D01*
X202582469Y-38768000D01*
X202702968Y-38535973D01*
X202454821Y-38006510D01*
X202278971Y-37846000D01*
X203765964Y-37846000D01*
X203945230Y-38747233D01*
X204455738Y-39511262D01*
X205219767Y-40021770D01*
X206121000Y-40201036D01*
X207022233Y-40021770D01*
X207786262Y-39511262D01*
X208296770Y-38747233D01*
X208476036Y-37846000D01*
X208296770Y-36944767D01*
X208220086Y-36830000D01*
X214998560Y-36830000D01*
X214998560Y-39370000D01*
X215042838Y-39605317D01*
X215181910Y-39821441D01*
X215394110Y-39966431D01*
X215646000Y-40017440D01*
X218186000Y-40017440D01*
X218421317Y-39973162D01*
X218637441Y-39834090D01*
X218782431Y-39621890D01*
X218817689Y-39447777D01*
X220827828Y-39447777D01*
X220959520Y-39742657D01*
X221667036Y-40014261D01*
X222424632Y-39994436D01*
X223032480Y-39742657D01*
X223164172Y-39447777D01*
X221996000Y-38279605D01*
X220827828Y-39447777D01*
X218817689Y-39447777D01*
X218833440Y-39370000D01*
X218833440Y-37771036D01*
X220081739Y-37771036D01*
X220101564Y-38528632D01*
X220353343Y-39136480D01*
X220648223Y-39268172D01*
X221816395Y-38100000D01*
X222175605Y-38100000D01*
X223343777Y-39268172D01*
X223638657Y-39136480D01*
X223910261Y-38428964D01*
X223890436Y-37671368D01*
X223638657Y-37063520D01*
X223343777Y-36931828D01*
X222175605Y-38100000D01*
X221816395Y-38100000D01*
X220648223Y-36931828D01*
X220353343Y-37063520D01*
X220081739Y-37771036D01*
X218833440Y-37771036D01*
X218833440Y-36830000D01*
X218818806Y-36752223D01*
X220827828Y-36752223D01*
X221996000Y-37920395D01*
X223164172Y-36752223D01*
X223032480Y-36457343D01*
X222324964Y-36185739D01*
X221567368Y-36205564D01*
X220959520Y-36457343D01*
X220827828Y-36752223D01*
X218818806Y-36752223D01*
X218789162Y-36594683D01*
X218650090Y-36378559D01*
X218437890Y-36233569D01*
X218186000Y-36182560D01*
X215646000Y-36182560D01*
X215410683Y-36226838D01*
X215194559Y-36365910D01*
X215049569Y-36578110D01*
X214998560Y-36830000D01*
X208220086Y-36830000D01*
X207786262Y-36180738D01*
X207022233Y-35670230D01*
X206121000Y-35490964D01*
X205219767Y-35670230D01*
X204455738Y-36180738D01*
X203945230Y-36944767D01*
X203765964Y-37846000D01*
X202278971Y-37846000D01*
X202036839Y-37624992D01*
X202307670Y-37444029D01*
X202632526Y-36957848D01*
X202746600Y-36384359D01*
X202746600Y-36325641D01*
X202632526Y-35752152D01*
X202307670Y-35265971D01*
X201909617Y-35000000D01*
X228906000Y-35000000D01*
X228906000Y-57183949D01*
G36*
X193755000Y-36228000D02*
X193775000Y-36228000D01*
X193775000Y-36482000D01*
X193755000Y-36482000D01*
X193755000Y-36502000D01*
X193501000Y-36502000D01*
X193501000Y-36482000D01*
X193481000Y-36482000D01*
X193481000Y-36228000D01*
X193501000Y-36228000D01*
X193501000Y-36208000D01*
X193755000Y-36208000D01*
X193755000Y-36228000D01*
X193755000Y-36228000D01*
G37*
X193755000Y-36228000D02*
X193775000Y-36228000D01*
X193775000Y-36482000D01*
X193755000Y-36482000D01*
X193755000Y-36502000D01*
X193501000Y-36502000D01*
X193501000Y-36482000D01*
X193481000Y-36482000D01*
X193481000Y-36228000D01*
X193501000Y-36228000D01*
X193501000Y-36208000D01*
X193755000Y-36208000D01*
X193755000Y-36228000D01*
G36*
X190028330Y-35265971D02*
X189812336Y-35589228D01*
X189754821Y-35466510D01*
X189738000Y-35451156D01*
X189738000Y-35000000D01*
X190426383Y-35000000D01*
X190028330Y-35265971D01*
X190028330Y-35265971D01*
G37*
X190028330Y-35265971D02*
X189812336Y-35589228D01*
X189754821Y-35466510D01*
X189738000Y-35451156D01*
X189738000Y-35000000D01*
X190426383Y-35000000D01*
X190028330Y-35265971D01*
G36*
X192853053Y-35072312D02*
X192421179Y-35466510D01*
X192363664Y-35589228D01*
X192147670Y-35265971D01*
X191749617Y-35000000D01*
X193027640Y-35000000D01*
X192853053Y-35072312D01*
X192853053Y-35072312D01*
G37*
X192853053Y-35072312D02*
X192421179Y-35466510D01*
X192363664Y-35589228D01*
X192147670Y-35265971D01*
X191749617Y-35000000D01*
X193027640Y-35000000D01*
X192853053Y-35072312D01*
G36*
X195108330Y-35265971D02*
X194892336Y-35589228D01*
X194834821Y-35466510D01*
X194402947Y-35072312D01*
X194228360Y-35000000D01*
X195506383Y-35000000D01*
X195108330Y-35265971D01*
X195108330Y-35265971D01*
G37*
X195108330Y-35265971D02*
X194892336Y-35589228D01*
X194834821Y-35466510D01*
X194402947Y-35072312D01*
X194228360Y-35000000D01*
X195506383Y-35000000D01*
X195108330Y-35265971D01*
M02*
