M48
;DRILL file {KiCad 4.0.2+dfsg1-stable} date 2016年08月04日 20時34分38秒
;FORMAT={-:-/ absolute / inch / decimal}
FMAT,2
INCH,TZ
T1C0.016
T2C0.023
T3C0.024
T4C0.026
T5C0.028
T6C0.031
T7C0.032
T8C0.032
T9C0.039
T10C0.039
T11C0.040
T12C0.045
T13C0.047
T14C0.060
T15C0.126
T16C0.157
%
G90
G05
M72
T1
X5.775Y-4.625
X5.78Y-4.51
X5.7991Y-3.725
X5.8133Y-3.8915
X5.84Y-4.56
X5.8537Y-3.8634
X5.86Y-4.59
X5.9Y-3.8663
X5.94Y-3.93
X5.9525Y-4.5864
X5.9591Y-4.5043
X6.Y-4.625
X6.0168Y-4.5168
X6.025Y-3.85
X6.0761Y-4.4239
X6.08Y-4.5
X6.15Y-3.95
X6.1734Y-3.9902
X6.2612Y-4.3959
X6.31Y-4.86
X6.32Y-4.6
X6.3551Y-4.2928
X6.375Y-5.075
X6.3841Y-4.585
X6.4133Y-4.5333
X6.425Y-4.675
X6.4287Y-4.4159
X6.6337Y-4.5566
X6.675Y-4.3306
X6.7Y-4.18
X6.75Y-5.375
X6.7874Y-4.3126
X6.9285Y-3.8644
X7.0006Y-4.1744
X7.1465Y-3.8394
X7.16Y-3.685
X7.16Y-4.525
X7.175Y-4.025
X7.2053Y-4.5134
X7.26Y-3.96
X7.425Y-5.
X7.575Y-3.76
T2
X7.675Y-3.6
X7.775Y-3.6
T3
X6.135Y-4.875
X6.135Y-4.975
X6.475Y-4.875
X6.475Y-4.975
X6.675Y-3.775
X6.75Y-3.775
X6.825Y-3.775
X6.9Y-3.775
X7.575Y-3.85
X7.575Y-3.95
X7.575Y-4.05
X7.575Y-4.15
X7.575Y-4.25
X7.575Y-4.35
X7.575Y-4.45
X7.575Y-4.55
X7.575Y-4.65
X7.675Y-3.85
X7.675Y-3.95
X7.675Y-4.05
X7.675Y-4.15
X7.675Y-4.25
X7.675Y-4.35
X7.675Y-4.45
X7.675Y-4.55
X7.675Y-4.65
X7.775Y-3.85
X7.775Y-3.95
X7.775Y-4.05
X7.775Y-4.15
X7.775Y-4.25
X7.775Y-4.35
X7.775Y-4.45
X7.775Y-4.55
X7.775Y-4.65
X8.075Y-3.85
X8.075Y-3.95
X8.075Y-4.05
X8.075Y-4.15
X8.075Y-4.25
X8.075Y-4.35
X8.075Y-4.45
X8.075Y-4.55
X8.075Y-4.65
T4
X5.49Y-4.56
X5.49Y-4.66
X5.49Y-4.76
T5
X5.925Y-3.65
X6.025Y-3.65
X6.125Y-3.65
X6.6Y-4.
X6.7Y-4.
X6.8Y-4.
X6.9Y-4.
X6.95Y-3.6
X7.Y-4.
X7.05Y-3.6
X7.15Y-3.6
X7.325Y-3.6
X7.375Y-3.85
X7.375Y-3.95
X7.375Y-4.05
X7.375Y-4.15
X7.375Y-4.25
X7.375Y-4.35
X7.375Y-4.45
X7.375Y-4.55
X7.375Y-4.65
X7.425Y-3.6
X7.475Y-3.85
X7.475Y-3.95
X7.475Y-4.05
X7.475Y-4.15
X7.475Y-4.25
X7.475Y-4.35
X7.475Y-4.45
X7.475Y-4.55
X7.475Y-4.65
X7.525Y-3.6
X7.875Y-3.85
X7.875Y-3.95
X7.875Y-4.05
X7.875Y-4.15
X7.875Y-4.25
X7.875Y-4.35
X7.875Y-4.45
X7.875Y-4.55
X7.875Y-4.65
T6
X5.6966Y-5.29
X5.99Y-5.29
X6.0884Y-5.29
X6.6641Y-4.96
X6.7625Y-4.96
X6.96Y-4.955
X7.0584Y-4.955
X7.15Y-4.75
X7.225Y-4.8
X7.225Y-5.1
X7.325Y-4.8
X7.325Y-5.1
X7.425Y-4.8
X7.425Y-5.1
X7.525Y-4.8
X7.525Y-5.1
T7
X5.795Y-5.29
X7.0516Y-4.75
X7.625Y-5.15
T8
X5.59Y-4.77
X5.69Y-4.77
X5.8Y-4.77
X5.9Y-4.77
X6.25Y-3.6
X6.25Y-3.9
X6.25Y-3.975
X6.25Y-4.275
X6.45Y-3.6
X6.45Y-3.9
X6.45Y-3.975
X6.45Y-4.275
X7.22Y-5.21
X7.22Y-5.31
X7.32Y-5.21
X7.32Y-5.31
X7.42Y-5.215
X7.42Y-5.315
X7.52Y-5.215
X7.52Y-5.315
X7.725Y-4.8
X7.825Y-4.8
T9
X6.0526Y-4.325
X6.25Y-4.95
X6.5337Y-4.6028
X6.5539Y-4.3039
X6.7408Y-4.7591
X7.125Y-4.225
X7.715Y-3.74
T10
X6.66Y-5.1999
X6.76Y-5.1999
X6.84Y-5.1999
X6.94Y-5.1999
T11
X6.26Y-5.3
X6.36Y-5.3
T12
X6.6Y-4.175
X6.7Y-4.175
X6.8Y-4.175
T13
X6.9098Y-4.6
X7.Y-4.6
X7.0902Y-4.6
T14
X7.8092Y-4.9939
X7.8439Y-5.1908
X7.9496Y-5.0707
T15
X7.7017Y-4.9398
X7.7624Y-5.2844
X8.0767Y-5.0513
T16
X5.9315Y-4.1067
T3
X5.5281Y-4.8858G85X5.5636Y-4.8858
G05
X5.5281Y-5.1142G85X5.5636Y-5.1142
G05
T5
X5.6522Y-4.8858G85X5.6837Y-4.8858
G05
X5.7781Y-4.8858G85X5.8096Y-4.8858
G05
X5.912Y-4.8858G85X5.9435Y-4.8858
G05
X5.912Y-5.1142G85X5.9435Y-5.1142
G05
T9
X6.5458Y-5.2209G85X6.5458Y-5.2602
G05
X7.0498Y-5.2209G85X7.0498Y-5.2602
G05
T0
M30
