G04 #@! TF.FileFunction,Legend,Top*
%FSLAX46Y46*%
G04 Gerber Fmt 4.6, Leading zero omitted, Abs format (unit mm)*
G04 Created by KiCad (PCBNEW 4.0.2+dfsg1-stable) date 2016年08月04日 20時34分36秒*
%MOMM*%
G01*
G04 APERTURE LIST*
%ADD10C,0.100000*%
%ADD11C,0.175000*%
%ADD12C,0.200000*%
%ADD13C,0.150000*%
%ADD14C,0.500000*%
%ADD15C,0.125000*%
%ADD16C,2.000000*%
%ADD17C,0.250000*%
%ADD18C,0.300000*%
%ADD19C,0.170000*%
G04 APERTURE END LIST*
D10*
D11*
X154587371Y-94171333D02*
X154587371Y-94871333D01*
X154287371Y-94371333D01*
X153987371Y-94871333D01*
X153987371Y-94171333D01*
X153387372Y-94871333D02*
X153215943Y-94871333D01*
X153130229Y-94838000D01*
X153044515Y-94771333D01*
X153001657Y-94638000D01*
X153001657Y-94404667D01*
X153044515Y-94271333D01*
X153130229Y-94204667D01*
X153215943Y-94171333D01*
X153387372Y-94171333D01*
X153473086Y-94204667D01*
X153558800Y-94271333D01*
X153601657Y-94404667D01*
X153601657Y-94638000D01*
X153558800Y-94771333D01*
X153473086Y-94838000D01*
X153387372Y-94871333D01*
X152615943Y-94171333D02*
X152615943Y-94871333D01*
X152401658Y-94871333D01*
X152273086Y-94838000D01*
X152187372Y-94771333D01*
X152144515Y-94704667D01*
X152101658Y-94571333D01*
X152101658Y-94471333D01*
X152144515Y-94338000D01*
X152187372Y-94271333D01*
X152273086Y-94204667D01*
X152401658Y-94171333D01*
X152615943Y-94171333D01*
X151715943Y-94538000D02*
X151415943Y-94538000D01*
X151287372Y-94171333D02*
X151715943Y-94171333D01*
X151715943Y-94871333D01*
X151287372Y-94871333D01*
D12*
X183305467Y-90513163D02*
X183305467Y-90894115D01*
X183076895Y-90436972D02*
X183876895Y-90703639D01*
X183076895Y-90970306D01*
X183076895Y-91236972D02*
X183876895Y-91236972D01*
X183076895Y-91694115D01*
X183876895Y-91694115D01*
X183305467Y-92036972D02*
X183305467Y-92417924D01*
X183076895Y-91960781D02*
X183876895Y-92227448D01*
X183076895Y-92494115D01*
X183076895Y-93141734D02*
X183076895Y-92760781D01*
X183876895Y-92760781D01*
X183876895Y-93560781D02*
X183876895Y-93713162D01*
X183838800Y-93789353D01*
X183762610Y-93865543D01*
X183610229Y-93903638D01*
X183343562Y-93903638D01*
X183191181Y-93865543D01*
X183114990Y-93789353D01*
X183076895Y-93713162D01*
X183076895Y-93560781D01*
X183114990Y-93484591D01*
X183191181Y-93408400D01*
X183343562Y-93370305D01*
X183610229Y-93370305D01*
X183762610Y-93408400D01*
X183838800Y-93484591D01*
X183876895Y-93560781D01*
X183838800Y-94665543D02*
X183876895Y-94589352D01*
X183876895Y-94475067D01*
X183838800Y-94360781D01*
X183762610Y-94284590D01*
X183686419Y-94246495D01*
X183534038Y-94208400D01*
X183419752Y-94208400D01*
X183267371Y-94246495D01*
X183191181Y-94284590D01*
X183114990Y-94360781D01*
X183076895Y-94475067D01*
X183076895Y-94551257D01*
X183114990Y-94665543D01*
X183153086Y-94703638D01*
X183419752Y-94703638D01*
X183419752Y-94551257D01*
D13*
X191773656Y-95937429D02*
X192145085Y-95937429D01*
X191945085Y-96166000D01*
X192030799Y-96166000D01*
X192087942Y-96194571D01*
X192116513Y-96223143D01*
X192145085Y-96280286D01*
X192145085Y-96423143D01*
X192116513Y-96480286D01*
X192087942Y-96508857D01*
X192030799Y-96537429D01*
X191859371Y-96537429D01*
X191802228Y-96508857D01*
X191773656Y-96480286D01*
X192316514Y-95937429D02*
X192516514Y-96537429D01*
X192716514Y-95937429D01*
X192859371Y-95937429D02*
X193230800Y-95937429D01*
X193030800Y-96166000D01*
X193116514Y-96166000D01*
X193173657Y-96194571D01*
X193202228Y-96223143D01*
X193230800Y-96280286D01*
X193230800Y-96423143D01*
X193202228Y-96480286D01*
X193173657Y-96508857D01*
X193116514Y-96537429D01*
X192945086Y-96537429D01*
X192887943Y-96508857D01*
X192859371Y-96480286D01*
X194259372Y-95966000D02*
X194202229Y-95937429D01*
X194116515Y-95937429D01*
X194030800Y-95966000D01*
X193973658Y-96023143D01*
X193945086Y-96080286D01*
X193916515Y-96194571D01*
X193916515Y-96280286D01*
X193945086Y-96394571D01*
X193973658Y-96451714D01*
X194030800Y-96508857D01*
X194116515Y-96537429D01*
X194173658Y-96537429D01*
X194259372Y-96508857D01*
X194287943Y-96480286D01*
X194287943Y-96280286D01*
X194173658Y-96280286D01*
X194545086Y-96537429D02*
X194545086Y-95937429D01*
X194887943Y-96537429D01*
X194887943Y-95937429D01*
X195173657Y-96537429D02*
X195173657Y-95937429D01*
X195316514Y-95937429D01*
X195402229Y-95966000D01*
X195459371Y-96023143D01*
X195487943Y-96080286D01*
X195516514Y-96194571D01*
X195516514Y-96280286D01*
X195487943Y-96394571D01*
X195459371Y-96451714D01*
X195402229Y-96508857D01*
X195316514Y-96537429D01*
X195173657Y-96537429D01*
D10*
X202190647Y-119537981D02*
X202190647Y-119561790D01*
X202214456Y-119490362D02*
X202214456Y-119561790D01*
X202238266Y-119442743D02*
X202238266Y-119561790D01*
X202262075Y-119395124D02*
X202262075Y-119561790D01*
X202285885Y-119371314D02*
X202285885Y-119561790D01*
X202309694Y-119323695D02*
X202309694Y-119561790D01*
X202333504Y-119276076D02*
X202333504Y-119561790D01*
X202357313Y-119228457D02*
X202357313Y-119561790D01*
X202381123Y-119180838D02*
X202381123Y-119561790D01*
X202404932Y-119228457D02*
X202404932Y-119561790D01*
X202428742Y-119276076D02*
X202428742Y-119561790D01*
X202452551Y-119323695D02*
X202452551Y-119561790D01*
X202476361Y-119371314D02*
X202476361Y-119561790D01*
X202500170Y-119395124D02*
X202500170Y-119561790D01*
X202523980Y-119442743D02*
X202523980Y-119561790D01*
X202547789Y-119490362D02*
X202547789Y-119561790D01*
X202571599Y-119561790D02*
X202381123Y-119204648D01*
X202190647Y-119561790D01*
X202571599Y-119537981D02*
X202571599Y-119561790D01*
X202381123Y-119180838D02*
X202595409Y-119561790D01*
X202166837Y-119561790D01*
X202381123Y-119180838D01*
X203047790Y-119561790D02*
X202809695Y-119561790D01*
X202809695Y-119061790D01*
X203214457Y-119061790D02*
X203214457Y-119466552D01*
X203238266Y-119514171D01*
X203262076Y-119537981D01*
X203309695Y-119561790D01*
X203404933Y-119561790D01*
X203452552Y-119537981D01*
X203476361Y-119514171D01*
X203500171Y-119466552D01*
X203500171Y-119061790D01*
X203714457Y-119418933D02*
X203952552Y-119418933D01*
X203666838Y-119561790D02*
X203833505Y-119061790D01*
X204000171Y-119561790D01*
X204523980Y-119037981D02*
X204095409Y-119680838D01*
X201238266Y-120361790D02*
X201238266Y-119861790D01*
X201523980Y-120361790D01*
X201523980Y-119861790D01*
X201833504Y-120361790D02*
X201785885Y-120337981D01*
X201762076Y-120314171D01*
X201738266Y-120266552D01*
X201738266Y-120123695D01*
X201762076Y-120076076D01*
X201785885Y-120052267D01*
X201833504Y-120028457D01*
X201904933Y-120028457D01*
X201952552Y-120052267D01*
X201976361Y-120076076D01*
X202000171Y-120123695D01*
X202000171Y-120266552D01*
X201976361Y-120314171D01*
X201952552Y-120337981D01*
X201904933Y-120361790D01*
X201833504Y-120361790D01*
X202428742Y-120361790D02*
X202428742Y-119861790D01*
X202428742Y-120337981D02*
X202381123Y-120361790D01*
X202285885Y-120361790D01*
X202238266Y-120337981D01*
X202214457Y-120314171D01*
X202190647Y-120266552D01*
X202190647Y-120123695D01*
X202214457Y-120076076D01*
X202238266Y-120052267D01*
X202285885Y-120028457D01*
X202381123Y-120028457D01*
X202428742Y-120052267D01*
X202857314Y-120337981D02*
X202809695Y-120361790D01*
X202714457Y-120361790D01*
X202666838Y-120337981D01*
X202643028Y-120290362D01*
X202643028Y-120099886D01*
X202666838Y-120052267D01*
X202714457Y-120028457D01*
X202809695Y-120028457D01*
X202857314Y-120052267D01*
X202881123Y-120099886D01*
X202881123Y-120147505D01*
X202643028Y-120195124D01*
X203095409Y-120361790D02*
X203095409Y-119861790D01*
X203262075Y-120218933D01*
X203428742Y-119861790D01*
X203428742Y-120361790D01*
X203952552Y-120314171D02*
X203928742Y-120337981D01*
X203857314Y-120361790D01*
X203809695Y-120361790D01*
X203738266Y-120337981D01*
X203690647Y-120290362D01*
X203666838Y-120242743D01*
X203643028Y-120147505D01*
X203643028Y-120076076D01*
X203666838Y-119980838D01*
X203690647Y-119933219D01*
X203738266Y-119885600D01*
X203809695Y-119861790D01*
X203857314Y-119861790D01*
X203928742Y-119885600D01*
X203952552Y-119909410D01*
X204166838Y-119861790D02*
X204166838Y-120266552D01*
X204190647Y-120314171D01*
X204214457Y-120337981D01*
X204262076Y-120361790D01*
X204357314Y-120361790D01*
X204404933Y-120337981D01*
X204428742Y-120314171D01*
X204452552Y-120266552D01*
X204452552Y-119861790D01*
X204914286Y-95958000D02*
X204828572Y-95918000D01*
X204700001Y-95918000D01*
X204571429Y-95958000D01*
X204485715Y-96038000D01*
X204442858Y-96118000D01*
X204400001Y-96278000D01*
X204400001Y-96398000D01*
X204442858Y-96558000D01*
X204485715Y-96638000D01*
X204571429Y-96718000D01*
X204700001Y-96758000D01*
X204785715Y-96758000D01*
X204914286Y-96718000D01*
X204957143Y-96678000D01*
X204957143Y-96398000D01*
X204785715Y-96398000D01*
X205342858Y-96758000D02*
X205342858Y-95918000D01*
X205685715Y-95918000D01*
X205771429Y-95958000D01*
X205814286Y-95998000D01*
X205857143Y-96078000D01*
X205857143Y-96198000D01*
X205814286Y-96278000D01*
X205771429Y-96318000D01*
X205685715Y-96358000D01*
X205342858Y-96358000D01*
X206242858Y-96758000D02*
X206242858Y-95918000D01*
X206842857Y-95918000D02*
X207014286Y-95918000D01*
X207100000Y-95958000D01*
X207185714Y-96038000D01*
X207228572Y-96198000D01*
X207228572Y-96478000D01*
X207185714Y-96638000D01*
X207100000Y-96718000D01*
X207014286Y-96758000D01*
X206842857Y-96758000D01*
X206757143Y-96718000D01*
X206671429Y-96638000D01*
X206628572Y-96478000D01*
X206628572Y-96198000D01*
X206671429Y-96038000D01*
X206757143Y-95958000D01*
X206842857Y-95918000D01*
X207185714Y-97434000D02*
X207185714Y-97394000D01*
X207142857Y-97514000D02*
X207142857Y-97394000D01*
X207100000Y-97594000D02*
X207100000Y-97394000D01*
X207057143Y-97674000D02*
X207057143Y-97394000D01*
X207014285Y-97714000D02*
X207014285Y-97394000D01*
X206971428Y-97794000D02*
X206971428Y-97394000D01*
X206928571Y-97874000D02*
X206928571Y-97394000D01*
X206885714Y-97954000D02*
X206885714Y-97394000D01*
X206842857Y-98034000D02*
X206842857Y-97394000D01*
X206800000Y-97954000D02*
X206800000Y-97394000D01*
X206757143Y-97874000D02*
X206757143Y-97394000D01*
X206714285Y-97794000D02*
X206714285Y-97394000D01*
X206671428Y-97714000D02*
X206671428Y-97394000D01*
X206628571Y-97674000D02*
X206628571Y-97394000D01*
X206585714Y-97594000D02*
X206585714Y-97394000D01*
X206542857Y-97514000D02*
X206542857Y-97394000D01*
X206500000Y-97394000D02*
X206842857Y-97994000D01*
X207185714Y-97394000D01*
X206500000Y-97434000D02*
X206500000Y-97394000D01*
X206842857Y-98034000D02*
X206457143Y-97394000D01*
X207228571Y-97394000D01*
X206842857Y-98034000D01*
X206328571Y-99310000D02*
X205814286Y-99310000D01*
X206071428Y-99310000D02*
X206071428Y-98470000D01*
X205985714Y-98590000D01*
X205900000Y-98670000D01*
X205814286Y-98710000D01*
X207100000Y-98470000D02*
X206928571Y-98470000D01*
X206842857Y-98510000D01*
X206800000Y-98550000D01*
X206714286Y-98670000D01*
X206671429Y-98830000D01*
X206671429Y-99150000D01*
X206714286Y-99230000D01*
X206757143Y-99270000D01*
X206842857Y-99310000D01*
X207014286Y-99310000D01*
X207100000Y-99270000D01*
X207142857Y-99230000D01*
X207185714Y-99150000D01*
X207185714Y-98950000D01*
X207142857Y-98870000D01*
X207100000Y-98830000D01*
X207014286Y-98790000D01*
X206842857Y-98790000D01*
X206757143Y-98830000D01*
X206714286Y-98870000D01*
X206671429Y-98950000D01*
X206714286Y-101022000D02*
X206285715Y-101022000D01*
X206242858Y-101422000D01*
X206285715Y-101382000D01*
X206371429Y-101342000D01*
X206585715Y-101342000D01*
X206671429Y-101382000D01*
X206714286Y-101422000D01*
X206757143Y-101502000D01*
X206757143Y-101702000D01*
X206714286Y-101782000D01*
X206671429Y-101822000D01*
X206585715Y-101862000D01*
X206371429Y-101862000D01*
X206285715Y-101822000D01*
X206242858Y-101782000D01*
X206671429Y-103854000D02*
X206671429Y-104414000D01*
X206457143Y-103534000D02*
X206242858Y-104134000D01*
X206800000Y-104134000D01*
X206457143Y-106126000D02*
X206542858Y-106126000D01*
X206628572Y-106166000D01*
X206671429Y-106206000D01*
X206714286Y-106286000D01*
X206757143Y-106446000D01*
X206757143Y-106646000D01*
X206714286Y-106806000D01*
X206671429Y-106886000D01*
X206628572Y-106926000D01*
X206542858Y-106966000D01*
X206457143Y-106966000D01*
X206371429Y-106926000D01*
X206328572Y-106886000D01*
X206285715Y-106806000D01*
X206242858Y-106646000D01*
X206242858Y-106446000D01*
X206285715Y-106286000D01*
X206328572Y-106206000D01*
X206371429Y-106166000D01*
X206457143Y-106126000D01*
X206242858Y-108758000D02*
X206285715Y-108718000D01*
X206371429Y-108678000D01*
X206585715Y-108678000D01*
X206671429Y-108718000D01*
X206714286Y-108758000D01*
X206757143Y-108838000D01*
X206757143Y-108918000D01*
X206714286Y-109038000D01*
X206200000Y-109518000D01*
X206757143Y-109518000D01*
X206328571Y-112070000D02*
X205814286Y-112070000D01*
X206071428Y-112070000D02*
X206071428Y-111230000D01*
X205985714Y-111350000D01*
X205900000Y-111430000D01*
X205814286Y-111470000D01*
X207100000Y-111510000D02*
X207100000Y-112070000D01*
X206885714Y-111190000D02*
X206671429Y-111790000D01*
X207228571Y-111790000D01*
X206328571Y-114622000D02*
X205814286Y-114622000D01*
X206071428Y-114622000D02*
X206071428Y-113782000D01*
X205985714Y-113902000D01*
X205900000Y-113982000D01*
X205814286Y-114022000D01*
X206671429Y-113862000D02*
X206714286Y-113822000D01*
X206800000Y-113782000D01*
X207014286Y-113782000D01*
X207100000Y-113822000D01*
X207142857Y-113862000D01*
X207185714Y-113942000D01*
X207185714Y-114022000D01*
X207142857Y-114142000D01*
X206628571Y-114622000D01*
X207185714Y-114622000D01*
X206328571Y-117174000D02*
X205814286Y-117174000D01*
X206071428Y-117174000D02*
X206071428Y-116334000D01*
X205985714Y-116454000D01*
X205900000Y-116534000D01*
X205814286Y-116574000D01*
X206628571Y-116334000D02*
X207185714Y-116334000D01*
X206885714Y-116654000D01*
X207014286Y-116654000D01*
X207100000Y-116694000D01*
X207142857Y-116734000D01*
X207185714Y-116814000D01*
X207185714Y-117014000D01*
X207142857Y-117094000D01*
X207100000Y-117134000D01*
X207014286Y-117174000D01*
X206757143Y-117174000D01*
X206671429Y-117134000D01*
X206628571Y-117094000D01*
X206328571Y-119726000D02*
X205814286Y-119726000D01*
X206071428Y-119726000D02*
X206071428Y-118886000D01*
X205985714Y-119006000D01*
X205900000Y-119086000D01*
X205814286Y-119126000D01*
X207142857Y-118886000D02*
X206714286Y-118886000D01*
X206671429Y-119286000D01*
X206714286Y-119246000D01*
X206800000Y-119206000D01*
X207014286Y-119206000D01*
X207100000Y-119246000D01*
X207142857Y-119286000D01*
X207185714Y-119366000D01*
X207185714Y-119566000D01*
X207142857Y-119646000D01*
X207100000Y-119686000D01*
X207014286Y-119726000D01*
X206800000Y-119726000D01*
X206714286Y-119686000D01*
X206671429Y-119646000D01*
D14*
X172734000Y-124841000D02*
G75*
G03X172734000Y-124841000I-268000J0D01*
G01*
D10*
X201829857Y-115934857D02*
X201858429Y-115934857D01*
X201772714Y-115887238D02*
X201858429Y-115887238D01*
X201715571Y-115839619D02*
X201858429Y-115839619D01*
X201658429Y-115792000D02*
X201858429Y-115792000D01*
X201629857Y-115744381D02*
X201858429Y-115744381D01*
X201572714Y-115696762D02*
X201858429Y-115696762D01*
X201515571Y-115649142D02*
X201858429Y-115649142D01*
X201458429Y-115601523D02*
X201858429Y-115601523D01*
X201401286Y-115553904D02*
X201858429Y-115553904D01*
X201458429Y-115506285D02*
X201858429Y-115506285D01*
X201515571Y-115458666D02*
X201858429Y-115458666D01*
X201572714Y-115411047D02*
X201858429Y-115411047D01*
X201629857Y-115363428D02*
X201858429Y-115363428D01*
X201658429Y-115315809D02*
X201858429Y-115315809D01*
X201715571Y-115268190D02*
X201858429Y-115268190D01*
X201772714Y-115220571D02*
X201858429Y-115220571D01*
X201858429Y-115172952D02*
X201429857Y-115553904D01*
X201858429Y-115934857D01*
X201829857Y-115172952D02*
X201858429Y-115172952D01*
X201401286Y-115553904D02*
X201858429Y-115125333D01*
X201858429Y-115982476D01*
X201401286Y-115553904D01*
X201829857Y-110887237D02*
X201858429Y-110887237D01*
X201772714Y-110839618D02*
X201858429Y-110839618D01*
X201715571Y-110791999D02*
X201858429Y-110791999D01*
X201658429Y-110744380D02*
X201858429Y-110744380D01*
X201629857Y-110696761D02*
X201858429Y-110696761D01*
X201572714Y-110649142D02*
X201858429Y-110649142D01*
X201515571Y-110601522D02*
X201858429Y-110601522D01*
X201458429Y-110553903D02*
X201858429Y-110553903D01*
X201401286Y-110506284D02*
X201858429Y-110506284D01*
X201458429Y-110458665D02*
X201858429Y-110458665D01*
X201515571Y-110411046D02*
X201858429Y-110411046D01*
X201572714Y-110363427D02*
X201858429Y-110363427D01*
X201629857Y-110315808D02*
X201858429Y-110315808D01*
X201658429Y-110268189D02*
X201858429Y-110268189D01*
X201715571Y-110220570D02*
X201858429Y-110220570D01*
X201772714Y-110172951D02*
X201858429Y-110172951D01*
X201858429Y-110125332D02*
X201429857Y-110506284D01*
X201858429Y-110887237D01*
X201829857Y-110125332D02*
X201858429Y-110125332D01*
X201401286Y-110506284D02*
X201858429Y-110077713D01*
X201858429Y-110934856D01*
X201401286Y-110506284D01*
X202198429Y-117696761D02*
X202198429Y-117125332D01*
X202798429Y-117411047D02*
X202198429Y-117411047D01*
X202798429Y-116791999D02*
X202198429Y-116791999D01*
X202798429Y-116315809D02*
X202198429Y-116315809D01*
X202627000Y-115982475D01*
X202198429Y-115649142D01*
X202798429Y-115649142D01*
X202484143Y-115172952D02*
X202484143Y-114839618D01*
X202798429Y-114696761D02*
X202798429Y-115172952D01*
X202198429Y-115172952D01*
X202198429Y-114696761D01*
X202798429Y-113696761D02*
X202512714Y-114030095D01*
X202798429Y-114268190D02*
X202198429Y-114268190D01*
X202198429Y-113887237D01*
X202227000Y-113791999D01*
X202255571Y-113744380D01*
X202312714Y-113696761D01*
X202398429Y-113696761D01*
X202455571Y-113744380D01*
X202484143Y-113791999D01*
X202512714Y-113887237D01*
X202512714Y-114268190D01*
X202198429Y-112601523D02*
X202798429Y-112363428D01*
X202369857Y-112172951D01*
X202798429Y-111982475D01*
X202198429Y-111744380D01*
X202798429Y-111363428D02*
X202198429Y-111363428D01*
X202484143Y-110553904D02*
X202484143Y-110887238D01*
X202798429Y-110887238D02*
X202198429Y-110887238D01*
X202198429Y-110411047D01*
X202798429Y-110030095D02*
X202198429Y-110030095D01*
D15*
X206469762Y-90862143D02*
X206398333Y-90824048D01*
X206374524Y-90785952D01*
X206350714Y-90709762D01*
X206350714Y-90595476D01*
X206374524Y-90519286D01*
X206398333Y-90481190D01*
X206445952Y-90443095D01*
X206636428Y-90443095D01*
X206636428Y-91243095D01*
X206469762Y-91243095D01*
X206422143Y-91205000D01*
X206398333Y-91166905D01*
X206374524Y-91090714D01*
X206374524Y-91014524D01*
X206398333Y-90938333D01*
X206422143Y-90900238D01*
X206469762Y-90862143D01*
X206636428Y-90862143D01*
X205850714Y-90443095D02*
X206017381Y-90824048D01*
X206136428Y-90443095D02*
X206136428Y-91243095D01*
X205945952Y-91243095D01*
X205898333Y-91205000D01*
X205874524Y-91166905D01*
X205850714Y-91090714D01*
X205850714Y-90976429D01*
X205874524Y-90900238D01*
X205898333Y-90862143D01*
X205945952Y-90824048D01*
X206136428Y-90824048D01*
X205636428Y-90862143D02*
X205469762Y-90862143D01*
X205398333Y-90443095D02*
X205636428Y-90443095D01*
X205636428Y-91243095D01*
X205398333Y-91243095D01*
X205207857Y-90671667D02*
X204969762Y-90671667D01*
X205255476Y-90443095D02*
X205088809Y-91243095D01*
X204922143Y-90443095D01*
X204755476Y-90443095D02*
X204755476Y-91243095D01*
X204636429Y-91243095D01*
X204565000Y-91205000D01*
X204517381Y-91128810D01*
X204493572Y-91052619D01*
X204469762Y-90900238D01*
X204469762Y-90785952D01*
X204493572Y-90633571D01*
X204517381Y-90557381D01*
X204565000Y-90481190D01*
X204636429Y-90443095D01*
X204755476Y-90443095D01*
X204088810Y-90862143D02*
X204017381Y-90824048D01*
X203993572Y-90785952D01*
X203969762Y-90709762D01*
X203969762Y-90595476D01*
X203993572Y-90519286D01*
X204017381Y-90481190D01*
X204065000Y-90443095D01*
X204255476Y-90443095D01*
X204255476Y-91243095D01*
X204088810Y-91243095D01*
X204041191Y-91205000D01*
X204017381Y-91166905D01*
X203993572Y-91090714D01*
X203993572Y-91014524D01*
X204017381Y-90938333D01*
X204041191Y-90900238D01*
X204088810Y-90862143D01*
X204255476Y-90862143D01*
X203660238Y-91243095D02*
X203565000Y-91243095D01*
X203517381Y-91205000D01*
X203469762Y-91128810D01*
X203445953Y-90976429D01*
X203445953Y-90709762D01*
X203469762Y-90557381D01*
X203517381Y-90481190D01*
X203565000Y-90443095D01*
X203660238Y-90443095D01*
X203707857Y-90481190D01*
X203755476Y-90557381D01*
X203779286Y-90709762D01*
X203779286Y-90976429D01*
X203755476Y-91128810D01*
X203707857Y-91205000D01*
X203660238Y-91243095D01*
X203255476Y-90671667D02*
X203017381Y-90671667D01*
X203303095Y-90443095D02*
X203136428Y-91243095D01*
X202969762Y-90443095D01*
X202517381Y-90443095D02*
X202684048Y-90824048D01*
X202803095Y-90443095D02*
X202803095Y-91243095D01*
X202612619Y-91243095D01*
X202565000Y-91205000D01*
X202541191Y-91166905D01*
X202517381Y-91090714D01*
X202517381Y-90976429D01*
X202541191Y-90900238D01*
X202565000Y-90862143D01*
X202612619Y-90824048D01*
X202803095Y-90824048D01*
X202303095Y-90443095D02*
X202303095Y-91243095D01*
X202184048Y-91243095D01*
X202112619Y-91205000D01*
X202065000Y-91128810D01*
X202041191Y-91052619D01*
X202017381Y-90900238D01*
X202017381Y-90785952D01*
X202041191Y-90633571D01*
X202065000Y-90557381D01*
X202112619Y-90481190D01*
X202184048Y-90443095D01*
X202303095Y-90443095D01*
X201422143Y-90443095D02*
X201422143Y-91243095D01*
X201231667Y-91243095D01*
X201184048Y-91205000D01*
X201160239Y-91166905D01*
X201136429Y-91090714D01*
X201136429Y-90976429D01*
X201160239Y-90900238D01*
X201184048Y-90862143D01*
X201231667Y-90824048D01*
X201422143Y-90824048D01*
X200826905Y-91243095D02*
X200731667Y-91243095D01*
X200684048Y-91205000D01*
X200636429Y-91128810D01*
X200612620Y-90976429D01*
X200612620Y-90709762D01*
X200636429Y-90557381D01*
X200684048Y-90481190D01*
X200731667Y-90443095D01*
X200826905Y-90443095D01*
X200874524Y-90481190D01*
X200922143Y-90557381D01*
X200945953Y-90709762D01*
X200945953Y-90976429D01*
X200922143Y-91128810D01*
X200874524Y-91205000D01*
X200826905Y-91243095D01*
X200445952Y-91243095D02*
X200326905Y-90443095D01*
X200231667Y-91014524D01*
X200136429Y-90443095D01*
X200017381Y-91243095D01*
X199826904Y-90862143D02*
X199660238Y-90862143D01*
X199588809Y-90443095D02*
X199826904Y-90443095D01*
X199826904Y-91243095D01*
X199588809Y-91243095D01*
X199088809Y-90443095D02*
X199255476Y-90824048D01*
X199374523Y-90443095D02*
X199374523Y-91243095D01*
X199184047Y-91243095D01*
X199136428Y-91205000D01*
X199112619Y-91166905D01*
X199088809Y-91090714D01*
X199088809Y-90976429D01*
X199112619Y-90900238D01*
X199136428Y-90862143D01*
X199184047Y-90824048D01*
X199374523Y-90824048D01*
X198850714Y-91052619D02*
X198850714Y-90443095D01*
X198826904Y-91014524D02*
X198826904Y-90481190D01*
X198803095Y-91014524D02*
X198803095Y-90481190D01*
X198779285Y-90976429D02*
X198779285Y-90519286D01*
X198755476Y-90976429D02*
X198755476Y-90519286D01*
X198731666Y-90938333D02*
X198731666Y-90557381D01*
X198707857Y-90938333D02*
X198707857Y-90557381D01*
X198684047Y-90900238D02*
X198684047Y-90595476D01*
X198660238Y-90862143D02*
X198660238Y-90633571D01*
X198636428Y-90862143D02*
X198636428Y-90633571D01*
X198612619Y-90824048D02*
X198612619Y-90671667D01*
X198588809Y-90824048D02*
X198588809Y-90671667D01*
X198565000Y-90747857D02*
X198541190Y-90747857D01*
X198565000Y-90785952D02*
X198565000Y-90709762D01*
X198874523Y-91052619D02*
X198517381Y-90747857D01*
X198874523Y-90443095D01*
X198493571Y-90747857D02*
X198874523Y-90405000D01*
X198874523Y-91090714D01*
X198493571Y-90747857D01*
D12*
X182358857Y-92754495D02*
X182358857Y-93554495D01*
X181977905Y-92754495D02*
X181977905Y-93554495D01*
X181520762Y-92754495D01*
X181520762Y-93554495D01*
X180606476Y-93554495D02*
X180111238Y-93554495D01*
X180377905Y-93249733D01*
X180263619Y-93249733D01*
X180187429Y-93211638D01*
X180149333Y-93173543D01*
X180111238Y-93097352D01*
X180111238Y-92906876D01*
X180149333Y-92830686D01*
X180187429Y-92792590D01*
X180263619Y-92754495D01*
X180492191Y-92754495D01*
X180568381Y-92792590D01*
X180606476Y-92830686D01*
X179768381Y-92830686D02*
X179730286Y-92792590D01*
X179768381Y-92754495D01*
X179806476Y-92792590D01*
X179768381Y-92830686D01*
X179768381Y-92754495D01*
X179463619Y-93554495D02*
X178968381Y-93554495D01*
X179235048Y-93249733D01*
X179120762Y-93249733D01*
X179044572Y-93211638D01*
X179006476Y-93173543D01*
X178968381Y-93097352D01*
X178968381Y-92906876D01*
X179006476Y-92830686D01*
X179044572Y-92792590D01*
X179120762Y-92754495D01*
X179349334Y-92754495D01*
X179425524Y-92792590D01*
X179463619Y-92830686D01*
X178739810Y-93554495D02*
X178473143Y-92754495D01*
X178206476Y-93554495D01*
X176911238Y-93516400D02*
X176987429Y-93554495D01*
X177101714Y-93554495D01*
X177216000Y-93516400D01*
X177292191Y-93440210D01*
X177330286Y-93364019D01*
X177368381Y-93211638D01*
X177368381Y-93097352D01*
X177330286Y-92944971D01*
X177292191Y-92868781D01*
X177216000Y-92792590D01*
X177101714Y-92754495D01*
X177025524Y-92754495D01*
X176911238Y-92792590D01*
X176873143Y-92830686D01*
X176873143Y-93097352D01*
X177025524Y-93097352D01*
X176530286Y-92754495D02*
X176530286Y-93554495D01*
X176073143Y-92754495D01*
X176073143Y-93554495D01*
X175692191Y-92754495D02*
X175692191Y-93554495D01*
X175501715Y-93554495D01*
X175387429Y-93516400D01*
X175311238Y-93440210D01*
X175273143Y-93364019D01*
X175235048Y-93211638D01*
X175235048Y-93097352D01*
X175273143Y-92944971D01*
X175311238Y-92868781D01*
X175387429Y-92792590D01*
X175501715Y-92754495D01*
X175692191Y-92754495D01*
X198424523Y-93745000D02*
X198500714Y-93783095D01*
X198614999Y-93783095D01*
X198729285Y-93745000D01*
X198805476Y-93668810D01*
X198843571Y-93592619D01*
X198881666Y-93440238D01*
X198881666Y-93325952D01*
X198843571Y-93173571D01*
X198805476Y-93097381D01*
X198729285Y-93021190D01*
X198614999Y-92983095D01*
X198538809Y-92983095D01*
X198424523Y-93021190D01*
X198386428Y-93059286D01*
X198386428Y-93325952D01*
X198538809Y-93325952D01*
X198043571Y-92983095D02*
X198043571Y-93783095D01*
X197586428Y-92983095D01*
X197586428Y-93783095D01*
X197205476Y-92983095D02*
X197205476Y-93783095D01*
X197015000Y-93783095D01*
X196900714Y-93745000D01*
X196824523Y-93668810D01*
X196786428Y-93592619D01*
X196748333Y-93440238D01*
X196748333Y-93325952D01*
X196786428Y-93173571D01*
X196824523Y-93097381D01*
X196900714Y-93021190D01*
X197015000Y-92983095D01*
X197205476Y-92983095D01*
X195872142Y-93783095D02*
X195376904Y-93783095D01*
X195643571Y-93478333D01*
X195529285Y-93478333D01*
X195453095Y-93440238D01*
X195414999Y-93402143D01*
X195376904Y-93325952D01*
X195376904Y-93135476D01*
X195414999Y-93059286D01*
X195453095Y-93021190D01*
X195529285Y-92983095D01*
X195757857Y-92983095D01*
X195834047Y-93021190D01*
X195872142Y-93059286D01*
X195034047Y-93059286D02*
X194995952Y-93021190D01*
X195034047Y-92983095D01*
X195072142Y-93021190D01*
X195034047Y-93059286D01*
X195034047Y-92983095D01*
X194729285Y-93783095D02*
X194234047Y-93783095D01*
X194500714Y-93478333D01*
X194386428Y-93478333D01*
X194310238Y-93440238D01*
X194272142Y-93402143D01*
X194234047Y-93325952D01*
X194234047Y-93135476D01*
X194272142Y-93059286D01*
X194310238Y-93021190D01*
X194386428Y-92983095D01*
X194615000Y-92983095D01*
X194691190Y-93021190D01*
X194729285Y-93059286D01*
X194005476Y-93783095D02*
X193738809Y-92983095D01*
X193472142Y-93783095D01*
X157778762Y-137610810D02*
X157893048Y-137648905D01*
X158083524Y-137648905D01*
X158159714Y-137610810D01*
X158197810Y-137572714D01*
X158235905Y-137496524D01*
X158235905Y-137420333D01*
X158197810Y-137344143D01*
X158159714Y-137306048D01*
X158083524Y-137267952D01*
X157931143Y-137229857D01*
X157854952Y-137191762D01*
X157816857Y-137153667D01*
X157778762Y-137077476D01*
X157778762Y-137001286D01*
X157816857Y-136925095D01*
X157854952Y-136887000D01*
X157931143Y-136848905D01*
X158121619Y-136848905D01*
X158235905Y-136887000D01*
X158578762Y-137648905D02*
X158578762Y-136848905D01*
X158883524Y-136848905D01*
X158959715Y-136887000D01*
X158997810Y-136925095D01*
X159035905Y-137001286D01*
X159035905Y-137115571D01*
X158997810Y-137191762D01*
X158959715Y-137229857D01*
X158883524Y-137267952D01*
X158578762Y-137267952D01*
X159378762Y-137229857D02*
X159645429Y-137229857D01*
X159759715Y-137648905D02*
X159378762Y-137648905D01*
X159378762Y-136848905D01*
X159759715Y-136848905D01*
X160064477Y-137420333D02*
X160445429Y-137420333D01*
X159988286Y-137648905D02*
X160254953Y-136848905D01*
X160521620Y-137648905D01*
X160788286Y-137648905D02*
X160788286Y-136848905D01*
X161245429Y-137648905D02*
X160902572Y-137191762D01*
X161245429Y-136848905D02*
X160788286Y-137306048D01*
X161588286Y-137229857D02*
X161854953Y-137229857D01*
X161969239Y-137648905D02*
X161588286Y-137648905D01*
X161588286Y-136848905D01*
X161969239Y-136848905D01*
X162769239Y-137648905D02*
X162502572Y-137267952D01*
X162312096Y-137648905D02*
X162312096Y-136848905D01*
X162616858Y-136848905D01*
X162693049Y-136887000D01*
X162731144Y-136925095D01*
X162769239Y-137001286D01*
X162769239Y-137115571D01*
X162731144Y-137191762D01*
X162693049Y-137229857D01*
X162616858Y-137267952D01*
X162312096Y-137267952D01*
X199310810Y-136358381D02*
X199929858Y-136358381D01*
X199596524Y-136739333D01*
X199739382Y-136739333D01*
X199834620Y-136786952D01*
X199882239Y-136834571D01*
X199929858Y-136929810D01*
X199929858Y-137167905D01*
X199882239Y-137263143D01*
X199834620Y-137310762D01*
X199739382Y-137358381D01*
X199453667Y-137358381D01*
X199358429Y-137310762D01*
X199310810Y-137263143D01*
X200358429Y-137263143D02*
X200406048Y-137310762D01*
X200358429Y-137358381D01*
X200310810Y-137310762D01*
X200358429Y-137263143D01*
X200358429Y-137358381D01*
X200739381Y-136358381D02*
X201358429Y-136358381D01*
X201025095Y-136739333D01*
X201167953Y-136739333D01*
X201263191Y-136786952D01*
X201310810Y-136834571D01*
X201358429Y-136929810D01*
X201358429Y-137167905D01*
X201310810Y-137263143D01*
X201263191Y-137310762D01*
X201167953Y-137358381D01*
X200882238Y-137358381D01*
X200787000Y-137310762D01*
X200739381Y-137263143D01*
X201644143Y-136358381D02*
X201977476Y-137358381D01*
X202310810Y-136358381D01*
D16*
X197485000Y-97790000D02*
X200025000Y-97790000D01*
X197485000Y-100330000D02*
X200025000Y-100330000D01*
X187325000Y-115570000D02*
X189865000Y-115570000D01*
X187325000Y-118110000D02*
X189865000Y-118110000D01*
D14*
X162193000Y-127254000D02*
G75*
G03X162193000Y-127254000I-268000J0D01*
G01*
X144159000Y-112268000D02*
G75*
G03X144159000Y-112268000I-268000J0D01*
G01*
D12*
X171424904Y-125799905D02*
X171882047Y-125799905D01*
X171653476Y-126599905D02*
X171653476Y-125799905D01*
X172529667Y-126599905D02*
X172148714Y-126599905D01*
X172148714Y-125799905D01*
X172796333Y-126599905D02*
X172796333Y-125799905D01*
X173101095Y-125799905D01*
X173177286Y-125838000D01*
X173215381Y-125876095D01*
X173253476Y-125952286D01*
X173253476Y-126066571D01*
X173215381Y-126142762D01*
X173177286Y-126180857D01*
X173101095Y-126218952D01*
X172796333Y-126218952D01*
X173558238Y-125876095D02*
X173596333Y-125838000D01*
X173672524Y-125799905D01*
X173863000Y-125799905D01*
X173939190Y-125838000D01*
X173977286Y-125876095D01*
X174015381Y-125952286D01*
X174015381Y-126028476D01*
X173977286Y-126142762D01*
X173520143Y-126599905D01*
X174015381Y-126599905D01*
X174320143Y-125876095D02*
X174358238Y-125838000D01*
X174434429Y-125799905D01*
X174624905Y-125799905D01*
X174701095Y-125838000D01*
X174739191Y-125876095D01*
X174777286Y-125952286D01*
X174777286Y-126028476D01*
X174739191Y-126142762D01*
X174282048Y-126599905D01*
X174777286Y-126599905D01*
X175082048Y-125876095D02*
X175120143Y-125838000D01*
X175196334Y-125799905D01*
X175386810Y-125799905D01*
X175463000Y-125838000D01*
X175501096Y-125876095D01*
X175539191Y-125952286D01*
X175539191Y-126028476D01*
X175501096Y-126142762D01*
X175043953Y-126599905D01*
X175539191Y-126599905D01*
X175843953Y-126371333D02*
X176224905Y-126371333D01*
X175767762Y-126599905D02*
X176034429Y-125799905D01*
X176301096Y-126599905D01*
D13*
X147055143Y-127577905D02*
X147169429Y-127577905D01*
X147226571Y-127616000D01*
X147283714Y-127692190D01*
X147312286Y-127844571D01*
X147312286Y-128111238D01*
X147283714Y-128263619D01*
X147226571Y-128339810D01*
X147169429Y-128377905D01*
X147055143Y-128377905D01*
X146998000Y-128339810D01*
X146940857Y-128263619D01*
X146912286Y-128111238D01*
X146912286Y-127844571D01*
X146940857Y-127692190D01*
X146998000Y-127616000D01*
X147055143Y-127577905D01*
X147569428Y-128377905D02*
X147569428Y-127577905D01*
X147798000Y-127577905D01*
X147855142Y-127616000D01*
X147883714Y-127654095D01*
X147912285Y-127730286D01*
X147912285Y-127844571D01*
X147883714Y-127920762D01*
X147855142Y-127958857D01*
X147798000Y-127996952D01*
X147569428Y-127996952D01*
X148140857Y-128149333D02*
X148426571Y-128149333D01*
X148083714Y-128377905D02*
X148283714Y-127577905D01*
X148483714Y-128377905D01*
X148683714Y-128377905D02*
X148683714Y-127577905D01*
X148883714Y-128149333D01*
X149083714Y-127577905D01*
X149083714Y-128377905D01*
X149369428Y-128377905D02*
X149369428Y-127577905D01*
X149598000Y-127577905D01*
X149655142Y-127616000D01*
X149683714Y-127654095D01*
X149712285Y-127730286D01*
X149712285Y-127844571D01*
X149683714Y-127920762D01*
X149655142Y-127958857D01*
X149598000Y-127996952D01*
X149369428Y-127996952D01*
X149826571Y-128454095D02*
X150283714Y-128454095D01*
X150426571Y-127958857D02*
X150626571Y-127958857D01*
X150712285Y-128377905D02*
X150426571Y-128377905D01*
X150426571Y-127577905D01*
X150712285Y-127577905D01*
X150912285Y-127577905D02*
X151312285Y-128377905D01*
X151312285Y-127577905D02*
X150912285Y-128377905D01*
D12*
X198501096Y-124087000D02*
X198405858Y-124039381D01*
X198263001Y-124039381D01*
X198120143Y-124087000D01*
X198024905Y-124182238D01*
X197977286Y-124277476D01*
X197929667Y-124467952D01*
X197929667Y-124610810D01*
X197977286Y-124801286D01*
X198024905Y-124896524D01*
X198120143Y-124991762D01*
X198263001Y-125039381D01*
X198358239Y-125039381D01*
X198501096Y-124991762D01*
X198548715Y-124944143D01*
X198548715Y-124610810D01*
X198358239Y-124610810D01*
X198977286Y-125039381D02*
X198977286Y-124039381D01*
X199548715Y-125039381D01*
X199548715Y-124039381D01*
X200024905Y-125039381D02*
X200024905Y-124039381D01*
X200263000Y-124039381D01*
X200405858Y-124087000D01*
X200501096Y-124182238D01*
X200548715Y-124277476D01*
X200596334Y-124467952D01*
X200596334Y-124610810D01*
X200548715Y-124801286D01*
X200501096Y-124896524D01*
X200405858Y-124991762D01*
X200263000Y-125039381D01*
X200024905Y-125039381D01*
X201454095Y-125753762D02*
X201596952Y-125801381D01*
X201835048Y-125801381D01*
X201930286Y-125753762D01*
X201977905Y-125706143D01*
X202025524Y-125610905D01*
X202025524Y-125515667D01*
X201977905Y-125420429D01*
X201930286Y-125372810D01*
X201835048Y-125325190D01*
X201644571Y-125277571D01*
X201549333Y-125229952D01*
X201501714Y-125182333D01*
X201454095Y-125087095D01*
X201454095Y-124991857D01*
X201501714Y-124896619D01*
X201549333Y-124849000D01*
X201644571Y-124801381D01*
X201882667Y-124801381D01*
X202025524Y-124849000D01*
X202454095Y-125277571D02*
X202787429Y-125277571D01*
X202930286Y-125801381D02*
X202454095Y-125801381D01*
X202454095Y-124801381D01*
X202930286Y-124801381D01*
X203358857Y-125801381D02*
X203358857Y-124801381D01*
X203930286Y-125801381D01*
X203930286Y-124801381D01*
X204358857Y-125753762D02*
X204501714Y-125801381D01*
X204739810Y-125801381D01*
X204835048Y-125753762D01*
X204882667Y-125706143D01*
X204930286Y-125610905D01*
X204930286Y-125515667D01*
X204882667Y-125420429D01*
X204835048Y-125372810D01*
X204739810Y-125325190D01*
X204549333Y-125277571D01*
X204454095Y-125229952D01*
X204406476Y-125182333D01*
X204358857Y-125087095D01*
X204358857Y-124991857D01*
X204406476Y-124896619D01*
X204454095Y-124849000D01*
X204549333Y-124801381D01*
X204787429Y-124801381D01*
X204930286Y-124849000D01*
X205549333Y-124801381D02*
X205739810Y-124801381D01*
X205835048Y-124849000D01*
X205930286Y-124944238D01*
X205977905Y-125134714D01*
X205977905Y-125468048D01*
X205930286Y-125658524D01*
X205835048Y-125753762D01*
X205739810Y-125801381D01*
X205549333Y-125801381D01*
X205454095Y-125753762D01*
X205358857Y-125658524D01*
X205311238Y-125468048D01*
X205311238Y-125134714D01*
X205358857Y-124944238D01*
X205454095Y-124849000D01*
X205549333Y-124801381D01*
X206977905Y-125801381D02*
X206644571Y-125325190D01*
X206406476Y-125801381D02*
X206406476Y-124801381D01*
X206787429Y-124801381D01*
X206882667Y-124849000D01*
X206930286Y-124896619D01*
X206977905Y-124991857D01*
X206977905Y-125134714D01*
X206930286Y-125229952D01*
X206882667Y-125277571D01*
X206787429Y-125325190D01*
X206406476Y-125325190D01*
D17*
X168823024Y-116720881D02*
X168823024Y-115720881D01*
X169156358Y-116435167D01*
X169489691Y-115720881D01*
X169489691Y-116720881D01*
X169965881Y-116720881D02*
X169965881Y-116054214D01*
X169965881Y-115720881D02*
X169918262Y-115768500D01*
X169965881Y-115816119D01*
X170013500Y-115768500D01*
X169965881Y-115720881D01*
X169965881Y-115816119D01*
X170442071Y-116054214D02*
X170442071Y-116720881D01*
X170442071Y-116149452D02*
X170489690Y-116101833D01*
X170584928Y-116054214D01*
X170727786Y-116054214D01*
X170823024Y-116101833D01*
X170870643Y-116197071D01*
X170870643Y-116720881D01*
X171346833Y-116720881D02*
X171346833Y-116054214D01*
X171346833Y-115720881D02*
X171299214Y-115768500D01*
X171346833Y-115816119D01*
X171394452Y-115768500D01*
X171346833Y-115720881D01*
X171346833Y-115816119D01*
X171727785Y-115720881D02*
X172346833Y-115720881D01*
X172013499Y-116101833D01*
X172156357Y-116101833D01*
X172251595Y-116149452D01*
X172299214Y-116197071D01*
X172346833Y-116292310D01*
X172346833Y-116530405D01*
X172299214Y-116625643D01*
X172251595Y-116673262D01*
X172156357Y-116720881D01*
X171870642Y-116720881D01*
X171775404Y-116673262D01*
X171727785Y-116625643D01*
X173203976Y-115720881D02*
X173013499Y-115720881D01*
X172918261Y-115768500D01*
X172870642Y-115816119D01*
X172775404Y-115958976D01*
X172727785Y-116149452D01*
X172727785Y-116530405D01*
X172775404Y-116625643D01*
X172823023Y-116673262D01*
X172918261Y-116720881D01*
X173108738Y-116720881D01*
X173203976Y-116673262D01*
X173251595Y-116625643D01*
X173299214Y-116530405D01*
X173299214Y-116292310D01*
X173251595Y-116197071D01*
X173203976Y-116149452D01*
X173108738Y-116101833D01*
X172918261Y-116101833D01*
X172823023Y-116149452D01*
X172775404Y-116197071D01*
X172727785Y-116292310D01*
X173918261Y-115720881D02*
X174013500Y-115720881D01*
X174108738Y-115768500D01*
X174156357Y-115816119D01*
X174203976Y-115911357D01*
X174251595Y-116101833D01*
X174251595Y-116339929D01*
X174203976Y-116530405D01*
X174156357Y-116625643D01*
X174108738Y-116673262D01*
X174013500Y-116720881D01*
X173918261Y-116720881D01*
X173823023Y-116673262D01*
X173775404Y-116625643D01*
X173727785Y-116530405D01*
X173680166Y-116339929D01*
X173680166Y-116101833D01*
X173727785Y-115911357D01*
X173775404Y-115816119D01*
X173823023Y-115768500D01*
X173918261Y-115720881D01*
D13*
X185871429Y-119522143D02*
X185871429Y-120250714D01*
X185900001Y-120336429D01*
X185928572Y-120379286D01*
X185985715Y-120422143D01*
X186100001Y-120422143D01*
X186157143Y-120379286D01*
X186185715Y-120336429D01*
X186214286Y-120250714D01*
X186214286Y-119522143D01*
X186500000Y-120422143D02*
X186500000Y-119522143D01*
X186842857Y-120422143D01*
X186842857Y-119522143D01*
X187128571Y-120422143D02*
X187128571Y-119522143D01*
X187328571Y-119522143D02*
X187528571Y-120422143D01*
X187728571Y-119522143D01*
X187928571Y-119950714D02*
X188128571Y-119950714D01*
X188214285Y-120422143D02*
X187928571Y-120422143D01*
X187928571Y-119522143D01*
X188214285Y-119522143D01*
X188814285Y-120422143D02*
X188614285Y-119993571D01*
X188471428Y-120422143D02*
X188471428Y-119522143D01*
X188700000Y-119522143D01*
X188757142Y-119565000D01*
X188785714Y-119607857D01*
X188814285Y-119693571D01*
X188814285Y-119822143D01*
X188785714Y-119907857D01*
X188757142Y-119950714D01*
X188700000Y-119993571D01*
X188471428Y-119993571D01*
X189042857Y-120379286D02*
X189128571Y-120422143D01*
X189271428Y-120422143D01*
X189328571Y-120379286D01*
X189357142Y-120336429D01*
X189385714Y-120250714D01*
X189385714Y-120165000D01*
X189357142Y-120079286D01*
X189328571Y-120036429D01*
X189271428Y-119993571D01*
X189157142Y-119950714D01*
X189100000Y-119907857D01*
X189071428Y-119865000D01*
X189042857Y-119779286D01*
X189042857Y-119693571D01*
X189071428Y-119607857D01*
X189100000Y-119565000D01*
X189157142Y-119522143D01*
X189300000Y-119522143D01*
X189385714Y-119565000D01*
X189614286Y-120165000D02*
X189900000Y-120165000D01*
X189557143Y-120422143D02*
X189757143Y-119522143D01*
X189957143Y-120422143D01*
X190442857Y-120422143D02*
X190157143Y-120422143D01*
X190157143Y-119522143D01*
D18*
X178283571Y-104096429D02*
X178283571Y-105596429D01*
X177712143Y-105596429D01*
X177569285Y-105525000D01*
X177497857Y-105453571D01*
X177426428Y-105310714D01*
X177426428Y-105096429D01*
X177497857Y-104953571D01*
X177569285Y-104882143D01*
X177712143Y-104810714D01*
X178283571Y-104810714D01*
X175926428Y-104096429D02*
X176426428Y-104810714D01*
X176783571Y-104096429D02*
X176783571Y-105596429D01*
X176212143Y-105596429D01*
X176069285Y-105525000D01*
X175997857Y-105453571D01*
X175926428Y-105310714D01*
X175926428Y-105096429D01*
X175997857Y-104953571D01*
X176069285Y-104882143D01*
X176212143Y-104810714D01*
X176783571Y-104810714D01*
X174997857Y-105596429D02*
X174712143Y-105596429D01*
X174569285Y-105525000D01*
X174426428Y-105382143D01*
X174355000Y-105096429D01*
X174355000Y-104596429D01*
X174426428Y-104310714D01*
X174569285Y-104167857D01*
X174712143Y-104096429D01*
X174997857Y-104096429D01*
X175140714Y-104167857D01*
X175283571Y-104310714D01*
X175355000Y-104596429D01*
X175355000Y-105096429D01*
X175283571Y-105382143D01*
X175140714Y-105525000D01*
X174997857Y-105596429D01*
X172926428Y-105525000D02*
X173069285Y-105596429D01*
X173283571Y-105596429D01*
X173497856Y-105525000D01*
X173640714Y-105382143D01*
X173712142Y-105239286D01*
X173783571Y-104953571D01*
X173783571Y-104739286D01*
X173712142Y-104453571D01*
X173640714Y-104310714D01*
X173497856Y-104167857D01*
X173283571Y-104096429D01*
X173140714Y-104096429D01*
X172926428Y-104167857D01*
X172854999Y-104239286D01*
X172854999Y-104739286D01*
X173140714Y-104739286D01*
X171354999Y-104096429D02*
X171854999Y-104810714D01*
X172212142Y-104096429D02*
X172212142Y-105596429D01*
X171640714Y-105596429D01*
X171497856Y-105525000D01*
X171426428Y-105453571D01*
X171354999Y-105310714D01*
X171354999Y-105096429D01*
X171426428Y-104953571D01*
X171497856Y-104882143D01*
X171640714Y-104810714D01*
X172212142Y-104810714D01*
X170783571Y-104525000D02*
X170069285Y-104525000D01*
X170926428Y-104096429D02*
X170426428Y-105596429D01*
X169926428Y-104096429D01*
X169426428Y-104096429D02*
X169426428Y-105596429D01*
X168926428Y-104525000D01*
X168426428Y-105596429D01*
X168426428Y-104096429D01*
D13*
X191722856Y-119686429D02*
X192094285Y-119686429D01*
X191894285Y-119915000D01*
X191979999Y-119915000D01*
X192037142Y-119943571D01*
X192065713Y-119972143D01*
X192094285Y-120029286D01*
X192094285Y-120172143D01*
X192065713Y-120229286D01*
X192037142Y-120257857D01*
X191979999Y-120286429D01*
X191808571Y-120286429D01*
X191751428Y-120257857D01*
X191722856Y-120229286D01*
X192265714Y-119686429D02*
X192465714Y-120286429D01*
X192665714Y-119686429D01*
X192808571Y-119686429D02*
X193180000Y-119686429D01*
X192980000Y-119915000D01*
X193065714Y-119915000D01*
X193122857Y-119943571D01*
X193151428Y-119972143D01*
X193180000Y-120029286D01*
X193180000Y-120172143D01*
X193151428Y-120229286D01*
X193122857Y-120257857D01*
X193065714Y-120286429D01*
X192894286Y-120286429D01*
X192837143Y-120257857D01*
X192808571Y-120229286D01*
X194208572Y-119715000D02*
X194151429Y-119686429D01*
X194065715Y-119686429D01*
X193980000Y-119715000D01*
X193922858Y-119772143D01*
X193894286Y-119829286D01*
X193865715Y-119943571D01*
X193865715Y-120029286D01*
X193894286Y-120143571D01*
X193922858Y-120200714D01*
X193980000Y-120257857D01*
X194065715Y-120286429D01*
X194122858Y-120286429D01*
X194208572Y-120257857D01*
X194237143Y-120229286D01*
X194237143Y-120029286D01*
X194122858Y-120029286D01*
X194494286Y-120286429D02*
X194494286Y-119686429D01*
X194837143Y-120286429D01*
X194837143Y-119686429D01*
X195122857Y-120286429D02*
X195122857Y-119686429D01*
X195265714Y-119686429D01*
X195351429Y-119715000D01*
X195408571Y-119772143D01*
X195437143Y-119829286D01*
X195465714Y-119943571D01*
X195465714Y-120029286D01*
X195437143Y-120143571D01*
X195408571Y-120200714D01*
X195351429Y-120257857D01*
X195265714Y-120286429D01*
X195122857Y-120286429D01*
D18*
X156527428Y-129647143D02*
X155384571Y-129647143D01*
X155956000Y-130218571D02*
X155956000Y-129075714D01*
D13*
X191648952Y-94240390D02*
X191534666Y-94202295D01*
X191344190Y-94202295D01*
X191268000Y-94240390D01*
X191229904Y-94278486D01*
X191191809Y-94354676D01*
X191191809Y-94430867D01*
X191229904Y-94507057D01*
X191268000Y-94545152D01*
X191344190Y-94583248D01*
X191496571Y-94621343D01*
X191572762Y-94659438D01*
X191610857Y-94697533D01*
X191648952Y-94773724D01*
X191648952Y-94849914D01*
X191610857Y-94926105D01*
X191572762Y-94964200D01*
X191496571Y-95002295D01*
X191306095Y-95002295D01*
X191191809Y-94964200D01*
X190848952Y-94621343D02*
X190582285Y-94621343D01*
X190467999Y-94202295D02*
X190848952Y-94202295D01*
X190848952Y-95002295D01*
X190467999Y-95002295D01*
X189667999Y-94202295D02*
X189934666Y-94583248D01*
X190125142Y-94202295D02*
X190125142Y-95002295D01*
X189820380Y-95002295D01*
X189744189Y-94964200D01*
X189706094Y-94926105D01*
X189667999Y-94849914D01*
X189667999Y-94735629D01*
X189706094Y-94659438D01*
X189744189Y-94621343D01*
X189820380Y-94583248D01*
X190125142Y-94583248D01*
X189439428Y-95002295D02*
X189172761Y-94202295D01*
X188906094Y-95002295D01*
X188487047Y-95002295D02*
X188334666Y-95002295D01*
X188258475Y-94964200D01*
X188182285Y-94888010D01*
X188144190Y-94735629D01*
X188144190Y-94468962D01*
X188182285Y-94316581D01*
X188258475Y-94240390D01*
X188334666Y-94202295D01*
X188487047Y-94202295D01*
X188563237Y-94240390D01*
X188639428Y-94316581D01*
X188677523Y-94468962D01*
X188677523Y-94735629D01*
X188639428Y-94888010D01*
X188563237Y-94964200D01*
X188487047Y-95002295D01*
X187229904Y-95040390D02*
X187915619Y-94011819D01*
X186963238Y-94202295D02*
X186963238Y-95002295D01*
X186772762Y-95002295D01*
X186658476Y-94964200D01*
X186582285Y-94888010D01*
X186544190Y-94811819D01*
X186506095Y-94659438D01*
X186506095Y-94545152D01*
X186544190Y-94392771D01*
X186582285Y-94316581D01*
X186658476Y-94240390D01*
X186772762Y-94202295D01*
X186963238Y-94202295D01*
X186163238Y-94202295D02*
X186163238Y-95002295D01*
X185782286Y-94202295D02*
X185782286Y-95002295D01*
X185325143Y-94202295D01*
X185325143Y-95002295D01*
X191610857Y-92932295D02*
X191610857Y-93732295D01*
X191420381Y-93732295D01*
X191306095Y-93694200D01*
X191229904Y-93618010D01*
X191191809Y-93541819D01*
X191153714Y-93389438D01*
X191153714Y-93275152D01*
X191191809Y-93122771D01*
X191229904Y-93046581D01*
X191306095Y-92970390D01*
X191420381Y-92932295D01*
X191610857Y-92932295D01*
X190468000Y-93465629D02*
X190468000Y-92932295D01*
X190658476Y-93770390D02*
X190848952Y-93198962D01*
X190353714Y-93198962D01*
X189058475Y-93732295D02*
X189439428Y-93732295D01*
X189477523Y-93351343D01*
X189439428Y-93389438D01*
X189363237Y-93427533D01*
X189172761Y-93427533D01*
X189096571Y-93389438D01*
X189058475Y-93351343D01*
X189020380Y-93275152D01*
X189020380Y-93084676D01*
X189058475Y-93008486D01*
X189096571Y-92970390D01*
X189172761Y-92932295D01*
X189363237Y-92932295D01*
X189439428Y-92970390D01*
X189477523Y-93008486D01*
X188791809Y-93732295D02*
X188525142Y-92932295D01*
X188258475Y-93732295D01*
X186963237Y-93694200D02*
X187039428Y-93732295D01*
X187153713Y-93732295D01*
X187267999Y-93694200D01*
X187344190Y-93618010D01*
X187382285Y-93541819D01*
X187420380Y-93389438D01*
X187420380Y-93275152D01*
X187382285Y-93122771D01*
X187344190Y-93046581D01*
X187267999Y-92970390D01*
X187153713Y-92932295D01*
X187077523Y-92932295D01*
X186963237Y-92970390D01*
X186925142Y-93008486D01*
X186925142Y-93275152D01*
X187077523Y-93275152D01*
X186582285Y-92932295D02*
X186582285Y-93732295D01*
X186125142Y-92932295D01*
X186125142Y-93732295D01*
X185744190Y-92932295D02*
X185744190Y-93732295D01*
X185553714Y-93732295D01*
X185439428Y-93694200D01*
X185363237Y-93618010D01*
X185325142Y-93541819D01*
X185287047Y-93389438D01*
X185287047Y-93275152D01*
X185325142Y-93122771D01*
X185363237Y-93046581D01*
X185439428Y-92970390D01*
X185553714Y-92932295D01*
X185744190Y-92932295D01*
D11*
X152295000Y-91188333D02*
X152080714Y-90488333D01*
X151909285Y-90988333D01*
X151737857Y-90488333D01*
X151523571Y-91188333D01*
X150666429Y-90488333D02*
X150966429Y-90821667D01*
X151180714Y-90488333D02*
X151180714Y-91188333D01*
X150837857Y-91188333D01*
X150752143Y-91155000D01*
X150709286Y-91121667D01*
X150666429Y-91055000D01*
X150666429Y-90955000D01*
X150709286Y-90888333D01*
X150752143Y-90855000D01*
X150837857Y-90821667D01*
X151180714Y-90821667D01*
X150280714Y-90488333D02*
X150280714Y-91188333D01*
X149980715Y-91188333D02*
X149466429Y-91188333D01*
X149723572Y-90488333D02*
X149723572Y-91188333D01*
X149166429Y-90855000D02*
X148866429Y-90855000D01*
X148737858Y-90488333D02*
X149166429Y-90488333D01*
X149166429Y-91188333D01*
X148737858Y-91188333D01*
X156239286Y-90488333D02*
X156539286Y-90821667D01*
X156753571Y-90488333D02*
X156753571Y-91188333D01*
X156410714Y-91188333D01*
X156325000Y-91155000D01*
X156282143Y-91121667D01*
X156239286Y-91055000D01*
X156239286Y-90955000D01*
X156282143Y-90888333D01*
X156325000Y-90855000D01*
X156410714Y-90821667D01*
X156753571Y-90821667D01*
X155853571Y-91188333D02*
X155853571Y-90621667D01*
X155810714Y-90555000D01*
X155767857Y-90521667D01*
X155682143Y-90488333D01*
X155510714Y-90488333D01*
X155425000Y-90521667D01*
X155382143Y-90555000D01*
X155339286Y-90621667D01*
X155339286Y-91188333D01*
X154910714Y-90488333D02*
X154910714Y-91188333D01*
X154396429Y-90488333D01*
X154396429Y-91188333D01*
D19*
X163192667Y-97536666D02*
X163892667Y-97369999D01*
X163392667Y-97236666D01*
X163892667Y-97103333D01*
X163192667Y-96936666D01*
X163192667Y-96669999D02*
X163759333Y-96669999D01*
X163826000Y-96636666D01*
X163859333Y-96603333D01*
X163892667Y-96536666D01*
X163892667Y-96403333D01*
X163859333Y-96336666D01*
X163826000Y-96303333D01*
X163759333Y-96269999D01*
X163192667Y-96269999D01*
X163892667Y-95936666D02*
X163192667Y-95936666D01*
X163192667Y-95670000D01*
X163226000Y-95603333D01*
X163259333Y-95570000D01*
X163326000Y-95536666D01*
X163426000Y-95536666D01*
X163492667Y-95570000D01*
X163526000Y-95603333D01*
X163559333Y-95670000D01*
X163559333Y-95936666D01*
D16*
X197485000Y-118110000D02*
X200025000Y-118110000D01*
X187325000Y-113030000D02*
X189865000Y-113030000D01*
X197485000Y-115570000D02*
X200025000Y-115570000D01*
X187325000Y-110490000D02*
X189865000Y-110490000D01*
X187325000Y-107950000D02*
X189865000Y-107950000D01*
X197485000Y-113030000D02*
X200025000Y-113030000D01*
X197485000Y-110490000D02*
X200025000Y-110490000D01*
X197485000Y-107950000D02*
X200025000Y-107950000D01*
X187325000Y-105410000D02*
X189865000Y-105410000D01*
X187325000Y-102870000D02*
X189865000Y-102870000D01*
X187325000Y-100330000D02*
X189865000Y-100330000D01*
X197485000Y-105410000D02*
X200025000Y-105410000D01*
X187325000Y-97790000D02*
X189865000Y-97790000D01*
X197485000Y-102870000D02*
X200025000Y-102870000D01*
X194791000Y-97663000D02*
X194791000Y-118000000D01*
X192405000Y-97663000D02*
X192405000Y-118000000D01*
D13*
X196901190Y-119477143D02*
X197167857Y-119477143D01*
X197282143Y-119791429D02*
X196901190Y-119791429D01*
X196901190Y-119191429D01*
X197282143Y-119191429D01*
X197548810Y-119191429D02*
X198082143Y-119791429D01*
X198082143Y-119191429D02*
X197548810Y-119791429D01*
X198272619Y-119191429D02*
X198729762Y-119191429D01*
X198501191Y-119791429D02*
X198501191Y-119191429D01*
X198996429Y-119791429D02*
X198996429Y-119191429D01*
X199529762Y-119191429D02*
X199682143Y-119191429D01*
X199758334Y-119220000D01*
X199834524Y-119277143D01*
X199872619Y-119391429D01*
X199872619Y-119591429D01*
X199834524Y-119705714D01*
X199758334Y-119762857D01*
X199682143Y-119791429D01*
X199529762Y-119791429D01*
X199453572Y-119762857D01*
X199377381Y-119705714D01*
X199339286Y-119591429D01*
X199339286Y-119391429D01*
X199377381Y-119277143D01*
X199453572Y-119220000D01*
X199529762Y-119191429D01*
X197282142Y-120781429D02*
X196824999Y-120781429D01*
X197053570Y-120781429D02*
X197053570Y-120181429D01*
X196977380Y-120267143D01*
X196901189Y-120324286D01*
X196824999Y-120352857D01*
X199415476Y-120238571D02*
X199453571Y-120210000D01*
X199529762Y-120181429D01*
X199720238Y-120181429D01*
X199796428Y-120210000D01*
X199834524Y-120238571D01*
X199872619Y-120295714D01*
X199872619Y-120352857D01*
X199834524Y-120438571D01*
X199377381Y-120781429D01*
X199872619Y-120781429D01*
X203816667Y-118261906D02*
X203816667Y-118738097D01*
X203116667Y-118738097D01*
X203416667Y-117785716D02*
X203383333Y-117880954D01*
X203350000Y-117928573D01*
X203283333Y-117976192D01*
X203250000Y-117976192D01*
X203183333Y-117928573D01*
X203150000Y-117880954D01*
X203116667Y-117785716D01*
X203116667Y-117595239D01*
X203150000Y-117500001D01*
X203183333Y-117452382D01*
X203250000Y-117404763D01*
X203283333Y-117404763D01*
X203350000Y-117452382D01*
X203383333Y-117500001D01*
X203416667Y-117595239D01*
X203416667Y-117785716D01*
X203450000Y-117880954D01*
X203483333Y-117928573D01*
X203550000Y-117976192D01*
X203683333Y-117976192D01*
X203750000Y-117928573D01*
X203783333Y-117880954D01*
X203816667Y-117785716D01*
X203816667Y-117595239D01*
X203783333Y-117500001D01*
X203750000Y-117452382D01*
X203683333Y-117404763D01*
X203550000Y-117404763D01*
X203483333Y-117452382D01*
X203450000Y-117500001D01*
X203416667Y-117595239D01*
X203816667Y-115738096D02*
X203816667Y-116214287D01*
X203116667Y-116214287D01*
X203116667Y-115500001D02*
X203116667Y-114833334D01*
X203816667Y-115261906D01*
X203816667Y-113214286D02*
X203816667Y-113690477D01*
X203116667Y-113690477D01*
X203116667Y-112452381D02*
X203116667Y-112642858D01*
X203150000Y-112738096D01*
X203183333Y-112785715D01*
X203283333Y-112880953D01*
X203416667Y-112928572D01*
X203683333Y-112928572D01*
X203750000Y-112880953D01*
X203783333Y-112833334D01*
X203816667Y-112738096D01*
X203816667Y-112547619D01*
X203783333Y-112452381D01*
X203750000Y-112404762D01*
X203683333Y-112357143D01*
X203516667Y-112357143D01*
X203450000Y-112404762D01*
X203416667Y-112452381D01*
X203383333Y-112547619D01*
X203383333Y-112738096D01*
X203416667Y-112833334D01*
X203450000Y-112880953D01*
X203516667Y-112928572D01*
X203816667Y-110690476D02*
X203816667Y-111166667D01*
X203116667Y-111166667D01*
X203116667Y-109880952D02*
X203116667Y-110357143D01*
X203450000Y-110404762D01*
X203416667Y-110357143D01*
X203383333Y-110261905D01*
X203383333Y-110023809D01*
X203416667Y-109928571D01*
X203450000Y-109880952D01*
X203516667Y-109833333D01*
X203683333Y-109833333D01*
X203750000Y-109880952D01*
X203783333Y-109928571D01*
X203816667Y-110023809D01*
X203816667Y-110261905D01*
X203783333Y-110357143D01*
X203750000Y-110404762D01*
X203816667Y-108166666D02*
X203816667Y-108642857D01*
X203116667Y-108642857D01*
X203350000Y-107404761D02*
X203816667Y-107404761D01*
X203083333Y-107642857D02*
X203583333Y-107880952D01*
X203583333Y-107261904D01*
X203816667Y-105642856D02*
X203816667Y-106119047D01*
X203116667Y-106119047D01*
X203116667Y-105404761D02*
X203116667Y-104785713D01*
X203383333Y-105119047D01*
X203383333Y-104976189D01*
X203416667Y-104880951D01*
X203450000Y-104833332D01*
X203516667Y-104785713D01*
X203683333Y-104785713D01*
X203750000Y-104833332D01*
X203783333Y-104880951D01*
X203816667Y-104976189D01*
X203816667Y-105261904D01*
X203783333Y-105357142D01*
X203750000Y-105404761D01*
X203816667Y-103119046D02*
X203816667Y-103595237D01*
X203116667Y-103595237D01*
X203183333Y-102833332D02*
X203150000Y-102785713D01*
X203116667Y-102690475D01*
X203116667Y-102452379D01*
X203150000Y-102357141D01*
X203183333Y-102309522D01*
X203250000Y-102261903D01*
X203316667Y-102261903D01*
X203416667Y-102309522D01*
X203816667Y-102880951D01*
X203816667Y-102261903D01*
X203816667Y-100595236D02*
X203816667Y-101071427D01*
X203116667Y-101071427D01*
X203816667Y-99738093D02*
X203816667Y-100309522D01*
X203816667Y-100023808D02*
X203116667Y-100023808D01*
X203216667Y-100119046D01*
X203283333Y-100214284D01*
X203316667Y-100309522D01*
X203816667Y-98071426D02*
X203816667Y-98547617D01*
X203116667Y-98547617D01*
X203116667Y-97547617D02*
X203116667Y-97452378D01*
X203150000Y-97357140D01*
X203183333Y-97309521D01*
X203250000Y-97261902D01*
X203383333Y-97214283D01*
X203550000Y-97214283D01*
X203683333Y-97261902D01*
X203750000Y-97309521D01*
X203783333Y-97357140D01*
X203816667Y-97452378D01*
X203816667Y-97547617D01*
X203783333Y-97642855D01*
X203750000Y-97690474D01*
X203683333Y-97738093D01*
X203550000Y-97785712D01*
X203383333Y-97785712D01*
X203250000Y-97738093D01*
X203183333Y-97690474D01*
X203150000Y-97642855D01*
X203116667Y-97547617D01*
X179422617Y-101293571D02*
X178896903Y-101293571D01*
X179159760Y-100693571D02*
X179159760Y-101293571D01*
X178677855Y-101293571D02*
X178064522Y-100693571D01*
X178064522Y-101293571D02*
X178677855Y-100693571D01*
X176487380Y-100693571D02*
X176794047Y-100979286D01*
X177013094Y-100693571D02*
X177013094Y-101293571D01*
X176662618Y-101293571D01*
X176574999Y-101265000D01*
X176531190Y-101236429D01*
X176487380Y-101179286D01*
X176487380Y-101093571D01*
X176531190Y-101036429D01*
X176574999Y-101007857D01*
X176662618Y-100979286D01*
X177013094Y-100979286D01*
X176180713Y-101293571D02*
X175567380Y-100693571D01*
X175567380Y-101293571D02*
X176180713Y-100693571D01*
X174077857Y-101293571D02*
X174515952Y-101293571D01*
X174559762Y-101007857D01*
X174515952Y-101036429D01*
X174428333Y-101065000D01*
X174209286Y-101065000D01*
X174121667Y-101036429D01*
X174077857Y-101007857D01*
X174034048Y-100950714D01*
X174034048Y-100807857D01*
X174077857Y-100750714D01*
X174121667Y-100722143D01*
X174209286Y-100693571D01*
X174428333Y-100693571D01*
X174515952Y-100722143D01*
X174559762Y-100750714D01*
X173771191Y-101293571D02*
X173464524Y-100693571D01*
X173157858Y-101293571D01*
X172237858Y-101293571D02*
X171668335Y-101293571D01*
X171975001Y-101065000D01*
X171843573Y-101065000D01*
X171755954Y-101036429D01*
X171712144Y-101007857D01*
X171668335Y-100950714D01*
X171668335Y-100807857D01*
X171712144Y-100750714D01*
X171755954Y-100722143D01*
X171843573Y-100693571D01*
X172106430Y-100693571D01*
X172194049Y-100722143D01*
X172237858Y-100750714D01*
X171405478Y-101293571D02*
X171098811Y-100693571D01*
X170792145Y-101293571D01*
X169302622Y-101265000D02*
X169390241Y-101293571D01*
X169521669Y-101293571D01*
X169653098Y-101265000D01*
X169740717Y-101207857D01*
X169784526Y-101150714D01*
X169828336Y-101036429D01*
X169828336Y-100950714D01*
X169784526Y-100836429D01*
X169740717Y-100779286D01*
X169653098Y-100722143D01*
X169521669Y-100693571D01*
X169434050Y-100693571D01*
X169302622Y-100722143D01*
X169258812Y-100750714D01*
X169258812Y-100950714D01*
X169434050Y-100950714D01*
X168864526Y-100693571D02*
X168864526Y-101293571D01*
X168338812Y-100693571D01*
X168338812Y-101293571D01*
X167900716Y-100693571D02*
X167900716Y-101293571D01*
X167681669Y-101293571D01*
X167550240Y-101265000D01*
X167462621Y-101207857D01*
X167418812Y-101150714D01*
X167375002Y-101036429D01*
X167375002Y-100950714D01*
X167418812Y-100836429D01*
X167462621Y-100779286D01*
X167550240Y-100722143D01*
X167681669Y-100693571D01*
X167900716Y-100693571D01*
D11*
X165653334Y-105091667D02*
X165653334Y-104558333D01*
X165620000Y-105058333D02*
X165620000Y-104591667D01*
X165586667Y-105058333D02*
X165586667Y-104591667D01*
X165553334Y-105025000D02*
X165553334Y-104625000D01*
X165520000Y-105025000D02*
X165520000Y-104625000D01*
X165486667Y-104991667D02*
X165486667Y-104658333D01*
X165453334Y-104991667D02*
X165453334Y-104658333D01*
X165420000Y-104958333D02*
X165420000Y-104691667D01*
X165386667Y-104925000D02*
X165386667Y-104725000D01*
X165353334Y-104925000D02*
X165353334Y-104725000D01*
X165320000Y-104891667D02*
X165320000Y-104758333D01*
X165286667Y-104891667D02*
X165286667Y-104758333D01*
X165253334Y-104825000D02*
X165220000Y-104825000D01*
X165253334Y-104858333D02*
X165253334Y-104791667D01*
X165686667Y-105091667D02*
X165186667Y-104825000D01*
X165686667Y-104558333D01*
X165153334Y-104825000D02*
X165686667Y-104525000D01*
X165686667Y-105125000D01*
X165153334Y-104825000D01*
X166420001Y-105091667D02*
X166186667Y-104758333D01*
X166020001Y-105091667D02*
X166020001Y-104391667D01*
X166286667Y-104391667D01*
X166353334Y-104425000D01*
X166386667Y-104458333D01*
X166420001Y-104525000D01*
X166420001Y-104625000D01*
X166386667Y-104691667D01*
X166353334Y-104725000D01*
X166286667Y-104758333D01*
X166020001Y-104758333D01*
X166686667Y-105058333D02*
X166786667Y-105091667D01*
X166953334Y-105091667D01*
X167020001Y-105058333D01*
X167053334Y-105025000D01*
X167086667Y-104958333D01*
X167086667Y-104891667D01*
X167053334Y-104825000D01*
X167020001Y-104791667D01*
X166953334Y-104758333D01*
X166820001Y-104725000D01*
X166753334Y-104691667D01*
X166720001Y-104658333D01*
X166686667Y-104591667D01*
X166686667Y-104525000D01*
X166720001Y-104458333D01*
X166753334Y-104425000D01*
X166820001Y-104391667D01*
X166986667Y-104391667D01*
X167086667Y-104425000D01*
X167286668Y-104391667D02*
X167686668Y-104391667D01*
X167486668Y-105091667D02*
X167486668Y-104391667D01*
X158620667Y-97103333D02*
X159120667Y-97103333D01*
X159220667Y-97136667D01*
X159287333Y-97203333D01*
X159320667Y-97303333D01*
X159320667Y-97370000D01*
X159320667Y-96770000D02*
X158620667Y-96770000D01*
X158620667Y-96503334D01*
X158654000Y-96436667D01*
X158687333Y-96403334D01*
X158754000Y-96370000D01*
X158854000Y-96370000D01*
X158920667Y-96403334D01*
X158954000Y-96436667D01*
X158987333Y-96503334D01*
X158987333Y-96770000D01*
X158687333Y-96103334D02*
X158654000Y-96070000D01*
X158620667Y-96003334D01*
X158620667Y-95836667D01*
X158654000Y-95770000D01*
X158687333Y-95736667D01*
X158754000Y-95703334D01*
X158820667Y-95703334D01*
X158920667Y-95736667D01*
X159320667Y-96136667D01*
X159320667Y-95703334D01*
D13*
X173434500Y-114696500D02*
X173434500Y-110696500D01*
X173434500Y-110696500D02*
X168434500Y-110696500D01*
X168434500Y-110696500D02*
X168434500Y-114696500D01*
X168434500Y-114696500D02*
X173434500Y-114696500D01*
X179848714Y-107696500D02*
G75*
G03X179848714Y-107696500I-1414214J0D01*
G01*
X181434500Y-116696500D02*
X181434500Y-109696500D01*
X181434500Y-109696500D02*
X174434500Y-109696500D01*
X174434500Y-109696500D02*
X174434500Y-116696500D01*
X174434500Y-116696500D02*
X181434500Y-116696500D01*
X181434500Y-116696500D02*
X181434500Y-110696500D01*
X175434500Y-116696500D02*
X181434500Y-116696500D01*
X183184500Y-117446500D02*
X165684500Y-117446500D01*
X165684500Y-117446500D02*
X165684500Y-105946500D01*
X165684500Y-105946500D02*
X183184500Y-105946500D01*
X183184500Y-105946500D02*
X183184500Y-117446500D01*
X136660000Y-114410000D02*
X136660000Y-96410000D01*
X136660000Y-96410000D02*
X138060000Y-96410000D01*
X142460000Y-96410000D02*
X138060000Y-96410000D01*
X136860000Y-114410000D02*
X136660000Y-114410000D01*
X142560000Y-114410000D02*
X142560000Y-96410000D01*
X142860000Y-114410000D02*
X136860000Y-114410000D01*
X142860000Y-114410000D02*
X142460000Y-114410000D01*
X142460000Y-96410000D02*
X142860000Y-96410000D01*
X156860000Y-114410000D02*
X156860000Y-96410000D01*
X156860000Y-114410000D02*
X142860000Y-114410000D01*
X142860000Y-96410000D02*
X156860000Y-96410000D01*
X166164000Y-133080000D02*
X166164000Y-129580000D01*
X166164000Y-129580000D02*
X179164000Y-129580000D01*
X179164000Y-129580000D02*
X179164000Y-136580000D01*
X179164000Y-136580000D02*
X166164000Y-136580000D01*
X166164000Y-136580000D02*
X166164000Y-133080000D01*
X174200820Y-118239540D02*
X173799500Y-117840760D01*
X181797960Y-118239540D02*
X181797960Y-117739160D01*
X181797960Y-115440460D02*
X181797960Y-115940840D01*
X181797960Y-117139720D02*
X181797960Y-116639340D01*
X173799500Y-117139720D02*
X173799500Y-116639340D01*
X173799500Y-115440460D02*
X173799500Y-115940840D01*
X173799500Y-118239540D02*
X173799500Y-117739160D01*
X180799740Y-115440460D02*
X180101240Y-115440460D01*
X174800260Y-115440460D02*
X175498760Y-115440460D01*
X176098200Y-115440460D02*
X176796700Y-115440460D01*
X177398680Y-115440460D02*
X178097180Y-115440460D01*
X178699160Y-115440460D02*
X179397660Y-115440460D01*
X178699160Y-118239540D02*
X179397660Y-118239540D01*
X177398680Y-118239540D02*
X178097180Y-118239540D01*
X176098200Y-118239540D02*
X176796700Y-118239540D01*
X174800260Y-118239540D02*
X175498760Y-118239540D01*
X180799740Y-118239540D02*
X180101240Y-118239540D01*
X181800500Y-118239540D02*
X181399180Y-118239540D01*
X181800500Y-115440460D02*
X181399180Y-115440460D01*
X173799500Y-118239540D02*
X174200820Y-118239540D01*
X173799500Y-115440460D02*
X174200820Y-115440460D01*
X178370000Y-112005000D02*
X176370000Y-112005000D01*
X176370000Y-114055000D02*
X178370000Y-114055000D01*
X178109000Y-122708000D02*
X178109000Y-129006000D01*
X178249000Y-122714000D02*
X178249000Y-129000000D01*
X178389000Y-122727000D02*
X178389000Y-125411000D01*
X178389000Y-126303000D02*
X178389000Y-128987000D01*
X178529000Y-122746000D02*
X178529000Y-125201000D01*
X178529000Y-126513000D02*
X178529000Y-128968000D01*
X178669000Y-122772000D02*
X178669000Y-125068000D01*
X178669000Y-126646000D02*
X178669000Y-128942000D01*
X178809000Y-122804000D02*
X178809000Y-124977000D01*
X178809000Y-126737000D02*
X178809000Y-128910000D01*
X178949000Y-122843000D02*
X178949000Y-124915000D01*
X178949000Y-126799000D02*
X178949000Y-128871000D01*
X179089000Y-122889000D02*
X179089000Y-124876000D01*
X179089000Y-126838000D02*
X179089000Y-128825000D01*
X179229000Y-122942000D02*
X179229000Y-124859000D01*
X179229000Y-126855000D02*
X179229000Y-128772000D01*
X179369000Y-123004000D02*
X179369000Y-124861000D01*
X179369000Y-126853000D02*
X179369000Y-128710000D01*
X179509000Y-123074000D02*
X179509000Y-124883000D01*
X179509000Y-126831000D02*
X179509000Y-128640000D01*
X179649000Y-123153000D02*
X179649000Y-124926000D01*
X179649000Y-126788000D02*
X179649000Y-128561000D01*
X179789000Y-123241000D02*
X179789000Y-124994000D01*
X179789000Y-126720000D02*
X179789000Y-128473000D01*
X179929000Y-123341000D02*
X179929000Y-125093000D01*
X179929000Y-126621000D02*
X179929000Y-128373000D01*
X180069000Y-123453000D02*
X180069000Y-125238000D01*
X180069000Y-126476000D02*
X180069000Y-128261000D01*
X180209000Y-123578000D02*
X180209000Y-125477000D01*
X180209000Y-126237000D02*
X180209000Y-128136000D01*
X180349000Y-123721000D02*
X180349000Y-127993000D01*
X180489000Y-123883000D02*
X180489000Y-127831000D01*
X180629000Y-124071000D02*
X180629000Y-127643000D01*
X180769000Y-124294000D02*
X180769000Y-127420000D01*
X180909000Y-124570000D02*
X180909000Y-127144000D01*
X181049000Y-124945000D02*
X181049000Y-126769000D01*
X180284000Y-125857000D02*
G75*
G03X180284000Y-125857000I-1000000J0D01*
G01*
X181221500Y-125857000D02*
G75*
G03X181221500Y-125857000I-3187500J0D01*
G01*
X181220000Y-129405000D02*
X182490000Y-129405000D01*
X181220000Y-122055000D02*
X182490000Y-122055000D01*
X193430000Y-122055000D02*
X192160000Y-122055000D01*
X193430000Y-129405000D02*
X192160000Y-129405000D01*
X181220000Y-129405000D02*
X181220000Y-122055000D01*
X193430000Y-129405000D02*
X193430000Y-122055000D01*
X182490000Y-129405000D02*
X182490000Y-130340000D01*
X169938700Y-118770400D02*
X169938700Y-119471440D01*
X169938700Y-119471440D02*
X169138600Y-119471440D01*
X173741080Y-118770400D02*
X169138600Y-118770400D01*
X169138600Y-118770400D02*
X169138600Y-122372120D01*
X169138600Y-122372120D02*
X173741080Y-122372120D01*
X173741080Y-122372120D02*
X173741080Y-118770400D01*
X170220000Y-96985000D02*
X170220000Y-97435000D01*
X175670000Y-95885000D02*
G75*
G03X175670000Y-95885000I-2950000J0D01*
G01*
X170220000Y-94785000D02*
X170220000Y-94335000D01*
X178020000Y-93845000D02*
X180120000Y-93845000D01*
X178020000Y-99195000D02*
X180120000Y-99195000D01*
X161147760Y-123825000D02*
G75*
G03X161147760Y-123825000I-1000760J0D01*
G01*
X166347140Y-123825000D02*
G75*
G03X166347140Y-123825000I-6200140J0D01*
G01*
X139065000Y-129500000D02*
X136565000Y-129500000D01*
X136565000Y-129500000D02*
X136565000Y-124500000D01*
X136565000Y-124500000D02*
X139065000Y-124500000D01*
X139065000Y-124500000D02*
X139065000Y-123500000D01*
X139065000Y-123500000D02*
X153565000Y-123500000D01*
X153565000Y-123500000D02*
X153565000Y-130500000D01*
X153565000Y-130500000D02*
X139065000Y-130500000D01*
X139065000Y-130500000D02*
X139065000Y-129500000D01*
X178720000Y-150510000D02*
X178720000Y-138760000D01*
X166720000Y-138760000D02*
X166720000Y-150510000D01*
X166720000Y-138760000D02*
X178720000Y-138760000D01*
X166720000Y-141860000D02*
X178720000Y-141860000D01*
X178720000Y-150510000D02*
X166720000Y-150510000D01*
X144526000Y-121158000D02*
X141986000Y-121158000D01*
X145945903Y-121158000D02*
G75*
G03X145945903Y-121158000I-1419903J0D01*
G01*
X149860000Y-121158000D02*
X147320000Y-121158000D01*
X151279903Y-121158000D02*
G75*
G03X151279903Y-121158000I-1419903J0D01*
G01*
X183388000Y-134874000D02*
X183388000Y-132334000D01*
X184807903Y-134874000D02*
G75*
G03X184807903Y-134874000I-1419903J0D01*
G01*
X185928000Y-134874000D02*
X185928000Y-132334000D01*
X187347903Y-134874000D02*
G75*
G03X187347903Y-134874000I-1419903J0D01*
G01*
X188468000Y-135001000D02*
X188468000Y-132461000D01*
X189887903Y-135001000D02*
G75*
G03X189887903Y-135001000I-1419903J0D01*
G01*
X191008000Y-135001000D02*
X191008000Y-132461000D01*
X192427903Y-135001000D02*
G75*
G03X192427903Y-135001000I-1419903J0D01*
G01*
X196215000Y-121920000D02*
X198755000Y-121920000D01*
X197634903Y-121920000D02*
G75*
G03X197634903Y-121920000I-1419903J0D01*
G01*
X161147760Y-126365000D02*
G75*
G03X161147760Y-126365000I-1000760J0D01*
G01*
X166347140Y-126365000D02*
G75*
G03X166347140Y-126365000I-6200140J0D01*
G01*
X163830000Y-104775000D02*
G75*
G03X163830000Y-104775000I-2540000J0D01*
G01*
X165100000Y-100965000D02*
X165100000Y-108585000D01*
X165100000Y-108585000D02*
X157480000Y-108585000D01*
X157480000Y-108585000D02*
X157480000Y-100965000D01*
X165100000Y-100965000D02*
X157480000Y-100965000D01*
X145829000Y-117339000D02*
X143829000Y-117339000D01*
X143829000Y-119389000D02*
X145829000Y-119389000D01*
X151290000Y-117339000D02*
X149290000Y-117339000D01*
X149290000Y-119389000D02*
X151290000Y-119389000D01*
X161299000Y-126144000D02*
X161299000Y-124144000D01*
X159249000Y-124144000D02*
X159249000Y-126144000D01*
X144443000Y-133116000D02*
X147443000Y-133116000D01*
X147443000Y-135616000D02*
X144443000Y-135616000D01*
X153321000Y-137515000D02*
X153321000Y-131217000D01*
X153181000Y-137509000D02*
X153181000Y-131223000D01*
X153041000Y-137496000D02*
X153041000Y-134812000D01*
X153041000Y-133920000D02*
X153041000Y-131236000D01*
X152901000Y-137477000D02*
X152901000Y-135022000D01*
X152901000Y-133710000D02*
X152901000Y-131255000D01*
X152761000Y-137451000D02*
X152761000Y-135155000D01*
X152761000Y-133577000D02*
X152761000Y-131281000D01*
X152621000Y-137419000D02*
X152621000Y-135246000D01*
X152621000Y-133486000D02*
X152621000Y-131313000D01*
X152481000Y-137380000D02*
X152481000Y-135308000D01*
X152481000Y-133424000D02*
X152481000Y-131352000D01*
X152341000Y-137334000D02*
X152341000Y-135347000D01*
X152341000Y-133385000D02*
X152341000Y-131398000D01*
X152201000Y-137281000D02*
X152201000Y-135364000D01*
X152201000Y-133368000D02*
X152201000Y-131451000D01*
X152061000Y-137219000D02*
X152061000Y-135362000D01*
X152061000Y-133370000D02*
X152061000Y-131513000D01*
X151921000Y-137149000D02*
X151921000Y-135340000D01*
X151921000Y-133392000D02*
X151921000Y-131583000D01*
X151781000Y-137070000D02*
X151781000Y-135297000D01*
X151781000Y-133435000D02*
X151781000Y-131662000D01*
X151641000Y-136982000D02*
X151641000Y-135229000D01*
X151641000Y-133503000D02*
X151641000Y-131750000D01*
X151501000Y-136882000D02*
X151501000Y-135130000D01*
X151501000Y-133602000D02*
X151501000Y-131850000D01*
X151361000Y-136770000D02*
X151361000Y-134985000D01*
X151361000Y-133747000D02*
X151361000Y-131962000D01*
X151221000Y-136645000D02*
X151221000Y-134746000D01*
X151221000Y-133986000D02*
X151221000Y-132087000D01*
X151081000Y-136502000D02*
X151081000Y-132230000D01*
X150941000Y-136340000D02*
X150941000Y-132392000D01*
X150801000Y-136152000D02*
X150801000Y-132580000D01*
X150661000Y-135929000D02*
X150661000Y-132803000D01*
X150521000Y-135653000D02*
X150521000Y-133079000D01*
X150381000Y-135278000D02*
X150381000Y-133454000D01*
X153146000Y-134366000D02*
G75*
G03X153146000Y-134366000I-1000000J0D01*
G01*
X156583500Y-134366000D02*
G75*
G03X156583500Y-134366000I-3187500J0D01*
G01*
X181860000Y-121900000D02*
X178860000Y-121900000D01*
X178860000Y-119400000D02*
X181860000Y-119400000D01*
X163965000Y-112615000D02*
X163965000Y-114715000D01*
X158615000Y-112615000D02*
X158615000Y-114715000D01*
X160274000Y-135890000D02*
X157734000Y-135890000D01*
X163094000Y-136170000D02*
X161544000Y-136170000D01*
X160274000Y-135890000D02*
X160274000Y-133350000D01*
X161544000Y-133070000D02*
X163094000Y-133070000D01*
X163094000Y-133070000D02*
X163094000Y-136170000D01*
X160274000Y-133350000D02*
X157734000Y-133350000D01*
X157734000Y-133350000D02*
X157734000Y-135890000D01*
X203745000Y-122995000D02*
X201745000Y-122995000D01*
X201745000Y-120845000D02*
X203745000Y-120845000D01*
X163830000Y-95250000D02*
G75*
G03X163830000Y-95250000I-2540000J0D01*
G01*
X157480000Y-99060000D02*
X157480000Y-91440000D01*
X157480000Y-91440000D02*
X165100000Y-91440000D01*
X165100000Y-91440000D02*
X165100000Y-99060000D01*
X157480000Y-99060000D02*
X165100000Y-99060000D01*
X168520000Y-110696500D02*
X168520000Y-112696500D01*
X170570000Y-112696500D02*
X170570000Y-110696500D01*
X178390188Y-106729868D02*
X178390188Y-108729868D01*
X180440188Y-108729868D02*
X180440188Y-106729868D01*
X170592500Y-122835000D02*
X170592500Y-129133000D01*
X170732500Y-122841000D02*
X170732500Y-129127000D01*
X170872500Y-122854000D02*
X170872500Y-125538000D01*
X170872500Y-126430000D02*
X170872500Y-129114000D01*
X171012500Y-122873000D02*
X171012500Y-125328000D01*
X171012500Y-126640000D02*
X171012500Y-129095000D01*
X171152500Y-122899000D02*
X171152500Y-125195000D01*
X171152500Y-126773000D02*
X171152500Y-129069000D01*
X171292500Y-122931000D02*
X171292500Y-125104000D01*
X171292500Y-126864000D02*
X171292500Y-129037000D01*
X171432500Y-122970000D02*
X171432500Y-125042000D01*
X171432500Y-126926000D02*
X171432500Y-128998000D01*
X171572500Y-123016000D02*
X171572500Y-125003000D01*
X171572500Y-126965000D02*
X171572500Y-128952000D01*
X171712500Y-123069000D02*
X171712500Y-124986000D01*
X171712500Y-126982000D02*
X171712500Y-128899000D01*
X171852500Y-123131000D02*
X171852500Y-124988000D01*
X171852500Y-126980000D02*
X171852500Y-128837000D01*
X171992500Y-123201000D02*
X171992500Y-125010000D01*
X171992500Y-126958000D02*
X171992500Y-128767000D01*
X172132500Y-123280000D02*
X172132500Y-125053000D01*
X172132500Y-126915000D02*
X172132500Y-128688000D01*
X172272500Y-123368000D02*
X172272500Y-125121000D01*
X172272500Y-126847000D02*
X172272500Y-128600000D01*
X172412500Y-123468000D02*
X172412500Y-125220000D01*
X172412500Y-126748000D02*
X172412500Y-128500000D01*
X172552500Y-123580000D02*
X172552500Y-125365000D01*
X172552500Y-126603000D02*
X172552500Y-128388000D01*
X172692500Y-123705000D02*
X172692500Y-125604000D01*
X172692500Y-126364000D02*
X172692500Y-128263000D01*
X172832500Y-123848000D02*
X172832500Y-128120000D01*
X172972500Y-124010000D02*
X172972500Y-127958000D01*
X173112500Y-124198000D02*
X173112500Y-127770000D01*
X173252500Y-124421000D02*
X173252500Y-127547000D01*
X173392500Y-124697000D02*
X173392500Y-127271000D01*
X173532500Y-125072000D02*
X173532500Y-126896000D01*
X172767500Y-125984000D02*
G75*
G03X172767500Y-125984000I-1000000J0D01*
G01*
X173705000Y-125984000D02*
G75*
G03X173705000Y-125984000I-3187500J0D01*
G01*
X174255000Y-107840000D02*
G75*
G03X174255000Y-107840000I-100000J0D01*
G01*
X174705000Y-108090000D02*
X174205000Y-108090000D01*
X174705000Y-110990000D02*
X174705000Y-108090000D01*
X174205000Y-110990000D02*
X174705000Y-110990000D01*
X174205000Y-108090000D02*
X174205000Y-110990000D01*
X184046881Y-117760548D02*
X184046881Y-117570071D01*
X184094500Y-117474833D01*
X184189738Y-117379595D01*
X184380214Y-117331976D01*
X184713548Y-117331976D01*
X184904024Y-117379595D01*
X184999262Y-117474833D01*
X185046881Y-117570071D01*
X185046881Y-117760548D01*
X184999262Y-117855786D01*
X184904024Y-117951024D01*
X184713548Y-117998643D01*
X184380214Y-117998643D01*
X184189738Y-117951024D01*
X184094500Y-117855786D01*
X184046881Y-117760548D01*
X184046881Y-116903405D02*
X184856405Y-116903405D01*
X184951643Y-116855786D01*
X184999262Y-116808167D01*
X185046881Y-116712929D01*
X185046881Y-116522452D01*
X184999262Y-116427214D01*
X184951643Y-116379595D01*
X184856405Y-116331976D01*
X184046881Y-116331976D01*
X184046881Y-115998643D02*
X184046881Y-115427214D01*
X185046881Y-115712929D02*
X184046881Y-115712929D01*
X184665929Y-115093881D02*
X184665929Y-114331976D01*
X185046881Y-114712928D02*
X184284976Y-114712928D01*
X184046881Y-108235548D02*
X184046881Y-108045071D01*
X184094500Y-107949833D01*
X184189738Y-107854595D01*
X184380214Y-107806976D01*
X184713548Y-107806976D01*
X184904024Y-107854595D01*
X184999262Y-107949833D01*
X185046881Y-108045071D01*
X185046881Y-108235548D01*
X184999262Y-108330786D01*
X184904024Y-108426024D01*
X184713548Y-108473643D01*
X184380214Y-108473643D01*
X184189738Y-108426024D01*
X184094500Y-108330786D01*
X184046881Y-108235548D01*
X184046881Y-107378405D02*
X184856405Y-107378405D01*
X184951643Y-107330786D01*
X184999262Y-107283167D01*
X185046881Y-107187929D01*
X185046881Y-106997452D01*
X184999262Y-106902214D01*
X184951643Y-106854595D01*
X184856405Y-106806976D01*
X184046881Y-106806976D01*
X184046881Y-106473643D02*
X184046881Y-105902214D01*
X185046881Y-106187929D02*
X184046881Y-106187929D01*
X184665929Y-105568881D02*
X184665929Y-104806976D01*
X166885881Y-105219357D02*
X165885881Y-105219357D01*
X166885881Y-104743167D02*
X165885881Y-104743167D01*
X166885881Y-104171738D01*
X165885881Y-104171738D01*
X166504929Y-103695548D02*
X166504929Y-102933643D01*
X164853881Y-117919357D02*
X163853881Y-117919357D01*
X164853881Y-117443167D02*
X163853881Y-117443167D01*
X164853881Y-116871738D01*
X163853881Y-116871738D01*
X164472929Y-116395548D02*
X164472929Y-115633643D01*
X164853881Y-116014595D02*
X164091976Y-116014595D01*
X157302857Y-106324286D02*
X158274286Y-106324286D01*
X158388571Y-106267143D01*
X158445714Y-106210000D01*
X158502857Y-106095714D01*
X158502857Y-105867143D01*
X158445714Y-105752857D01*
X158388571Y-105695714D01*
X158274286Y-105638571D01*
X157302857Y-105638571D01*
X158502857Y-104438571D02*
X158502857Y-105124286D01*
X158502857Y-104781428D02*
X157302857Y-104781428D01*
X157474286Y-104895714D01*
X157588571Y-105010000D01*
X157645714Y-105124286D01*
X167695714Y-129230381D02*
X167695714Y-128230381D01*
X168076667Y-128230381D01*
X168171905Y-128278000D01*
X168219524Y-128325619D01*
X168267143Y-128420857D01*
X168267143Y-128563714D01*
X168219524Y-128658952D01*
X168171905Y-128706571D01*
X168076667Y-128754190D01*
X167695714Y-128754190D01*
X169219524Y-129230381D02*
X168648095Y-129230381D01*
X168933809Y-129230381D02*
X168933809Y-128230381D01*
X168838571Y-128373238D01*
X168743333Y-128468476D01*
X168648095Y-128516095D01*
X169838571Y-128230381D02*
X169933810Y-128230381D01*
X170029048Y-128278000D01*
X170076667Y-128325619D01*
X170124286Y-128420857D01*
X170171905Y-128611333D01*
X170171905Y-128849429D01*
X170124286Y-129039905D01*
X170076667Y-129135143D01*
X170029048Y-129182762D01*
X169933810Y-129230381D01*
X169838571Y-129230381D01*
X169743333Y-129182762D01*
X169695714Y-129135143D01*
X169648095Y-129039905D01*
X169600476Y-128849429D01*
X169600476Y-128611333D01*
X169648095Y-128420857D01*
X169695714Y-128325619D01*
X169743333Y-128278000D01*
X169838571Y-128230381D01*
X176939035Y-120092221D02*
X176939035Y-120901745D01*
X176986654Y-120996983D01*
X177034273Y-121044602D01*
X177129511Y-121092221D01*
X177319988Y-121092221D01*
X177415226Y-121044602D01*
X177462845Y-120996983D01*
X177510464Y-120901745D01*
X177510464Y-120092221D01*
X178129511Y-120520792D02*
X178034273Y-120473173D01*
X177986654Y-120425554D01*
X177939035Y-120330316D01*
X177939035Y-120282697D01*
X177986654Y-120187459D01*
X178034273Y-120139840D01*
X178129511Y-120092221D01*
X178319988Y-120092221D01*
X178415226Y-120139840D01*
X178462845Y-120187459D01*
X178510464Y-120282697D01*
X178510464Y-120330316D01*
X178462845Y-120425554D01*
X178415226Y-120473173D01*
X178319988Y-120520792D01*
X178129511Y-120520792D01*
X178034273Y-120568411D01*
X177986654Y-120616030D01*
X177939035Y-120711269D01*
X177939035Y-120901745D01*
X177986654Y-120996983D01*
X178034273Y-121044602D01*
X178129511Y-121092221D01*
X178319988Y-121092221D01*
X178415226Y-121044602D01*
X178462845Y-120996983D01*
X178510464Y-120901745D01*
X178510464Y-120711269D01*
X178462845Y-120616030D01*
X178415226Y-120568411D01*
X178319988Y-120520792D01*
X177203334Y-111182381D02*
X176727143Y-111182381D01*
X176727143Y-110182381D01*
X178060477Y-111182381D02*
X177489048Y-111182381D01*
X177774762Y-111182381D02*
X177774762Y-110182381D01*
X177679524Y-110325238D01*
X177584286Y-110420476D01*
X177489048Y-110468095D01*
X177867334Y-121814143D02*
X177819715Y-121861762D01*
X177676858Y-121909381D01*
X177581620Y-121909381D01*
X177438762Y-121861762D01*
X177343524Y-121766524D01*
X177295905Y-121671286D01*
X177248286Y-121480810D01*
X177248286Y-121337952D01*
X177295905Y-121147476D01*
X177343524Y-121052238D01*
X177438762Y-120957000D01*
X177581620Y-120909381D01*
X177676858Y-120909381D01*
X177819715Y-120957000D01*
X177867334Y-121004619D01*
X178772096Y-120909381D02*
X178295905Y-120909381D01*
X178248286Y-121385571D01*
X178295905Y-121337952D01*
X178391143Y-121290333D01*
X178629239Y-121290333D01*
X178724477Y-121337952D01*
X178772096Y-121385571D01*
X178819715Y-121480810D01*
X178819715Y-121718905D01*
X178772096Y-121814143D01*
X178724477Y-121861762D01*
X178629239Y-121909381D01*
X178391143Y-121909381D01*
X178295905Y-121861762D01*
X178248286Y-121814143D01*
X169418095Y-101179381D02*
X169418095Y-101988905D01*
X169465714Y-102084143D01*
X169513333Y-102131762D01*
X169608571Y-102179381D01*
X169799048Y-102179381D01*
X169894286Y-102131762D01*
X169941905Y-102084143D01*
X169989524Y-101988905D01*
X169989524Y-101179381D01*
X170370476Y-101179381D02*
X171037143Y-101179381D01*
X170608571Y-102179381D01*
X204393173Y-129097677D02*
X204219525Y-128112869D01*
X204594691Y-128046718D01*
X204696751Y-128077075D01*
X204751915Y-128115702D01*
X204815349Y-128201224D01*
X204840156Y-128341911D01*
X204809798Y-128443971D01*
X204771171Y-128499135D01*
X204685649Y-128562569D01*
X204310484Y-128628721D01*
X205419440Y-128336474D02*
X205317380Y-128306117D01*
X205262216Y-128267490D01*
X205198782Y-128181968D01*
X205190513Y-128135072D01*
X205220871Y-128033012D01*
X205259498Y-127977848D01*
X205345020Y-127914414D01*
X205532603Y-127881338D01*
X205634663Y-127911696D01*
X205689828Y-127950323D01*
X205753261Y-128035845D01*
X205761530Y-128082740D01*
X205731172Y-128184800D01*
X205692546Y-128239965D01*
X205607024Y-128303398D01*
X205419440Y-128336474D01*
X205333918Y-128399908D01*
X205295292Y-128455072D01*
X205264934Y-128557133D01*
X205298010Y-128744716D01*
X205361443Y-128830238D01*
X205416608Y-128868864D01*
X205518668Y-128899222D01*
X205706251Y-128866146D01*
X205791773Y-128802713D01*
X205830400Y-128747548D01*
X205860758Y-128645488D01*
X205827682Y-128457906D01*
X205764248Y-128372383D01*
X205709084Y-128333756D01*
X205607024Y-128303398D01*
X205641456Y-126905584D02*
X206626264Y-126731936D01*
X206692416Y-127107101D01*
X206662058Y-127209161D01*
X206623431Y-127264326D01*
X206537909Y-127327759D01*
X206397223Y-127352566D01*
X206295162Y-127322208D01*
X206239998Y-127283582D01*
X206176565Y-127198060D01*
X206110413Y-126822894D01*
X205906063Y-128406244D02*
X205806835Y-127843496D01*
X205856449Y-128124869D02*
X206841257Y-127951221D01*
X206684032Y-127882237D01*
X206573703Y-127804984D01*
X206510270Y-127719462D01*
X206948753Y-128560865D02*
X207064519Y-129217403D01*
X206005290Y-128968990D01*
X182626095Y-126833381D02*
X182626095Y-127642905D01*
X182673714Y-127738143D01*
X182721333Y-127785762D01*
X182816571Y-127833381D01*
X183007048Y-127833381D01*
X183102286Y-127785762D01*
X183149905Y-127738143D01*
X183197524Y-127642905D01*
X183197524Y-126833381D01*
X183626095Y-126928619D02*
X183673714Y-126881000D01*
X183768952Y-126833381D01*
X184007048Y-126833381D01*
X184102286Y-126881000D01*
X184149905Y-126928619D01*
X184197524Y-127023857D01*
X184197524Y-127119095D01*
X184149905Y-127261952D01*
X183578476Y-127833381D01*
X184197524Y-127833381D01*
X183626571Y-125674381D02*
X183626571Y-124674381D01*
X184198000Y-125674381D01*
X184198000Y-124674381D01*
X184959905Y-124674381D02*
X184959905Y-125388667D01*
X184912285Y-125531524D01*
X184817047Y-125626762D01*
X184674190Y-125674381D01*
X184578952Y-125674381D01*
X185436095Y-125674381D02*
X185436095Y-124674381D01*
X185769429Y-125388667D01*
X186102762Y-124674381D01*
X186102762Y-125674381D01*
X187007524Y-125007714D02*
X187007524Y-125674381D01*
X186769428Y-124626762D02*
X186531333Y-125341048D01*
X187150381Y-125341048D01*
X188007524Y-124674381D02*
X187531333Y-124674381D01*
X187483714Y-125150571D01*
X187531333Y-125102952D01*
X187626571Y-125055333D01*
X187864667Y-125055333D01*
X187959905Y-125102952D01*
X188007524Y-125150571D01*
X188055143Y-125245810D01*
X188055143Y-125483905D01*
X188007524Y-125579143D01*
X187959905Y-125626762D01*
X187864667Y-125674381D01*
X187626571Y-125674381D01*
X187531333Y-125626762D01*
X187483714Y-125579143D01*
X188959905Y-124674381D02*
X188483714Y-124674381D01*
X188436095Y-125150571D01*
X188483714Y-125102952D01*
X188578952Y-125055333D01*
X188817048Y-125055333D01*
X188912286Y-125102952D01*
X188959905Y-125150571D01*
X189007524Y-125245810D01*
X189007524Y-125483905D01*
X188959905Y-125579143D01*
X188912286Y-125626762D01*
X188817048Y-125674381D01*
X188578952Y-125674381D01*
X188483714Y-125626762D01*
X188436095Y-125579143D01*
X189864667Y-124674381D02*
X189674190Y-124674381D01*
X189578952Y-124722000D01*
X189531333Y-124769619D01*
X189436095Y-124912476D01*
X189388476Y-125102952D01*
X189388476Y-125483905D01*
X189436095Y-125579143D01*
X189483714Y-125626762D01*
X189578952Y-125674381D01*
X189769429Y-125674381D01*
X189864667Y-125626762D01*
X189912286Y-125579143D01*
X189959905Y-125483905D01*
X189959905Y-125245810D01*
X189912286Y-125150571D01*
X189864667Y-125102952D01*
X189769429Y-125055333D01*
X189578952Y-125055333D01*
X189483714Y-125102952D01*
X189436095Y-125150571D01*
X189388476Y-125245810D01*
X190340857Y-125388667D02*
X190817048Y-125388667D01*
X190245619Y-125674381D02*
X190578952Y-124674381D01*
X190912286Y-125674381D01*
X166613935Y-120150641D02*
X166613935Y-120960165D01*
X166661554Y-121055403D01*
X166709173Y-121103022D01*
X166804411Y-121150641D01*
X166994888Y-121150641D01*
X167090126Y-121103022D01*
X167137745Y-121055403D01*
X167185364Y-120960165D01*
X167185364Y-120150641D01*
X168137745Y-120150641D02*
X167661554Y-120150641D01*
X167613935Y-120626831D01*
X167661554Y-120579212D01*
X167756792Y-120531593D01*
X167994888Y-120531593D01*
X168090126Y-120579212D01*
X168137745Y-120626831D01*
X168185364Y-120722070D01*
X168185364Y-120960165D01*
X168137745Y-121055403D01*
X168090126Y-121103022D01*
X167994888Y-121150641D01*
X167756792Y-121150641D01*
X167661554Y-121103022D01*
X167613935Y-121055403D01*
X169017381Y-96623095D02*
X168017381Y-96623095D01*
X168017381Y-96385000D01*
X168065000Y-96242142D01*
X168160238Y-96146904D01*
X168255476Y-96099285D01*
X168445952Y-96051666D01*
X168588810Y-96051666D01*
X168779286Y-96099285D01*
X168874524Y-96146904D01*
X168969762Y-96242142D01*
X169017381Y-96385000D01*
X169017381Y-96623095D01*
X168112619Y-95670714D02*
X168065000Y-95623095D01*
X168017381Y-95527857D01*
X168017381Y-95289761D01*
X168065000Y-95194523D01*
X168112619Y-95146904D01*
X168207857Y-95099285D01*
X168303095Y-95099285D01*
X168445952Y-95146904D01*
X169017381Y-95718333D01*
X169017381Y-95099285D01*
X147121667Y-94702381D02*
X147121667Y-95416667D01*
X147074047Y-95559524D01*
X146978809Y-95654762D01*
X146835952Y-95702381D01*
X146740714Y-95702381D01*
X147597857Y-95702381D02*
X147597857Y-94702381D01*
X147978810Y-94702381D01*
X148074048Y-94750000D01*
X148121667Y-94797619D01*
X148169286Y-94892857D01*
X148169286Y-95035714D01*
X148121667Y-95130952D01*
X148074048Y-95178571D01*
X147978810Y-95226190D01*
X147597857Y-95226190D01*
X149121667Y-95702381D02*
X148550238Y-95702381D01*
X148835952Y-95702381D02*
X148835952Y-94702381D01*
X148740714Y-94845238D01*
X148645476Y-94940476D01*
X148550238Y-94988095D01*
X136723381Y-119102095D02*
X135723381Y-119102095D01*
X135723381Y-118721142D01*
X135771000Y-118625904D01*
X135818619Y-118578285D01*
X135913857Y-118530666D01*
X136056714Y-118530666D01*
X136151952Y-118578285D01*
X136199571Y-118625904D01*
X136247190Y-118721142D01*
X136247190Y-119102095D01*
X136723381Y-117578285D02*
X136723381Y-118149714D01*
X136723381Y-117864000D02*
X135723381Y-117864000D01*
X135866238Y-117959238D01*
X135961476Y-118054476D01*
X136009095Y-118149714D01*
X178403334Y-100472381D02*
X178070000Y-99996190D01*
X177831905Y-100472381D02*
X177831905Y-99472381D01*
X178212858Y-99472381D01*
X178308096Y-99520000D01*
X178355715Y-99567619D01*
X178403334Y-99662857D01*
X178403334Y-99805714D01*
X178355715Y-99900952D01*
X178308096Y-99948571D01*
X178212858Y-99996190D01*
X177831905Y-99996190D01*
X178831905Y-100472381D02*
X178831905Y-99472381D01*
X179212858Y-99472381D01*
X179308096Y-99520000D01*
X179355715Y-99567619D01*
X179403334Y-99662857D01*
X179403334Y-99805714D01*
X179355715Y-99900952D01*
X179308096Y-99948571D01*
X179212858Y-99996190D01*
X178831905Y-99996190D01*
X180355715Y-100472381D02*
X179784286Y-100472381D01*
X180070000Y-100472381D02*
X180070000Y-99472381D01*
X179974762Y-99615238D01*
X179879524Y-99710476D01*
X179784286Y-99758095D01*
X165235095Y-117117762D02*
X165377952Y-117165381D01*
X165616048Y-117165381D01*
X165711286Y-117117762D01*
X165758905Y-117070143D01*
X165806524Y-116974905D01*
X165806524Y-116879667D01*
X165758905Y-116784429D01*
X165711286Y-116736810D01*
X165616048Y-116689190D01*
X165425571Y-116641571D01*
X165330333Y-116593952D01*
X165282714Y-116546333D01*
X165235095Y-116451095D01*
X165235095Y-116355857D01*
X165282714Y-116260619D01*
X165330333Y-116213000D01*
X165425571Y-116165381D01*
X165663667Y-116165381D01*
X165806524Y-116213000D01*
X166235095Y-117165381D02*
X166235095Y-116165381D01*
X166616048Y-116165381D01*
X166711286Y-116213000D01*
X166758905Y-116260619D01*
X166806524Y-116355857D01*
X166806524Y-116498714D01*
X166758905Y-116593952D01*
X166711286Y-116641571D01*
X166616048Y-116689190D01*
X166235095Y-116689190D01*
X167758905Y-117165381D02*
X167187476Y-117165381D01*
X167473190Y-117165381D02*
X167473190Y-116165381D01*
X167377952Y-116308238D01*
X167282714Y-116403476D01*
X167187476Y-116451095D01*
X157027952Y-131214762D02*
X157170809Y-131262381D01*
X157408905Y-131262381D01*
X157504143Y-131214762D01*
X157551762Y-131167143D01*
X157599381Y-131071905D01*
X157599381Y-130976667D01*
X157551762Y-130881429D01*
X157504143Y-130833810D01*
X157408905Y-130786190D01*
X157218428Y-130738571D01*
X157123190Y-130690952D01*
X157075571Y-130643333D01*
X157027952Y-130548095D01*
X157027952Y-130452857D01*
X157075571Y-130357619D01*
X157123190Y-130310000D01*
X157218428Y-130262381D01*
X157456524Y-130262381D01*
X157599381Y-130310000D01*
X158027952Y-131262381D02*
X158027952Y-130262381D01*
X158408905Y-130262381D01*
X158504143Y-130310000D01*
X158551762Y-130357619D01*
X158599381Y-130452857D01*
X158599381Y-130595714D01*
X158551762Y-130690952D01*
X158504143Y-130738571D01*
X158408905Y-130786190D01*
X158027952Y-130786190D01*
X159027952Y-130738571D02*
X159361286Y-130738571D01*
X159504143Y-131262381D02*
X159027952Y-131262381D01*
X159027952Y-130262381D01*
X159504143Y-130262381D01*
X159885095Y-130976667D02*
X160361286Y-130976667D01*
X159789857Y-131262381D02*
X160123190Y-130262381D01*
X160456524Y-131262381D01*
X160789857Y-131262381D02*
X160789857Y-130262381D01*
X161361286Y-131262381D02*
X160932714Y-130690952D01*
X161361286Y-130262381D02*
X160789857Y-130833810D01*
X161789857Y-130738571D02*
X162123191Y-130738571D01*
X162266048Y-131262381D02*
X161789857Y-131262381D01*
X161789857Y-130262381D01*
X162266048Y-130262381D01*
X163266048Y-131262381D02*
X162932714Y-130786190D01*
X162694619Y-131262381D02*
X162694619Y-130262381D01*
X163075572Y-130262381D01*
X163170810Y-130310000D01*
X163218429Y-130357619D01*
X163266048Y-130452857D01*
X163266048Y-130595714D01*
X163218429Y-130690952D01*
X163170810Y-130738571D01*
X163075572Y-130786190D01*
X162694619Y-130786190D01*
X155067048Y-120975429D02*
X155828953Y-120975429D01*
X155448001Y-121356381D02*
X155448001Y-120594476D01*
X143470334Y-123515381D02*
X143137000Y-123039190D01*
X142898905Y-123515381D02*
X142898905Y-122515381D01*
X143279858Y-122515381D01*
X143375096Y-122563000D01*
X143422715Y-122610619D01*
X143470334Y-122705857D01*
X143470334Y-122848714D01*
X143422715Y-122943952D01*
X143375096Y-122991571D01*
X143279858Y-123039190D01*
X142898905Y-123039190D01*
X144327477Y-122515381D02*
X144137000Y-122515381D01*
X144041762Y-122563000D01*
X143994143Y-122610619D01*
X143898905Y-122753476D01*
X143851286Y-122943952D01*
X143851286Y-123324905D01*
X143898905Y-123420143D01*
X143946524Y-123467762D01*
X144041762Y-123515381D01*
X144232239Y-123515381D01*
X144327477Y-123467762D01*
X144375096Y-123420143D01*
X144422715Y-123324905D01*
X144422715Y-123086810D01*
X144375096Y-122991571D01*
X144327477Y-122943952D01*
X144232239Y-122896333D01*
X144041762Y-122896333D01*
X143946524Y-122943952D01*
X143898905Y-122991571D01*
X143851286Y-123086810D01*
X149439334Y-119070381D02*
X149106000Y-118594190D01*
X148867905Y-119070381D02*
X148867905Y-118070381D01*
X149248858Y-118070381D01*
X149344096Y-118118000D01*
X149391715Y-118165619D01*
X149439334Y-118260857D01*
X149439334Y-118403714D01*
X149391715Y-118498952D01*
X149344096Y-118546571D01*
X149248858Y-118594190D01*
X148867905Y-118594190D01*
X149772667Y-118070381D02*
X150439334Y-118070381D01*
X150010762Y-119070381D01*
X183170534Y-137612381D02*
X182837200Y-137136190D01*
X182599105Y-137612381D02*
X182599105Y-136612381D01*
X182980058Y-136612381D01*
X183075296Y-136660000D01*
X183122915Y-136707619D01*
X183170534Y-136802857D01*
X183170534Y-136945714D01*
X183122915Y-137040952D01*
X183075296Y-137088571D01*
X182980058Y-137136190D01*
X182599105Y-137136190D01*
X183741962Y-137040952D02*
X183646724Y-136993333D01*
X183599105Y-136945714D01*
X183551486Y-136850476D01*
X183551486Y-136802857D01*
X183599105Y-136707619D01*
X183646724Y-136660000D01*
X183741962Y-136612381D01*
X183932439Y-136612381D01*
X184027677Y-136660000D01*
X184075296Y-136707619D01*
X184122915Y-136802857D01*
X184122915Y-136850476D01*
X184075296Y-136945714D01*
X184027677Y-136993333D01*
X183932439Y-137040952D01*
X183741962Y-137040952D01*
X183646724Y-137088571D01*
X183599105Y-137136190D01*
X183551486Y-137231429D01*
X183551486Y-137421905D01*
X183599105Y-137517143D01*
X183646724Y-137564762D01*
X183741962Y-137612381D01*
X183932439Y-137612381D01*
X184027677Y-137564762D01*
X184075296Y-137517143D01*
X184122915Y-137421905D01*
X184122915Y-137231429D01*
X184075296Y-137136190D01*
X184027677Y-137088571D01*
X183932439Y-137040952D01*
X185710534Y-137561581D02*
X185377200Y-137085390D01*
X185139105Y-137561581D02*
X185139105Y-136561581D01*
X185520058Y-136561581D01*
X185615296Y-136609200D01*
X185662915Y-136656819D01*
X185710534Y-136752057D01*
X185710534Y-136894914D01*
X185662915Y-136990152D01*
X185615296Y-137037771D01*
X185520058Y-137085390D01*
X185139105Y-137085390D01*
X186186724Y-137561581D02*
X186377200Y-137561581D01*
X186472439Y-137513962D01*
X186520058Y-137466343D01*
X186615296Y-137323486D01*
X186662915Y-137133010D01*
X186662915Y-136752057D01*
X186615296Y-136656819D01*
X186567677Y-136609200D01*
X186472439Y-136561581D01*
X186281962Y-136561581D01*
X186186724Y-136609200D01*
X186139105Y-136656819D01*
X186091486Y-136752057D01*
X186091486Y-136990152D01*
X186139105Y-137085390D01*
X186186724Y-137133010D01*
X186281962Y-137180629D01*
X186472439Y-137180629D01*
X186567677Y-137133010D01*
X186615296Y-137085390D01*
X186662915Y-136990152D01*
X187825143Y-137561581D02*
X187491809Y-137085390D01*
X187253714Y-137561581D02*
X187253714Y-136561581D01*
X187634667Y-136561581D01*
X187729905Y-136609200D01*
X187777524Y-136656819D01*
X187825143Y-136752057D01*
X187825143Y-136894914D01*
X187777524Y-136990152D01*
X187729905Y-137037771D01*
X187634667Y-137085390D01*
X187253714Y-137085390D01*
X188777524Y-137561581D02*
X188206095Y-137561581D01*
X188491809Y-137561581D02*
X188491809Y-136561581D01*
X188396571Y-136704438D01*
X188301333Y-136799676D01*
X188206095Y-136847295D01*
X189396571Y-136561581D02*
X189491810Y-136561581D01*
X189587048Y-136609200D01*
X189634667Y-136656819D01*
X189682286Y-136752057D01*
X189729905Y-136942533D01*
X189729905Y-137180629D01*
X189682286Y-137371105D01*
X189634667Y-137466343D01*
X189587048Y-137513962D01*
X189491810Y-137561581D01*
X189396571Y-137561581D01*
X189301333Y-137513962D01*
X189253714Y-137466343D01*
X189206095Y-137371105D01*
X189158476Y-137180629D01*
X189158476Y-136942533D01*
X189206095Y-136752057D01*
X189253714Y-136656819D01*
X189301333Y-136609200D01*
X189396571Y-136561581D01*
X190923943Y-137612381D02*
X190590609Y-137136190D01*
X190352514Y-137612381D02*
X190352514Y-136612381D01*
X190733467Y-136612381D01*
X190828705Y-136660000D01*
X190876324Y-136707619D01*
X190923943Y-136802857D01*
X190923943Y-136945714D01*
X190876324Y-137040952D01*
X190828705Y-137088571D01*
X190733467Y-137136190D01*
X190352514Y-137136190D01*
X191876324Y-137612381D02*
X191304895Y-137612381D01*
X191590609Y-137612381D02*
X191590609Y-136612381D01*
X191495371Y-136755238D01*
X191400133Y-136850476D01*
X191304895Y-136898095D01*
X192828705Y-137612381D02*
X192257276Y-137612381D01*
X192542990Y-137612381D02*
X192542990Y-136612381D01*
X192447752Y-136755238D01*
X192352514Y-136850476D01*
X192257276Y-136898095D01*
X193467085Y-121785029D02*
X193267085Y-121499314D01*
X193124228Y-121785029D02*
X193124228Y-121185029D01*
X193352800Y-121185029D01*
X193409942Y-121213600D01*
X193438514Y-121242171D01*
X193467085Y-121299314D01*
X193467085Y-121385029D01*
X193438514Y-121442171D01*
X193409942Y-121470743D01*
X193352800Y-121499314D01*
X193124228Y-121499314D01*
X194038514Y-121785029D02*
X193695657Y-121785029D01*
X193867085Y-121785029D02*
X193867085Y-121185029D01*
X193809942Y-121270743D01*
X193752800Y-121327886D01*
X193695657Y-121356457D01*
X194238514Y-121185029D02*
X194609943Y-121185029D01*
X194409943Y-121413600D01*
X194495657Y-121413600D01*
X194552800Y-121442171D01*
X194581371Y-121470743D01*
X194609943Y-121527886D01*
X194609943Y-121670743D01*
X194581371Y-121727886D01*
X194552800Y-121756457D01*
X194495657Y-121785029D01*
X194324229Y-121785029D01*
X194267086Y-121756457D01*
X194238514Y-121727886D01*
X158885095Y-118768762D02*
X159027952Y-118816381D01*
X159266048Y-118816381D01*
X159361286Y-118768762D01*
X159408905Y-118721143D01*
X159456524Y-118625905D01*
X159456524Y-118530667D01*
X159408905Y-118435429D01*
X159361286Y-118387810D01*
X159266048Y-118340190D01*
X159075571Y-118292571D01*
X158980333Y-118244952D01*
X158932714Y-118197333D01*
X158885095Y-118102095D01*
X158885095Y-118006857D01*
X158932714Y-117911619D01*
X158980333Y-117864000D01*
X159075571Y-117816381D01*
X159313667Y-117816381D01*
X159456524Y-117864000D01*
X159885095Y-118816381D02*
X159885095Y-117816381D01*
X160266048Y-117816381D01*
X160361286Y-117864000D01*
X160408905Y-117911619D01*
X160456524Y-118006857D01*
X160456524Y-118149714D01*
X160408905Y-118244952D01*
X160361286Y-118292571D01*
X160266048Y-118340190D01*
X159885095Y-118340190D01*
X160837476Y-117911619D02*
X160885095Y-117864000D01*
X160980333Y-117816381D01*
X161218429Y-117816381D01*
X161313667Y-117864000D01*
X161361286Y-117911619D01*
X161408905Y-118006857D01*
X161408905Y-118102095D01*
X161361286Y-118244952D01*
X160789857Y-118816381D01*
X161408905Y-118816381D01*
X158813667Y-118673571D02*
X158956524Y-118721190D01*
X159004143Y-118768810D01*
X159051762Y-118864048D01*
X159051762Y-119006905D01*
X159004143Y-119102143D01*
X158956524Y-119149762D01*
X158861286Y-119197381D01*
X158480333Y-119197381D01*
X158480333Y-118197381D01*
X158813667Y-118197381D01*
X158908905Y-118245000D01*
X158956524Y-118292619D01*
X159004143Y-118387857D01*
X159004143Y-118483095D01*
X158956524Y-118578333D01*
X158908905Y-118625952D01*
X158813667Y-118673571D01*
X158480333Y-118673571D01*
X159480333Y-118673571D02*
X159813667Y-118673571D01*
X159956524Y-119197381D02*
X159480333Y-119197381D01*
X159480333Y-118197381D01*
X159956524Y-118197381D01*
X160385095Y-118673571D02*
X160718429Y-118673571D01*
X160861286Y-119197381D02*
X160385095Y-119197381D01*
X160385095Y-118197381D01*
X160861286Y-118197381D01*
X161289857Y-119197381D02*
X161289857Y-118197381D01*
X161670810Y-118197381D01*
X161766048Y-118245000D01*
X161813667Y-118292619D01*
X161861286Y-118387857D01*
X161861286Y-118530714D01*
X161813667Y-118625952D01*
X161766048Y-118673571D01*
X161670810Y-118721190D01*
X161289857Y-118721190D01*
X155956048Y-123896429D02*
X156717953Y-123896429D01*
X156337001Y-124277381D02*
X156337001Y-123515476D01*
X162456762Y-106108333D02*
X162504381Y-105965476D01*
X162504381Y-105727380D01*
X162456762Y-105632142D01*
X162409143Y-105584523D01*
X162313905Y-105536904D01*
X162218667Y-105536904D01*
X162123429Y-105584523D01*
X162075810Y-105632142D01*
X162028190Y-105727380D01*
X161980571Y-105917857D01*
X161932952Y-106013095D01*
X161885333Y-106060714D01*
X161790095Y-106108333D01*
X161694857Y-106108333D01*
X161599619Y-106060714D01*
X161552000Y-106013095D01*
X161504381Y-105917857D01*
X161504381Y-105679761D01*
X161552000Y-105536904D01*
X161504381Y-105203571D02*
X162504381Y-104965476D01*
X161790095Y-104774999D01*
X162504381Y-104584523D01*
X161504381Y-104346428D01*
X162504381Y-103441666D02*
X162504381Y-104013095D01*
X162504381Y-103727381D02*
X161504381Y-103727381D01*
X161647238Y-103822619D01*
X161742476Y-103917857D01*
X161790095Y-104013095D01*
X144662334Y-116421143D02*
X144614715Y-116468762D01*
X144471858Y-116516381D01*
X144376620Y-116516381D01*
X144233762Y-116468762D01*
X144138524Y-116373524D01*
X144090905Y-116278286D01*
X144043286Y-116087810D01*
X144043286Y-115944952D01*
X144090905Y-115754476D01*
X144138524Y-115659238D01*
X144233762Y-115564000D01*
X144376620Y-115516381D01*
X144471858Y-115516381D01*
X144614715Y-115564000D01*
X144662334Y-115611619D01*
X145043286Y-115611619D02*
X145090905Y-115564000D01*
X145186143Y-115516381D01*
X145424239Y-115516381D01*
X145519477Y-115564000D01*
X145567096Y-115611619D01*
X145614715Y-115706857D01*
X145614715Y-115802095D01*
X145567096Y-115944952D01*
X144995667Y-116516381D01*
X145614715Y-116516381D01*
X153679334Y-117451143D02*
X153631715Y-117498762D01*
X153488858Y-117546381D01*
X153393620Y-117546381D01*
X153250762Y-117498762D01*
X153155524Y-117403524D01*
X153107905Y-117308286D01*
X153060286Y-117117810D01*
X153060286Y-116974952D01*
X153107905Y-116784476D01*
X153155524Y-116689238D01*
X153250762Y-116594000D01*
X153393620Y-116546381D01*
X153488858Y-116546381D01*
X153631715Y-116594000D01*
X153679334Y-116641619D01*
X154155524Y-117546381D02*
X154346000Y-117546381D01*
X154441239Y-117498762D01*
X154488858Y-117451143D01*
X154584096Y-117308286D01*
X154631715Y-117117810D01*
X154631715Y-116736857D01*
X154584096Y-116641619D01*
X154536477Y-116594000D01*
X154441239Y-116546381D01*
X154250762Y-116546381D01*
X154155524Y-116594000D01*
X154107905Y-116641619D01*
X154060286Y-116736857D01*
X154060286Y-116974952D01*
X154107905Y-117070190D01*
X154155524Y-117117810D01*
X154250762Y-117165429D01*
X154441239Y-117165429D01*
X154536477Y-117117810D01*
X154584096Y-117070190D01*
X154631715Y-116974952D01*
X163026381Y-125310666D02*
X163026381Y-125786857D01*
X162026381Y-125786857D01*
X162121619Y-125024952D02*
X162074000Y-124977333D01*
X162026381Y-124882095D01*
X162026381Y-124643999D01*
X162074000Y-124548761D01*
X162121619Y-124501142D01*
X162216857Y-124453523D01*
X162312095Y-124453523D01*
X162454952Y-124501142D01*
X163026381Y-125072571D01*
X163026381Y-124453523D01*
X145776334Y-132223143D02*
X145728715Y-132270762D01*
X145585858Y-132318381D01*
X145490620Y-132318381D01*
X145347762Y-132270762D01*
X145252524Y-132175524D01*
X145204905Y-132080286D01*
X145157286Y-131889810D01*
X145157286Y-131746952D01*
X145204905Y-131556476D01*
X145252524Y-131461238D01*
X145347762Y-131366000D01*
X145490620Y-131318381D01*
X145585858Y-131318381D01*
X145728715Y-131366000D01*
X145776334Y-131413619D01*
X146728715Y-132318381D02*
X146157286Y-132318381D01*
X146443000Y-132318381D02*
X146443000Y-131318381D01*
X146347762Y-131461238D01*
X146252524Y-131556476D01*
X146157286Y-131604095D01*
X157019334Y-132564143D02*
X156971715Y-132611762D01*
X156828858Y-132659381D01*
X156733620Y-132659381D01*
X156590762Y-132611762D01*
X156495524Y-132516524D01*
X156447905Y-132421286D01*
X156400286Y-132230810D01*
X156400286Y-132087952D01*
X156447905Y-131897476D01*
X156495524Y-131802238D01*
X156590762Y-131707000D01*
X156733620Y-131659381D01*
X156828858Y-131659381D01*
X156971715Y-131707000D01*
X157019334Y-131754619D01*
X157352667Y-131659381D02*
X157971715Y-131659381D01*
X157638381Y-132040333D01*
X157781239Y-132040333D01*
X157876477Y-132087952D01*
X157924096Y-132135571D01*
X157971715Y-132230810D01*
X157971715Y-132468905D01*
X157924096Y-132564143D01*
X157876477Y-132611762D01*
X157781239Y-132659381D01*
X157495524Y-132659381D01*
X157400286Y-132611762D01*
X157352667Y-132564143D01*
X180193334Y-123507143D02*
X180145715Y-123554762D01*
X180002858Y-123602381D01*
X179907620Y-123602381D01*
X179764762Y-123554762D01*
X179669524Y-123459524D01*
X179621905Y-123364286D01*
X179574286Y-123173810D01*
X179574286Y-123030952D01*
X179621905Y-122840476D01*
X179669524Y-122745238D01*
X179764762Y-122650000D01*
X179907620Y-122602381D01*
X180002858Y-122602381D01*
X180145715Y-122650000D01*
X180193334Y-122697619D01*
X181050477Y-122935714D02*
X181050477Y-123602381D01*
X180812381Y-122554762D02*
X180574286Y-123269048D01*
X181193334Y-123269048D01*
X158242381Y-114331666D02*
X157766190Y-114665000D01*
X158242381Y-114903095D02*
X157242381Y-114903095D01*
X157242381Y-114522142D01*
X157290000Y-114426904D01*
X157337619Y-114379285D01*
X157432857Y-114331666D01*
X157575714Y-114331666D01*
X157670952Y-114379285D01*
X157718571Y-114426904D01*
X157766190Y-114522142D01*
X157766190Y-114903095D01*
X158242381Y-113903095D02*
X157242381Y-113903095D01*
X157242381Y-113522142D01*
X157290000Y-113426904D01*
X157337619Y-113379285D01*
X157432857Y-113331666D01*
X157575714Y-113331666D01*
X157670952Y-113379285D01*
X157718571Y-113426904D01*
X157766190Y-113522142D01*
X157766190Y-113903095D01*
X157337619Y-112950714D02*
X157290000Y-112903095D01*
X157242381Y-112807857D01*
X157242381Y-112569761D01*
X157290000Y-112474523D01*
X157337619Y-112426904D01*
X157432857Y-112379285D01*
X157528095Y-112379285D01*
X157670952Y-112426904D01*
X158242381Y-112998333D01*
X158242381Y-112379285D01*
X166096381Y-135453333D02*
X166810667Y-135453333D01*
X166953524Y-135500953D01*
X167048762Y-135596191D01*
X167096381Y-135739048D01*
X167096381Y-135834286D01*
X167096381Y-134977143D02*
X166096381Y-134977143D01*
X166096381Y-134596190D01*
X166144000Y-134500952D01*
X166191619Y-134453333D01*
X166286857Y-134405714D01*
X166429714Y-134405714D01*
X166524952Y-134453333D01*
X166572571Y-134500952D01*
X166620190Y-134596190D01*
X166620190Y-134977143D01*
X166096381Y-134072381D02*
X166096381Y-133453333D01*
X166477333Y-133786667D01*
X166477333Y-133643809D01*
X166524952Y-133548571D01*
X166572571Y-133500952D01*
X166667810Y-133453333D01*
X166905905Y-133453333D01*
X167001143Y-133500952D01*
X167048762Y-133548571D01*
X167096381Y-133643809D01*
X167096381Y-133929524D01*
X167048762Y-134024762D01*
X167001143Y-134072381D01*
X205753334Y-122372381D02*
X205420000Y-121896190D01*
X205181905Y-122372381D02*
X205181905Y-121372381D01*
X205562858Y-121372381D01*
X205658096Y-121420000D01*
X205705715Y-121467619D01*
X205753334Y-121562857D01*
X205753334Y-121705714D01*
X205705715Y-121800952D01*
X205658096Y-121848571D01*
X205562858Y-121896190D01*
X205181905Y-121896190D01*
X206705715Y-122372381D02*
X206134286Y-122372381D01*
X206420000Y-122372381D02*
X206420000Y-121372381D01*
X206324762Y-121515238D01*
X206229524Y-121610476D01*
X206134286Y-121658095D01*
X160932762Y-96583333D02*
X160980381Y-96440476D01*
X160980381Y-96202380D01*
X160932762Y-96107142D01*
X160885143Y-96059523D01*
X160789905Y-96011904D01*
X160694667Y-96011904D01*
X160599429Y-96059523D01*
X160551810Y-96107142D01*
X160504190Y-96202380D01*
X160456571Y-96392857D01*
X160408952Y-96488095D01*
X160361333Y-96535714D01*
X160266095Y-96583333D01*
X160170857Y-96583333D01*
X160075619Y-96535714D01*
X160028000Y-96488095D01*
X159980381Y-96392857D01*
X159980381Y-96154761D01*
X160028000Y-96011904D01*
X159980381Y-95678571D02*
X160980381Y-95440476D01*
X160266095Y-95249999D01*
X160980381Y-95059523D01*
X159980381Y-94821428D01*
X160075619Y-94488095D02*
X160028000Y-94440476D01*
X159980381Y-94345238D01*
X159980381Y-94107142D01*
X160028000Y-94011904D01*
X160075619Y-93964285D01*
X160170857Y-93916666D01*
X160266095Y-93916666D01*
X160408952Y-93964285D01*
X160980381Y-94535714D01*
X160980381Y-93916666D01*
X167602143Y-111863166D02*
X167649762Y-111910785D01*
X167697381Y-112053642D01*
X167697381Y-112148880D01*
X167649762Y-112291738D01*
X167554524Y-112386976D01*
X167459286Y-112434595D01*
X167268810Y-112482214D01*
X167125952Y-112482214D01*
X166935476Y-112434595D01*
X166840238Y-112386976D01*
X166745000Y-112291738D01*
X166697381Y-112148880D01*
X166697381Y-112053642D01*
X166745000Y-111910785D01*
X166792619Y-111863166D01*
X166697381Y-111006023D02*
X166697381Y-111196500D01*
X166745000Y-111291738D01*
X166792619Y-111339357D01*
X166935476Y-111434595D01*
X167125952Y-111482214D01*
X167506905Y-111482214D01*
X167602143Y-111434595D01*
X167649762Y-111386976D01*
X167697381Y-111291738D01*
X167697381Y-111101261D01*
X167649762Y-111006023D01*
X167602143Y-110958404D01*
X167506905Y-110910785D01*
X167268810Y-110910785D01*
X167173571Y-110958404D01*
X167125952Y-111006023D01*
X167078333Y-111101261D01*
X167078333Y-111291738D01*
X167125952Y-111386976D01*
X167173571Y-111434595D01*
X167268810Y-111482214D01*
X177472331Y-107896534D02*
X177519950Y-107944153D01*
X177567569Y-108087010D01*
X177567569Y-108182248D01*
X177519950Y-108325106D01*
X177424712Y-108420344D01*
X177329474Y-108467963D01*
X177138998Y-108515582D01*
X176996140Y-108515582D01*
X176805664Y-108467963D01*
X176710426Y-108420344D01*
X176615188Y-108325106D01*
X176567569Y-108182248D01*
X176567569Y-108087010D01*
X176615188Y-107944153D01*
X176662807Y-107896534D01*
X176567569Y-107563201D02*
X176567569Y-106896534D01*
X177567569Y-107325106D01*
X170350834Y-121941143D02*
X170303215Y-121988762D01*
X170160358Y-122036381D01*
X170065120Y-122036381D01*
X169922262Y-121988762D01*
X169827024Y-121893524D01*
X169779405Y-121798286D01*
X169731786Y-121607810D01*
X169731786Y-121464952D01*
X169779405Y-121274476D01*
X169827024Y-121179238D01*
X169922262Y-121084000D01*
X170065120Y-121036381D01*
X170160358Y-121036381D01*
X170303215Y-121084000D01*
X170350834Y-121131619D01*
X170922262Y-121464952D02*
X170827024Y-121417333D01*
X170779405Y-121369714D01*
X170731786Y-121274476D01*
X170731786Y-121226857D01*
X170779405Y-121131619D01*
X170827024Y-121084000D01*
X170922262Y-121036381D01*
X171112739Y-121036381D01*
X171207977Y-121084000D01*
X171255596Y-121131619D01*
X171303215Y-121226857D01*
X171303215Y-121274476D01*
X171255596Y-121369714D01*
X171207977Y-121417333D01*
X171112739Y-121464952D01*
X170922262Y-121464952D01*
X170827024Y-121512571D01*
X170779405Y-121560190D01*
X170731786Y-121655429D01*
X170731786Y-121845905D01*
X170779405Y-121941143D01*
X170827024Y-121988762D01*
X170922262Y-122036381D01*
X171112739Y-122036381D01*
X171207977Y-121988762D01*
X171255596Y-121941143D01*
X171303215Y-121845905D01*
X171303215Y-121655429D01*
X171255596Y-121560190D01*
X171207977Y-121512571D01*
X171112739Y-121464952D01*
X173643095Y-106442381D02*
X173643095Y-107251905D01*
X173690714Y-107347143D01*
X173738333Y-107394762D01*
X173833571Y-107442381D01*
X174024048Y-107442381D01*
X174119286Y-107394762D01*
X174166905Y-107347143D01*
X174214524Y-107251905D01*
X174214524Y-106442381D01*
X175119286Y-106775714D02*
X175119286Y-107442381D01*
X174881190Y-106394762D02*
X174643095Y-107109048D01*
X175262143Y-107109048D01*
M02*
