G04 #@! TF.FileFunction,Legend,Bot*
%FSLAX46Y46*%
G04 Gerber Fmt 4.6, Leading zero omitted, Abs format (unit mm)*
G04 Created by KiCad (PCBNEW 4.0.2+dfsg1-stable) date 2016年08月04日 20時34分36秒*
%MOMM*%
G01*
G04 APERTURE LIST*
%ADD10C,0.100000*%
%ADD11C,0.500000*%
%ADD12C,0.132500*%
%ADD13C,0.002540*%
G04 APERTURE END LIST*
D10*
X203785714Y-98034000D02*
X203785714Y-97194000D01*
X203185715Y-97194000D02*
X203014286Y-97194000D01*
X202928572Y-97234000D01*
X202842858Y-97314000D01*
X202800000Y-97474000D01*
X202800000Y-97754000D01*
X202842858Y-97914000D01*
X202928572Y-97994000D01*
X203014286Y-98034000D01*
X203185715Y-98034000D01*
X203271429Y-97994000D01*
X203357143Y-97914000D01*
X203400000Y-97754000D01*
X203400000Y-97474000D01*
X203357143Y-97314000D01*
X203271429Y-97234000D01*
X203185715Y-97194000D01*
X201942858Y-98034000D02*
X202457143Y-98034000D01*
X202200001Y-98034000D02*
X202200001Y-97194000D01*
X202285715Y-97314000D01*
X202371429Y-97394000D01*
X202457143Y-97434000D01*
X201171429Y-97194000D02*
X201342858Y-97194000D01*
X201428572Y-97234000D01*
X201471429Y-97274000D01*
X201557143Y-97394000D01*
X201600000Y-97554000D01*
X201600000Y-97874000D01*
X201557143Y-97954000D01*
X201514286Y-97994000D01*
X201428572Y-98034000D01*
X201257143Y-98034000D01*
X201171429Y-97994000D01*
X201128572Y-97954000D01*
X201085715Y-97874000D01*
X201085715Y-97674000D01*
X201128572Y-97594000D01*
X201171429Y-97554000D01*
X201257143Y-97514000D01*
X201428572Y-97514000D01*
X201514286Y-97554000D01*
X201557143Y-97594000D01*
X201600000Y-97674000D01*
X203785714Y-100586000D02*
X203785714Y-99746000D01*
X203185715Y-99746000D02*
X203014286Y-99746000D01*
X202928572Y-99786000D01*
X202842858Y-99866000D01*
X202800000Y-100026000D01*
X202800000Y-100306000D01*
X202842858Y-100466000D01*
X202928572Y-100546000D01*
X203014286Y-100586000D01*
X203185715Y-100586000D01*
X203271429Y-100546000D01*
X203357143Y-100466000D01*
X203400000Y-100306000D01*
X203400000Y-100026000D01*
X203357143Y-99866000D01*
X203271429Y-99786000D01*
X203185715Y-99746000D01*
X201985715Y-99746000D02*
X202414286Y-99746000D01*
X202457143Y-100146000D01*
X202414286Y-100106000D01*
X202328572Y-100066000D01*
X202114286Y-100066000D01*
X202028572Y-100106000D01*
X201985715Y-100146000D01*
X201942858Y-100226000D01*
X201942858Y-100426000D01*
X201985715Y-100506000D01*
X202028572Y-100546000D01*
X202114286Y-100586000D01*
X202328572Y-100586000D01*
X202414286Y-100546000D01*
X202457143Y-100506000D01*
X203785714Y-103138000D02*
X203785714Y-102298000D01*
X203185715Y-102298000D02*
X203014286Y-102298000D01*
X202928572Y-102338000D01*
X202842858Y-102418000D01*
X202800000Y-102578000D01*
X202800000Y-102858000D01*
X202842858Y-103018000D01*
X202928572Y-103098000D01*
X203014286Y-103138000D01*
X203185715Y-103138000D01*
X203271429Y-103098000D01*
X203357143Y-103018000D01*
X203400000Y-102858000D01*
X203400000Y-102578000D01*
X203357143Y-102418000D01*
X203271429Y-102338000D01*
X203185715Y-102298000D01*
X202028572Y-102578000D02*
X202028572Y-103138000D01*
X202242858Y-102258000D02*
X202457143Y-102858000D01*
X201900001Y-102858000D01*
X203785714Y-105690000D02*
X203785714Y-104850000D01*
X203185715Y-104850000D02*
X203014286Y-104850000D01*
X202928572Y-104890000D01*
X202842858Y-104970000D01*
X202800000Y-105130000D01*
X202800000Y-105410000D01*
X202842858Y-105570000D01*
X202928572Y-105650000D01*
X203014286Y-105690000D01*
X203185715Y-105690000D01*
X203271429Y-105650000D01*
X203357143Y-105570000D01*
X203400000Y-105410000D01*
X203400000Y-105130000D01*
X203357143Y-104970000D01*
X203271429Y-104890000D01*
X203185715Y-104850000D01*
X202242858Y-104850000D02*
X202157143Y-104850000D01*
X202071429Y-104890000D01*
X202028572Y-104930000D01*
X201985715Y-105010000D01*
X201942858Y-105170000D01*
X201942858Y-105370000D01*
X201985715Y-105530000D01*
X202028572Y-105610000D01*
X202071429Y-105650000D01*
X202157143Y-105690000D01*
X202242858Y-105690000D01*
X202328572Y-105650000D01*
X202371429Y-105610000D01*
X202414286Y-105530000D01*
X202457143Y-105370000D01*
X202457143Y-105170000D01*
X202414286Y-105010000D01*
X202371429Y-104930000D01*
X202328572Y-104890000D01*
X202242858Y-104850000D01*
X203785714Y-108242000D02*
X203785714Y-107402000D01*
X203185715Y-107402000D02*
X203014286Y-107402000D01*
X202928572Y-107442000D01*
X202842858Y-107522000D01*
X202800000Y-107682000D01*
X202800000Y-107962000D01*
X202842858Y-108122000D01*
X202928572Y-108202000D01*
X203014286Y-108242000D01*
X203185715Y-108242000D01*
X203271429Y-108202000D01*
X203357143Y-108122000D01*
X203400000Y-107962000D01*
X203400000Y-107682000D01*
X203357143Y-107522000D01*
X203271429Y-107442000D01*
X203185715Y-107402000D01*
X202457143Y-107482000D02*
X202414286Y-107442000D01*
X202328572Y-107402000D01*
X202114286Y-107402000D01*
X202028572Y-107442000D01*
X201985715Y-107482000D01*
X201942858Y-107562000D01*
X201942858Y-107642000D01*
X201985715Y-107762000D01*
X202500001Y-108242000D01*
X201942858Y-108242000D01*
X203785714Y-110794000D02*
X203785714Y-109954000D01*
X203185715Y-109954000D02*
X203014286Y-109954000D01*
X202928572Y-109994000D01*
X202842858Y-110074000D01*
X202800000Y-110234000D01*
X202800000Y-110514000D01*
X202842858Y-110674000D01*
X202928572Y-110754000D01*
X203014286Y-110794000D01*
X203185715Y-110794000D01*
X203271429Y-110754000D01*
X203357143Y-110674000D01*
X203400000Y-110514000D01*
X203400000Y-110234000D01*
X203357143Y-110074000D01*
X203271429Y-109994000D01*
X203185715Y-109954000D01*
X201942858Y-110794000D02*
X202457143Y-110794000D01*
X202200001Y-110794000D02*
X202200001Y-109954000D01*
X202285715Y-110074000D01*
X202371429Y-110154000D01*
X202457143Y-110194000D01*
X201171429Y-110234000D02*
X201171429Y-110794000D01*
X201385715Y-109914000D02*
X201600000Y-110514000D01*
X201042858Y-110514000D01*
X203785714Y-113346000D02*
X203785714Y-112506000D01*
X203185715Y-112506000D02*
X203014286Y-112506000D01*
X202928572Y-112546000D01*
X202842858Y-112626000D01*
X202800000Y-112786000D01*
X202800000Y-113066000D01*
X202842858Y-113226000D01*
X202928572Y-113306000D01*
X203014286Y-113346000D01*
X203185715Y-113346000D01*
X203271429Y-113306000D01*
X203357143Y-113226000D01*
X203400000Y-113066000D01*
X203400000Y-112786000D01*
X203357143Y-112626000D01*
X203271429Y-112546000D01*
X203185715Y-112506000D01*
X201942858Y-113346000D02*
X202457143Y-113346000D01*
X202200001Y-113346000D02*
X202200001Y-112506000D01*
X202285715Y-112626000D01*
X202371429Y-112706000D01*
X202457143Y-112746000D01*
X201600000Y-112586000D02*
X201557143Y-112546000D01*
X201471429Y-112506000D01*
X201257143Y-112506000D01*
X201171429Y-112546000D01*
X201128572Y-112586000D01*
X201085715Y-112666000D01*
X201085715Y-112746000D01*
X201128572Y-112866000D01*
X201642858Y-113346000D01*
X201085715Y-113346000D01*
X203785714Y-115898000D02*
X203785714Y-115058000D01*
X203185715Y-115058000D02*
X203014286Y-115058000D01*
X202928572Y-115098000D01*
X202842858Y-115178000D01*
X202800000Y-115338000D01*
X202800000Y-115618000D01*
X202842858Y-115778000D01*
X202928572Y-115858000D01*
X203014286Y-115898000D01*
X203185715Y-115898000D01*
X203271429Y-115858000D01*
X203357143Y-115778000D01*
X203400000Y-115618000D01*
X203400000Y-115338000D01*
X203357143Y-115178000D01*
X203271429Y-115098000D01*
X203185715Y-115058000D01*
X201942858Y-115898000D02*
X202457143Y-115898000D01*
X202200001Y-115898000D02*
X202200001Y-115058000D01*
X202285715Y-115178000D01*
X202371429Y-115258000D01*
X202457143Y-115298000D01*
X201642858Y-115058000D02*
X201085715Y-115058000D01*
X201385715Y-115378000D01*
X201257143Y-115378000D01*
X201171429Y-115418000D01*
X201128572Y-115458000D01*
X201085715Y-115538000D01*
X201085715Y-115738000D01*
X201128572Y-115818000D01*
X201171429Y-115858000D01*
X201257143Y-115898000D01*
X201514286Y-115898000D01*
X201600000Y-115858000D01*
X201642858Y-115818000D01*
X203785714Y-118450000D02*
X203785714Y-117610000D01*
X203185715Y-117610000D02*
X203014286Y-117610000D01*
X202928572Y-117650000D01*
X202842858Y-117730000D01*
X202800000Y-117890000D01*
X202800000Y-118170000D01*
X202842858Y-118330000D01*
X202928572Y-118410000D01*
X203014286Y-118450000D01*
X203185715Y-118450000D01*
X203271429Y-118410000D01*
X203357143Y-118330000D01*
X203400000Y-118170000D01*
X203400000Y-117890000D01*
X203357143Y-117730000D01*
X203271429Y-117650000D01*
X203185715Y-117610000D01*
X201942858Y-118450000D02*
X202457143Y-118450000D01*
X202200001Y-118450000D02*
X202200001Y-117610000D01*
X202285715Y-117730000D01*
X202371429Y-117810000D01*
X202457143Y-117850000D01*
X201128572Y-117610000D02*
X201557143Y-117610000D01*
X201600000Y-118010000D01*
X201557143Y-117970000D01*
X201471429Y-117930000D01*
X201257143Y-117930000D01*
X201171429Y-117970000D01*
X201128572Y-118010000D01*
X201085715Y-118090000D01*
X201085715Y-118290000D01*
X201128572Y-118370000D01*
X201171429Y-118410000D01*
X201257143Y-118450000D01*
X201471429Y-118450000D01*
X201557143Y-118410000D01*
X201600000Y-118370000D01*
D11*
X184996429Y-112434714D02*
X183996429Y-112434714D01*
X183567858Y-114006143D02*
X184996429Y-114006143D01*
X184996429Y-111006143D01*
X183567858Y-111006143D01*
X182425000Y-113863286D02*
X181996429Y-114006143D01*
X181282143Y-114006143D01*
X180996429Y-113863286D01*
X180853572Y-113720429D01*
X180710715Y-113434714D01*
X180710715Y-113149000D01*
X180853572Y-112863286D01*
X180996429Y-112720429D01*
X181282143Y-112577571D01*
X181853572Y-112434714D01*
X182139286Y-112291857D01*
X182282143Y-112149000D01*
X182425000Y-111863286D01*
X182425000Y-111577571D01*
X182282143Y-111291857D01*
X182139286Y-111149000D01*
X181853572Y-111006143D01*
X181139286Y-111006143D01*
X180710715Y-111149000D01*
X179710715Y-111006143D02*
X177710715Y-114006143D01*
X177710715Y-111006143D02*
X179710715Y-114006143D01*
X176710714Y-113149000D02*
X175282143Y-113149000D01*
X176996429Y-114006143D02*
X175996429Y-111006143D01*
X174996429Y-114006143D01*
X172282143Y-114006143D02*
X173282143Y-112577571D01*
X173996428Y-114006143D02*
X173996428Y-111006143D01*
X172853571Y-111006143D01*
X172567857Y-111149000D01*
X172425000Y-111291857D01*
X172282143Y-111577571D01*
X172282143Y-112006143D01*
X172425000Y-112291857D01*
X172567857Y-112434714D01*
X172853571Y-112577571D01*
X173996428Y-112577571D01*
X169139286Y-111006143D02*
X168139286Y-114006143D01*
X167139286Y-111006143D01*
X164996428Y-113863286D02*
X165282142Y-114006143D01*
X165853571Y-114006143D01*
X166139285Y-113863286D01*
X166282142Y-113577571D01*
X166282142Y-112434714D01*
X166139285Y-112149000D01*
X165853571Y-112006143D01*
X165282142Y-112006143D01*
X164996428Y-112149000D01*
X164853571Y-112434714D01*
X164853571Y-112720429D01*
X166282142Y-113006143D01*
X163567856Y-114006143D02*
X163567856Y-112006143D01*
X163567856Y-112577571D02*
X163424999Y-112291857D01*
X163282142Y-112149000D01*
X162996428Y-112006143D01*
X162710713Y-112006143D01*
X161710713Y-113720429D02*
X161567856Y-113863286D01*
X161710713Y-114006143D01*
X161853570Y-113863286D01*
X161710713Y-113720429D01*
X161710713Y-114006143D01*
X160424999Y-111291857D02*
X160282142Y-111149000D01*
X159996428Y-111006143D01*
X159282142Y-111006143D01*
X158996428Y-111149000D01*
X158853571Y-111291857D01*
X158710714Y-111577571D01*
X158710714Y-111863286D01*
X158853571Y-112291857D01*
X160567857Y-114006143D01*
X158710714Y-114006143D01*
X156853571Y-111006143D02*
X156567856Y-111006143D01*
X156282142Y-111149000D01*
X156139285Y-111291857D01*
X155996428Y-111577571D01*
X155853571Y-112149000D01*
X155853571Y-112863286D01*
X155996428Y-113434714D01*
X156139285Y-113720429D01*
X156282142Y-113863286D01*
X156567856Y-114006143D01*
X156853571Y-114006143D01*
X157139285Y-113863286D01*
X157282142Y-113720429D01*
X157424999Y-113434714D01*
X157567856Y-112863286D01*
X157567856Y-112149000D01*
X157424999Y-111577571D01*
X157282142Y-111291857D01*
X157139285Y-111149000D01*
X156853571Y-111006143D01*
X152996428Y-114006143D02*
X154710713Y-114006143D01*
X153853571Y-114006143D02*
X153853571Y-111006143D01*
X154139285Y-111434714D01*
X154424999Y-111720429D01*
X154710713Y-111863286D01*
X150424999Y-111006143D02*
X150996428Y-111006143D01*
X151282142Y-111149000D01*
X151424999Y-111291857D01*
X151710713Y-111720429D01*
X151853570Y-112291857D01*
X151853570Y-113434714D01*
X151710713Y-113720429D01*
X151567856Y-113863286D01*
X151282142Y-114006143D01*
X150710713Y-114006143D01*
X150424999Y-113863286D01*
X150282142Y-113720429D01*
X150139285Y-113434714D01*
X150139285Y-112720429D01*
X150282142Y-112434714D01*
X150424999Y-112291857D01*
X150710713Y-112149000D01*
X151282142Y-112149000D01*
X151567856Y-112291857D01*
X151710713Y-112434714D01*
X151853570Y-112720429D01*
X148282142Y-111006143D02*
X147996427Y-111006143D01*
X147710713Y-111149000D01*
X147567856Y-111291857D01*
X147424999Y-111577571D01*
X147282142Y-112149000D01*
X147282142Y-112863286D01*
X147424999Y-113434714D01*
X147567856Y-113720429D01*
X147710713Y-113863286D01*
X147996427Y-114006143D01*
X148282142Y-114006143D01*
X148567856Y-113863286D01*
X148710713Y-113720429D01*
X148853570Y-113434714D01*
X148996427Y-112863286D01*
X148996427Y-112149000D01*
X148853570Y-111577571D01*
X148710713Y-111291857D01*
X148567856Y-111149000D01*
X148282142Y-111006143D01*
X145567856Y-112291857D02*
X145853570Y-112149000D01*
X145996427Y-112006143D01*
X146139284Y-111720429D01*
X146139284Y-111577571D01*
X145996427Y-111291857D01*
X145853570Y-111149000D01*
X145567856Y-111006143D01*
X144996427Y-111006143D01*
X144710713Y-111149000D01*
X144567856Y-111291857D01*
X144424999Y-111577571D01*
X144424999Y-111720429D01*
X144567856Y-112006143D01*
X144710713Y-112149000D01*
X144996427Y-112291857D01*
X145567856Y-112291857D01*
X145853570Y-112434714D01*
X145996427Y-112577571D01*
X146139284Y-112863286D01*
X146139284Y-113434714D01*
X145996427Y-113720429D01*
X145853570Y-113863286D01*
X145567856Y-114006143D01*
X144996427Y-114006143D01*
X144710713Y-113863286D01*
X144567856Y-113720429D01*
X144424999Y-113434714D01*
X144424999Y-112863286D01*
X144567856Y-112577571D01*
X144710713Y-112434714D01*
X144996427Y-112291857D01*
X142567856Y-111006143D02*
X142282141Y-111006143D01*
X141996427Y-111149000D01*
X141853570Y-111291857D01*
X141710713Y-111577571D01*
X141567856Y-112149000D01*
X141567856Y-112863286D01*
X141710713Y-113434714D01*
X141853570Y-113720429D01*
X141996427Y-113863286D01*
X142282141Y-114006143D01*
X142567856Y-114006143D01*
X142853570Y-113863286D01*
X142996427Y-113720429D01*
X143139284Y-113434714D01*
X143282141Y-112863286D01*
X143282141Y-112149000D01*
X143139284Y-111577571D01*
X142996427Y-111291857D01*
X142853570Y-111149000D01*
X142567856Y-111006143D01*
X138996427Y-112006143D02*
X138996427Y-114006143D01*
X139710713Y-110863286D02*
X140424998Y-113006143D01*
X138567856Y-113006143D01*
D12*
X183515691Y-115195310D02*
X183439976Y-115233405D01*
X183313786Y-115233405D01*
X183263310Y-115195310D01*
X183238072Y-115157214D01*
X183212833Y-115081024D01*
X183212833Y-115004833D01*
X183238072Y-114928643D01*
X183263310Y-114890548D01*
X183313786Y-114852452D01*
X183414738Y-114814357D01*
X183465214Y-114776262D01*
X183490453Y-114738167D01*
X183515691Y-114661976D01*
X183515691Y-114585786D01*
X183490453Y-114509595D01*
X183465214Y-114471500D01*
X183414738Y-114433405D01*
X183288548Y-114433405D01*
X183212833Y-114471500D01*
X182985691Y-115233405D02*
X182985691Y-114433405D01*
X182783786Y-114433405D01*
X182733310Y-114471500D01*
X182708071Y-114509595D01*
X182682833Y-114585786D01*
X182682833Y-114700071D01*
X182708071Y-114776262D01*
X182733310Y-114814357D01*
X182783786Y-114852452D01*
X182985691Y-114852452D01*
X182455691Y-115233405D02*
X182455691Y-114433405D01*
X182152833Y-115233405D02*
X182379976Y-114776262D01*
X182152833Y-114433405D02*
X182455691Y-114890548D01*
X181925691Y-114814357D02*
X181521881Y-114814357D01*
X181521881Y-115042929D02*
X181925691Y-115042929D01*
X181269501Y-115233405D02*
X181269501Y-114433405D01*
X181143310Y-114433405D01*
X181067596Y-114471500D01*
X181017120Y-114547690D01*
X180991881Y-114623881D01*
X180966643Y-114776262D01*
X180966643Y-114890548D01*
X180991881Y-115042929D01*
X181017120Y-115119119D01*
X181067596Y-115195310D01*
X181143310Y-115233405D01*
X181269501Y-115233405D01*
X180512358Y-114433405D02*
X180613310Y-114433405D01*
X180663786Y-114471500D01*
X180689024Y-114509595D01*
X180739501Y-114623881D01*
X180764739Y-114776262D01*
X180764739Y-115081024D01*
X180739501Y-115157214D01*
X180714262Y-115195310D01*
X180663786Y-115233405D01*
X180562834Y-115233405D01*
X180512358Y-115195310D01*
X180487120Y-115157214D01*
X180461881Y-115081024D01*
X180461881Y-114890548D01*
X180487120Y-114814357D01*
X180512358Y-114776262D01*
X180562834Y-114738167D01*
X180663786Y-114738167D01*
X180714262Y-114776262D01*
X180739501Y-114814357D01*
X180764739Y-114890548D01*
X179830929Y-114433405D02*
X179830929Y-115081024D01*
X179805690Y-115157214D01*
X179780452Y-115195310D01*
X179729976Y-115233405D01*
X179629024Y-115233405D01*
X179578548Y-115195310D01*
X179553309Y-115157214D01*
X179528071Y-115081024D01*
X179528071Y-114433405D01*
X179300929Y-115195310D02*
X179225214Y-115233405D01*
X179099024Y-115233405D01*
X179048548Y-115195310D01*
X179023310Y-115157214D01*
X178998071Y-115081024D01*
X178998071Y-115004833D01*
X179023310Y-114928643D01*
X179048548Y-114890548D01*
X179099024Y-114852452D01*
X179199976Y-114814357D01*
X179250452Y-114776262D01*
X179275691Y-114738167D01*
X179300929Y-114661976D01*
X179300929Y-114585786D01*
X179275691Y-114509595D01*
X179250452Y-114471500D01*
X179199976Y-114433405D01*
X179073786Y-114433405D01*
X178998071Y-114471500D01*
X178594262Y-114814357D02*
X178518548Y-114852452D01*
X178493309Y-114890548D01*
X178468071Y-114966738D01*
X178468071Y-115081024D01*
X178493309Y-115157214D01*
X178518548Y-115195310D01*
X178569024Y-115233405D01*
X178770929Y-115233405D01*
X178770929Y-114433405D01*
X178594262Y-114433405D01*
X178543786Y-114471500D01*
X178518548Y-114509595D01*
X178493309Y-114585786D01*
X178493309Y-114661976D01*
X178518548Y-114738167D01*
X178543786Y-114776262D01*
X178594262Y-114814357D01*
X178770929Y-114814357D01*
X178240929Y-114814357D02*
X177837119Y-114814357D01*
X177837119Y-115042929D02*
X178240929Y-115042929D01*
X177584739Y-115233405D02*
X177584739Y-114433405D01*
X177458548Y-114433405D01*
X177382834Y-114471500D01*
X177332358Y-114547690D01*
X177307119Y-114623881D01*
X177281881Y-114776262D01*
X177281881Y-114890548D01*
X177307119Y-115042929D01*
X177332358Y-115119119D01*
X177382834Y-115195310D01*
X177458548Y-115233405D01*
X177584739Y-115233405D01*
X176827596Y-114700071D02*
X176827596Y-115233405D01*
X176953786Y-114395310D02*
X177079977Y-114966738D01*
X176751881Y-114966738D01*
X175843309Y-115233405D02*
X176019976Y-114852452D01*
X176146167Y-115233405D02*
X176146167Y-114433405D01*
X175944262Y-114433405D01*
X175893786Y-114471500D01*
X175868547Y-114509595D01*
X175843309Y-114585786D01*
X175843309Y-114700071D01*
X175868547Y-114776262D01*
X175893786Y-114814357D01*
X175944262Y-114852452D01*
X176146167Y-114852452D01*
X175616167Y-114814357D02*
X175212357Y-114814357D01*
X175212357Y-115042929D02*
X175616167Y-115042929D01*
X174959977Y-115233405D02*
X174959977Y-114433405D01*
X174833786Y-114433405D01*
X174758072Y-114471500D01*
X174707596Y-114547690D01*
X174682357Y-114623881D01*
X174657119Y-114776262D01*
X174657119Y-114890548D01*
X174682357Y-115042929D01*
X174707596Y-115119119D01*
X174758072Y-115195310D01*
X174833786Y-115233405D01*
X174959977Y-115233405D01*
X174152357Y-115233405D02*
X174455215Y-115233405D01*
X174303786Y-115233405D02*
X174303786Y-114433405D01*
X174354262Y-114547690D01*
X174404738Y-114623881D01*
X174455215Y-114661976D01*
X173698072Y-114433405D02*
X173799024Y-114433405D01*
X173849500Y-114471500D01*
X173874738Y-114509595D01*
X173925215Y-114623881D01*
X173950453Y-114776262D01*
X173950453Y-115081024D01*
X173925215Y-115157214D01*
X173899976Y-115195310D01*
X173849500Y-115233405D01*
X173748548Y-115233405D01*
X173698072Y-115195310D01*
X173672834Y-115157214D01*
X173647595Y-115081024D01*
X173647595Y-114890548D01*
X173672834Y-114814357D01*
X173698072Y-114776262D01*
X173748548Y-114738167D01*
X173849500Y-114738167D01*
X173899976Y-114776262D01*
X173925215Y-114814357D01*
X173950453Y-114890548D01*
X172739023Y-114471500D02*
X172789500Y-114433405D01*
X172865214Y-114433405D01*
X172940928Y-114471500D01*
X172991404Y-114547690D01*
X173016643Y-114623881D01*
X173041881Y-114776262D01*
X173041881Y-114890548D01*
X173016643Y-115042929D01*
X172991404Y-115119119D01*
X172940928Y-115195310D01*
X172865214Y-115233405D01*
X172814738Y-115233405D01*
X172739023Y-115195310D01*
X172713785Y-115157214D01*
X172713785Y-114890548D01*
X172814738Y-114890548D01*
X172486643Y-114814357D02*
X172082833Y-114814357D01*
X172082833Y-115042929D02*
X172486643Y-115042929D01*
X171830453Y-115233405D02*
X171830453Y-114433405D01*
X171704262Y-114433405D01*
X171628548Y-114471500D01*
X171578072Y-114547690D01*
X171552833Y-114623881D01*
X171527595Y-114776262D01*
X171527595Y-114890548D01*
X171552833Y-115042929D01*
X171578072Y-115119119D01*
X171628548Y-115195310D01*
X171704262Y-115233405D01*
X171830453Y-115233405D01*
X171325691Y-114509595D02*
X171300453Y-114471500D01*
X171249976Y-114433405D01*
X171123786Y-114433405D01*
X171073310Y-114471500D01*
X171048072Y-114509595D01*
X171022833Y-114585786D01*
X171022833Y-114661976D01*
X171048072Y-114776262D01*
X171350929Y-115233405D01*
X171022833Y-115233405D01*
X170215214Y-114814357D02*
X170139500Y-114852452D01*
X170114261Y-114890548D01*
X170089023Y-114966738D01*
X170089023Y-115081024D01*
X170114261Y-115157214D01*
X170139500Y-115195310D01*
X170189976Y-115233405D01*
X170391881Y-115233405D01*
X170391881Y-114433405D01*
X170215214Y-114433405D01*
X170164738Y-114471500D01*
X170139500Y-114509595D01*
X170114261Y-114585786D01*
X170114261Y-114661976D01*
X170139500Y-114738167D01*
X170164738Y-114776262D01*
X170215214Y-114814357D01*
X170391881Y-114814357D01*
X169861881Y-114814357D02*
X169458071Y-114814357D01*
X169458071Y-115042929D02*
X169861881Y-115042929D01*
X169205691Y-115233405D02*
X169205691Y-114433405D01*
X169079500Y-114433405D01*
X169003786Y-114471500D01*
X168953310Y-114547690D01*
X168928071Y-114623881D01*
X168902833Y-114776262D01*
X168902833Y-114890548D01*
X168928071Y-115042929D01*
X168953310Y-115119119D01*
X169003786Y-115195310D01*
X169079500Y-115233405D01*
X169205691Y-115233405D01*
X168398071Y-115233405D02*
X168700929Y-115233405D01*
X168549500Y-115233405D02*
X168549500Y-114433405D01*
X168599976Y-114547690D01*
X168650452Y-114623881D01*
X168700929Y-114661976D01*
X167918548Y-114433405D02*
X168170929Y-114433405D01*
X168196167Y-114814357D01*
X168170929Y-114776262D01*
X168120452Y-114738167D01*
X167994262Y-114738167D01*
X167943786Y-114776262D01*
X167918548Y-114814357D01*
X167893309Y-114890548D01*
X167893309Y-115081024D01*
X167918548Y-115157214D01*
X167943786Y-115195310D01*
X167994262Y-115233405D01*
X168120452Y-115233405D01*
X168170929Y-115195310D01*
X168196167Y-115157214D01*
D13*
G36*
X164246560Y-118069360D02*
X164216080Y-118054120D01*
X164152580Y-118013480D01*
X164058600Y-117952520D01*
X163949380Y-117878860D01*
X163837620Y-117802660D01*
X163748720Y-117741700D01*
X163685220Y-117701060D01*
X163657280Y-117688360D01*
X163644580Y-117693440D01*
X163591240Y-117718840D01*
X163515040Y-117756940D01*
X163471860Y-117779800D01*
X163400740Y-117810280D01*
X163367720Y-117815360D01*
X163360100Y-117807740D01*
X163334700Y-117754400D01*
X163296600Y-117662960D01*
X163243260Y-117541040D01*
X163182300Y-117401340D01*
X163118800Y-117248940D01*
X163052760Y-117094000D01*
X162991800Y-116944140D01*
X162938460Y-116812060D01*
X162895280Y-116702840D01*
X162864800Y-116629180D01*
X162854640Y-116596160D01*
X162857180Y-116588540D01*
X162892740Y-116555520D01*
X162953700Y-116509800D01*
X163085780Y-116403120D01*
X163215320Y-116240560D01*
X163294060Y-116055140D01*
X163322000Y-115851940D01*
X163299140Y-115661440D01*
X163222940Y-115478560D01*
X163095940Y-115316000D01*
X162943540Y-115194080D01*
X162763200Y-115115340D01*
X162560000Y-115092480D01*
X162366960Y-115112800D01*
X162181540Y-115186460D01*
X162016440Y-115310920D01*
X161947860Y-115392200D01*
X161851340Y-115557300D01*
X161798000Y-115735100D01*
X161790380Y-115780820D01*
X161800540Y-115976400D01*
X161856420Y-116161820D01*
X161960560Y-116329460D01*
X162102800Y-116466620D01*
X162120580Y-116481860D01*
X162189160Y-116530120D01*
X162232340Y-116565680D01*
X162267900Y-116593620D01*
X162018980Y-117193060D01*
X161978340Y-117287040D01*
X161909760Y-117452140D01*
X161851340Y-117591840D01*
X161803080Y-117703600D01*
X161770060Y-117779800D01*
X161754820Y-117810280D01*
X161752280Y-117810280D01*
X161731960Y-117815360D01*
X161686240Y-117797580D01*
X161602420Y-117756940D01*
X161546540Y-117729000D01*
X161483040Y-117698520D01*
X161455100Y-117688360D01*
X161429700Y-117701060D01*
X161368740Y-117739160D01*
X161279840Y-117800120D01*
X161173160Y-117873780D01*
X161071560Y-117942360D01*
X160977580Y-118003320D01*
X160909000Y-118046500D01*
X160875980Y-118064280D01*
X160870900Y-118064280D01*
X160840420Y-118049040D01*
X160787080Y-118003320D01*
X160705800Y-117927120D01*
X160588960Y-117812820D01*
X160571180Y-117795040D01*
X160477200Y-117698520D01*
X160401000Y-117617240D01*
X160347660Y-117561360D01*
X160329880Y-117533420D01*
X160329880Y-117533420D01*
X160347660Y-117500400D01*
X160390840Y-117434360D01*
X160451800Y-117337840D01*
X160528000Y-117226080D01*
X160726120Y-116939060D01*
X160616900Y-116667280D01*
X160583880Y-116583460D01*
X160540700Y-116481860D01*
X160510220Y-116410740D01*
X160494980Y-116377720D01*
X160464500Y-116367560D01*
X160390840Y-116349780D01*
X160281620Y-116326920D01*
X160152080Y-116304060D01*
X160030160Y-116281200D01*
X159920940Y-116260880D01*
X159839660Y-116245640D01*
X159804100Y-116238020D01*
X159793940Y-116232940D01*
X159788860Y-116215160D01*
X159783780Y-116177060D01*
X159781240Y-116111020D01*
X159778700Y-116004340D01*
X159778700Y-115851940D01*
X159778700Y-115834160D01*
X159781240Y-115686840D01*
X159783780Y-115572540D01*
X159786320Y-115496340D01*
X159791400Y-115465860D01*
X159791400Y-115465860D01*
X159826960Y-115458240D01*
X159905700Y-115440460D01*
X160014920Y-115420140D01*
X160147000Y-115394740D01*
X160157160Y-115392200D01*
X160286700Y-115366800D01*
X160398460Y-115343940D01*
X160474660Y-115326160D01*
X160507680Y-115316000D01*
X160515300Y-115305840D01*
X160540700Y-115255040D01*
X160578800Y-115173760D01*
X160621980Y-115074700D01*
X160665160Y-114970560D01*
X160703260Y-114879120D01*
X160728660Y-114808000D01*
X160736280Y-114777520D01*
X160733740Y-114777520D01*
X160715960Y-114744500D01*
X160670240Y-114675920D01*
X160606740Y-114581940D01*
X160528000Y-114470180D01*
X160522920Y-114462560D01*
X160446720Y-114350800D01*
X160385760Y-114256820D01*
X160345120Y-114188240D01*
X160329880Y-114157760D01*
X160329880Y-114157760D01*
X160355280Y-114124740D01*
X160411160Y-114061240D01*
X160492440Y-113974880D01*
X160591500Y-113878360D01*
X160621980Y-113847880D01*
X160728660Y-113741200D01*
X160804860Y-113672620D01*
X160850580Y-113634520D01*
X160873440Y-113626900D01*
X160875980Y-113626900D01*
X160909000Y-113647220D01*
X160977580Y-113692940D01*
X161074100Y-113758980D01*
X161185860Y-113835180D01*
X161193480Y-113840260D01*
X161305240Y-113916460D01*
X161399220Y-113979960D01*
X161465260Y-114023140D01*
X161493200Y-114040920D01*
X161498280Y-114040920D01*
X161544000Y-114025680D01*
X161622740Y-113997740D01*
X161719260Y-113962180D01*
X161823400Y-113919000D01*
X161914840Y-113880900D01*
X161985960Y-113847880D01*
X162018980Y-113830100D01*
X162018980Y-113827560D01*
X162031680Y-113789460D01*
X162052000Y-113705640D01*
X162074860Y-113591340D01*
X162100260Y-113454180D01*
X162105340Y-113431320D01*
X162130740Y-113299240D01*
X162151060Y-113190020D01*
X162166300Y-113113820D01*
X162173920Y-113083340D01*
X162194240Y-113078260D01*
X162257740Y-113073180D01*
X162356800Y-113070640D01*
X162476180Y-113070640D01*
X162600640Y-113070640D01*
X162725100Y-113073180D01*
X162829240Y-113078260D01*
X162905440Y-113083340D01*
X162935920Y-113088420D01*
X162935920Y-113090960D01*
X162948620Y-113131600D01*
X162966400Y-113215420D01*
X162989260Y-113329720D01*
X163017200Y-113466880D01*
X163022280Y-113492280D01*
X163045140Y-113624360D01*
X163068000Y-113731040D01*
X163083240Y-113807240D01*
X163093400Y-113835180D01*
X163103560Y-113842800D01*
X163159440Y-113865660D01*
X163248340Y-113903760D01*
X163357560Y-113946940D01*
X163611560Y-114051080D01*
X163923980Y-113835180D01*
X163954460Y-113817400D01*
X164066220Y-113741200D01*
X164157660Y-113677700D01*
X164221160Y-113637060D01*
X164249100Y-113621820D01*
X164251640Y-113624360D01*
X164282120Y-113649760D01*
X164343080Y-113708180D01*
X164429440Y-113792000D01*
X164525960Y-113888520D01*
X164599620Y-113962180D01*
X164685980Y-114048540D01*
X164739320Y-114106960D01*
X164769800Y-114145060D01*
X164779960Y-114167920D01*
X164777420Y-114183160D01*
X164757100Y-114216180D01*
X164711380Y-114284760D01*
X164647880Y-114378740D01*
X164571680Y-114490500D01*
X164508180Y-114581940D01*
X164442140Y-114686080D01*
X164396420Y-114762280D01*
X164381180Y-114797840D01*
X164386260Y-114813080D01*
X164406580Y-114874040D01*
X164444680Y-114968020D01*
X164490400Y-115077240D01*
X164599620Y-115323620D01*
X164762180Y-115356640D01*
X164861240Y-115374420D01*
X164998400Y-115399820D01*
X165127940Y-115425220D01*
X165333680Y-115465860D01*
X165341300Y-116217700D01*
X165310820Y-116232940D01*
X165280340Y-116240560D01*
X165204140Y-116258340D01*
X165094920Y-116278660D01*
X164967920Y-116304060D01*
X164858700Y-116324380D01*
X164746940Y-116344700D01*
X164668200Y-116359940D01*
X164632640Y-116367560D01*
X164625020Y-116377720D01*
X164597080Y-116431060D01*
X164558980Y-116517420D01*
X164515800Y-116619020D01*
X164470080Y-116723160D01*
X164431980Y-116822220D01*
X164404040Y-116895880D01*
X164393880Y-116933980D01*
X164409120Y-116961920D01*
X164452300Y-117027960D01*
X164513260Y-117119400D01*
X164586920Y-117228620D01*
X164660580Y-117337840D01*
X164724080Y-117431820D01*
X164767260Y-117497860D01*
X164787580Y-117528340D01*
X164777420Y-117551200D01*
X164734240Y-117602000D01*
X164650420Y-117688360D01*
X164528500Y-117810280D01*
X164508180Y-117828060D01*
X164411660Y-117922040D01*
X164327840Y-117998240D01*
X164271960Y-118049040D01*
X164246560Y-118069360D01*
X164246560Y-118069360D01*
G37*
X164246560Y-118069360D02*
X164216080Y-118054120D01*
X164152580Y-118013480D01*
X164058600Y-117952520D01*
X163949380Y-117878860D01*
X163837620Y-117802660D01*
X163748720Y-117741700D01*
X163685220Y-117701060D01*
X163657280Y-117688360D01*
X163644580Y-117693440D01*
X163591240Y-117718840D01*
X163515040Y-117756940D01*
X163471860Y-117779800D01*
X163400740Y-117810280D01*
X163367720Y-117815360D01*
X163360100Y-117807740D01*
X163334700Y-117754400D01*
X163296600Y-117662960D01*
X163243260Y-117541040D01*
X163182300Y-117401340D01*
X163118800Y-117248940D01*
X163052760Y-117094000D01*
X162991800Y-116944140D01*
X162938460Y-116812060D01*
X162895280Y-116702840D01*
X162864800Y-116629180D01*
X162854640Y-116596160D01*
X162857180Y-116588540D01*
X162892740Y-116555520D01*
X162953700Y-116509800D01*
X163085780Y-116403120D01*
X163215320Y-116240560D01*
X163294060Y-116055140D01*
X163322000Y-115851940D01*
X163299140Y-115661440D01*
X163222940Y-115478560D01*
X163095940Y-115316000D01*
X162943540Y-115194080D01*
X162763200Y-115115340D01*
X162560000Y-115092480D01*
X162366960Y-115112800D01*
X162181540Y-115186460D01*
X162016440Y-115310920D01*
X161947860Y-115392200D01*
X161851340Y-115557300D01*
X161798000Y-115735100D01*
X161790380Y-115780820D01*
X161800540Y-115976400D01*
X161856420Y-116161820D01*
X161960560Y-116329460D01*
X162102800Y-116466620D01*
X162120580Y-116481860D01*
X162189160Y-116530120D01*
X162232340Y-116565680D01*
X162267900Y-116593620D01*
X162018980Y-117193060D01*
X161978340Y-117287040D01*
X161909760Y-117452140D01*
X161851340Y-117591840D01*
X161803080Y-117703600D01*
X161770060Y-117779800D01*
X161754820Y-117810280D01*
X161752280Y-117810280D01*
X161731960Y-117815360D01*
X161686240Y-117797580D01*
X161602420Y-117756940D01*
X161546540Y-117729000D01*
X161483040Y-117698520D01*
X161455100Y-117688360D01*
X161429700Y-117701060D01*
X161368740Y-117739160D01*
X161279840Y-117800120D01*
X161173160Y-117873780D01*
X161071560Y-117942360D01*
X160977580Y-118003320D01*
X160909000Y-118046500D01*
X160875980Y-118064280D01*
X160870900Y-118064280D01*
X160840420Y-118049040D01*
X160787080Y-118003320D01*
X160705800Y-117927120D01*
X160588960Y-117812820D01*
X160571180Y-117795040D01*
X160477200Y-117698520D01*
X160401000Y-117617240D01*
X160347660Y-117561360D01*
X160329880Y-117533420D01*
X160329880Y-117533420D01*
X160347660Y-117500400D01*
X160390840Y-117434360D01*
X160451800Y-117337840D01*
X160528000Y-117226080D01*
X160726120Y-116939060D01*
X160616900Y-116667280D01*
X160583880Y-116583460D01*
X160540700Y-116481860D01*
X160510220Y-116410740D01*
X160494980Y-116377720D01*
X160464500Y-116367560D01*
X160390840Y-116349780D01*
X160281620Y-116326920D01*
X160152080Y-116304060D01*
X160030160Y-116281200D01*
X159920940Y-116260880D01*
X159839660Y-116245640D01*
X159804100Y-116238020D01*
X159793940Y-116232940D01*
X159788860Y-116215160D01*
X159783780Y-116177060D01*
X159781240Y-116111020D01*
X159778700Y-116004340D01*
X159778700Y-115851940D01*
X159778700Y-115834160D01*
X159781240Y-115686840D01*
X159783780Y-115572540D01*
X159786320Y-115496340D01*
X159791400Y-115465860D01*
X159791400Y-115465860D01*
X159826960Y-115458240D01*
X159905700Y-115440460D01*
X160014920Y-115420140D01*
X160147000Y-115394740D01*
X160157160Y-115392200D01*
X160286700Y-115366800D01*
X160398460Y-115343940D01*
X160474660Y-115326160D01*
X160507680Y-115316000D01*
X160515300Y-115305840D01*
X160540700Y-115255040D01*
X160578800Y-115173760D01*
X160621980Y-115074700D01*
X160665160Y-114970560D01*
X160703260Y-114879120D01*
X160728660Y-114808000D01*
X160736280Y-114777520D01*
X160733740Y-114777520D01*
X160715960Y-114744500D01*
X160670240Y-114675920D01*
X160606740Y-114581940D01*
X160528000Y-114470180D01*
X160522920Y-114462560D01*
X160446720Y-114350800D01*
X160385760Y-114256820D01*
X160345120Y-114188240D01*
X160329880Y-114157760D01*
X160329880Y-114157760D01*
X160355280Y-114124740D01*
X160411160Y-114061240D01*
X160492440Y-113974880D01*
X160591500Y-113878360D01*
X160621980Y-113847880D01*
X160728660Y-113741200D01*
X160804860Y-113672620D01*
X160850580Y-113634520D01*
X160873440Y-113626900D01*
X160875980Y-113626900D01*
X160909000Y-113647220D01*
X160977580Y-113692940D01*
X161074100Y-113758980D01*
X161185860Y-113835180D01*
X161193480Y-113840260D01*
X161305240Y-113916460D01*
X161399220Y-113979960D01*
X161465260Y-114023140D01*
X161493200Y-114040920D01*
X161498280Y-114040920D01*
X161544000Y-114025680D01*
X161622740Y-113997740D01*
X161719260Y-113962180D01*
X161823400Y-113919000D01*
X161914840Y-113880900D01*
X161985960Y-113847880D01*
X162018980Y-113830100D01*
X162018980Y-113827560D01*
X162031680Y-113789460D01*
X162052000Y-113705640D01*
X162074860Y-113591340D01*
X162100260Y-113454180D01*
X162105340Y-113431320D01*
X162130740Y-113299240D01*
X162151060Y-113190020D01*
X162166300Y-113113820D01*
X162173920Y-113083340D01*
X162194240Y-113078260D01*
X162257740Y-113073180D01*
X162356800Y-113070640D01*
X162476180Y-113070640D01*
X162600640Y-113070640D01*
X162725100Y-113073180D01*
X162829240Y-113078260D01*
X162905440Y-113083340D01*
X162935920Y-113088420D01*
X162935920Y-113090960D01*
X162948620Y-113131600D01*
X162966400Y-113215420D01*
X162989260Y-113329720D01*
X163017200Y-113466880D01*
X163022280Y-113492280D01*
X163045140Y-113624360D01*
X163068000Y-113731040D01*
X163083240Y-113807240D01*
X163093400Y-113835180D01*
X163103560Y-113842800D01*
X163159440Y-113865660D01*
X163248340Y-113903760D01*
X163357560Y-113946940D01*
X163611560Y-114051080D01*
X163923980Y-113835180D01*
X163954460Y-113817400D01*
X164066220Y-113741200D01*
X164157660Y-113677700D01*
X164221160Y-113637060D01*
X164249100Y-113621820D01*
X164251640Y-113624360D01*
X164282120Y-113649760D01*
X164343080Y-113708180D01*
X164429440Y-113792000D01*
X164525960Y-113888520D01*
X164599620Y-113962180D01*
X164685980Y-114048540D01*
X164739320Y-114106960D01*
X164769800Y-114145060D01*
X164779960Y-114167920D01*
X164777420Y-114183160D01*
X164757100Y-114216180D01*
X164711380Y-114284760D01*
X164647880Y-114378740D01*
X164571680Y-114490500D01*
X164508180Y-114581940D01*
X164442140Y-114686080D01*
X164396420Y-114762280D01*
X164381180Y-114797840D01*
X164386260Y-114813080D01*
X164406580Y-114874040D01*
X164444680Y-114968020D01*
X164490400Y-115077240D01*
X164599620Y-115323620D01*
X164762180Y-115356640D01*
X164861240Y-115374420D01*
X164998400Y-115399820D01*
X165127940Y-115425220D01*
X165333680Y-115465860D01*
X165341300Y-116217700D01*
X165310820Y-116232940D01*
X165280340Y-116240560D01*
X165204140Y-116258340D01*
X165094920Y-116278660D01*
X164967920Y-116304060D01*
X164858700Y-116324380D01*
X164746940Y-116344700D01*
X164668200Y-116359940D01*
X164632640Y-116367560D01*
X164625020Y-116377720D01*
X164597080Y-116431060D01*
X164558980Y-116517420D01*
X164515800Y-116619020D01*
X164470080Y-116723160D01*
X164431980Y-116822220D01*
X164404040Y-116895880D01*
X164393880Y-116933980D01*
X164409120Y-116961920D01*
X164452300Y-117027960D01*
X164513260Y-117119400D01*
X164586920Y-117228620D01*
X164660580Y-117337840D01*
X164724080Y-117431820D01*
X164767260Y-117497860D01*
X164787580Y-117528340D01*
X164777420Y-117551200D01*
X164734240Y-117602000D01*
X164650420Y-117688360D01*
X164528500Y-117810280D01*
X164508180Y-117828060D01*
X164411660Y-117922040D01*
X164327840Y-117998240D01*
X164271960Y-118049040D01*
X164246560Y-118069360D01*
M02*
