G04 #@! TF.FileFunction,Copper,L1,Top,Signal*
%FSLAX46Y46*%
G04 Gerber Fmt 4.6, Leading zero omitted, Abs format (unit mm)*
G04 Created by KiCad (PCBNEW 4.0.2+dfsg1-stable) date 2016年08月04日 20時34分36秒*
%MOMM*%
G01*
G04 APERTURE LIST*
%ADD10C,0.100000*%
%ADD11R,2.000000X2.000000*%
%ADD12R,0.900000X1.700000*%
%ADD13C,6.000000*%
%ADD14C,1.501140*%
%ADD15O,3.000000X3.000000*%
%ADD16C,1.699260*%
%ADD17R,1.200000X1.600000*%
%ADD18C,1.300000*%
%ADD19R,1.300000X1.300000*%
%ADD20O,2.032000X2.540000*%
%ADD21C,5.000000*%
%ADD22C,2.540000*%
%ADD23O,1.600000X1.600000*%
%ADD24R,1.998980X0.899160*%
%ADD25R,1.998980X1.000760*%
%ADD26O,1.117600X1.905000*%
%ADD27R,1.117600X1.905000*%
%ADD28O,1.700000X2.000000*%
%ADD29R,0.800000X1.200000*%
%ADD30O,2.000000X1.700000*%
%ADD31C,1.998980*%
%ADD32O,1.400000X2.000000*%
%ADD33O,1.400000X1.700000*%
%ADD34R,0.900000X0.900000*%
%ADD35C,2.000000*%
%ADD36R,2.500000X2.000000*%
%ADD37R,1.000000X7.410000*%
%ADD38R,1.000000X6.410000*%
%ADD39C,1.397000*%
%ADD40R,1.600000X1.200000*%
%ADD41R,2.032000X2.032000*%
%ADD42O,2.032000X2.032000*%
%ADD43R,1.060000X0.650000*%
%ADD44C,0.600000*%
%ADD45C,0.508000*%
%ADD46C,0.203200*%
%ADD47C,1.270000*%
%ADD48C,0.635000*%
%ADD49C,0.762000*%
G04 APERTURE END LIST*
D10*
D11*
X182434500Y-116696500D03*
X182434500Y-106696500D03*
X166434500Y-106696500D03*
X166434500Y-116696500D03*
D12*
X143860000Y-96410000D03*
X143860000Y-114410000D03*
X145360000Y-96410000D03*
X145360000Y-114410000D03*
X146860000Y-96410000D03*
X146860000Y-114410000D03*
X148360000Y-96410000D03*
X148360000Y-114410000D03*
X149860000Y-96410000D03*
X149860000Y-114410000D03*
X151360000Y-96410000D03*
X151360000Y-114410000D03*
X152860000Y-96410000D03*
X152860000Y-114410000D03*
X154360000Y-96410000D03*
X154360000Y-114410000D03*
X155860000Y-96410000D03*
X155860000Y-114410000D03*
D13*
X150660000Y-104310000D03*
D14*
X176276860Y-132077880D03*
X173736860Y-132077880D03*
X171704860Y-132077880D03*
X169164860Y-132077880D03*
D15*
X179064000Y-133110000D03*
X166264000Y-133110000D03*
D16*
X177800000Y-116840000D03*
X180091080Y-116840000D03*
X175508920Y-116840000D03*
D17*
X175670000Y-113030000D03*
X179070000Y-113030000D03*
D18*
X179284000Y-125857000D03*
D19*
X176784000Y-125857000D03*
D20*
X167640000Y-106045000D03*
X170180000Y-106045000D03*
X172720000Y-106045000D03*
D21*
X195622399Y-125469729D03*
X197166131Y-134224670D03*
X205149206Y-128303467D03*
D22*
X198352522Y-126844655D03*
X199234655Y-131847478D03*
X201920353Y-128794733D03*
D23*
X183515000Y-129540000D03*
X186055000Y-129540000D03*
X188595000Y-129540000D03*
X191135000Y-129540000D03*
X191135000Y-121920000D03*
X188595000Y-121920000D03*
X186055000Y-121920000D03*
X183515000Y-121920000D03*
D24*
X167640000Y-121920000D03*
D25*
X167640000Y-119270780D03*
X175239680Y-119270780D03*
X175239680Y-121871740D03*
D26*
X169545000Y-95885000D03*
D27*
X171450000Y-95885000D03*
D26*
X173355000Y-95885000D03*
X175260000Y-95885000D03*
D28*
X155575000Y-92710000D03*
X153035000Y-92710000D03*
X150495000Y-92710000D03*
D29*
X145685000Y-92710000D03*
X147685000Y-92710000D03*
X146685000Y-92710000D03*
D30*
X139446000Y-115824000D03*
X139446000Y-118364000D03*
X139446000Y-120904000D03*
D28*
X167640000Y-101600000D03*
X172720000Y-101600000D03*
X170180000Y-101600000D03*
X175260000Y-101600000D03*
X177800000Y-101600000D03*
D31*
X193675000Y-130810000D03*
D28*
X186055000Y-91440000D03*
X188595000Y-91440000D03*
X191135000Y-91440000D03*
X176530000Y-91440000D03*
X179070000Y-91440000D03*
X181610000Y-91440000D03*
D32*
X194945000Y-91440000D03*
D33*
X197485000Y-91440000D03*
D34*
X180570000Y-98520000D03*
X180570000Y-94520000D03*
X180570000Y-97180000D03*
X180570000Y-95860000D03*
X177570000Y-97180000D03*
X177570000Y-98520000D03*
X177570000Y-94520000D03*
X177570000Y-95860000D03*
D35*
X155829000Y-123825000D03*
X164465000Y-123825000D03*
D36*
X150565000Y-129900000D03*
X140865000Y-129900000D03*
X147165000Y-124100000D03*
X150565000Y-124100000D03*
X140865000Y-124100000D03*
X143965000Y-124100000D03*
D37*
X169220000Y-145560000D03*
D38*
X171720000Y-145060000D03*
X173720000Y-145060000D03*
D37*
X176220000Y-145560000D03*
D39*
X144526000Y-121158000D03*
X141986000Y-121158000D03*
X149860000Y-121158000D03*
X147320000Y-121158000D03*
X183388000Y-134874000D03*
X183388000Y-132334000D03*
X185928000Y-134874000D03*
X185928000Y-132334000D03*
X188468000Y-135001000D03*
X188468000Y-132461000D03*
X191008000Y-135001000D03*
X191008000Y-132461000D03*
X196215000Y-121920000D03*
X198755000Y-121920000D03*
D35*
X155829000Y-126365000D03*
X164465000Y-126365000D03*
D39*
X163830000Y-108585000D03*
X158750000Y-108585000D03*
X163830000Y-100965000D03*
X158750000Y-100965000D03*
D17*
X143129000Y-118364000D03*
X146529000Y-118364000D03*
X148590000Y-118364000D03*
X151990000Y-118364000D03*
D40*
X160274000Y-123444000D03*
X160274000Y-126844000D03*
D19*
X144693000Y-134366000D03*
D18*
X147193000Y-134366000D03*
X152146000Y-134366000D03*
D19*
X154646000Y-134366000D03*
D30*
X205105000Y-118110000D03*
X205105000Y-107950000D03*
X205105000Y-110490000D03*
X205105000Y-115570000D03*
X205105000Y-113030000D03*
X205105000Y-102870000D03*
X205105000Y-105410000D03*
X205105000Y-100330000D03*
X205105000Y-97790000D03*
D19*
X181610000Y-120650000D03*
D18*
X179110000Y-120650000D03*
D30*
X197485000Y-118110000D03*
X197485000Y-107950000D03*
X197485000Y-110490000D03*
X197485000Y-115570000D03*
X197485000Y-113030000D03*
X197485000Y-102870000D03*
X197485000Y-105410000D03*
X197485000Y-100330000D03*
X197485000Y-97790000D03*
X192405000Y-118110000D03*
X192405000Y-107950000D03*
X192405000Y-110490000D03*
X192405000Y-115570000D03*
X192405000Y-113030000D03*
X192405000Y-102870000D03*
X192405000Y-105410000D03*
X192405000Y-100330000D03*
X192405000Y-97790000D03*
X194945000Y-118110000D03*
X194945000Y-107950000D03*
X194945000Y-110490000D03*
X194945000Y-115570000D03*
X194945000Y-113030000D03*
X194945000Y-102870000D03*
X194945000Y-105410000D03*
X194945000Y-100330000D03*
X194945000Y-97790000D03*
X200025000Y-118110000D03*
X200025000Y-107950000D03*
X200025000Y-110490000D03*
X200025000Y-115570000D03*
X200025000Y-113030000D03*
X200025000Y-102870000D03*
X200025000Y-105410000D03*
X200025000Y-100330000D03*
X200025000Y-97790000D03*
X187325000Y-118110000D03*
X187325000Y-107950000D03*
X187325000Y-110490000D03*
X187325000Y-115570000D03*
X187325000Y-113030000D03*
X187325000Y-102870000D03*
X187325000Y-105410000D03*
X187325000Y-100330000D03*
X187325000Y-97790000D03*
X189865000Y-118110000D03*
X189865000Y-107950000D03*
X189865000Y-110490000D03*
X189865000Y-115570000D03*
X189865000Y-113030000D03*
X189865000Y-102870000D03*
X189865000Y-105410000D03*
X189865000Y-100330000D03*
X189865000Y-97790000D03*
D34*
X159290000Y-115165000D03*
X163290000Y-115165000D03*
X160630000Y-115165000D03*
X161950000Y-115165000D03*
X160630000Y-112165000D03*
X159290000Y-112165000D03*
X163290000Y-112165000D03*
X161950000Y-112165000D03*
D41*
X161544000Y-134620000D03*
D42*
X159004000Y-134620000D03*
D12*
X201295000Y-121920000D03*
X204195000Y-121920000D03*
D39*
X158750000Y-91440000D03*
X163830000Y-91440000D03*
X158750000Y-99060000D03*
X163830000Y-99060000D03*
D40*
X169545000Y-113396500D03*
X169545000Y-109996500D03*
X179415188Y-109429868D03*
X179415188Y-106029868D03*
D18*
X171767500Y-125984000D03*
D19*
X169267500Y-125984000D03*
D43*
X173355000Y-108590000D03*
X173355000Y-109540000D03*
X173355000Y-110490000D03*
X175555000Y-110490000D03*
X175555000Y-108590000D03*
D44*
X163195000Y-118745000D03*
D35*
X171215309Y-120881587D03*
D44*
X162898554Y-115145176D03*
X192405000Y-95504000D03*
X181864000Y-93599000D03*
X170180000Y-106172000D03*
X152400040Y-117475000D03*
X146685000Y-117475000D03*
D35*
X180975000Y-107315000D03*
D44*
X177815132Y-106029868D03*
X169545000Y-109996500D03*
X172400000Y-109540000D03*
D35*
X153736904Y-109855000D03*
X158750000Y-125730000D03*
X195961000Y-94996000D03*
D44*
X150876000Y-99822000D03*
X181520012Y-97521771D03*
X147656801Y-98845215D03*
X148684058Y-98131281D03*
X175983979Y-98156771D03*
X153035000Y-97790000D03*
D35*
X165955376Y-116909980D03*
X166470118Y-109320118D03*
D44*
X184404000Y-100584000D03*
X149860000Y-98204380D03*
X171450000Y-136525000D03*
X147297000Y-94615000D03*
X161418521Y-109036161D03*
X154332420Y-112367580D03*
X160274000Y-123444000D03*
X156210000Y-100330000D03*
X181864000Y-114935000D03*
X151193772Y-116494200D03*
X160528000Y-116840000D03*
X151360000Y-114410000D03*
X152825832Y-114727139D03*
X163290000Y-112165000D03*
X146812000Y-114554000D03*
X148844000Y-116586000D03*
X156804167Y-101350137D03*
X182245036Y-102235000D03*
X159033217Y-111656732D03*
X154432000Y-114300000D03*
X183013756Y-114639814D03*
X168497148Y-115736758D03*
X161925000Y-128905000D03*
X188595000Y-127000000D03*
X162155872Y-116458083D03*
X148336000Y-115824000D03*
D45*
X143129000Y-118364000D02*
X143764000Y-118364000D01*
D46*
X162898554Y-115145176D02*
X163270176Y-115145176D01*
X163270176Y-115145176D02*
X163290000Y-115165000D01*
X161950000Y-115165000D02*
X162878730Y-115165000D01*
X162878730Y-115165000D02*
X162898554Y-115145176D01*
D47*
X182434500Y-116696500D02*
X180234580Y-116696500D01*
X180234580Y-116696500D02*
X180091080Y-116840000D01*
X170180000Y-106045000D02*
X170180000Y-106596264D01*
X170180000Y-106596264D02*
X171180001Y-107596265D01*
D46*
X163290000Y-115165000D02*
X163290000Y-118650000D01*
X163290000Y-118650000D02*
X163195000Y-118745000D01*
X163290000Y-115165000D02*
X163290000Y-115178554D01*
D47*
X170180000Y-101600000D02*
X170180000Y-102870000D01*
X171215309Y-120881587D02*
X171215309Y-122116191D01*
X171215309Y-122116191D02*
X171180001Y-122151499D01*
X199234655Y-131847478D02*
X199234655Y-132156146D01*
X199234655Y-132156146D02*
X197166131Y-134224670D01*
X171180001Y-114300000D02*
X171180001Y-107596265D01*
X171180001Y-122151499D02*
X171180001Y-114300000D01*
X171180001Y-114300000D02*
X171980001Y-115100000D01*
X177200000Y-115100000D02*
X179070000Y-113230000D01*
X179070000Y-113230000D02*
X179070000Y-113030000D01*
X171980001Y-115100000D02*
X177200000Y-115100000D01*
D48*
X175555000Y-108590000D02*
X177140320Y-108590000D01*
X177140320Y-108590000D02*
X177980188Y-109429868D01*
X177980188Y-109429868D02*
X179415188Y-109429868D01*
D47*
X179415188Y-109429868D02*
X179415188Y-112684812D01*
X179415188Y-112684812D02*
X179070000Y-113030000D01*
D46*
X162990000Y-115217542D02*
X162917634Y-115145176D01*
X162917634Y-115145176D02*
X162898554Y-115145176D01*
X162814000Y-115316000D02*
X162912458Y-115217542D01*
X162912458Y-115217542D02*
X162990000Y-115217542D01*
X162937458Y-115165000D02*
X162990000Y-115217542D01*
D47*
X169267500Y-125984000D02*
X169267500Y-124064000D01*
X169267500Y-124064000D02*
X171180001Y-122151499D01*
X170180000Y-106596264D02*
X170180000Y-106172000D01*
X197102631Y-131070137D02*
X197102631Y-134605670D01*
X195218224Y-129185730D02*
X197102631Y-131070137D01*
X194557746Y-129185730D02*
X195218224Y-129185730D01*
X192188005Y-126815989D02*
X194557746Y-129185730D01*
X192188005Y-124285821D02*
X192188005Y-126815989D01*
X192770001Y-123703825D02*
X192188005Y-124285821D01*
X192770001Y-120595001D02*
X192770001Y-123703825D01*
X192405000Y-120230000D02*
X192770001Y-120595001D01*
X192405000Y-118110000D02*
X192405000Y-120230000D01*
D45*
X181079000Y-93599000D02*
X181864000Y-93599000D01*
X179070000Y-91440000D02*
X179070000Y-91590000D01*
X179070000Y-91590000D02*
X181079000Y-93599000D01*
D47*
X143129000Y-118364000D02*
X142494000Y-118364000D01*
X142494000Y-118364000D02*
X139446000Y-118364000D01*
D46*
X141986000Y-121158000D02*
X141986000Y-118703800D01*
X141986000Y-118703800D02*
X142325800Y-118364000D01*
X142325800Y-118364000D02*
X142494000Y-118364000D01*
D48*
X143764000Y-118364000D02*
X143764000Y-114506000D01*
X143764000Y-114506000D02*
X143860000Y-114410000D01*
D47*
X194945000Y-91440000D02*
X194945000Y-92964000D01*
X192405000Y-95504000D02*
X192405000Y-97790000D01*
X194945000Y-92964000D02*
X192405000Y-95504000D01*
X170180000Y-102870000D02*
X170180000Y-106172000D01*
X192405000Y-100330000D02*
X192405000Y-97790000D01*
X192405000Y-102870000D02*
X192405000Y-100330000D01*
X192405000Y-105410000D02*
X192405000Y-102870000D01*
X192405000Y-107950000D02*
X192405000Y-105410000D01*
X192405000Y-110490000D02*
X192405000Y-107950000D01*
X192405000Y-113030000D02*
X192405000Y-110490000D01*
X192405000Y-115570000D02*
X192405000Y-113030000D01*
X192405000Y-118110000D02*
X192405000Y-115570000D01*
X195622399Y-125469729D02*
X195622399Y-122512601D01*
X195622399Y-122512601D02*
X196215000Y-121920000D01*
X195622399Y-125469729D02*
X196977596Y-125469729D01*
X196977596Y-125469729D02*
X198352522Y-126844655D01*
X146529000Y-118364000D02*
X146529000Y-117631000D01*
X146529000Y-117631000D02*
X146685000Y-117475000D01*
X167640000Y-101600000D02*
X164465000Y-101600000D01*
X164465000Y-101600000D02*
X163830000Y-100965000D01*
X154749000Y-117475000D02*
X152400040Y-117475000D01*
D46*
X149860000Y-120015040D02*
X152100041Y-117774999D01*
X149860000Y-121158000D02*
X149860000Y-120015040D01*
X152100041Y-117774999D02*
X152400040Y-117475000D01*
D47*
X180975000Y-107315000D02*
X181816000Y-107315000D01*
X181816000Y-107315000D02*
X182434500Y-106696500D01*
X169545000Y-108585000D02*
X167640000Y-106680000D01*
X167640000Y-106680000D02*
X167640000Y-106045000D01*
X169545000Y-109996500D02*
X169545000Y-108585000D01*
X167656500Y-106696500D02*
X167475000Y-106878000D01*
X169345000Y-109996500D02*
X169545000Y-109996500D01*
X166434500Y-106696500D02*
X167656500Y-106696500D01*
D45*
X179415188Y-106029868D02*
X177815132Y-106029868D01*
X173355000Y-109540000D02*
X172400000Y-109540000D01*
X172400000Y-109540000D02*
X172269011Y-109670989D01*
X173355000Y-109540000D02*
X173630991Y-109540000D01*
D47*
X154060000Y-110490000D02*
X151715001Y-108145001D01*
X155860000Y-112290000D02*
X154060000Y-110490000D01*
D48*
X155860000Y-111978096D02*
X153736904Y-109855000D01*
X153736904Y-109855000D02*
X152085904Y-108204000D01*
D47*
X154060000Y-110490000D02*
X154060000Y-110178096D01*
X154060000Y-110178096D02*
X153736904Y-109855000D01*
X154749000Y-117475000D02*
X155194000Y-117030000D01*
X157750001Y-124730001D02*
X157750001Y-120476001D01*
X158750000Y-125730000D02*
X157750001Y-124730001D01*
X157750001Y-120476001D02*
X154749000Y-117475000D01*
X158750000Y-125730000D02*
X159160000Y-125730000D01*
X159160000Y-125730000D02*
X160274000Y-126844000D01*
X179110000Y-120650000D02*
X179110000Y-118352175D01*
X179110000Y-118352175D02*
X177800000Y-117042175D01*
X177800000Y-117042175D02*
X177800000Y-116840000D01*
D45*
X173355000Y-109540000D02*
X173035000Y-109540000D01*
D47*
X181610000Y-109854999D02*
X182434500Y-109030499D01*
X182434500Y-109030499D02*
X182434500Y-106696500D01*
X181610000Y-113393002D02*
X181610000Y-109854999D01*
X177800000Y-116840000D02*
X177800000Y-116637825D01*
X179772824Y-114665001D02*
X180338001Y-114665001D01*
X180338001Y-114665001D02*
X181610000Y-113393002D01*
X177800000Y-116637825D02*
X179772824Y-114665001D01*
X182434500Y-106696500D02*
X180081820Y-106696500D01*
X180081820Y-106696500D02*
X179415188Y-106029868D01*
X167640000Y-121920000D02*
X167640000Y-123639580D01*
X167640000Y-123639580D02*
X165914579Y-125365001D01*
X165914579Y-125365001D02*
X165464999Y-125365001D01*
X165464999Y-125365001D02*
X164465000Y-126365000D01*
X179284000Y-125857000D02*
X179284000Y-120824000D01*
X179284000Y-120824000D02*
X179110000Y-120650000D01*
X179064000Y-126077000D02*
X179284000Y-125857000D01*
X155194000Y-117030000D02*
X155860000Y-116364000D01*
D45*
X188468000Y-135001000D02*
X189855499Y-133613501D01*
X189855499Y-133613501D02*
X189855499Y-130819501D01*
X189855499Y-130819501D02*
X190335001Y-130339999D01*
X190335001Y-130339999D02*
X191135000Y-129540000D01*
D47*
X196215000Y-121920000D02*
X196215000Y-120015000D01*
X196215000Y-120015000D02*
X196215000Y-119380000D01*
D45*
X201295000Y-121920000D02*
X201295000Y-121520000D01*
X201295000Y-121520000D02*
X199790000Y-120015000D01*
X199790000Y-120015000D02*
X196215000Y-120015000D01*
D47*
X196215000Y-119380000D02*
X194945000Y-118110000D01*
X195558899Y-125850729D02*
X195558899Y-122576101D01*
X195558899Y-122576101D02*
X196215000Y-121920000D01*
X166264000Y-133110000D02*
X166264000Y-128164000D01*
X166264000Y-128164000D02*
X164465000Y-126365000D01*
X165178740Y-127078740D02*
X164465000Y-126365000D01*
X163830000Y-91440000D02*
X169227500Y-91440000D01*
X169227500Y-91440000D02*
X171450000Y-93662500D01*
X176530000Y-91440000D02*
X173672500Y-91440000D01*
X173672500Y-91440000D02*
X171450000Y-93662500D01*
X171450000Y-93662500D02*
X171450000Y-95885000D01*
X194945000Y-96012000D02*
X195961000Y-94996000D01*
X195961000Y-94996000D02*
X197485000Y-93472000D01*
D46*
X162974398Y-107729398D02*
X163131501Y-107886501D01*
X163131501Y-107886501D02*
X163830000Y-108585000D01*
X160620230Y-107729398D02*
X162974398Y-107729398D01*
X160180398Y-108169230D02*
X160620230Y-107729398D01*
X160630000Y-111511800D02*
X160180398Y-111062198D01*
X160180398Y-111062198D02*
X160180398Y-108169230D01*
X160630000Y-112165000D02*
X160630000Y-111511800D01*
X163830000Y-108585000D02*
X163322000Y-109093000D01*
D47*
X163639500Y-106616500D02*
X165719500Y-106616500D01*
X163830000Y-100965000D02*
X163830000Y-108585000D01*
X163830000Y-99060000D02*
X163830000Y-91440000D01*
X163830000Y-100965000D02*
X163830000Y-99060000D01*
X151360000Y-96410000D02*
X151360000Y-93575000D01*
X151360000Y-93575000D02*
X150495000Y-92710000D01*
X137610990Y-116770010D02*
X138557000Y-115824000D01*
X138557000Y-115824000D02*
X139446000Y-115824000D01*
X138345000Y-123359000D02*
X137610990Y-122624990D01*
X137610990Y-122624990D02*
X137610990Y-116770010D01*
X138345000Y-126370000D02*
X138345000Y-123359000D01*
X140865000Y-124100000D02*
X140615000Y-124100000D01*
X140615000Y-124100000D02*
X138345000Y-126370000D01*
X138345000Y-126370000D02*
X138345000Y-127630000D01*
X138345000Y-127630000D02*
X140615000Y-129900000D01*
X140615000Y-129900000D02*
X140865000Y-129900000D01*
X150495000Y-99980235D02*
X143891235Y-99980235D01*
X143860000Y-103347000D02*
X143860000Y-99949000D01*
X143860000Y-99949000D02*
X143860000Y-96410000D01*
X143891235Y-99980235D02*
X143860000Y-99949000D01*
D48*
X150495000Y-99980235D02*
X150876000Y-99822000D01*
D47*
X151360000Y-96410000D02*
X151360000Y-99115235D01*
X151360000Y-99115235D02*
X150495000Y-99980235D01*
X148658001Y-108145001D02*
X143860000Y-103347000D01*
X155860000Y-114410000D02*
X155860000Y-112290000D01*
X151715001Y-108145001D02*
X148658001Y-108145001D01*
X155860000Y-114410000D02*
X155860000Y-115895000D01*
X155860000Y-116364000D02*
X155860000Y-115895000D01*
D48*
X153645000Y-118110000D02*
X155860000Y-115895000D01*
D47*
X194945000Y-97790000D02*
X194945000Y-96012000D01*
X197485000Y-93472000D02*
X197485000Y-91440000D01*
X169220000Y-145560000D02*
X169220000Y-136066000D01*
X169220000Y-136066000D02*
X166264000Y-133110000D01*
X194945000Y-118110000D02*
X194945000Y-118745000D01*
D48*
X155860000Y-114410000D02*
X155860000Y-111978096D01*
X149352000Y-108204000D02*
X146812000Y-105664000D01*
X152085904Y-108204000D02*
X149352000Y-108204000D01*
X150876000Y-99822000D02*
X151360000Y-97895000D01*
X151360000Y-97895000D02*
X151360000Y-96410000D01*
X143860000Y-96410000D02*
X143860000Y-97895000D01*
D47*
X194945000Y-115570000D02*
X194945000Y-118110000D01*
X194945000Y-113030000D02*
X194945000Y-115570000D01*
X194945000Y-110490000D02*
X194945000Y-113030000D01*
X194945000Y-107950000D02*
X194945000Y-110490000D01*
X194945000Y-105410000D02*
X194945000Y-107950000D01*
X194945000Y-102870000D02*
X194945000Y-105410000D01*
X194945000Y-100330000D02*
X194945000Y-102870000D01*
X194945000Y-97790000D02*
X194945000Y-100330000D01*
D46*
X169545000Y-96278700D02*
X170821470Y-97555170D01*
X170821470Y-97555170D02*
X176605170Y-97555170D01*
X176605170Y-97555170D02*
X177570000Y-98520000D01*
X169545000Y-95885000D02*
X169545000Y-96278700D01*
X176916800Y-97180000D02*
X177570000Y-97180000D01*
X173355000Y-96278700D02*
X174228260Y-97151960D01*
X173355000Y-95885000D02*
X173355000Y-96278700D01*
X174228260Y-97151960D02*
X176888760Y-97151960D01*
X176888760Y-97151960D02*
X176916800Y-97180000D01*
X175260000Y-95885000D02*
X177545000Y-95885000D01*
X177545000Y-95885000D02*
X177570000Y-95860000D01*
X157749899Y-112971699D02*
X159290000Y-114511800D01*
X154380199Y-95258399D02*
X156551281Y-95258399D01*
X156551281Y-95258399D02*
X157749899Y-96457017D01*
X157749899Y-96457017D02*
X157749899Y-112971699D01*
X153035000Y-92710000D02*
X153035000Y-93913200D01*
X153035000Y-93913200D02*
X154380199Y-95258399D01*
X159290000Y-114511800D02*
X159290000Y-115165000D01*
X181520012Y-97946035D02*
X181520012Y-97521771D01*
X181520012Y-98223188D02*
X181520012Y-97946035D01*
X180570000Y-98520000D02*
X181223200Y-98520000D01*
X181223200Y-98520000D02*
X181520012Y-98223188D01*
X145360000Y-96810000D02*
X147395215Y-98845215D01*
X147395215Y-98845215D02*
X147656801Y-98845215D01*
X145360000Y-96410000D02*
X145360000Y-96810000D01*
X146685000Y-92710000D02*
X145685000Y-92710000D01*
X145360000Y-96410000D02*
X145360000Y-93035000D01*
X145360000Y-93035000D02*
X145685000Y-92710000D01*
X158750000Y-100965000D02*
X158750000Y-101952828D01*
X158750000Y-101952828D02*
X158750000Y-108585000D01*
X148360000Y-96410000D02*
X148360000Y-97807223D01*
X148384059Y-97831282D02*
X148684058Y-98131281D01*
X148360000Y-97807223D02*
X148384059Y-97831282D01*
X147685000Y-92710000D02*
X147685000Y-93710000D01*
X148360000Y-94385000D02*
X148360000Y-96410000D01*
X147685000Y-93710000D02*
X148360000Y-94385000D01*
X177800000Y-101600000D02*
X177800000Y-101450000D01*
X177800000Y-101450000D02*
X175983979Y-99633979D01*
X175983979Y-99633979D02*
X175983979Y-98581035D01*
X175983979Y-98581035D02*
X175983979Y-98156771D01*
X153035000Y-97790000D02*
X153035000Y-96585000D01*
X153035000Y-96585000D02*
X152860000Y-96410000D01*
D47*
X175239680Y-119270780D02*
X175239680Y-117109240D01*
X175239680Y-117109240D02*
X175508920Y-116840000D01*
X166470118Y-111280228D02*
X166370000Y-109220000D01*
X166470118Y-109754882D02*
X166470118Y-109320118D01*
X166470118Y-109320118D02*
X166370000Y-109220000D01*
D48*
X173355000Y-108590000D02*
X173355000Y-106680000D01*
X173355000Y-106680000D02*
X172720000Y-106045000D01*
D47*
X166470118Y-116841106D02*
X166470118Y-113030000D01*
X166470118Y-113030000D02*
X166470118Y-112694441D01*
X169545000Y-113396500D02*
X166836618Y-113396500D01*
X166836618Y-113396500D02*
X166470118Y-113030000D01*
X166074557Y-117236667D02*
X166470118Y-116841106D01*
X166470118Y-112694441D02*
X166470118Y-111280228D01*
D48*
X175555000Y-110490000D02*
X175260000Y-110195000D01*
X173355000Y-108590000D02*
X174191502Y-108590000D01*
X174191502Y-108590000D02*
X174402501Y-108800999D01*
X174402501Y-108800999D02*
X174402501Y-109337501D01*
X174402501Y-109337501D02*
X175555000Y-110490000D01*
D47*
X172720000Y-102235000D02*
X172720000Y-106045000D01*
X177800000Y-121537802D02*
X177624999Y-121362801D01*
X177624999Y-121362801D02*
X177624999Y-121156989D01*
X177624999Y-121156989D02*
X175738790Y-119270780D01*
X175738790Y-119270780D02*
X175239680Y-119270780D01*
X177800000Y-122921000D02*
X177800000Y-121537802D01*
X176784000Y-125857000D02*
X176784000Y-123937000D01*
X176784000Y-123937000D02*
X177800000Y-122921000D01*
X183515000Y-121920000D02*
X181399001Y-124035999D01*
X181399001Y-124035999D02*
X181399001Y-131989199D01*
X176784000Y-125857000D02*
X176784000Y-127374198D01*
X176784000Y-127374198D02*
X181399001Y-131989199D01*
X181399001Y-131989199D02*
X181399001Y-134830999D01*
X179705000Y-135890000D02*
X180340000Y-135890000D01*
X176220000Y-145560000D02*
X176220000Y-139375000D01*
X176220000Y-139375000D02*
X179705000Y-135890000D01*
X180340000Y-135890000D02*
X181399001Y-134830999D01*
X188595000Y-93091000D02*
X188595000Y-91440000D01*
X184658000Y-97028000D02*
X188595000Y-93091000D01*
X184658000Y-100330000D02*
X184658000Y-97028000D01*
X184404000Y-100584000D02*
X184658000Y-100330000D01*
D48*
X150565000Y-129900000D02*
X150815000Y-129900000D01*
X150815000Y-129900000D02*
X151003000Y-130088000D01*
X151003000Y-130088000D02*
X151003000Y-130937000D01*
X152146000Y-134366000D02*
X152146000Y-131481000D01*
X152146000Y-131481000D02*
X150565000Y-129900000D01*
X150565000Y-129900000D02*
X148680000Y-129900000D01*
X148680000Y-129900000D02*
X147165000Y-128385000D01*
X147165000Y-128385000D02*
X147165000Y-125735000D01*
X147165000Y-125735000D02*
X147165000Y-124100000D01*
D46*
X161330015Y-106321211D02*
X161820210Y-105831016D01*
X161820210Y-94510210D02*
X159448499Y-92138499D01*
X159750101Y-100484951D02*
X159750101Y-101445049D01*
X159743789Y-104734985D02*
X161330015Y-106321211D01*
X161820210Y-105831016D02*
X161820210Y-94510210D01*
X158750000Y-99484850D02*
X159750101Y-100484951D01*
X158750000Y-99060000D02*
X158750000Y-99484850D01*
X159750101Y-101445049D02*
X159743789Y-101451361D01*
X159743789Y-101451361D02*
X159743789Y-104734985D01*
X159448499Y-92138499D02*
X158750000Y-91440000D01*
X149860000Y-96410000D02*
X149860000Y-98204380D01*
D45*
X173720000Y-145060000D02*
X173720000Y-135620000D01*
X171704860Y-133604860D02*
X171704860Y-132077880D01*
X173720000Y-135620000D02*
X171704860Y-133604860D01*
X171720000Y-145060000D02*
X171720000Y-136795000D01*
X171720000Y-136795000D02*
X171450000Y-136525000D01*
X191008000Y-135001000D02*
X192160501Y-133848499D01*
X192160501Y-133848499D02*
X192160501Y-130276500D01*
X192160501Y-130276500D02*
X192389001Y-130048000D01*
X192389001Y-130048000D02*
X192389001Y-128938079D01*
X192389001Y-128938079D02*
X189849001Y-126398079D01*
X189849001Y-126398079D02*
X189849001Y-121318079D01*
X189849001Y-121318079D02*
X188410990Y-119880068D01*
X188410990Y-119880068D02*
X185870990Y-119880068D01*
X185870990Y-119880068D02*
X185870990Y-103975008D01*
X185870990Y-103975008D02*
X183314991Y-101419009D01*
X183314991Y-101419009D02*
X183314991Y-100132917D01*
X183314991Y-100132917D02*
X183515000Y-99932908D01*
X183515000Y-99932908D02*
X183515000Y-93495000D01*
X183515000Y-93495000D02*
X181610000Y-91590000D01*
X181610000Y-91590000D02*
X181610000Y-91440000D01*
X204195000Y-121920000D02*
X204195000Y-124587000D01*
X204195000Y-124587000D02*
X204195000Y-127793761D01*
X198755000Y-121920000D02*
X198755000Y-122907828D01*
X198755000Y-122907828D02*
X200434172Y-124587000D01*
X200434172Y-124587000D02*
X204195000Y-124587000D01*
X204195000Y-127793761D02*
X205085706Y-128684467D01*
X146860000Y-96410000D02*
X146860000Y-95052000D01*
X146860000Y-95052000D02*
X147297000Y-94615000D01*
D46*
X146860000Y-96410000D02*
X146860000Y-95356800D01*
X146860000Y-95356800D02*
X147320000Y-94896800D01*
X146860000Y-96410000D02*
X146860000Y-96010000D01*
D47*
X173252501Y-124124349D02*
X175395890Y-121980960D01*
X173252501Y-127990239D02*
X173252501Y-124124349D01*
X169164860Y-132077880D02*
X173252501Y-127990239D01*
D46*
X161950000Y-112165000D02*
X161950000Y-109567640D01*
X161950000Y-109567640D02*
X161718520Y-109336160D01*
X161718520Y-109336160D02*
X161418521Y-109036161D01*
X153908156Y-112367580D02*
X154332420Y-112367580D01*
X147002420Y-112367580D02*
X153908156Y-112367580D01*
X145360000Y-114010000D02*
X147002420Y-112367580D01*
X145360000Y-114410000D02*
X145360000Y-114010000D01*
X147561200Y-116332000D02*
X146882000Y-116332000D01*
X146882000Y-116332000D02*
X145360000Y-114810000D01*
X145360000Y-114810000D02*
X145360000Y-114410000D01*
X148590000Y-118364000D02*
X148590000Y-117360800D01*
X148590000Y-117360800D02*
X147561200Y-116332000D01*
X147320000Y-121158000D02*
X147320000Y-121285000D01*
X147320000Y-121285000D02*
X148590000Y-122555000D01*
X146852000Y-136525000D02*
X144693000Y-134366000D01*
X151765000Y-136525000D02*
X146852000Y-136525000D01*
X153670000Y-134620000D02*
X151765000Y-136525000D01*
X153670000Y-124460000D02*
X153670000Y-134620000D01*
X151765000Y-122555000D02*
X153670000Y-124460000D01*
X148590000Y-122555000D02*
X151765000Y-122555000D01*
X144526000Y-121158000D02*
X147320000Y-121158000D01*
D45*
X145923000Y-132176762D02*
X145923000Y-125808000D01*
X145923000Y-125808000D02*
X144215000Y-124100000D01*
X144215000Y-124100000D02*
X143965000Y-124100000D01*
X147193000Y-134366000D02*
X147193000Y-133446762D01*
X147193000Y-133446762D02*
X145923000Y-132176762D01*
X186055000Y-121920000D02*
X186055000Y-127652080D01*
X184800999Y-128906081D02*
X184800999Y-131206999D01*
X185229501Y-131635501D02*
X185928000Y-132334000D01*
X186055000Y-127652080D02*
X184800999Y-128906081D01*
X184800999Y-131206999D02*
X185229501Y-131635501D01*
D46*
X154360000Y-96410000D02*
X154360000Y-97464000D01*
X156210000Y-99314000D02*
X156210000Y-100330000D01*
X154360000Y-97464000D02*
X156210000Y-99314000D01*
X154360000Y-96810000D02*
X154360000Y-96410000D01*
D45*
X188468000Y-132461000D02*
X187340999Y-131333999D01*
X187340999Y-131333999D02*
X187340999Y-123174001D01*
X187340999Y-123174001D02*
X188595000Y-121920000D01*
X185928000Y-134874000D02*
X186055000Y-134874000D01*
X186055000Y-134874000D02*
X188468000Y-132461000D01*
X183388000Y-132334000D02*
X185928000Y-134874000D01*
D46*
X184553211Y-114638109D02*
X183829321Y-115361999D01*
X179818399Y-95958401D02*
X179818399Y-101537517D01*
X184553211Y-105702103D02*
X184553211Y-114638109D01*
X183842797Y-104991689D02*
X184553211Y-105702103D01*
X183272570Y-104991688D02*
X183842797Y-104991689D01*
X179818399Y-101537517D02*
X183272570Y-104991688D01*
X183829321Y-115361999D02*
X182290999Y-115361999D01*
X182290999Y-115361999D02*
X182163999Y-115234999D01*
X182163999Y-115234999D02*
X181864000Y-114935000D01*
X151360000Y-114410000D02*
X151360000Y-116327972D01*
X151360000Y-116327972D02*
X151193772Y-116494200D01*
X179916800Y-95860000D02*
X179818399Y-95958401D01*
X180570000Y-95860000D02*
X179916800Y-95860000D01*
X179818399Y-95958401D02*
X180570000Y-95860000D01*
X160528000Y-115920200D02*
X160528000Y-116840000D01*
X160630000Y-115165000D02*
X160630000Y-115818200D01*
X160630000Y-115818200D02*
X160528000Y-115920200D01*
X152927090Y-114477090D02*
X152927090Y-114625881D01*
X152927090Y-114625881D02*
X152825832Y-114727139D01*
X152860000Y-114410000D02*
X152927090Y-114477090D01*
X146812000Y-114554000D02*
X146860000Y-114506000D01*
X146860000Y-114506000D02*
X146860000Y-114410000D01*
X149860000Y-115570000D02*
X149860000Y-114410000D01*
X148844000Y-116586000D02*
X149860000Y-115570000D01*
X182645170Y-96920170D02*
X182880000Y-97155000D01*
X180570000Y-97180000D02*
X180829830Y-96920170D01*
X180829830Y-96920170D02*
X182645170Y-96920170D01*
X157104166Y-101050138D02*
X156804167Y-101350137D01*
X155860000Y-97463200D02*
X157104166Y-98707366D01*
X157104166Y-98707366D02*
X157104166Y-101050138D01*
X155860000Y-96410000D02*
X155860000Y-97463200D01*
X181223200Y-94520000D02*
X180570000Y-94520000D01*
X182880000Y-96176800D02*
X181223200Y-94520000D01*
X182880000Y-97155000D02*
X182880000Y-96176800D01*
X182245036Y-97789964D02*
X182245036Y-101810736D01*
X182245036Y-101810736D02*
X182245036Y-102235000D01*
X182880000Y-97155000D02*
X182245036Y-97789964D01*
X159333216Y-112121784D02*
X159333216Y-111956731D01*
X159333216Y-111956731D02*
X159033217Y-111656732D01*
X159290000Y-112165000D02*
X159333216Y-112121784D01*
X154432000Y-114300000D02*
X154360000Y-114372000D01*
X154360000Y-114372000D02*
X154360000Y-114410000D01*
X183313755Y-114339815D02*
X183013756Y-114639814D01*
X183774655Y-113878915D02*
X183313755Y-114339815D01*
X183675781Y-105394899D02*
X183774655Y-105493773D01*
X182864899Y-105394899D02*
X183675781Y-105394899D01*
X179415188Y-101945188D02*
X182864899Y-105394899D01*
X178223200Y-94520000D02*
X179415188Y-95711988D01*
X179415188Y-95711988D02*
X179415188Y-101945188D01*
X177570000Y-94520000D02*
X178223200Y-94520000D01*
X183774655Y-105493773D02*
X183774655Y-113878915D01*
X167640000Y-118567200D02*
X168497148Y-117710052D01*
X167640000Y-119270780D02*
X167640000Y-118567200D01*
X168497148Y-117710052D02*
X168497148Y-115736758D01*
X161925000Y-128905000D02*
X161925000Y-134239000D01*
X161925000Y-134239000D02*
X161544000Y-134620000D01*
X161544000Y-128905000D02*
X161544000Y-117069955D01*
X161925000Y-128905000D02*
X161544000Y-128905000D01*
X188595000Y-129540000D02*
X188595000Y-127000000D01*
X161855873Y-116758082D02*
X162155872Y-116458083D01*
X161544000Y-117069955D02*
X161855873Y-116758082D01*
X148336000Y-115824000D02*
X148336000Y-114434000D01*
X148336000Y-114434000D02*
X148360000Y-114410000D01*
X148360000Y-113978736D02*
X148360000Y-114410000D01*
X159004000Y-134620000D02*
X159004000Y-129540000D01*
X159004000Y-129540000D02*
X155829000Y-126365000D01*
D49*
X173355000Y-110490000D02*
X173355000Y-112585000D01*
D47*
X175670000Y-113030000D02*
X173800000Y-113030000D01*
X173800000Y-113030000D02*
X173355000Y-112585000D01*
M02*
