G04 #@! TF.FileFunction,Profile,NP*
%FSLAX46Y46*%
G04 Gerber Fmt 4.6, Leading zero omitted, Abs format (unit mm)*
G04 Created by KiCad (PCBNEW 4.0.2+dfsg1-stable) date 2016年08月05日 19時43分15秒*
%MOMM*%
G01*
G04 APERTURE LIST*
%ADD10C,0.100000*%
%ADD11C,0.200000*%
%ADD12C,0.300000*%
%ADD13C,0.150000*%
G04 APERTURE END LIST*
D10*
D11*
X229641400Y-90347800D02*
X229616000Y-90347800D01*
X229641400Y-34137600D02*
X229641400Y-90347800D01*
X144551400Y-34137600D02*
X229641400Y-34137600D01*
X144551400Y-90220800D02*
X144551400Y-34137600D01*
X199263000Y-90297000D02*
X199263000Y-90170000D01*
X191389000Y-90297000D02*
X199263000Y-90297000D01*
D12*
X136525000Y-130048000D02*
X136525000Y-98298000D01*
X199390000Y-90170000D02*
X199390000Y-98298000D01*
X199390000Y-151130000D02*
X199390000Y-130048000D01*
X199390000Y-130048000D02*
X199390000Y-137922000D01*
D11*
X229743000Y-151130000D02*
X229743000Y-90170000D01*
X199263000Y-151130000D02*
X229743000Y-151130000D01*
D12*
X144498000Y-98276000D02*
X144498000Y-90276000D01*
X136498000Y-98276000D02*
X144498000Y-98276000D01*
X144498000Y-130076000D02*
X136498000Y-130076000D01*
X144498000Y-138076000D02*
X144498000Y-130076000D01*
X162498000Y-138076000D02*
X144498000Y-138076000D01*
X162498000Y-151076000D02*
X162498000Y-138076000D01*
X174698000Y-151076000D02*
X162498000Y-151076000D01*
X174698000Y-138076000D02*
X174698000Y-151076000D01*
X191298000Y-138076000D02*
X174698000Y-138076000D01*
X191298000Y-130076000D02*
X191298000Y-138076000D01*
X199298000Y-130076000D02*
X191298000Y-130076000D01*
X199398000Y-98276000D02*
X199298000Y-98276000D01*
X199298000Y-98276000D02*
X199398000Y-98276000D01*
X191298000Y-98276000D02*
X199298000Y-98276000D01*
X191298000Y-90276000D02*
X191298000Y-98276000D01*
X181998000Y-134176000D02*
G75*
G03X181998000Y-134176000I-1600000J0D01*
G01*
X149998000Y-134176000D02*
G75*
G03X149998000Y-134176000I-1600000J0D01*
G01*
X181998000Y-94176000D02*
G75*
G03X181998000Y-94176000I-1600000J0D01*
G01*
X149998000Y-94176000D02*
G75*
G03X149998000Y-94176000I-1600000J0D01*
G01*
D13*
X162497000Y-138176000D02*
X162370000Y-138176000D01*
X162497000Y-151130000D02*
X162497000Y-138176000D01*
X174689000Y-151130000D02*
X162497000Y-151130000D01*
X174752500Y-138176000D02*
X174816000Y-138176000D01*
X174689000Y-138176000D02*
X174752500Y-138176000D01*
X174816000Y-138176000D02*
X175578000Y-138176000D01*
X174689000Y-151130000D02*
X174689000Y-138176000D01*
X160338000Y-138176000D02*
X162370000Y-138176000D01*
D11*
X189103000Y-50800000D02*
G75*
G03X187833000Y-49530000I-1270000J0D01*
G01*
X158623000Y-49530000D02*
X187833000Y-49530000D01*
X158623000Y-49530000D02*
G75*
G03X157353000Y-50800000I0J-1270000D01*
G01*
X157353000Y-71120000D02*
X157353000Y-50800000D01*
X157353000Y-71120000D02*
G75*
G03X158623000Y-72390000I1270000J0D01*
G01*
X187833000Y-72390000D02*
X158623000Y-72390000D01*
X187833000Y-72390000D02*
G75*
G03X189103000Y-71120000I0J1270000D01*
G01*
X189103000Y-50800000D02*
X189103000Y-71120000D01*
X146319666Y-90170000D02*
G75*
G03X146319666Y-90170000I-1666666J0D01*
G01*
X142153000Y-90170000D02*
X147153000Y-90170000D01*
X144653000Y-87670000D02*
X144653000Y-92670000D01*
X149711000Y-86628400D02*
G75*
G03X149711000Y-86628400I-1600000J0D01*
G01*
X149711000Y-37628400D02*
G75*
G03X149711000Y-37628400I-1600000J0D01*
G01*
X207741036Y-86614000D02*
G75*
G03X207741036Y-86614000I-1620036J0D01*
G01*
X207741036Y-37846000D02*
G75*
G03X207741036Y-37846000I-1620036J0D01*
G01*
D13*
X229616000Y-90170000D02*
X229616000Y-34290000D01*
X229616000Y-34290000D02*
X189611000Y-34290000D01*
M02*
