<?xml version="1.0" standalone="no"?>
 <!DOCTYPE svg PUBLIC "-//W3C//DTD SVG 1.1//EN" 
 "http://www.w3.org/Graphics/SVG/1.1/DTD/svg11.dtd"> 
<svg xmlns="http://www.w3.org/2000/svg" version="1.1" 
    width="29.7002cm" height="21.0007cm" viewBox="0 0 116930 82680 ">
<title>SVG Picture created as ESXAR-B.SilkS.svg date 2016/08/05 19:53:52 </title>
  <desc>Picture generated by PCBNEW </desc>
<g style="fill:#000000; fill-opacity:1;stroke:#000000; stroke-opacity:1;
stroke-linecap:round; stroke-linejoin:round; "
 transform="translate(0 0) scale(1 1)">
</g>
<g style="fill:#000000; fill-opacity:0.0; 
stroke:#000000; stroke-width:-0.000393701; stroke-opacity:1; 
stroke-linecap:round; stroke-linejoin:round;">
</g>
<g style="fill:#000000; fill-opacity:0.0; 
stroke:#000000; stroke-width:39.3701; stroke-opacity:1; 
stroke-linecap:round; stroke-linejoin:round;">
</g>
<g style="fill:#000000; fill-opacity:0.0; 
stroke:#000000; stroke-width:59.0551; stroke-opacity:1; 
stroke-linecap:round; stroke-linejoin:round;">
<rect x="69685.9" y="65357.2" width="42519.7" height="12598.4" rx="0" />
</g>
<g style="fill:#000000; fill-opacity:0.0; 
stroke:#000000; stroke-width:39.3701; stroke-opacity:1; 
stroke-linecap:round; stroke-linejoin:round;">
</g>
<g style="fill:#000000; fill-opacity:0.0; 
stroke:#000000; stroke-width:59.0551; stroke-opacity:1; 
stroke-linecap:round; stroke-linejoin:round;">
<rect x="3937.01" y="3937.01" width="109056" height="74806" rx="0" />
</g>
<g style="fill:#000000; fill-opacity:0.0; 
stroke:#000000; stroke-width:39.3701; stroke-opacity:1; 
stroke-linecap:round; stroke-linejoin:round;">
</g>
<g style="fill:#000000; fill-opacity:0.0; 
stroke:#000000; stroke-width:59.0551; stroke-opacity:1; 
stroke-linecap:round; stroke-linejoin:round;">
<rect x="4724.41" y="4724.41" width="107481" height="73231.2" rx="0" />
</g>
<g style="fill:#000000; fill-opacity:0.0; 
stroke:#000000; stroke-width:39.3701; stroke-opacity:1; 
stroke-linecap:round; stroke-linejoin:round;">
</g>
<g style="fill:#000000; fill-opacity:0.0; 
stroke:#000000; stroke-width:59.0551; stroke-opacity:1; 
stroke-linecap:round; stroke-linejoin:round;">
<path d="M23622 4724
L23622 3937
" />
</g>
<g style="fill:#000000; fill-opacity:0.0; 
stroke:#000000; stroke-width:39.3701; stroke-opacity:1; 
stroke-linecap:round; stroke-linejoin:round;">
</g>
<g style="fill:#000000; fill-opacity:0.0; 
stroke:#000000; stroke-width:59.0551; stroke-opacity:1; 
stroke-linecap:round; stroke-linejoin:round;">
<path d="M43307 4724
L43307 3937
" />
</g>
<g style="fill:#000000; fill-opacity:0.0; 
stroke:#000000; stroke-width:39.3701; stroke-opacity:1; 
stroke-linecap:round; stroke-linejoin:round;">
</g>
<g style="fill:#000000; fill-opacity:0.0; 
stroke:#000000; stroke-width:59.0551; stroke-opacity:1; 
stroke-linecap:round; stroke-linejoin:round;">
<path d="M62992 4724
L62992 3937
" />
</g>
<g style="fill:#000000; fill-opacity:0.0; 
stroke:#000000; stroke-width:39.3701; stroke-opacity:1; 
stroke-linecap:round; stroke-linejoin:round;">
</g>
<g style="fill:#000000; fill-opacity:0.0; 
stroke:#000000; stroke-width:59.0551; stroke-opacity:1; 
stroke-linecap:round; stroke-linejoin:round;">
<path d="M82677 4724
L82677 3937
" />
</g>
<g style="fill:#000000; fill-opacity:0.0; 
stroke:#000000; stroke-width:39.3701; stroke-opacity:1; 
stroke-linecap:round; stroke-linejoin:round;">
</g>
<g style="fill:#000000; fill-opacity:0.0; 
stroke:#000000; stroke-width:59.0551; stroke-opacity:1; 
stroke-linecap:round; stroke-linejoin:round;">
<path d="M102362 4724
L102362 3937
" />
</g>
<g style="fill:#000000; fill-opacity:0.0; 
stroke:#000000; stroke-width:39.3701; stroke-opacity:1; 
stroke-linecap:round; stroke-linejoin:round;">
</g>
<g style="fill:#000000; fill-opacity:0.0; 
stroke:#000000; stroke-width:59.0551; stroke-opacity:1; 
stroke-linecap:round; stroke-linejoin:round;">
<path d="M14169 4562
L13877 4562
" />
<path d="M14023 4562
L14023 4050
L13974 4123
L13925 4172
L13877 4196
" />
</g>
<g style="fill:#000000; fill-opacity:0.0; 
stroke:#000000; stroke-width:39.3701; stroke-opacity:1; 
stroke-linecap:round; stroke-linejoin:round;">
</g>
<g style="fill:#000000; fill-opacity:0.0; 
stroke:#000000; stroke-width:59.0551; stroke-opacity:1; 
stroke-linecap:round; stroke-linejoin:round;">
<path d="M33562 4099
L33586 4074
L33635 4050
L33757 4050
L33805 4074
L33830 4099
L33854 4147
L33854 4196
L33830 4269
L33537 4562
L33854 4562
" />
</g>
<g style="fill:#000000; fill-opacity:0.0; 
stroke:#000000; stroke-width:39.3701; stroke-opacity:1; 
stroke-linecap:round; stroke-linejoin:round;">
</g>
<g style="fill:#000000; fill-opacity:0.0; 
stroke:#000000; stroke-width:59.0551; stroke-opacity:1; 
stroke-linecap:round; stroke-linejoin:round;">
<path d="M53222 4050
L53539 4050
L53368 4245
L53442 4245
L53490 4269
L53515 4294
L53539 4342
L53539 4464
L53515 4513
L53490 4537
L53442 4562
L53295 4562
L53247 4537
L53222 4513
" />
</g>
<g style="fill:#000000; fill-opacity:0.0; 
stroke:#000000; stroke-width:39.3701; stroke-opacity:1; 
stroke-linecap:round; stroke-linejoin:round;">
</g>
<g style="fill:#000000; fill-opacity:0.0; 
stroke:#000000; stroke-width:59.0551; stroke-opacity:1; 
stroke-linecap:round; stroke-linejoin:round;">
<path d="M73175 4221
L73175 4562
" />
<path d="M73053 4026
L72932 4391
L73248 4391
" />
</g>
<g style="fill:#000000; fill-opacity:0.0; 
stroke:#000000; stroke-width:39.3701; stroke-opacity:1; 
stroke-linecap:round; stroke-linejoin:round;">
</g>
<g style="fill:#000000; fill-opacity:0.0; 
stroke:#000000; stroke-width:59.0551; stroke-opacity:1; 
stroke-linecap:round; stroke-linejoin:round;">
<path d="M92885 4050
L92641 4050
L92617 4294
L92641 4269
L92690 4245
L92812 4245
L92860 4269
L92885 4294
L92909 4342
L92909 4464
L92885 4513
L92860 4537
L92812 4562
L92690 4562
L92641 4537
L92617 4513
" />
</g>
<g style="fill:#000000; fill-opacity:0.0; 
stroke:#000000; stroke-width:39.3701; stroke-opacity:1; 
stroke-linecap:round; stroke-linejoin:round;">
</g>
<g style="fill:#000000; fill-opacity:0.0; 
stroke:#000000; stroke-width:59.0551; stroke-opacity:1; 
stroke-linecap:round; stroke-linejoin:round;">
<path d="M112545 4050
L112448 4050
L112399 4074
L112375 4099
L112326 4172
L112302 4269
L112302 4464
L112326 4513
L112350 4537
L112399 4562
L112497 4562
L112545 4537
L112570 4513
L112594 4464
L112594 4342
L112570 4294
L112545 4269
L112497 4245
L112399 4245
L112350 4269
L112326 4294
L112302 4342
" />
</g>
<g style="fill:#000000; fill-opacity:0.0; 
stroke:#000000; stroke-width:39.3701; stroke-opacity:1; 
stroke-linecap:round; stroke-linejoin:round;">
</g>
<g style="fill:#000000; fill-opacity:0.0; 
stroke:#000000; stroke-width:59.0551; stroke-opacity:1; 
stroke-linecap:round; stroke-linejoin:round;">
<path d="M23622 77955
L23622 78742
" />
</g>
<g style="fill:#000000; fill-opacity:0.0; 
stroke:#000000; stroke-width:39.3701; stroke-opacity:1; 
stroke-linecap:round; stroke-linejoin:round;">
</g>
<g style="fill:#000000; fill-opacity:0.0; 
stroke:#000000; stroke-width:59.0551; stroke-opacity:1; 
stroke-linecap:round; stroke-linejoin:round;">
<path d="M43307 77955
L43307 78742
" />
</g>
<g style="fill:#000000; fill-opacity:0.0; 
stroke:#000000; stroke-width:39.3701; stroke-opacity:1; 
stroke-linecap:round; stroke-linejoin:round;">
</g>
<g style="fill:#000000; fill-opacity:0.0; 
stroke:#000000; stroke-width:59.0551; stroke-opacity:1; 
stroke-linecap:round; stroke-linejoin:round;">
<path d="M62992 77955
L62992 78742
" />
</g>
<g style="fill:#000000; fill-opacity:0.0; 
stroke:#000000; stroke-width:39.3701; stroke-opacity:1; 
stroke-linecap:round; stroke-linejoin:round;">
</g>
<g style="fill:#000000; fill-opacity:0.0; 
stroke:#000000; stroke-width:59.0551; stroke-opacity:1; 
stroke-linecap:round; stroke-linejoin:round;">
<path d="M82677 77955
L82677 78742
" />
</g>
<g style="fill:#000000; fill-opacity:0.0; 
stroke:#000000; stroke-width:39.3701; stroke-opacity:1; 
stroke-linecap:round; stroke-linejoin:round;">
</g>
<g style="fill:#000000; fill-opacity:0.0; 
stroke:#000000; stroke-width:59.0551; stroke-opacity:1; 
stroke-linecap:round; stroke-linejoin:round;">
<path d="M102362 77955
L102362 78742
" />
</g>
<g style="fill:#000000; fill-opacity:0.0; 
stroke:#000000; stroke-width:39.3701; stroke-opacity:1; 
stroke-linecap:round; stroke-linejoin:round;">
</g>
<g style="fill:#000000; fill-opacity:0.0; 
stroke:#000000; stroke-width:59.0551; stroke-opacity:1; 
stroke-linecap:round; stroke-linejoin:round;">
<path d="M14169 78580
L13877 78580
" />
<path d="M14023 78580
L14023 78069
L13974 78142
L13925 78190
L13877 78215
" />
</g>
<g style="fill:#000000; fill-opacity:0.0; 
stroke:#000000; stroke-width:39.3701; stroke-opacity:1; 
stroke-linecap:round; stroke-linejoin:round;">
</g>
<g style="fill:#000000; fill-opacity:0.0; 
stroke:#000000; stroke-width:59.0551; stroke-opacity:1; 
stroke-linecap:round; stroke-linejoin:round;">
<path d="M33562 78117
L33586 78093
L33635 78069
L33757 78069
L33805 78093
L33830 78117
L33854 78166
L33854 78215
L33830 78288
L33537 78580
L33854 78580
" />
</g>
<g style="fill:#000000; fill-opacity:0.0; 
stroke:#000000; stroke-width:39.3701; stroke-opacity:1; 
stroke-linecap:round; stroke-linejoin:round;">
</g>
<g style="fill:#000000; fill-opacity:0.0; 
stroke:#000000; stroke-width:59.0551; stroke-opacity:1; 
stroke-linecap:round; stroke-linejoin:round;">
<path d="M53222 78069
L53539 78069
L53368 78263
L53442 78263
L53490 78288
L53515 78312
L53539 78361
L53539 78483
L53515 78532
L53490 78556
L53442 78580
L53295 78580
L53247 78556
L53222 78532
" />
</g>
<g style="fill:#000000; fill-opacity:0.0; 
stroke:#000000; stroke-width:39.3701; stroke-opacity:1; 
stroke-linecap:round; stroke-linejoin:round;">
</g>
<g style="fill:#000000; fill-opacity:0.0; 
stroke:#000000; stroke-width:59.0551; stroke-opacity:1; 
stroke-linecap:round; stroke-linejoin:round;">
<path d="M73175 78239
L73175 78580
" />
<path d="M73053 78044
L72932 78410
L73248 78410
" />
</g>
<g style="fill:#000000; fill-opacity:0.0; 
stroke:#000000; stroke-width:39.3701; stroke-opacity:1; 
stroke-linecap:round; stroke-linejoin:round;">
</g>
<g style="fill:#000000; fill-opacity:0.0; 
stroke:#000000; stroke-width:59.0551; stroke-opacity:1; 
stroke-linecap:round; stroke-linejoin:round;">
<path d="M92885 78069
L92641 78069
L92617 78312
L92641 78288
L92690 78263
L92812 78263
L92860 78288
L92885 78312
L92909 78361
L92909 78483
L92885 78532
L92860 78556
L92812 78580
L92690 78580
L92641 78556
L92617 78532
" />
</g>
<g style="fill:#000000; fill-opacity:0.0; 
stroke:#000000; stroke-width:39.3701; stroke-opacity:1; 
stroke-linecap:round; stroke-linejoin:round;">
</g>
<g style="fill:#000000; fill-opacity:0.0; 
stroke:#000000; stroke-width:59.0551; stroke-opacity:1; 
stroke-linecap:round; stroke-linejoin:round;">
<path d="M112545 78069
L112448 78069
L112399 78093
L112375 78117
L112326 78190
L112302 78288
L112302 78483
L112326 78532
L112350 78556
L112399 78580
L112497 78580
L112545 78556
L112570 78532
L112594 78483
L112594 78361
L112570 78312
L112545 78288
L112497 78263
L112399 78263
L112350 78288
L112326 78312
L112302 78361
" />
</g>
<g style="fill:#000000; fill-opacity:0.0; 
stroke:#000000; stroke-width:39.3701; stroke-opacity:1; 
stroke-linecap:round; stroke-linejoin:round;">
</g>
<g style="fill:#000000; fill-opacity:0.0; 
stroke:#000000; stroke-width:59.0551; stroke-opacity:1; 
stroke-linecap:round; stroke-linejoin:round;">
<path d="M3937 23622
L4724 23622
" />
</g>
<g style="fill:#000000; fill-opacity:0.0; 
stroke:#000000; stroke-width:39.3701; stroke-opacity:1; 
stroke-linecap:round; stroke-linejoin:round;">
</g>
<g style="fill:#000000; fill-opacity:0.0; 
stroke:#000000; stroke-width:59.0551; stroke-opacity:1; 
stroke-linecap:round; stroke-linejoin:round;">
<path d="M3937 43307
L4724 43307
" />
</g>
<g style="fill:#000000; fill-opacity:0.0; 
stroke:#000000; stroke-width:39.3701; stroke-opacity:1; 
stroke-linecap:round; stroke-linejoin:round;">
</g>
<g style="fill:#000000; fill-opacity:0.0; 
stroke:#000000; stroke-width:59.0551; stroke-opacity:1; 
stroke-linecap:round; stroke-linejoin:round;">
<path d="M3937 62992
L4724 62992
" />
</g>
<g style="fill:#000000; fill-opacity:0.0; 
stroke:#000000; stroke-width:39.3701; stroke-opacity:1; 
stroke-linecap:round; stroke-linejoin:round;">
</g>
<g style="fill:#000000; fill-opacity:0.0; 
stroke:#000000; stroke-width:59.0551; stroke-opacity:1; 
stroke-linecap:round; stroke-linejoin:round;">
<path d="M4208 13864
L4452 13864
" />
<path d="M4160 14011
L4330 13499
L4501 14011
" />
</g>
<g style="fill:#000000; fill-opacity:0.0; 
stroke:#000000; stroke-width:39.3701; stroke-opacity:1; 
stroke-linecap:round; stroke-linejoin:round;">
</g>
<g style="fill:#000000; fill-opacity:0.0; 
stroke:#000000; stroke-width:59.0551; stroke-opacity:1; 
stroke-linecap:round; stroke-linejoin:round;">
<path d="M4367 33428
L4440 33452
L4464 33476
L4489 33525
L4489 33598
L4464 33647
L4440 33671
L4391 33696
L4196 33696
L4196 33184
L4367 33184
L4416 33208
L4440 33233
L4464 33281
L4464 33330
L4440 33379
L4416 33403
L4367 33428
L4196 33428
" />
</g>
<g style="fill:#000000; fill-opacity:0.0; 
stroke:#000000; stroke-width:39.3701; stroke-opacity:1; 
stroke-linecap:round; stroke-linejoin:round;">
</g>
<g style="fill:#000000; fill-opacity:0.0; 
stroke:#000000; stroke-width:59.0551; stroke-opacity:1; 
stroke-linecap:round; stroke-linejoin:round;">
<path d="M4489 53332
L4464 53356
L4391 53381
L4342 53381
L4269 53356
L4221 53308
L4196 53259
L4172 53161
L4172 53088
L4196 52991
L4221 52942
L4269 52893
L4342 52869
L4391 52869
L4464 52893
L4489 52918
" />
</g>
<g style="fill:#000000; fill-opacity:0.0; 
stroke:#000000; stroke-width:39.3701; stroke-opacity:1; 
stroke-linecap:round; stroke-linejoin:round;">
</g>
<g style="fill:#000000; fill-opacity:0.0; 
stroke:#000000; stroke-width:59.0551; stroke-opacity:1; 
stroke-linecap:round; stroke-linejoin:round;">
<path d="M4196 73066
L4196 72554
L4318 72554
L4391 72578
L4440 72627
L4464 72676
L4489 72773
L4489 72846
L4464 72944
L4440 72993
L4391 73041
L4318 73066
L4196 73066
" />
</g>
<g style="fill:#000000; fill-opacity:0.0; 
stroke:#000000; stroke-width:39.3701; stroke-opacity:1; 
stroke-linecap:round; stroke-linejoin:round;">
</g>
<g style="fill:#000000; fill-opacity:0.0; 
stroke:#000000; stroke-width:59.0551; stroke-opacity:1; 
stroke-linecap:round; stroke-linejoin:round;">
<path d="M112992 23622
L112205 23622
" />
</g>
<g style="fill:#000000; fill-opacity:0.0; 
stroke:#000000; stroke-width:39.3701; stroke-opacity:1; 
stroke-linecap:round; stroke-linejoin:round;">
</g>
<g style="fill:#000000; fill-opacity:0.0; 
stroke:#000000; stroke-width:59.0551; stroke-opacity:1; 
stroke-linecap:round; stroke-linejoin:round;">
<path d="M112992 43307
L112205 43307
" />
</g>
<g style="fill:#000000; fill-opacity:0.0; 
stroke:#000000; stroke-width:39.3701; stroke-opacity:1; 
stroke-linecap:round; stroke-linejoin:round;">
</g>
<g style="fill:#000000; fill-opacity:0.0; 
stroke:#000000; stroke-width:59.0551; stroke-opacity:1; 
stroke-linecap:round; stroke-linejoin:round;">
<path d="M112992 62992
L112205 62992
" />
</g>
<g style="fill:#000000; fill-opacity:0.0; 
stroke:#000000; stroke-width:39.3701; stroke-opacity:1; 
stroke-linecap:round; stroke-linejoin:round;">
</g>
<g style="fill:#000000; fill-opacity:0.0; 
stroke:#000000; stroke-width:59.0551; stroke-opacity:1; 
stroke-linecap:round; stroke-linejoin:round;">
<path d="M112477 13864
L112721 13864
" />
<path d="M112428 14011
L112599 13499
L112769 14011
" />
</g>
<g style="fill:#000000; fill-opacity:0.0; 
stroke:#000000; stroke-width:39.3701; stroke-opacity:1; 
stroke-linecap:round; stroke-linejoin:round;">
</g>
<g style="fill:#000000; fill-opacity:0.0; 
stroke:#000000; stroke-width:59.0551; stroke-opacity:1; 
stroke-linecap:round; stroke-linejoin:round;">
<path d="M112635 33428
L112708 33452
L112733 33476
L112757 33525
L112757 33598
L112733 33647
L112708 33671
L112660 33696
L112465 33696
L112465 33184
L112635 33184
L112684 33208
L112708 33233
L112733 33281
L112733 33330
L112708 33379
L112684 33403
L112635 33428
L112465 33428
" />
</g>
<g style="fill:#000000; fill-opacity:0.0; 
stroke:#000000; stroke-width:39.3701; stroke-opacity:1; 
stroke-linecap:round; stroke-linejoin:round;">
</g>
<g style="fill:#000000; fill-opacity:0.0; 
stroke:#000000; stroke-width:59.0551; stroke-opacity:1; 
stroke-linecap:round; stroke-linejoin:round;">
<path d="M112757 53332
L112733 53356
L112660 53381
L112611 53381
L112538 53356
L112489 53308
L112465 53259
L112440 53161
L112440 53088
L112465 52991
L112489 52942
L112538 52893
L112611 52869
L112660 52869
L112733 52893
L112757 52918
" />
</g>
<g style="fill:#000000; fill-opacity:0.0; 
stroke:#000000; stroke-width:39.3701; stroke-opacity:1; 
stroke-linecap:round; stroke-linejoin:round;">
</g>
<g style="fill:#000000; fill-opacity:0.0; 
stroke:#000000; stroke-width:59.0551; stroke-opacity:1; 
stroke-linecap:round; stroke-linejoin:round;">
<path d="M112465 73066
L112465 72554
L112587 72554
L112660 72578
L112708 72627
L112733 72676
L112757 72773
L112757 72846
L112733 72944
L112708 72993
L112660 73041
L112587 73066
L112465 73066
" />
</g>
<g style="fill:#000000; fill-opacity:0.0; 
stroke:#000000; stroke-width:39.3701; stroke-opacity:1; 
stroke-linecap:round; stroke-linejoin:round;">
</g>
<g style="fill:#000000; fill-opacity:0.0; 
stroke:#000000; stroke-width:59.0551; stroke-opacity:1; 
stroke-linecap:round; stroke-linejoin:round;">
<path d="M78881 76293
L78881 75703
L79022 75703
L79106 75731
L79162 75787
L79190 75843
L79219 75956
L79219 76040
L79190 76153
L79162 76209
L79106 76265
L79022 76293
L78881 76293
" />
<path d="M79725 76293
L79725 75984
L79697 75928
L79640 75899
L79528 75899
L79472 75928
" />
<path d="M79725 76265
L79669 76293
L79528 76293
L79472 76265
L79444 76209
L79444 76153
L79472 76096
L79528 76068
L79669 76068
L79725 76040
" />
<path d="M79922 75899
L80147 75899
" />
<path d="M80006 75703
L80006 76209
L80034 76265
L80090 76293
L80147 76293
" />
<path d="M80568 76265
L80512 76293
L80400 76293
L80343 76265
L80315 76209
L80315 75984
L80343 75928
L80400 75899
L80512 75899
L80568 75928
L80597 75984
L80597 76040
L80315 76096
" />
<path d="M80850 76237
L80878 76265
L80850 76293
L80822 76265
L80850 76237
L80850 76293
" />
<path d="M80850 75928
L80878 75956
L80850 75984
L80822 75956
L80850 75928
L80850 75984
" />
</g>
<g style="fill:#000000; fill-opacity:0.0; 
stroke:#000000; stroke-width:39.3701; stroke-opacity:1; 
stroke-linecap:round; stroke-linejoin:round;">
</g>
<g style="fill:#000000; fill-opacity:0.0; 
stroke:#000000; stroke-width:59.0551; stroke-opacity:1; 
stroke-linecap:round; stroke-linejoin:round;">
<path d="M69685 76577
L112205 76577
" />
</g>
<g style="fill:#000000; fill-opacity:0.0; 
stroke:#000000; stroke-width:39.3701; stroke-opacity:1; 
stroke-linecap:round; stroke-linejoin:round;">
</g>
<g style="fill:#000000; fill-opacity:0.0; 
stroke:#000000; stroke-width:59.0551; stroke-opacity:1; 
stroke-linecap:round; stroke-linejoin:round;">
<path d="M70220 77395
L70220 76805
" />
<path d="M70557 77395
L70304 77058
" />
<path d="M70557 76805
L70220 77142
" />
<path d="M70810 77395
L70810 77002
" />
<path d="M70810 76805
L70782 76833
L70810 76861
L70838 76833
L70810 76805
L70810 76861
" />
<path d="M71429 77339
L71401 77367
L71316 77395
L71260 77395
L71176 77367
L71120 77311
L71091 77255
L71063 77142
L71063 77058
L71091 76946
L71120 76889
L71176 76833
L71260 76805
L71316 76805
L71401 76833
L71429 76861
" />
<path d="M71935 77395
L71935 77086
L71907 77030
L71851 77002
L71738 77002
L71682 77030
" />
<path d="M71935 77367
L71879 77395
L71738 77395
L71682 77367
L71654 77311
L71654 77255
L71682 77199
L71738 77171
L71879 77171
L71935 77142
" />
<path d="M72469 77395
L72469 76805
" />
<path d="M72469 77367
L72413 77395
L72301 77395
L72244 77367
L72216 77339
L72188 77283
L72188 77114
L72216 77058
L72244 77030
L72301 77002
L72413 77002
L72469 77030
" />
<path d="M73201 77086
L73397 77086
" />
<path d="M73482 77395
L73201 77395
L73201 76805
L73482 76805
" />
<path d="M73735 77339
L73763 77367
L73735 77395
L73707 77367
L73735 77339
L73735 77395
" />
<path d="M74016 77395
L74016 76805
L74157 76805
L74241 76833
L74297 76889
L74325 76946
L74354 77058
L74354 77142
L74325 77255
L74297 77311
L74241 77367
L74157 77395
L74016 77395
" />
<path d="M74607 77339
L74635 77367
L74607 77395
L74579 77367
L74607 77339
L74607 77395
" />
<path d="M74860 77227
L75141 77227
" />
<path d="M74804 77395
L75000 76805
L75197 77395
" />
<path d="M75394 77339
L75422 77367
L75394 77395
L75366 77367
L75394 77339
L75394 77395
" />
<path d="M76575 77395
L76575 76805
" />
<path d="M76631 77171
L76800 77395
" />
<path d="M76800 77002
L76575 77227
" />
<path d="M77053 77395
L77053 77002
" />
<path d="M77053 76805
L77025 76833
L77053 76861
L77081 76833
L77053 76805
L77053 76861
" />
<path d="M77588 77367
L77531 77395
L77419 77395
L77363 77367
L77334 77339
L77306 77283
L77306 77114
L77334 77058
L77363 77030
L77419 77002
L77531 77002
L77588 77030
" />
<path d="M78094 77395
L78094 77086
L78066 77030
L78009 77002
L77897 77002
L77841 77030
" />
<path d="M78094 77367
L78037 77395
L77897 77395
L77841 77367
L77813 77311
L77813 77255
L77841 77199
L77897 77171
L78037 77171
L78094 77142
" />
<path d="M78628 77395
L78628 76805
" />
<path d="M78628 77367
L78572 77395
L78459 77395
L78403 77367
L78375 77339
L78347 77283
L78347 77114
L78375 77058
L78403 77030
L78459 77002
L78572 77002
L78628 77030
" />
<path d="M79612 77002
L79612 77395
" />
<path d="M79472 76777
L79331 77199
L79697 77199
" />
<path d="M79922 77339
L79950 77367
L79922 77395
L79894 77367
L79922 77339
L79922 77395
" />
<path d="M80315 76805
L80372 76805
L80428 76833
L80456 76861
L80484 76917
L80512 77030
L80512 77171
L80484 77283
L80456 77339
L80428 77367
L80372 77395
L80315 77395
L80259 77367
L80231 77339
L80203 77283
L80175 77171
L80175 77030
L80203 76917
L80231 76861
L80259 76833
L80315 76805
" />
<path d="M80765 77339
L80793 77367
L80765 77395
L80737 77367
L80765 77339
L80765 77395
" />
<path d="M81018 76861
L81046 76833
L81103 76805
L81243 76805
L81300 76833
L81328 76861
L81356 76917
L81356 76974
L81328 77058
L80990 77395
L81356 77395
" />
<path d="M81609 77171
L82059 77171
" />
<path d="M81834 77395
L81834 76946
" />
<path d="M82593 77395
L82593 76805
" />
<path d="M82593 77367
L82537 77395
L82424 77395
L82368 77367
L82340 77339
L82312 77283
L82312 77114
L82340 77058
L82368 77030
L82424 77002
L82537 77002
L82593 77030
" />
<path d="M82790 77002
L83015 77002
" />
<path d="M82874 77395
L82874 76889
L82903 76833
L82959 76805
L83015 76805
" />
<path d="M83184 77367
L83240 77395
L83352 77395
L83409 77367
L83437 77311
L83437 77283
L83409 77227
L83352 77199
L83268 77199
L83212 77171
L83184 77114
L83184 77086
L83212 77030
L83268 77002
L83352 77002
L83409 77030
" />
<path d="M83943 77002
L83943 77480
L83915 77536
L83887 77564
L83831 77592
L83746 77592
L83690 77564
" />
<path d="M83943 77367
L83887 77395
L83774 77395
L83718 77367
L83690 77339
L83662 77283
L83662 77114
L83690 77058
L83718 77030
L83774 77002
L83887 77002
L83943 77030
" />
<path d="M84534 77395
L84196 77395
" />
<path d="M84365 77395
L84365 76805
L84309 76889
L84252 76946
L84196 76974
" />
<path d="M84787 77171
L85237 77171
" />
<path d="M85490 77367
L85546 77395
L85658 77395
L85715 77367
L85743 77311
L85743 77283
L85715 77227
L85658 77199
L85574 77199
L85518 77171
L85490 77114
L85490 77086
L85518 77030
L85574 77002
L85658 77002
L85715 77030
" />
<path d="M85912 77002
L86136 77002
" />
<path d="M85996 76805
L85996 77311
L86024 77367
L86080 77395
L86136 77395
" />
<path d="M86586 77395
L86586 77086
L86558 77030
L86502 77002
L86390 77002
L86333 77030
" />
<path d="M86586 77367
L86530 77395
L86390 77395
L86333 77367
L86305 77311
L86305 77255
L86333 77199
L86390 77171
L86530 77171
L86586 77142
" />
<path d="M86868 77395
L86868 76805
" />
<path d="M86868 77030
L86924 77002
L87036 77002
L87093 77030
L87121 77058
L87149 77114
L87149 77283
L87121 77339
L87093 77367
L87036 77395
L86924 77395
L86868 77367
" />
<path d="M87486 77395
L87430 77367
L87402 77311
L87402 76805
" />
<path d="M87936 77367
L87880 77395
L87768 77395
L87711 77367
L87683 77311
L87683 77086
L87711 77030
L87768 77002
L87880 77002
L87936 77030
L87964 77086
L87964 77142
L87683 77199
" />
</g>
<g style="fill:#000000; fill-opacity:0.0; 
stroke:#000000; stroke-width:39.3701; stroke-opacity:1; 
stroke-linecap:round; stroke-linejoin:round;">
</g>
<g style="fill:#000000; fill-opacity:0.0; 
stroke:#000000; stroke-width:59.0551; stroke-opacity:1; 
stroke-linecap:round; stroke-linejoin:round;">
<path d="M69685 75396
L112205 75396
" />
</g>
<g style="fill:#000000; fill-opacity:0.0; 
stroke:#000000; stroke-width:39.3701; stroke-opacity:1; 
stroke-linecap:round; stroke-linejoin:round;">
</g>
<g style="fill:#000000; fill-opacity:0.0; 
stroke:#000000; stroke-width:118.11; stroke-opacity:1; 
stroke-linecap:round; stroke-linejoin:round;">
<path d="M104022 76293
L103825 76012
" />
<path d="M103684 76293
L103684 75703
L103909 75703
L103965 75731
L103994 75759
L104022 75815
L104022 75899
L103994 75956
L103965 75984
L103909 76012
L103684 76012
" />
<path d="M104500 76265
L104444 76293
L104331 76293
L104275 76265
L104247 76209
L104247 75984
L104275 75928
L104331 75899
L104444 75899
L104500 75928
L104528 75984
L104528 76040
L104247 76096
" />
<path d="M104725 75899
L104865 76293
L105006 75899
" />
<path d="M105231 76237
L105259 76265
L105231 76293
L105203 76265
L105231 76237
L105231 76293
" />
<path d="M105231 75928
L105259 75956
L105231 75984
L105203 75956
L105231 75928
L105231 75984
" />
</g>
<g style="fill:#000000; fill-opacity:0.0; 
stroke:#000000; stroke-width:39.3701; stroke-opacity:1; 
stroke-linecap:round; stroke-linejoin:round;">
</g>
<g style="fill:#000000; fill-opacity:0.0; 
stroke:#000000; stroke-width:59.0551; stroke-opacity:1; 
stroke-linecap:round; stroke-linejoin:round;">
<path d="M70192 76265
L70276 76293
L70417 76293
L70473 76265
L70501 76237
L70529 76181
L70529 76124
L70501 76068
L70473 76040
L70417 76012
L70304 75984
L70248 75956
L70220 75928
L70192 75871
L70192 75815
L70220 75759
L70248 75731
L70304 75703
L70445 75703
L70529 75731
" />
<path d="M70782 76293
L70782 75899
" />
<path d="M70782 75703
L70754 75731
L70782 75759
L70810 75731
L70782 75703
L70782 75759
" />
<path d="M71007 75899
L71316 75899
L71007 76293
L71316 76293
" />
<path d="M71766 76265
L71710 76293
L71598 76293
L71541 76265
L71513 76209
L71513 75984
L71541 75928
L71598 75899
L71710 75899
L71766 75928
L71795 75984
L71795 76040
L71513 76096
" />
<path d="M72048 76237
L72076 76265
L72048 76293
L72019 76265
L72048 76237
L72048 76293
" />
<path d="M72048 75928
L72076 75956
L72048 75984
L72019 75956
L72048 75928
L72048 75984
" />
<path d="M72751 76124
L73032 76124
" />
<path d="M72694 76293
L72891 75703
L73088 76293
" />
<path d="M73538 75899
L73538 76293
" />
<path d="M73397 75674
L73257 76096
L73622 76096
" />
</g>
<g style="fill:#000000; fill-opacity:0.0; 
stroke:#000000; stroke-width:39.3701; stroke-opacity:1; 
stroke-linecap:round; stroke-linejoin:round;">
</g>
<g style="fill:#000000; fill-opacity:0.0; 
stroke:#000000; stroke-width:59.0551; stroke-opacity:1; 
stroke-linecap:round; stroke-linejoin:round;">
<path d="M103684 77395
L103684 76805
" />
<path d="M104219 77395
L104219 76805
" />
<path d="M104219 77367
L104162 77395
L104050 77395
L103994 77367
L103965 77339
L103937 77283
L103937 77114
L103965 77058
L103994 77030
L104050 77002
L104162 77002
L104219 77030
" />
<path d="M104500 77339
L104528 77367
L104500 77395
L104472 77367
L104500 77339
L104500 77395
" />
<path d="M104500 77030
L104528 77058
L104500 77086
L104472 77058
L104500 77030
L104500 77086
" />
<path d="M105540 77395
L105203 77395
" />
<path d="M105372 77395
L105372 76805
L105315 76889
L105259 76946
L105203 76974
" />
<path d="M106215 76777
L105709 77536
" />
<path d="M106721 77395
L106384 77395
" />
<path d="M106553 77395
L106553 76805
L106496 76889
L106440 76946
L106384 76974
" />
</g>
<g style="fill:#000000; fill-opacity:0.0; 
stroke:#000000; stroke-width:39.3701; stroke-opacity:1; 
stroke-linecap:round; stroke-linejoin:round;">
</g>
<g style="fill:#000000; fill-opacity:0.0; 
stroke:#000000; stroke-width:59.0551; stroke-opacity:1; 
stroke-linecap:round; stroke-linejoin:round;">
<path d="M69685 73821
L112205 73821
" />
</g>
<g style="fill:#000000; fill-opacity:0.0; 
stroke:#000000; stroke-width:39.3701; stroke-opacity:1; 
stroke-linecap:round; stroke-linejoin:round;">
</g>
<g style="fill:#000000; fill-opacity:0.0; 
stroke:#000000; stroke-width:157.48; stroke-opacity:1; 
stroke-linecap:round; stroke-linejoin:round;">
<path d="M70257 74099
L70707 74099
" />
<path d="M70384 74886
L70482 74099
" />
<path d="M70871 74886
L70937 74361
" />
<path d="M70970 74099
L70927 74136
L70960 74174
L71002 74136
L70970 74099
L70960 74174
" />
<path d="M71199 74361
L71499 74361
" />
<path d="M71345 74099
L71260 74774
L71288 74849
L71359 74886
L71434 74886
" />
<path d="M71809 74886
L71738 74849
L71710 74774
L71795 74099
" />
<path d="M72413 74849
L72334 74886
L72184 74886
L72113 74849
L72085 74774
L72123 74474
L72169 74399
L72249 74361
L72399 74361
L72469 74399
L72498 74474
L72488 74549
L72104 74624
" />
<path d="M72793 74811
L72826 74849
L72783 74886
L72751 74849
L72793 74811
L72783 74886
" />
<path d="M72844 74399
L72877 74436
L72835 74474
L72802 74436
L72844 74399
L72835 74474
" />
</g>
<g style="fill:#000000; fill-opacity:0.0; 
stroke:#000000; stroke-width:39.3701; stroke-opacity:1; 
stroke-linecap:round; stroke-linejoin:round;">
</g>
<g style="fill:#000000; fill-opacity:0.0; 
stroke:#000000; stroke-width:59.0551; stroke-opacity:1; 
stroke-linecap:round; stroke-linejoin:round;">
<path d="M70417 73070
L70220 73070
" />
<path d="M70220 73380
L70220 72789
L70501 72789
" />
<path d="M70726 73380
L70726 72986
" />
<path d="M70726 72789
L70698 72817
L70726 72845
L70754 72817
L70726 72789
L70726 72845
" />
<path d="M71091 73380
L71035 73352
L71007 73295
L71007 72789
" />
<path d="M71541 73352
L71485 73380
L71373 73380
L71316 73352
L71288 73295
L71288 73070
L71316 73014
L71373 72986
L71485 72986
L71541 73014
L71570 73070
L71570 73127
L71288 73183
" />
<path d="M71823 73323
L71851 73352
L71823 73380
L71795 73352
L71823 73323
L71823 73380
" />
<path d="M71823 73014
L71851 73042
L71823 73070
L71795 73042
L71823 73014
L71823 73070
" />
<path d="M72554 73070
L72751 73070
" />
<path d="M72835 73380
L72554 73380
L72554 72789
L72835 72789
" />
<path d="M73060 73352
L73144 73380
L73285 73380
L73341 73352
L73369 73323
L73397 73267
L73397 73211
L73369 73155
L73341 73127
L73285 73099
L73172 73070
L73116 73042
L73088 73014
L73060 72958
L73060 72902
L73088 72845
L73116 72817
L73172 72789
L73313 72789
L73397 72817
" />
<path d="M73594 72789
L73988 73380
" />
<path d="M73988 72789
L73594 73380
" />
<path d="M74185 73211
L74466 73211
" />
<path d="M74129 73380
L74325 72789
L74522 73380
" />
<path d="M75057 73380
L74860 73099
" />
<path d="M74719 73380
L74719 72789
L74944 72789
L75000 72817
L75028 72845
L75057 72902
L75057 72986
L75028 73042
L75000 73070
L74944 73099
L74719 73099
" />
<path d="M75310 73323
L75338 73352
L75310 73380
L75282 73352
L75310 73323
L75310 73380
" />
<path d="M75591 73380
L75591 72789
" />
<path d="M75647 73155
L75816 73380
" />
<path d="M75816 72986
L75591 73211
" />
<path d="M76069 73380
L76069 72986
" />
<path d="M76069 72789
L76041 72817
L76069 72845
L76097 72817
L76069 72789
L76069 72845
" />
<path d="M76603 73352
L76547 73380
L76435 73380
L76378 73352
L76350 73323
L76322 73267
L76322 73099
L76350 73042
L76378 73014
L76435 72986
L76547 72986
L76603 73014
" />
<path d="M77109 73380
L77109 73070
L77081 73014
L77025 72986
L76913 72986
L76856 73014
" />
<path d="M77109 73352
L77053 73380
L76913 73380
L76856 73352
L76828 73295
L76828 73239
L76856 73183
L76913 73155
L77053 73155
L77109 73127
" />
<path d="M77644 73380
L77644 72789
" />
<path d="M77644 73352
L77588 73380
L77475 73380
L77419 73352
L77391 73323
L77363 73267
L77363 73099
L77391 73042
L77419 73014
L77475 72986
L77588 72986
L77644 73014
" />
<path d="M77784 73436
L78234 73436
" />
<path d="M78375 72986
L78375 73577
" />
<path d="M78375 73014
L78431 72986
L78544 72986
L78600 73014
L78628 73042
L78656 73099
L78656 73267
L78628 73323
L78600 73352
L78544 73380
L78431 73380
L78375 73352
" />
<path d="M79162 73352
L79106 73380
L78994 73380
L78937 73352
L78909 73323
L78881 73267
L78881 73099
L78909 73042
L78937 73014
L78994 72986
L79106 72986
L79162 73014
" />
<path d="M79415 73380
L79415 72789
" />
<path d="M79415 73014
L79472 72986
L79584 72986
L79640 73014
L79669 73042
L79697 73099
L79697 73267
L79669 73323
L79640 73352
L79584 73380
L79472 73380
L79415 73352
" />
</g>
<g style="fill:#000000; fill-opacity:0.0; 
stroke:#000000; stroke-width:39.3701; stroke-opacity:1; 
stroke-linecap:round; stroke-linejoin:round;">
</g>
<g style="fill:#000000; fill-opacity:0.0; 
stroke:#000000; stroke-width:59.0551; stroke-opacity:1; 
stroke-linecap:round; stroke-linejoin:round;">
<path d="M69685 71459
L112205 71459
" />
</g>
<g style="fill:#000000; fill-opacity:0.0; 
stroke:#000000; stroke-width:39.3701; stroke-opacity:1; 
stroke-linecap:round; stroke-linejoin:round;">
</g>
<g style="fill:#000000; fill-opacity:0.0; 
stroke:#000000; stroke-width:59.0551; stroke-opacity:1; 
stroke-linecap:round; stroke-linejoin:round;">
<path d="M70192 72289
L70276 72317
L70417 72317
L70473 72289
L70501 72260
L70529 72204
L70529 72148
L70501 72092
L70473 72064
L70417 72036
L70304 72007
L70248 71979
L70220 71951
L70192 71895
L70192 71839
L70220 71782
L70248 71754
L70304 71726
L70445 71726
L70529 71754
" />
<path d="M70782 72317
L70782 71726
" />
<path d="M71035 72317
L71035 72007
L71007 71951
L70951 71923
L70867 71923
L70810 71951
L70782 71979
" />
<path d="M71541 72289
L71485 72317
L71373 72317
L71316 72289
L71288 72232
L71288 72007
L71316 71951
L71373 71923
L71485 71923
L71541 71951
L71570 72007
L71570 72064
L71288 72120
" />
<path d="M72048 72289
L71991 72317
L71879 72317
L71823 72289
L71795 72232
L71795 72007
L71823 71951
L71879 71923
L71991 71923
L72048 71951
L72076 72007
L72076 72064
L71795 72120
" />
<path d="M72244 71923
L72469 71923
" />
<path d="M72329 71726
L72329 72232
L72357 72289
L72413 72317
L72469 72317
" />
<path d="M72666 72260
L72694 72289
L72666 72317
L72638 72289
L72666 72260
L72666 72317
" />
<path d="M72666 71951
L72694 71979
L72666 72007
L72638 71979
L72666 71951
L72666 72007
" />
</g>
<g style="fill:#000000; fill-opacity:0.0; 
stroke:#000000; stroke-width:39.3701; stroke-opacity:1; 
stroke-linecap:round; stroke-linejoin:round;">
</g>
<g style="fill:#000000; fill-opacity:0.0; 
stroke:#000000; stroke-width:59.0551; stroke-opacity:1; 
stroke-linecap:round; stroke-linejoin:round;">
<path d="M77559 75396
L77559 76577
" />
</g>
<g style="fill:#000000; fill-opacity:0.0; 
stroke:#000000; stroke-width:39.3701; stroke-opacity:1; 
stroke-linecap:round; stroke-linejoin:round;">
</g>
<g style="fill:#000000; fill-opacity:0.0; 
stroke:#000000; stroke-width:59.0551; stroke-opacity:1; 
stroke-linecap:round; stroke-linejoin:round;">
<path d="M102756 75396
L102756 77955
" />
</g>
<g style="fill:#C2C200; fill-opacity:0.0; 
stroke:#C2C200; stroke-width:59.0551; stroke-opacity:1; 
stroke-linecap:round; stroke-linejoin:round;">
</g>
<g style="fill:#C2C200; fill-opacity:0.0; 
stroke:#C2C200; stroke-width:118.11; stroke-opacity:1; 
stroke-linecap:round; stroke-linejoin:round;">
<path d="M53188 34291
L53188 31141
" />
<path d="M50039 34291
L53188 34291
" />
<path d="M50039 46811
L50039 34291
" />
<path d="M53188 46811
L50039 46811
" />
<path d="M53188 49960
L53188 46811
" />
<path d="M60275 49960
L53188 49960
" />
<path d="M60275 55078
L60275 49960
" />
<path d="M65078 55078
L60275 55078
" />
<path d="M65078 49960
L65078 55078
" />
<path d="M71614 49960
L65078 49960
" />
<path d="M71614 46811
L71614 49960
" />
<path d="M74763 46811
L71614 46811
" />
<path d="M74763 34291
L74763 46811
" />
<path d="M74803 34291
L74763 34291
" />
<path d="M74763 34291
L74803 34291
" />
<path d="M71614 34291
L74763 34291
" />
<path d="M71614 31141
L71614 34291
" />
<path d="M53188 31141
L71614 31141
" />
<circle cx="67322.8" cy="48425.2" r="629.921" /> 
<circle cx="54724.4" cy="48425.2" r="629.921" /> 
<circle cx="67322.8" cy="32677.2" r="629.921" /> 
<circle cx="54724.4" cy="32677.2" r="629.921" /> 
</g>
<g style="fill:#C2C200; fill-opacity:0.0; 
stroke:#C2C200; stroke-width:59.0551; stroke-opacity:1; 
stroke-linecap:round; stroke-linejoin:round;">
<path d="M60275 50000
L60225 50000
" />
<path d="M60275 55100
L60275 50000
" />
<path d="M65075 55100
L60275 55100
" />
<path d="M65100 50000
L65125 50000
" />
<path d="M65075 50000
L65100 50000
" />
<path d="M65125 50000
L65425 50000
" />
<path d="M65075 55100
L65075 50000
" />
<path d="M59425 50000
L60225 50000
" />
</g>
<g style="fill:#840084; fill-opacity:0.0; 
stroke:#840084; stroke-width:59.0551; stroke-opacity:1; 
stroke-linecap:round; stroke-linejoin:round;">
</g>
<g style="fill:#840084; fill-opacity:0.0; 
stroke:#840084; stroke-width:39.3701; stroke-opacity:1; 
stroke-linecap:round; stroke-linejoin:round;">
<path d="M73480 35096
L73480 34765
" />
<path d="M73244 34765
L73177 34765
L73143 34781
L73109 34812
L73092 34875
L73092 34985
L73109 35048
L73143 35080
L73177 35096
L73244 35096
L73278 35080
L73312 35048
L73329 34985
L73329 34875
L73312 34812
L73278 34781
L73244 34765
" />
<path d="M72755 35096
L72957 35096
" />
<path d="M72856 35096
L72856 34765
L72890 34812
L72924 34844
L72957 34859
" />
<path d="M72451 34765
L72519 34765
L72552 34781
L72569 34796
L72603 34844
L72620 34907
L72620 35033
L72603 35064
L72586 35080
L72552 35096
L72485 35096
L72451 35080
L72434 35064
L72417 35033
L72417 34954
L72434 34922
L72451 34907
L72485 34891
L72552 34891
L72586 34907
L72603 34922
L72620 34954
" />
<path d="M73480 36100
L73480 35770
" />
<path d="M73244 35770
L73177 35770
L73143 35785
L73109 35817
L73092 35880
L73092 35990
L73109 36053
L73143 36085
L73177 36100
L73244 36100
L73278 36085
L73312 36053
L73329 35990
L73329 35880
L73312 35817
L73278 35785
L73244 35770
" />
<path d="M72772 35770
L72941 35770
L72957 35927
L72941 35911
L72907 35896
L72822 35896
L72789 35911
L72772 35927
L72755 35959
L72755 36037
L72772 36069
L72789 36085
L72822 36100
L72907 36100
L72941 36085
L72957 36069
" />
<path d="M73480 37105
L73480 36774
" />
<path d="M73244 36774
L73177 36774
L73143 36790
L73109 36822
L73092 36885
L73092 36995
L73109 37058
L73143 37089
L73177 37105
L73244 37105
L73278 37089
L73312 37058
L73329 36995
L73329 36885
L73312 36822
L73278 36790
L73244 36774
" />
<path d="M72789 36885
L72789 37105
" />
<path d="M72873 36759
L72957 36995
L72738 36995
" />
<path d="M73480 38110
L73480 37779
" />
<path d="M73244 37779
L73177 37779
L73143 37795
L73109 37826
L73092 37889
L73092 38000
L73109 38062
L73143 38094
L73177 38110
L73244 38110
L73278 38094
L73312 38062
L73329 38000
L73329 37889
L73312 37826
L73278 37795
L73244 37779
" />
<path d="M72873 37779
L72839 37779
L72806 37795
L72789 37811
L72772 37842
L72755 37905
L72755 37984
L72772 38047
L72789 38078
L72806 38094
L72839 38110
L72873 38110
L72907 38094
L72924 38078
L72941 38047
L72957 37984
L72957 37905
L72941 37842
L72924 37811
L72907 37795
L72873 37779
" />
<path d="M73480 39114
L73480 38784
" />
<path d="M73244 38784
L73177 38784
L73143 38800
L73109 38831
L73092 38894
L73092 39004
L73109 39067
L73143 39099
L73177 39114
L73244 39114
L73278 39099
L73312 39067
L73329 39004
L73329 38894
L73312 38831
L73278 38800
L73244 38784
" />
<path d="M72957 38815
L72941 38800
L72907 38784
L72822 38784
L72789 38800
L72772 38815
L72755 38847
L72755 38878
L72772 38925
L72974 39114
L72755 39114
" />
<path d="M73480 40119
L73480 39788
" />
<path d="M73244 39788
L73177 39788
L73143 39804
L73109 39836
L73092 39899
L73092 40009
L73109 40072
L73143 40103
L73177 40119
L73244 40119
L73278 40103
L73312 40072
L73329 40009
L73329 39899
L73312 39836
L73278 39804
L73244 39788
" />
<path d="M72755 40119
L72957 40119
" />
<path d="M72856 40119
L72856 39788
L72890 39836
L72924 39867
L72957 39883
" />
<path d="M72451 39899
L72451 40119
" />
<path d="M72536 39773
L72620 40009
L72401 40009
" />
<path d="M73480 41124
L73480 40793
" />
<path d="M73244 40793
L73177 40793
L73143 40809
L73109 40840
L73092 40903
L73092 41014
L73109 41077
L73143 41108
L73177 41124
L73244 41124
L73278 41108
L73312 41077
L73329 41014
L73329 40903
L73312 40840
L73278 40809
L73244 40793
" />
<path d="M72755 41124
L72957 41124
" />
<path d="M72856 41124
L72856 40793
L72890 40840
L72924 40872
L72957 40888
" />
<path d="M72620 40825
L72603 40809
L72569 40793
L72485 40793
L72451 40809
L72434 40825
L72417 40856
L72417 40888
L72434 40935
L72637 41124
L72417 41124
" />
<path d="M73480 42129
L73480 41798
" />
<path d="M73244 41798
L73177 41798
L73143 41814
L73109 41845
L73092 41908
L73092 42018
L73109 42081
L73143 42113
L73177 42129
L73244 42129
L73278 42113
L73312 42081
L73329 42018
L73329 41908
L73312 41845
L73278 41814
L73244 41798
" />
<path d="M72755 42129
L72957 42129
" />
<path d="M72856 42129
L72856 41798
L72890 41845
L72924 41877
L72957 41892
" />
<path d="M72637 41798
L72417 41798
L72536 41924
L72485 41924
L72451 41940
L72434 41955
L72417 41987
L72417 42066
L72434 42097
L72451 42113
L72485 42129
L72586 42129
L72620 42113
L72637 42097
" />
<path d="M73480 43133
L73480 42803
" />
<path d="M73244 42803
L73177 42803
L73143 42818
L73109 42850
L73092 42913
L73092 43023
L73109 43086
L73143 43118
L73177 43133
L73244 43133
L73278 43118
L73312 43086
L73329 43023
L73329 42913
L73312 42850
L73278 42818
L73244 42803
" />
<path d="M72755 43133
L72957 43133
" />
<path d="M72856 43133
L72856 42803
L72890 42850
L72924 42881
L72957 42897
" />
<path d="M72434 42803
L72603 42803
L72620 42960
L72603 42944
L72569 42929
L72485 42929
L72451 42944
L72434 42960
L72417 42992
L72417 43070
L72434 43102
L72451 43118
L72485 43133
L72569 43133
L72603 43118
L72620 43102
" />
</g>
<g style="fill:#840084; fill-opacity:0.0; 
stroke:#840084; stroke-width:196.85; stroke-opacity:1; 
stroke-linecap:round; stroke-linejoin:round;">
<path d="M69233 40765
L68839 40765
" />
<path d="M68670 41384
L69233 41384
L69233 40203
L68670 40203
" />
<path d="M68220 41328
L68052 41384
L67770 41384
L67658 41328
L67602 41271
L67545 41159
L67545 41046
L67602 40934
L67658 40878
L67770 40821
L67995 40765
L68108 40709
L68164 40653
L68220 40540
L68220 40428
L68164 40315
L68108 40259
L67995 40203
L67714 40203
L67545 40259
" />
<path d="M67152 40203
L66364 41384
" />
<path d="M66364 40203
L67152 41384
" />
<path d="M65971 41046
L65408 41046
" />
<path d="M66083 41384
L65689 40203
L65296 41384
" />
<path d="M64227 41384
L64621 40821
" />
<path d="M64902 41384
L64902 40203
L64452 40203
L64340 40259
L64283 40315
L64227 40428
L64227 40596
L64283 40709
L64340 40765
L64452 40821
L64902 40821
" />
<path d="M62990 40203
L62596 41384
L62202 40203
" />
<path d="M61359 41328
L61471 41384
L61696 41384
L61809 41328
L61865 41215
L61865 40765
L61809 40653
L61696 40596
L61471 40596
L61359 40653
L61302 40765
L61302 40878
L61865 40990
" />
<path d="M60796 41384
L60796 40596
" />
<path d="M60796 40821
L60740 40709
L60684 40653
L60571 40596
L60459 40596
" />
<path d="M60065 41271
L60009 41328
L60065 41384
L60121 41328
L60065 41271
L60065 41384
" />
<path d="M59559 40315
L59503 40259
L59390 40203
L59109 40203
L58997 40259
L58940 40315
L58884 40428
L58884 40540
L58940 40709
L59615 41384
L58884 41384
" />
<path d="M58153 40203
L58040 40203
L57928 40259
L57872 40315
L57815 40428
L57759 40653
L57759 40934
L57815 41159
L57872 41271
L57928 41328
L58040 41384
L58153 41384
L58265 41328
L58322 41271
L58378 41159
L58434 40934
L58434 40653
L58378 40428
L58322 40315
L58265 40259
L58153 40203
" />
<path d="M56634 41384
L57309 41384
" />
<path d="M56972 41384
L56972 40203
L57084 40371
L57197 40484
L57309 40540
" />
<path d="M55622 40203
L55847 40203
L55959 40259
L56016 40315
L56128 40484
L56184 40709
L56184 41159
L56128 41271
L56072 41328
L55959 41384
L55734 41384
L55622 41328
L55566 41271
L55509 41159
L55509 40878
L55566 40765
L55622 40709
L55734 40653
L55959 40653
L56072 40709
L56128 40765
L56184 40878
" />
<path d="M54778 40203
L54666 40203
L54553 40259
L54497 40315
L54441 40428
L54385 40653
L54385 40934
L54441 41159
L54497 41271
L54553 41328
L54666 41384
L54778 41384
L54891 41328
L54947 41271
L55003 41159
L55060 40934
L55060 40653
L55003 40428
L54947 40315
L54891 40259
L54778 40203
" />
<path d="M53710 40709
L53822 40653
L53878 40596
L53935 40484
L53935 40428
L53878 40315
L53822 40259
L53710 40203
L53485 40203
L53372 40259
L53316 40315
L53260 40428
L53260 40484
L53316 40596
L53372 40653
L53485 40709
L53710 40709
L53822 40765
L53878 40821
L53935 40934
L53935 41159
L53878 41271
L53822 41328
L53710 41384
L53485 41384
L53372 41328
L53316 41271
L53260 41159
L53260 40934
L53316 40821
L53372 40765
L53485 40709
" />
<path d="M52529 40203
L52416 40203
L52304 40259
L52247 40315
L52191 40428
L52135 40653
L52135 40934
L52191 41159
L52247 41271
L52304 41328
L52416 41384
L52529 41384
L52641 41328
L52697 41271
L52754 41159
L52810 40934
L52810 40653
L52754 40428
L52697 40315
L52641 40259
L52529 40203
" />
<path d="M51066 40203
L51629 40203
L51685 40765
L51629 40709
L51516 40653
L51235 40653
L51123 40709
L51066 40765
L51010 40878
L51010 41159
L51066 41271
L51123 41328
L51235 41384
L51516 41384
L51629 41328
L51685 41271
" />
</g>
<g style="fill:#840084; fill-opacity:0.0; 
stroke:#840084; stroke-width:52.1654; stroke-opacity:1; 
stroke-linecap:round; stroke-linejoin:round;">
<path d="M59424 42122
L59454 42107
L59504 42107
L59524 42122
L59534 42137
L59543 42167
L59543 42197
L59534 42227
L59524 42242
L59504 42257
L59464 42272
L59444 42287
L59434 42302
L59424 42332
L59424 42362
L59434 42392
L59444 42407
L59464 42422
L59514 42422
L59543 42407
" />
<path d="M59633 42107
L59633 42422
L59712 42422
L59732 42407
L59742 42392
L59752 42362
L59752 42317
L59742 42287
L59732 42272
L59712 42257
L59633 42257
" />
<path d="M59842 42107
L59842 42422
" />
<path d="M59961 42107
L59871 42287
" />
<path d="M59961 42422
L59842 42242
" />
<path d="M60050 42272
L60209 42272
" />
<path d="M60209 42182
L60050 42182
" />
<path d="M60309 42107
L60309 42422
L60358 42422
L60388 42407
L60408 42377
L60418 42347
L60428 42287
L60428 42242
L60418 42182
L60408 42152
L60388 42122
L60358 42107
L60309 42107
" />
<path d="M60607 42422
L60567 42422
L60547 42407
L60537 42392
L60517 42347
L60507 42287
L60507 42167
L60517 42137
L60527 42122
L60547 42107
L60587 42107
L60607 42122
L60617 42137
L60627 42167
L60627 42242
L60617 42272
L60607 42287
L60587 42302
L60547 42302
L60527 42287
L60517 42272
L60507 42242
" />
<path d="M60875 42422
L60875 42167
L60885 42137
L60895 42122
L60915 42107
L60954 42107
L60974 42122
L60984 42137
L60994 42167
L60994 42422
" />
<path d="M61084 42122
L61113 42107
L61163 42107
L61183 42122
L61193 42137
L61203 42167
L61203 42197
L61193 42227
L61183 42242
L61163 42257
L61123 42272
L61103 42287
L61094 42302
L61084 42332
L61084 42362
L61094 42392
L61103 42407
L61123 42422
L61173 42422
L61203 42407
" />
<path d="M61362 42272
L61392 42257
L61402 42242
L61411 42212
L61411 42167
L61402 42137
L61392 42122
L61372 42107
L61292 42107
L61292 42422
L61362 42422
L61382 42407
L61392 42392
L61402 42362
L61402 42332
L61392 42302
L61382 42287
L61362 42272
L61292 42272
" />
<path d="M61501 42272
L61660 42272
" />
<path d="M61660 42182
L61501 42182
" />
<path d="M61759 42107
L61759 42422
L61809 42422
L61839 42407
L61859 42377
L61869 42347
L61878 42287
L61878 42242
L61869 42182
L61859 42152
L61839 42122
L61809 42107
L61759 42107
" />
<path d="M62057 42317
L62057 42107
" />
<path d="M62008 42437
L61958 42212
L62087 42212
" />
<path d="M62445 42107
L62375 42257
" />
<path d="M62326 42107
L62326 42422
L62405 42422
L62425 42407
L62435 42392
L62445 42362
L62445 42317
L62435 42287
L62425 42272
L62405 42257
L62326 42257
" />
<path d="M62534 42272
L62693 42272
" />
<path d="M62693 42182
L62534 42182
" />
<path d="M62793 42107
L62793 42422
L62842 42422
L62872 42407
L62892 42377
L62902 42347
L62912 42287
L62912 42242
L62902 42182
L62892 42152
L62872 42122
L62842 42107
L62793 42107
" />
<path d="M63111 42107
L62991 42107
" />
<path d="M63051 42107
L63051 42422
L63031 42377
L63011 42347
L62991 42332
" />
<path d="M63289 42422
L63250 42422
L63230 42407
L63220 42392
L63200 42347
L63190 42287
L63190 42167
L63200 42137
L63210 42122
L63230 42107
L63270 42107
L63289 42122
L63299 42137
L63309 42167
L63309 42242
L63299 42272
L63289 42287
L63270 42302
L63230 42302
L63210 42287
L63200 42272
L63190 42242
" />
<path d="M63667 42407
L63647 42422
L63617 42422
L63588 42407
L63568 42377
L63558 42347
L63548 42287
L63548 42242
L63558 42182
L63568 42152
L63588 42122
L63617 42107
L63637 42107
L63667 42122
L63677 42137
L63677 42242
L63637 42242
" />
<path d="M63766 42272
L63925 42272
" />
<path d="M63925 42182
L63766 42182
" />
<path d="M64025 42107
L64025 42422
L64074 42422
L64104 42407
L64124 42377
L64134 42347
L64144 42287
L64144 42242
L64134 42182
L64124 42152
L64104 42122
L64074 42107
L64025 42107
" />
<path d="M64223 42392
L64233 42407
L64253 42422
L64303 42422
L64323 42407
L64333 42392
L64343 42362
L64343 42332
L64333 42287
L64214 42107
L64343 42107
" />
<path d="M64661 42272
L64690 42257
L64700 42242
L64710 42212
L64710 42167
L64700 42137
L64690 42122
L64671 42107
L64591 42107
L64591 42422
L64661 42422
L64681 42407
L64690 42392
L64700 42362
L64700 42332
L64690 42302
L64681 42287
L64661 42272
L64591 42272
" />
<path d="M64800 42272
L64959 42272
" />
<path d="M64959 42182
L64800 42182
" />
<path d="M65058 42107
L65058 42422
L65108 42422
L65138 42407
L65157 42377
L65167 42347
L65177 42287
L65177 42242
L65167 42182
L65157 42152
L65138 42122
L65108 42107
L65058 42107
" />
<path d="M65376 42107
L65257 42107
" />
<path d="M65316 42107
L65316 42422
L65297 42377
L65277 42347
L65257 42332
" />
<path d="M65565 42422
L65465 42422
L65456 42272
L65465 42287
L65485 42302
L65535 42302
L65555 42287
L65565 42272
L65575 42242
L65575 42167
L65565 42137
L65555 42122
L65535 42107
L65485 42107
L65465 42122
L65456 42137
" />
</g>
<g style="fill:#840000; fill-opacity:0.0; 
stroke:#840000; stroke-width:52.1654; stroke-opacity:1; 
stroke-linecap:round; stroke-linejoin:round;">
</g>
<g style="fill:#840000; fill-opacity:0.0; 
stroke:#840000; stroke-width:59.0551; stroke-opacity:1; 
stroke-linecap:round; stroke-linejoin:round;">
<path d="M73928 46521
L73534 46521
L73534 46671
L73553 46709
L73571 46728
L73609 46746
L73665 46746
L73703 46728
L73721 46709
L73740 46671
L73740 46521
" />
<path d="M73928 47121
L73928 46896
" />
<path d="M73928 47009
L73534 47009
L73590 46971
L73628 46934
L73646 46896
" />
<path d="M73534 47253
L73534 47515
L73928 47346
" />
<path d="M73483 46599
L73483 46206
L73333 46206
L73296 46225
L73277 46243
L73258 46281
L73258 46337
L73277 46374
L73296 46393
L73333 46412
L73483 46412
" />
<path d="M73033 46374
L73071 46356
L73090 46337
L73108 46299
L73108 46281
L73090 46243
L73071 46225
L73033 46206
L72958 46206
L72921 46225
L72902 46243
L72883 46281
L72883 46299
L72902 46337
L72921 46356
L72958 46374
L73033 46374
L73071 46393
L73090 46412
L73108 46449
L73108 46524
L73090 46562
L73071 46581
L73033 46599
L72958 46599
L72921 46581
L72902 46562
L72883 46524
L72883 46449
L72902 46412
L72921 46393
L72958 46374
" />
<path d="M57484 33221
L57765 33221
L57821 33203
L57859 33165
L57878 33109
L57878 33071
" />
<path d="M57878 33409
L57484 33409
L57484 33559
L57503 33596
L57521 33615
L57559 33634
L57615 33634
L57653 33615
L57671 33596
L57690 33559
L57690 33409
" />
<path d="M57878 34009
L57878 33784
" />
<path d="M57878 33896
L57484 33896
L57540 33859
L57578 33821
L57596 33784
" />
</g>
<g style="fill:#840084; fill-opacity:0.0; 
stroke:#840084; stroke-width:59.0551; stroke-opacity:1; 
stroke-linecap:round; stroke-linejoin:round;">
</g>
<g style="fill:#840084; fill-opacity:1.0; 
stroke:#840084; stroke-width:1; stroke-opacity:1; 
stroke-linecap:round; stroke-linejoin:round;">
<polyline style="fill-rule:evenodd;"
points="52664,39234
52652,39228
52627,39212
52590,39188
52547,39159
52503,39129
52468,39105
52443,39089
52432,39084
52427,39086
52406,39096
52376,39111
52359,39120
52331,39132
52318,39134
52315,39131
52305,39110
52290,39074
52269,39026
52245,38971
52220,38911
52194,38850
52170,38791
52149,38739
52132,38696
52120,38667
52116,38654
52117,38651
52131,38638
52155,38620
52207,38578
52258,38514
52289,38441
52300,38361
52291,38286
52261,38214
52211,38150
52151,38102
52080,38071
52000,38062
51924,38070
51851,38099
51786,38148
51759,38180
51721,38245
51700,38315
51697,38333
51701,38410
51723,38483
51764,38549
51820,38603
51827,38609
51854,38628
51871,38642
51885,38653
51787,38889
51771,38926
51744,38991
51721,39046
51702,39090
51689,39120
51683,39132
51682,39132
51674,39134
51656,39127
51623,39111
51601,39100
51576,39088
51565,39084
51555,39089
51531,39104
51496,39128
51454,39157
51414,39184
51377,39208
51350,39225
51337,39232
51335,39232
51323,39226
51302,39208
51270,39178
51224,39133
51217,39126
51180,39088
51150,39056
51129,39034
51122,39023
51122,39023
51129,39010
51146,38984
51170,38946
51200,38902
51278,38789
51235,38682
51222,38649
51205,38609
51193,38581
51187,38568
51175,38564
51146,38557
51103,38548
51052,38539
51004,38530
50961,38522
50929,38516
50915,38513
50911,38511
50909,38504
50907,38489
50906,38463
50905,38421
50905,38361
50905,38354
50906,38296
50907,38251
50908,38221
50910,38209
50910,38209
50924,38206
50955,38199
50998,38191
51050,38181
51054,38180
51105,38170
51149,38161
51179,38154
51192,38150
51195,38146
51205,38126
51220,38094
51237,38055
51254,38014
51269,37978
51279,37950
51282,37938
51281,37938
51274,37925
51256,37898
51231,37861
51200,37817
51198,37814
51168,37770
51144,37733
51128,37706
51122,37694
51122,37694
51132,37681
51154,37656
51186,37622
51225,37584
51237,37572
51279,37530
51309,37503
51327,37488
51336,37485
51337,37485
51350,37493
51377,37511
51415,37537
51459,37567
51462,37569
51506,37599
51543,37624
51569,37641
51580,37648
51582,37648
51600,37642
51631,37631
51669,37617
51710,37600
51746,37585
51774,37572
51787,37565
51787,37564
51792,37549
51800,37516
51809,37471
51819,37417
51821,37408
51831,37356
51839,37313
51845,37283
51848,37271
51856,37269
51881,37267
51920,37266
51967,37266
52016,37266
52065,37267
52106,37269
52136,37271
52148,37273
52148,37274
52153,37290
52160,37323
52169,37368
52180,37422
52182,37432
52191,37484
52200,37526
52206,37556
52210,37567
52214,37570
52236,37579
52271,37594
52314,37611
52414,37652
52537,37567
52549,37560
52593,37530
52629,37505
52654,37489
52665,37483
52666,37484
52678,37494
52702,37517
52736,37550
52774,37588
52803,37617
52837,37651
52858,37674
52870,37689
52874,37698
52873,37704
52865,37717
52847,37744
52822,37781
52792,37825
52767,37861
52741,37902
52723,37932
52717,37946
52719,37952
52727,37976
52742,38013
52760,38056
52803,38153
52867,38166
52906,38173
52960,38183
53011,38193
53092,38209
53095,38505
53083,38511
53071,38514
53041,38521
52998,38529
52948,38539
52905,38547
52861,38555
52830,38561
52816,38564
52813,38568
52802,38589
52787,38623
52770,38663
52752,38704
52737,38743
52726,38772
52722,38787
52728,38798
52745,38824
52769,38860
52798,38903
52827,38946
52852,38983
52869,39009
52877,39021
52873,39030
52856,39050
52823,39084
52775,39132
52767,39139
52729,39176
52696,39206
52674,39226
52664,39234
" /> 
</g>
<g style="fill:#840000; fill-opacity:1.0; 
stroke:#840000; stroke-width:1; stroke-opacity:1; 
stroke-linecap:round; stroke-linejoin:round;">
</g>
<g style="fill:#840000; fill-opacity:1.0; 
stroke:#840000; stroke-width:0; stroke-opacity:1; 
stroke-linecap:round; stroke-linejoin:round;">
<circle cx="70750" cy="47500" r="500" /> 
</g>
<g style="fill:#840000; fill-opacity:1.0; 
stroke:#840000; stroke-width:39.3701; stroke-opacity:1; 
stroke-linecap:round; stroke-linejoin:round;">
</g>
<g style="fill:#840000; fill-opacity:1.0; 
stroke:#840000; stroke-width:0; stroke-opacity:1; 
stroke-linecap:round; stroke-linejoin:round;">
<circle cx="70750" cy="46000" r="500" /> 
</g>
<g style="fill:#840000; fill-opacity:1.0; 
stroke:#840000; stroke-width:39.3701; stroke-opacity:1; 
stroke-linecap:round; stroke-linejoin:round;">
</g>
<g style="fill:#840000; fill-opacity:1.0; 
stroke:#840000; stroke-width:0; stroke-opacity:1; 
stroke-linecap:round; stroke-linejoin:round;">
<circle cx="72250" cy="46000" r="500" /> 
</g>
<g style="fill:#840000; fill-opacity:1.0; 
stroke:#840000; stroke-width:39.3701; stroke-opacity:1; 
stroke-linecap:round; stroke-linejoin:round;">
</g>
<g style="fill:#840000; fill-opacity:1.0; 
stroke:#840000; stroke-width:0; stroke-opacity:1; 
stroke-linecap:round; stroke-linejoin:round;">
<circle cx="69750" cy="48250" r="984.252" /> 
</g>
<g style="fill:#840000; fill-opacity:1.0; 
stroke:#840000; stroke-width:39.3701; stroke-opacity:1; 
stroke-linecap:round; stroke-linejoin:round;">
</g>
<g style="fill:#840000; fill-opacity:1.0; 
stroke:#840000; stroke-width:0; stroke-opacity:1; 
stroke-linecap:round; stroke-linejoin:round;">
<circle cx="69750" cy="45000" r="984.252" /> 
</g>
<g style="fill:#840000; fill-opacity:1.0; 
stroke:#840000; stroke-width:39.3701; stroke-opacity:1; 
stroke-linecap:round; stroke-linejoin:round;">
</g>
<g style="fill:#840000; fill-opacity:1.0; 
stroke:#840000; stroke-width:0; stroke-opacity:1; 
stroke-linecap:round; stroke-linejoin:round;">
<circle cx="72750" cy="45000" r="984.252" /> 
</g>
<g style="fill:#840000; fill-opacity:1.0; 
stroke:#840000; stroke-width:39.3701; stroke-opacity:1; 
stroke-linecap:round; stroke-linejoin:round;">
</g>
<g style="fill:#840000; fill-opacity:1.0; 
stroke:#840000; stroke-width:669.291; stroke-opacity:1; 
stroke-linecap:round; stroke-linejoin:round;">
</g>
<g style="fill:#840000; fill-opacity:0.0; 
stroke:#840000; stroke-width:669.291; stroke-opacity:1; 
stroke-linecap:round; stroke-linejoin:round;">
<path d="M57309 33750
L57190 33750
" />
<path d="M57309 32750
L57190 32750
" />
<path d="M57309 31750
L57190 31750
" />
</g> 
</svg>
