<?xml version="1.0" encoding="UTF-8" standalone="no"?>
<svg
   xmlns:dc="http://purl.org/dc/elements/1.1/"
   xmlns:cc="http://creativecommons.org/ns#"
   xmlns:rdf="http://www.w3.org/1999/02/22-rdf-syntax-ns#"
   xmlns:svg="http://www.w3.org/2000/svg"
   xmlns="http://www.w3.org/2000/svg"
   xmlns:sodipodi="http://sodipodi.sourceforge.net/DTD/sodipodi-0.dtd"
   xmlns:inkscape="http://www.inkscape.org/namespaces/inkscape"
   version="1.1"
   width="841"
   height="545"
   viewBox="0 0 93444.507 60555.617"
   id="svg43168"
   inkscape:version="0.91 r13725"
   sodipodi:docname="ESXAR-F.Mask-solderingmask-5.svg">
  <metadata
     id="metadata43996">
    <rdf:RDF>
      <cc:Work
         rdf:about="">
        <dc:format>image/svg+xml</dc:format>
        <dc:type
           rdf:resource="http://purl.org/dc/dcmitype/StillImage" />
        <dc:title>SVG Picture created as ESXAR-F.Paste.svg date 2016/08/05 19:53:52 </dc:title>
      </cc:Work>
    </rdf:RDF>
  </metadata>
  <defs
     id="defs43994" />
  <sodipodi:namedview
     pagecolor="#ffffff"
     bordercolor="#666666"
     borderopacity="1"
     objecttolerance="10"
     gridtolerance="10"
     guidetolerance="10"
     inkscape:pageopacity="0"
     inkscape:pageshadow="2"
     inkscape:window-width="1301"
     inkscape:window-height="744"
     id="namedview43992"
     showgrid="false"
     inkscape:zoom="4.5667839"
     inkscape:cx="130.05691"
     inkscape:cy="421.82317"
     inkscape:window-x="65"
     inkscape:window-y="24"
     inkscape:window-maximized="1"
     inkscape:current-layer="layer2"
     fit-margin-top="0"
     fit-margin-left="0"
     fit-margin-right="0"
     fit-margin-bottom="0"
     inkscape:document-units="px"
     units="px" />
  <title
     id="title43170">SVG Picture created as ESXAR-F.Paste.svg date 2016/08/05 19:53:52 </title>
  <desc
     id="desc43172">Picture generated by PCBNEW </desc>
  <g
     inkscape:groupmode="layer"
     id="layer1"
     inkscape:label="pin"
     style="display:inline"
     transform="translate(-45134.354,8758.9311)">
    <path
       style="color:#000000;font-style:normal;font-variant:normal;font-weight:normal;font-stretch:normal;font-size:medium;line-height:normal;font-family:sans-serif;text-indent:0;text-align:start;text-decoration:none;text-decoration-line:none;text-decoration-style:solid;text-decoration-color:#000000;letter-spacing:normal;word-spacing:normal;text-transform:none;direction:ltr;block-progression:tb;writing-mode:lr-tb;baseline-shift:baseline;text-anchor:start;white-space:normal;clip-rule:nonzero;display:inline;overflow:visible;visibility:visible;opacity:1;isolation:auto;mix-blend-mode:normal;color-interpolation:sRGB;color-interpolation-filters:linearRGB;solid-color:#000000;solid-opacity:1;fill:none;fill-opacity:1;fill-rule:nonzero;stroke:#006a00;stroke-width:111.11121368;stroke-linecap:round;stroke-linejoin:round;stroke-miterlimit:4;stroke-dasharray:none;stroke-dashoffset:0;stroke-opacity:1;color-rendering:auto;image-rendering:auto;shape-rendering:auto;text-rendering:auto;enable-background:accumulate"
       d="m 60233.091,4106.1269 c -206.696,0 -374.256,167.562 -374.256,374.256 0,206.696 167.56,374.256 374.256,374.256 206.696,0 374.256,-167.56 374.256,-374.256 0,-206.694 -167.56,-374.256 -374.256,-374.256 z m 0,0.03 c 206.678,0 374.225,167.547 374.225,374.224 0,206.679 -167.547,374.226 -374.225,374.226 -206.678,0 -374.225,-167.547 -374.225,-374.226 0,-206.677 167.547,-374.224 374.225,-374.224 z"
       id="circle41118"
       inkscape:connector-curvature="0" />
    <path
       style="color:#000000;font-style:normal;font-variant:normal;font-weight:normal;font-stretch:normal;font-size:medium;line-height:normal;font-family:sans-serif;text-indent:0;text-align:start;text-decoration:none;text-decoration-line:none;text-decoration-style:solid;text-decoration-color:#000000;letter-spacing:normal;word-spacing:normal;text-transform:none;direction:ltr;block-progression:tb;writing-mode:lr-tb;baseline-shift:baseline;text-anchor:start;white-space:normal;clip-rule:nonzero;display:inline;overflow:visible;visibility:visible;opacity:1;isolation:auto;mix-blend-mode:normal;color-interpolation:sRGB;color-interpolation-filters:linearRGB;solid-color:#000000;solid-opacity:1;fill:none;fill-opacity:1;fill-rule:nonzero;stroke:#006a00;stroke-width:111.11121368;stroke-linecap:round;stroke-linejoin:round;stroke-miterlimit:4;stroke-dasharray:none;stroke-dashoffset:0;stroke-opacity:1;color-rendering:auto;image-rendering:auto;shape-rendering:auto;text-rendering:auto;enable-background:accumulate"
       d="m 59233.091,4106.1269 c -206.696,0 -374.256,167.562 -374.256,374.256 0,206.696 167.56,374.256 374.256,374.256 206.696,0 374.256,-167.56 374.256,-374.256 0,-206.694 -167.56,-374.256 -374.256,-374.256 z m 0,0.03 c 206.678,0 374.225,167.547 374.225,374.224 0,206.679 -167.547,374.226 -374.225,374.226 -206.678,0 -374.225,-167.547 -374.225,-374.226 0,-206.677 167.547,-374.224 374.225,-374.224 z"
       id="circle41124"
       inkscape:connector-curvature="0" />
    <path
       style="color:#000000;font-style:normal;font-variant:normal;font-weight:normal;font-stretch:normal;font-size:medium;line-height:normal;font-family:sans-serif;text-indent:0;text-align:start;text-decoration:none;text-decoration-line:none;text-decoration-style:solid;text-decoration-color:#000000;letter-spacing:normal;word-spacing:normal;text-transform:none;direction:ltr;block-progression:tb;writing-mode:lr-tb;baseline-shift:baseline;text-anchor:start;white-space:normal;clip-rule:nonzero;display:inline;overflow:visible;visibility:visible;opacity:1;isolation:auto;mix-blend-mode:normal;color-interpolation:sRGB;color-interpolation-filters:linearRGB;solid-color:#000000;solid-opacity:1;fill:none;fill-opacity:1;fill-rule:nonzero;stroke:#006a00;stroke-width:111.11121368;stroke-linecap:round;stroke-linejoin:round;stroke-miterlimit:4;stroke-dasharray:none;stroke-dashoffset:0;stroke-opacity:1;color-rendering:auto;image-rendering:auto;shape-rendering:auto;text-rendering:auto;enable-background:accumulate"
       d="m 58433.091,4106.1269 c -206.696,0 -374.256,167.562 -374.256,374.256 0,206.696 167.56,374.256 374.256,374.256 206.696,0 374.256,-167.56 374.256,-374.256 0,-206.694 -167.56,-374.256 -374.256,-374.256 z m 0,0.03 c 206.678,0 374.225,167.547 374.225,374.224 0,206.679 -167.547,374.226 -374.225,374.226 -206.678,0 -374.225,-167.547 -374.225,-374.226 0,-206.677 167.547,-374.224 374.225,-374.224 z"
       id="circle41130"
       inkscape:connector-curvature="0" />
    <path
       style="color:#000000;font-style:normal;font-variant:normal;font-weight:normal;font-stretch:normal;font-size:medium;line-height:normal;font-family:sans-serif;text-indent:0;text-align:start;text-decoration:none;text-decoration-line:none;text-decoration-style:solid;text-decoration-color:#000000;letter-spacing:normal;word-spacing:normal;text-transform:none;direction:ltr;block-progression:tb;writing-mode:lr-tb;baseline-shift:baseline;text-anchor:start;white-space:normal;clip-rule:nonzero;display:inline;overflow:visible;visibility:visible;opacity:1;isolation:auto;mix-blend-mode:normal;color-interpolation:sRGB;color-interpolation-filters:linearRGB;solid-color:#000000;solid-opacity:1;fill:none;fill-opacity:1;fill-rule:nonzero;stroke:#006a00;stroke-width:111.11121368;stroke-linecap:round;stroke-linejoin:round;stroke-miterlimit:4;stroke-dasharray:none;stroke-dashoffset:0;stroke-opacity:1;color-rendering:auto;image-rendering:auto;shape-rendering:auto;text-rendering:auto;enable-background:accumulate"
       d="m 57433.091,4106.1269 c -206.696,0 -374.256,167.562 -374.256,374.256 0,206.696 167.56,374.256 374.256,374.256 206.696,0 374.256,-167.56 374.256,-374.256 0,-206.694 -167.56,-374.256 -374.256,-374.256 z m 0,0.03 c 206.678,0 374.225,167.547 374.225,374.224 0,206.679 -167.547,374.226 -374.225,374.226 -206.678,0 -374.225,-167.547 -374.225,-374.226 0,-206.677 167.547,-374.224 374.225,-374.224 z"
       id="circle41136"
       inkscape:connector-curvature="0" />
    <path
       style="color:#000000;font-style:normal;font-variant:normal;font-weight:normal;font-stretch:normal;font-size:medium;line-height:normal;font-family:sans-serif;text-indent:0;text-align:start;text-decoration:none;text-decoration-line:none;text-decoration-style:solid;text-decoration-color:#000000;letter-spacing:normal;word-spacing:normal;text-transform:none;direction:ltr;block-progression:tb;writing-mode:lr-tb;baseline-shift:baseline;text-anchor:start;white-space:normal;clip-rule:nonzero;display:inline;overflow:visible;visibility:visible;opacity:1;isolation:auto;mix-blend-mode:normal;color-interpolation:sRGB;color-interpolation-filters:linearRGB;solid-color:#000000;solid-opacity:1;fill:none;fill-opacity:1;fill-rule:nonzero;stroke:#006a00;stroke-width:111.11121368;stroke-linecap:round;stroke-linejoin:round;stroke-miterlimit:4;stroke-dasharray:none;stroke-dashoffset:0;stroke-opacity:1;color-rendering:auto;image-rendering:auto;shape-rendering:auto;text-rendering:auto;enable-background:accumulate"
       d="m 61329.591,4216.8949 a 669.35689,669.35682 0 1 0 0,1338.578 669.35689,669.35682 0 1 0 0,-1338.578 z"
       id="path41144"
       inkscape:connector-curvature="0" />
    <path
       style="color:#000000;font-style:normal;font-variant:normal;font-weight:normal;font-stretch:normal;font-size:medium;line-height:normal;font-family:sans-serif;text-indent:0;text-align:start;text-decoration:none;text-decoration-line:none;text-decoration-style:solid;text-decoration-color:#000000;letter-spacing:normal;word-spacing:normal;text-transform:none;direction:ltr;block-progression:tb;writing-mode:lr-tb;baseline-shift:baseline;text-anchor:start;white-space:normal;clip-rule:nonzero;display:inline;overflow:visible;visibility:visible;opacity:1;isolation:auto;mix-blend-mode:normal;color-interpolation:sRGB;color-interpolation-filters:linearRGB;solid-color:#000000;solid-opacity:1;fill:none;fill-opacity:1;fill-rule:nonzero;stroke:#006a00;stroke-width:111.11121368;stroke-linecap:round;stroke-linejoin:round;stroke-miterlimit:4;stroke-dasharray:none;stroke-dashoffset:0;stroke-opacity:1;color-rendering:auto;image-rendering:auto;shape-rendering:auto;text-rendering:auto;enable-background:accumulate"
       d="m 56290.591,4216.8949 a 669.35689,669.35682 0 1 0 0,1338.578 669.35689,669.35682 0 1 0 0,-1338.578 z"
       id="path41146"
       inkscape:connector-curvature="0" />
  </g>
  <g
     inkscape:groupmode="layer"
     id="layer2"
     inkscape:label="bh"
     transform="translate(-45134.354,8758.9311)">
    <g
       style="fill:#000000;fill-opacity:1;stroke:#000000;stroke-linecap:round;stroke-linejoin:round;stroke-opacity:1"
       transform="translate(-3.8282424e-5,-1.8303863e-4)"
       id="g43174" />
    <g
       transform="translate(-3.8282424e-5,-1.8303863e-4)"
       style="fill:#000000;fill-opacity:0;stroke:#000000;stroke-width:-0.0003937;stroke-linecap:round;stroke-linejoin:round;stroke-opacity:1"
       id="g43176" />
    <g
       transform="translate(-3.8282424e-5,-1.8303863e-4)"
       style="fill:#000000;fill-opacity:0;stroke:#000000;stroke-width:39.37009811;stroke-linecap:round;stroke-linejoin:round;stroke-opacity:1"
       id="g43178" />
    <g
       transform="translate(-3.8282424e-5,-1.8303863e-4)"
       style="fill:#000000;fill-opacity:0;stroke:#000000;stroke-width:39.37009811;stroke-linecap:round;stroke-linejoin:round;stroke-opacity:1"
       id="g43184" />
    <g
       transform="translate(-3.8282424e-5,-1.8303863e-4)"
       style="fill:#000000;fill-opacity:0;stroke:#000000;stroke-width:39.37009811;stroke-linecap:round;stroke-linejoin:round;stroke-opacity:1"
       id="g43190" />
    <g
       transform="translate(-3.8282424e-5,-1.8303863e-4)"
       style="fill:#000000;fill-opacity:0;stroke:#000000;stroke-width:39.37009811;stroke-linecap:round;stroke-linejoin:round;stroke-opacity:1"
       id="g43196" />
    <g
       transform="translate(-3.8282424e-5,-1.8303863e-4)"
       style="fill:#000000;fill-opacity:0;stroke:#000000;stroke-width:39.37009811;stroke-linecap:round;stroke-linejoin:round;stroke-opacity:1"
       id="g43202" />
    <g
       transform="translate(-3.8282424e-5,-1.8303863e-4)"
       style="fill:#000000;fill-opacity:0;stroke:#000000;stroke-width:39.37009811;stroke-linecap:round;stroke-linejoin:round;stroke-opacity:1"
       id="g43208" />
    <g
       transform="translate(-3.8282424e-5,-1.8303863e-4)"
       style="fill:#000000;fill-opacity:0;stroke:#000000;stroke-width:39.37009811;stroke-linecap:round;stroke-linejoin:round;stroke-opacity:1"
       id="g43214" />
    <g
       transform="translate(-3.8282424e-5,-1.8303863e-4)"
       style="fill:#000000;fill-opacity:0;stroke:#000000;stroke-width:39.37009811;stroke-linecap:round;stroke-linejoin:round;stroke-opacity:1"
       id="g43220" />
    <g
       transform="translate(-3.8282424e-5,-1.8303863e-4)"
       style="fill:#000000;fill-opacity:0;stroke:#000000;stroke-width:39.37009811;stroke-linecap:round;stroke-linejoin:round;stroke-opacity:1"
       id="g43226" />
    <g
       transform="translate(-3.8282424e-5,-1.8303863e-4)"
       style="fill:#000000;fill-opacity:0;stroke:#000000;stroke-width:39.37009811;stroke-linecap:round;stroke-linejoin:round;stroke-opacity:1"
       id="g43234" />
    <g
       transform="translate(-3.8282424e-5,-1.8303863e-4)"
       style="fill:#000000;fill-opacity:0;stroke:#000000;stroke-width:39.37009811;stroke-linecap:round;stroke-linejoin:round;stroke-opacity:1"
       id="g43240" />
    <g
       transform="translate(-3.8282424e-5,-1.8303863e-4)"
       style="fill:#000000;fill-opacity:0;stroke:#000000;stroke-width:39.37009811;stroke-linecap:round;stroke-linejoin:round;stroke-opacity:1"
       id="g43246" />
    <g
       transform="translate(-3.8282424e-5,-1.8303863e-4)"
       style="fill:#000000;fill-opacity:0;stroke:#000000;stroke-width:39.37009811;stroke-linecap:round;stroke-linejoin:round;stroke-opacity:1"
       id="g43254" />
    <g
       transform="translate(-3.8282424e-5,-1.8303863e-4)"
       style="fill:#000000;fill-opacity:0;stroke:#000000;stroke-width:39.37009811;stroke-linecap:round;stroke-linejoin:round;stroke-opacity:1"
       id="g43260" />
    <g
       transform="translate(-3.8282424e-5,-1.8303863e-4)"
       style="fill:#000000;fill-opacity:0;stroke:#000000;stroke-width:39.37009811;stroke-linecap:round;stroke-linejoin:round;stroke-opacity:1"
       id="g43266" />
    <g
       transform="translate(-3.8282424e-5,-1.8303863e-4)"
       style="fill:#000000;fill-opacity:0;stroke:#000000;stroke-width:39.37009811;stroke-linecap:round;stroke-linejoin:round;stroke-opacity:1"
       id="g43272" />
    <g
       transform="translate(-3.8282424e-5,-1.8303863e-4)"
       style="fill:#000000;fill-opacity:0;stroke:#000000;stroke-width:39.37009811;stroke-linecap:round;stroke-linejoin:round;stroke-opacity:1"
       id="g43278" />
    <g
       transform="translate(-3.8282424e-5,-1.8303863e-4)"
       style="fill:#000000;fill-opacity:0;stroke:#000000;stroke-width:39.37009811;stroke-linecap:round;stroke-linejoin:round;stroke-opacity:1"
       id="g43284" />
    <g
       transform="translate(-3.8282424e-5,-1.8303863e-4)"
       style="fill:#000000;fill-opacity:0;stroke:#000000;stroke-width:39.37009811;stroke-linecap:round;stroke-linejoin:round;stroke-opacity:1"
       id="g43290" />
    <g
       transform="translate(-3.8282424e-5,-1.8303863e-4)"
       style="fill:#000000;fill-opacity:0;stroke:#000000;stroke-width:39.37009811;stroke-linecap:round;stroke-linejoin:round;stroke-opacity:1"
       id="g43296" />
    <g
       transform="translate(-3.8282424e-5,-1.8303863e-4)"
       style="fill:#000000;fill-opacity:0;stroke:#000000;stroke-width:39.37009811;stroke-linecap:round;stroke-linejoin:round;stroke-opacity:1"
       id="g43304" />
    <g
       transform="translate(-3.8282424e-5,-1.8303863e-4)"
       style="fill:#000000;fill-opacity:0;stroke:#000000;stroke-width:39.37009811;stroke-linecap:round;stroke-linejoin:round;stroke-opacity:1"
       id="g43310" />
    <g
       transform="translate(-3.8282424e-5,-1.8303863e-4)"
       style="fill:#000000;fill-opacity:0;stroke:#000000;stroke-width:39.37009811;stroke-linecap:round;stroke-linejoin:round;stroke-opacity:1"
       id="g43316" />
    <g
       transform="translate(-3.8282424e-5,-1.8303863e-4)"
       style="fill:#000000;fill-opacity:0;stroke:#000000;stroke-width:39.37009811;stroke-linecap:round;stroke-linejoin:round;stroke-opacity:1"
       id="g43324" />
    <g
       transform="translate(-3.8282424e-5,-1.8303863e-4)"
       style="fill:#000000;fill-opacity:0;stroke:#000000;stroke-width:39.37009811;stroke-linecap:round;stroke-linejoin:round;stroke-opacity:1"
       id="g43330" />
    <g
       transform="translate(-3.8282424e-5,-1.8303863e-4)"
       style="fill:#000000;fill-opacity:0;stroke:#000000;stroke-width:39.37009811;stroke-linecap:round;stroke-linejoin:round;stroke-opacity:1"
       id="g43336" />
    <g
       transform="translate(-3.8282424e-5,-1.8303863e-4)"
       style="fill:#000000;fill-opacity:0;stroke:#000000;stroke-width:39.37009811;stroke-linecap:round;stroke-linejoin:round;stroke-opacity:1"
       id="g43342" />
    <g
       transform="translate(-3.8282424e-5,-1.8303863e-4)"
       style="fill:#000000;fill-opacity:0;stroke:#000000;stroke-width:39.37009811;stroke-linecap:round;stroke-linejoin:round;stroke-opacity:1"
       id="g43348" />
    <g
       transform="translate(-3.8282424e-5,-1.8303863e-4)"
       style="fill:#000000;fill-opacity:0;stroke:#000000;stroke-width:39.37009811;stroke-linecap:round;stroke-linejoin:round;stroke-opacity:1"
       id="g43354" />
    <g
       transform="translate(-3.8282424e-5,-1.8303863e-4)"
       style="fill:#000000;fill-opacity:0;stroke:#000000;stroke-width:39.37009811;stroke-linecap:round;stroke-linejoin:round;stroke-opacity:1"
       id="g43362" />
    <g
       transform="translate(-3.8282424e-5,-1.8303863e-4)"
       style="fill:#000000;fill-opacity:0;stroke:#000000;stroke-width:39.37009811;stroke-linecap:round;stroke-linejoin:round;stroke-opacity:1"
       id="g43368" />
    <g
       transform="translate(-3.8282424e-5,-1.8303863e-4)"
       style="fill:#000000;fill-opacity:0;stroke:#000000;stroke-width:39.37009811;stroke-linecap:round;stroke-linejoin:round;stroke-opacity:1"
       id="g43374" />
    <g
       transform="translate(-3.8282424e-5,-1.8303863e-4)"
       style="fill:#000000;fill-opacity:0;stroke:#000000;stroke-width:39.37009811;stroke-linecap:round;stroke-linejoin:round;stroke-opacity:1"
       id="g43380" />
    <g
       transform="translate(-3.8282424e-5,-1.8303863e-4)"
       style="fill:#000000;fill-opacity:0;stroke:#000000;stroke-width:39.37009811;stroke-linecap:round;stroke-linejoin:round;stroke-opacity:1"
       id="g43386" />
    <g
       transform="translate(-3.8282424e-5,-1.8303863e-4)"
       style="fill:#000000;fill-opacity:0;stroke:#000000;stroke-width:39.37009811;stroke-linecap:round;stroke-linejoin:round;stroke-opacity:1"
       id="g43392" />
    <g
       transform="translate(-3.8282424e-5,-1.8303863e-4)"
       style="fill:#000000;fill-opacity:0;stroke:#000000;stroke-width:39.37009811;stroke-linecap:round;stroke-linejoin:round;stroke-opacity:1"
       id="g43398" />
    <g
       transform="translate(-3.8282424e-5,-1.8303863e-4)"
       style="fill:#000000;fill-opacity:0;stroke:#000000;stroke-width:39.37009811;stroke-linecap:round;stroke-linejoin:round;stroke-opacity:1"
       id="g43406" />
    <g
       transform="translate(-3.8282424e-5,-1.8303863e-4)"
       style="fill:#000000;fill-opacity:0;stroke:#000000;stroke-width:39.37009811;stroke-linecap:round;stroke-linejoin:round;stroke-opacity:1"
       id="g43412" />
    <g
       transform="translate(-3.8282424e-5,-1.8303863e-4)"
       style="fill:#000000;fill-opacity:0;stroke:#000000;stroke-width:39.37009811;stroke-linecap:round;stroke-linejoin:round;stroke-opacity:1"
       id="g43418" />
    <g
       transform="translate(-3.8282424e-5,-1.8303863e-4)"
       style="fill:#000000;fill-opacity:0;stroke:#000000;stroke-width:39.37009811;stroke-linecap:round;stroke-linejoin:round;stroke-opacity:1"
       id="g43424" />
    <g
       transform="translate(-3.8282424e-5,-1.8303863e-4)"
       style="fill:#000000;fill-opacity:0;stroke:#000000;stroke-width:39.37009811;stroke-linecap:round;stroke-linejoin:round;stroke-opacity:1"
       id="g43444" />
    <g
       transform="translate(-3.8282424e-5,-1.8303863e-4)"
       style="fill:#000000;fill-opacity:0;stroke:#000000;stroke-width:39.37009811;stroke-linecap:round;stroke-linejoin:round;stroke-opacity:1"
       id="g43450" />
    <g
       transform="translate(-3.8282424e-5,-1.8303863e-4)"
       style="fill:#000000;fill-opacity:0;stroke:#000000;stroke-width:39.37009811;stroke-linecap:round;stroke-linejoin:round;stroke-opacity:1"
       id="g43564" />
    <g
       transform="translate(-3.8282424e-5,-1.8303863e-4)"
       style="fill:#000000;fill-opacity:0;stroke:#000000;stroke-width:39.37009811;stroke-linecap:round;stroke-linejoin:round;stroke-opacity:1"
       id="g43570" />
    <g
       transform="translate(-3.8282424e-5,-1.8303863e-4)"
       style="fill:#000000;fill-opacity:0;stroke:#000000;stroke-width:39.37009811;stroke-linecap:round;stroke-linejoin:round;stroke-opacity:1"
       id="g43586" />
    <g
       transform="translate(-3.8282424e-5,-1.8303863e-4)"
       style="fill:#000000;fill-opacity:0;stroke:#000000;stroke-width:39.37009811;stroke-linecap:round;stroke-linejoin:round;stroke-opacity:1"
       id="g43612" />
    <g
       transform="translate(-3.8282424e-5,-1.8303863e-4)"
       style="fill:#000000;fill-opacity:0;stroke:#000000;stroke-width:39.37009811;stroke-linecap:round;stroke-linejoin:round;stroke-opacity:1"
       id="g43636" />
    <g
       transform="translate(-3.8282424e-5,-1.8303863e-4)"
       style="fill:#000000;fill-opacity:0;stroke:#000000;stroke-width:39.37009811;stroke-linecap:round;stroke-linejoin:round;stroke-opacity:1"
       id="g43642" />
    <g
       transform="translate(-3.8282424e-5,-1.8303863e-4)"
       style="fill:#000000;fill-opacity:0;stroke:#000000;stroke-width:39.37009811;stroke-linecap:round;stroke-linejoin:round;stroke-opacity:1"
       id="g43666" />
    <g
       transform="translate(-3.8282424e-5,-1.8303863e-4)"
       style="fill:#000000;fill-opacity:0;stroke:#000000;stroke-width:39.37009811;stroke-linecap:round;stroke-linejoin:round;stroke-opacity:1"
       id="g43738" />
    <g
       transform="translate(-3.8282424e-5,-1.8303863e-4)"
       style="fill:#000000;fill-opacity:0;stroke:#000000;stroke-width:39.37009811;stroke-linecap:round;stroke-linejoin:round;stroke-opacity:1"
       id="g43744" />
    <g
       transform="translate(-3.8282424e-5,-1.8303863e-4)"
       style="fill:#000000;fill-opacity:0;stroke:#000000;stroke-width:39.37009811;stroke-linecap:round;stroke-linejoin:round;stroke-opacity:1"
       id="g43766" />
    <g
       transform="translate(-3.8282424e-5,-1.8303863e-4)"
       style="fill:#000000;fill-opacity:0;stroke:#000000;stroke-width:39.37009811;stroke-linecap:round;stroke-linejoin:round;stroke-opacity:1"
       id="g43772" />
    <g
       transform="translate(-3.8282424e-5,-1.8303863e-4)"
       style="fill:#c2c200;fill-opacity:0;stroke:#c2c200;stroke-width:59.05509949;stroke-linecap:round;stroke-linejoin:round;stroke-opacity:1"
       id="g43778" />
    <g
       transform="translate(-3842.4052,-43268.809)"
       style="fill:#c2c200;fill-opacity:0;stroke:#c2c200;stroke-width:118.11000061;stroke-linecap:round;stroke-linejoin:round;stroke-opacity:1"
       id="g43780">
      <path
         inkscape:connector-curvature="0"
         d="m 53188,34291 0,-3150"
         id="path43782" />
      <path
         inkscape:connector-curvature="0"
         d="m 50039,34291 3149,0"
         id="path43784" />
      <path
         inkscape:connector-curvature="0"
         d="m 50039,46811 0,-12520"
         id="path43786" />
      <path
         inkscape:connector-curvature="0"
         d="m 53188,46811 -3149,0"
         id="path43788" />
      <path
         inkscape:connector-curvature="0"
         d="m 53188,49960 0,-3149"
         id="path43790" />
      <path
         inkscape:connector-curvature="0"
         d="m 60275,49960 -7087,0"
         id="path43792" />
      <path
         inkscape:connector-curvature="0"
         d="m 60275,55078 0,-5118"
         id="path43794" />
      <path
         inkscape:connector-curvature="0"
         d="m 65078,55078 -4803,0"
         id="path43796" />
      <path
         inkscape:connector-curvature="0"
         d="m 65078,49960 0,5118"
         id="path43798" />
      <path
         inkscape:connector-curvature="0"
         d="m 71614,49960 -6536,0"
         id="path43800" />
      <path
         inkscape:connector-curvature="0"
         d="m 71614,46811 0,3149"
         id="path43802" />
      <path
         inkscape:connector-curvature="0"
         d="m 74763,46811 -3149,0"
         id="path43804" />
      <path
         inkscape:connector-curvature="0"
         d="m 74763,34291 0,12520"
         id="path43806" />
      <path
         inkscape:connector-curvature="0"
         d="m 74803,34291 -40,0"
         id="path43808" />
      <path
         inkscape:connector-curvature="0"
         d="m 74763,34291 40,0"
         id="path43810" />
      <path
         inkscape:connector-curvature="0"
         d="m 71614,34291 3149,0"
         id="path43812" />
      <path
         inkscape:connector-curvature="0"
         d="m 71614,31141 0,3150"
         id="path43814" />
      <path
         inkscape:connector-curvature="0"
         d="m 53188,31141 18426,0"
         id="path43816" />
      <circle
         cx="67322.797"
         cy="48425.199"
         r="629.92102"
         id="circle43818" />
      <circle
         cx="54724.398"
         cy="48425.199"
         r="629.92102"
         id="circle43820" />
      <circle
         cx="67322.797"
         cy="32677.199"
         r="629.92102"
         id="circle43822" />
      <circle
         cx="54724.398"
         cy="32677.199"
         r="629.92102"
         id="circle43824" />
    </g>
    <g
       transform="translate(-3842.4052,-43268.809)"
       style="fill:#c2c200;fill-opacity:0;stroke:#c2c200;stroke-width:59.05509949;stroke-linecap:round;stroke-linejoin:round;stroke-opacity:1"
       id="g43826">
      <path
         inkscape:connector-curvature="0"
         d="m 60275,50000 -50,0"
         id="path43828" />
      <path
         inkscape:connector-curvature="0"
         d="m 60275,55100 0,-5100"
         id="path43830" />
      <path
         inkscape:connector-curvature="0"
         d="m 65075,55100 -4800,0"
         id="path43832" />
      <path
         inkscape:connector-curvature="0"
         d="m 65100,50000 25,0"
         id="path43834" />
      <path
         inkscape:connector-curvature="0"
         d="m 65075,50000 25,0"
         id="path43836" />
      <path
         inkscape:connector-curvature="0"
         d="m 65125,50000 300,0"
         id="path43838" />
      <path
         inkscape:connector-curvature="0"
         d="m 65075,55100 0,-5100"
         id="path43840" />
      <path
         inkscape:connector-curvature="0"
         d="m 59425,50000 800,0"
         id="path43842" />
    </g>
    <g
       transform="translate(-3.8282424e-5,-1.8303863e-4)"
       style="fill:#840000;fill-opacity:0;stroke:#840000;stroke-width:59.05509949;stroke-linecap:round;stroke-linejoin:round;stroke-opacity:1"
       id="g43844" />
    <g
       transform="translate(-3.8282424e-5,-1.8303863e-4)"
       style="fill:#840000;fill-opacity:0;stroke:#840000;stroke-width:0;stroke-linecap:round;stroke-linejoin:round;stroke-opacity:1"
       id="g43846" />
    <polyline
       id="polyline43850"
       points="52710,35041 52710,34372 53064,34372 53064,35041 52710,35041 "
       style="fill:#840000;fill-opacity:1;fill-rule:evenodd;stroke:#840000;stroke-width:0;stroke-linecap:round;stroke-linejoin:round;stroke-opacity:1"
       transform="translate(-3842.4052,-43268.809)" />
    <polyline
       id="polyline43852"
       points="52710,42127 52710,41458 53064,41458 53064,42127 52710,42127 "
       style="fill:#840000;fill-opacity:1;fill-rule:evenodd;stroke:#840000;stroke-width:0;stroke-linecap:round;stroke-linejoin:round;stroke-opacity:1"
       transform="translate(-3842.4052,-43268.809)" />
    <polyline
       id="polyline43854"
       points="53301,35041 53301,34372 53655,34372 53655,35041 53301,35041 "
       style="fill:#840000;fill-opacity:1;fill-rule:evenodd;stroke:#840000;stroke-width:0;stroke-linecap:round;stroke-linejoin:round;stroke-opacity:1"
       transform="translate(-3842.4052,-43268.809)" />
    <polyline
       id="polyline43856"
       points="53301,42127 53301,41458 53655,41458 53655,42127 53301,42127 "
       style="fill:#840000;fill-opacity:1;fill-rule:evenodd;stroke:#840000;stroke-width:0;stroke-linecap:round;stroke-linejoin:round;stroke-opacity:1"
       transform="translate(-3842.4052,-43268.809)" />
    <polyline
       id="polyline43858"
       points="53891,35041 53891,34372 54246,34372 54246,35041 53891,35041 "
       style="fill:#840000;fill-opacity:1;fill-rule:evenodd;stroke:#840000;stroke-width:0;stroke-linecap:round;stroke-linejoin:round;stroke-opacity:1"
       transform="translate(-3842.4052,-43268.809)" />
    <polyline
       id="polyline43860"
       points="53891,42127 53891,41458 54246,41458 54246,42127 53891,42127 "
       style="fill:#840000;fill-opacity:1;fill-rule:evenodd;stroke:#840000;stroke-width:0;stroke-linecap:round;stroke-linejoin:round;stroke-opacity:1"
       transform="translate(-3842.4052,-43268.809)" />
    <polyline
       id="polyline43862"
       points="54482,35041 54482,34372 54836,34372 54836,35041 54482,35041 "
       style="fill:#840000;fill-opacity:1;fill-rule:evenodd;stroke:#840000;stroke-width:0;stroke-linecap:round;stroke-linejoin:round;stroke-opacity:1"
       transform="translate(-3842.4052,-43268.809)" />
    <polyline
       id="polyline43864"
       points="54482,42127 54482,41458 54836,41458 54836,42127 54482,42127 "
       style="fill:#840000;fill-opacity:1;fill-rule:evenodd;stroke:#840000;stroke-width:0;stroke-linecap:round;stroke-linejoin:round;stroke-opacity:1"
       transform="translate(-3842.4052,-43268.809)" />
    <polyline
       id="polyline43866"
       points="55072,35041 55072,34372 55427,34372 55427,35041 55072,35041 "
       style="fill:#840000;fill-opacity:1;fill-rule:evenodd;stroke:#840000;stroke-width:0;stroke-linecap:round;stroke-linejoin:round;stroke-opacity:1"
       transform="translate(-3842.4052,-43268.809)" />
    <polyline
       id="polyline43868"
       points="55072,42127 55072,41458 55427,41458 55427,42127 55072,42127 "
       style="fill:#840000;fill-opacity:1;fill-rule:evenodd;stroke:#840000;stroke-width:0;stroke-linecap:round;stroke-linejoin:round;stroke-opacity:1"
       transform="translate(-3842.4052,-43268.809)" />
    <polyline
       id="polyline43870"
       points="55663,35041 55663,34372 56017,34372 56017,35041 55663,35041 "
       style="fill:#840000;fill-opacity:1;fill-rule:evenodd;stroke:#840000;stroke-width:0;stroke-linecap:round;stroke-linejoin:round;stroke-opacity:1"
       transform="translate(-3842.4052,-43268.809)" />
    <polyline
       id="polyline43872"
       points="55663,42127 55663,41458 56017,41458 56017,42127 55663,42127 "
       style="fill:#840000;fill-opacity:1;fill-rule:evenodd;stroke:#840000;stroke-width:0;stroke-linecap:round;stroke-linejoin:round;stroke-opacity:1"
       transform="translate(-3842.4052,-43268.809)" />
    <polyline
       id="polyline43874"
       points="56253,35041 56253,34372 56608,34372 56608,35041 56253,35041 "
       style="fill:#840000;fill-opacity:1;fill-rule:evenodd;stroke:#840000;stroke-width:0;stroke-linecap:round;stroke-linejoin:round;stroke-opacity:1"
       transform="translate(-3842.4052,-43268.809)" />
    <polyline
       id="polyline43876"
       points="56253,42127 56253,41458 56608,41458 56608,42127 56253,42127 "
       style="fill:#840000;fill-opacity:1;fill-rule:evenodd;stroke:#840000;stroke-width:0;stroke-linecap:round;stroke-linejoin:round;stroke-opacity:1"
       transform="translate(-3842.4052,-43268.809)" />
    <polyline
       id="polyline43878"
       points="56844,35041 56844,34372 57198,34372 57198,35041 56844,35041 "
       style="fill:#840000;fill-opacity:1;fill-rule:evenodd;stroke:#840000;stroke-width:0;stroke-linecap:round;stroke-linejoin:round;stroke-opacity:1"
       transform="translate(-3842.4052,-43268.809)" />
    <polyline
       id="polyline43880"
       points="56844,42127 56844,41458 57198,41458 57198,42127 56844,42127 "
       style="fill:#840000;fill-opacity:1;fill-rule:evenodd;stroke:#840000;stroke-width:0;stroke-linecap:round;stroke-linejoin:round;stroke-opacity:1"
       transform="translate(-3842.4052,-43268.809)" />
    <polyline
       id="polyline43882"
       points="57435,35041 57435,34372 57789,34372 57789,35041 57435,35041 "
       style="fill:#840000;fill-opacity:1;fill-rule:evenodd;stroke:#840000;stroke-width:0;stroke-linecap:round;stroke-linejoin:round;stroke-opacity:1"
       transform="translate(-3842.4052,-43268.809)" />
    <polyline
       id="polyline43884"
       points="57435,42127 57435,41458 57789,41458 57789,42127 57435,42127 "
       style="fill:#840000;fill-opacity:1;fill-rule:evenodd;stroke:#840000;stroke-width:0;stroke-linecap:round;stroke-linejoin:round;stroke-opacity:1"
       transform="translate(-3842.4052,-43268.809)" />
    <polyline
       id="polyline43886"
       points="65049,34956 65837,34956 65837,35743 65049,35743 65049,34956 "
       style="fill:#840000;fill-opacity:1;fill-rule:evenodd;stroke:#840000;stroke-width:0;stroke-linecap:round;stroke-linejoin:round;stroke-opacity:1"
       transform="translate(-3842.4052,-43268.809)" />
    <polyline
       id="polyline43888"
       points="61112,34956 61900,34956 61900,35743 61112,35743 61112,34956 "
       style="fill:#840000;fill-opacity:1;fill-rule:evenodd;stroke:#840000;stroke-width:0;stroke-linecap:round;stroke-linejoin:round;stroke-opacity:1"
       transform="translate(-3842.4052,-43268.809)" />
    <polyline
       id="polyline43890"
       points="61112,41255 61900,41255 61900,42043 61112,42043 61112,41255 "
       style="fill:#840000;fill-opacity:1;fill-rule:evenodd;stroke:#840000;stroke-width:0;stroke-linecap:round;stroke-linejoin:round;stroke-opacity:1"
       transform="translate(-3842.4052,-43268.809)" />
    <polyline
       id="polyline43892"
       points="65049,41255 65837,41255 65837,42043 65049,42043 65049,41255 "
       style="fill:#840000;fill-opacity:1;fill-rule:evenodd;stroke:#840000;stroke-width:0;stroke-linecap:round;stroke-linejoin:round;stroke-opacity:1"
       transform="translate(-3842.4052,-43268.809)" />
    <polyline
       id="polyline43898"
       points="61110,43958 61110,43604 61897,43604 61897,43958 61110,43958 "
       style="fill:#840000;fill-opacity:1;fill-rule:evenodd;stroke:#840000;stroke-width:0;stroke-linecap:round;stroke-linejoin:round;stroke-opacity:1"
       transform="translate(-4064.6277,-43268.809)" />
    <polyline
       id="polyline43900"
       points="61110,42935 61110,42541 61897,42541 61897,42935 61110,42935 "
       style="fill:#840000;fill-opacity:1;fill-rule:evenodd;stroke:#840000;stroke-width:0;stroke-linecap:round;stroke-linejoin:round;stroke-opacity:1"
       transform="translate(-4064.6277,-43268.809)" />
    <polyline
       id="polyline43902"
       points="64102,42935 64102,42541 64889,42541 64889,42935 64102,42935 "
       style="fill:#840000;fill-opacity:1;fill-rule:evenodd;stroke:#840000;stroke-width:0;stroke-linecap:round;stroke-linejoin:round;stroke-opacity:1"
       transform="translate(-3620.1827,-43268.809)" />
    <polyline
       id="polyline43904"
       points="64102,43959 64102,43565 64889,43565 64889,43959 64102,43959 "
       style="fill:#840000;fill-opacity:1;fill-rule:evenodd;stroke:#840000;stroke-width:0;stroke-linecap:round;stroke-linejoin:round;stroke-opacity:1"
       transform="translate(-3620.1827,-43268.809)" />
    <polyline
       id="polyline43926"
       points="54905,42685 54905,43314 54433,43314 54433,42685 54905,42685 "
       style="fill:#840000;fill-opacity:1;fill-rule:evenodd;stroke:#840000;stroke-width:0;stroke-linecap:round;stroke-linejoin:round;stroke-opacity:1"
       transform="translate(-3842.4052,-43268.809)" />
    <polyline
       id="polyline43928"
       points="53566,42685 53566,43314 53094,43314 53094,42685 53566,42685 "
       style="fill:#840000;fill-opacity:1;fill-rule:evenodd;stroke:#840000;stroke-width:0;stroke-linecap:round;stroke-linejoin:round;stroke-opacity:1"
       transform="translate(-3842.4052,-43268.809)" />
    <polyline
       id="polyline43930"
       points="55344,43314 55344,42685 55816,42685 55816,43314 55344,43314 "
       style="fill:#840000;fill-opacity:1;fill-rule:evenodd;stroke:#840000;stroke-width:0;stroke-linecap:round;stroke-linejoin:round;stroke-opacity:1"
       transform="translate(-3842.4052,-43268.809)" />
    <polyline
       id="polyline43932"
       points="56683,43314 56683,42685 57155,42685 57155,43314 56683,43314 "
       style="fill:#840000;fill-opacity:1;fill-rule:evenodd;stroke:#840000;stroke-width:0;stroke-linecap:round;stroke-linejoin:round;stroke-opacity:1"
       transform="translate(-3842.4052,-43268.809)" />
    <polyline
       id="polyline43938"
       points="60360,41232 60714,41232 60714,41586 60360,41586 60360,41232 "
       style="fill:#840000;fill-opacity:1;fill-rule:evenodd;stroke:#840000;stroke-width:0;stroke-linecap:round;stroke-linejoin:round;stroke-opacity:1"
       transform="translate(-3842.4052,-43268.809)" />
    <polyline
       id="polyline43940"
       points="58785,41232 59139,41232 59139,41586 58785,41586 58785,41232 "
       style="fill:#840000;fill-opacity:1;fill-rule:evenodd;stroke:#840000;stroke-width:0;stroke-linecap:round;stroke-linejoin:round;stroke-opacity:1"
       transform="translate(-3842.4052,-43268.809)" />
    <polyline
       id="polyline43942"
       points="59832,41232 60187,41232 60187,41586 59832,41586 59832,41232 "
       style="fill:#840000;fill-opacity:1;fill-rule:evenodd;stroke:#840000;stroke-width:0;stroke-linecap:round;stroke-linejoin:round;stroke-opacity:1"
       transform="translate(-3842.4052,-43268.809)" />
    <polyline
       id="polyline43944"
       points="59312,41232 59667,41232 59667,41586 59312,41586 59312,41232 "
       style="fill:#840000;fill-opacity:1;fill-rule:evenodd;stroke:#840000;stroke-width:0;stroke-linecap:round;stroke-linejoin:round;stroke-opacity:1"
       transform="translate(-3842.4052,-43268.809)" />
    <polyline
       id="polyline43946"
       points="59832,42413 60187,42413 60187,42767 59832,42767 59832,42413 "
       style="fill:#840000;fill-opacity:1;fill-rule:evenodd;stroke:#840000;stroke-width:0;stroke-linecap:round;stroke-linejoin:round;stroke-opacity:1"
       transform="translate(-3842.4052,-43268.809)" />
    <polyline
       id="polyline43948"
       points="60360,42413 60714,42413 60714,42767 60360,42767 60360,42413 "
       style="fill:#840000;fill-opacity:1;fill-rule:evenodd;stroke:#840000;stroke-width:0;stroke-linecap:round;stroke-linejoin:round;stroke-opacity:1"
       transform="translate(-3842.4052,-43268.809)" />
    <polyline
       id="polyline43950"
       points="58785,42413 59139,42413 59139,42767 58785,42767 58785,42413 "
       style="fill:#840000;fill-opacity:1;fill-rule:evenodd;stroke:#840000;stroke-width:0;stroke-linecap:round;stroke-linejoin:round;stroke-opacity:1"
       transform="translate(-3842.4052,-43268.809)" />
    <polyline
       id="polyline43952"
       points="59312,42413 59667,42413 59667,42767 59312,42767 59312,42413 "
       style="fill:#840000;fill-opacity:1;fill-rule:evenodd;stroke:#840000;stroke-width:0;stroke-linecap:round;stroke-linejoin:round;stroke-opacity:1"
       transform="translate(-3842.4052,-43268.809)" />
    <polyline
       id="polyline43954"
       points="67001,46584 67001,45915 67356,45915 67356,46584 67001,46584 "
       style="fill:#840000;fill-opacity:1;fill-rule:evenodd;stroke:#840000;stroke-width:0;stroke-linecap:round;stroke-linejoin:round;stroke-opacity:1"
       transform="translate(-3842.4052,-43268.809)" />
    <polyline
       id="polyline43956"
       points="68143,46584 68143,45915 68498,45915 68498,46584 68143,46584 "
       style="fill:#840000;fill-opacity:1;fill-rule:evenodd;stroke:#840000;stroke-width:0;stroke-linecap:round;stroke-linejoin:round;stroke-opacity:1"
       transform="translate(-3842.4052,-43268.809)" />
    <polyline
       id="polyline43976"
       points="65817,33235 65817,33589 65463,33589 65463,33235 65817,33235 "
       style="fill:#840000;fill-opacity:1;fill-rule:evenodd;stroke:#840000;stroke-width:0;stroke-linecap:round;stroke-linejoin:round;stroke-opacity:1"
       transform="translate(-3842.4052,-43268.809)" />
    <polyline
       id="polyline43978"
       points="65817,31660 65817,32014 65463,32014 65463,31660 65817,31660 "
       style="fill:#840000;fill-opacity:1;fill-rule:evenodd;stroke:#840000;stroke-width:0;stroke-linecap:round;stroke-linejoin:round;stroke-opacity:1"
       transform="translate(-3842.4052,-43268.809)" />
    <polyline
       id="polyline43980"
       points="65817,32707 65817,33062 65463,33062 65463,32707 65817,32707 "
       style="fill:#840000;fill-opacity:1;fill-rule:evenodd;stroke:#840000;stroke-width:0;stroke-linecap:round;stroke-linejoin:round;stroke-opacity:1"
       transform="translate(-3842.4052,-43268.809)" />
    <polyline
       id="polyline43982"
       points="65817,32187 65817,32542 65463,32542 65463,32187 65817,32187 "
       style="fill:#840000;fill-opacity:1;fill-rule:evenodd;stroke:#840000;stroke-width:0;stroke-linecap:round;stroke-linejoin:round;stroke-opacity:1"
       transform="translate(-3842.4052,-43268.809)" />
    <polyline
       id="polyline43984"
       points="64636,32707 64636,33062 64282,33062 64282,32707 64636,32707 "
       style="fill:#840000;fill-opacity:1;fill-rule:evenodd;stroke:#840000;stroke-width:0;stroke-linecap:round;stroke-linejoin:round;stroke-opacity:1"
       transform="translate(-3842.4052,-43268.809)" />
    <polyline
       id="polyline43986"
       points="64636,33235 64636,33589 64282,33589 64282,33235 64636,33235 "
       style="fill:#840000;fill-opacity:1;fill-rule:evenodd;stroke:#840000;stroke-width:0;stroke-linecap:round;stroke-linejoin:round;stroke-opacity:1"
       transform="translate(-3842.4052,-43268.809)" />
    <polyline
       id="polyline43988"
       points="64636,31660 64636,32014 64282,32014 64282,31660 64636,31660 "
       style="fill:#840000;fill-opacity:1;fill-rule:evenodd;stroke:#840000;stroke-width:0;stroke-linecap:round;stroke-linejoin:round;stroke-opacity:1"
       transform="translate(-3842.4052,-43268.809)" />
    <polyline
       id="polyline43990"
       points="64636,32187 64636,32542 64282,32542 64282,32187 64636,32187 "
       style="fill:#840000;fill-opacity:1;fill-rule:evenodd;stroke:#840000;stroke-width:0;stroke-linecap:round;stroke-linejoin:round;stroke-opacity:1"
       transform="translate(-3842.4052,-43268.809)" />
  </g>
</svg>
