<?xml version="1.0" standalone="no"?>
 <!DOCTYPE svg PUBLIC "-//W3C//DTD SVG 1.1//EN" 
 "http://www.w3.org/Graphics/SVG/1.1/DTD/svg11.dtd"> 
<svg xmlns="http://www.w3.org/2000/svg" version="1.1" 
    width="29.7002cm" height="21.0007cm" viewBox="0 0 116930 82680 ">
<title>SVG Picture created as ESXAR-F.Fab.svg date 2016/08/05 19:53:52 </title>
  <desc>Picture generated by PCBNEW </desc>
<g style="fill:#000000; fill-opacity:1;stroke:#000000; stroke-opacity:1;
stroke-linecap:round; stroke-linejoin:round; "
 transform="translate(0 0) scale(1 1)">
</g>
<g style="fill:#000000; fill-opacity:0.0; 
stroke:#000000; stroke-width:-0.000393701; stroke-opacity:1; 
stroke-linecap:round; stroke-linejoin:round;">
</g>
<g style="fill:#000000; fill-opacity:0.0; 
stroke:#000000; stroke-width:39.3701; stroke-opacity:1; 
stroke-linecap:round; stroke-linejoin:round;">
</g>
<g style="fill:#000000; fill-opacity:0.0; 
stroke:#000000; stroke-width:59.0551; stroke-opacity:1; 
stroke-linecap:round; stroke-linejoin:round;">
<rect x="69685.9" y="65357.2" width="42519.7" height="12598.4" rx="0" />
</g>
<g style="fill:#000000; fill-opacity:0.0; 
stroke:#000000; stroke-width:39.3701; stroke-opacity:1; 
stroke-linecap:round; stroke-linejoin:round;">
</g>
<g style="fill:#000000; fill-opacity:0.0; 
stroke:#000000; stroke-width:59.0551; stroke-opacity:1; 
stroke-linecap:round; stroke-linejoin:round;">
<rect x="3937.01" y="3937.01" width="109056" height="74806" rx="0" />
</g>
<g style="fill:#000000; fill-opacity:0.0; 
stroke:#000000; stroke-width:39.3701; stroke-opacity:1; 
stroke-linecap:round; stroke-linejoin:round;">
</g>
<g style="fill:#000000; fill-opacity:0.0; 
stroke:#000000; stroke-width:59.0551; stroke-opacity:1; 
stroke-linecap:round; stroke-linejoin:round;">
<rect x="4724.41" y="4724.41" width="107481" height="73231.2" rx="0" />
</g>
<g style="fill:#000000; fill-opacity:0.0; 
stroke:#000000; stroke-width:39.3701; stroke-opacity:1; 
stroke-linecap:round; stroke-linejoin:round;">
</g>
<g style="fill:#000000; fill-opacity:0.0; 
stroke:#000000; stroke-width:59.0551; stroke-opacity:1; 
stroke-linecap:round; stroke-linejoin:round;">
<path d="M23622 4724
L23622 3937
" />
</g>
<g style="fill:#000000; fill-opacity:0.0; 
stroke:#000000; stroke-width:39.3701; stroke-opacity:1; 
stroke-linecap:round; stroke-linejoin:round;">
</g>
<g style="fill:#000000; fill-opacity:0.0; 
stroke:#000000; stroke-width:59.0551; stroke-opacity:1; 
stroke-linecap:round; stroke-linejoin:round;">
<path d="M43307 4724
L43307 3937
" />
</g>
<g style="fill:#000000; fill-opacity:0.0; 
stroke:#000000; stroke-width:39.3701; stroke-opacity:1; 
stroke-linecap:round; stroke-linejoin:round;">
</g>
<g style="fill:#000000; fill-opacity:0.0; 
stroke:#000000; stroke-width:59.0551; stroke-opacity:1; 
stroke-linecap:round; stroke-linejoin:round;">
<path d="M62992 4724
L62992 3937
" />
</g>
<g style="fill:#000000; fill-opacity:0.0; 
stroke:#000000; stroke-width:39.3701; stroke-opacity:1; 
stroke-linecap:round; stroke-linejoin:round;">
</g>
<g style="fill:#000000; fill-opacity:0.0; 
stroke:#000000; stroke-width:59.0551; stroke-opacity:1; 
stroke-linecap:round; stroke-linejoin:round;">
<path d="M82677 4724
L82677 3937
" />
</g>
<g style="fill:#000000; fill-opacity:0.0; 
stroke:#000000; stroke-width:39.3701; stroke-opacity:1; 
stroke-linecap:round; stroke-linejoin:round;">
</g>
<g style="fill:#000000; fill-opacity:0.0; 
stroke:#000000; stroke-width:59.0551; stroke-opacity:1; 
stroke-linecap:round; stroke-linejoin:round;">
<path d="M102362 4724
L102362 3937
" />
</g>
<g style="fill:#000000; fill-opacity:0.0; 
stroke:#000000; stroke-width:39.3701; stroke-opacity:1; 
stroke-linecap:round; stroke-linejoin:round;">
</g>
<g style="fill:#000000; fill-opacity:0.0; 
stroke:#000000; stroke-width:59.0551; stroke-opacity:1; 
stroke-linecap:round; stroke-linejoin:round;">
<path d="M14169 4562
L13877 4562
" />
<path d="M14023 4562
L14023 4050
L13974 4123
L13925 4172
L13877 4196
" />
</g>
<g style="fill:#000000; fill-opacity:0.0; 
stroke:#000000; stroke-width:39.3701; stroke-opacity:1; 
stroke-linecap:round; stroke-linejoin:round;">
</g>
<g style="fill:#000000; fill-opacity:0.0; 
stroke:#000000; stroke-width:59.0551; stroke-opacity:1; 
stroke-linecap:round; stroke-linejoin:round;">
<path d="M33562 4099
L33586 4074
L33635 4050
L33757 4050
L33805 4074
L33830 4099
L33854 4147
L33854 4196
L33830 4269
L33537 4562
L33854 4562
" />
</g>
<g style="fill:#000000; fill-opacity:0.0; 
stroke:#000000; stroke-width:39.3701; stroke-opacity:1; 
stroke-linecap:round; stroke-linejoin:round;">
</g>
<g style="fill:#000000; fill-opacity:0.0; 
stroke:#000000; stroke-width:59.0551; stroke-opacity:1; 
stroke-linecap:round; stroke-linejoin:round;">
<path d="M53222 4050
L53539 4050
L53368 4245
L53442 4245
L53490 4269
L53515 4294
L53539 4342
L53539 4464
L53515 4513
L53490 4537
L53442 4562
L53295 4562
L53247 4537
L53222 4513
" />
</g>
<g style="fill:#000000; fill-opacity:0.0; 
stroke:#000000; stroke-width:39.3701; stroke-opacity:1; 
stroke-linecap:round; stroke-linejoin:round;">
</g>
<g style="fill:#000000; fill-opacity:0.0; 
stroke:#000000; stroke-width:59.0551; stroke-opacity:1; 
stroke-linecap:round; stroke-linejoin:round;">
<path d="M73175 4221
L73175 4562
" />
<path d="M73053 4026
L72932 4391
L73248 4391
" />
</g>
<g style="fill:#000000; fill-opacity:0.0; 
stroke:#000000; stroke-width:39.3701; stroke-opacity:1; 
stroke-linecap:round; stroke-linejoin:round;">
</g>
<g style="fill:#000000; fill-opacity:0.0; 
stroke:#000000; stroke-width:59.0551; stroke-opacity:1; 
stroke-linecap:round; stroke-linejoin:round;">
<path d="M92885 4050
L92641 4050
L92617 4294
L92641 4269
L92690 4245
L92812 4245
L92860 4269
L92885 4294
L92909 4342
L92909 4464
L92885 4513
L92860 4537
L92812 4562
L92690 4562
L92641 4537
L92617 4513
" />
</g>
<g style="fill:#000000; fill-opacity:0.0; 
stroke:#000000; stroke-width:39.3701; stroke-opacity:1; 
stroke-linecap:round; stroke-linejoin:round;">
</g>
<g style="fill:#000000; fill-opacity:0.0; 
stroke:#000000; stroke-width:59.0551; stroke-opacity:1; 
stroke-linecap:round; stroke-linejoin:round;">
<path d="M112545 4050
L112448 4050
L112399 4074
L112375 4099
L112326 4172
L112302 4269
L112302 4464
L112326 4513
L112350 4537
L112399 4562
L112497 4562
L112545 4537
L112570 4513
L112594 4464
L112594 4342
L112570 4294
L112545 4269
L112497 4245
L112399 4245
L112350 4269
L112326 4294
L112302 4342
" />
</g>
<g style="fill:#000000; fill-opacity:0.0; 
stroke:#000000; stroke-width:39.3701; stroke-opacity:1; 
stroke-linecap:round; stroke-linejoin:round;">
</g>
<g style="fill:#000000; fill-opacity:0.0; 
stroke:#000000; stroke-width:59.0551; stroke-opacity:1; 
stroke-linecap:round; stroke-linejoin:round;">
<path d="M23622 77955
L23622 78742
" />
</g>
<g style="fill:#000000; fill-opacity:0.0; 
stroke:#000000; stroke-width:39.3701; stroke-opacity:1; 
stroke-linecap:round; stroke-linejoin:round;">
</g>
<g style="fill:#000000; fill-opacity:0.0; 
stroke:#000000; stroke-width:59.0551; stroke-opacity:1; 
stroke-linecap:round; stroke-linejoin:round;">
<path d="M43307 77955
L43307 78742
" />
</g>
<g style="fill:#000000; fill-opacity:0.0; 
stroke:#000000; stroke-width:39.3701; stroke-opacity:1; 
stroke-linecap:round; stroke-linejoin:round;">
</g>
<g style="fill:#000000; fill-opacity:0.0; 
stroke:#000000; stroke-width:59.0551; stroke-opacity:1; 
stroke-linecap:round; stroke-linejoin:round;">
<path d="M62992 77955
L62992 78742
" />
</g>
<g style="fill:#000000; fill-opacity:0.0; 
stroke:#000000; stroke-width:39.3701; stroke-opacity:1; 
stroke-linecap:round; stroke-linejoin:round;">
</g>
<g style="fill:#000000; fill-opacity:0.0; 
stroke:#000000; stroke-width:59.0551; stroke-opacity:1; 
stroke-linecap:round; stroke-linejoin:round;">
<path d="M82677 77955
L82677 78742
" />
</g>
<g style="fill:#000000; fill-opacity:0.0; 
stroke:#000000; stroke-width:39.3701; stroke-opacity:1; 
stroke-linecap:round; stroke-linejoin:round;">
</g>
<g style="fill:#000000; fill-opacity:0.0; 
stroke:#000000; stroke-width:59.0551; stroke-opacity:1; 
stroke-linecap:round; stroke-linejoin:round;">
<path d="M102362 77955
L102362 78742
" />
</g>
<g style="fill:#000000; fill-opacity:0.0; 
stroke:#000000; stroke-width:39.3701; stroke-opacity:1; 
stroke-linecap:round; stroke-linejoin:round;">
</g>
<g style="fill:#000000; fill-opacity:0.0; 
stroke:#000000; stroke-width:59.0551; stroke-opacity:1; 
stroke-linecap:round; stroke-linejoin:round;">
<path d="M14169 78580
L13877 78580
" />
<path d="M14023 78580
L14023 78069
L13974 78142
L13925 78190
L13877 78215
" />
</g>
<g style="fill:#000000; fill-opacity:0.0; 
stroke:#000000; stroke-width:39.3701; stroke-opacity:1; 
stroke-linecap:round; stroke-linejoin:round;">
</g>
<g style="fill:#000000; fill-opacity:0.0; 
stroke:#000000; stroke-width:59.0551; stroke-opacity:1; 
stroke-linecap:round; stroke-linejoin:round;">
<path d="M33562 78117
L33586 78093
L33635 78069
L33757 78069
L33805 78093
L33830 78117
L33854 78166
L33854 78215
L33830 78288
L33537 78580
L33854 78580
" />
</g>
<g style="fill:#000000; fill-opacity:0.0; 
stroke:#000000; stroke-width:39.3701; stroke-opacity:1; 
stroke-linecap:round; stroke-linejoin:round;">
</g>
<g style="fill:#000000; fill-opacity:0.0; 
stroke:#000000; stroke-width:59.0551; stroke-opacity:1; 
stroke-linecap:round; stroke-linejoin:round;">
<path d="M53222 78069
L53539 78069
L53368 78263
L53442 78263
L53490 78288
L53515 78312
L53539 78361
L53539 78483
L53515 78532
L53490 78556
L53442 78580
L53295 78580
L53247 78556
L53222 78532
" />
</g>
<g style="fill:#000000; fill-opacity:0.0; 
stroke:#000000; stroke-width:39.3701; stroke-opacity:1; 
stroke-linecap:round; stroke-linejoin:round;">
</g>
<g style="fill:#000000; fill-opacity:0.0; 
stroke:#000000; stroke-width:59.0551; stroke-opacity:1; 
stroke-linecap:round; stroke-linejoin:round;">
<path d="M73175 78239
L73175 78580
" />
<path d="M73053 78044
L72932 78410
L73248 78410
" />
</g>
<g style="fill:#000000; fill-opacity:0.0; 
stroke:#000000; stroke-width:39.3701; stroke-opacity:1; 
stroke-linecap:round; stroke-linejoin:round;">
</g>
<g style="fill:#000000; fill-opacity:0.0; 
stroke:#000000; stroke-width:59.0551; stroke-opacity:1; 
stroke-linecap:round; stroke-linejoin:round;">
<path d="M92885 78069
L92641 78069
L92617 78312
L92641 78288
L92690 78263
L92812 78263
L92860 78288
L92885 78312
L92909 78361
L92909 78483
L92885 78532
L92860 78556
L92812 78580
L92690 78580
L92641 78556
L92617 78532
" />
</g>
<g style="fill:#000000; fill-opacity:0.0; 
stroke:#000000; stroke-width:39.3701; stroke-opacity:1; 
stroke-linecap:round; stroke-linejoin:round;">
</g>
<g style="fill:#000000; fill-opacity:0.0; 
stroke:#000000; stroke-width:59.0551; stroke-opacity:1; 
stroke-linecap:round; stroke-linejoin:round;">
<path d="M112545 78069
L112448 78069
L112399 78093
L112375 78117
L112326 78190
L112302 78288
L112302 78483
L112326 78532
L112350 78556
L112399 78580
L112497 78580
L112545 78556
L112570 78532
L112594 78483
L112594 78361
L112570 78312
L112545 78288
L112497 78263
L112399 78263
L112350 78288
L112326 78312
L112302 78361
" />
</g>
<g style="fill:#000000; fill-opacity:0.0; 
stroke:#000000; stroke-width:39.3701; stroke-opacity:1; 
stroke-linecap:round; stroke-linejoin:round;">
</g>
<g style="fill:#000000; fill-opacity:0.0; 
stroke:#000000; stroke-width:59.0551; stroke-opacity:1; 
stroke-linecap:round; stroke-linejoin:round;">
<path d="M3937 23622
L4724 23622
" />
</g>
<g style="fill:#000000; fill-opacity:0.0; 
stroke:#000000; stroke-width:39.3701; stroke-opacity:1; 
stroke-linecap:round; stroke-linejoin:round;">
</g>
<g style="fill:#000000; fill-opacity:0.0; 
stroke:#000000; stroke-width:59.0551; stroke-opacity:1; 
stroke-linecap:round; stroke-linejoin:round;">
<path d="M3937 43307
L4724 43307
" />
</g>
<g style="fill:#000000; fill-opacity:0.0; 
stroke:#000000; stroke-width:39.3701; stroke-opacity:1; 
stroke-linecap:round; stroke-linejoin:round;">
</g>
<g style="fill:#000000; fill-opacity:0.0; 
stroke:#000000; stroke-width:59.0551; stroke-opacity:1; 
stroke-linecap:round; stroke-linejoin:round;">
<path d="M3937 62992
L4724 62992
" />
</g>
<g style="fill:#000000; fill-opacity:0.0; 
stroke:#000000; stroke-width:39.3701; stroke-opacity:1; 
stroke-linecap:round; stroke-linejoin:round;">
</g>
<g style="fill:#000000; fill-opacity:0.0; 
stroke:#000000; stroke-width:59.0551; stroke-opacity:1; 
stroke-linecap:round; stroke-linejoin:round;">
<path d="M4208 13864
L4452 13864
" />
<path d="M4160 14011
L4330 13499
L4501 14011
" />
</g>
<g style="fill:#000000; fill-opacity:0.0; 
stroke:#000000; stroke-width:39.3701; stroke-opacity:1; 
stroke-linecap:round; stroke-linejoin:round;">
</g>
<g style="fill:#000000; fill-opacity:0.0; 
stroke:#000000; stroke-width:59.0551; stroke-opacity:1; 
stroke-linecap:round; stroke-linejoin:round;">
<path d="M4367 33428
L4440 33452
L4464 33476
L4489 33525
L4489 33598
L4464 33647
L4440 33671
L4391 33696
L4196 33696
L4196 33184
L4367 33184
L4416 33208
L4440 33233
L4464 33281
L4464 33330
L4440 33379
L4416 33403
L4367 33428
L4196 33428
" />
</g>
<g style="fill:#000000; fill-opacity:0.0; 
stroke:#000000; stroke-width:39.3701; stroke-opacity:1; 
stroke-linecap:round; stroke-linejoin:round;">
</g>
<g style="fill:#000000; fill-opacity:0.0; 
stroke:#000000; stroke-width:59.0551; stroke-opacity:1; 
stroke-linecap:round; stroke-linejoin:round;">
<path d="M4489 53332
L4464 53356
L4391 53381
L4342 53381
L4269 53356
L4221 53308
L4196 53259
L4172 53161
L4172 53088
L4196 52991
L4221 52942
L4269 52893
L4342 52869
L4391 52869
L4464 52893
L4489 52918
" />
</g>
<g style="fill:#000000; fill-opacity:0.0; 
stroke:#000000; stroke-width:39.3701; stroke-opacity:1; 
stroke-linecap:round; stroke-linejoin:round;">
</g>
<g style="fill:#000000; fill-opacity:0.0; 
stroke:#000000; stroke-width:59.0551; stroke-opacity:1; 
stroke-linecap:round; stroke-linejoin:round;">
<path d="M4196 73066
L4196 72554
L4318 72554
L4391 72578
L4440 72627
L4464 72676
L4489 72773
L4489 72846
L4464 72944
L4440 72993
L4391 73041
L4318 73066
L4196 73066
" />
</g>
<g style="fill:#000000; fill-opacity:0.0; 
stroke:#000000; stroke-width:39.3701; stroke-opacity:1; 
stroke-linecap:round; stroke-linejoin:round;">
</g>
<g style="fill:#000000; fill-opacity:0.0; 
stroke:#000000; stroke-width:59.0551; stroke-opacity:1; 
stroke-linecap:round; stroke-linejoin:round;">
<path d="M112992 23622
L112205 23622
" />
</g>
<g style="fill:#000000; fill-opacity:0.0; 
stroke:#000000; stroke-width:39.3701; stroke-opacity:1; 
stroke-linecap:round; stroke-linejoin:round;">
</g>
<g style="fill:#000000; fill-opacity:0.0; 
stroke:#000000; stroke-width:59.0551; stroke-opacity:1; 
stroke-linecap:round; stroke-linejoin:round;">
<path d="M112992 43307
L112205 43307
" />
</g>
<g style="fill:#000000; fill-opacity:0.0; 
stroke:#000000; stroke-width:39.3701; stroke-opacity:1; 
stroke-linecap:round; stroke-linejoin:round;">
</g>
<g style="fill:#000000; fill-opacity:0.0; 
stroke:#000000; stroke-width:59.0551; stroke-opacity:1; 
stroke-linecap:round; stroke-linejoin:round;">
<path d="M112992 62992
L112205 62992
" />
</g>
<g style="fill:#000000; fill-opacity:0.0; 
stroke:#000000; stroke-width:39.3701; stroke-opacity:1; 
stroke-linecap:round; stroke-linejoin:round;">
</g>
<g style="fill:#000000; fill-opacity:0.0; 
stroke:#000000; stroke-width:59.0551; stroke-opacity:1; 
stroke-linecap:round; stroke-linejoin:round;">
<path d="M112477 13864
L112721 13864
" />
<path d="M112428 14011
L112599 13499
L112769 14011
" />
</g>
<g style="fill:#000000; fill-opacity:0.0; 
stroke:#000000; stroke-width:39.3701; stroke-opacity:1; 
stroke-linecap:round; stroke-linejoin:round;">
</g>
<g style="fill:#000000; fill-opacity:0.0; 
stroke:#000000; stroke-width:59.0551; stroke-opacity:1; 
stroke-linecap:round; stroke-linejoin:round;">
<path d="M112635 33428
L112708 33452
L112733 33476
L112757 33525
L112757 33598
L112733 33647
L112708 33671
L112660 33696
L112465 33696
L112465 33184
L112635 33184
L112684 33208
L112708 33233
L112733 33281
L112733 33330
L112708 33379
L112684 33403
L112635 33428
L112465 33428
" />
</g>
<g style="fill:#000000; fill-opacity:0.0; 
stroke:#000000; stroke-width:39.3701; stroke-opacity:1; 
stroke-linecap:round; stroke-linejoin:round;">
</g>
<g style="fill:#000000; fill-opacity:0.0; 
stroke:#000000; stroke-width:59.0551; stroke-opacity:1; 
stroke-linecap:round; stroke-linejoin:round;">
<path d="M112757 53332
L112733 53356
L112660 53381
L112611 53381
L112538 53356
L112489 53308
L112465 53259
L112440 53161
L112440 53088
L112465 52991
L112489 52942
L112538 52893
L112611 52869
L112660 52869
L112733 52893
L112757 52918
" />
</g>
<g style="fill:#000000; fill-opacity:0.0; 
stroke:#000000; stroke-width:39.3701; stroke-opacity:1; 
stroke-linecap:round; stroke-linejoin:round;">
</g>
<g style="fill:#000000; fill-opacity:0.0; 
stroke:#000000; stroke-width:59.0551; stroke-opacity:1; 
stroke-linecap:round; stroke-linejoin:round;">
<path d="M112465 73066
L112465 72554
L112587 72554
L112660 72578
L112708 72627
L112733 72676
L112757 72773
L112757 72846
L112733 72944
L112708 72993
L112660 73041
L112587 73066
L112465 73066
" />
</g>
<g style="fill:#000000; fill-opacity:0.0; 
stroke:#000000; stroke-width:39.3701; stroke-opacity:1; 
stroke-linecap:round; stroke-linejoin:round;">
</g>
<g style="fill:#000000; fill-opacity:0.0; 
stroke:#000000; stroke-width:59.0551; stroke-opacity:1; 
stroke-linecap:round; stroke-linejoin:round;">
<path d="M78881 76293
L78881 75703
L79022 75703
L79106 75731
L79162 75787
L79190 75843
L79219 75956
L79219 76040
L79190 76153
L79162 76209
L79106 76265
L79022 76293
L78881 76293
" />
<path d="M79725 76293
L79725 75984
L79697 75928
L79640 75899
L79528 75899
L79472 75928
" />
<path d="M79725 76265
L79669 76293
L79528 76293
L79472 76265
L79444 76209
L79444 76153
L79472 76096
L79528 76068
L79669 76068
L79725 76040
" />
<path d="M79922 75899
L80147 75899
" />
<path d="M80006 75703
L80006 76209
L80034 76265
L80090 76293
L80147 76293
" />
<path d="M80568 76265
L80512 76293
L80400 76293
L80343 76265
L80315 76209
L80315 75984
L80343 75928
L80400 75899
L80512 75899
L80568 75928
L80597 75984
L80597 76040
L80315 76096
" />
<path d="M80850 76237
L80878 76265
L80850 76293
L80822 76265
L80850 76237
L80850 76293
" />
<path d="M80850 75928
L80878 75956
L80850 75984
L80822 75956
L80850 75928
L80850 75984
" />
</g>
<g style="fill:#000000; fill-opacity:0.0; 
stroke:#000000; stroke-width:39.3701; stroke-opacity:1; 
stroke-linecap:round; stroke-linejoin:round;">
</g>
<g style="fill:#000000; fill-opacity:0.0; 
stroke:#000000; stroke-width:59.0551; stroke-opacity:1; 
stroke-linecap:round; stroke-linejoin:round;">
<path d="M69685 76577
L112205 76577
" />
</g>
<g style="fill:#000000; fill-opacity:0.0; 
stroke:#000000; stroke-width:39.3701; stroke-opacity:1; 
stroke-linecap:round; stroke-linejoin:round;">
</g>
<g style="fill:#000000; fill-opacity:0.0; 
stroke:#000000; stroke-width:59.0551; stroke-opacity:1; 
stroke-linecap:round; stroke-linejoin:round;">
<path d="M70220 77395
L70220 76805
" />
<path d="M70557 77395
L70304 77058
" />
<path d="M70557 76805
L70220 77142
" />
<path d="M70810 77395
L70810 77002
" />
<path d="M70810 76805
L70782 76833
L70810 76861
L70838 76833
L70810 76805
L70810 76861
" />
<path d="M71429 77339
L71401 77367
L71316 77395
L71260 77395
L71176 77367
L71120 77311
L71091 77255
L71063 77142
L71063 77058
L71091 76946
L71120 76889
L71176 76833
L71260 76805
L71316 76805
L71401 76833
L71429 76861
" />
<path d="M71935 77395
L71935 77086
L71907 77030
L71851 77002
L71738 77002
L71682 77030
" />
<path d="M71935 77367
L71879 77395
L71738 77395
L71682 77367
L71654 77311
L71654 77255
L71682 77199
L71738 77171
L71879 77171
L71935 77142
" />
<path d="M72469 77395
L72469 76805
" />
<path d="M72469 77367
L72413 77395
L72301 77395
L72244 77367
L72216 77339
L72188 77283
L72188 77114
L72216 77058
L72244 77030
L72301 77002
L72413 77002
L72469 77030
" />
<path d="M73201 77086
L73397 77086
" />
<path d="M73482 77395
L73201 77395
L73201 76805
L73482 76805
" />
<path d="M73735 77339
L73763 77367
L73735 77395
L73707 77367
L73735 77339
L73735 77395
" />
<path d="M74016 77395
L74016 76805
L74157 76805
L74241 76833
L74297 76889
L74325 76946
L74354 77058
L74354 77142
L74325 77255
L74297 77311
L74241 77367
L74157 77395
L74016 77395
" />
<path d="M74607 77339
L74635 77367
L74607 77395
L74579 77367
L74607 77339
L74607 77395
" />
<path d="M74860 77227
L75141 77227
" />
<path d="M74804 77395
L75000 76805
L75197 77395
" />
<path d="M75394 77339
L75422 77367
L75394 77395
L75366 77367
L75394 77339
L75394 77395
" />
<path d="M76575 77395
L76575 76805
" />
<path d="M76631 77171
L76800 77395
" />
<path d="M76800 77002
L76575 77227
" />
<path d="M77053 77395
L77053 77002
" />
<path d="M77053 76805
L77025 76833
L77053 76861
L77081 76833
L77053 76805
L77053 76861
" />
<path d="M77588 77367
L77531 77395
L77419 77395
L77363 77367
L77334 77339
L77306 77283
L77306 77114
L77334 77058
L77363 77030
L77419 77002
L77531 77002
L77588 77030
" />
<path d="M78094 77395
L78094 77086
L78066 77030
L78009 77002
L77897 77002
L77841 77030
" />
<path d="M78094 77367
L78037 77395
L77897 77395
L77841 77367
L77813 77311
L77813 77255
L77841 77199
L77897 77171
L78037 77171
L78094 77142
" />
<path d="M78628 77395
L78628 76805
" />
<path d="M78628 77367
L78572 77395
L78459 77395
L78403 77367
L78375 77339
L78347 77283
L78347 77114
L78375 77058
L78403 77030
L78459 77002
L78572 77002
L78628 77030
" />
<path d="M79612 77002
L79612 77395
" />
<path d="M79472 76777
L79331 77199
L79697 77199
" />
<path d="M79922 77339
L79950 77367
L79922 77395
L79894 77367
L79922 77339
L79922 77395
" />
<path d="M80315 76805
L80372 76805
L80428 76833
L80456 76861
L80484 76917
L80512 77030
L80512 77171
L80484 77283
L80456 77339
L80428 77367
L80372 77395
L80315 77395
L80259 77367
L80231 77339
L80203 77283
L80175 77171
L80175 77030
L80203 76917
L80231 76861
L80259 76833
L80315 76805
" />
<path d="M80765 77339
L80793 77367
L80765 77395
L80737 77367
L80765 77339
L80765 77395
" />
<path d="M81018 76861
L81046 76833
L81103 76805
L81243 76805
L81300 76833
L81328 76861
L81356 76917
L81356 76974
L81328 77058
L80990 77395
L81356 77395
" />
<path d="M81609 77171
L82059 77171
" />
<path d="M81834 77395
L81834 76946
" />
<path d="M82593 77395
L82593 76805
" />
<path d="M82593 77367
L82537 77395
L82424 77395
L82368 77367
L82340 77339
L82312 77283
L82312 77114
L82340 77058
L82368 77030
L82424 77002
L82537 77002
L82593 77030
" />
<path d="M82790 77002
L83015 77002
" />
<path d="M82874 77395
L82874 76889
L82903 76833
L82959 76805
L83015 76805
" />
<path d="M83184 77367
L83240 77395
L83352 77395
L83409 77367
L83437 77311
L83437 77283
L83409 77227
L83352 77199
L83268 77199
L83212 77171
L83184 77114
L83184 77086
L83212 77030
L83268 77002
L83352 77002
L83409 77030
" />
<path d="M83943 77002
L83943 77480
L83915 77536
L83887 77564
L83831 77592
L83746 77592
L83690 77564
" />
<path d="M83943 77367
L83887 77395
L83774 77395
L83718 77367
L83690 77339
L83662 77283
L83662 77114
L83690 77058
L83718 77030
L83774 77002
L83887 77002
L83943 77030
" />
<path d="M84534 77395
L84196 77395
" />
<path d="M84365 77395
L84365 76805
L84309 76889
L84252 76946
L84196 76974
" />
<path d="M84787 77171
L85237 77171
" />
<path d="M85490 77367
L85546 77395
L85658 77395
L85715 77367
L85743 77311
L85743 77283
L85715 77227
L85658 77199
L85574 77199
L85518 77171
L85490 77114
L85490 77086
L85518 77030
L85574 77002
L85658 77002
L85715 77030
" />
<path d="M85912 77002
L86136 77002
" />
<path d="M85996 76805
L85996 77311
L86024 77367
L86080 77395
L86136 77395
" />
<path d="M86586 77395
L86586 77086
L86558 77030
L86502 77002
L86390 77002
L86333 77030
" />
<path d="M86586 77367
L86530 77395
L86390 77395
L86333 77367
L86305 77311
L86305 77255
L86333 77199
L86390 77171
L86530 77171
L86586 77142
" />
<path d="M86868 77395
L86868 76805
" />
<path d="M86868 77030
L86924 77002
L87036 77002
L87093 77030
L87121 77058
L87149 77114
L87149 77283
L87121 77339
L87093 77367
L87036 77395
L86924 77395
L86868 77367
" />
<path d="M87486 77395
L87430 77367
L87402 77311
L87402 76805
" />
<path d="M87936 77367
L87880 77395
L87768 77395
L87711 77367
L87683 77311
L87683 77086
L87711 77030
L87768 77002
L87880 77002
L87936 77030
L87964 77086
L87964 77142
L87683 77199
" />
</g>
<g style="fill:#000000; fill-opacity:0.0; 
stroke:#000000; stroke-width:39.3701; stroke-opacity:1; 
stroke-linecap:round; stroke-linejoin:round;">
</g>
<g style="fill:#000000; fill-opacity:0.0; 
stroke:#000000; stroke-width:59.0551; stroke-opacity:1; 
stroke-linecap:round; stroke-linejoin:round;">
<path d="M69685 75396
L112205 75396
" />
</g>
<g style="fill:#000000; fill-opacity:0.0; 
stroke:#000000; stroke-width:39.3701; stroke-opacity:1; 
stroke-linecap:round; stroke-linejoin:round;">
</g>
<g style="fill:#000000; fill-opacity:0.0; 
stroke:#000000; stroke-width:118.11; stroke-opacity:1; 
stroke-linecap:round; stroke-linejoin:round;">
<path d="M104022 76293
L103825 76012
" />
<path d="M103684 76293
L103684 75703
L103909 75703
L103965 75731
L103994 75759
L104022 75815
L104022 75899
L103994 75956
L103965 75984
L103909 76012
L103684 76012
" />
<path d="M104500 76265
L104444 76293
L104331 76293
L104275 76265
L104247 76209
L104247 75984
L104275 75928
L104331 75899
L104444 75899
L104500 75928
L104528 75984
L104528 76040
L104247 76096
" />
<path d="M104725 75899
L104865 76293
L105006 75899
" />
<path d="M105231 76237
L105259 76265
L105231 76293
L105203 76265
L105231 76237
L105231 76293
" />
<path d="M105231 75928
L105259 75956
L105231 75984
L105203 75956
L105231 75928
L105231 75984
" />
</g>
<g style="fill:#000000; fill-opacity:0.0; 
stroke:#000000; stroke-width:39.3701; stroke-opacity:1; 
stroke-linecap:round; stroke-linejoin:round;">
</g>
<g style="fill:#000000; fill-opacity:0.0; 
stroke:#000000; stroke-width:59.0551; stroke-opacity:1; 
stroke-linecap:round; stroke-linejoin:round;">
<path d="M70192 76265
L70276 76293
L70417 76293
L70473 76265
L70501 76237
L70529 76181
L70529 76124
L70501 76068
L70473 76040
L70417 76012
L70304 75984
L70248 75956
L70220 75928
L70192 75871
L70192 75815
L70220 75759
L70248 75731
L70304 75703
L70445 75703
L70529 75731
" />
<path d="M70782 76293
L70782 75899
" />
<path d="M70782 75703
L70754 75731
L70782 75759
L70810 75731
L70782 75703
L70782 75759
" />
<path d="M71007 75899
L71316 75899
L71007 76293
L71316 76293
" />
<path d="M71766 76265
L71710 76293
L71598 76293
L71541 76265
L71513 76209
L71513 75984
L71541 75928
L71598 75899
L71710 75899
L71766 75928
L71795 75984
L71795 76040
L71513 76096
" />
<path d="M72048 76237
L72076 76265
L72048 76293
L72019 76265
L72048 76237
L72048 76293
" />
<path d="M72048 75928
L72076 75956
L72048 75984
L72019 75956
L72048 75928
L72048 75984
" />
<path d="M72751 76124
L73032 76124
" />
<path d="M72694 76293
L72891 75703
L73088 76293
" />
<path d="M73538 75899
L73538 76293
" />
<path d="M73397 75674
L73257 76096
L73622 76096
" />
</g>
<g style="fill:#000000; fill-opacity:0.0; 
stroke:#000000; stroke-width:39.3701; stroke-opacity:1; 
stroke-linecap:round; stroke-linejoin:round;">
</g>
<g style="fill:#000000; fill-opacity:0.0; 
stroke:#000000; stroke-width:59.0551; stroke-opacity:1; 
stroke-linecap:round; stroke-linejoin:round;">
<path d="M103684 77395
L103684 76805
" />
<path d="M104219 77395
L104219 76805
" />
<path d="M104219 77367
L104162 77395
L104050 77395
L103994 77367
L103965 77339
L103937 77283
L103937 77114
L103965 77058
L103994 77030
L104050 77002
L104162 77002
L104219 77030
" />
<path d="M104500 77339
L104528 77367
L104500 77395
L104472 77367
L104500 77339
L104500 77395
" />
<path d="M104500 77030
L104528 77058
L104500 77086
L104472 77058
L104500 77030
L104500 77086
" />
<path d="M105540 77395
L105203 77395
" />
<path d="M105372 77395
L105372 76805
L105315 76889
L105259 76946
L105203 76974
" />
<path d="M106215 76777
L105709 77536
" />
<path d="M106721 77395
L106384 77395
" />
<path d="M106553 77395
L106553 76805
L106496 76889
L106440 76946
L106384 76974
" />
</g>
<g style="fill:#000000; fill-opacity:0.0; 
stroke:#000000; stroke-width:39.3701; stroke-opacity:1; 
stroke-linecap:round; stroke-linejoin:round;">
</g>
<g style="fill:#000000; fill-opacity:0.0; 
stroke:#000000; stroke-width:59.0551; stroke-opacity:1; 
stroke-linecap:round; stroke-linejoin:round;">
<path d="M69685 73821
L112205 73821
" />
</g>
<g style="fill:#000000; fill-opacity:0.0; 
stroke:#000000; stroke-width:39.3701; stroke-opacity:1; 
stroke-linecap:round; stroke-linejoin:round;">
</g>
<g style="fill:#000000; fill-opacity:0.0; 
stroke:#000000; stroke-width:157.48; stroke-opacity:1; 
stroke-linecap:round; stroke-linejoin:round;">
<path d="M70257 74099
L70707 74099
" />
<path d="M70384 74886
L70482 74099
" />
<path d="M70871 74886
L70937 74361
" />
<path d="M70970 74099
L70927 74136
L70960 74174
L71002 74136
L70970 74099
L70960 74174
" />
<path d="M71199 74361
L71499 74361
" />
<path d="M71345 74099
L71260 74774
L71288 74849
L71359 74886
L71434 74886
" />
<path d="M71809 74886
L71738 74849
L71710 74774
L71795 74099
" />
<path d="M72413 74849
L72334 74886
L72184 74886
L72113 74849
L72085 74774
L72123 74474
L72169 74399
L72249 74361
L72399 74361
L72469 74399
L72498 74474
L72488 74549
L72104 74624
" />
<path d="M72793 74811
L72826 74849
L72783 74886
L72751 74849
L72793 74811
L72783 74886
" />
<path d="M72844 74399
L72877 74436
L72835 74474
L72802 74436
L72844 74399
L72835 74474
" />
</g>
<g style="fill:#000000; fill-opacity:0.0; 
stroke:#000000; stroke-width:39.3701; stroke-opacity:1; 
stroke-linecap:round; stroke-linejoin:round;">
</g>
<g style="fill:#000000; fill-opacity:0.0; 
stroke:#000000; stroke-width:59.0551; stroke-opacity:1; 
stroke-linecap:round; stroke-linejoin:round;">
<path d="M70417 73070
L70220 73070
" />
<path d="M70220 73380
L70220 72789
L70501 72789
" />
<path d="M70726 73380
L70726 72986
" />
<path d="M70726 72789
L70698 72817
L70726 72845
L70754 72817
L70726 72789
L70726 72845
" />
<path d="M71091 73380
L71035 73352
L71007 73295
L71007 72789
" />
<path d="M71541 73352
L71485 73380
L71373 73380
L71316 73352
L71288 73295
L71288 73070
L71316 73014
L71373 72986
L71485 72986
L71541 73014
L71570 73070
L71570 73127
L71288 73183
" />
<path d="M71823 73323
L71851 73352
L71823 73380
L71795 73352
L71823 73323
L71823 73380
" />
<path d="M71823 73014
L71851 73042
L71823 73070
L71795 73042
L71823 73014
L71823 73070
" />
<path d="M72554 73070
L72751 73070
" />
<path d="M72835 73380
L72554 73380
L72554 72789
L72835 72789
" />
<path d="M73060 73352
L73144 73380
L73285 73380
L73341 73352
L73369 73323
L73397 73267
L73397 73211
L73369 73155
L73341 73127
L73285 73099
L73172 73070
L73116 73042
L73088 73014
L73060 72958
L73060 72902
L73088 72845
L73116 72817
L73172 72789
L73313 72789
L73397 72817
" />
<path d="M73594 72789
L73988 73380
" />
<path d="M73988 72789
L73594 73380
" />
<path d="M74185 73211
L74466 73211
" />
<path d="M74129 73380
L74325 72789
L74522 73380
" />
<path d="M75057 73380
L74860 73099
" />
<path d="M74719 73380
L74719 72789
L74944 72789
L75000 72817
L75028 72845
L75057 72902
L75057 72986
L75028 73042
L75000 73070
L74944 73099
L74719 73099
" />
<path d="M75310 73323
L75338 73352
L75310 73380
L75282 73352
L75310 73323
L75310 73380
" />
<path d="M75591 73380
L75591 72789
" />
<path d="M75647 73155
L75816 73380
" />
<path d="M75816 72986
L75591 73211
" />
<path d="M76069 73380
L76069 72986
" />
<path d="M76069 72789
L76041 72817
L76069 72845
L76097 72817
L76069 72789
L76069 72845
" />
<path d="M76603 73352
L76547 73380
L76435 73380
L76378 73352
L76350 73323
L76322 73267
L76322 73099
L76350 73042
L76378 73014
L76435 72986
L76547 72986
L76603 73014
" />
<path d="M77109 73380
L77109 73070
L77081 73014
L77025 72986
L76913 72986
L76856 73014
" />
<path d="M77109 73352
L77053 73380
L76913 73380
L76856 73352
L76828 73295
L76828 73239
L76856 73183
L76913 73155
L77053 73155
L77109 73127
" />
<path d="M77644 73380
L77644 72789
" />
<path d="M77644 73352
L77588 73380
L77475 73380
L77419 73352
L77391 73323
L77363 73267
L77363 73099
L77391 73042
L77419 73014
L77475 72986
L77588 72986
L77644 73014
" />
<path d="M77784 73436
L78234 73436
" />
<path d="M78375 72986
L78375 73577
" />
<path d="M78375 73014
L78431 72986
L78544 72986
L78600 73014
L78628 73042
L78656 73099
L78656 73267
L78628 73323
L78600 73352
L78544 73380
L78431 73380
L78375 73352
" />
<path d="M79162 73352
L79106 73380
L78994 73380
L78937 73352
L78909 73323
L78881 73267
L78881 73099
L78909 73042
L78937 73014
L78994 72986
L79106 72986
L79162 73014
" />
<path d="M79415 73380
L79415 72789
" />
<path d="M79415 73014
L79472 72986
L79584 72986
L79640 73014
L79669 73042
L79697 73099
L79697 73267
L79669 73323
L79640 73352
L79584 73380
L79472 73380
L79415 73352
" />
</g>
<g style="fill:#000000; fill-opacity:0.0; 
stroke:#000000; stroke-width:39.3701; stroke-opacity:1; 
stroke-linecap:round; stroke-linejoin:round;">
</g>
<g style="fill:#000000; fill-opacity:0.0; 
stroke:#000000; stroke-width:59.0551; stroke-opacity:1; 
stroke-linecap:round; stroke-linejoin:round;">
<path d="M69685 71459
L112205 71459
" />
</g>
<g style="fill:#000000; fill-opacity:0.0; 
stroke:#000000; stroke-width:39.3701; stroke-opacity:1; 
stroke-linecap:round; stroke-linejoin:round;">
</g>
<g style="fill:#000000; fill-opacity:0.0; 
stroke:#000000; stroke-width:59.0551; stroke-opacity:1; 
stroke-linecap:round; stroke-linejoin:round;">
<path d="M70192 72289
L70276 72317
L70417 72317
L70473 72289
L70501 72260
L70529 72204
L70529 72148
L70501 72092
L70473 72064
L70417 72036
L70304 72007
L70248 71979
L70220 71951
L70192 71895
L70192 71839
L70220 71782
L70248 71754
L70304 71726
L70445 71726
L70529 71754
" />
<path d="M70782 72317
L70782 71726
" />
<path d="M71035 72317
L71035 72007
L71007 71951
L70951 71923
L70867 71923
L70810 71951
L70782 71979
" />
<path d="M71541 72289
L71485 72317
L71373 72317
L71316 72289
L71288 72232
L71288 72007
L71316 71951
L71373 71923
L71485 71923
L71541 71951
L71570 72007
L71570 72064
L71288 72120
" />
<path d="M72048 72289
L71991 72317
L71879 72317
L71823 72289
L71795 72232
L71795 72007
L71823 71951
L71879 71923
L71991 71923
L72048 71951
L72076 72007
L72076 72064
L71795 72120
" />
<path d="M72244 71923
L72469 71923
" />
<path d="M72329 71726
L72329 72232
L72357 72289
L72413 72317
L72469 72317
" />
<path d="M72666 72260
L72694 72289
L72666 72317
L72638 72289
L72666 72260
L72666 72317
" />
<path d="M72666 71951
L72694 71979
L72666 72007
L72638 71979
L72666 71951
L72666 72007
" />
</g>
<g style="fill:#000000; fill-opacity:0.0; 
stroke:#000000; stroke-width:39.3701; stroke-opacity:1; 
stroke-linecap:round; stroke-linejoin:round;">
</g>
<g style="fill:#000000; fill-opacity:0.0; 
stroke:#000000; stroke-width:59.0551; stroke-opacity:1; 
stroke-linecap:round; stroke-linejoin:round;">
<path d="M77559 75396
L77559 76577
" />
</g>
<g style="fill:#000000; fill-opacity:0.0; 
stroke:#000000; stroke-width:39.3701; stroke-opacity:1; 
stroke-linecap:round; stroke-linejoin:round;">
</g>
<g style="fill:#000000; fill-opacity:0.0; 
stroke:#000000; stroke-width:59.0551; stroke-opacity:1; 
stroke-linecap:round; stroke-linejoin:round;">
<path d="M102756 75396
L102756 77955
" />
</g>
<g style="fill:#C2C200; fill-opacity:0.0; 
stroke:#C2C200; stroke-width:59.0551; stroke-opacity:1; 
stroke-linecap:round; stroke-linejoin:round;">
</g>
<g style="fill:#C2C200; fill-opacity:0.0; 
stroke:#C2C200; stroke-width:118.11; stroke-opacity:1; 
stroke-linecap:round; stroke-linejoin:round;">
<path d="M53188 34291
L53188 31141
" />
<path d="M50039 34291
L53188 34291
" />
<path d="M50039 46811
L50039 34291
" />
<path d="M53188 46811
L50039 46811
" />
<path d="M53188 49960
L53188 46811
" />
<path d="M60275 49960
L53188 49960
" />
<path d="M60275 55078
L60275 49960
" />
<path d="M65078 55078
L60275 55078
" />
<path d="M65078 49960
L65078 55078
" />
<path d="M71614 49960
L65078 49960
" />
<path d="M71614 46811
L71614 49960
" />
<path d="M74763 46811
L71614 46811
" />
<path d="M74763 34291
L74763 46811
" />
<path d="M74803 34291
L74763 34291
" />
<path d="M74763 34291
L74803 34291
" />
<path d="M71614 34291
L74763 34291
" />
<path d="M71614 31141
L71614 34291
" />
<path d="M53188 31141
L71614 31141
" />
<circle cx="67322.8" cy="48425.2" r="629.921" /> 
<circle cx="54724.4" cy="48425.2" r="629.921" /> 
<circle cx="67322.8" cy="32677.2" r="629.921" /> 
<circle cx="54724.4" cy="32677.2" r="629.921" /> 
</g>
<g style="fill:#C2C200; fill-opacity:0.0; 
stroke:#C2C200; stroke-width:59.0551; stroke-opacity:1; 
stroke-linecap:round; stroke-linejoin:round;">
<path d="M60275 50000
L60225 50000
" />
<path d="M60275 55100
L60275 50000
" />
<path d="M65075 55100
L60275 55100
" />
<path d="M65100 50000
L65125 50000
" />
<path d="M65075 50000
L65100 50000
" />
<path d="M65125 50000
L65425 50000
" />
<path d="M65075 55100
L65075 50000
" />
<path d="M59425 50000
L60225 50000
" />
<path d="M53641 41118
L53641 40960
" />
<path d="M53888 40893
L53888 41118
L53416 41118
L53416 40893
" />
<path d="M53866 40713
L53888 40645
L53888 40533
L53866 40488
L53843 40465
L53798 40443
L53753 40443
L53708 40465
L53686 40488
L53663 40533
L53641 40623
L53618 40668
L53596 40690
L53551 40713
L53506 40713
L53461 40690
L53438 40668
L53416 40623
L53416 40510
L53438 40443
" />
<path d="M53888 40241
L53416 40241
L53416 40061
L53438 40016
L53461 39993
L53506 39971
L53573 39971
L53618 39993
L53641 40016
L53663 40061
L53663 40241
" />
<path d="M53708 39768
L53708 39408
" />
<path d="M53416 39228
L53888 39116
L53551 39026
L53888 38936
L53416 38823
" />
<path d="M53888 38373
L53663 38531
" />
<path d="M53888 38643
L53416 38643
L53416 38463
L53438 38418
L53461 38396
L53506 38373
L53573 38373
L53618 38396
L53641 38418
L53663 38463
L53663 38643
" />
<path d="M53416 38081
L53416 37991
L53438 37946
L53483 37901
L53573 37878
L53731 37878
L53821 37901
L53866 37946
L53888 37991
L53888 38081
L53866 38126
L53821 38171
L53731 38193
L53573 38193
L53483 38171
L53438 38126
L53416 38081
" />
<path d="M53416 37586
L53416 37496
L53438 37451
L53483 37406
L53573 37383
L53731 37383
L53821 37406
L53866 37451
L53888 37496
L53888 37586
L53866 37631
L53821 37676
L53731 37698
L53573 37698
L53483 37676
L53438 37631
L53416 37586
" />
<path d="M53888 37181
L53416 37181
L53753 37023
L53416 36866
L53888 36866
" />
<path d="M53708 36641
L53708 36281
" />
<path d="M53416 35966
L53416 35921
L53438 35876
L53461 35854
L53506 35831
L53596 35809
L53708 35809
L53798 35831
L53843 35854
L53866 35876
L53888 35921
L53888 35966
L53866 36011
L53843 36034
L53798 36056
L53708 36079
L53596 36079
L53506 36056
L53461 36034
L53438 36011
L53416 35966
" />
<path d="M53461 35629
L53438 35606
L53416 35561
L53416 35449
L53438 35404
L53461 35381
L53506 35359
L53551 35359
L53618 35381
L53888 35651
L53888 35359
" />
<path d="M61309 31178
L61122 31178
L61122 30784
" />
<path d="M61440 30971
L61571 30971
" />
<path d="M61628 31178
L61440 31178
L61440 30784
L61628 30784
" />
<path d="M61796 31178
L61796 30784
L61890 30784
L61946 30803
L61984 30840
L62003 30878
L62021 30953
L62021 31009
L62003 31084
L61984 31121
L61946 31159
L61890 31178
L61796 31178
" />
<path d="M62096 31215
L62396 31215
" />
<path d="M62715 31178
L62584 30990
" />
<path d="M62490 31178
L62490 30784
L62640 30784
L62678 30803
L62696 30821
L62715 30859
L62715 30915
L62696 30953
L62678 30971
L62640 30990
L62490 30990
" />
<path d="M63109 31140
L63090 31159
L63034 31178
L62996 31178
L62940 31159
L62903 31121
L62884 31084
L62865 31009
L62865 30953
L62884 30878
L62903 30840
L62940 30803
L62996 30784
L63034 30784
L63090 30803
L63109 30821
" />
<path d="M63409 30971
L63465 30990
L63484 31009
L63503 31046
L63503 31103
L63484 31140
L63465 31159
L63428 31178
L63278 31178
L63278 30784
L63409 30784
L63446 30803
L63465 30821
L63484 30859
L63484 30896
L63465 30934
L63446 30953
L63409 30971
L63278 30971
" />
<path d="M63877 30803
L63840 30784
L63784 30784
L63727 30803
L63690 30840
L63671 30878
L63652 30953
L63652 31009
L63671 31084
L63690 31121
L63727 31159
L63784 31178
L63821 31178
L63877 31159
L63896 31140
L63896 31009
L63821 31009
" />
<path d="M65453 40709
L65059 40709
L65340 40577
L65059 40446
L65453 40446
" />
<path d="M65453 40259
L65190 40259
" />
<path d="M65059 40259
L65078 40277
L65096 40259
L65078 40240
L65059 40259
L65096 40259
" />
<path d="M65190 40071
L65453 40071
" />
<path d="M65228 40071
L65209 40052
L65190 40015
L65190 39959
L65209 39921
L65246 39902
L65453 39902
" />
<path d="M65453 39715
L65190 39715
" />
<path d="M65059 39715
L65078 39734
L65096 39715
L65078 39696
L65059 39715
L65096 39715
" />
<path d="M65059 39565
L65059 39321
L65209 39452
L65209 39396
L65228 39359
L65246 39340
L65284 39321
L65378 39321
L65415 39340
L65434 39359
L65453 39396
L65453 39509
L65434 39546
L65415 39565
" />
<path d="M65059 38984
L65059 39059
L65078 39096
L65096 39115
L65153 39152
L65228 39171
L65378 39171
L65415 39152
L65434 39134
L65453 39096
L65453 39021
L65434 38984
L65415 38965
L65378 38946
L65284 38946
L65246 38965
L65228 38984
L65209 39021
L65209 39096
L65228 39134
L65246 39152
L65284 39171
" />
<path d="M65059 38703
L65059 38665
L65078 38628
L65096 38609
L65134 38590
L65209 38571
L65303 38571
L65378 38590
L65415 38609
L65434 38628
L65453 38665
L65453 38703
L65434 38740
L65415 38759
L65378 38778
L65303 38796
L65209 38796
L65134 38778
L65096 38759
L65078 38740
L65059 38703
" />
<path d="M62034 49699
L62034 50018
L62053 50055
L62071 50074
L62109 50093
L62184 50093
L62221 50074
L62240 50055
L62259 50018
L62259 49699
" />
<path d="M62428 50074
L62484 50093
L62578 50093
L62615 50074
L62634 50055
L62653 50018
L62653 49980
L62634 49943
L62615 49924
L62578 49905
L62503 49887
L62465 49868
L62446 49849
L62428 49812
L62428 49774
L62446 49737
L62465 49718
L62503 49699
L62596 49699
L62653 49718
" />
<path d="M62953 49887
L63009 49905
L63028 49924
L63046 49962
L63046 50018
L63028 50055
L63009 50074
L62971 50093
L62821 50093
L62821 49699
L62953 49699
L62990 49718
L63009 49737
L63028 49774
L63028 49812
L63009 49849
L62990 49868
L62953 49887
L62821 49887
" />
<path d="M63121 50130
L63421 50130
" />
<path d="M63496 49980
L63684 49980
" />
<path d="M63459 50093
L63590 49699
L63721 50093
" />
<path d="M63591 39063
L63591 38838
" />
<path d="M63985 38950
L63591 38950
" />
<path d="M63872 38725
L63872 38538
" />
<path d="M63985 38763
L63591 38631
L63985 38500
" />
<path d="M63722 38200
L63985 38200
" />
<path d="M63572 38294
L63853 38388
L63853 38144
" />
<path d="M63760 37938
L63741 37975
L63722 37994
L63685 38013
L63666 38013
L63628 37994
L63610 37975
L63591 37938
L63591 37863
L63610 37825
L63628 37807
L63666 37788
L63685 37788
L63722 37807
L63741 37825
L63760 37863
L63760 37938
L63778 37975
L63797 37994
L63835 38013
L63910 38013
L63947 37994
L63966 37975
L63985 37938
L63985 37863
L63966 37825
L63947 37807
L63910 37788
L63835 37788
L63797 37807
L63778 37825
L63760 37863
" />
<path d="M63985 37619
L63591 37619
L63872 37488
L63591 37357
L63985 37357
" />
<path d="M63591 37094
L63591 37057
L63610 37019
L63628 37000
L63666 36982
L63741 36963
L63835 36963
L63910 36982
L63947 37000
L63966 37019
L63985 37057
L63985 37094
L63966 37132
L63947 37150
L63910 37169
L63835 37188
L63741 37188
L63666 37169
L63628 37150
L63610 37132
L63591 37094
" />
<path d="M63591 36832
L63591 36588
L63741 36719
L63741 36663
L63760 36625
L63778 36607
L63816 36588
L63910 36588
L63947 36607
L63966 36625
L63985 36663
L63985 36775
L63966 36813
L63947 36832
" />
<path d="M63591 36457
L63591 36213
L63741 36344
L63741 36288
L63760 36250
L63778 36232
L63816 36213
L63910 36213
L63947 36232
L63966 36250
L63985 36288
L63985 36400
L63966 36438
L63947 36457
" />
<path d="M63778 35913
L63778 36044
" />
<path d="M63985 36044
L63591 36044
L63591 35857
" />
<path d="M65071 38090
L65333 38090
" />
<path d="M64921 38184
L65202 38278
L65202 38034
" />
<path d="M65296 37884
L65314 37865
L65333 37884
L65314 37903
L65296 37884
L65333 37884
" />
<path d="M64939 37734
L64939 37471
L65333 37640
" />
<path d="M65071 37153
L65333 37153
" />
<path d="M65071 37321
L65277 37321
L65314 37303
L65333 37265
L65333 37209
L65314 37171
L65296 37153
" />
<path d="M65333 36965
L64939 36965
" />
<path d="M65127 36965
L65127 36740
" />
<path d="M65333 36740
L64939 36740
" />
<path d="M64682 47510
L64457 47510
" />
<path d="M64570 47510
L64570 47116
L64532 47172
L64495 47210
L64457 47229
" />
<path d="M64926 47116
L64964 47116
L65001 47135
L65020 47154
L65039 47191
L65057 47266
L65057 47360
L65039 47435
L65020 47472
L65001 47491
L64964 47510
L64926 47510
L64889 47491
L64870 47472
L64851 47435
L64832 47360
L64832 47266
L64851 47191
L64870 47154
L64889 47135
L64926 47116
" />
<path d="M65301 47116
L65338 47116
L65376 47135
L65395 47154
L65413 47191
L65432 47266
L65432 47360
L65413 47435
L65395 47472
L65376 47491
L65338 47510
L65301 47510
L65264 47491
L65245 47472
L65226 47435
L65207 47360
L65207 47266
L65226 47191
L65245 47154
L65264 47135
L65301 47116
" />
<path d="M65770 47247
L65770 47510
" />
<path d="M65601 47247
L65601 47454
L65620 47491
L65657 47510
L65713 47510
L65751 47491
L65770 47472
" />
<path d="M66088 47304
L65957 47304
" />
<path d="M65957 47510
L65957 47116
L66145 47116
" />
<path d="M60598 41325
L60598 41512
L60204 41512
" />
<path d="M60598 41194
L60204 41194
L60204 41100
L60223 41044
L60260 41006
L60298 40987
L60373 40969
L60429 40969
L60504 40987
L60541 41006
L60579 41044
L60598 41100
L60598 41194
" />
<path d="M60598 40594
L60598 40819
" />
<path d="M60598 40706
L60204 40706
L60260 40744
L60298 40781
L60316 40819
" />
<path d="M60598 40219
L60598 40444
" />
<path d="M60598 40331
L60204 40331
L60260 40369
L60298 40406
L60316 40444
" />
<path d="M60598 39844
L60598 40069
" />
<path d="M60598 39956
L60204 39956
L60260 39994
L60298 40031
L60316 40069
" />
<path d="M60204 39713
L60204 39450
L60598 39619
" />
<path d="M60560 39075
L60579 39094
L60598 39150
L60598 39188
L60579 39244
L60541 39281
L60504 39300
L60429 39319
L60373 39319
L60298 39300
L60260 39281
L60223 39244
L60204 39188
L60204 39150
L60223 39094
L60241 39075
" />
<path d="M60204 38963
L60598 38831
L60204 38700
" />
<path d="M60204 38607
L60204 38363
L60354 38494
L60354 38438
L60373 38400
L60391 38382
L60429 38363
L60523 38363
L60560 38382
L60579 38400
L60598 38438
L60598 38550
L60579 38588
L60560 38607
" />
<path d="M60204 38232
L60204 37988
L60354 38119
L60354 38063
L60373 38025
L60391 38007
L60429 37988
L60523 37988
L60560 38007
L60579 38025
L60598 38063
L60598 38175
L60579 38213
L60560 38232
" />
<path d="M62300 44534
L62525 44534
" />
<path d="M62412 44928
L62412 44534
" />
<path d="M62843 44928
L62656 44928
L62656 44534
" />
<path d="M62975 44928
L62975 44534
L63125 44534
L63162 44553
L63181 44571
L63200 44609
L63200 44665
L63181 44703
L63162 44721
L63125 44740
L62975 44740
" />
<path d="M63350 44571
L63368 44553
L63406 44534
L63500 44534
L63537 44553
L63556 44571
L63574 44609
L63574 44646
L63556 44703
L63331 44928
L63574 44928
" />
<path d="M63724 44571
L63743 44553
L63781 44534
L63874 44534
L63912 44553
L63931 44571
L63949 44609
L63949 44646
L63931 44703
L63706 44928
L63949 44928
" />
<path d="M64099 44571
L64118 44553
L64156 44534
L64249 44534
L64287 44553
L64306 44571
L64324 44609
L64324 44646
L64306 44703
L64081 44928
L64324 44928
" />
<path d="M64474 44815
L64662 44815
" />
<path d="M64437 44928
L64568 44534
L64699 44928
" />
<path d="M50518 43815
L50706 43815
" />
<path d="M50481 43928
L50612 43534
L50743 43928
" />
<path d="M50875 43928
L50875 43534
L51100 43928
L51100 43534
" />
<path d="M51268 43815
L51456 43815
" />
<path d="M51231 43928
L51362 43534
L51493 43928
" />
<path d="M51812 43928
L51624 43928
L51624 43534
" />
<path d="M52018 43534
L52093 43534
L52131 43553
L52168 43590
L52187 43665
L52187 43796
L52168 43871
L52131 43909
L52093 43928
L52018 43928
L51981 43909
L51943 43871
L51924 43796
L51924 43665
L51943 43590
L51981 43553
L52018 43534
" />
<path d="M52562 43553
L52524 43534
L52468 43534
L52412 43553
L52374 43590
L52356 43628
L52337 43703
L52337 43759
L52356 43834
L52374 43871
L52412 43909
L52468 43928
L52506 43928
L52562 43909
L52581 43890
L52581 43759
L52506 43759
" />
<path d="M62084 50459
L62084 50778
L62097 50815
L62110 50834
L62137 50853
L62189 50853
L62215 50834
L62229 50815
L62242 50778
L62242 50459
" />
<path d="M62360 50834
L62399 50853
L62465 50853
L62491 50834
L62504 50815
L62517 50778
L62517 50740
L62504 50703
L62491 50684
L62465 50665
L62412 50647
L62386 50628
L62373 50609
L62360 50572
L62360 50534
L62373 50497
L62386 50478
L62412 50459
L62478 50459
L62517 50478
" />
<path d="M62727 50647
L62767 50665
L62780 50684
L62793 50722
L62793 50778
L62780 50815
L62767 50834
L62740 50853
L62635 50853
L62635 50459
L62727 50459
L62753 50478
L62767 50497
L62780 50534
L62780 50572
L62767 50609
L62753 50628
L62727 50647
L62635 50647
" />
<path d="M62845 50890
L63055 50890
" />
<path d="M63213 50647
L63252 50665
L63265 50684
L63278 50722
L63278 50778
L63265 50815
L63252 50834
L63226 50853
L63121 50853
L63121 50459
L63213 50459
L63239 50478
L63252 50497
L63265 50534
L63265 50572
L63252 50609
L63239 50628
L63213 50647
L63121 50647
" />
<path d="M57828 37121
L57640 37253
" />
<path d="M57828 37346
L57434 37346
L57434 37196
L57453 37159
L57471 37140
L57509 37121
L57565 37121
L57603 37140
L57621 37159
L57640 37196
L57640 37346
" />
<path d="M57621 36953
L57621 36821
" />
<path d="M57828 36765
L57828 36953
L57434 36953
L57434 36765
" />
<path d="M57809 36615
L57828 36559
L57828 36465
L57809 36428
L57790 36409
L57753 36390
L57715 36390
L57678 36409
L57659 36428
L57640 36465
L57621 36540
L57603 36578
L57584 36596
L57546 36615
L57509 36615
L57471 36596
L57453 36578
L57434 36540
L57434 36446
L57453 36390
" />
<path d="M57621 36221
L57621 36090
" />
<path d="M57828 36034
L57828 36221
L57434 36221
L57434 36034
" />
<path d="M57434 35921
L57434 35696
" />
<path d="M57828 35809
L57434 35809
" />
<path d="M60162 40429
L60162 40654
" />
<path d="M60162 40542
L59768 40542
L59824 40579
L59862 40617
L59881 40654
" />
<path d="M59768 40185
L59768 40148
L59787 40110
L59806 40092
L59843 40073
L59918 40054
L60012 40054
L60087 40073
L60124 40092
L60143 40110
L60162 40148
L60162 40185
L60143 40223
L60124 40242
L60087 40260
L60012 40279
L59918 40279
L59843 40260
L59806 40242
L59787 40223
L59768 40185
" />
<path d="M59899 39717
L60162 39717
" />
<path d="M59899 39886
L60106 39886
L60143 39867
L60162 39829
L60162 39773
L60143 39736
L60124 39717
" />
<path d="M59956 39398
L59956 39529
" />
<path d="M60162 39529
L59768 39529
L59768 39342
" />
<path d="M58682 47408
L58664 47427
L58607 47445
L58570 47445
L58514 47427
L58476 47389
L58457 47352
L58439 47277
L58439 47220
L58457 47145
L58476 47108
L58514 47070
L58570 47052
L58607 47052
L58664 47070
L58682 47089
" />
<path d="M58851 47445
L58851 47052
L59001 47052
L59039 47070
L59057 47089
L59076 47127
L59076 47183
L59057 47220
L59039 47239
L59001 47258
L58851 47258
" />
<path d="M74572 40177
L74591 40121
L74609 40102
L74647 40084
L74703 40084
L74741 40102
L74759 40121
L74778 40159
L74778 40309
L74384 40309
L74384 40177
L74403 40140
L74422 40121
L74459 40102
L74497 40102
L74534 40121
L74553 40140
L74572 40177
L74572 40309
" />
<path d="M74778 39690
L74591 39821
" />
<path d="M74778 39915
L74384 39915
L74384 39765
L74403 39727
L74422 39709
L74459 39690
L74516 39690
L74553 39709
L74572 39727
L74591 39765
L74591 39915
" />
<path d="M74572 39521
L74572 39390
" />
<path d="M74778 39334
L74778 39521
L74384 39521
L74384 39334
" />
<path d="M74666 39184
L74666 38996
" />
<path d="M74778 39221
L74384 39090
L74778 38959
" />
<path d="M74778 38828
L74384 38828
L74384 38734
L74403 38678
L74441 38640
L74478 38621
L74553 38603
L74609 38603
L74684 38621
L74722 38640
L74759 38678
L74778 38734
L74778 38828
" />
<path d="M74572 38303
L74591 38246
L74609 38228
L74647 38209
L74703 38209
L74741 38228
L74759 38246
L74778 38284
L74778 38434
L74384 38434
L74384 38303
L74403 38265
L74422 38246
L74459 38228
L74497 38228
L74534 38246
L74553 38265
L74572 38303
L74572 38434
" />
<path d="M74384 37965
L74384 37890
L74403 37853
L74441 37815
L74516 37796
L74647 37796
L74722 37815
L74759 37853
L74778 37890
L74778 37965
L74759 38003
L74722 38040
L74647 38059
L74516 38059
L74441 38040
L74403 38003
L74384 37965
" />
<path d="M74666 37646
L74666 37459
" />
<path d="M74778 37684
L74384 37553
L74778 37422
" />
<path d="M74778 37065
L74591 37197
" />
<path d="M74778 37290
L74384 37290
L74384 37140
L74403 37103
L74422 37084
L74459 37065
L74516 37065
L74553 37084
L74572 37103
L74591 37140
L74591 37290
" />
<path d="M74778 36897
L74384 36897
L74384 36803
L74403 36747
L74441 36709
L74478 36690
L74553 36672
L74609 36672
L74684 36690
L74722 36709
L74759 36747
L74778 36803
L74778 36897
" />
<path d="M69928 39809
L69534 39809
L69816 39678
L69534 39546
L69928 39546
" />
<path d="M69534 39284
L69534 39209
L69553 39171
L69591 39134
L69666 39115
L69797 39115
L69872 39134
L69909 39171
L69928 39209
L69928 39284
L69909 39321
L69872 39359
L69797 39378
L69666 39378
L69591 39359
L69553 39321
L69534 39284
" />
<path d="M69928 38946
L69534 38946
L69534 38853
L69553 38796
L69591 38759
L69628 38740
L69703 38721
L69759 38721
L69834 38740
L69872 38759
L69909 38796
L69928 38853
L69928 38946
" />
<path d="M69722 38553
L69722 38421
" />
<path d="M69928 38365
L69928 38553
L69534 38553
L69534 38365
" />
<path d="M69534 38084
L69816 38084
L69872 38103
L69909 38140
L69928 38196
L69928 38234
" />
<path d="M69928 37896
L69534 37896
L69534 37747
L69553 37709
L69572 37690
L69609 37672
L69666 37672
L69703 37690
L69722 37709
L69741 37747
L69741 37896
" />
<path d="M67534 39621
L67928 39490
L67534 39359
" />
<path d="M67891 39003
L67909 39021
L67928 39078
L67928 39115
L67909 39171
L67872 39209
L67834 39228
L67759 39246
L67703 39246
L67628 39228
L67591 39209
L67553 39171
L67534 39115
L67534 39078
L67553 39021
L67572 39003
" />
<path d="M67891 38609
L67909 38628
L67928 38684
L67928 38721
L67909 38778
L67872 38815
L67834 38834
L67759 38853
L67703 38853
L67628 38834
L67591 38815
L67553 38778
L67534 38721
L67534 38684
L67553 38628
L67572 38609
" />
<path d="M67534 38328
L67816 38328
L67872 38346
L67909 38384
L67928 38440
L67928 38478
" />
<path d="M67928 38140
L67534 38140
L67534 37990
L67553 37953
L67572 37934
L67609 37915
L67666 37915
L67703 37934
L67722 37953
L67741 37990
L67741 38140
" />
<path d="M68553 39396
L68534 39434
L68534 39490
L68553 39546
L68591 39584
L68628 39603
L68703 39621
L68759 39621
L68834 39603
L68872 39584
L68909 39546
L68928 39490
L68928 39453
L68909 39396
L68891 39378
L68759 39378
L68759 39453
" />
<path d="M68928 39209
L68534 39209
L68928 38984
L68534 38984
" />
<path d="M68928 38796
L68534 38796
L68534 38703
L68553 38646
L68591 38609
L68628 38590
L68703 38571
L68759 38571
L68834 38590
L68872 38609
L68909 38646
L68928 38703
L68928 38796
" />
<path d="M68534 38290
L68816 38290
L68872 38309
L68909 38346
L68928 38403
L68928 38440
" />
<path d="M68928 38103
L68534 38103
L68534 37953
L68553 37915
L68572 37896
L68609 37878
L68666 37878
L68703 37896
L68722 37915
L68741 37953
L68741 38103
" />
<path d="M70722 39471
L70722 39340
" />
<path d="M70928 39284
L70928 39471
L70534 39471
L70534 39284
" />
<path d="M70534 39153
L70928 38890
" />
<path d="M70534 38890
L70928 39153
" />
<path d="M70534 38796
L70534 38571
" />
<path d="M70928 38684
L70534 38684
" />
<path d="M70928 38440
L70534 38440
" />
<path d="M70534 38178
L70534 38103
L70553 38065
L70591 38028
L70666 38009
L70797 38009
L70872 38028
L70909 38065
L70928 38103
L70928 38178
L70909 38215
L70872 38253
L70797 38271
L70666 38271
L70591 38253
L70553 38215
L70534 38178
" />
<path d="M65534 40221
L65853 40221
L65891 40202
L65909 40184
L65928 40146
L65928 40071
L65909 40034
L65891 40015
L65853 39996
L65534 39996
" />
<path d="M65928 39809
L65534 39809
L65928 39584
L65534 39584
" />
<path d="M65928 39396
L65534 39396
" />
<path d="M65534 39265
L65928 39134
L65534 39003
" />
<path d="M65722 38871
L65722 38740
" />
<path d="M65928 38684
L65928 38871
L65534 38871
L65534 38684
" />
<path d="M65928 38290
L65741 38421
" />
<path d="M65928 38515
L65534 38515
L65534 38365
L65553 38328
L65572 38309
L65609 38290
L65666 38290
L65703 38309
L65722 38328
L65741 38365
L65741 38515
" />
<path d="M65909 38140
L65928 38084
L65928 37990
L65909 37953
L65891 37934
L65853 37915
L65816 37915
L65778 37934
L65759 37953
L65741 37990
L65722 38065
L65703 38103
L65684 38121
L65647 38140
L65609 38140
L65572 38121
L65553 38103
L65534 38065
L65534 37971
L65553 37915
" />
<path d="M65816 37765
L65816 37578
" />
<path d="M65928 37803
L65534 37672
L65928 37540
" />
<path d="M65928 37222
L65928 37409
L65534 37409
" />
<path d="M66534 40221
L66853 40221
L66891 40202
L66909 40184
L66928 40146
L66928 40071
L66909 40034
L66891 40015
L66853 39996
L66534 39996
" />
<path d="M66928 39809
L66534 39809
L66928 39584
L66534 39584
" />
<path d="M66928 39396
L66534 39396
" />
<path d="M66534 39265
L66928 39134
L66534 39003
" />
<path d="M66722 38871
L66722 38740
" />
<path d="M66928 38684
L66928 38871
L66534 38871
L66534 38684
" />
<path d="M66928 38290
L66741 38421
" />
<path d="M66928 38515
L66534 38515
L66534 38365
L66553 38328
L66572 38309
L66609 38290
L66666 38290
L66703 38309
L66722 38328
L66741 38365
L66741 38515
" />
<path d="M66909 38140
L66928 38084
L66928 37990
L66909 37953
L66891 37934
L66853 37915
L66816 37915
L66778 37934
L66759 37953
L66741 37990
L66722 38065
L66703 38103
L66684 38121
L66647 38140
L66609 38140
L66572 38121
L66553 38103
L66534 38065
L66534 37971
L66553 37915
" />
<path d="M66816 37765
L66816 37578
" />
<path d="M66928 37803
L66534 37672
L66928 37540
" />
<path d="M66928 37222
L66928 37409
L66534 37409
" />
<path d="M58287 43837
L58550 43837
" />
<path d="M58137 43931
L58418 44024
L58418 43781
" />
<path d="M58156 43631
L58475 43631
L58512 43612
L58531 43593
L58550 43556
L58550 43481
L58531 43443
L58512 43424
L58475 43406
L58156 43406
" />
<path d="M58550 43218
L58156 43218
L58550 42993
L58156 42993
" />
<path d="M58550 42806
L58156 42806
" />
<path d="M58156 42674
L58156 42449
" />
<path d="M58550 42562
L58156 42562
" />
<path d="M58587 42412
L58587 42112
" />
<path d="M58550 41793
L58362 41925
" />
<path d="M58550 42018
L58156 42018
L58156 41868
L58175 41831
L58193 41812
L58231 41793
L58287 41793
L58325 41812
L58343 41831
L58362 41868
L58362 42018
" />
<path d="M58587 41718
L58587 41418
" />
<path d="M58550 41325
L58156 41325
L58156 41175
L58175 41137
L58193 41118
L58231 41100
L58287 41100
L58325 41118
L58343 41137
L58362 41175
L58362 41325
" />
<path d="M58437 40950
L58437 40762
" />
<path d="M58550 40987
L58156 40856
L58550 40725
" />
<path d="M58512 40368
L58531 40387
L58550 40443
L58550 40481
L58531 40537
L58493 40575
L58456 40593
L58381 40612
L58325 40612
L58250 40593
L58212 40575
L58175 40537
L58156 40481
L58156 40443
L58175 40387
L58193 40368
" />
<path d="M58550 40200
L58156 40200
" />
<path d="M58550 39975
L58325 40143
" />
<path d="M58156 39975
L58381 40200
" />
<path d="M55793 46683
L55793 46965
L55774 47021
L55737 47058
L55680 47077
L55643 47077
" />
<path d="M55980 46683
L55980 47002
L55999 47040
L56018 47058
L56055 47077
L56130 47077
L56168 47058
L56186 47040
L56205 47002
L56205 46683
" />
<path d="M56393 47077
L56393 46683
L56524 46965
L56655 46683
L56655 47077
" />
<path d="M56843 47077
L56843 46683
L56993 46683
L57030 46702
L57049 46721
L57068 46758
L57068 46815
L57049 46852
L57030 46871
L56993 46890
L56843 46890
" />
<path d="M57236 46871
L57368 46871
" />
<path d="M57424 47077
L57236 47077
L57236 46683
L57424 46683
" />
<path d="M57817 47077
L57686 46890
" />
<path d="M57593 47077
L57593 46683
L57743 46683
L57780 46702
L57799 46721
L57817 46758
L57817 46815
L57799 46852
L57780 46871
L57743 46890
L57593 46890
" />
<path d="M67159 47071
L67159 47333
" />
<path d="M67065 46921
L66971 47202
L67215 47202
" />
<path d="M67365 47296
L67384 47314
L67365 47333
L67346 47314
L67365 47296
L67365 47333
" />
<path d="M67515 46939
L67778 46939
L67609 47333
" />
<path d="M67928 47333
L67928 46939
" />
<path d="M67965 47183
L68078 47333
" />
<path d="M68078 47071
L67928 47221
" />
<path d="M68228 47333
L68321 47333
L68321 47258
L68284 47239
L68246 47202
L68228 47146
L68228 47052
L68246 46996
L68284 46958
L68340 46939
L68415 46939
L68471 46958
L68509 46996
L68528 47052
L68528 47146
L68509 47202
L68471 47239
L68434 47258
L68434 47333
L68528 47333
" />
<path d="M60328 33653
L59934 33653
L59934 33559
L59953 33503
L59990 33465
L60028 33446
L60103 33428
L60159 33428
L60234 33446
L60271 33465
L60309 33503
L60328 33559
L60328 33653
" />
<path d="M60328 33259
L59934 33259
" />
<path d="M60328 33071
L59934 33071
L60328 32846
L59934 32846
" />
<path d="M63078 40522
L62853 40522
" />
<path d="M62965 40522
L62965 40128
L62928 40185
L62890 40222
L62853 40241
" />
<path d="M63321 40128
L63359 40128
L63396 40147
L63415 40166
L63434 40203
L63453 40278
L63453 40372
L63434 40447
L63415 40485
L63396 40503
L63359 40522
L63321 40522
L63284 40503
L63265 40485
L63246 40447
L63228 40372
L63228 40278
L63246 40203
L63265 40166
L63284 40147
L63321 40128
" />
<path d="M63790 40260
L63790 40522
" />
<path d="M63621 40260
L63621 40466
L63640 40503
L63678 40522
L63734 40522
L63771 40503
L63790 40485
" />
<path d="M64109 40316
L63978 40316
" />
<path d="M63978 40522
L63978 40128
L64165 40128
" />
<path d="M62328 35522
L62103 35522
" />
<path d="M62215 35522
L62215 35128
L62178 35185
L62140 35222
L62103 35241
" />
<path d="M62571 35128
L62609 35128
L62646 35147
L62665 35166
L62684 35203
L62703 35278
L62703 35372
L62684 35447
L62665 35485
L62646 35503
L62609 35522
L62571 35522
L62534 35503
L62515 35485
L62496 35447
L62478 35372
L62478 35278
L62496 35203
L62515 35166
L62534 35147
L62571 35128
" />
<path d="M63040 35260
L63040 35522
" />
<path d="M62871 35260
L62871 35466
L62890 35503
L62928 35522
L62984 35522
L63021 35503
L63040 35485
" />
<path d="M63359 35316
L63228 35316
" />
<path d="M63228 35522
L63228 35128
L63415 35128
" />
<path d="M62132 47410
L61907 47410
" />
<path d="M62020 47410
L62020 47016
L61982 47072
L61945 47110
L61907 47129
" />
<path d="M62376 47016
L62414 47016
L62451 47035
L62470 47054
L62489 47091
L62507 47166
L62507 47260
L62489 47335
L62470 47372
L62451 47391
L62414 47410
L62376 47410
L62339 47391
L62320 47372
L62301 47335
L62282 47260
L62282 47166
L62301 47091
L62320 47054
L62339 47035
L62376 47016
" />
<path d="M62751 47016
L62788 47016
L62826 47035
L62845 47054
L62863 47091
L62882 47166
L62882 47260
L62863 47335
L62845 47372
L62826 47391
L62788 47410
L62751 47410
L62714 47391
L62695 47372
L62676 47335
L62657 47260
L62657 47166
L62676 47091
L62695 47054
L62714 47035
L62751 47016
" />
<path d="M63220 47147
L63220 47410
" />
<path d="M63051 47147
L63051 47354
L63070 47391
L63107 47410
L63163 47410
L63201 47391
L63220 47372
" />
<path d="M63538 47204
L63407 47204
" />
<path d="M63407 47410
L63407 47016
L63595 47016
" />
<path d="M63853 39719
L63459 39719
L63740 39588
L63459 39456
L63853 39456
" />
<path d="M63459 39325
L63459 39100
" />
<path d="M63853 39213
L63459 39213
" />
<path d="M63459 38782
L63459 38969
L63647 38988
L63628 38969
L63609 38932
L63609 38838
L63628 38800
L63647 38782
L63684 38763
L63778 38763
L63815 38782
L63834 38800
L63853 38838
L63853 38932
L63834 38969
L63815 38988
" />
<path d="M63497 38613
L63478 38594
L63459 38557
L63459 38463
L63478 38425
L63497 38407
L63534 38388
L63572 38388
L63628 38407
L63853 38632
L63853 38388
" />
<path d="M63459 38144
L63459 38107
L63478 38069
L63497 38050
L63534 38032
L63609 38013
L63703 38013
L63778 38032
L63815 38050
L63834 38069
L63853 38107
L63853 38144
L63834 38182
L63815 38200
L63778 38219
L63703 38238
L63609 38238
L63534 38219
L63497 38200
L63478 38182
L63459 38144
" />
<path d="M63853 37638
L63853 37863
" />
<path d="M63853 37750
L63459 37750
L63515 37788
L63553 37825
L63572 37863
" />
<path d="M63703 37469
L63703 37169
" />
<path d="M63459 37019
L63459 36776
L63609 36907
L63609 36851
L63628 36813
L63647 36794
L63684 36776
L63778 36776
L63815 36794
L63834 36813
L63853 36851
L63853 36963
L63834 37001
L63815 37019
" />
<path d="M63815 36607
L63834 36588
L63853 36607
L63834 36626
L63815 36607
L63853 36607
" />
<path d="M63459 36457
L63459 36213
L63609 36344
L63609 36288
L63628 36251
L63647 36232
L63684 36213
L63778 36213
L63815 36232
L63834 36251
L63853 36288
L63853 36401
L63834 36438
L63815 36457
" />
<path d="M63853 36044
L63459 36044
L63853 35819
L63459 35819
" />
<path d="M64075 31425
L63943 31237
" />
<path d="M63850 31425
L63850 31031
L64000 31031
L64037 31050
L64056 31068
L64075 31106
L64075 31162
L64056 31200
L64037 31218
L64000 31237
L63850 31237
" />
<path d="M64150 31462
L64450 31462
" />
<path d="M64543 31425
L64543 31031
L64693 31031
L64731 31050
L64750 31068
L64768 31106
L64768 31162
L64750 31200
L64731 31218
L64693 31237
L64543 31237
" />
<path d="M64918 31312
L65106 31312
" />
<path d="M64881 31425
L65012 31031
L65143 31425
" />
<path d="M65499 31387
L65481 31406
L65424 31425
L65387 31425
L65331 31406
L65293 31368
L65274 31331
L65256 31256
L65256 31200
L65274 31125
L65293 31087
L65331 31050
L65387 31031
L65424 31031
L65481 31050
L65499 31068
" />
<path d="M65668 31425
L65668 31031
" />
<path d="M65893 31425
L65724 31200
" />
<path d="M65893 31031
L65668 31256
" />
<path d="M66231 31162
L66231 31425
" />
<path d="M66137 31012
L66043 31293
L66287 31293
" />
</g> 
</svg>
