M48
;DRILL file {KiCad 4.0.2+dfsg1-stable} date 2016年08月05日 19時43分17秒
;FORMAT={-:-/ absolute / inch / decimal}
FMAT,2
INCH,TZ
T1C0.016
T2C0.023
T3C0.024
T4C0.026
T5C0.028
T6C0.031
T7C0.032
T8C0.032
T9C0.035
T10C0.039
T11C0.039
T12C0.040
T13C0.045
T14C0.047
T15C0.060
T16C0.079
T17C0.126
T18C0.157
%
G90
G05
M72
T1
X5.474Y-4.785
X5.647Y-4.552
X5.775Y-4.625
X5.786Y-3.846
X5.8359Y-4.6193
X5.895Y-4.6193
X5.935Y-4.045
X5.9541Y-4.6193
X6.02Y-3.965
X6.03Y-4.57
X6.037Y-3.661
X6.0564Y-4.5354
X6.0722Y-3.9107
X6.0848Y-4.5591
X6.1716Y-4.5956
X6.1854Y-4.0446
X6.195Y-5.095
X6.26Y-4.62
X6.3443Y-3.759
X6.3443Y-3.9222
X6.349Y-4.526
X6.3927Y-4.6621
X6.4955Y-4.4105
X6.5875Y-5.39
X6.615Y-4.6392
X6.766Y-3.8794
X6.8461Y-4.479
X6.878Y-3.616
X6.878Y-4.526
X6.986Y-4.082
X7.0043Y-3.9852
X7.0158Y-3.609
X7.186Y-3.794
X7.672Y-3.9
X8.565Y-2.55
T2
X7.37Y-3.59
X7.47Y-3.59
T3
X6.13Y-4.89
X6.13Y-4.99
X6.47Y-4.89
X6.47Y-4.99
X6.52Y-3.69
X6.595Y-3.69
X6.67Y-3.69
X6.745Y-3.69
X7.27Y-3.94
X7.27Y-4.04
X7.27Y-4.14
X7.27Y-4.24
X7.27Y-4.34
X7.27Y-4.44
X7.27Y-4.54
X7.27Y-4.64
X7.27Y-4.74
X7.37Y-3.94
X7.37Y-4.04
X7.37Y-4.14
X7.37Y-4.24
X7.37Y-4.34
X7.37Y-4.44
X7.37Y-4.54
X7.37Y-4.64
X7.37Y-4.74
X7.47Y-3.94
X7.47Y-4.04
X7.47Y-4.14
X7.47Y-4.24
X7.47Y-4.34
X7.47Y-4.44
X7.47Y-4.54
X7.47Y-4.64
X7.47Y-4.74
X7.77Y-3.94
X7.77Y-4.04
X7.77Y-4.14
X7.77Y-4.24
X7.77Y-4.34
X7.77Y-4.44
X7.77Y-4.54
X7.77Y-4.64
X7.77Y-4.74
T4
X5.42Y-4.74
X5.52Y-4.74
X5.62Y-4.74
T5
X6.095Y-3.615
X6.095Y-3.715
X6.095Y-3.815
X6.545Y-3.88
X6.645Y-3.88
X6.745Y-3.88
X6.845Y-3.88
X6.945Y-3.88
X7.07Y-3.94
X7.07Y-4.04
X7.07Y-4.14
X7.07Y-4.24
X7.07Y-4.34
X7.07Y-4.44
X7.07Y-4.54
X7.07Y-4.64
X7.07Y-4.74
X7.17Y-3.94
X7.17Y-4.04
X7.17Y-4.14
X7.17Y-4.24
X7.17Y-4.34
X7.17Y-4.44
X7.17Y-4.54
X7.17Y-4.64
X7.17Y-4.74
X7.27Y-3.69
X7.27Y-3.79
X7.37Y-3.69
X7.37Y-3.79
X7.47Y-3.69
X7.47Y-3.79
X7.57Y-3.94
X7.57Y-4.04
X7.57Y-4.14
X7.57Y-4.24
X7.57Y-4.34
X7.57Y-4.44
X7.57Y-4.54
X7.57Y-4.64
X7.57Y-4.74
T6
X6.1966Y-5.34
X6.27Y-4.49
X6.295Y-5.34
X6.595Y-4.99
X6.6934Y-4.99
X6.85Y-5.
X6.9484Y-5.
T7
X6.27Y-4.3916
T8
X6.245Y-3.615
X6.245Y-3.915
X6.245Y-3.99
X6.245Y-4.29
X6.445Y-3.615
X6.445Y-3.915
X6.445Y-3.99
X6.445Y-4.29
X7.095Y-4.94
X7.195Y-4.94
X8.19Y-2.45
X8.19Y-2.75
X8.49Y-1.725
X8.49Y-2.125
T9
X8.695Y-2.1
X8.695Y-2.185
X8.695Y-2.27
X8.695Y-2.355
X8.695Y-3.
X8.695Y-3.085
X8.695Y-3.17
X8.695Y-3.255
X8.795Y-2.145
X8.795Y-2.23
X8.795Y-2.315
X8.795Y-2.4
X8.795Y-3.045
X8.795Y-3.13
X8.795Y-3.215
X8.795Y-3.3
T10
X5.6355Y-4.6269
X5.7988Y-4.7312
X5.877Y-4.3795
X6.56Y-4.15
X6.582Y-4.316
X6.6625Y-4.7862
X6.749Y-4.336
X6.7949Y-4.1412
X7.645Y-1.655
X7.645Y-3.225
X8.335Y-1.655
X8.335Y-3.225
T11
X6.4976Y-5.2149
X6.5976Y-5.2149
X6.6776Y-5.2149
X6.7776Y-5.2149
X8.8405Y-1.7695
X8.9405Y-1.7695
T12
X6.0231Y-1.4313
X6.0231Y-1.5313
X6.044Y-5.252
X6.044Y-5.352
X6.1231Y-1.4313
X6.1231Y-1.5313
X6.2231Y-1.4313
X6.2231Y-1.5313
X6.3231Y-1.4313
X6.3231Y-1.5313
X6.4231Y-1.4313
X6.4231Y-1.5313
X6.5231Y-1.4313
X6.5231Y-1.5313
X6.6231Y-1.4313
X6.6231Y-1.5313
X6.7231Y-1.4313
X6.7231Y-1.5313
X6.8231Y-1.4313
X6.8231Y-1.5313
X6.9231Y-1.4313
X6.9231Y-1.5313
X7.0231Y-1.4313
X7.0231Y-1.5313
X7.1231Y-1.4313
X7.1231Y-1.5313
X7.2231Y-1.4313
X7.2231Y-1.5313
X7.3231Y-1.4313
X7.3231Y-1.5313
X7.4231Y-1.4313
X7.4231Y-1.5313
X7.5231Y-1.4313
X7.5231Y-1.5313
X7.6231Y-1.4313
X7.6231Y-1.5313
X7.7231Y-1.4313
X7.7231Y-1.5313
X7.8231Y-1.4313
X7.8231Y-1.5313
X7.9231Y-1.4313
X7.9231Y-1.5313
T13
X6.582Y-4.416
X6.582Y-4.516
T14
X6.92Y-4.0673
X6.92Y-4.1575
X6.92Y-4.2477
T15
X7.445Y-5.04
X7.445Y-5.19
X7.595Y-5.04
X8.54Y-1.5
X8.74Y-1.5
T16
X7.715Y-2.5
X7.715Y-2.7
X7.915Y-2.5
X7.915Y-2.7
T17
X7.345Y-4.94
X7.345Y-5.265
X7.645Y-4.94
T18
X5.9265Y-4.2217
T3
X5.5231Y-4.8508G85X5.5586Y-4.8508
G05
X5.5231Y-5.0792G85X5.5586Y-5.0792
G05
T5
X5.6472Y-4.8508G85X5.6787Y-4.8508
G05
X5.7731Y-4.8508G85X5.8046Y-4.8508
G05
X5.907Y-4.8508G85X5.9385Y-4.8508
G05
X5.907Y-5.0792G85X5.9385Y-5.0792
G05
T8
X6.056Y-3.335G85X6.056Y-3.421
G05
T10
X6.3833Y-5.2359G85X6.3833Y-5.2752
G05
X6.8873Y-5.2359G85X6.8873Y-5.2752
G05
X8.445Y-4.5634G85X8.445Y-4.5634
G05
X8.445Y-5.7634G85X8.445Y-5.7634
G05
T11
X6.2942Y-3.25G85X6.1958Y-3.25
G05
X6.2962Y-3.4961G85X6.1978Y-3.4961
G05
T0
M30
