G04 #@! TF.FileFunction,Legend,Top*
%FSLAX46Y46*%
G04 Gerber Fmt 4.6, Leading zero omitted, Abs format (unit mm)*
G04 Created by KiCad (PCBNEW 4.0.2+dfsg1-stable) date 2016年08月05日 19時43分15秒*
%MOMM*%
G01*
G04 APERTURE LIST*
%ADD10C,0.100000*%
%ADD11C,0.200000*%
%ADD12C,0.250000*%
%ADD13C,0.150000*%
%ADD14C,0.175000*%
%ADD15C,0.500000*%
%ADD16C,0.125000*%
%ADD17C,2.000000*%
%ADD18C,0.300000*%
%ADD19C,0.170000*%
%ADD20C,0.381000*%
%ADD21C,0.304800*%
G04 APERTURE END LIST*
D10*
D11*
X229743000Y-90170000D02*
X144653000Y-90170000D01*
X229743000Y-151130000D02*
X199263000Y-151130000D01*
X229743000Y-149860000D02*
X229743000Y-151130000D01*
X229743000Y-120650000D02*
X229743000Y-149860000D01*
X229743000Y-90170000D02*
X199263000Y-90170000D01*
X229743000Y-120650000D02*
X229743000Y-90170000D01*
X199263000Y-120650000D02*
X229743000Y-120650000D01*
X199263000Y-90170000D02*
X199263000Y-137795000D01*
D12*
X135579763Y-125594524D02*
X135579763Y-124832619D01*
X135532144Y-124832619D02*
X135532144Y-125594524D01*
X135484525Y-125594524D02*
X135484525Y-124832619D01*
X135436906Y-124832619D02*
X135436906Y-125594524D01*
X135389287Y-125594524D02*
X135389287Y-124832619D01*
X135341667Y-124832619D02*
X135341667Y-125594524D01*
X135294048Y-125594524D02*
X135294048Y-124832619D01*
X135246429Y-124832619D02*
X135246429Y-125594524D01*
X135198810Y-125594524D02*
X135198810Y-124832619D01*
X135151191Y-124832619D02*
X135151191Y-125594524D01*
X135103572Y-125594524D02*
X135103572Y-124832619D01*
X135055953Y-124832619D02*
X135055953Y-125594524D01*
X135008334Y-125594524D02*
X135008334Y-124832619D01*
X134960715Y-124832619D02*
X134960715Y-125594524D01*
X134913096Y-125594524D02*
X134913096Y-124832619D01*
X135627382Y-125594524D02*
X134865477Y-125594524D01*
X134865477Y-124832619D01*
X135627382Y-124832619D01*
X135627382Y-125594524D01*
X134389287Y-124832619D02*
X134389287Y-125832619D01*
X134008334Y-125832619D01*
X133913096Y-125785000D01*
X133865477Y-125737381D01*
X133817858Y-125642143D01*
X133817858Y-125499286D01*
X133865477Y-125404048D01*
X133913096Y-125356429D01*
X134008334Y-125308810D01*
X134389287Y-125308810D01*
X133246430Y-124832619D02*
X133341668Y-124880238D01*
X133389287Y-124927857D01*
X133436906Y-125023095D01*
X133436906Y-125308810D01*
X133389287Y-125404048D01*
X133341668Y-125451667D01*
X133246430Y-125499286D01*
X133103572Y-125499286D01*
X133008334Y-125451667D01*
X132960715Y-125404048D01*
X132913096Y-125308810D01*
X132913096Y-125023095D01*
X132960715Y-124927857D01*
X133008334Y-124880238D01*
X133103572Y-124832619D01*
X133246430Y-124832619D01*
X132579763Y-125499286D02*
X132389287Y-124832619D01*
X132198810Y-125308810D01*
X132008334Y-124832619D01*
X131817858Y-125499286D01*
X131055953Y-124880238D02*
X131151191Y-124832619D01*
X131341668Y-124832619D01*
X131436906Y-124880238D01*
X131484525Y-124975476D01*
X131484525Y-125356429D01*
X131436906Y-125451667D01*
X131341668Y-125499286D01*
X131151191Y-125499286D01*
X131055953Y-125451667D01*
X131008334Y-125356429D01*
X131008334Y-125261190D01*
X131484525Y-125165952D01*
X130579763Y-124832619D02*
X130579763Y-125499286D01*
X130579763Y-125308810D02*
X130532144Y-125404048D01*
X130484525Y-125451667D01*
X130389287Y-125499286D01*
X130294048Y-125499286D01*
X129341667Y-125499286D02*
X128960715Y-125499286D01*
X129198810Y-125832619D02*
X129198810Y-124975476D01*
X129151191Y-124880238D01*
X129055953Y-124832619D01*
X128960715Y-124832619D01*
X128484524Y-124832619D02*
X128579762Y-124880238D01*
X128627381Y-124927857D01*
X128675000Y-125023095D01*
X128675000Y-125308810D01*
X128627381Y-125404048D01*
X128579762Y-125451667D01*
X128484524Y-125499286D01*
X128341666Y-125499286D01*
X128246428Y-125451667D01*
X128198809Y-125404048D01*
X128151190Y-125308810D01*
X128151190Y-125023095D01*
X128198809Y-124927857D01*
X128246428Y-124880238D01*
X128341666Y-124832619D01*
X128484524Y-124832619D01*
X126484523Y-124832619D02*
X126960714Y-124832619D01*
X126960714Y-125832619D01*
X126198809Y-125118333D02*
X125722618Y-125118333D01*
X126294047Y-124832619D02*
X125960714Y-125832619D01*
X125627380Y-124832619D01*
X125294047Y-124832619D02*
X125294047Y-125832619D01*
X124722618Y-124832619D01*
X124722618Y-125832619D01*
X135579763Y-123944524D02*
X135579763Y-123182619D01*
X135532144Y-123182619D02*
X135532144Y-123944524D01*
X135484525Y-123944524D02*
X135484525Y-123182619D01*
X135436906Y-123182619D02*
X135436906Y-123944524D01*
X135389287Y-123944524D02*
X135389287Y-123182619D01*
X135341667Y-123182619D02*
X135341667Y-123944524D01*
X135294048Y-123944524D02*
X135294048Y-123182619D01*
X135246429Y-123182619D02*
X135246429Y-123944524D01*
X135198810Y-123944524D02*
X135198810Y-123182619D01*
X135151191Y-123182619D02*
X135151191Y-123944524D01*
X135103572Y-123944524D02*
X135103572Y-123182619D01*
X135055953Y-123182619D02*
X135055953Y-123944524D01*
X135008334Y-123944524D02*
X135008334Y-123182619D01*
X134960715Y-123182619D02*
X134960715Y-123944524D01*
X134913096Y-123944524D02*
X134913096Y-123182619D01*
X135627382Y-123944524D02*
X134865477Y-123944524D01*
X134865477Y-123182619D01*
X135627382Y-123182619D01*
X135627382Y-123944524D01*
X133913096Y-123182619D02*
X134389287Y-123182619D01*
X134389287Y-124182619D01*
X133627382Y-123468333D02*
X133151191Y-123468333D01*
X133722620Y-123182619D02*
X133389287Y-124182619D01*
X133055953Y-123182619D01*
X132722620Y-123182619D02*
X132722620Y-124182619D01*
X132151191Y-123182619D01*
X132151191Y-124182619D01*
X131055953Y-123849286D02*
X130675001Y-123849286D01*
X130913096Y-124182619D02*
X130913096Y-123325476D01*
X130865477Y-123230238D01*
X130770239Y-123182619D01*
X130675001Y-123182619D01*
X130198810Y-123182619D02*
X130294048Y-123230238D01*
X130341667Y-123277857D01*
X130389286Y-123373095D01*
X130389286Y-123658810D01*
X130341667Y-123754048D01*
X130294048Y-123801667D01*
X130198810Y-123849286D01*
X130055952Y-123849286D01*
X129960714Y-123801667D01*
X129913095Y-123754048D01*
X129865476Y-123658810D01*
X129865476Y-123373095D01*
X129913095Y-123277857D01*
X129960714Y-123230238D01*
X130055952Y-123182619D01*
X130198810Y-123182619D01*
X128675000Y-123182619D02*
X128675000Y-124182619D01*
X128294047Y-124182619D01*
X128198809Y-124135000D01*
X128151190Y-124087381D01*
X128103571Y-123992143D01*
X128103571Y-123849286D01*
X128151190Y-123754048D01*
X128198809Y-123706429D01*
X128294047Y-123658810D01*
X128675000Y-123658810D01*
X127532143Y-123182619D02*
X127627381Y-123230238D01*
X127675000Y-123277857D01*
X127722619Y-123373095D01*
X127722619Y-123658810D01*
X127675000Y-123754048D01*
X127627381Y-123801667D01*
X127532143Y-123849286D01*
X127389285Y-123849286D01*
X127294047Y-123801667D01*
X127246428Y-123754048D01*
X127198809Y-123658810D01*
X127198809Y-123373095D01*
X127246428Y-123277857D01*
X127294047Y-123230238D01*
X127389285Y-123182619D01*
X127532143Y-123182619D01*
X126865476Y-123849286D02*
X126675000Y-123182619D01*
X126484523Y-123658810D01*
X126294047Y-123182619D01*
X126103571Y-123849286D01*
X125341666Y-123230238D02*
X125436904Y-123182619D01*
X125627381Y-123182619D01*
X125722619Y-123230238D01*
X125770238Y-123325476D01*
X125770238Y-123706429D01*
X125722619Y-123801667D01*
X125627381Y-123849286D01*
X125436904Y-123849286D01*
X125341666Y-123801667D01*
X125294047Y-123706429D01*
X125294047Y-123611190D01*
X125770238Y-123515952D01*
X124865476Y-123182619D02*
X124865476Y-123849286D01*
X124865476Y-123658810D02*
X124817857Y-123754048D01*
X124770238Y-123801667D01*
X124675000Y-123849286D01*
X124579761Y-123849286D01*
D11*
X189568200Y-135889904D02*
X189520581Y-135985142D01*
X189520581Y-136127999D01*
X189568200Y-136270857D01*
X189663438Y-136366095D01*
X189758676Y-136413714D01*
X189949152Y-136461333D01*
X190092010Y-136461333D01*
X190282486Y-136413714D01*
X190377724Y-136366095D01*
X190472962Y-136270857D01*
X190520581Y-136127999D01*
X190520581Y-136032761D01*
X190472962Y-135889904D01*
X190425343Y-135842285D01*
X190092010Y-135842285D01*
X190092010Y-136032761D01*
X190520581Y-135413714D02*
X189520581Y-135413714D01*
X190520581Y-134842285D01*
X189520581Y-134842285D01*
X190520581Y-134366095D02*
X189520581Y-134366095D01*
X189520581Y-134128000D01*
X189568200Y-133985142D01*
X189663438Y-133889904D01*
X189758676Y-133842285D01*
X189949152Y-133794666D01*
X190092010Y-133794666D01*
X190282486Y-133842285D01*
X190377724Y-133889904D01*
X190472962Y-133985142D01*
X190520581Y-134128000D01*
X190520581Y-134366095D01*
D13*
X196105429Y-120535145D02*
X196105429Y-121020859D01*
X195505429Y-121020859D01*
X195762571Y-120049431D02*
X195734000Y-120146573D01*
X195705429Y-120195145D01*
X195648286Y-120243716D01*
X195619714Y-120243716D01*
X195562571Y-120195145D01*
X195534000Y-120146573D01*
X195505429Y-120049431D01*
X195505429Y-119855145D01*
X195534000Y-119758002D01*
X195562571Y-119709431D01*
X195619714Y-119660859D01*
X195648286Y-119660859D01*
X195705429Y-119709431D01*
X195734000Y-119758002D01*
X195762571Y-119855145D01*
X195762571Y-120049431D01*
X195791143Y-120146573D01*
X195819714Y-120195145D01*
X195876857Y-120243716D01*
X195991143Y-120243716D01*
X196048286Y-120195145D01*
X196076857Y-120146573D01*
X196105429Y-120049431D01*
X196105429Y-119855145D01*
X196076857Y-119758002D01*
X196048286Y-119709431D01*
X195991143Y-119660859D01*
X195876857Y-119660859D01*
X195819714Y-119709431D01*
X195791143Y-119758002D01*
X195762571Y-119855145D01*
X196105429Y-117960859D02*
X196105429Y-118446573D01*
X195505429Y-118446573D01*
X195505429Y-117718002D02*
X195505429Y-117038002D01*
X196105429Y-117475145D01*
X196105429Y-115386573D02*
X196105429Y-115872287D01*
X195505429Y-115872287D01*
X195505429Y-114609430D02*
X195505429Y-114803716D01*
X195534000Y-114900859D01*
X195562571Y-114949430D01*
X195648286Y-115046573D01*
X195762571Y-115095144D01*
X195991143Y-115095144D01*
X196048286Y-115046573D01*
X196076857Y-114998001D01*
X196105429Y-114900859D01*
X196105429Y-114706573D01*
X196076857Y-114609430D01*
X196048286Y-114560859D01*
X195991143Y-114512287D01*
X195848286Y-114512287D01*
X195791143Y-114560859D01*
X195762571Y-114609430D01*
X195734000Y-114706573D01*
X195734000Y-114900859D01*
X195762571Y-114998001D01*
X195791143Y-115046573D01*
X195848286Y-115095144D01*
X196105429Y-113152287D02*
X196076857Y-113249429D01*
X196019714Y-113298001D01*
X195505429Y-113298001D01*
X195505429Y-112278001D02*
X195505429Y-112763715D01*
X195791143Y-112812286D01*
X195762571Y-112763715D01*
X195734000Y-112666572D01*
X195734000Y-112423715D01*
X195762571Y-112326572D01*
X195791143Y-112278001D01*
X195848286Y-112229429D01*
X195991143Y-112229429D01*
X196048286Y-112278001D01*
X196076857Y-112326572D01*
X196105429Y-112423715D01*
X196105429Y-112666572D01*
X196076857Y-112763715D01*
X196048286Y-112812286D01*
X196105429Y-110529429D02*
X196105429Y-111015143D01*
X195505429Y-111015143D01*
X195705429Y-109752286D02*
X196105429Y-109752286D01*
X195476857Y-109995143D02*
X195905429Y-110238000D01*
X195905429Y-109606572D01*
X196105429Y-107955143D02*
X196105429Y-108440857D01*
X195505429Y-108440857D01*
X195505429Y-107712286D02*
X195505429Y-107080857D01*
X195734000Y-107420857D01*
X195734000Y-107275143D01*
X195762571Y-107178000D01*
X195791143Y-107129429D01*
X195848286Y-107080857D01*
X195991143Y-107080857D01*
X196048286Y-107129429D01*
X196076857Y-107178000D01*
X196105429Y-107275143D01*
X196105429Y-107566571D01*
X196076857Y-107663714D01*
X196048286Y-107712286D01*
X196105429Y-105380857D02*
X196105429Y-105866571D01*
X195505429Y-105866571D01*
X195562571Y-105089428D02*
X195534000Y-105040857D01*
X195505429Y-104943714D01*
X195505429Y-104700857D01*
X195534000Y-104603714D01*
X195562571Y-104555143D01*
X195619714Y-104506571D01*
X195676857Y-104506571D01*
X195762571Y-104555143D01*
X196105429Y-105138000D01*
X196105429Y-104506571D01*
X196105429Y-102806571D02*
X196105429Y-103292285D01*
X195505429Y-103292285D01*
X196105429Y-101932285D02*
X196105429Y-102515142D01*
X196105429Y-102223714D02*
X195505429Y-102223714D01*
X195591143Y-102320857D01*
X195648286Y-102417999D01*
X195676857Y-102515142D01*
X196105429Y-100717999D02*
X195505429Y-100717999D01*
X195505429Y-100475142D01*
X195534000Y-100329427D01*
X195591143Y-100232285D01*
X195648286Y-100183713D01*
X195762571Y-100135142D01*
X195848286Y-100135142D01*
X195962571Y-100183713D01*
X196019714Y-100232285D01*
X196076857Y-100329427D01*
X196105429Y-100475142D01*
X196105429Y-100717999D01*
X195505429Y-99503713D02*
X195505429Y-99406570D01*
X195534000Y-99309427D01*
X195562571Y-99260856D01*
X195619714Y-99212285D01*
X195734000Y-99163713D01*
X195876857Y-99163713D01*
X195991143Y-99212285D01*
X196048286Y-99260856D01*
X196076857Y-99309427D01*
X196105429Y-99406570D01*
X196105429Y-99503713D01*
X196076857Y-99600856D01*
X196048286Y-99649427D01*
X195991143Y-99697999D01*
X195876857Y-99746570D01*
X195734000Y-99746570D01*
X195619714Y-99697999D01*
X195562571Y-99649427D01*
X195534000Y-99600856D01*
X195505429Y-99503713D01*
D14*
X183321133Y-97753967D02*
X183221133Y-97720633D01*
X183054466Y-97720633D01*
X182987799Y-97753967D01*
X182954466Y-97787300D01*
X182921133Y-97853967D01*
X182921133Y-97920633D01*
X182954466Y-97987300D01*
X182987799Y-98020633D01*
X183054466Y-98053967D01*
X183187799Y-98087300D01*
X183254466Y-98120633D01*
X183287799Y-98153967D01*
X183321133Y-98220633D01*
X183321133Y-98287300D01*
X183287799Y-98353967D01*
X183254466Y-98387300D01*
X183187799Y-98420633D01*
X183021133Y-98420633D01*
X182921133Y-98387300D01*
X182621132Y-98087300D02*
X182387799Y-98087300D01*
X182287799Y-97720633D02*
X182621132Y-97720633D01*
X182621132Y-98420633D01*
X182287799Y-98420633D01*
X181587799Y-97720633D02*
X181821133Y-98053967D01*
X181987799Y-97720633D02*
X181987799Y-98420633D01*
X181721133Y-98420633D01*
X181654466Y-98387300D01*
X181621133Y-98353967D01*
X181587799Y-98287300D01*
X181587799Y-98187300D01*
X181621133Y-98120633D01*
X181654466Y-98087300D01*
X181721133Y-98053967D01*
X181987799Y-98053967D01*
X181387799Y-98420633D02*
X181154466Y-97720633D01*
X180921133Y-98420633D01*
X180554466Y-98420633D02*
X180421133Y-98420633D01*
X180354466Y-98387300D01*
X180287799Y-98320633D01*
X180254466Y-98187300D01*
X180254466Y-97953967D01*
X180287799Y-97820633D01*
X180354466Y-97753967D01*
X180421133Y-97720633D01*
X180554466Y-97720633D01*
X180621133Y-97753967D01*
X180687799Y-97820633D01*
X180721133Y-97953967D01*
X180721133Y-98187300D01*
X180687799Y-98320633D01*
X180621133Y-98387300D01*
X180554466Y-98420633D01*
X183071132Y-96565633D02*
X183071132Y-97098967D01*
X183104466Y-96598967D02*
X183104466Y-97065633D01*
X183137799Y-96598967D02*
X183137799Y-97065633D01*
X183171132Y-96632300D02*
X183171132Y-97032300D01*
X183204466Y-96632300D02*
X183204466Y-97032300D01*
X183237799Y-96665633D02*
X183237799Y-96998967D01*
X183271132Y-96665633D02*
X183271132Y-96998967D01*
X183304466Y-96698967D02*
X183304466Y-96965633D01*
X183337799Y-96732300D02*
X183337799Y-96932300D01*
X183371132Y-96732300D02*
X183371132Y-96932300D01*
X183404466Y-96765633D02*
X183404466Y-96898967D01*
X183437799Y-96765633D02*
X183437799Y-96898967D01*
X183471132Y-96832300D02*
X183504466Y-96832300D01*
X183471132Y-96798967D02*
X183471132Y-96865633D01*
X183037799Y-96565633D02*
X183537799Y-96832300D01*
X183037799Y-97098967D01*
X183571132Y-96832300D02*
X183037799Y-97132300D01*
X183037799Y-96532300D01*
X183571132Y-96832300D01*
X182204465Y-97298967D02*
X182804465Y-96398967D01*
X181971132Y-96565633D02*
X181971132Y-97265633D01*
X181804466Y-97265633D01*
X181704466Y-97232300D01*
X181637799Y-97165633D01*
X181604466Y-97098967D01*
X181571132Y-96965633D01*
X181571132Y-96865633D01*
X181604466Y-96732300D01*
X181637799Y-96665633D01*
X181704466Y-96598967D01*
X181804466Y-96565633D01*
X181971132Y-96565633D01*
X181271132Y-96565633D02*
X181271132Y-97265633D01*
X180937799Y-96565633D02*
X180937799Y-97265633D01*
X180537799Y-96565633D01*
X180537799Y-97265633D01*
X153224667Y-94084571D02*
X152524667Y-94084571D01*
X153024667Y-93784571D01*
X152524667Y-93484571D01*
X153224667Y-93484571D01*
X152524667Y-92884572D02*
X152524667Y-92713143D01*
X152558000Y-92627429D01*
X152624667Y-92541715D01*
X152758000Y-92498857D01*
X152991333Y-92498857D01*
X153124667Y-92541715D01*
X153191333Y-92627429D01*
X153224667Y-92713143D01*
X153224667Y-92884572D01*
X153191333Y-92970286D01*
X153124667Y-93056000D01*
X152991333Y-93098857D01*
X152758000Y-93098857D01*
X152624667Y-93056000D01*
X152558000Y-92970286D01*
X152524667Y-92884572D01*
X153224667Y-92113143D02*
X152524667Y-92113143D01*
X152524667Y-91898858D01*
X152558000Y-91770286D01*
X152624667Y-91684572D01*
X152691333Y-91641715D01*
X152824667Y-91598858D01*
X152924667Y-91598858D01*
X153058000Y-91641715D01*
X153124667Y-91684572D01*
X153191333Y-91770286D01*
X153224667Y-91898858D01*
X153224667Y-92113143D01*
X152858000Y-91213143D02*
X152858000Y-90913143D01*
X153224667Y-90784572D02*
X153224667Y-91213143D01*
X152524667Y-91213143D01*
X152524667Y-90784572D01*
D11*
X182860933Y-96024437D02*
X182860933Y-95643485D01*
X183089505Y-96100628D02*
X182289505Y-95833961D01*
X183089505Y-95567294D01*
X183089505Y-95300628D02*
X182289505Y-95300628D01*
X183089505Y-94843485D01*
X182289505Y-94843485D01*
X182860933Y-94500628D02*
X182860933Y-94119676D01*
X183089505Y-94576819D02*
X182289505Y-94310152D01*
X183089505Y-94043485D01*
X183089505Y-93395866D02*
X183089505Y-93776819D01*
X182289505Y-93776819D01*
X182289505Y-92976819D02*
X182289505Y-92824438D01*
X182327600Y-92748247D01*
X182403790Y-92672057D01*
X182556171Y-92633962D01*
X182822838Y-92633962D01*
X182975219Y-92672057D01*
X183051410Y-92748247D01*
X183089505Y-92824438D01*
X183089505Y-92976819D01*
X183051410Y-93053009D01*
X182975219Y-93129200D01*
X182822838Y-93167295D01*
X182556171Y-93167295D01*
X182403790Y-93129200D01*
X182327600Y-93053009D01*
X182289505Y-92976819D01*
X182327600Y-91872057D02*
X182289505Y-91948248D01*
X182289505Y-92062533D01*
X182327600Y-92176819D01*
X182403790Y-92253010D01*
X182479981Y-92291105D01*
X182632362Y-92329200D01*
X182746648Y-92329200D01*
X182899029Y-92291105D01*
X182975219Y-92253010D01*
X183051410Y-92176819D01*
X183089505Y-92062533D01*
X183089505Y-91986343D01*
X183051410Y-91872057D01*
X183013314Y-91833962D01*
X182746648Y-91833962D01*
X182746648Y-91986343D01*
D13*
X184027656Y-98223429D02*
X184399085Y-98223429D01*
X184199085Y-98452000D01*
X184284799Y-98452000D01*
X184341942Y-98480571D01*
X184370513Y-98509143D01*
X184399085Y-98566286D01*
X184399085Y-98709143D01*
X184370513Y-98766286D01*
X184341942Y-98794857D01*
X184284799Y-98823429D01*
X184113371Y-98823429D01*
X184056228Y-98794857D01*
X184027656Y-98766286D01*
X184570514Y-98223429D02*
X184770514Y-98823429D01*
X184970514Y-98223429D01*
X185113371Y-98223429D02*
X185484800Y-98223429D01*
X185284800Y-98452000D01*
X185370514Y-98452000D01*
X185427657Y-98480571D01*
X185456228Y-98509143D01*
X185484800Y-98566286D01*
X185484800Y-98709143D01*
X185456228Y-98766286D01*
X185427657Y-98794857D01*
X185370514Y-98823429D01*
X185199086Y-98823429D01*
X185141943Y-98794857D01*
X185113371Y-98766286D01*
X186513372Y-98252000D02*
X186456229Y-98223429D01*
X186370515Y-98223429D01*
X186284800Y-98252000D01*
X186227658Y-98309143D01*
X186199086Y-98366286D01*
X186170515Y-98480571D01*
X186170515Y-98566286D01*
X186199086Y-98680571D01*
X186227658Y-98737714D01*
X186284800Y-98794857D01*
X186370515Y-98823429D01*
X186427658Y-98823429D01*
X186513372Y-98794857D01*
X186541943Y-98766286D01*
X186541943Y-98566286D01*
X186427658Y-98566286D01*
X186799086Y-98823429D02*
X186799086Y-98223429D01*
X187141943Y-98823429D01*
X187141943Y-98223429D01*
X187427657Y-98823429D02*
X187427657Y-98223429D01*
X187570514Y-98223429D01*
X187656229Y-98252000D01*
X187713371Y-98309143D01*
X187741943Y-98366286D01*
X187770514Y-98480571D01*
X187770514Y-98566286D01*
X187741943Y-98680571D01*
X187713371Y-98737714D01*
X187656229Y-98794857D01*
X187570514Y-98823429D01*
X187427657Y-98823429D01*
D10*
X194444647Y-121823981D02*
X194444647Y-121847790D01*
X194468456Y-121776362D02*
X194468456Y-121847790D01*
X194492266Y-121728743D02*
X194492266Y-121847790D01*
X194516075Y-121681124D02*
X194516075Y-121847790D01*
X194539885Y-121657314D02*
X194539885Y-121847790D01*
X194563694Y-121609695D02*
X194563694Y-121847790D01*
X194587504Y-121562076D02*
X194587504Y-121847790D01*
X194611313Y-121514457D02*
X194611313Y-121847790D01*
X194635123Y-121466838D02*
X194635123Y-121847790D01*
X194658932Y-121514457D02*
X194658932Y-121847790D01*
X194682742Y-121562076D02*
X194682742Y-121847790D01*
X194706551Y-121609695D02*
X194706551Y-121847790D01*
X194730361Y-121657314D02*
X194730361Y-121847790D01*
X194754170Y-121681124D02*
X194754170Y-121847790D01*
X194777980Y-121728743D02*
X194777980Y-121847790D01*
X194801789Y-121776362D02*
X194801789Y-121847790D01*
X194825599Y-121847790D02*
X194635123Y-121490648D01*
X194444647Y-121847790D01*
X194825599Y-121823981D02*
X194825599Y-121847790D01*
X194635123Y-121466838D02*
X194849409Y-121847790D01*
X194420837Y-121847790D01*
X194635123Y-121466838D01*
X195301790Y-121847790D02*
X195063695Y-121847790D01*
X195063695Y-121347790D01*
X195468457Y-121347790D02*
X195468457Y-121752552D01*
X195492266Y-121800171D01*
X195516076Y-121823981D01*
X195563695Y-121847790D01*
X195658933Y-121847790D01*
X195706552Y-121823981D01*
X195730361Y-121800171D01*
X195754171Y-121752552D01*
X195754171Y-121347790D01*
X195968457Y-121704933D02*
X196206552Y-121704933D01*
X195920838Y-121847790D02*
X196087505Y-121347790D01*
X196254171Y-121847790D01*
X196777980Y-121323981D02*
X196349409Y-121966838D01*
X193492266Y-122647790D02*
X193492266Y-122147790D01*
X193777980Y-122647790D01*
X193777980Y-122147790D01*
X194087504Y-122647790D02*
X194039885Y-122623981D01*
X194016076Y-122600171D01*
X193992266Y-122552552D01*
X193992266Y-122409695D01*
X194016076Y-122362076D01*
X194039885Y-122338267D01*
X194087504Y-122314457D01*
X194158933Y-122314457D01*
X194206552Y-122338267D01*
X194230361Y-122362076D01*
X194254171Y-122409695D01*
X194254171Y-122552552D01*
X194230361Y-122600171D01*
X194206552Y-122623981D01*
X194158933Y-122647790D01*
X194087504Y-122647790D01*
X194682742Y-122647790D02*
X194682742Y-122147790D01*
X194682742Y-122623981D02*
X194635123Y-122647790D01*
X194539885Y-122647790D01*
X194492266Y-122623981D01*
X194468457Y-122600171D01*
X194444647Y-122552552D01*
X194444647Y-122409695D01*
X194468457Y-122362076D01*
X194492266Y-122338267D01*
X194539885Y-122314457D01*
X194635123Y-122314457D01*
X194682742Y-122338267D01*
X195111314Y-122623981D02*
X195063695Y-122647790D01*
X194968457Y-122647790D01*
X194920838Y-122623981D01*
X194897028Y-122576362D01*
X194897028Y-122385886D01*
X194920838Y-122338267D01*
X194968457Y-122314457D01*
X195063695Y-122314457D01*
X195111314Y-122338267D01*
X195135123Y-122385886D01*
X195135123Y-122433505D01*
X194897028Y-122481124D01*
X195349409Y-122647790D02*
X195349409Y-122147790D01*
X195516075Y-122504933D01*
X195682742Y-122147790D01*
X195682742Y-122647790D01*
X196206552Y-122600171D02*
X196182742Y-122623981D01*
X196111314Y-122647790D01*
X196063695Y-122647790D01*
X195992266Y-122623981D01*
X195944647Y-122576362D01*
X195920838Y-122528743D01*
X195897028Y-122433505D01*
X195897028Y-122362076D01*
X195920838Y-122266838D01*
X195944647Y-122219219D01*
X195992266Y-122171600D01*
X196063695Y-122147790D01*
X196111314Y-122147790D01*
X196182742Y-122171600D01*
X196206552Y-122195410D01*
X196420838Y-122147790D02*
X196420838Y-122552552D01*
X196444647Y-122600171D01*
X196468457Y-122623981D01*
X196516076Y-122647790D01*
X196611314Y-122647790D01*
X196658933Y-122623981D01*
X196682742Y-122600171D01*
X196706552Y-122552552D01*
X196706552Y-122147790D01*
X197168286Y-98244000D02*
X197082572Y-98204000D01*
X196954001Y-98204000D01*
X196825429Y-98244000D01*
X196739715Y-98324000D01*
X196696858Y-98404000D01*
X196654001Y-98564000D01*
X196654001Y-98684000D01*
X196696858Y-98844000D01*
X196739715Y-98924000D01*
X196825429Y-99004000D01*
X196954001Y-99044000D01*
X197039715Y-99044000D01*
X197168286Y-99004000D01*
X197211143Y-98964000D01*
X197211143Y-98684000D01*
X197039715Y-98684000D01*
X197596858Y-99044000D02*
X197596858Y-98204000D01*
X197939715Y-98204000D01*
X198025429Y-98244000D01*
X198068286Y-98284000D01*
X198111143Y-98364000D01*
X198111143Y-98484000D01*
X198068286Y-98564000D01*
X198025429Y-98604000D01*
X197939715Y-98644000D01*
X197596858Y-98644000D01*
X198496858Y-99044000D02*
X198496858Y-98204000D01*
X199096857Y-98204000D02*
X199268286Y-98204000D01*
X199354000Y-98244000D01*
X199439714Y-98324000D01*
X199482572Y-98484000D01*
X199482572Y-98764000D01*
X199439714Y-98924000D01*
X199354000Y-99004000D01*
X199268286Y-99044000D01*
X199096857Y-99044000D01*
X199011143Y-99004000D01*
X198925429Y-98924000D01*
X198882572Y-98764000D01*
X198882572Y-98484000D01*
X198925429Y-98324000D01*
X199011143Y-98244000D01*
X199096857Y-98204000D01*
X199439714Y-99720000D02*
X199439714Y-99680000D01*
X199396857Y-99800000D02*
X199396857Y-99680000D01*
X199354000Y-99880000D02*
X199354000Y-99680000D01*
X199311143Y-99960000D02*
X199311143Y-99680000D01*
X199268285Y-100000000D02*
X199268285Y-99680000D01*
X199225428Y-100080000D02*
X199225428Y-99680000D01*
X199182571Y-100160000D02*
X199182571Y-99680000D01*
X199139714Y-100240000D02*
X199139714Y-99680000D01*
X199096857Y-100320000D02*
X199096857Y-99680000D01*
X199054000Y-100240000D02*
X199054000Y-99680000D01*
X199011143Y-100160000D02*
X199011143Y-99680000D01*
X198968285Y-100080000D02*
X198968285Y-99680000D01*
X198925428Y-100000000D02*
X198925428Y-99680000D01*
X198882571Y-99960000D02*
X198882571Y-99680000D01*
X198839714Y-99880000D02*
X198839714Y-99680000D01*
X198796857Y-99800000D02*
X198796857Y-99680000D01*
X198754000Y-99680000D02*
X199096857Y-100280000D01*
X199439714Y-99680000D01*
X198754000Y-99720000D02*
X198754000Y-99680000D01*
X199096857Y-100320000D02*
X198711143Y-99680000D01*
X199482571Y-99680000D01*
X199096857Y-100320000D01*
X198582571Y-101596000D02*
X198068286Y-101596000D01*
X198325428Y-101596000D02*
X198325428Y-100756000D01*
X198239714Y-100876000D01*
X198154000Y-100956000D01*
X198068286Y-100996000D01*
X199354000Y-100756000D02*
X199182571Y-100756000D01*
X199096857Y-100796000D01*
X199054000Y-100836000D01*
X198968286Y-100956000D01*
X198925429Y-101116000D01*
X198925429Y-101436000D01*
X198968286Y-101516000D01*
X199011143Y-101556000D01*
X199096857Y-101596000D01*
X199268286Y-101596000D01*
X199354000Y-101556000D01*
X199396857Y-101516000D01*
X199439714Y-101436000D01*
X199439714Y-101236000D01*
X199396857Y-101156000D01*
X199354000Y-101116000D01*
X199268286Y-101076000D01*
X199096857Y-101076000D01*
X199011143Y-101116000D01*
X198968286Y-101156000D01*
X198925429Y-101236000D01*
X198968286Y-103308000D02*
X198539715Y-103308000D01*
X198496858Y-103708000D01*
X198539715Y-103668000D01*
X198625429Y-103628000D01*
X198839715Y-103628000D01*
X198925429Y-103668000D01*
X198968286Y-103708000D01*
X199011143Y-103788000D01*
X199011143Y-103988000D01*
X198968286Y-104068000D01*
X198925429Y-104108000D01*
X198839715Y-104148000D01*
X198625429Y-104148000D01*
X198539715Y-104108000D01*
X198496858Y-104068000D01*
X198925429Y-106140000D02*
X198925429Y-106700000D01*
X198711143Y-105820000D02*
X198496858Y-106420000D01*
X199054000Y-106420000D01*
X198711143Y-108412000D02*
X198796858Y-108412000D01*
X198882572Y-108452000D01*
X198925429Y-108492000D01*
X198968286Y-108572000D01*
X199011143Y-108732000D01*
X199011143Y-108932000D01*
X198968286Y-109092000D01*
X198925429Y-109172000D01*
X198882572Y-109212000D01*
X198796858Y-109252000D01*
X198711143Y-109252000D01*
X198625429Y-109212000D01*
X198582572Y-109172000D01*
X198539715Y-109092000D01*
X198496858Y-108932000D01*
X198496858Y-108732000D01*
X198539715Y-108572000D01*
X198582572Y-108492000D01*
X198625429Y-108452000D01*
X198711143Y-108412000D01*
X198496858Y-111044000D02*
X198539715Y-111004000D01*
X198625429Y-110964000D01*
X198839715Y-110964000D01*
X198925429Y-111004000D01*
X198968286Y-111044000D01*
X199011143Y-111124000D01*
X199011143Y-111204000D01*
X198968286Y-111324000D01*
X198454000Y-111804000D01*
X199011143Y-111804000D01*
X198582571Y-114356000D02*
X198068286Y-114356000D01*
X198325428Y-114356000D02*
X198325428Y-113516000D01*
X198239714Y-113636000D01*
X198154000Y-113716000D01*
X198068286Y-113756000D01*
X199354000Y-113796000D02*
X199354000Y-114356000D01*
X199139714Y-113476000D02*
X198925429Y-114076000D01*
X199482571Y-114076000D01*
X198582571Y-116908000D02*
X198068286Y-116908000D01*
X198325428Y-116908000D02*
X198325428Y-116068000D01*
X198239714Y-116188000D01*
X198154000Y-116268000D01*
X198068286Y-116308000D01*
X198925429Y-116148000D02*
X198968286Y-116108000D01*
X199054000Y-116068000D01*
X199268286Y-116068000D01*
X199354000Y-116108000D01*
X199396857Y-116148000D01*
X199439714Y-116228000D01*
X199439714Y-116308000D01*
X199396857Y-116428000D01*
X198882571Y-116908000D01*
X199439714Y-116908000D01*
X198582571Y-119460000D02*
X198068286Y-119460000D01*
X198325428Y-119460000D02*
X198325428Y-118620000D01*
X198239714Y-118740000D01*
X198154000Y-118820000D01*
X198068286Y-118860000D01*
X198882571Y-118620000D02*
X199439714Y-118620000D01*
X199139714Y-118940000D01*
X199268286Y-118940000D01*
X199354000Y-118980000D01*
X199396857Y-119020000D01*
X199439714Y-119100000D01*
X199439714Y-119300000D01*
X199396857Y-119380000D01*
X199354000Y-119420000D01*
X199268286Y-119460000D01*
X199011143Y-119460000D01*
X198925429Y-119420000D01*
X198882571Y-119380000D01*
X198582571Y-122012000D02*
X198068286Y-122012000D01*
X198325428Y-122012000D02*
X198325428Y-121172000D01*
X198239714Y-121292000D01*
X198154000Y-121372000D01*
X198068286Y-121412000D01*
X199396857Y-121172000D02*
X198968286Y-121172000D01*
X198925429Y-121572000D01*
X198968286Y-121532000D01*
X199054000Y-121492000D01*
X199268286Y-121492000D01*
X199354000Y-121532000D01*
X199396857Y-121572000D01*
X199439714Y-121652000D01*
X199439714Y-121852000D01*
X199396857Y-121932000D01*
X199354000Y-121972000D01*
X199268286Y-122012000D01*
X199054000Y-122012000D01*
X198968286Y-121972000D01*
X198925429Y-121932000D01*
D15*
X167972000Y-119507000D02*
G75*
G03X167972000Y-119507000I-268000J0D01*
G01*
D10*
X194083857Y-118220857D02*
X194112429Y-118220857D01*
X194026714Y-118173238D02*
X194112429Y-118173238D01*
X193969571Y-118125619D02*
X194112429Y-118125619D01*
X193912429Y-118078000D02*
X194112429Y-118078000D01*
X193883857Y-118030381D02*
X194112429Y-118030381D01*
X193826714Y-117982762D02*
X194112429Y-117982762D01*
X193769571Y-117935142D02*
X194112429Y-117935142D01*
X193712429Y-117887523D02*
X194112429Y-117887523D01*
X193655286Y-117839904D02*
X194112429Y-117839904D01*
X193712429Y-117792285D02*
X194112429Y-117792285D01*
X193769571Y-117744666D02*
X194112429Y-117744666D01*
X193826714Y-117697047D02*
X194112429Y-117697047D01*
X193883857Y-117649428D02*
X194112429Y-117649428D01*
X193912429Y-117601809D02*
X194112429Y-117601809D01*
X193969571Y-117554190D02*
X194112429Y-117554190D01*
X194026714Y-117506571D02*
X194112429Y-117506571D01*
X194112429Y-117458952D02*
X193683857Y-117839904D01*
X194112429Y-118220857D01*
X194083857Y-117458952D02*
X194112429Y-117458952D01*
X193655286Y-117839904D02*
X194112429Y-117411333D01*
X194112429Y-118268476D01*
X193655286Y-117839904D01*
X194083857Y-113173237D02*
X194112429Y-113173237D01*
X194026714Y-113125618D02*
X194112429Y-113125618D01*
X193969571Y-113077999D02*
X194112429Y-113077999D01*
X193912429Y-113030380D02*
X194112429Y-113030380D01*
X193883857Y-112982761D02*
X194112429Y-112982761D01*
X193826714Y-112935142D02*
X194112429Y-112935142D01*
X193769571Y-112887522D02*
X194112429Y-112887522D01*
X193712429Y-112839903D02*
X194112429Y-112839903D01*
X193655286Y-112792284D02*
X194112429Y-112792284D01*
X193712429Y-112744665D02*
X194112429Y-112744665D01*
X193769571Y-112697046D02*
X194112429Y-112697046D01*
X193826714Y-112649427D02*
X194112429Y-112649427D01*
X193883857Y-112601808D02*
X194112429Y-112601808D01*
X193912429Y-112554189D02*
X194112429Y-112554189D01*
X193969571Y-112506570D02*
X194112429Y-112506570D01*
X194026714Y-112458951D02*
X194112429Y-112458951D01*
X194112429Y-112411332D02*
X193683857Y-112792284D01*
X194112429Y-113173237D01*
X194083857Y-112411332D02*
X194112429Y-112411332D01*
X193655286Y-112792284D02*
X194112429Y-112363713D01*
X194112429Y-113220856D01*
X193655286Y-112792284D01*
X194452429Y-119982761D02*
X194452429Y-119411332D01*
X195052429Y-119697047D02*
X194452429Y-119697047D01*
X195052429Y-119077999D02*
X194452429Y-119077999D01*
X195052429Y-118601809D02*
X194452429Y-118601809D01*
X194881000Y-118268475D01*
X194452429Y-117935142D01*
X195052429Y-117935142D01*
X194738143Y-117458952D02*
X194738143Y-117125618D01*
X195052429Y-116982761D02*
X195052429Y-117458952D01*
X194452429Y-117458952D01*
X194452429Y-116982761D01*
X195052429Y-115982761D02*
X194766714Y-116316095D01*
X195052429Y-116554190D02*
X194452429Y-116554190D01*
X194452429Y-116173237D01*
X194481000Y-116077999D01*
X194509571Y-116030380D01*
X194566714Y-115982761D01*
X194652429Y-115982761D01*
X194709571Y-116030380D01*
X194738143Y-116077999D01*
X194766714Y-116173237D01*
X194766714Y-116554190D01*
X194452429Y-114887523D02*
X195052429Y-114649428D01*
X194623857Y-114458951D01*
X195052429Y-114268475D01*
X194452429Y-114030380D01*
X195052429Y-113649428D02*
X194452429Y-113649428D01*
X194738143Y-112839904D02*
X194738143Y-113173238D01*
X195052429Y-113173238D02*
X194452429Y-113173238D01*
X194452429Y-112697047D01*
X195052429Y-112316095D02*
X194452429Y-112316095D01*
D16*
X177578238Y-91128857D02*
X177649667Y-91166952D01*
X177673476Y-91205048D01*
X177697286Y-91281238D01*
X177697286Y-91395524D01*
X177673476Y-91471714D01*
X177649667Y-91509810D01*
X177602048Y-91547905D01*
X177411572Y-91547905D01*
X177411572Y-90747905D01*
X177578238Y-90747905D01*
X177625857Y-90786000D01*
X177649667Y-90824095D01*
X177673476Y-90900286D01*
X177673476Y-90976476D01*
X177649667Y-91052667D01*
X177625857Y-91090762D01*
X177578238Y-91128857D01*
X177411572Y-91128857D01*
X178197286Y-91547905D02*
X178030619Y-91166952D01*
X177911572Y-91547905D02*
X177911572Y-90747905D01*
X178102048Y-90747905D01*
X178149667Y-90786000D01*
X178173476Y-90824095D01*
X178197286Y-90900286D01*
X178197286Y-91014571D01*
X178173476Y-91090762D01*
X178149667Y-91128857D01*
X178102048Y-91166952D01*
X177911572Y-91166952D01*
X178411572Y-91128857D02*
X178578238Y-91128857D01*
X178649667Y-91547905D02*
X178411572Y-91547905D01*
X178411572Y-90747905D01*
X178649667Y-90747905D01*
X178840143Y-91319333D02*
X179078238Y-91319333D01*
X178792524Y-91547905D02*
X178959191Y-90747905D01*
X179125857Y-91547905D01*
X179292524Y-91547905D02*
X179292524Y-90747905D01*
X179411571Y-90747905D01*
X179483000Y-90786000D01*
X179530619Y-90862190D01*
X179554428Y-90938381D01*
X179578238Y-91090762D01*
X179578238Y-91205048D01*
X179554428Y-91357429D01*
X179530619Y-91433619D01*
X179483000Y-91509810D01*
X179411571Y-91547905D01*
X179292524Y-91547905D01*
X179959190Y-91128857D02*
X180030619Y-91166952D01*
X180054428Y-91205048D01*
X180078238Y-91281238D01*
X180078238Y-91395524D01*
X180054428Y-91471714D01*
X180030619Y-91509810D01*
X179983000Y-91547905D01*
X179792524Y-91547905D01*
X179792524Y-90747905D01*
X179959190Y-90747905D01*
X180006809Y-90786000D01*
X180030619Y-90824095D01*
X180054428Y-90900286D01*
X180054428Y-90976476D01*
X180030619Y-91052667D01*
X180006809Y-91090762D01*
X179959190Y-91128857D01*
X179792524Y-91128857D01*
X180387762Y-90747905D02*
X180483000Y-90747905D01*
X180530619Y-90786000D01*
X180578238Y-90862190D01*
X180602047Y-91014571D01*
X180602047Y-91281238D01*
X180578238Y-91433619D01*
X180530619Y-91509810D01*
X180483000Y-91547905D01*
X180387762Y-91547905D01*
X180340143Y-91509810D01*
X180292524Y-91433619D01*
X180268714Y-91281238D01*
X180268714Y-91014571D01*
X180292524Y-90862190D01*
X180340143Y-90786000D01*
X180387762Y-90747905D01*
X180792524Y-91319333D02*
X181030619Y-91319333D01*
X180744905Y-91547905D02*
X180911572Y-90747905D01*
X181078238Y-91547905D01*
X181530619Y-91547905D02*
X181363952Y-91166952D01*
X181244905Y-91547905D02*
X181244905Y-90747905D01*
X181435381Y-90747905D01*
X181483000Y-90786000D01*
X181506809Y-90824095D01*
X181530619Y-90900286D01*
X181530619Y-91014571D01*
X181506809Y-91090762D01*
X181483000Y-91128857D01*
X181435381Y-91166952D01*
X181244905Y-91166952D01*
X181744905Y-91547905D02*
X181744905Y-90747905D01*
X181863952Y-90747905D01*
X181935381Y-90786000D01*
X181983000Y-90862190D01*
X182006809Y-90938381D01*
X182030619Y-91090762D01*
X182030619Y-91205048D01*
X182006809Y-91357429D01*
X181983000Y-91433619D01*
X181935381Y-91509810D01*
X181863952Y-91547905D01*
X181744905Y-91547905D01*
X182625857Y-91547905D02*
X182625857Y-90747905D01*
X182816333Y-90747905D01*
X182863952Y-90786000D01*
X182887761Y-90824095D01*
X182911571Y-90900286D01*
X182911571Y-91014571D01*
X182887761Y-91090762D01*
X182863952Y-91128857D01*
X182816333Y-91166952D01*
X182625857Y-91166952D01*
X183221095Y-90747905D02*
X183316333Y-90747905D01*
X183363952Y-90786000D01*
X183411571Y-90862190D01*
X183435380Y-91014571D01*
X183435380Y-91281238D01*
X183411571Y-91433619D01*
X183363952Y-91509810D01*
X183316333Y-91547905D01*
X183221095Y-91547905D01*
X183173476Y-91509810D01*
X183125857Y-91433619D01*
X183102047Y-91281238D01*
X183102047Y-91014571D01*
X183125857Y-90862190D01*
X183173476Y-90786000D01*
X183221095Y-90747905D01*
X183602048Y-90747905D02*
X183721095Y-91547905D01*
X183816333Y-90976476D01*
X183911571Y-91547905D01*
X184030619Y-90747905D01*
X184221096Y-91128857D02*
X184387762Y-91128857D01*
X184459191Y-91547905D02*
X184221096Y-91547905D01*
X184221096Y-90747905D01*
X184459191Y-90747905D01*
X184959191Y-91547905D02*
X184792524Y-91166952D01*
X184673477Y-91547905D02*
X184673477Y-90747905D01*
X184863953Y-90747905D01*
X184911572Y-90786000D01*
X184935381Y-90824095D01*
X184959191Y-90900286D01*
X184959191Y-91014571D01*
X184935381Y-91090762D01*
X184911572Y-91128857D01*
X184863953Y-91166952D01*
X184673477Y-91166952D01*
X185197286Y-90938381D02*
X185197286Y-91547905D01*
X185221096Y-90976476D02*
X185221096Y-91509810D01*
X185244905Y-90976476D02*
X185244905Y-91509810D01*
X185268715Y-91014571D02*
X185268715Y-91471714D01*
X185292524Y-91014571D02*
X185292524Y-91471714D01*
X185316334Y-91052667D02*
X185316334Y-91433619D01*
X185340143Y-91052667D02*
X185340143Y-91433619D01*
X185363953Y-91090762D02*
X185363953Y-91395524D01*
X185387762Y-91128857D02*
X185387762Y-91357429D01*
X185411572Y-91128857D02*
X185411572Y-91357429D01*
X185435381Y-91166952D02*
X185435381Y-91319333D01*
X185459191Y-91166952D02*
X185459191Y-91319333D01*
X185483000Y-91243143D02*
X185506810Y-91243143D01*
X185483000Y-91205048D02*
X185483000Y-91281238D01*
X185173477Y-90938381D02*
X185530619Y-91243143D01*
X185173477Y-91547905D01*
X185554429Y-91243143D02*
X185173477Y-91586000D01*
X185173477Y-90900286D01*
X185554429Y-91243143D01*
D11*
X183655143Y-95357905D02*
X183655143Y-94557905D01*
X184036095Y-95357905D02*
X184036095Y-94557905D01*
X184493238Y-95357905D01*
X184493238Y-94557905D01*
X185407524Y-94557905D02*
X185902762Y-94557905D01*
X185636095Y-94862667D01*
X185750381Y-94862667D01*
X185826571Y-94900762D01*
X185864667Y-94938857D01*
X185902762Y-95015048D01*
X185902762Y-95205524D01*
X185864667Y-95281714D01*
X185826571Y-95319810D01*
X185750381Y-95357905D01*
X185521809Y-95357905D01*
X185445619Y-95319810D01*
X185407524Y-95281714D01*
X186245619Y-95281714D02*
X186283714Y-95319810D01*
X186245619Y-95357905D01*
X186207524Y-95319810D01*
X186245619Y-95281714D01*
X186245619Y-95357905D01*
X186550381Y-94557905D02*
X187045619Y-94557905D01*
X186778952Y-94862667D01*
X186893238Y-94862667D01*
X186969428Y-94900762D01*
X187007524Y-94938857D01*
X187045619Y-95015048D01*
X187045619Y-95205524D01*
X187007524Y-95281714D01*
X186969428Y-95319810D01*
X186893238Y-95357905D01*
X186664666Y-95357905D01*
X186588476Y-95319810D01*
X186550381Y-95281714D01*
X187274190Y-94557905D02*
X187540857Y-95357905D01*
X187807524Y-94557905D01*
X189102762Y-94596000D02*
X189026571Y-94557905D01*
X188912286Y-94557905D01*
X188798000Y-94596000D01*
X188721809Y-94672190D01*
X188683714Y-94748381D01*
X188645619Y-94900762D01*
X188645619Y-95015048D01*
X188683714Y-95167429D01*
X188721809Y-95243619D01*
X188798000Y-95319810D01*
X188912286Y-95357905D01*
X188988476Y-95357905D01*
X189102762Y-95319810D01*
X189140857Y-95281714D01*
X189140857Y-95015048D01*
X188988476Y-95015048D01*
X189483714Y-95357905D02*
X189483714Y-94557905D01*
X189940857Y-95357905D01*
X189940857Y-94557905D01*
X190321809Y-95357905D02*
X190321809Y-94557905D01*
X190512285Y-94557905D01*
X190626571Y-94596000D01*
X190702762Y-94672190D01*
X190740857Y-94748381D01*
X190778952Y-94900762D01*
X190778952Y-95015048D01*
X190740857Y-95167429D01*
X190702762Y-95243619D01*
X190626571Y-95319810D01*
X190512285Y-95357905D01*
X190321809Y-95357905D01*
X190677523Y-92856000D02*
X190753714Y-92894095D01*
X190867999Y-92894095D01*
X190982285Y-92856000D01*
X191058476Y-92779810D01*
X191096571Y-92703619D01*
X191134666Y-92551238D01*
X191134666Y-92436952D01*
X191096571Y-92284571D01*
X191058476Y-92208381D01*
X190982285Y-92132190D01*
X190867999Y-92094095D01*
X190791809Y-92094095D01*
X190677523Y-92132190D01*
X190639428Y-92170286D01*
X190639428Y-92436952D01*
X190791809Y-92436952D01*
X190296571Y-92094095D02*
X190296571Y-92894095D01*
X189839428Y-92094095D01*
X189839428Y-92894095D01*
X189458476Y-92094095D02*
X189458476Y-92894095D01*
X189268000Y-92894095D01*
X189153714Y-92856000D01*
X189077523Y-92779810D01*
X189039428Y-92703619D01*
X189001333Y-92551238D01*
X189001333Y-92436952D01*
X189039428Y-92284571D01*
X189077523Y-92208381D01*
X189153714Y-92132190D01*
X189268000Y-92094095D01*
X189458476Y-92094095D01*
X188125142Y-92894095D02*
X187629904Y-92894095D01*
X187896571Y-92589333D01*
X187782285Y-92589333D01*
X187706095Y-92551238D01*
X187667999Y-92513143D01*
X187629904Y-92436952D01*
X187629904Y-92246476D01*
X187667999Y-92170286D01*
X187706095Y-92132190D01*
X187782285Y-92094095D01*
X188010857Y-92094095D01*
X188087047Y-92132190D01*
X188125142Y-92170286D01*
X187287047Y-92170286D02*
X187248952Y-92132190D01*
X187287047Y-92094095D01*
X187325142Y-92132190D01*
X187287047Y-92170286D01*
X187287047Y-92094095D01*
X186982285Y-92894095D02*
X186487047Y-92894095D01*
X186753714Y-92589333D01*
X186639428Y-92589333D01*
X186563238Y-92551238D01*
X186525142Y-92513143D01*
X186487047Y-92436952D01*
X186487047Y-92246476D01*
X186525142Y-92170286D01*
X186563238Y-92132190D01*
X186639428Y-92094095D01*
X186868000Y-92094095D01*
X186944190Y-92132190D01*
X186982285Y-92170286D01*
X186258476Y-92894095D02*
X185991809Y-92094095D01*
X185725142Y-92894095D01*
X146602762Y-137356810D02*
X146717048Y-137394905D01*
X146907524Y-137394905D01*
X146983714Y-137356810D01*
X147021810Y-137318714D01*
X147059905Y-137242524D01*
X147059905Y-137166333D01*
X147021810Y-137090143D01*
X146983714Y-137052048D01*
X146907524Y-137013952D01*
X146755143Y-136975857D01*
X146678952Y-136937762D01*
X146640857Y-136899667D01*
X146602762Y-136823476D01*
X146602762Y-136747286D01*
X146640857Y-136671095D01*
X146678952Y-136633000D01*
X146755143Y-136594905D01*
X146945619Y-136594905D01*
X147059905Y-136633000D01*
X147402762Y-137394905D02*
X147402762Y-136594905D01*
X147707524Y-136594905D01*
X147783715Y-136633000D01*
X147821810Y-136671095D01*
X147859905Y-136747286D01*
X147859905Y-136861571D01*
X147821810Y-136937762D01*
X147783715Y-136975857D01*
X147707524Y-137013952D01*
X147402762Y-137013952D01*
X148202762Y-136975857D02*
X148469429Y-136975857D01*
X148583715Y-137394905D02*
X148202762Y-137394905D01*
X148202762Y-136594905D01*
X148583715Y-136594905D01*
X148888477Y-137166333D02*
X149269429Y-137166333D01*
X148812286Y-137394905D02*
X149078953Y-136594905D01*
X149345620Y-137394905D01*
X149612286Y-137394905D02*
X149612286Y-136594905D01*
X150069429Y-137394905D02*
X149726572Y-136937762D01*
X150069429Y-136594905D02*
X149612286Y-137052048D01*
X150412286Y-136975857D02*
X150678953Y-136975857D01*
X150793239Y-137394905D02*
X150412286Y-137394905D01*
X150412286Y-136594905D01*
X150793239Y-136594905D01*
X151593239Y-137394905D02*
X151326572Y-137013952D01*
X151136096Y-137394905D02*
X151136096Y-136594905D01*
X151440858Y-136594905D01*
X151517049Y-136633000D01*
X151555144Y-136671095D01*
X151593239Y-136747286D01*
X151593239Y-136861571D01*
X151555144Y-136937762D01*
X151517049Y-136975857D01*
X151440858Y-137013952D01*
X151136096Y-137013952D01*
X189215781Y-126266390D02*
X189215781Y-125647342D01*
X189596733Y-125980676D01*
X189596733Y-125837818D01*
X189644352Y-125742580D01*
X189691971Y-125694961D01*
X189787210Y-125647342D01*
X190025305Y-125647342D01*
X190120543Y-125694961D01*
X190168162Y-125742580D01*
X190215781Y-125837818D01*
X190215781Y-126123533D01*
X190168162Y-126218771D01*
X190120543Y-126266390D01*
X190120543Y-125218771D02*
X190168162Y-125171152D01*
X190215781Y-125218771D01*
X190168162Y-125266390D01*
X190120543Y-125218771D01*
X190215781Y-125218771D01*
X189215781Y-124837819D02*
X189215781Y-124218771D01*
X189596733Y-124552105D01*
X189596733Y-124409247D01*
X189644352Y-124314009D01*
X189691971Y-124266390D01*
X189787210Y-124218771D01*
X190025305Y-124218771D01*
X190120543Y-124266390D01*
X190168162Y-124314009D01*
X190215781Y-124409247D01*
X190215781Y-124694962D01*
X190168162Y-124790200D01*
X190120543Y-124837819D01*
X189215781Y-123933057D02*
X190215781Y-123599724D01*
X189215781Y-123266390D01*
D17*
X189739000Y-100076000D02*
X192279000Y-100076000D01*
X189739000Y-102616000D02*
X192279000Y-102616000D01*
X179579000Y-117856000D02*
X182119000Y-117856000D01*
X179579000Y-120396000D02*
X182119000Y-120396000D01*
D15*
X162066000Y-127635000D02*
G75*
G03X162066000Y-127635000I-268000J0D01*
G01*
X144032000Y-115189000D02*
G75*
G03X144032000Y-115189000I-268000J0D01*
G01*
D11*
X167297904Y-126180905D02*
X167755047Y-126180905D01*
X167526476Y-126980905D02*
X167526476Y-126180905D01*
X168402667Y-126980905D02*
X168021714Y-126980905D01*
X168021714Y-126180905D01*
X168669333Y-126980905D02*
X168669333Y-126180905D01*
X168974095Y-126180905D01*
X169050286Y-126219000D01*
X169088381Y-126257095D01*
X169126476Y-126333286D01*
X169126476Y-126447571D01*
X169088381Y-126523762D01*
X169050286Y-126561857D01*
X168974095Y-126599952D01*
X168669333Y-126599952D01*
X169431238Y-126257095D02*
X169469333Y-126219000D01*
X169545524Y-126180905D01*
X169736000Y-126180905D01*
X169812190Y-126219000D01*
X169850286Y-126257095D01*
X169888381Y-126333286D01*
X169888381Y-126409476D01*
X169850286Y-126523762D01*
X169393143Y-126980905D01*
X169888381Y-126980905D01*
X170193143Y-126257095D02*
X170231238Y-126219000D01*
X170307429Y-126180905D01*
X170497905Y-126180905D01*
X170574095Y-126219000D01*
X170612191Y-126257095D01*
X170650286Y-126333286D01*
X170650286Y-126409476D01*
X170612191Y-126523762D01*
X170155048Y-126980905D01*
X170650286Y-126980905D01*
X170955048Y-126257095D02*
X170993143Y-126219000D01*
X171069334Y-126180905D01*
X171259810Y-126180905D01*
X171336000Y-126219000D01*
X171374096Y-126257095D01*
X171412191Y-126333286D01*
X171412191Y-126409476D01*
X171374096Y-126523762D01*
X170916953Y-126980905D01*
X171412191Y-126980905D01*
X171716953Y-126752333D02*
X172097905Y-126752333D01*
X171640762Y-126980905D02*
X171907429Y-126180905D01*
X172174096Y-126980905D01*
D13*
X160902705Y-115149057D02*
X160902705Y-115034771D01*
X160940800Y-114977629D01*
X161016990Y-114920486D01*
X161169371Y-114891914D01*
X161436038Y-114891914D01*
X161588419Y-114920486D01*
X161664610Y-114977629D01*
X161702705Y-115034771D01*
X161702705Y-115149057D01*
X161664610Y-115206200D01*
X161588419Y-115263343D01*
X161436038Y-115291914D01*
X161169371Y-115291914D01*
X161016990Y-115263343D01*
X160940800Y-115206200D01*
X160902705Y-115149057D01*
X161702705Y-114634772D02*
X160902705Y-114634772D01*
X160902705Y-114406200D01*
X160940800Y-114349058D01*
X160978895Y-114320486D01*
X161055086Y-114291915D01*
X161169371Y-114291915D01*
X161245562Y-114320486D01*
X161283657Y-114349058D01*
X161321752Y-114406200D01*
X161321752Y-114634772D01*
X161474133Y-114063343D02*
X161474133Y-113777629D01*
X161702705Y-114120486D02*
X160902705Y-113920486D01*
X161702705Y-113720486D01*
X161702705Y-113520486D02*
X160902705Y-113520486D01*
X161474133Y-113320486D01*
X160902705Y-113120486D01*
X161702705Y-113120486D01*
X161702705Y-112834772D02*
X160902705Y-112834772D01*
X160902705Y-112606200D01*
X160940800Y-112549058D01*
X160978895Y-112520486D01*
X161055086Y-112491915D01*
X161169371Y-112491915D01*
X161245562Y-112520486D01*
X161283657Y-112549058D01*
X161321752Y-112606200D01*
X161321752Y-112834772D01*
X161778895Y-112377629D02*
X161778895Y-111920486D01*
X161283657Y-111777629D02*
X161283657Y-111577629D01*
X161702705Y-111491915D02*
X161702705Y-111777629D01*
X160902705Y-111777629D01*
X160902705Y-111491915D01*
X160902705Y-111291915D02*
X161702705Y-110891915D01*
X160902705Y-110891915D02*
X161702705Y-111291915D01*
D11*
X187451904Y-137355200D02*
X187547142Y-137402819D01*
X187689999Y-137402819D01*
X187832857Y-137355200D01*
X187928095Y-137259962D01*
X187975714Y-137164724D01*
X188023333Y-136974248D01*
X188023333Y-136831390D01*
X187975714Y-136640914D01*
X187928095Y-136545676D01*
X187832857Y-136450438D01*
X187689999Y-136402819D01*
X187594761Y-136402819D01*
X187451904Y-136450438D01*
X187404285Y-136498057D01*
X187404285Y-136831390D01*
X187594761Y-136831390D01*
X186975714Y-136402819D02*
X186975714Y-137402819D01*
X186404285Y-136402819D01*
X186404285Y-137402819D01*
X185928095Y-136402819D02*
X185928095Y-137402819D01*
X185690000Y-137402819D01*
X185547142Y-137355200D01*
X185451904Y-137259962D01*
X185404285Y-137164724D01*
X185356666Y-136974248D01*
X185356666Y-136831390D01*
X185404285Y-136640914D01*
X185451904Y-136545676D01*
X185547142Y-136450438D01*
X185690000Y-136402819D01*
X185928095Y-136402819D01*
X198169162Y-128898305D02*
X198216781Y-128755448D01*
X198216781Y-128517352D01*
X198169162Y-128422114D01*
X198121543Y-128374495D01*
X198026305Y-128326876D01*
X197931067Y-128326876D01*
X197835829Y-128374495D01*
X197788210Y-128422114D01*
X197740590Y-128517352D01*
X197692971Y-128707829D01*
X197645352Y-128803067D01*
X197597733Y-128850686D01*
X197502495Y-128898305D01*
X197407257Y-128898305D01*
X197312019Y-128850686D01*
X197264400Y-128803067D01*
X197216781Y-128707829D01*
X197216781Y-128469733D01*
X197264400Y-128326876D01*
X197692971Y-127898305D02*
X197692971Y-127564971D01*
X198216781Y-127422114D02*
X198216781Y-127898305D01*
X197216781Y-127898305D01*
X197216781Y-127422114D01*
X198216781Y-126993543D02*
X197216781Y-126993543D01*
X198216781Y-126422114D01*
X197216781Y-126422114D01*
X198169162Y-125993543D02*
X198216781Y-125850686D01*
X198216781Y-125612590D01*
X198169162Y-125517352D01*
X198121543Y-125469733D01*
X198026305Y-125422114D01*
X197931067Y-125422114D01*
X197835829Y-125469733D01*
X197788210Y-125517352D01*
X197740590Y-125612590D01*
X197692971Y-125803067D01*
X197645352Y-125898305D01*
X197597733Y-125945924D01*
X197502495Y-125993543D01*
X197407257Y-125993543D01*
X197312019Y-125945924D01*
X197264400Y-125898305D01*
X197216781Y-125803067D01*
X197216781Y-125564971D01*
X197264400Y-125422114D01*
X197216781Y-124803067D02*
X197216781Y-124612590D01*
X197264400Y-124517352D01*
X197359638Y-124422114D01*
X197550114Y-124374495D01*
X197883448Y-124374495D01*
X198073924Y-124422114D01*
X198169162Y-124517352D01*
X198216781Y-124612590D01*
X198216781Y-124803067D01*
X198169162Y-124898305D01*
X198073924Y-124993543D01*
X197883448Y-125041162D01*
X197550114Y-125041162D01*
X197359638Y-124993543D01*
X197264400Y-124898305D01*
X197216781Y-124803067D01*
X198216781Y-123374495D02*
X197740590Y-123707829D01*
X198216781Y-123945924D02*
X197216781Y-123945924D01*
X197216781Y-123564971D01*
X197264400Y-123469733D01*
X197312019Y-123422114D01*
X197407257Y-123374495D01*
X197550114Y-123374495D01*
X197645352Y-123422114D01*
X197692971Y-123469733D01*
X197740590Y-123564971D01*
X197740590Y-123945924D01*
D12*
X173743881Y-114957976D02*
X172743881Y-114957976D01*
X173458167Y-114624642D01*
X172743881Y-114291309D01*
X173743881Y-114291309D01*
X173743881Y-113815119D02*
X173077214Y-113815119D01*
X172743881Y-113815119D02*
X172791500Y-113862738D01*
X172839119Y-113815119D01*
X172791500Y-113767500D01*
X172743881Y-113815119D01*
X172839119Y-113815119D01*
X173077214Y-113338929D02*
X173743881Y-113338929D01*
X173172452Y-113338929D02*
X173124833Y-113291310D01*
X173077214Y-113196072D01*
X173077214Y-113053214D01*
X173124833Y-112957976D01*
X173220071Y-112910357D01*
X173743881Y-112910357D01*
X173743881Y-112434167D02*
X173077214Y-112434167D01*
X172743881Y-112434167D02*
X172791500Y-112481786D01*
X172839119Y-112434167D01*
X172791500Y-112386548D01*
X172743881Y-112434167D01*
X172839119Y-112434167D01*
X172743881Y-112053215D02*
X172743881Y-111434167D01*
X173124833Y-111767501D01*
X173124833Y-111624643D01*
X173172452Y-111529405D01*
X173220071Y-111481786D01*
X173315310Y-111434167D01*
X173553405Y-111434167D01*
X173648643Y-111481786D01*
X173696262Y-111529405D01*
X173743881Y-111624643D01*
X173743881Y-111910358D01*
X173696262Y-112005596D01*
X173648643Y-112053215D01*
X172743881Y-110577024D02*
X172743881Y-110767501D01*
X172791500Y-110862739D01*
X172839119Y-110910358D01*
X172981976Y-111005596D01*
X173172452Y-111053215D01*
X173553405Y-111053215D01*
X173648643Y-111005596D01*
X173696262Y-110957977D01*
X173743881Y-110862739D01*
X173743881Y-110672262D01*
X173696262Y-110577024D01*
X173648643Y-110529405D01*
X173553405Y-110481786D01*
X173315310Y-110481786D01*
X173220071Y-110529405D01*
X173172452Y-110577024D01*
X173124833Y-110672262D01*
X173124833Y-110862739D01*
X173172452Y-110957977D01*
X173220071Y-111005596D01*
X173315310Y-111053215D01*
X172743881Y-109862739D02*
X172743881Y-109767500D01*
X172791500Y-109672262D01*
X172839119Y-109624643D01*
X172934357Y-109577024D01*
X173124833Y-109529405D01*
X173362929Y-109529405D01*
X173553405Y-109577024D01*
X173648643Y-109624643D01*
X173696262Y-109672262D01*
X173743881Y-109767500D01*
X173743881Y-109862739D01*
X173696262Y-109957977D01*
X173648643Y-110005596D01*
X173553405Y-110053215D01*
X173362929Y-110100834D01*
X173124833Y-110100834D01*
X172934357Y-110053215D01*
X172839119Y-110005596D01*
X172791500Y-109957977D01*
X172743881Y-109862739D01*
D13*
X178125429Y-121808143D02*
X178125429Y-122536714D01*
X178154001Y-122622429D01*
X178182572Y-122665286D01*
X178239715Y-122708143D01*
X178354001Y-122708143D01*
X178411143Y-122665286D01*
X178439715Y-122622429D01*
X178468286Y-122536714D01*
X178468286Y-121808143D01*
X178754000Y-122708143D02*
X178754000Y-121808143D01*
X179096857Y-122708143D01*
X179096857Y-121808143D01*
X179382571Y-122708143D02*
X179382571Y-121808143D01*
X179582571Y-121808143D02*
X179782571Y-122708143D01*
X179982571Y-121808143D01*
X180182571Y-122236714D02*
X180382571Y-122236714D01*
X180468285Y-122708143D02*
X180182571Y-122708143D01*
X180182571Y-121808143D01*
X180468285Y-121808143D01*
X181068285Y-122708143D02*
X180868285Y-122279571D01*
X180725428Y-122708143D02*
X180725428Y-121808143D01*
X180954000Y-121808143D01*
X181011142Y-121851000D01*
X181039714Y-121893857D01*
X181068285Y-121979571D01*
X181068285Y-122108143D01*
X181039714Y-122193857D01*
X181011142Y-122236714D01*
X180954000Y-122279571D01*
X180725428Y-122279571D01*
X181296857Y-122665286D02*
X181382571Y-122708143D01*
X181525428Y-122708143D01*
X181582571Y-122665286D01*
X181611142Y-122622429D01*
X181639714Y-122536714D01*
X181639714Y-122451000D01*
X181611142Y-122365286D01*
X181582571Y-122322429D01*
X181525428Y-122279571D01*
X181411142Y-122236714D01*
X181354000Y-122193857D01*
X181325428Y-122151000D01*
X181296857Y-122065286D01*
X181296857Y-121979571D01*
X181325428Y-121893857D01*
X181354000Y-121851000D01*
X181411142Y-121808143D01*
X181554000Y-121808143D01*
X181639714Y-121851000D01*
X181868286Y-122451000D02*
X182154000Y-122451000D01*
X181811143Y-122708143D02*
X182011143Y-121808143D01*
X182211143Y-122708143D01*
X182696857Y-122708143D02*
X182411143Y-122708143D01*
X182411143Y-121808143D01*
D11*
X177311095Y-92507191D02*
X178111095Y-92507191D01*
X178111095Y-92811953D01*
X178073000Y-92888144D01*
X178034905Y-92926239D01*
X177958714Y-92964334D01*
X177844429Y-92964334D01*
X177768238Y-92926239D01*
X177730143Y-92888144D01*
X177692048Y-92811953D01*
X177692048Y-92507191D01*
X177311095Y-93764334D02*
X177692048Y-93497667D01*
X177311095Y-93307191D02*
X178111095Y-93307191D01*
X178111095Y-93611953D01*
X178073000Y-93688144D01*
X178034905Y-93726239D01*
X177958714Y-93764334D01*
X177844429Y-93764334D01*
X177768238Y-93726239D01*
X177730143Y-93688144D01*
X177692048Y-93611953D01*
X177692048Y-93307191D01*
X178111095Y-94259572D02*
X178111095Y-94411953D01*
X178073000Y-94488144D01*
X177996810Y-94564334D01*
X177844429Y-94602429D01*
X177577762Y-94602429D01*
X177425381Y-94564334D01*
X177349190Y-94488144D01*
X177311095Y-94411953D01*
X177311095Y-94259572D01*
X177349190Y-94183382D01*
X177425381Y-94107191D01*
X177577762Y-94069096D01*
X177844429Y-94069096D01*
X177996810Y-94107191D01*
X178073000Y-94183382D01*
X178111095Y-94259572D01*
X178073000Y-95364334D02*
X178111095Y-95288143D01*
X178111095Y-95173858D01*
X178073000Y-95059572D01*
X177996810Y-94983381D01*
X177920619Y-94945286D01*
X177768238Y-94907191D01*
X177653952Y-94907191D01*
X177501571Y-94945286D01*
X177425381Y-94983381D01*
X177349190Y-95059572D01*
X177311095Y-95173858D01*
X177311095Y-95250048D01*
X177349190Y-95364334D01*
X177387286Y-95402429D01*
X177653952Y-95402429D01*
X177653952Y-95250048D01*
X177311095Y-96202429D02*
X177692048Y-95935762D01*
X177311095Y-95745286D02*
X178111095Y-95745286D01*
X178111095Y-96050048D01*
X178073000Y-96126239D01*
X178034905Y-96164334D01*
X177958714Y-96202429D01*
X177844429Y-96202429D01*
X177768238Y-96164334D01*
X177730143Y-96126239D01*
X177692048Y-96050048D01*
X177692048Y-95745286D01*
X177539667Y-96507191D02*
X177539667Y-96888143D01*
X177311095Y-96431000D02*
X178111095Y-96697667D01*
X177311095Y-96964334D01*
X177311095Y-97231000D02*
X178111095Y-97231000D01*
X177539667Y-97497667D01*
X178111095Y-97764334D01*
X177311095Y-97764334D01*
X177882524Y-98754810D02*
X177920619Y-98754810D01*
X177806333Y-98716715D02*
X177920619Y-98716715D01*
X177730143Y-98678620D02*
X177920619Y-98678620D01*
X177653952Y-98640524D02*
X177920619Y-98640524D01*
X177615857Y-98602429D02*
X177920619Y-98602429D01*
X177539667Y-98564334D02*
X177920619Y-98564334D01*
X177463476Y-98526239D02*
X177920619Y-98526239D01*
X177387286Y-98488143D02*
X177920619Y-98488143D01*
X177311095Y-98450048D02*
X177920619Y-98450048D01*
X177387286Y-98411953D02*
X177920619Y-98411953D01*
X177463476Y-98373858D02*
X177920619Y-98373858D01*
X177539667Y-98335762D02*
X177920619Y-98335762D01*
X177615857Y-98297667D02*
X177920619Y-98297667D01*
X177653952Y-98259572D02*
X177920619Y-98259572D01*
X177730143Y-98221477D02*
X177920619Y-98221477D01*
X177806333Y-98183381D02*
X177920619Y-98183381D01*
X177920619Y-98145286D02*
X177349190Y-98450048D01*
X177920619Y-98754810D01*
X177882524Y-98145286D02*
X177920619Y-98145286D01*
X177311095Y-98450048D02*
X177920619Y-98107191D01*
X177920619Y-98792905D01*
X177311095Y-98450048D01*
D13*
X183976856Y-121972429D02*
X184348285Y-121972429D01*
X184148285Y-122201000D01*
X184233999Y-122201000D01*
X184291142Y-122229571D01*
X184319713Y-122258143D01*
X184348285Y-122315286D01*
X184348285Y-122458143D01*
X184319713Y-122515286D01*
X184291142Y-122543857D01*
X184233999Y-122572429D01*
X184062571Y-122572429D01*
X184005428Y-122543857D01*
X183976856Y-122515286D01*
X184519714Y-121972429D02*
X184719714Y-122572429D01*
X184919714Y-121972429D01*
X185062571Y-121972429D02*
X185434000Y-121972429D01*
X185234000Y-122201000D01*
X185319714Y-122201000D01*
X185376857Y-122229571D01*
X185405428Y-122258143D01*
X185434000Y-122315286D01*
X185434000Y-122458143D01*
X185405428Y-122515286D01*
X185376857Y-122543857D01*
X185319714Y-122572429D01*
X185148286Y-122572429D01*
X185091143Y-122543857D01*
X185062571Y-122515286D01*
X186462572Y-122001000D02*
X186405429Y-121972429D01*
X186319715Y-121972429D01*
X186234000Y-122001000D01*
X186176858Y-122058143D01*
X186148286Y-122115286D01*
X186119715Y-122229571D01*
X186119715Y-122315286D01*
X186148286Y-122429571D01*
X186176858Y-122486714D01*
X186234000Y-122543857D01*
X186319715Y-122572429D01*
X186376858Y-122572429D01*
X186462572Y-122543857D01*
X186491143Y-122515286D01*
X186491143Y-122315286D01*
X186376858Y-122315286D01*
X186748286Y-122572429D02*
X186748286Y-121972429D01*
X187091143Y-122572429D01*
X187091143Y-121972429D01*
X187376857Y-122572429D02*
X187376857Y-121972429D01*
X187519714Y-121972429D01*
X187605429Y-122001000D01*
X187662571Y-122058143D01*
X187691143Y-122115286D01*
X187719714Y-122229571D01*
X187719714Y-122315286D01*
X187691143Y-122429571D01*
X187662571Y-122486714D01*
X187605429Y-122543857D01*
X187519714Y-122572429D01*
X187376857Y-122572429D01*
D18*
X156400428Y-130028143D02*
X155257571Y-130028143D01*
X155829000Y-130599571D02*
X155829000Y-129456714D01*
D13*
X190036057Y-97377295D02*
X190036057Y-98177295D01*
X189845581Y-98177295D01*
X189731295Y-98139200D01*
X189655104Y-98063010D01*
X189617009Y-97986819D01*
X189578914Y-97834438D01*
X189578914Y-97720152D01*
X189617009Y-97567771D01*
X189655104Y-97491581D01*
X189731295Y-97415390D01*
X189845581Y-97377295D01*
X190036057Y-97377295D01*
X188893200Y-97910629D02*
X188893200Y-97377295D01*
X189083676Y-98215390D02*
X189274152Y-97643962D01*
X188778914Y-97643962D01*
X187483675Y-98177295D02*
X187864628Y-98177295D01*
X187902723Y-97796343D01*
X187864628Y-97834438D01*
X187788437Y-97872533D01*
X187597961Y-97872533D01*
X187521771Y-97834438D01*
X187483675Y-97796343D01*
X187445580Y-97720152D01*
X187445580Y-97529676D01*
X187483675Y-97453486D01*
X187521771Y-97415390D01*
X187597961Y-97377295D01*
X187788437Y-97377295D01*
X187864628Y-97415390D01*
X187902723Y-97453486D01*
X187217009Y-98177295D02*
X186950342Y-97377295D01*
X186683675Y-98177295D01*
X185388437Y-98139200D02*
X185464628Y-98177295D01*
X185578913Y-98177295D01*
X185693199Y-98139200D01*
X185769390Y-98063010D01*
X185807485Y-97986819D01*
X185845580Y-97834438D01*
X185845580Y-97720152D01*
X185807485Y-97567771D01*
X185769390Y-97491581D01*
X185693199Y-97415390D01*
X185578913Y-97377295D01*
X185502723Y-97377295D01*
X185388437Y-97415390D01*
X185350342Y-97453486D01*
X185350342Y-97720152D01*
X185502723Y-97720152D01*
X185007485Y-97377295D02*
X185007485Y-98177295D01*
X184550342Y-97377295D01*
X184550342Y-98177295D01*
X184169390Y-97377295D02*
X184169390Y-98177295D01*
X183978914Y-98177295D01*
X183864628Y-98139200D01*
X183788437Y-98063010D01*
X183750342Y-97986819D01*
X183712247Y-97834438D01*
X183712247Y-97720152D01*
X183750342Y-97567771D01*
X183788437Y-97491581D01*
X183864628Y-97415390D01*
X183978914Y-97377295D01*
X184169390Y-97377295D01*
D14*
X156334667Y-94256000D02*
X157034667Y-94041714D01*
X156534667Y-93870285D01*
X157034667Y-93698857D01*
X156334667Y-93484571D01*
X157034667Y-92627429D02*
X156701333Y-92927429D01*
X157034667Y-93141714D02*
X156334667Y-93141714D01*
X156334667Y-92798857D01*
X156368000Y-92713143D01*
X156401333Y-92670286D01*
X156468000Y-92627429D01*
X156568000Y-92627429D01*
X156634667Y-92670286D01*
X156668000Y-92713143D01*
X156701333Y-92798857D01*
X156701333Y-93141714D01*
X157034667Y-92241714D02*
X156334667Y-92241714D01*
X156334667Y-91941715D02*
X156334667Y-91427429D01*
X157034667Y-91684572D02*
X156334667Y-91684572D01*
X156668000Y-91127429D02*
X156668000Y-90827429D01*
X157034667Y-90698858D02*
X157034667Y-91127429D01*
X156334667Y-91127429D01*
X156334667Y-90698858D01*
X157034667Y-97565286D02*
X156701333Y-97865286D01*
X157034667Y-98079571D02*
X156334667Y-98079571D01*
X156334667Y-97736714D01*
X156368000Y-97651000D01*
X156401333Y-97608143D01*
X156468000Y-97565286D01*
X156568000Y-97565286D01*
X156634667Y-97608143D01*
X156668000Y-97651000D01*
X156701333Y-97736714D01*
X156701333Y-98079571D01*
X156334667Y-97179571D02*
X156901333Y-97179571D01*
X156968000Y-97136714D01*
X157001333Y-97093857D01*
X157034667Y-97008143D01*
X157034667Y-96836714D01*
X157001333Y-96751000D01*
X156968000Y-96708143D01*
X156901333Y-96665286D01*
X156334667Y-96665286D01*
X157034667Y-96236714D02*
X156334667Y-96236714D01*
X157034667Y-95722429D01*
X156334667Y-95722429D01*
D19*
X149351334Y-96517667D02*
X149518001Y-97217667D01*
X149651334Y-96717667D01*
X149784667Y-97217667D01*
X149951334Y-96517667D01*
X150218001Y-96517667D02*
X150218001Y-97084333D01*
X150251334Y-97151000D01*
X150284667Y-97184333D01*
X150351334Y-97217667D01*
X150484667Y-97217667D01*
X150551334Y-97184333D01*
X150584667Y-97151000D01*
X150618001Y-97084333D01*
X150618001Y-96517667D01*
X150951334Y-97217667D02*
X150951334Y-96517667D01*
X151218000Y-96517667D01*
X151284667Y-96551000D01*
X151318000Y-96584333D01*
X151351334Y-96651000D01*
X151351334Y-96751000D01*
X151318000Y-96817667D01*
X151284667Y-96851000D01*
X151218000Y-96884333D01*
X150951334Y-96884333D01*
D17*
X189739000Y-120396000D02*
X192279000Y-120396000D01*
X179579000Y-115316000D02*
X182119000Y-115316000D01*
X189739000Y-117856000D02*
X192279000Y-117856000D01*
X179579000Y-112776000D02*
X182119000Y-112776000D01*
X179579000Y-110236000D02*
X182119000Y-110236000D01*
X189739000Y-115316000D02*
X192279000Y-115316000D01*
X189739000Y-112776000D02*
X192279000Y-112776000D01*
X189739000Y-110236000D02*
X192279000Y-110236000D01*
X179579000Y-107696000D02*
X182119000Y-107696000D01*
X179579000Y-105156000D02*
X182119000Y-105156000D01*
X179579000Y-102616000D02*
X182119000Y-102616000D01*
X189739000Y-107696000D02*
X192279000Y-107696000D01*
X179579000Y-100076000D02*
X182119000Y-100076000D01*
X189739000Y-105156000D02*
X192279000Y-105156000D01*
X187045000Y-99949000D02*
X187045000Y-120286000D01*
X184659000Y-99949000D02*
X184659000Y-120286000D01*
D13*
X189155190Y-121763143D02*
X189421857Y-121763143D01*
X189536143Y-122077429D02*
X189155190Y-122077429D01*
X189155190Y-121477429D01*
X189536143Y-121477429D01*
X189802810Y-121477429D02*
X190336143Y-122077429D01*
X190336143Y-121477429D02*
X189802810Y-122077429D01*
X190526619Y-121477429D02*
X190983762Y-121477429D01*
X190755191Y-122077429D02*
X190755191Y-121477429D01*
X191250429Y-122077429D02*
X191250429Y-121477429D01*
X191783762Y-121477429D02*
X191936143Y-121477429D01*
X192012334Y-121506000D01*
X192088524Y-121563143D01*
X192126619Y-121677429D01*
X192126619Y-121877429D01*
X192088524Y-121991714D01*
X192012334Y-122048857D01*
X191936143Y-122077429D01*
X191783762Y-122077429D01*
X191707572Y-122048857D01*
X191631381Y-121991714D01*
X191593286Y-121877429D01*
X191593286Y-121677429D01*
X191631381Y-121563143D01*
X191707572Y-121506000D01*
X191783762Y-121477429D01*
X189536142Y-123067429D02*
X189078999Y-123067429D01*
X189307570Y-123067429D02*
X189307570Y-122467429D01*
X189231380Y-122553143D01*
X189155189Y-122610286D01*
X189078999Y-122638857D01*
X191669476Y-122524571D02*
X191707571Y-122496000D01*
X191783762Y-122467429D01*
X191974238Y-122467429D01*
X192050428Y-122496000D01*
X192088524Y-122524571D01*
X192126619Y-122581714D01*
X192126619Y-122638857D01*
X192088524Y-122724571D01*
X191631381Y-123067429D01*
X192126619Y-123067429D01*
X176908017Y-97356571D02*
X176382303Y-97356571D01*
X176645160Y-96756571D02*
X176645160Y-97356571D01*
X176163255Y-97356571D02*
X175549922Y-96756571D01*
X175549922Y-97356571D02*
X176163255Y-96756571D01*
X173972780Y-96756571D02*
X174279447Y-97042286D01*
X174498494Y-96756571D02*
X174498494Y-97356571D01*
X174148018Y-97356571D01*
X174060399Y-97328000D01*
X174016590Y-97299429D01*
X173972780Y-97242286D01*
X173972780Y-97156571D01*
X174016590Y-97099429D01*
X174060399Y-97070857D01*
X174148018Y-97042286D01*
X174498494Y-97042286D01*
X173666113Y-97356571D02*
X173052780Y-96756571D01*
X173052780Y-97356571D02*
X173666113Y-96756571D01*
X171563257Y-97356571D02*
X172001352Y-97356571D01*
X172045162Y-97070857D01*
X172001352Y-97099429D01*
X171913733Y-97128000D01*
X171694686Y-97128000D01*
X171607067Y-97099429D01*
X171563257Y-97070857D01*
X171519448Y-97013714D01*
X171519448Y-96870857D01*
X171563257Y-96813714D01*
X171607067Y-96785143D01*
X171694686Y-96756571D01*
X171913733Y-96756571D01*
X172001352Y-96785143D01*
X172045162Y-96813714D01*
X171256591Y-97356571D02*
X170949924Y-96756571D01*
X170643258Y-97356571D01*
X169723258Y-97356571D02*
X169153735Y-97356571D01*
X169460401Y-97128000D01*
X169328973Y-97128000D01*
X169241354Y-97099429D01*
X169197544Y-97070857D01*
X169153735Y-97013714D01*
X169153735Y-96870857D01*
X169197544Y-96813714D01*
X169241354Y-96785143D01*
X169328973Y-96756571D01*
X169591830Y-96756571D01*
X169679449Y-96785143D01*
X169723258Y-96813714D01*
X168890878Y-97356571D02*
X168584211Y-96756571D01*
X168277545Y-97356571D01*
X166788022Y-97328000D02*
X166875641Y-97356571D01*
X167007069Y-97356571D01*
X167138498Y-97328000D01*
X167226117Y-97270857D01*
X167269926Y-97213714D01*
X167313736Y-97099429D01*
X167313736Y-97013714D01*
X167269926Y-96899429D01*
X167226117Y-96842286D01*
X167138498Y-96785143D01*
X167007069Y-96756571D01*
X166919450Y-96756571D01*
X166788022Y-96785143D01*
X166744212Y-96813714D01*
X166744212Y-97013714D01*
X166919450Y-97013714D01*
X166349926Y-96756571D02*
X166349926Y-97356571D01*
X165824212Y-96756571D01*
X165824212Y-97356571D01*
X165386116Y-96756571D02*
X165386116Y-97356571D01*
X165167069Y-97356571D01*
X165035640Y-97328000D01*
X164948021Y-97270857D01*
X164904212Y-97213714D01*
X164860402Y-97099429D01*
X164860402Y-97013714D01*
X164904212Y-96899429D01*
X164948021Y-96842286D01*
X165035640Y-96785143D01*
X165167069Y-96756571D01*
X165386116Y-96756571D01*
D14*
X162114667Y-118127666D02*
X161581333Y-118127666D01*
X162081333Y-118161000D02*
X161614667Y-118161000D01*
X162081333Y-118194333D02*
X161614667Y-118194333D01*
X162048000Y-118227666D02*
X161648000Y-118227666D01*
X162048000Y-118261000D02*
X161648000Y-118261000D01*
X162014667Y-118294333D02*
X161681333Y-118294333D01*
X162014667Y-118327666D02*
X161681333Y-118327666D01*
X161981333Y-118361000D02*
X161714667Y-118361000D01*
X161948000Y-118394333D02*
X161748000Y-118394333D01*
X161948000Y-118427666D02*
X161748000Y-118427666D01*
X161914667Y-118461000D02*
X161781333Y-118461000D01*
X161914667Y-118494333D02*
X161781333Y-118494333D01*
X161848000Y-118527666D02*
X161848000Y-118561000D01*
X161881333Y-118527666D02*
X161814667Y-118527666D01*
X162114667Y-118094333D02*
X161848000Y-118594333D01*
X161581333Y-118094333D01*
X161848000Y-118627666D02*
X161548000Y-118094333D01*
X162148000Y-118094333D01*
X161848000Y-118627666D01*
X162114667Y-117360999D02*
X161781333Y-117594333D01*
X162114667Y-117760999D02*
X161414667Y-117760999D01*
X161414667Y-117494333D01*
X161448000Y-117427666D01*
X161481333Y-117394333D01*
X161548000Y-117360999D01*
X161648000Y-117360999D01*
X161714667Y-117394333D01*
X161748000Y-117427666D01*
X161781333Y-117494333D01*
X161781333Y-117760999D01*
X162081333Y-117094333D02*
X162114667Y-116994333D01*
X162114667Y-116827666D01*
X162081333Y-116760999D01*
X162048000Y-116727666D01*
X161981333Y-116694333D01*
X161914667Y-116694333D01*
X161848000Y-116727666D01*
X161814667Y-116760999D01*
X161781333Y-116827666D01*
X161748000Y-116960999D01*
X161714667Y-117027666D01*
X161681333Y-117060999D01*
X161614667Y-117094333D01*
X161548000Y-117094333D01*
X161481333Y-117060999D01*
X161448000Y-117027666D01*
X161414667Y-116960999D01*
X161414667Y-116794333D01*
X161448000Y-116694333D01*
X161414667Y-116494332D02*
X161414667Y-116094332D01*
X162114667Y-116294332D02*
X161414667Y-116294332D01*
X158493667Y-100024333D02*
X158993667Y-100024333D01*
X159093667Y-100057667D01*
X159160333Y-100124333D01*
X159193667Y-100224333D01*
X159193667Y-100291000D01*
X159193667Y-99691000D02*
X158493667Y-99691000D01*
X158493667Y-99424334D01*
X158527000Y-99357667D01*
X158560333Y-99324334D01*
X158627000Y-99291000D01*
X158727000Y-99291000D01*
X158793667Y-99324334D01*
X158827000Y-99357667D01*
X158860333Y-99424334D01*
X158860333Y-99691000D01*
X158560333Y-99024334D02*
X158527000Y-98991000D01*
X158493667Y-98924334D01*
X158493667Y-98757667D01*
X158527000Y-98691000D01*
X158560333Y-98657667D01*
X158627000Y-98624334D01*
X158693667Y-98624334D01*
X158793667Y-98657667D01*
X159193667Y-99057667D01*
X159193667Y-98624334D01*
D11*
X229743000Y-34290000D02*
X229743000Y-90170000D01*
X144653000Y-34290000D02*
X229743000Y-34290000D01*
X144653000Y-90170000D02*
X144653000Y-34290000D01*
D12*
X228797763Y-69714524D02*
X228797763Y-68952619D01*
X228750144Y-68952619D02*
X228750144Y-69714524D01*
X228702525Y-69714524D02*
X228702525Y-68952619D01*
X228654906Y-68952619D02*
X228654906Y-69714524D01*
X228607287Y-69714524D02*
X228607287Y-68952619D01*
X228559667Y-68952619D02*
X228559667Y-69714524D01*
X228512048Y-69714524D02*
X228512048Y-68952619D01*
X228464429Y-68952619D02*
X228464429Y-69714524D01*
X228416810Y-69714524D02*
X228416810Y-68952619D01*
X228369191Y-68952619D02*
X228369191Y-69714524D01*
X228321572Y-69714524D02*
X228321572Y-68952619D01*
X228273953Y-68952619D02*
X228273953Y-69714524D01*
X228226334Y-69714524D02*
X228226334Y-68952619D01*
X228178715Y-68952619D02*
X228178715Y-69714524D01*
X228131096Y-69714524D02*
X228131096Y-68952619D01*
X228845382Y-69714524D02*
X228083477Y-69714524D01*
X228083477Y-68952619D01*
X228845382Y-68952619D01*
X228845382Y-69714524D01*
X227607287Y-68952619D02*
X227607287Y-69952619D01*
X227226334Y-69952619D01*
X227131096Y-69905000D01*
X227083477Y-69857381D01*
X227035858Y-69762143D01*
X227035858Y-69619286D01*
X227083477Y-69524048D01*
X227131096Y-69476429D01*
X227226334Y-69428810D01*
X227607287Y-69428810D01*
X226464430Y-68952619D02*
X226559668Y-69000238D01*
X226607287Y-69047857D01*
X226654906Y-69143095D01*
X226654906Y-69428810D01*
X226607287Y-69524048D01*
X226559668Y-69571667D01*
X226464430Y-69619286D01*
X226321572Y-69619286D01*
X226226334Y-69571667D01*
X226178715Y-69524048D01*
X226131096Y-69428810D01*
X226131096Y-69143095D01*
X226178715Y-69047857D01*
X226226334Y-69000238D01*
X226321572Y-68952619D01*
X226464430Y-68952619D01*
X225797763Y-69619286D02*
X225607287Y-68952619D01*
X225416810Y-69428810D01*
X225226334Y-68952619D01*
X225035858Y-69619286D01*
X224273953Y-69000238D02*
X224369191Y-68952619D01*
X224559668Y-68952619D01*
X224654906Y-69000238D01*
X224702525Y-69095476D01*
X224702525Y-69476429D01*
X224654906Y-69571667D01*
X224559668Y-69619286D01*
X224369191Y-69619286D01*
X224273953Y-69571667D01*
X224226334Y-69476429D01*
X224226334Y-69381190D01*
X224702525Y-69285952D01*
X223797763Y-68952619D02*
X223797763Y-69619286D01*
X223797763Y-69428810D02*
X223750144Y-69524048D01*
X223702525Y-69571667D01*
X223607287Y-69619286D01*
X223512048Y-69619286D01*
X222559667Y-69619286D02*
X222178715Y-69619286D01*
X222416810Y-69952619D02*
X222416810Y-69095476D01*
X222369191Y-69000238D01*
X222273953Y-68952619D01*
X222178715Y-68952619D01*
X221702524Y-68952619D02*
X221797762Y-69000238D01*
X221845381Y-69047857D01*
X221893000Y-69143095D01*
X221893000Y-69428810D01*
X221845381Y-69524048D01*
X221797762Y-69571667D01*
X221702524Y-69619286D01*
X221559666Y-69619286D01*
X221464428Y-69571667D01*
X221416809Y-69524048D01*
X221369190Y-69428810D01*
X221369190Y-69143095D01*
X221416809Y-69047857D01*
X221464428Y-69000238D01*
X221559666Y-68952619D01*
X221702524Y-68952619D01*
X219702523Y-68952619D02*
X220178714Y-68952619D01*
X220178714Y-69952619D01*
X219416809Y-69238333D02*
X218940618Y-69238333D01*
X219512047Y-68952619D02*
X219178714Y-69952619D01*
X218845380Y-68952619D01*
X218512047Y-68952619D02*
X218512047Y-69952619D01*
X217940618Y-68952619D01*
X217940618Y-69952619D01*
X228797763Y-68064524D02*
X228797763Y-67302619D01*
X228750144Y-67302619D02*
X228750144Y-68064524D01*
X228702525Y-68064524D02*
X228702525Y-67302619D01*
X228654906Y-67302619D02*
X228654906Y-68064524D01*
X228607287Y-68064524D02*
X228607287Y-67302619D01*
X228559667Y-67302619D02*
X228559667Y-68064524D01*
X228512048Y-68064524D02*
X228512048Y-67302619D01*
X228464429Y-67302619D02*
X228464429Y-68064524D01*
X228416810Y-68064524D02*
X228416810Y-67302619D01*
X228369191Y-67302619D02*
X228369191Y-68064524D01*
X228321572Y-68064524D02*
X228321572Y-67302619D01*
X228273953Y-67302619D02*
X228273953Y-68064524D01*
X228226334Y-68064524D02*
X228226334Y-67302619D01*
X228178715Y-67302619D02*
X228178715Y-68064524D01*
X228131096Y-68064524D02*
X228131096Y-67302619D01*
X228845382Y-68064524D02*
X228083477Y-68064524D01*
X228083477Y-67302619D01*
X228845382Y-67302619D01*
X228845382Y-68064524D01*
X227131096Y-67302619D02*
X227607287Y-67302619D01*
X227607287Y-68302619D01*
X226845382Y-67588333D02*
X226369191Y-67588333D01*
X226940620Y-67302619D02*
X226607287Y-68302619D01*
X226273953Y-67302619D01*
X225940620Y-67302619D02*
X225940620Y-68302619D01*
X225369191Y-67302619D01*
X225369191Y-68302619D01*
X224273953Y-67969286D02*
X223893001Y-67969286D01*
X224131096Y-68302619D02*
X224131096Y-67445476D01*
X224083477Y-67350238D01*
X223988239Y-67302619D01*
X223893001Y-67302619D01*
X223416810Y-67302619D02*
X223512048Y-67350238D01*
X223559667Y-67397857D01*
X223607286Y-67493095D01*
X223607286Y-67778810D01*
X223559667Y-67874048D01*
X223512048Y-67921667D01*
X223416810Y-67969286D01*
X223273952Y-67969286D01*
X223178714Y-67921667D01*
X223131095Y-67874048D01*
X223083476Y-67778810D01*
X223083476Y-67493095D01*
X223131095Y-67397857D01*
X223178714Y-67350238D01*
X223273952Y-67302619D01*
X223416810Y-67302619D01*
X221893000Y-67302619D02*
X221893000Y-68302619D01*
X221512047Y-68302619D01*
X221416809Y-68255000D01*
X221369190Y-68207381D01*
X221321571Y-68112143D01*
X221321571Y-67969286D01*
X221369190Y-67874048D01*
X221416809Y-67826429D01*
X221512047Y-67778810D01*
X221893000Y-67778810D01*
X220750143Y-67302619D02*
X220845381Y-67350238D01*
X220893000Y-67397857D01*
X220940619Y-67493095D01*
X220940619Y-67778810D01*
X220893000Y-67874048D01*
X220845381Y-67921667D01*
X220750143Y-67969286D01*
X220607285Y-67969286D01*
X220512047Y-67921667D01*
X220464428Y-67874048D01*
X220416809Y-67778810D01*
X220416809Y-67493095D01*
X220464428Y-67397857D01*
X220512047Y-67350238D01*
X220607285Y-67302619D01*
X220750143Y-67302619D01*
X220083476Y-67969286D02*
X219893000Y-67302619D01*
X219702523Y-67778810D01*
X219512047Y-67302619D01*
X219321571Y-67969286D01*
X218559666Y-67350238D02*
X218654904Y-67302619D01*
X218845381Y-67302619D01*
X218940619Y-67350238D01*
X218988238Y-67445476D01*
X218988238Y-67826429D01*
X218940619Y-67921667D01*
X218845381Y-67969286D01*
X218654904Y-67969286D01*
X218559666Y-67921667D01*
X218512047Y-67826429D01*
X218512047Y-67731190D01*
X218988238Y-67635952D01*
X218083476Y-67302619D02*
X218083476Y-67969286D01*
X218083476Y-67778810D02*
X218035857Y-67874048D01*
X217988238Y-67921667D01*
X217893000Y-67969286D01*
X217797761Y-67969286D01*
D18*
X216324571Y-61221429D02*
X214824571Y-61221429D01*
X216324571Y-60364286D01*
X214824571Y-60364286D01*
X214824571Y-59364286D02*
X214824571Y-59078572D01*
X214896000Y-58935714D01*
X215038857Y-58792857D01*
X215324571Y-58721429D01*
X215824571Y-58721429D01*
X216110286Y-58792857D01*
X216253143Y-58935714D01*
X216324571Y-59078572D01*
X216324571Y-59364286D01*
X216253143Y-59507143D01*
X216110286Y-59650000D01*
X215824571Y-59721429D01*
X215324571Y-59721429D01*
X215038857Y-59650000D01*
X214896000Y-59507143D01*
X214824571Y-59364286D01*
X216324571Y-57221428D02*
X215610286Y-57721428D01*
X216324571Y-58078571D02*
X214824571Y-58078571D01*
X214824571Y-57507143D01*
X214896000Y-57364285D01*
X214967429Y-57292857D01*
X215110286Y-57221428D01*
X215324571Y-57221428D01*
X215467429Y-57292857D01*
X215538857Y-57364285D01*
X215610286Y-57507143D01*
X215610286Y-58078571D01*
X216324571Y-56578571D02*
X214824571Y-56578571D01*
X215896000Y-56078571D01*
X214824571Y-55578571D01*
X216324571Y-55578571D01*
X215896000Y-54935714D02*
X215896000Y-54221428D01*
X216324571Y-55078571D02*
X214824571Y-54578571D01*
X216324571Y-54078571D01*
X216324571Y-52864285D02*
X216324571Y-53578571D01*
X214824571Y-53578571D01*
X216324571Y-81867143D02*
X214824571Y-81867143D01*
X214824571Y-81295715D01*
X214896000Y-81152857D01*
X214967429Y-81081429D01*
X215110286Y-81010000D01*
X215324571Y-81010000D01*
X215467429Y-81081429D01*
X215538857Y-81152857D01*
X215610286Y-81295715D01*
X215610286Y-81867143D01*
X214824571Y-80081429D02*
X214824571Y-79795715D01*
X214896000Y-79652857D01*
X215038857Y-79510000D01*
X215324571Y-79438572D01*
X215824571Y-79438572D01*
X216110286Y-79510000D01*
X216253143Y-79652857D01*
X216324571Y-79795715D01*
X216324571Y-80081429D01*
X216253143Y-80224286D01*
X216110286Y-80367143D01*
X215824571Y-80438572D01*
X215324571Y-80438572D01*
X215038857Y-80367143D01*
X214896000Y-80224286D01*
X214824571Y-80081429D01*
X215538857Y-78795714D02*
X215538857Y-78295714D01*
X216324571Y-78081428D02*
X216324571Y-78795714D01*
X214824571Y-78795714D01*
X214824571Y-78081428D01*
D13*
X229503000Y-105410000D02*
G75*
G03X229503000Y-105410000I-15000000J0D01*
G01*
X229503000Y-135890000D02*
G75*
G03X229503000Y-135890000I-15000000J0D01*
G01*
X161020760Y-124206000D02*
G75*
G03X161020760Y-124206000I-1000760J0D01*
G01*
X166220140Y-124206000D02*
G75*
G03X166220140Y-124206000I-6200140J0D01*
G01*
X136533000Y-117331000D02*
X136533000Y-99331000D01*
X136533000Y-99331000D02*
X137933000Y-99331000D01*
X142333000Y-99331000D02*
X137933000Y-99331000D01*
X136733000Y-117331000D02*
X136533000Y-117331000D01*
X142433000Y-117331000D02*
X142433000Y-99331000D01*
X142733000Y-117331000D02*
X136733000Y-117331000D01*
X142733000Y-117331000D02*
X142333000Y-117331000D01*
X142333000Y-99331000D02*
X142733000Y-99331000D01*
X156733000Y-117331000D02*
X156733000Y-99331000D01*
X156733000Y-117331000D02*
X142733000Y-117331000D01*
X142733000Y-99331000D02*
X156733000Y-99331000D01*
X166283000Y-94826000D02*
X166283000Y-95276000D01*
X171733000Y-93726000D02*
G75*
G03X171733000Y-93726000I-2950000J0D01*
G01*
X166283000Y-92626000D02*
X166283000Y-92176000D01*
X138938000Y-128611000D02*
X136438000Y-128611000D01*
X136438000Y-128611000D02*
X136438000Y-123611000D01*
X136438000Y-123611000D02*
X138938000Y-123611000D01*
X138938000Y-123611000D02*
X138938000Y-122611000D01*
X138938000Y-122611000D02*
X153438000Y-122611000D01*
X153438000Y-122611000D02*
X153438000Y-129611000D01*
X153438000Y-129611000D02*
X138938000Y-129611000D01*
X138938000Y-129611000D02*
X138938000Y-128611000D01*
X173624500Y-109965500D02*
X169624500Y-109965500D01*
X169624500Y-109965500D02*
X169624500Y-114965500D01*
X169624500Y-114965500D02*
X173624500Y-114965500D01*
X173624500Y-114965500D02*
X173624500Y-109965500D01*
X168038714Y-104965500D02*
G75*
G03X168038714Y-104965500I-1414214J0D01*
G01*
X175624500Y-101965500D02*
X168624500Y-101965500D01*
X168624500Y-101965500D02*
X168624500Y-108965500D01*
X168624500Y-108965500D02*
X175624500Y-108965500D01*
X175624500Y-108965500D02*
X175624500Y-101965500D01*
X175624500Y-101965500D02*
X169624500Y-101965500D01*
X175624500Y-107965500D02*
X175624500Y-101965500D01*
X176374500Y-100215500D02*
X176374500Y-117715500D01*
X176374500Y-117715500D02*
X164874500Y-117715500D01*
X164874500Y-117715500D02*
X164874500Y-100215500D01*
X164874500Y-100215500D02*
X176374500Y-100215500D01*
X162037000Y-133461000D02*
X162037000Y-129961000D01*
X162037000Y-129961000D02*
X175037000Y-129961000D01*
X175037000Y-129961000D02*
X175037000Y-136961000D01*
X175037000Y-136961000D02*
X162037000Y-136961000D01*
X162037000Y-136961000D02*
X162037000Y-133461000D01*
X177167540Y-109199180D02*
X176768760Y-109600500D01*
X177167540Y-101602040D02*
X176667160Y-101602040D01*
X174368460Y-101602040D02*
X174868840Y-101602040D01*
X176067720Y-101602040D02*
X175567340Y-101602040D01*
X176067720Y-109600500D02*
X175567340Y-109600500D01*
X174368460Y-109600500D02*
X174868840Y-109600500D01*
X177167540Y-109600500D02*
X176667160Y-109600500D01*
X174368460Y-102600260D02*
X174368460Y-103298760D01*
X174368460Y-108599740D02*
X174368460Y-107901240D01*
X174368460Y-107301800D02*
X174368460Y-106603300D01*
X174368460Y-106001320D02*
X174368460Y-105302820D01*
X174368460Y-104700840D02*
X174368460Y-104002340D01*
X177167540Y-104700840D02*
X177167540Y-104002340D01*
X177167540Y-106001320D02*
X177167540Y-105302820D01*
X177167540Y-107301800D02*
X177167540Y-106603300D01*
X177167540Y-108599740D02*
X177167540Y-107901240D01*
X177167540Y-102600260D02*
X177167540Y-103298760D01*
X177167540Y-101599500D02*
X177167540Y-102000820D01*
X174368460Y-101599500D02*
X174368460Y-102000820D01*
X177167540Y-109600500D02*
X177167540Y-109199180D01*
X174368460Y-109600500D02*
X174368460Y-109199180D01*
X171568000Y-105426000D02*
X171568000Y-107426000D01*
X173618000Y-107426000D02*
X173618000Y-105426000D01*
X175315000Y-123851000D02*
X175315000Y-130149000D01*
X175455000Y-123857000D02*
X175455000Y-130143000D01*
X175595000Y-123870000D02*
X175595000Y-126554000D01*
X175595000Y-127446000D02*
X175595000Y-130130000D01*
X175735000Y-123889000D02*
X175735000Y-126344000D01*
X175735000Y-127656000D02*
X175735000Y-130111000D01*
X175875000Y-123915000D02*
X175875000Y-126211000D01*
X175875000Y-127789000D02*
X175875000Y-130085000D01*
X176015000Y-123947000D02*
X176015000Y-126120000D01*
X176015000Y-127880000D02*
X176015000Y-130053000D01*
X176155000Y-123986000D02*
X176155000Y-126058000D01*
X176155000Y-127942000D02*
X176155000Y-130014000D01*
X176295000Y-124032000D02*
X176295000Y-126019000D01*
X176295000Y-127981000D02*
X176295000Y-129968000D01*
X176435000Y-124085000D02*
X176435000Y-126002000D01*
X176435000Y-127998000D02*
X176435000Y-129915000D01*
X176575000Y-124147000D02*
X176575000Y-126004000D01*
X176575000Y-127996000D02*
X176575000Y-129853000D01*
X176715000Y-124217000D02*
X176715000Y-126026000D01*
X176715000Y-127974000D02*
X176715000Y-129783000D01*
X176855000Y-124296000D02*
X176855000Y-126069000D01*
X176855000Y-127931000D02*
X176855000Y-129704000D01*
X176995000Y-124384000D02*
X176995000Y-126137000D01*
X176995000Y-127863000D02*
X176995000Y-129616000D01*
X177135000Y-124484000D02*
X177135000Y-126236000D01*
X177135000Y-127764000D02*
X177135000Y-129516000D01*
X177275000Y-124596000D02*
X177275000Y-126381000D01*
X177275000Y-127619000D02*
X177275000Y-129404000D01*
X177415000Y-124721000D02*
X177415000Y-126620000D01*
X177415000Y-127380000D02*
X177415000Y-129279000D01*
X177555000Y-124864000D02*
X177555000Y-129136000D01*
X177695000Y-125026000D02*
X177695000Y-128974000D01*
X177835000Y-125214000D02*
X177835000Y-128786000D01*
X177975000Y-125437000D02*
X177975000Y-128563000D01*
X178115000Y-125713000D02*
X178115000Y-128287000D01*
X178255000Y-126088000D02*
X178255000Y-127912000D01*
X177490000Y-127000000D02*
G75*
G03X177490000Y-127000000I-1000000J0D01*
G01*
X178427500Y-127000000D02*
G75*
G03X178427500Y-127000000I-3187500J0D01*
G01*
X167916860Y-119230140D02*
X167916860Y-119931180D01*
X167916860Y-119931180D02*
X167116760Y-119931180D01*
X171719240Y-119230140D02*
X167116760Y-119230140D01*
X167116760Y-119230140D02*
X167116760Y-122831860D01*
X167116760Y-122831860D02*
X171719240Y-122831860D01*
X171719240Y-122831860D02*
X171719240Y-119230140D01*
X174593000Y-150891000D02*
X174593000Y-139141000D01*
X162593000Y-139141000D02*
X162593000Y-150891000D01*
X162593000Y-139141000D02*
X174593000Y-139141000D01*
X162593000Y-142241000D02*
X174593000Y-142241000D01*
X174593000Y-150891000D02*
X162593000Y-150891000D01*
X180213000Y-125476000D02*
X182753000Y-125476000D01*
X181632903Y-125476000D02*
G75*
G03X181632903Y-125476000I-1419903J0D01*
G01*
X161020760Y-126746000D02*
G75*
G03X161020760Y-126746000I-1000760J0D01*
G01*
X166220140Y-126746000D02*
G75*
G03X166220140Y-126746000I-6200140J0D01*
G01*
X163703000Y-105156000D02*
G75*
G03X163703000Y-105156000I-2540000J0D01*
G01*
X164973000Y-101346000D02*
X164973000Y-108966000D01*
X164973000Y-108966000D02*
X157353000Y-108966000D01*
X157353000Y-108966000D02*
X157353000Y-101346000D01*
X164973000Y-101346000D02*
X157353000Y-101346000D01*
X145558000Y-121421000D02*
X147558000Y-121421000D01*
X147558000Y-119371000D02*
X145558000Y-119371000D01*
X153273000Y-119371000D02*
X151273000Y-119371000D01*
X151273000Y-121421000D02*
X153273000Y-121421000D01*
X161172000Y-126525000D02*
X161172000Y-124525000D01*
X159122000Y-124525000D02*
X159122000Y-126525000D01*
X158008000Y-114296000D02*
X158008000Y-111296000D01*
X160508000Y-111296000D02*
X160508000Y-114296000D01*
X158568000Y-138785000D02*
X158568000Y-132487000D01*
X158428000Y-138779000D02*
X158428000Y-132493000D01*
X158288000Y-138766000D02*
X158288000Y-136082000D01*
X158288000Y-135190000D02*
X158288000Y-132506000D01*
X158148000Y-138747000D02*
X158148000Y-136292000D01*
X158148000Y-134980000D02*
X158148000Y-132525000D01*
X158008000Y-138721000D02*
X158008000Y-136425000D01*
X158008000Y-134847000D02*
X158008000Y-132551000D01*
X157868000Y-138689000D02*
X157868000Y-136516000D01*
X157868000Y-134756000D02*
X157868000Y-132583000D01*
X157728000Y-138650000D02*
X157728000Y-136578000D01*
X157728000Y-134694000D02*
X157728000Y-132622000D01*
X157588000Y-138604000D02*
X157588000Y-136617000D01*
X157588000Y-134655000D02*
X157588000Y-132668000D01*
X157448000Y-138551000D02*
X157448000Y-136634000D01*
X157448000Y-134638000D02*
X157448000Y-132721000D01*
X157308000Y-138489000D02*
X157308000Y-136632000D01*
X157308000Y-134640000D02*
X157308000Y-132783000D01*
X157168000Y-138419000D02*
X157168000Y-136610000D01*
X157168000Y-134662000D02*
X157168000Y-132853000D01*
X157028000Y-138340000D02*
X157028000Y-136567000D01*
X157028000Y-134705000D02*
X157028000Y-132932000D01*
X156888000Y-138252000D02*
X156888000Y-136499000D01*
X156888000Y-134773000D02*
X156888000Y-133020000D01*
X156748000Y-138152000D02*
X156748000Y-136400000D01*
X156748000Y-134872000D02*
X156748000Y-133120000D01*
X156608000Y-138040000D02*
X156608000Y-136255000D01*
X156608000Y-135017000D02*
X156608000Y-133232000D01*
X156468000Y-137915000D02*
X156468000Y-136016000D01*
X156468000Y-135256000D02*
X156468000Y-133357000D01*
X156328000Y-137772000D02*
X156328000Y-133500000D01*
X156188000Y-137610000D02*
X156188000Y-133662000D01*
X156048000Y-137422000D02*
X156048000Y-133850000D01*
X155908000Y-137199000D02*
X155908000Y-134073000D01*
X155768000Y-136923000D02*
X155768000Y-134349000D01*
X155628000Y-136548000D02*
X155628000Y-134724000D01*
X158393000Y-135636000D02*
G75*
G03X158393000Y-135636000I-1000000J0D01*
G01*
X161830500Y-135636000D02*
G75*
G03X161830500Y-135636000I-3187500J0D01*
G01*
X158488000Y-118906000D02*
X158488000Y-116806000D01*
X163838000Y-118906000D02*
X163838000Y-116806000D01*
X154787600Y-134670800D02*
X154787600Y-137210800D01*
X155067600Y-131850800D02*
X155067600Y-133400800D01*
X154787600Y-134670800D02*
X152247600Y-134670800D01*
X151967600Y-133400800D02*
X151967600Y-131850800D01*
X151967600Y-131850800D02*
X155067600Y-131850800D01*
X152247600Y-134670800D02*
X152247600Y-137210800D01*
X152247600Y-137210800D02*
X154787600Y-137210800D01*
X182483000Y-129726000D02*
X180483000Y-129726000D01*
X180483000Y-127576000D02*
X182483000Y-127576000D01*
X163703000Y-95631000D02*
G75*
G03X163703000Y-95631000I-2540000J0D01*
G01*
X157353000Y-99441000D02*
X157353000Y-91821000D01*
X157353000Y-91821000D02*
X164973000Y-91821000D01*
X164973000Y-91821000D02*
X164973000Y-99441000D01*
X157353000Y-99441000D02*
X164973000Y-99441000D01*
X169688000Y-116976000D02*
X171688000Y-116976000D01*
X171688000Y-114926000D02*
X169688000Y-114926000D01*
X167783000Y-104276000D02*
X169783000Y-104276000D01*
X169783000Y-102226000D02*
X167783000Y-102226000D01*
X168838000Y-123597000D02*
X168838000Y-129895000D01*
X168978000Y-123603000D02*
X168978000Y-129889000D01*
X169118000Y-123616000D02*
X169118000Y-126300000D01*
X169118000Y-127192000D02*
X169118000Y-129876000D01*
X169258000Y-123635000D02*
X169258000Y-126090000D01*
X169258000Y-127402000D02*
X169258000Y-129857000D01*
X169398000Y-123661000D02*
X169398000Y-125957000D01*
X169398000Y-127535000D02*
X169398000Y-129831000D01*
X169538000Y-123693000D02*
X169538000Y-125866000D01*
X169538000Y-127626000D02*
X169538000Y-129799000D01*
X169678000Y-123732000D02*
X169678000Y-125804000D01*
X169678000Y-127688000D02*
X169678000Y-129760000D01*
X169818000Y-123778000D02*
X169818000Y-125765000D01*
X169818000Y-127727000D02*
X169818000Y-129714000D01*
X169958000Y-123831000D02*
X169958000Y-125748000D01*
X169958000Y-127744000D02*
X169958000Y-129661000D01*
X170098000Y-123893000D02*
X170098000Y-125750000D01*
X170098000Y-127742000D02*
X170098000Y-129599000D01*
X170238000Y-123963000D02*
X170238000Y-125772000D01*
X170238000Y-127720000D02*
X170238000Y-129529000D01*
X170378000Y-124042000D02*
X170378000Y-125815000D01*
X170378000Y-127677000D02*
X170378000Y-129450000D01*
X170518000Y-124130000D02*
X170518000Y-125883000D01*
X170518000Y-127609000D02*
X170518000Y-129362000D01*
X170658000Y-124230000D02*
X170658000Y-125982000D01*
X170658000Y-127510000D02*
X170658000Y-129262000D01*
X170798000Y-124342000D02*
X170798000Y-126127000D01*
X170798000Y-127365000D02*
X170798000Y-129150000D01*
X170938000Y-124467000D02*
X170938000Y-126366000D01*
X170938000Y-127126000D02*
X170938000Y-129025000D01*
X171078000Y-124610000D02*
X171078000Y-128882000D01*
X171218000Y-124772000D02*
X171218000Y-128720000D01*
X171358000Y-124960000D02*
X171358000Y-128532000D01*
X171498000Y-125183000D02*
X171498000Y-128309000D01*
X171638000Y-125459000D02*
X171638000Y-128033000D01*
X171778000Y-125834000D02*
X171778000Y-127658000D01*
X171013000Y-126746000D02*
G75*
G03X171013000Y-126746000I-1000000J0D01*
G01*
X171950500Y-126746000D02*
G75*
G03X171950500Y-126746000I-3187500J0D01*
G01*
X167183000Y-107361000D02*
G75*
G03X167183000Y-107361000I-100000J0D01*
G01*
X167333000Y-106811000D02*
X167333000Y-107311000D01*
X170233000Y-106811000D02*
X167333000Y-106811000D01*
X170233000Y-107311000D02*
X170233000Y-106811000D01*
X167333000Y-107311000D02*
X170233000Y-107311000D01*
X173575000Y-91368500D02*
X175675000Y-91368500D01*
X173575000Y-96718500D02*
X175675000Y-96718500D01*
X224536000Y-40640000D02*
X214376000Y-40640000D01*
X224536000Y-41910000D02*
X224536000Y-34290000D01*
X224536000Y-34290000D02*
X214376000Y-34290000D01*
X214376000Y-34290000D02*
X214376000Y-41910000D01*
X214376000Y-41910000D02*
X224536000Y-41910000D01*
X215646000Y-53975000D02*
X215646000Y-52959000D01*
X215646000Y-52959000D02*
X214630000Y-52959000D01*
X214630000Y-52959000D02*
X214630000Y-44831000D01*
X214630000Y-44831000D02*
X216662000Y-44831000D01*
X216662000Y-44831000D02*
X216662000Y-52959000D01*
X216662000Y-52959000D02*
X215646000Y-52959000D01*
X215138000Y-52959000D02*
X214630000Y-52451000D01*
X215646000Y-43815000D02*
X215646000Y-44831000D01*
X208026000Y-62230000D02*
X208026000Y-62738000D01*
X208026000Y-69850000D02*
X208026000Y-69342000D01*
X208026000Y-69342000D02*
X209042000Y-69342000D01*
X209042000Y-69342000D02*
X209042000Y-62738000D01*
X209042000Y-62738000D02*
X207010000Y-62738000D01*
X207010000Y-62738000D02*
X207010000Y-69342000D01*
X207010000Y-69342000D02*
X208026000Y-69342000D01*
X208534000Y-62738000D02*
X209042000Y-63246000D01*
X227287000Y-43631000D02*
X227287000Y-43831000D01*
X227287000Y-46225000D02*
X227287000Y-46045000D01*
X224059256Y-45914643D02*
G75*
G03X227287000Y-46231000I1727744J1003643D01*
G01*
X224734994Y-46044068D02*
G75*
G03X226838000Y-46045000I1052006J1133068D01*
G01*
X227274220Y-43604274D02*
G75*
G03X224037000Y-43951000I-1497220J-1306726D01*
G01*
X226800889Y-43831747D02*
G75*
G03X224753000Y-43851000I-1013889J-1079253D01*
G01*
X212979000Y-77216000D02*
G75*
G03X212979000Y-77216000I-1778000J0D01*
G01*
X212979000Y-46736000D02*
G75*
G03X212979000Y-46736000I-1778000J0D01*
G01*
X196469000Y-46736000D02*
G75*
G03X196469000Y-46736000I-1778000J0D01*
G01*
X196469000Y-77216000D02*
G75*
G03X196469000Y-77216000I-1778000J0D01*
G01*
X196215000Y-46736000D02*
G75*
G03X196215000Y-46736000I-1524000J0D01*
G01*
X212725000Y-77216000D02*
G75*
G03X212725000Y-77216000I-1524000J0D01*
G01*
X212725000Y-46736000D02*
G75*
G03X212725000Y-46736000I-1524000J0D01*
G01*
X196215000Y-77216000D02*
G75*
G03X196215000Y-77216000I-1524000J0D01*
G01*
X211709000Y-41148000D02*
X211709000Y-42164000D01*
X213741000Y-40132000D02*
X192151000Y-40132000D01*
X192151000Y-40132000D02*
X192151000Y-83820000D01*
X192151000Y-83820000D02*
X213741000Y-83820000D01*
X213741000Y-83820000D02*
X213741000Y-40132000D01*
X232156000Y-88138000D02*
X226568000Y-88138000D01*
X229997000Y-88138000D02*
X229997000Y-71882000D01*
X217551000Y-88138000D02*
X217551000Y-71882000D01*
X217551000Y-71882000D02*
X232156000Y-71882000D01*
X232156000Y-71882000D02*
X232156000Y-87884000D01*
X232156000Y-87884000D02*
X232156000Y-88138000D01*
X232156000Y-88138000D02*
X217551000Y-88138000D01*
X217551000Y-72390000D02*
X217551000Y-87630000D01*
X232156000Y-65278000D02*
X226568000Y-65278000D01*
X229997000Y-65278000D02*
X229997000Y-49022000D01*
X217551000Y-65278000D02*
X217551000Y-49022000D01*
X217551000Y-49022000D02*
X232156000Y-49022000D01*
X232156000Y-49022000D02*
X232156000Y-65024000D01*
X232156000Y-65024000D02*
X232156000Y-65278000D01*
X232156000Y-65278000D02*
X217551000Y-65278000D01*
X217551000Y-49530000D02*
X217551000Y-64770000D01*
D20*
X163123880Y-75049380D02*
X154122120Y-75049380D01*
X154122120Y-75049380D02*
X154122120Y-89550240D01*
X154122120Y-89550240D02*
X163123880Y-89550240D01*
X163123880Y-89550240D02*
X163123880Y-75049380D01*
D13*
X202518000Y-35085000D02*
X151718000Y-35085000D01*
X154258000Y-40165000D02*
X202518000Y-40165000D01*
X202518000Y-35085000D02*
X202518000Y-40165000D01*
X151718000Y-35085000D02*
X151718000Y-37625000D01*
X151438000Y-38895000D02*
X151438000Y-40445000D01*
X151718000Y-37625000D02*
X154258000Y-37625000D01*
X154258000Y-37625000D02*
X154258000Y-40165000D01*
X151438000Y-40445000D02*
X152988000Y-40445000D01*
X165108095Y-117498762D02*
X165250952Y-117546381D01*
X165489048Y-117546381D01*
X165584286Y-117498762D01*
X165631905Y-117451143D01*
X165679524Y-117355905D01*
X165679524Y-117260667D01*
X165631905Y-117165429D01*
X165584286Y-117117810D01*
X165489048Y-117070190D01*
X165298571Y-117022571D01*
X165203333Y-116974952D01*
X165155714Y-116927333D01*
X165108095Y-116832095D01*
X165108095Y-116736857D01*
X165155714Y-116641619D01*
X165203333Y-116594000D01*
X165298571Y-116546381D01*
X165536667Y-116546381D01*
X165679524Y-116594000D01*
X166108095Y-117546381D02*
X166108095Y-116546381D01*
X166489048Y-116546381D01*
X166584286Y-116594000D01*
X166631905Y-116641619D01*
X166679524Y-116736857D01*
X166679524Y-116879714D01*
X166631905Y-116974952D01*
X166584286Y-117022571D01*
X166489048Y-117070190D01*
X166108095Y-117070190D01*
X167631905Y-117546381D02*
X167060476Y-117546381D01*
X167346190Y-117546381D02*
X167346190Y-116546381D01*
X167250952Y-116689238D01*
X167155714Y-116784476D01*
X167060476Y-116832095D01*
X156900952Y-131595762D02*
X157043809Y-131643381D01*
X157281905Y-131643381D01*
X157377143Y-131595762D01*
X157424762Y-131548143D01*
X157472381Y-131452905D01*
X157472381Y-131357667D01*
X157424762Y-131262429D01*
X157377143Y-131214810D01*
X157281905Y-131167190D01*
X157091428Y-131119571D01*
X156996190Y-131071952D01*
X156948571Y-131024333D01*
X156900952Y-130929095D01*
X156900952Y-130833857D01*
X156948571Y-130738619D01*
X156996190Y-130691000D01*
X157091428Y-130643381D01*
X157329524Y-130643381D01*
X157472381Y-130691000D01*
X157900952Y-131643381D02*
X157900952Y-130643381D01*
X158281905Y-130643381D01*
X158377143Y-130691000D01*
X158424762Y-130738619D01*
X158472381Y-130833857D01*
X158472381Y-130976714D01*
X158424762Y-131071952D01*
X158377143Y-131119571D01*
X158281905Y-131167190D01*
X157900952Y-131167190D01*
X158900952Y-131119571D02*
X159234286Y-131119571D01*
X159377143Y-131643381D02*
X158900952Y-131643381D01*
X158900952Y-130643381D01*
X159377143Y-130643381D01*
X159758095Y-131357667D02*
X160234286Y-131357667D01*
X159662857Y-131643381D02*
X159996190Y-130643381D01*
X160329524Y-131643381D01*
X160662857Y-131643381D02*
X160662857Y-130643381D01*
X161234286Y-131643381D02*
X160805714Y-131071952D01*
X161234286Y-130643381D02*
X160662857Y-131214810D01*
X161662857Y-131119571D02*
X161996191Y-131119571D01*
X162139048Y-131643381D02*
X161662857Y-131643381D01*
X161662857Y-130643381D01*
X162139048Y-130643381D01*
X163139048Y-131643381D02*
X162805714Y-131167190D01*
X162567619Y-131643381D02*
X162567619Y-130643381D01*
X162948572Y-130643381D01*
X163043810Y-130691000D01*
X163091429Y-130738619D01*
X163139048Y-130833857D01*
X163139048Y-130976714D01*
X163091429Y-131071952D01*
X163043810Y-131119571D01*
X162948572Y-131167190D01*
X162567619Y-131167190D01*
X154940048Y-121356429D02*
X155701953Y-121356429D01*
X155321001Y-121737381D02*
X155321001Y-120975476D01*
X157175857Y-109245286D02*
X158147286Y-109245286D01*
X158261571Y-109188143D01*
X158318714Y-109131000D01*
X158375857Y-109016714D01*
X158375857Y-108788143D01*
X158318714Y-108673857D01*
X158261571Y-108616714D01*
X158147286Y-108559571D01*
X157175857Y-108559571D01*
X158375857Y-107359571D02*
X158375857Y-108045286D01*
X158375857Y-107702428D02*
X157175857Y-107702428D01*
X157347286Y-107816714D01*
X157461571Y-107931000D01*
X157518714Y-108045286D01*
X165080381Y-94464095D02*
X164080381Y-94464095D01*
X164080381Y-94226000D01*
X164128000Y-94083142D01*
X164223238Y-93987904D01*
X164318476Y-93940285D01*
X164508952Y-93892666D01*
X164651810Y-93892666D01*
X164842286Y-93940285D01*
X164937524Y-93987904D01*
X165032762Y-94083142D01*
X165080381Y-94226000D01*
X165080381Y-94464095D01*
X164175619Y-93511714D02*
X164128000Y-93464095D01*
X164080381Y-93368857D01*
X164080381Y-93130761D01*
X164128000Y-93035523D01*
X164175619Y-92987904D01*
X164270857Y-92940285D01*
X164366095Y-92940285D01*
X164508952Y-92987904D01*
X165080381Y-93559333D01*
X165080381Y-92940285D01*
X170745352Y-100290381D02*
X170935829Y-100290381D01*
X171031067Y-100338000D01*
X171126305Y-100433238D01*
X171173924Y-100623714D01*
X171173924Y-100957048D01*
X171126305Y-101147524D01*
X171031067Y-101242762D01*
X170935829Y-101290381D01*
X170745352Y-101290381D01*
X170650114Y-101242762D01*
X170554876Y-101147524D01*
X170507257Y-100957048D01*
X170507257Y-100623714D01*
X170554876Y-100433238D01*
X170650114Y-100338000D01*
X170745352Y-100290381D01*
X171602495Y-100290381D02*
X171602495Y-101099905D01*
X171650114Y-101195143D01*
X171697733Y-101242762D01*
X171792971Y-101290381D01*
X171983448Y-101290381D01*
X172078686Y-101242762D01*
X172126305Y-101195143D01*
X172173924Y-101099905D01*
X172173924Y-100290381D01*
X172507257Y-100290381D02*
X173078686Y-100290381D01*
X172792971Y-101290381D02*
X172792971Y-100290381D01*
X173412019Y-100909429D02*
X174173924Y-100909429D01*
X173792972Y-101290381D02*
X173792972Y-100528476D01*
X166732152Y-100239581D02*
X166922629Y-100239581D01*
X167017867Y-100287200D01*
X167113105Y-100382438D01*
X167160724Y-100572914D01*
X167160724Y-100906248D01*
X167113105Y-101096724D01*
X167017867Y-101191962D01*
X166922629Y-101239581D01*
X166732152Y-101239581D01*
X166636914Y-101191962D01*
X166541676Y-101096724D01*
X166494057Y-100906248D01*
X166494057Y-100572914D01*
X166541676Y-100382438D01*
X166636914Y-100287200D01*
X166732152Y-100239581D01*
X167589295Y-100239581D02*
X167589295Y-101049105D01*
X167636914Y-101144343D01*
X167684533Y-101191962D01*
X167779771Y-101239581D01*
X167970248Y-101239581D01*
X168065486Y-101191962D01*
X168113105Y-101144343D01*
X168160724Y-101049105D01*
X168160724Y-100239581D01*
X168494057Y-100239581D02*
X169065486Y-100239581D01*
X168779771Y-101239581D02*
X168779771Y-100239581D01*
X169398819Y-100858629D02*
X170160724Y-100858629D01*
X161861643Y-117418881D02*
X161861643Y-116418881D01*
X162337833Y-117418881D02*
X162337833Y-116418881D01*
X162909262Y-117418881D01*
X162909262Y-116418881D01*
X163385452Y-117037929D02*
X164147357Y-117037929D01*
X174561643Y-119450881D02*
X174561643Y-118450881D01*
X175037833Y-119450881D02*
X175037833Y-118450881D01*
X175609262Y-119450881D01*
X175609262Y-118450881D01*
X176085452Y-119069929D02*
X176847357Y-119069929D01*
X176466405Y-119450881D02*
X176466405Y-118688976D01*
X163568714Y-129611381D02*
X163568714Y-128611381D01*
X163949667Y-128611381D01*
X164044905Y-128659000D01*
X164092524Y-128706619D01*
X164140143Y-128801857D01*
X164140143Y-128944714D01*
X164092524Y-129039952D01*
X164044905Y-129087571D01*
X163949667Y-129135190D01*
X163568714Y-129135190D01*
X165092524Y-129611381D02*
X164521095Y-129611381D01*
X164806809Y-129611381D02*
X164806809Y-128611381D01*
X164711571Y-128754238D01*
X164616333Y-128849476D01*
X164521095Y-128897095D01*
X165711571Y-128611381D02*
X165806810Y-128611381D01*
X165902048Y-128659000D01*
X165949667Y-128706619D01*
X165997286Y-128801857D01*
X166044905Y-128992333D01*
X166044905Y-129230429D01*
X165997286Y-129420905D01*
X165949667Y-129516143D01*
X165902048Y-129563762D01*
X165806810Y-129611381D01*
X165711571Y-129611381D01*
X165616333Y-129563762D01*
X165568714Y-129516143D01*
X165521095Y-129420905D01*
X165473476Y-129230429D01*
X165473476Y-128992333D01*
X165521095Y-128801857D01*
X165568714Y-128706619D01*
X165616333Y-128659000D01*
X165711571Y-128611381D01*
X179020221Y-106460965D02*
X179829745Y-106460965D01*
X179924983Y-106413346D01*
X179972602Y-106365727D01*
X180020221Y-106270489D01*
X180020221Y-106080012D01*
X179972602Y-105984774D01*
X179924983Y-105937155D01*
X179829745Y-105889536D01*
X179020221Y-105889536D01*
X179448792Y-105270489D02*
X179401173Y-105365727D01*
X179353554Y-105413346D01*
X179258316Y-105460965D01*
X179210697Y-105460965D01*
X179115459Y-105413346D01*
X179067840Y-105365727D01*
X179020221Y-105270489D01*
X179020221Y-105080012D01*
X179067840Y-104984774D01*
X179115459Y-104937155D01*
X179210697Y-104889536D01*
X179258316Y-104889536D01*
X179353554Y-104937155D01*
X179401173Y-104984774D01*
X179448792Y-105080012D01*
X179448792Y-105270489D01*
X179496411Y-105365727D01*
X179544030Y-105413346D01*
X179639269Y-105460965D01*
X179829745Y-105460965D01*
X179924983Y-105413346D01*
X179972602Y-105365727D01*
X180020221Y-105270489D01*
X180020221Y-105080012D01*
X179972602Y-104984774D01*
X179924983Y-104937155D01*
X179829745Y-104889536D01*
X179639269Y-104889536D01*
X179544030Y-104937155D01*
X179496411Y-104984774D01*
X179448792Y-105080012D01*
X170745381Y-106592666D02*
X170745381Y-107068857D01*
X169745381Y-107068857D01*
X170745381Y-105735523D02*
X170745381Y-106306952D01*
X170745381Y-106021238D02*
X169745381Y-106021238D01*
X169888238Y-106116476D01*
X169983476Y-106211714D01*
X170031095Y-106306952D01*
X175073334Y-122957143D02*
X175025715Y-123004762D01*
X174882858Y-123052381D01*
X174787620Y-123052381D01*
X174644762Y-123004762D01*
X174549524Y-122909524D01*
X174501905Y-122814286D01*
X174454286Y-122623810D01*
X174454286Y-122480952D01*
X174501905Y-122290476D01*
X174549524Y-122195238D01*
X174644762Y-122100000D01*
X174787620Y-122052381D01*
X174882858Y-122052381D01*
X175025715Y-122100000D01*
X175073334Y-122147619D01*
X175978096Y-122052381D02*
X175501905Y-122052381D01*
X175454286Y-122528571D01*
X175501905Y-122480952D01*
X175597143Y-122433333D01*
X175835239Y-122433333D01*
X175930477Y-122480952D01*
X175978096Y-122528571D01*
X176025715Y-122623810D01*
X176025715Y-122861905D01*
X175978096Y-122957143D01*
X175930477Y-123004762D01*
X175835239Y-123052381D01*
X175597143Y-123052381D01*
X175501905Y-123004762D01*
X175454286Y-122957143D01*
X162317181Y-112928305D02*
X163126705Y-112928305D01*
X163221943Y-112880686D01*
X163269562Y-112833067D01*
X163317181Y-112737829D01*
X163317181Y-112547352D01*
X163269562Y-112452114D01*
X163221943Y-112404495D01*
X163126705Y-112356876D01*
X162317181Y-112356876D01*
X162317181Y-111975924D02*
X162317181Y-111309257D01*
X163317181Y-111737829D01*
X164592095Y-120610381D02*
X164592095Y-121419905D01*
X164639714Y-121515143D01*
X164687333Y-121562762D01*
X164782571Y-121610381D01*
X164973048Y-121610381D01*
X165068286Y-121562762D01*
X165115905Y-121515143D01*
X165163524Y-121419905D01*
X165163524Y-120610381D01*
X166115905Y-120610381D02*
X165639714Y-120610381D01*
X165592095Y-121086571D01*
X165639714Y-121038952D01*
X165734952Y-120991333D01*
X165973048Y-120991333D01*
X166068286Y-121038952D01*
X166115905Y-121086571D01*
X166163524Y-121181810D01*
X166163524Y-121419905D01*
X166115905Y-121515143D01*
X166068286Y-121562762D01*
X165973048Y-121610381D01*
X165734952Y-121610381D01*
X165639714Y-121562762D01*
X165592095Y-121515143D01*
X139469905Y-117673381D02*
X139469905Y-116673381D01*
X139850858Y-116673381D01*
X139946096Y-116721000D01*
X139993715Y-116768619D01*
X140041334Y-116863857D01*
X140041334Y-117006714D01*
X139993715Y-117101952D01*
X139946096Y-117149571D01*
X139850858Y-117197190D01*
X139469905Y-117197190D01*
X140993715Y-117673381D02*
X140422286Y-117673381D01*
X140708000Y-117673381D02*
X140708000Y-116673381D01*
X140612762Y-116816238D01*
X140517524Y-116911476D01*
X140422286Y-116959095D01*
X177465085Y-125341029D02*
X177265085Y-125055314D01*
X177122228Y-125341029D02*
X177122228Y-124741029D01*
X177350800Y-124741029D01*
X177407942Y-124769600D01*
X177436514Y-124798171D01*
X177465085Y-124855314D01*
X177465085Y-124941029D01*
X177436514Y-124998171D01*
X177407942Y-125026743D01*
X177350800Y-125055314D01*
X177122228Y-125055314D01*
X178036514Y-125341029D02*
X177693657Y-125341029D01*
X177865085Y-125341029D02*
X177865085Y-124741029D01*
X177807942Y-124826743D01*
X177750800Y-124883886D01*
X177693657Y-124912457D01*
X178236514Y-124741029D02*
X178607943Y-124741029D01*
X178407943Y-124969600D01*
X178493657Y-124969600D01*
X178550800Y-124998171D01*
X178579371Y-125026743D01*
X178607943Y-125083886D01*
X178607943Y-125226743D01*
X178579371Y-125283886D01*
X178550800Y-125312457D01*
X178493657Y-125341029D01*
X178322229Y-125341029D01*
X178265086Y-125312457D01*
X178236514Y-125283886D01*
X158758095Y-119149762D02*
X158900952Y-119197381D01*
X159139048Y-119197381D01*
X159234286Y-119149762D01*
X159281905Y-119102143D01*
X159329524Y-119006905D01*
X159329524Y-118911667D01*
X159281905Y-118816429D01*
X159234286Y-118768810D01*
X159139048Y-118721190D01*
X158948571Y-118673571D01*
X158853333Y-118625952D01*
X158805714Y-118578333D01*
X158758095Y-118483095D01*
X158758095Y-118387857D01*
X158805714Y-118292619D01*
X158853333Y-118245000D01*
X158948571Y-118197381D01*
X159186667Y-118197381D01*
X159329524Y-118245000D01*
X159758095Y-119197381D02*
X159758095Y-118197381D01*
X160139048Y-118197381D01*
X160234286Y-118245000D01*
X160281905Y-118292619D01*
X160329524Y-118387857D01*
X160329524Y-118530714D01*
X160281905Y-118625952D01*
X160234286Y-118673571D01*
X160139048Y-118721190D01*
X159758095Y-118721190D01*
X160710476Y-118292619D02*
X160758095Y-118245000D01*
X160853333Y-118197381D01*
X161091429Y-118197381D01*
X161186667Y-118245000D01*
X161234286Y-118292619D01*
X161281905Y-118387857D01*
X161281905Y-118483095D01*
X161234286Y-118625952D01*
X160662857Y-119197381D01*
X161281905Y-119197381D01*
X158686667Y-119054571D02*
X158829524Y-119102190D01*
X158877143Y-119149810D01*
X158924762Y-119245048D01*
X158924762Y-119387905D01*
X158877143Y-119483143D01*
X158829524Y-119530762D01*
X158734286Y-119578381D01*
X158353333Y-119578381D01*
X158353333Y-118578381D01*
X158686667Y-118578381D01*
X158781905Y-118626000D01*
X158829524Y-118673619D01*
X158877143Y-118768857D01*
X158877143Y-118864095D01*
X158829524Y-118959333D01*
X158781905Y-119006952D01*
X158686667Y-119054571D01*
X158353333Y-119054571D01*
X159353333Y-119054571D02*
X159686667Y-119054571D01*
X159829524Y-119578381D02*
X159353333Y-119578381D01*
X159353333Y-118578381D01*
X159829524Y-118578381D01*
X160258095Y-119054571D02*
X160591429Y-119054571D01*
X160734286Y-119578381D02*
X160258095Y-119578381D01*
X160258095Y-118578381D01*
X160734286Y-118578381D01*
X161162857Y-119578381D02*
X161162857Y-118578381D01*
X161543810Y-118578381D01*
X161639048Y-118626000D01*
X161686667Y-118673619D01*
X161734286Y-118768857D01*
X161734286Y-118911714D01*
X161686667Y-119006952D01*
X161639048Y-119054571D01*
X161543810Y-119102190D01*
X161162857Y-119102190D01*
X155829048Y-124277429D02*
X156590953Y-124277429D01*
X156210001Y-124658381D02*
X156210001Y-123896476D01*
X162329762Y-106489333D02*
X162377381Y-106346476D01*
X162377381Y-106108380D01*
X162329762Y-106013142D01*
X162282143Y-105965523D01*
X162186905Y-105917904D01*
X162091667Y-105917904D01*
X161996429Y-105965523D01*
X161948810Y-106013142D01*
X161901190Y-106108380D01*
X161853571Y-106298857D01*
X161805952Y-106394095D01*
X161758333Y-106441714D01*
X161663095Y-106489333D01*
X161567857Y-106489333D01*
X161472619Y-106441714D01*
X161425000Y-106394095D01*
X161377381Y-106298857D01*
X161377381Y-106060761D01*
X161425000Y-105917904D01*
X161377381Y-105584571D02*
X162377381Y-105346476D01*
X161663095Y-105155999D01*
X162377381Y-104965523D01*
X161377381Y-104727428D01*
X162377381Y-103822666D02*
X162377381Y-104394095D01*
X162377381Y-104108381D02*
X161377381Y-104108381D01*
X161520238Y-104203619D01*
X161615476Y-104298857D01*
X161663095Y-104394095D01*
X146391334Y-123053143D02*
X146343715Y-123100762D01*
X146200858Y-123148381D01*
X146105620Y-123148381D01*
X145962762Y-123100762D01*
X145867524Y-123005524D01*
X145819905Y-122910286D01*
X145772286Y-122719810D01*
X145772286Y-122576952D01*
X145819905Y-122386476D01*
X145867524Y-122291238D01*
X145962762Y-122196000D01*
X146105620Y-122148381D01*
X146200858Y-122148381D01*
X146343715Y-122196000D01*
X146391334Y-122243619D01*
X146772286Y-122243619D02*
X146819905Y-122196000D01*
X146915143Y-122148381D01*
X147153239Y-122148381D01*
X147248477Y-122196000D01*
X147296096Y-122243619D01*
X147343715Y-122338857D01*
X147343715Y-122434095D01*
X147296096Y-122576952D01*
X146724667Y-123148381D01*
X147343715Y-123148381D01*
X155662334Y-119483143D02*
X155614715Y-119530762D01*
X155471858Y-119578381D01*
X155376620Y-119578381D01*
X155233762Y-119530762D01*
X155138524Y-119435524D01*
X155090905Y-119340286D01*
X155043286Y-119149810D01*
X155043286Y-119006952D01*
X155090905Y-118816476D01*
X155138524Y-118721238D01*
X155233762Y-118626000D01*
X155376620Y-118578381D01*
X155471858Y-118578381D01*
X155614715Y-118626000D01*
X155662334Y-118673619D01*
X156138524Y-119578381D02*
X156329000Y-119578381D01*
X156424239Y-119530762D01*
X156471858Y-119483143D01*
X156567096Y-119340286D01*
X156614715Y-119149810D01*
X156614715Y-118768857D01*
X156567096Y-118673619D01*
X156519477Y-118626000D01*
X156424239Y-118578381D01*
X156233762Y-118578381D01*
X156138524Y-118626000D01*
X156090905Y-118673619D01*
X156043286Y-118768857D01*
X156043286Y-119006952D01*
X156090905Y-119102190D01*
X156138524Y-119149810D01*
X156233762Y-119197429D01*
X156424239Y-119197429D01*
X156519477Y-119149810D01*
X156567096Y-119102190D01*
X156614715Y-119006952D01*
X162899381Y-125691666D02*
X162899381Y-126167857D01*
X161899381Y-126167857D01*
X161994619Y-125405952D02*
X161947000Y-125358333D01*
X161899381Y-125263095D01*
X161899381Y-125024999D01*
X161947000Y-124929761D01*
X161994619Y-124882142D01*
X162089857Y-124834523D01*
X162185095Y-124834523D01*
X162327952Y-124882142D01*
X162899381Y-125453571D01*
X162899381Y-124834523D01*
X157115143Y-112962666D02*
X157162762Y-113010285D01*
X157210381Y-113153142D01*
X157210381Y-113248380D01*
X157162762Y-113391238D01*
X157067524Y-113486476D01*
X156972286Y-113534095D01*
X156781810Y-113581714D01*
X156638952Y-113581714D01*
X156448476Y-113534095D01*
X156353238Y-113486476D01*
X156258000Y-113391238D01*
X156210381Y-113248380D01*
X156210381Y-113153142D01*
X156258000Y-113010285D01*
X156305619Y-112962666D01*
X157210381Y-112010285D02*
X157210381Y-112581714D01*
X157210381Y-112296000D02*
X156210381Y-112296000D01*
X156353238Y-112391238D01*
X156448476Y-112486476D01*
X156496095Y-112581714D01*
X162266334Y-133834143D02*
X162218715Y-133881762D01*
X162075858Y-133929381D01*
X161980620Y-133929381D01*
X161837762Y-133881762D01*
X161742524Y-133786524D01*
X161694905Y-133691286D01*
X161647286Y-133500810D01*
X161647286Y-133357952D01*
X161694905Y-133167476D01*
X161742524Y-133072238D01*
X161837762Y-132977000D01*
X161980620Y-132929381D01*
X162075858Y-132929381D01*
X162218715Y-132977000D01*
X162266334Y-133024619D01*
X162599667Y-132929381D02*
X163218715Y-132929381D01*
X162885381Y-133310333D01*
X163028239Y-133310333D01*
X163123477Y-133357952D01*
X163171096Y-133405571D01*
X163218715Y-133500810D01*
X163218715Y-133738905D01*
X163171096Y-133834143D01*
X163123477Y-133881762D01*
X163028239Y-133929381D01*
X162742524Y-133929381D01*
X162647286Y-133881762D01*
X162599667Y-133834143D01*
X165115381Y-118522666D02*
X164639190Y-118856000D01*
X165115381Y-119094095D02*
X164115381Y-119094095D01*
X164115381Y-118713142D01*
X164163000Y-118617904D01*
X164210619Y-118570285D01*
X164305857Y-118522666D01*
X164448714Y-118522666D01*
X164543952Y-118570285D01*
X164591571Y-118617904D01*
X164639190Y-118713142D01*
X164639190Y-119094095D01*
X165115381Y-118094095D02*
X164115381Y-118094095D01*
X164115381Y-117713142D01*
X164163000Y-117617904D01*
X164210619Y-117570285D01*
X164305857Y-117522666D01*
X164448714Y-117522666D01*
X164543952Y-117570285D01*
X164591571Y-117617904D01*
X164639190Y-117713142D01*
X164639190Y-118094095D01*
X164210619Y-117141714D02*
X164163000Y-117094095D01*
X164115381Y-116998857D01*
X164115381Y-116760761D01*
X164163000Y-116665523D01*
X164210619Y-116617904D01*
X164305857Y-116570285D01*
X164401095Y-116570285D01*
X164543952Y-116617904D01*
X165115381Y-117189333D01*
X165115381Y-116570285D01*
X152684267Y-127753181D02*
X152684267Y-128467467D01*
X152636647Y-128610324D01*
X152541409Y-128705562D01*
X152398552Y-128753181D01*
X152303314Y-128753181D01*
X153160457Y-128753181D02*
X153160457Y-127753181D01*
X153541410Y-127753181D01*
X153636648Y-127800800D01*
X153684267Y-127848419D01*
X153731886Y-127943657D01*
X153731886Y-128086514D01*
X153684267Y-128181752D01*
X153636648Y-128229371D01*
X153541410Y-128276990D01*
X153160457Y-128276990D01*
X154065219Y-127753181D02*
X154684267Y-127753181D01*
X154350933Y-128134133D01*
X154493791Y-128134133D01*
X154589029Y-128181752D01*
X154636648Y-128229371D01*
X154684267Y-128324610D01*
X154684267Y-128562705D01*
X154636648Y-128657943D01*
X154589029Y-128705562D01*
X154493791Y-128753181D01*
X154208076Y-128753181D01*
X154112838Y-128705562D01*
X154065219Y-128657943D01*
X184491334Y-129103381D02*
X184158000Y-128627190D01*
X183919905Y-129103381D02*
X183919905Y-128103381D01*
X184300858Y-128103381D01*
X184396096Y-128151000D01*
X184443715Y-128198619D01*
X184491334Y-128293857D01*
X184491334Y-128436714D01*
X184443715Y-128531952D01*
X184396096Y-128579571D01*
X184300858Y-128627190D01*
X183919905Y-128627190D01*
X185443715Y-129103381D02*
X184872286Y-129103381D01*
X185158000Y-129103381D02*
X185158000Y-128103381D01*
X185062762Y-128246238D01*
X184967524Y-128341476D01*
X184872286Y-128389095D01*
X160805762Y-96964333D02*
X160853381Y-96821476D01*
X160853381Y-96583380D01*
X160805762Y-96488142D01*
X160758143Y-96440523D01*
X160662905Y-96392904D01*
X160567667Y-96392904D01*
X160472429Y-96440523D01*
X160424810Y-96488142D01*
X160377190Y-96583380D01*
X160329571Y-96773857D01*
X160281952Y-96869095D01*
X160234333Y-96916714D01*
X160139095Y-96964333D01*
X160043857Y-96964333D01*
X159948619Y-96916714D01*
X159901000Y-96869095D01*
X159853381Y-96773857D01*
X159853381Y-96535761D01*
X159901000Y-96392904D01*
X159853381Y-96059571D02*
X160853381Y-95821476D01*
X160139095Y-95630999D01*
X160853381Y-95440523D01*
X159853381Y-95202428D01*
X159948619Y-94869095D02*
X159901000Y-94821476D01*
X159853381Y-94726238D01*
X159853381Y-94488142D01*
X159901000Y-94392904D01*
X159948619Y-94345285D01*
X160043857Y-94297666D01*
X160139095Y-94297666D01*
X160281952Y-94345285D01*
X160853381Y-94916714D01*
X160853381Y-94297666D01*
X170521334Y-118608143D02*
X170473715Y-118655762D01*
X170330858Y-118703381D01*
X170235620Y-118703381D01*
X170092762Y-118655762D01*
X169997524Y-118560524D01*
X169949905Y-118465286D01*
X169902286Y-118274810D01*
X169902286Y-118131952D01*
X169949905Y-117941476D01*
X169997524Y-117846238D01*
X170092762Y-117751000D01*
X170235620Y-117703381D01*
X170330858Y-117703381D01*
X170473715Y-117751000D01*
X170521334Y-117798619D01*
X171378477Y-117703381D02*
X171188000Y-117703381D01*
X171092762Y-117751000D01*
X171045143Y-117798619D01*
X170949905Y-117941476D01*
X170902286Y-118131952D01*
X170902286Y-118512905D01*
X170949905Y-118608143D01*
X170997524Y-118655762D01*
X171092762Y-118703381D01*
X171283239Y-118703381D01*
X171378477Y-118655762D01*
X171426096Y-118608143D01*
X171473715Y-118512905D01*
X171473715Y-118274810D01*
X171426096Y-118179571D01*
X171378477Y-118131952D01*
X171283239Y-118084333D01*
X171092762Y-118084333D01*
X170997524Y-118131952D01*
X170949905Y-118179571D01*
X170902286Y-118274810D01*
X168616334Y-105908143D02*
X168568715Y-105955762D01*
X168425858Y-106003381D01*
X168330620Y-106003381D01*
X168187762Y-105955762D01*
X168092524Y-105860524D01*
X168044905Y-105765286D01*
X167997286Y-105574810D01*
X167997286Y-105431952D01*
X168044905Y-105241476D01*
X168092524Y-105146238D01*
X168187762Y-105051000D01*
X168330620Y-105003381D01*
X168425858Y-105003381D01*
X168568715Y-105051000D01*
X168616334Y-105098619D01*
X168949667Y-105003381D02*
X169616334Y-105003381D01*
X169187762Y-106003381D01*
X168596334Y-122703143D02*
X168548715Y-122750762D01*
X168405858Y-122798381D01*
X168310620Y-122798381D01*
X168167762Y-122750762D01*
X168072524Y-122655524D01*
X168024905Y-122560286D01*
X167977286Y-122369810D01*
X167977286Y-122226952D01*
X168024905Y-122036476D01*
X168072524Y-121941238D01*
X168167762Y-121846000D01*
X168310620Y-121798381D01*
X168405858Y-121798381D01*
X168548715Y-121846000D01*
X168596334Y-121893619D01*
X169167762Y-122226952D02*
X169072524Y-122179333D01*
X169024905Y-122131714D01*
X168977286Y-122036476D01*
X168977286Y-121988857D01*
X169024905Y-121893619D01*
X169072524Y-121846000D01*
X169167762Y-121798381D01*
X169358239Y-121798381D01*
X169453477Y-121846000D01*
X169501096Y-121893619D01*
X169548715Y-121988857D01*
X169548715Y-122036476D01*
X169501096Y-122131714D01*
X169453477Y-122179333D01*
X169358239Y-122226952D01*
X169167762Y-122226952D01*
X169072524Y-122274571D01*
X169024905Y-122322190D01*
X168977286Y-122417429D01*
X168977286Y-122607905D01*
X169024905Y-122703143D01*
X169072524Y-122750762D01*
X169167762Y-122798381D01*
X169358239Y-122798381D01*
X169453477Y-122750762D01*
X169501096Y-122703143D01*
X169548715Y-122607905D01*
X169548715Y-122417429D01*
X169501096Y-122322190D01*
X169453477Y-122274571D01*
X169358239Y-122226952D01*
X165685381Y-107872905D02*
X166494905Y-107872905D01*
X166590143Y-107825286D01*
X166637762Y-107777667D01*
X166685381Y-107682429D01*
X166685381Y-107491952D01*
X166637762Y-107396714D01*
X166590143Y-107349095D01*
X166494905Y-107301476D01*
X165685381Y-107301476D01*
X166018714Y-106396714D02*
X166685381Y-106396714D01*
X165637762Y-106634810D02*
X166352048Y-106872905D01*
X166352048Y-106253857D01*
X175178981Y-94799066D02*
X174702790Y-95132400D01*
X175178981Y-95370495D02*
X174178981Y-95370495D01*
X174178981Y-94989542D01*
X174226600Y-94894304D01*
X174274219Y-94846685D01*
X174369457Y-94799066D01*
X174512314Y-94799066D01*
X174607552Y-94846685D01*
X174655171Y-94894304D01*
X174702790Y-94989542D01*
X174702790Y-95370495D01*
X175178981Y-94370495D02*
X174178981Y-94370495D01*
X174178981Y-93989542D01*
X174226600Y-93894304D01*
X174274219Y-93846685D01*
X174369457Y-93799066D01*
X174512314Y-93799066D01*
X174607552Y-93846685D01*
X174655171Y-93894304D01*
X174702790Y-93989542D01*
X174702790Y-94370495D01*
X175178981Y-92846685D02*
X175178981Y-93418114D01*
X175178981Y-93132400D02*
X174178981Y-93132400D01*
X174321838Y-93227638D01*
X174417076Y-93322876D01*
X174464695Y-93418114D01*
X218717905Y-33472381D02*
X218717905Y-32472381D01*
X219098858Y-32472381D01*
X219194096Y-32520000D01*
X219241715Y-32567619D01*
X219289334Y-32662857D01*
X219289334Y-32805714D01*
X219241715Y-32900952D01*
X219194096Y-32948571D01*
X219098858Y-32996190D01*
X218717905Y-32996190D01*
X220241715Y-33472381D02*
X219670286Y-33472381D01*
X219956000Y-33472381D02*
X219956000Y-32472381D01*
X219860762Y-32615238D01*
X219765524Y-32710476D01*
X219670286Y-32758095D01*
X216098381Y-49061666D02*
X215622190Y-49395000D01*
X216098381Y-49633095D02*
X215098381Y-49633095D01*
X215098381Y-49252142D01*
X215146000Y-49156904D01*
X215193619Y-49109285D01*
X215288857Y-49061666D01*
X215431714Y-49061666D01*
X215526952Y-49109285D01*
X215574571Y-49156904D01*
X215622190Y-49252142D01*
X215622190Y-49633095D01*
X216098381Y-48109285D02*
X216098381Y-48680714D01*
X216098381Y-48395000D02*
X215098381Y-48395000D01*
X215241238Y-48490238D01*
X215336476Y-48585476D01*
X215384095Y-48680714D01*
X207351381Y-67325714D02*
X207351381Y-66754285D01*
X208351381Y-67040000D02*
X207351381Y-67040000D01*
X208351381Y-66420952D02*
X207351381Y-66420952D01*
X207827571Y-66420952D02*
X207827571Y-65849523D01*
X208351381Y-65849523D02*
X207351381Y-65849523D01*
X208351381Y-64849523D02*
X208351381Y-65420952D01*
X208351381Y-65135238D02*
X207351381Y-65135238D01*
X207494238Y-65230476D01*
X207589476Y-65325714D01*
X207637095Y-65420952D01*
X224439905Y-42337381D02*
X224439905Y-41337381D01*
X224678000Y-41337381D01*
X224820858Y-41385000D01*
X224916096Y-41480238D01*
X224963715Y-41575476D01*
X225011334Y-41765952D01*
X225011334Y-41908810D01*
X224963715Y-42099286D01*
X224916096Y-42194524D01*
X224820858Y-42289762D01*
X224678000Y-42337381D01*
X224439905Y-42337381D01*
X225963715Y-42337381D02*
X225392286Y-42337381D01*
X225678000Y-42337381D02*
X225678000Y-41337381D01*
X225582762Y-41480238D01*
X225487524Y-41575476D01*
X225392286Y-41623095D01*
X228516095Y-43657381D02*
X228516095Y-42657381D01*
X229087524Y-43657381D02*
X228658952Y-43085952D01*
X229087524Y-42657381D02*
X228516095Y-43228810D01*
X207859381Y-62229905D02*
X208668905Y-62229905D01*
X208764143Y-62182286D01*
X208811762Y-62134667D01*
X208859381Y-62039429D01*
X208859381Y-61848952D01*
X208811762Y-61753714D01*
X208764143Y-61706095D01*
X208668905Y-61658476D01*
X207859381Y-61658476D01*
X208859381Y-60658476D02*
X208859381Y-61229905D01*
X208859381Y-60944191D02*
X207859381Y-60944191D01*
X208002238Y-61039429D01*
X208097476Y-61134667D01*
X208145095Y-61229905D01*
X208113381Y-45560952D02*
X209113381Y-45227619D01*
X208113381Y-44894285D01*
X208113381Y-44370476D02*
X208113381Y-44179999D01*
X208161000Y-44084761D01*
X208256238Y-43989523D01*
X208446714Y-43941904D01*
X208780048Y-43941904D01*
X208970524Y-43989523D01*
X209065762Y-44084761D01*
X209113381Y-44179999D01*
X209113381Y-44370476D01*
X209065762Y-44465714D01*
X208970524Y-44560952D01*
X208780048Y-44608571D01*
X208446714Y-44608571D01*
X208256238Y-44560952D01*
X208161000Y-44465714D01*
X208113381Y-44370476D01*
X208113381Y-43513333D02*
X208922905Y-43513333D01*
X209018143Y-43465714D01*
X209065762Y-43418095D01*
X209113381Y-43322857D01*
X209113381Y-43132380D01*
X209065762Y-43037142D01*
X209018143Y-42989523D01*
X208922905Y-42941904D01*
X208113381Y-42941904D01*
X208113381Y-42608571D02*
X208113381Y-42037142D01*
X209113381Y-42322857D02*
X208113381Y-42322857D01*
X208732429Y-41703809D02*
X208732429Y-40941904D01*
X197953381Y-45560952D02*
X198953381Y-45227619D01*
X197953381Y-44894285D01*
X197953381Y-44370476D02*
X197953381Y-44179999D01*
X198001000Y-44084761D01*
X198096238Y-43989523D01*
X198286714Y-43941904D01*
X198620048Y-43941904D01*
X198810524Y-43989523D01*
X198905762Y-44084761D01*
X198953381Y-44179999D01*
X198953381Y-44370476D01*
X198905762Y-44465714D01*
X198810524Y-44560952D01*
X198620048Y-44608571D01*
X198286714Y-44608571D01*
X198096238Y-44560952D01*
X198001000Y-44465714D01*
X197953381Y-44370476D01*
X197953381Y-43513333D02*
X198762905Y-43513333D01*
X198858143Y-43465714D01*
X198905762Y-43418095D01*
X198953381Y-43322857D01*
X198953381Y-43132380D01*
X198905762Y-43037142D01*
X198858143Y-42989523D01*
X198762905Y-42941904D01*
X197953381Y-42941904D01*
X197953381Y-42608571D02*
X197953381Y-42037142D01*
X198953381Y-42322857D02*
X197953381Y-42322857D01*
X198572429Y-41703809D02*
X198572429Y-40941904D01*
X198953381Y-41322856D02*
X198191476Y-41322856D01*
X208113381Y-82994285D02*
X209113381Y-82660952D01*
X208113381Y-82327618D01*
X209113381Y-81994285D02*
X208113381Y-81994285D01*
X209113381Y-81518095D02*
X208113381Y-81518095D01*
X209113381Y-80946666D01*
X208113381Y-80946666D01*
X208732429Y-80470476D02*
X208732429Y-79708571D01*
X197953381Y-82994285D02*
X198953381Y-82660952D01*
X197953381Y-82327618D01*
X198953381Y-81994285D02*
X197953381Y-81994285D01*
X198953381Y-81518095D02*
X197953381Y-81518095D01*
X198953381Y-80946666D01*
X197953381Y-80946666D01*
X198572429Y-80470476D02*
X198572429Y-79708571D01*
X198953381Y-80089523D02*
X198191476Y-80089523D01*
X225131381Y-80470333D02*
X225845667Y-80470333D01*
X225988524Y-80517953D01*
X226083762Y-80613191D01*
X226131381Y-80756048D01*
X226131381Y-80851286D01*
X226131381Y-79470333D02*
X226131381Y-80041762D01*
X226131381Y-79756048D02*
X225131381Y-79756048D01*
X225274238Y-79851286D01*
X225369476Y-79946524D01*
X225417095Y-80041762D01*
X225131381Y-57610333D02*
X225845667Y-57610333D01*
X225988524Y-57657953D01*
X226083762Y-57753191D01*
X226131381Y-57896048D01*
X226131381Y-57991286D01*
X225226619Y-57181762D02*
X225179000Y-57134143D01*
X225131381Y-57038905D01*
X225131381Y-56800809D01*
X225179000Y-56705571D01*
X225226619Y-56657952D01*
X225321857Y-56610333D01*
X225417095Y-56610333D01*
X225559952Y-56657952D01*
X226131381Y-57229381D01*
X226131381Y-56610333D01*
D21*
X162266086Y-84400571D02*
X162338657Y-84473142D01*
X162411229Y-84690856D01*
X162411229Y-84835999D01*
X162338657Y-85053714D01*
X162193514Y-85198856D01*
X162048371Y-85271428D01*
X161758086Y-85343999D01*
X161540371Y-85343999D01*
X161250086Y-85271428D01*
X161104943Y-85198856D01*
X160959800Y-85053714D01*
X160887229Y-84835999D01*
X160887229Y-84690856D01*
X160959800Y-84473142D01*
X161032371Y-84400571D01*
X160887229Y-83457142D02*
X160887229Y-83166856D01*
X160959800Y-83021714D01*
X161104943Y-82876571D01*
X161395229Y-82803999D01*
X161903229Y-82803999D01*
X162193514Y-82876571D01*
X162338657Y-83021714D01*
X162411229Y-83166856D01*
X162411229Y-83457142D01*
X162338657Y-83602285D01*
X162193514Y-83747428D01*
X161903229Y-83819999D01*
X161395229Y-83819999D01*
X161104943Y-83747428D01*
X160959800Y-83602285D01*
X160887229Y-83457142D01*
X162411229Y-82150857D02*
X160887229Y-82150857D01*
X162411229Y-81280000D01*
X160887229Y-81280000D01*
X162411229Y-79756000D02*
X162411229Y-80626857D01*
X162411229Y-80191429D02*
X160887229Y-80191429D01*
X161104943Y-80336572D01*
X161250086Y-80481714D01*
X161322657Y-80626857D01*
X155313743Y-89262857D02*
X155386314Y-89045143D01*
X155458886Y-88972571D01*
X155604029Y-88900000D01*
X155821743Y-88900000D01*
X155966886Y-88972571D01*
X156039457Y-89045143D01*
X156112029Y-89190285D01*
X156112029Y-89770857D01*
X154588029Y-89770857D01*
X154588029Y-89262857D01*
X154660600Y-89117714D01*
X154733171Y-89045143D01*
X154878314Y-88972571D01*
X155023457Y-88972571D01*
X155168600Y-89045143D01*
X155241171Y-89117714D01*
X155313743Y-89262857D01*
X155313743Y-89770857D01*
X155676600Y-88319428D02*
X155676600Y-87593714D01*
X156112029Y-88464571D02*
X154588029Y-87956571D01*
X156112029Y-87448571D01*
X156112029Y-86069714D02*
X155386314Y-86577714D01*
X156112029Y-86940571D02*
X154588029Y-86940571D01*
X154588029Y-86359999D01*
X154660600Y-86214857D01*
X154733171Y-86142285D01*
X154878314Y-86069714D01*
X155096029Y-86069714D01*
X155241171Y-86142285D01*
X155313743Y-86214857D01*
X155386314Y-86359999D01*
X155386314Y-86940571D01*
X156112029Y-84545714D02*
X155386314Y-85053714D01*
X156112029Y-85416571D02*
X154588029Y-85416571D01*
X154588029Y-84835999D01*
X154660600Y-84690857D01*
X154733171Y-84618285D01*
X154878314Y-84545714D01*
X155096029Y-84545714D01*
X155241171Y-84618285D01*
X155313743Y-84690857D01*
X155386314Y-84835999D01*
X155386314Y-85416571D01*
X155313743Y-83892571D02*
X155313743Y-83384571D01*
X156112029Y-83166857D02*
X156112029Y-83892571D01*
X154588029Y-83892571D01*
X154588029Y-83166857D01*
X156112029Y-81788000D02*
X156112029Y-82513714D01*
X154588029Y-82513714D01*
X156257171Y-81642857D02*
X156257171Y-80481714D01*
X154588029Y-79683428D02*
X155676600Y-79683428D01*
X155894314Y-79756000D01*
X156039457Y-79901143D01*
X156112029Y-80118857D01*
X156112029Y-80264000D01*
X155676600Y-79030285D02*
X155676600Y-78304571D01*
X156112029Y-79175428D02*
X154588029Y-78667428D01*
X156112029Y-78159428D01*
X155966886Y-76780571D02*
X156039457Y-76853142D01*
X156112029Y-77070856D01*
X156112029Y-77215999D01*
X156039457Y-77433714D01*
X155894314Y-77578856D01*
X155749171Y-77651428D01*
X155458886Y-77723999D01*
X155241171Y-77723999D01*
X154950886Y-77651428D01*
X154805743Y-77578856D01*
X154660600Y-77433714D01*
X154588029Y-77215999D01*
X154588029Y-77070856D01*
X154660600Y-76853142D01*
X154733171Y-76780571D01*
X156112029Y-76127428D02*
X154588029Y-76127428D01*
X156112029Y-75256571D02*
X155241171Y-75909714D01*
X154588029Y-75256571D02*
X155458886Y-76127428D01*
D13*
X147340381Y-39656905D02*
X148149905Y-39656905D01*
X148245143Y-39609286D01*
X148292762Y-39561667D01*
X148340381Y-39466429D01*
X148340381Y-39275952D01*
X148292762Y-39180714D01*
X148245143Y-39133095D01*
X148149905Y-39085476D01*
X147340381Y-39085476D01*
X147435619Y-38656905D02*
X147388000Y-38609286D01*
X147340381Y-38514048D01*
X147340381Y-38275952D01*
X147388000Y-38180714D01*
X147435619Y-38133095D01*
X147530857Y-38085476D01*
X147626095Y-38085476D01*
X147768952Y-38133095D01*
X148340381Y-38704524D01*
X148340381Y-38085476D01*
M02*
