M48
;DRILL file {KiCad 4.0.2+dfsg1-stable} date 2016年07月15日 17時34分07秒
;FORMAT={-:-/ absolute / inch / decimal}
FMAT,2
INCH,TZ
T1C0.016
T2C0.024
T3C0.026
T4C0.031
T5C0.032
T6C0.032
T7C0.039
T8C0.039
T9C0.060
T10C0.126
T11C0.157
%
G90
G05
M72
T1
X5.4831Y-4.65
X5.5963Y-4.5947
X5.6169Y-4.65
X5.6638Y-4.56
X5.8181Y-3.9065
X5.84Y-4.56
X5.8409Y-4.5043
X5.8446Y-3.8646
X5.875Y-3.725
X5.8948Y-3.7803
X5.9Y-4.5
X5.92Y-3.8932
X5.94Y-4.62
X5.955Y-4.39
X5.9591Y-4.5043
X5.993Y-4.3865
X6.0181Y-4.5043
X6.04Y-4.8
X6.0772Y-4.5043
X6.08Y-4.42
X6.1163Y-4.0798
X6.125Y-4.675
X6.14Y-4.16
X6.1667Y-4.3667
X6.2204Y-4.06
X6.2713Y-4.3159
X6.324Y-4.4341
X6.34Y-3.86
X6.375Y-4.95
X6.376Y-4.3159
X6.38Y-4.44
X6.4Y-4.36
X6.4294Y-4.6747
X6.44Y-5.18
X6.44Y-5.42
X6.5409Y-3.8352
X6.5409Y-3.9537
X6.56Y-4.71
X6.56Y-4.3031
X6.58Y-5.16
X6.6279Y-4.576
X6.7195Y-4.085
X6.72Y-4.3
X6.725Y-4.025
X6.9Y-4.7
X7.19Y-4.6969
X7.2Y-4.3
X7.3879Y-4.9
X7.82Y-4.9
T2
X6.825Y-3.75
X6.825Y-3.825
X6.825Y-3.9
X6.825Y-3.975
X7.4Y-3.85
X7.4Y-3.95
X7.4Y-4.05
X7.4Y-4.15
X7.4Y-4.25
X7.4Y-4.35
X7.4Y-4.45
X7.4Y-4.55
X7.4Y-4.65
X7.5Y-3.85
X7.5Y-3.95
X7.5Y-4.05
X7.5Y-4.15
X7.5Y-4.25
X7.5Y-4.35
X7.5Y-4.45
X7.5Y-4.55
X7.5Y-4.65
X7.6Y-3.85
X7.6Y-3.95
X7.6Y-4.05
X7.6Y-4.15
X7.6Y-4.25
X7.6Y-4.35
X7.6Y-4.45
X7.6Y-4.55
X7.6Y-4.65
X7.7Y-3.85
X7.7Y-3.95
X7.7Y-4.05
X7.7Y-4.15
X7.7Y-4.25
X7.7Y-4.35
X7.7Y-4.45
X7.7Y-4.55
X7.7Y-4.65
X7.8Y-3.85
X7.8Y-3.95
X7.8Y-4.05
X7.8Y-4.15
X7.8Y-4.25
X7.8Y-4.35
X7.8Y-4.45
X7.8Y-4.55
X7.8Y-4.65
X7.9Y-3.85
X7.9Y-3.95
X7.9Y-4.05
X7.9Y-4.15
X7.9Y-4.25
X7.9Y-4.35
X7.9Y-4.45
X7.9Y-4.55
X7.9Y-4.65
X8.1Y-3.85
X8.1Y-3.95
X8.1Y-4.05
X8.1Y-4.15
X8.1Y-4.25
X8.1Y-4.35
X8.1Y-4.45
X8.1Y-4.55
X8.1Y-4.65
T3
X5.775Y-4.825
X5.875Y-4.825
X5.975Y-4.825
X6.7Y-4.15
X6.8Y-4.15
X6.9Y-4.15
X7.Y-4.15
X7.1Y-3.75
X7.1Y-3.85
X7.1Y-3.95
X7.1Y-4.15
X7.9Y-4.85
X7.9Y-5.025
X8.Y-4.85
X8.Y-5.025
X8.1Y-4.85
X8.1Y-5.025
T4
X6.075Y-4.95
X6.075Y-5.25
X6.175Y-4.95
X6.175Y-5.25
X6.25Y-4.675
X6.275Y-4.95
X6.275Y-5.25
X6.375Y-4.95
X6.375Y-5.25
X6.7Y-4.9
X6.7Y-5.
X7.Y-4.9
X7.Y-5.
X7.125Y-4.875
X7.2234Y-4.875
X7.675Y-5.05
X7.7Y-4.8
X7.8Y-4.8
T5
X5.46Y-5.1
X6.3484Y-4.675
X7.7734Y-5.05
T6
X5.475Y-4.825
X5.575Y-4.825
X6.025Y-4.675
X6.04Y-5.39
X6.125Y-4.675
X6.125Y-4.825
X6.14Y-5.39
X6.225Y-4.825
X6.25Y-5.39
X6.26Y-3.93
X6.26Y-4.23
X6.35Y-4.82
X6.35Y-5.39
X6.45Y-4.82
X6.46Y-3.93
X6.46Y-4.23
X6.56Y-4.97
X6.56Y-5.07
T8
X6.67Y-5.2499
X6.77Y-5.2499
X6.85Y-5.2499
X6.95Y-5.2499
X7.2004Y-5.1
X7.2004Y-5.2
X7.4996Y-5.1
X7.4996Y-5.2
T9
X5.57Y-5.27
X5.67Y-5.145
X5.77Y-5.27
T10
X5.495Y-5.37
X5.67Y-5.02
X5.845Y-5.37
T11
X5.9315Y-4.1067
T4
X7.736Y-5.1858G85X7.7085Y-5.1858
G05
X7.736Y-5.4142G85X7.7085Y-5.4142
G05
X7.8699Y-5.4142G85X7.8423Y-5.4142
G05
X7.9959Y-5.4142G85X7.9683Y-5.4142
G05
X8.1179Y-5.1858G85X8.0904Y-5.1858
G05
X8.1179Y-5.4142G85X8.0904Y-5.4142
G05
T7
X6.5558Y-5.2709G85X6.5558Y-5.3102
G05
X7.0598Y-5.2709G85X7.0598Y-5.3102
G05
T0
M30
