G04 #@! TF.FileFunction,Soldermask,Top*
%FSLAX46Y46*%
G04 Gerber Fmt 4.6, Leading zero omitted, Abs format (unit mm)*
G04 Created by KiCad (PCBNEW 4.0.2+dfsg1-stable) date 2016年07月15日 17時34分00秒*
%MOMM*%
G01*
G04 APERTURE LIST*
%ADD10C,0.100000*%
%ADD11O,2.305000X1.517600*%
%ADD12R,2.305000X1.517600*%
%ADD13O,2.400000X2.100000*%
%ADD14R,1.200000X1.600000*%
%ADD15O,2.100000X2.400000*%
%ADD16C,2.398980*%
%ADD17C,1.901140*%
%ADD18O,2.400000X3.400000*%
%ADD19O,1.800000X2.400000*%
%ADD20R,1.300000X1.300000*%
%ADD21C,2.400000*%
%ADD22R,1.300000X2.100000*%
%ADD23C,6.400000*%
%ADD24O,2.000000X2.000000*%
%ADD25R,2.900000X2.400000*%
%ADD26C,1.900000*%
%ADD27R,2.400000X2.400000*%
%ADD28C,1.797000*%
%ADD29C,5.400000*%
%ADD30C,2.940000*%
%ADD31R,1.600000X2.000000*%
%ADD32R,2.000000X1.600000*%
%ADD33R,1.700000X1.700000*%
%ADD34C,1.700000*%
G04 APERTURE END LIST*
D10*
D11*
X173355000Y-95250000D03*
D12*
X173355000Y-97155000D03*
D11*
X173355000Y-99060000D03*
X173355000Y-100965000D03*
D13*
X180340000Y-95250000D03*
X180340000Y-97790000D03*
X180340000Y-100330000D03*
D14*
X162290000Y-96520000D03*
X160290000Y-96520000D03*
X161290000Y-96520000D03*
D15*
X151765000Y-122555000D03*
X149225000Y-122555000D03*
X146685000Y-122555000D03*
X170180000Y-105410000D03*
X175260000Y-105410000D03*
X172720000Y-105410000D03*
X177800000Y-105410000D03*
X180340000Y-105410000D03*
D16*
X138684000Y-129540000D03*
D17*
X176530860Y-133347880D03*
X173990860Y-133347880D03*
X171958860Y-133347880D03*
X169418860Y-133347880D03*
D18*
X179318000Y-134380000D03*
X166518000Y-134380000D03*
D15*
X200660000Y-127635000D03*
X203200000Y-127635000D03*
X205740000Y-127635000D03*
X200660000Y-123190000D03*
X203200000Y-123190000D03*
X205740000Y-123190000D03*
D19*
X195580000Y-121920000D03*
X198120000Y-121920000D03*
D20*
X166140000Y-96425000D03*
X166140000Y-100425000D03*
X166140000Y-97765000D03*
X166140000Y-99085000D03*
X169140000Y-97765000D03*
X169140000Y-96425000D03*
X169140000Y-100425000D03*
X169140000Y-99085000D03*
D21*
X182890160Y-132080000D03*
X190489840Y-132080000D03*
D22*
X143860000Y-96410000D03*
X143860000Y-114410000D03*
X145360000Y-96410000D03*
X145360000Y-114410000D03*
X146860000Y-96410000D03*
X146860000Y-114410000D03*
X148360000Y-96410000D03*
X148360000Y-114410000D03*
X149860000Y-96410000D03*
X149860000Y-114410000D03*
X151360000Y-96410000D03*
X151360000Y-114410000D03*
X152860000Y-96410000D03*
X152860000Y-114410000D03*
X154360000Y-96410000D03*
X154360000Y-114410000D03*
X155860000Y-96410000D03*
X155860000Y-114410000D03*
D23*
X150660000Y-104310000D03*
D24*
X161925000Y-125730000D03*
X159385000Y-125730000D03*
X156845000Y-125730000D03*
X154305000Y-125730000D03*
X154305000Y-133350000D03*
X156845000Y-133350000D03*
X159385000Y-133350000D03*
X161925000Y-133350000D03*
D25*
X196145000Y-131720000D03*
X205845000Y-131720000D03*
X199545000Y-137520000D03*
X196145000Y-137520000D03*
X205845000Y-137520000D03*
D26*
X205145000Y-134620000D03*
X195945000Y-134620000D03*
D25*
X202745000Y-137520000D03*
D27*
X182625000Y-119300000D03*
X182625000Y-109300000D03*
X166625000Y-109300000D03*
X166625000Y-119300000D03*
D28*
X153035000Y-118745000D03*
X155575000Y-118745000D03*
X153416000Y-136906000D03*
X155956000Y-136906000D03*
X158750000Y-136906000D03*
X161290000Y-136906000D03*
X166624000Y-128778000D03*
X166624000Y-126238000D03*
X161290000Y-122428000D03*
X163830000Y-122428000D03*
X155575000Y-122555000D03*
X158115000Y-122555000D03*
X139065000Y-122555000D03*
X141605000Y-122555000D03*
D24*
X177800000Y-127000000D03*
X177800000Y-124460000D03*
X170180000Y-124460000D03*
X170180000Y-127000000D03*
D21*
X182890160Y-129540000D03*
X190489840Y-129540000D03*
D29*
X139573000Y-136398000D03*
X144018000Y-127508000D03*
X148463000Y-136398000D03*
D30*
X141478000Y-133858000D03*
X144018000Y-130683000D03*
X146558000Y-133858000D03*
D28*
X164084000Y-107442000D03*
X159004000Y-107442000D03*
X164084000Y-99822000D03*
X159004000Y-99822000D03*
D31*
X139270000Y-118110000D03*
X142670000Y-118110000D03*
X145620000Y-118110000D03*
X149020000Y-118110000D03*
D32*
X186690000Y-132510000D03*
X186690000Y-129110000D03*
D20*
X159290000Y-112625000D03*
X163290000Y-112625000D03*
X160630000Y-112625000D03*
X161950000Y-112625000D03*
X160630000Y-109625000D03*
X159290000Y-109625000D03*
X163290000Y-109625000D03*
X161950000Y-109625000D03*
D33*
X194945000Y-128270000D03*
D34*
X197445000Y-128270000D03*
X183475000Y-123825000D03*
D33*
X180975000Y-123825000D03*
D13*
X205740000Y-97790000D03*
X205740000Y-107950000D03*
X205740000Y-105410000D03*
X205740000Y-100330000D03*
X205740000Y-102870000D03*
X205740000Y-113030000D03*
X205740000Y-110490000D03*
X205740000Y-115570000D03*
X205740000Y-118110000D03*
X198120000Y-97790000D03*
X198120000Y-107950000D03*
X198120000Y-105410000D03*
X198120000Y-100330000D03*
X198120000Y-102870000D03*
X198120000Y-113030000D03*
X198120000Y-110490000D03*
X198120000Y-115570000D03*
X198120000Y-118110000D03*
X193040000Y-118110000D03*
X193040000Y-107950000D03*
X193040000Y-110490000D03*
X193040000Y-115570000D03*
X193040000Y-113030000D03*
X193040000Y-102870000D03*
X193040000Y-105410000D03*
X193040000Y-100330000D03*
X193040000Y-97790000D03*
X195580000Y-118110000D03*
X195580000Y-107950000D03*
X195580000Y-110490000D03*
X195580000Y-115570000D03*
X195580000Y-113030000D03*
X195580000Y-102870000D03*
X195580000Y-105410000D03*
X195580000Y-100330000D03*
X195580000Y-97790000D03*
X200660000Y-97790000D03*
X200660000Y-107950000D03*
X200660000Y-105410000D03*
X200660000Y-100330000D03*
X200660000Y-102870000D03*
X200660000Y-113030000D03*
X200660000Y-110490000D03*
X200660000Y-115570000D03*
X200660000Y-118110000D03*
X187960000Y-118110000D03*
X187960000Y-107950000D03*
X187960000Y-110490000D03*
X187960000Y-115570000D03*
X187960000Y-113030000D03*
X187960000Y-102870000D03*
X187960000Y-105410000D03*
X187960000Y-100330000D03*
X187960000Y-97790000D03*
X190500000Y-118110000D03*
X190500000Y-107950000D03*
X190500000Y-110490000D03*
X190500000Y-115570000D03*
X190500000Y-113030000D03*
X190500000Y-102870000D03*
X190500000Y-105410000D03*
X190500000Y-100330000D03*
X190500000Y-97790000D03*
D33*
X158750000Y-118745000D03*
D34*
X161250000Y-118745000D03*
M02*
