G04 #@! TF.FileFunction,Legend,Bot*
%FSLAX46Y46*%
G04 Gerber Fmt 4.6, Leading zero omitted, Abs format (unit mm)*
G04 Created by KiCad (PCBNEW 4.0.2+dfsg1-stable) date 2016年08月02日 19時37分39秒*
%MOMM*%
G01*
G04 APERTURE LIST*
%ADD10C,0.100000*%
%ADD11C,0.500000*%
%ADD12C,0.132500*%
%ADD13C,0.150000*%
%ADD14C,0.002540*%
G04 APERTURE END LIST*
D10*
X168212381Y-113172857D02*
X167212381Y-113172857D01*
X167212381Y-113315714D01*
X167260000Y-113401429D01*
X167355238Y-113458571D01*
X167450476Y-113487143D01*
X167640952Y-113515714D01*
X167783810Y-113515714D01*
X167974286Y-113487143D01*
X168069524Y-113458571D01*
X168164762Y-113401429D01*
X168212381Y-113315714D01*
X168212381Y-113172857D01*
X167212381Y-113887143D02*
X167212381Y-113944286D01*
X167260000Y-114001429D01*
X167307619Y-114030000D01*
X167402857Y-114058571D01*
X167593333Y-114087143D01*
X167831429Y-114087143D01*
X168021905Y-114058571D01*
X168117143Y-114030000D01*
X168164762Y-114001429D01*
X168212381Y-113944286D01*
X168212381Y-113887143D01*
X168164762Y-113830000D01*
X168117143Y-113801429D01*
X168021905Y-113772857D01*
X167831429Y-113744286D01*
X167593333Y-113744286D01*
X167402857Y-113772857D01*
X167307619Y-113801429D01*
X167260000Y-113830000D01*
X167212381Y-113887143D01*
X168117143Y-114344286D02*
X168164762Y-114372858D01*
X168212381Y-114344286D01*
X168164762Y-114315715D01*
X168117143Y-114344286D01*
X168212381Y-114344286D01*
X167593333Y-114344286D02*
X167640952Y-114372858D01*
X167688571Y-114344286D01*
X167640952Y-114315715D01*
X167593333Y-114344286D01*
X167688571Y-114344286D01*
X168212381Y-114630000D02*
X167212381Y-114630000D01*
X167212381Y-115030000D02*
X167212381Y-115144286D01*
X167260000Y-115201428D01*
X167355238Y-115258571D01*
X167545714Y-115287143D01*
X167879048Y-115287143D01*
X168069524Y-115258571D01*
X168164762Y-115201428D01*
X168212381Y-115144286D01*
X168212381Y-115030000D01*
X168164762Y-114972857D01*
X168069524Y-114915714D01*
X167879048Y-114887143D01*
X167545714Y-114887143D01*
X167355238Y-114915714D01*
X167260000Y-114972857D01*
X167212381Y-115030000D01*
X168212381Y-115858571D02*
X168212381Y-115515714D01*
X168212381Y-115687142D02*
X167212381Y-115687142D01*
X167355238Y-115629999D01*
X167450476Y-115572857D01*
X167498095Y-115515714D01*
X167212381Y-116372857D02*
X167212381Y-116258571D01*
X167260000Y-116201428D01*
X167307619Y-116172857D01*
X167450476Y-116115714D01*
X167640952Y-116087143D01*
X168021905Y-116087143D01*
X168117143Y-116115714D01*
X168164762Y-116144286D01*
X168212381Y-116201428D01*
X168212381Y-116315714D01*
X168164762Y-116372857D01*
X168117143Y-116401428D01*
X168021905Y-116430000D01*
X167783810Y-116430000D01*
X167688571Y-116401428D01*
X167640952Y-116372857D01*
X167593333Y-116315714D01*
X167593333Y-116201428D01*
X167640952Y-116144286D01*
X167688571Y-116115714D01*
X167783810Y-116087143D01*
X169712381Y-113172857D02*
X168712381Y-113172857D01*
X168712381Y-113315714D01*
X168760000Y-113401429D01*
X168855238Y-113458571D01*
X168950476Y-113487143D01*
X169140952Y-113515714D01*
X169283810Y-113515714D01*
X169474286Y-113487143D01*
X169569524Y-113458571D01*
X169664762Y-113401429D01*
X169712381Y-113315714D01*
X169712381Y-113172857D01*
X169712381Y-114087143D02*
X169712381Y-113744286D01*
X169712381Y-113915714D02*
X168712381Y-113915714D01*
X168855238Y-113858571D01*
X168950476Y-113801429D01*
X168998095Y-113744286D01*
X169617143Y-114344286D02*
X169664762Y-114372858D01*
X169712381Y-114344286D01*
X169664762Y-114315715D01*
X169617143Y-114344286D01*
X169712381Y-114344286D01*
X169093333Y-114344286D02*
X169140952Y-114372858D01*
X169188571Y-114344286D01*
X169140952Y-114315715D01*
X169093333Y-114344286D01*
X169188571Y-114344286D01*
X169712381Y-114630000D02*
X168712381Y-114630000D01*
X168712381Y-115030000D02*
X168712381Y-115144286D01*
X168760000Y-115201428D01*
X168855238Y-115258571D01*
X169045714Y-115287143D01*
X169379048Y-115287143D01*
X169569524Y-115258571D01*
X169664762Y-115201428D01*
X169712381Y-115144286D01*
X169712381Y-115030000D01*
X169664762Y-114972857D01*
X169569524Y-114915714D01*
X169379048Y-114887143D01*
X169045714Y-114887143D01*
X168855238Y-114915714D01*
X168760000Y-114972857D01*
X168712381Y-115030000D01*
X168712381Y-115829999D02*
X168712381Y-115544285D01*
X169188571Y-115515714D01*
X169140952Y-115544285D01*
X169093333Y-115601428D01*
X169093333Y-115744285D01*
X169140952Y-115801428D01*
X169188571Y-115829999D01*
X169283810Y-115858571D01*
X169521905Y-115858571D01*
X169617143Y-115829999D01*
X169664762Y-115801428D01*
X169712381Y-115744285D01*
X169712381Y-115601428D01*
X169664762Y-115544285D01*
X169617143Y-115515714D01*
X171212381Y-113172857D02*
X170212381Y-113172857D01*
X170212381Y-113315714D01*
X170260000Y-113401429D01*
X170355238Y-113458571D01*
X170450476Y-113487143D01*
X170640952Y-113515714D01*
X170783810Y-113515714D01*
X170974286Y-113487143D01*
X171069524Y-113458571D01*
X171164762Y-113401429D01*
X171212381Y-113315714D01*
X171212381Y-113172857D01*
X170307619Y-113744286D02*
X170260000Y-113772857D01*
X170212381Y-113830000D01*
X170212381Y-113972857D01*
X170260000Y-114030000D01*
X170307619Y-114058571D01*
X170402857Y-114087143D01*
X170498095Y-114087143D01*
X170640952Y-114058571D01*
X171212381Y-113715714D01*
X171212381Y-114087143D01*
X171117143Y-114344286D02*
X171164762Y-114372858D01*
X171212381Y-114344286D01*
X171164762Y-114315715D01*
X171117143Y-114344286D01*
X171212381Y-114344286D01*
X170593333Y-114344286D02*
X170640952Y-114372858D01*
X170688571Y-114344286D01*
X170640952Y-114315715D01*
X170593333Y-114344286D01*
X170688571Y-114344286D01*
X171212381Y-114630000D02*
X170212381Y-114630000D01*
X170212381Y-115030000D02*
X170212381Y-115144286D01*
X170260000Y-115201428D01*
X170355238Y-115258571D01*
X170545714Y-115287143D01*
X170879048Y-115287143D01*
X171069524Y-115258571D01*
X171164762Y-115201428D01*
X171212381Y-115144286D01*
X171212381Y-115030000D01*
X171164762Y-114972857D01*
X171069524Y-114915714D01*
X170879048Y-114887143D01*
X170545714Y-114887143D01*
X170355238Y-114915714D01*
X170260000Y-114972857D01*
X170212381Y-115030000D01*
X170545714Y-115801428D02*
X171212381Y-115801428D01*
X170164762Y-115658571D02*
X170879048Y-115515714D01*
X170879048Y-115887142D01*
X172712381Y-113172857D02*
X171712381Y-113172857D01*
X171712381Y-113315714D01*
X171760000Y-113401429D01*
X171855238Y-113458571D01*
X171950476Y-113487143D01*
X172140952Y-113515714D01*
X172283810Y-113515714D01*
X172474286Y-113487143D01*
X172569524Y-113458571D01*
X172664762Y-113401429D01*
X172712381Y-113315714D01*
X172712381Y-113172857D01*
X171712381Y-113715714D02*
X171712381Y-114087143D01*
X172093333Y-113887143D01*
X172093333Y-113972857D01*
X172140952Y-114030000D01*
X172188571Y-114058571D01*
X172283810Y-114087143D01*
X172521905Y-114087143D01*
X172617143Y-114058571D01*
X172664762Y-114030000D01*
X172712381Y-113972857D01*
X172712381Y-113801429D01*
X172664762Y-113744286D01*
X172617143Y-113715714D01*
X172617143Y-114344286D02*
X172664762Y-114372858D01*
X172712381Y-114344286D01*
X172664762Y-114315715D01*
X172617143Y-114344286D01*
X172712381Y-114344286D01*
X172093333Y-114344286D02*
X172140952Y-114372858D01*
X172188571Y-114344286D01*
X172140952Y-114315715D01*
X172093333Y-114344286D01*
X172188571Y-114344286D01*
X172712381Y-114630000D02*
X171712381Y-114630000D01*
X171712381Y-115030000D02*
X171712381Y-115144286D01*
X171760000Y-115201428D01*
X171855238Y-115258571D01*
X172045714Y-115287143D01*
X172379048Y-115287143D01*
X172569524Y-115258571D01*
X172664762Y-115201428D01*
X172712381Y-115144286D01*
X172712381Y-115030000D01*
X172664762Y-114972857D01*
X172569524Y-114915714D01*
X172379048Y-114887143D01*
X172045714Y-114887143D01*
X171855238Y-114915714D01*
X171760000Y-114972857D01*
X171712381Y-115030000D01*
X171712381Y-115658571D02*
X171712381Y-115715714D01*
X171760000Y-115772857D01*
X171807619Y-115801428D01*
X171902857Y-115829999D01*
X172093333Y-115858571D01*
X172331429Y-115858571D01*
X172521905Y-115829999D01*
X172617143Y-115801428D01*
X172664762Y-115772857D01*
X172712381Y-115715714D01*
X172712381Y-115658571D01*
X172664762Y-115601428D01*
X172617143Y-115572857D01*
X172521905Y-115544285D01*
X172331429Y-115515714D01*
X172093333Y-115515714D01*
X171902857Y-115544285D01*
X171807619Y-115572857D01*
X171760000Y-115601428D01*
X171712381Y-115658571D01*
X174212381Y-113172857D02*
X173212381Y-113172857D01*
X173212381Y-113315714D01*
X173260000Y-113401429D01*
X173355238Y-113458571D01*
X173450476Y-113487143D01*
X173640952Y-113515714D01*
X173783810Y-113515714D01*
X173974286Y-113487143D01*
X174069524Y-113458571D01*
X174164762Y-113401429D01*
X174212381Y-113315714D01*
X174212381Y-113172857D01*
X173545714Y-114030000D02*
X174212381Y-114030000D01*
X173164762Y-113887143D02*
X173879048Y-113744286D01*
X173879048Y-114115714D01*
X174117143Y-114344286D02*
X174164762Y-114372858D01*
X174212381Y-114344286D01*
X174164762Y-114315715D01*
X174117143Y-114344286D01*
X174212381Y-114344286D01*
X173593333Y-114344286D02*
X173640952Y-114372858D01*
X173688571Y-114344286D01*
X173640952Y-114315715D01*
X173593333Y-114344286D01*
X173688571Y-114344286D01*
X174212381Y-114630000D02*
X173212381Y-114630000D01*
X173212381Y-115030000D02*
X173212381Y-115144286D01*
X173260000Y-115201428D01*
X173355238Y-115258571D01*
X173545714Y-115287143D01*
X173879048Y-115287143D01*
X174069524Y-115258571D01*
X174164762Y-115201428D01*
X174212381Y-115144286D01*
X174212381Y-115030000D01*
X174164762Y-114972857D01*
X174069524Y-114915714D01*
X173879048Y-114887143D01*
X173545714Y-114887143D01*
X173355238Y-114915714D01*
X173260000Y-114972857D01*
X173212381Y-115030000D01*
X173307619Y-115515714D02*
X173260000Y-115544285D01*
X173212381Y-115601428D01*
X173212381Y-115744285D01*
X173260000Y-115801428D01*
X173307619Y-115829999D01*
X173402857Y-115858571D01*
X173498095Y-115858571D01*
X173640952Y-115829999D01*
X174212381Y-115487142D01*
X174212381Y-115858571D01*
X175712381Y-113172857D02*
X174712381Y-113172857D01*
X174712381Y-113315714D01*
X174760000Y-113401429D01*
X174855238Y-113458571D01*
X174950476Y-113487143D01*
X175140952Y-113515714D01*
X175283810Y-113515714D01*
X175474286Y-113487143D01*
X175569524Y-113458571D01*
X175664762Y-113401429D01*
X175712381Y-113315714D01*
X175712381Y-113172857D01*
X174712381Y-114058571D02*
X174712381Y-113772857D01*
X175188571Y-113744286D01*
X175140952Y-113772857D01*
X175093333Y-113830000D01*
X175093333Y-113972857D01*
X175140952Y-114030000D01*
X175188571Y-114058571D01*
X175283810Y-114087143D01*
X175521905Y-114087143D01*
X175617143Y-114058571D01*
X175664762Y-114030000D01*
X175712381Y-113972857D01*
X175712381Y-113830000D01*
X175664762Y-113772857D01*
X175617143Y-113744286D01*
X175617143Y-114344286D02*
X175664762Y-114372858D01*
X175712381Y-114344286D01*
X175664762Y-114315715D01*
X175617143Y-114344286D01*
X175712381Y-114344286D01*
X175093333Y-114344286D02*
X175140952Y-114372858D01*
X175188571Y-114344286D01*
X175140952Y-114315715D01*
X175093333Y-114344286D01*
X175188571Y-114344286D01*
X175712381Y-114630000D02*
X174712381Y-114630000D01*
X174712381Y-115030000D02*
X174712381Y-115144286D01*
X174760000Y-115201428D01*
X174855238Y-115258571D01*
X175045714Y-115287143D01*
X175379048Y-115287143D01*
X175569524Y-115258571D01*
X175664762Y-115201428D01*
X175712381Y-115144286D01*
X175712381Y-115030000D01*
X175664762Y-114972857D01*
X175569524Y-114915714D01*
X175379048Y-114887143D01*
X175045714Y-114887143D01*
X174855238Y-114915714D01*
X174760000Y-114972857D01*
X174712381Y-115030000D01*
X175712381Y-115858571D02*
X175712381Y-115515714D01*
X175712381Y-115687142D02*
X174712381Y-115687142D01*
X174855238Y-115629999D01*
X174950476Y-115572857D01*
X174998095Y-115515714D01*
X175045714Y-116372857D02*
X175712381Y-116372857D01*
X174664762Y-116230000D02*
X175379048Y-116087143D01*
X175379048Y-116458571D01*
X177212381Y-113172857D02*
X176212381Y-113172857D01*
X176212381Y-113315714D01*
X176260000Y-113401429D01*
X176355238Y-113458571D01*
X176450476Y-113487143D01*
X176640952Y-113515714D01*
X176783810Y-113515714D01*
X176974286Y-113487143D01*
X177069524Y-113458571D01*
X177164762Y-113401429D01*
X177212381Y-113315714D01*
X177212381Y-113172857D01*
X176212381Y-114030000D02*
X176212381Y-113915714D01*
X176260000Y-113858571D01*
X176307619Y-113830000D01*
X176450476Y-113772857D01*
X176640952Y-113744286D01*
X177021905Y-113744286D01*
X177117143Y-113772857D01*
X177164762Y-113801429D01*
X177212381Y-113858571D01*
X177212381Y-113972857D01*
X177164762Y-114030000D01*
X177117143Y-114058571D01*
X177021905Y-114087143D01*
X176783810Y-114087143D01*
X176688571Y-114058571D01*
X176640952Y-114030000D01*
X176593333Y-113972857D01*
X176593333Y-113858571D01*
X176640952Y-113801429D01*
X176688571Y-113772857D01*
X176783810Y-113744286D01*
X177117143Y-114344286D02*
X177164762Y-114372858D01*
X177212381Y-114344286D01*
X177164762Y-114315715D01*
X177117143Y-114344286D01*
X177212381Y-114344286D01*
X176593333Y-114344286D02*
X176640952Y-114372858D01*
X176688571Y-114344286D01*
X176640952Y-114315715D01*
X176593333Y-114344286D01*
X176688571Y-114344286D01*
X177212381Y-114630000D02*
X176212381Y-114630000D01*
X176212381Y-115030000D02*
X176212381Y-115144286D01*
X176260000Y-115201428D01*
X176355238Y-115258571D01*
X176545714Y-115287143D01*
X176879048Y-115287143D01*
X177069524Y-115258571D01*
X177164762Y-115201428D01*
X177212381Y-115144286D01*
X177212381Y-115030000D01*
X177164762Y-114972857D01*
X177069524Y-114915714D01*
X176879048Y-114887143D01*
X176545714Y-114887143D01*
X176355238Y-114915714D01*
X176260000Y-114972857D01*
X176212381Y-115030000D01*
X177212381Y-115858571D02*
X177212381Y-115515714D01*
X177212381Y-115687142D02*
X176212381Y-115687142D01*
X176355238Y-115629999D01*
X176450476Y-115572857D01*
X176498095Y-115515714D01*
X176307619Y-116087143D02*
X176260000Y-116115714D01*
X176212381Y-116172857D01*
X176212381Y-116315714D01*
X176260000Y-116372857D01*
X176307619Y-116401428D01*
X176402857Y-116430000D01*
X176498095Y-116430000D01*
X176640952Y-116401428D01*
X177212381Y-116058571D01*
X177212381Y-116430000D01*
X178712381Y-113172857D02*
X177712381Y-113172857D01*
X177712381Y-113315714D01*
X177760000Y-113401429D01*
X177855238Y-113458571D01*
X177950476Y-113487143D01*
X178140952Y-113515714D01*
X178283810Y-113515714D01*
X178474286Y-113487143D01*
X178569524Y-113458571D01*
X178664762Y-113401429D01*
X178712381Y-113315714D01*
X178712381Y-113172857D01*
X177712381Y-113715714D02*
X177712381Y-114115714D01*
X178712381Y-113858571D01*
X178617143Y-114344286D02*
X178664762Y-114372858D01*
X178712381Y-114344286D01*
X178664762Y-114315715D01*
X178617143Y-114344286D01*
X178712381Y-114344286D01*
X178093333Y-114344286D02*
X178140952Y-114372858D01*
X178188571Y-114344286D01*
X178140952Y-114315715D01*
X178093333Y-114344286D01*
X178188571Y-114344286D01*
X178712381Y-114630000D02*
X177712381Y-114630000D01*
X177712381Y-115030000D02*
X177712381Y-115144286D01*
X177760000Y-115201428D01*
X177855238Y-115258571D01*
X178045714Y-115287143D01*
X178379048Y-115287143D01*
X178569524Y-115258571D01*
X178664762Y-115201428D01*
X178712381Y-115144286D01*
X178712381Y-115030000D01*
X178664762Y-114972857D01*
X178569524Y-114915714D01*
X178379048Y-114887143D01*
X178045714Y-114887143D01*
X177855238Y-114915714D01*
X177760000Y-114972857D01*
X177712381Y-115030000D01*
X178712381Y-115858571D02*
X178712381Y-115515714D01*
X178712381Y-115687142D02*
X177712381Y-115687142D01*
X177855238Y-115629999D01*
X177950476Y-115572857D01*
X177998095Y-115515714D01*
X177712381Y-116058571D02*
X177712381Y-116430000D01*
X178093333Y-116230000D01*
X178093333Y-116315714D01*
X178140952Y-116372857D01*
X178188571Y-116401428D01*
X178283810Y-116430000D01*
X178521905Y-116430000D01*
X178617143Y-116401428D01*
X178664762Y-116372857D01*
X178712381Y-116315714D01*
X178712381Y-116144286D01*
X178664762Y-116087143D01*
X178617143Y-116058571D01*
X180212381Y-113172857D02*
X179212381Y-113172857D01*
X179212381Y-113315714D01*
X179260000Y-113401429D01*
X179355238Y-113458571D01*
X179450476Y-113487143D01*
X179640952Y-113515714D01*
X179783810Y-113515714D01*
X179974286Y-113487143D01*
X180069524Y-113458571D01*
X180164762Y-113401429D01*
X180212381Y-113315714D01*
X180212381Y-113172857D01*
X179640952Y-113858571D02*
X179593333Y-113801429D01*
X179545714Y-113772857D01*
X179450476Y-113744286D01*
X179402857Y-113744286D01*
X179307619Y-113772857D01*
X179260000Y-113801429D01*
X179212381Y-113858571D01*
X179212381Y-113972857D01*
X179260000Y-114030000D01*
X179307619Y-114058571D01*
X179402857Y-114087143D01*
X179450476Y-114087143D01*
X179545714Y-114058571D01*
X179593333Y-114030000D01*
X179640952Y-113972857D01*
X179640952Y-113858571D01*
X179688571Y-113801429D01*
X179736190Y-113772857D01*
X179831429Y-113744286D01*
X180021905Y-113744286D01*
X180117143Y-113772857D01*
X180164762Y-113801429D01*
X180212381Y-113858571D01*
X180212381Y-113972857D01*
X180164762Y-114030000D01*
X180117143Y-114058571D01*
X180021905Y-114087143D01*
X179831429Y-114087143D01*
X179736190Y-114058571D01*
X179688571Y-114030000D01*
X179640952Y-113972857D01*
X180117143Y-114344286D02*
X180164762Y-114372858D01*
X180212381Y-114344286D01*
X180164762Y-114315715D01*
X180117143Y-114344286D01*
X180212381Y-114344286D01*
X179593333Y-114344286D02*
X179640952Y-114372858D01*
X179688571Y-114344286D01*
X179640952Y-114315715D01*
X179593333Y-114344286D01*
X179688571Y-114344286D01*
X180212381Y-114630000D02*
X179212381Y-114630000D01*
X179212381Y-115030000D02*
X179212381Y-115144286D01*
X179260000Y-115201428D01*
X179355238Y-115258571D01*
X179545714Y-115287143D01*
X179879048Y-115287143D01*
X180069524Y-115258571D01*
X180164762Y-115201428D01*
X180212381Y-115144286D01*
X180212381Y-115030000D01*
X180164762Y-114972857D01*
X180069524Y-114915714D01*
X179879048Y-114887143D01*
X179545714Y-114887143D01*
X179355238Y-114915714D01*
X179260000Y-114972857D01*
X179212381Y-115030000D01*
X180212381Y-115858571D02*
X180212381Y-115515714D01*
X180212381Y-115687142D02*
X179212381Y-115687142D01*
X179355238Y-115629999D01*
X179450476Y-115572857D01*
X179498095Y-115515714D01*
X179212381Y-116401428D02*
X179212381Y-116115714D01*
X179688571Y-116087143D01*
X179640952Y-116115714D01*
X179593333Y-116172857D01*
X179593333Y-116315714D01*
X179640952Y-116372857D01*
X179688571Y-116401428D01*
X179783810Y-116430000D01*
X180021905Y-116430000D01*
X180117143Y-116401428D01*
X180164762Y-116372857D01*
X180212381Y-116315714D01*
X180212381Y-116172857D01*
X180164762Y-116115714D01*
X180117143Y-116087143D01*
X181712381Y-113172857D02*
X180712381Y-113172857D01*
X180712381Y-113315714D01*
X180760000Y-113401429D01*
X180855238Y-113458571D01*
X180950476Y-113487143D01*
X181140952Y-113515714D01*
X181283810Y-113515714D01*
X181474286Y-113487143D01*
X181569524Y-113458571D01*
X181664762Y-113401429D01*
X181712381Y-113315714D01*
X181712381Y-113172857D01*
X181712381Y-113801429D02*
X181712381Y-113915714D01*
X181664762Y-113972857D01*
X181617143Y-114001429D01*
X181474286Y-114058571D01*
X181283810Y-114087143D01*
X180902857Y-114087143D01*
X180807619Y-114058571D01*
X180760000Y-114030000D01*
X180712381Y-113972857D01*
X180712381Y-113858571D01*
X180760000Y-113801429D01*
X180807619Y-113772857D01*
X180902857Y-113744286D01*
X181140952Y-113744286D01*
X181236190Y-113772857D01*
X181283810Y-113801429D01*
X181331429Y-113858571D01*
X181331429Y-113972857D01*
X181283810Y-114030000D01*
X181236190Y-114058571D01*
X181140952Y-114087143D01*
X181617143Y-114344286D02*
X181664762Y-114372858D01*
X181712381Y-114344286D01*
X181664762Y-114315715D01*
X181617143Y-114344286D01*
X181712381Y-114344286D01*
X181093333Y-114344286D02*
X181140952Y-114372858D01*
X181188571Y-114344286D01*
X181140952Y-114315715D01*
X181093333Y-114344286D01*
X181188571Y-114344286D01*
X181712381Y-114972857D02*
X181236190Y-114772857D01*
X181712381Y-114630000D02*
X180712381Y-114630000D01*
X180712381Y-114858572D01*
X180760000Y-114915714D01*
X180807619Y-114944286D01*
X180902857Y-114972857D01*
X181045714Y-114972857D01*
X181140952Y-114944286D01*
X181188571Y-114915714D01*
X181236190Y-114858572D01*
X181236190Y-114630000D01*
X180712381Y-115172857D02*
X181712381Y-115572857D01*
X180712381Y-115572857D02*
X181712381Y-115172857D01*
X183212381Y-113172857D02*
X182212381Y-113172857D01*
X182212381Y-113315714D01*
X182260000Y-113401429D01*
X182355238Y-113458571D01*
X182450476Y-113487143D01*
X182640952Y-113515714D01*
X182783810Y-113515714D01*
X182974286Y-113487143D01*
X183069524Y-113458571D01*
X183164762Y-113401429D01*
X183212381Y-113315714D01*
X183212381Y-113172857D01*
X183212381Y-114087143D02*
X183212381Y-113744286D01*
X183212381Y-113915714D02*
X182212381Y-113915714D01*
X182355238Y-113858571D01*
X182450476Y-113801429D01*
X182498095Y-113744286D01*
X182212381Y-114458572D02*
X182212381Y-114515715D01*
X182260000Y-114572858D01*
X182307619Y-114601429D01*
X182402857Y-114630000D01*
X182593333Y-114658572D01*
X182831429Y-114658572D01*
X183021905Y-114630000D01*
X183117143Y-114601429D01*
X183164762Y-114572858D01*
X183212381Y-114515715D01*
X183212381Y-114458572D01*
X183164762Y-114401429D01*
X183117143Y-114372858D01*
X183021905Y-114344286D01*
X182831429Y-114315715D01*
X182593333Y-114315715D01*
X182402857Y-114344286D01*
X182307619Y-114372858D01*
X182260000Y-114401429D01*
X182212381Y-114458572D01*
X183117143Y-114915715D02*
X183164762Y-114944287D01*
X183212381Y-114915715D01*
X183164762Y-114887144D01*
X183117143Y-114915715D01*
X183212381Y-114915715D01*
X182593333Y-114915715D02*
X182640952Y-114944287D01*
X182688571Y-114915715D01*
X182640952Y-114887144D01*
X182593333Y-114915715D01*
X182688571Y-114915715D01*
X182212381Y-115115715D02*
X182212381Y-115458572D01*
X183212381Y-115287143D02*
X182212381Y-115287143D01*
X182212381Y-115601429D02*
X183212381Y-116001429D01*
X182212381Y-116001429D02*
X183212381Y-115601429D01*
D11*
X184996429Y-112434714D02*
X183996429Y-112434714D01*
X183567858Y-114006143D02*
X184996429Y-114006143D01*
X184996429Y-111006143D01*
X183567858Y-111006143D01*
X182425000Y-113863286D02*
X181996429Y-114006143D01*
X181282143Y-114006143D01*
X180996429Y-113863286D01*
X180853572Y-113720429D01*
X180710715Y-113434714D01*
X180710715Y-113149000D01*
X180853572Y-112863286D01*
X180996429Y-112720429D01*
X181282143Y-112577571D01*
X181853572Y-112434714D01*
X182139286Y-112291857D01*
X182282143Y-112149000D01*
X182425000Y-111863286D01*
X182425000Y-111577571D01*
X182282143Y-111291857D01*
X182139286Y-111149000D01*
X181853572Y-111006143D01*
X181139286Y-111006143D01*
X180710715Y-111149000D01*
X179710715Y-111006143D02*
X177710715Y-114006143D01*
X177710715Y-111006143D02*
X179710715Y-114006143D01*
X176710714Y-113149000D02*
X175282143Y-113149000D01*
X176996429Y-114006143D02*
X175996429Y-111006143D01*
X174996429Y-114006143D01*
X172282143Y-114006143D02*
X173282143Y-112577571D01*
X173996428Y-114006143D02*
X173996428Y-111006143D01*
X172853571Y-111006143D01*
X172567857Y-111149000D01*
X172425000Y-111291857D01*
X172282143Y-111577571D01*
X172282143Y-112006143D01*
X172425000Y-112291857D01*
X172567857Y-112434714D01*
X172853571Y-112577571D01*
X173996428Y-112577571D01*
X169139286Y-111006143D02*
X168139286Y-114006143D01*
X167139286Y-111006143D01*
X164996428Y-113863286D02*
X165282142Y-114006143D01*
X165853571Y-114006143D01*
X166139285Y-113863286D01*
X166282142Y-113577571D01*
X166282142Y-112434714D01*
X166139285Y-112149000D01*
X165853571Y-112006143D01*
X165282142Y-112006143D01*
X164996428Y-112149000D01*
X164853571Y-112434714D01*
X164853571Y-112720429D01*
X166282142Y-113006143D01*
X163567856Y-114006143D02*
X163567856Y-112006143D01*
X163567856Y-112577571D02*
X163424999Y-112291857D01*
X163282142Y-112149000D01*
X162996428Y-112006143D01*
X162710713Y-112006143D01*
X161710713Y-113720429D02*
X161567856Y-113863286D01*
X161710713Y-114006143D01*
X161853570Y-113863286D01*
X161710713Y-113720429D01*
X161710713Y-114006143D01*
X160424999Y-111291857D02*
X160282142Y-111149000D01*
X159996428Y-111006143D01*
X159282142Y-111006143D01*
X158996428Y-111149000D01*
X158853571Y-111291857D01*
X158710714Y-111577571D01*
X158710714Y-111863286D01*
X158853571Y-112291857D01*
X160567857Y-114006143D01*
X158710714Y-114006143D01*
X156853571Y-111006143D02*
X156567856Y-111006143D01*
X156282142Y-111149000D01*
X156139285Y-111291857D01*
X155996428Y-111577571D01*
X155853571Y-112149000D01*
X155853571Y-112863286D01*
X155996428Y-113434714D01*
X156139285Y-113720429D01*
X156282142Y-113863286D01*
X156567856Y-114006143D01*
X156853571Y-114006143D01*
X157139285Y-113863286D01*
X157282142Y-113720429D01*
X157424999Y-113434714D01*
X157567856Y-112863286D01*
X157567856Y-112149000D01*
X157424999Y-111577571D01*
X157282142Y-111291857D01*
X157139285Y-111149000D01*
X156853571Y-111006143D01*
X152996428Y-114006143D02*
X154710713Y-114006143D01*
X153853571Y-114006143D02*
X153853571Y-111006143D01*
X154139285Y-111434714D01*
X154424999Y-111720429D01*
X154710713Y-111863286D01*
X150424999Y-111006143D02*
X150996428Y-111006143D01*
X151282142Y-111149000D01*
X151424999Y-111291857D01*
X151710713Y-111720429D01*
X151853570Y-112291857D01*
X151853570Y-113434714D01*
X151710713Y-113720429D01*
X151567856Y-113863286D01*
X151282142Y-114006143D01*
X150710713Y-114006143D01*
X150424999Y-113863286D01*
X150282142Y-113720429D01*
X150139285Y-113434714D01*
X150139285Y-112720429D01*
X150282142Y-112434714D01*
X150424999Y-112291857D01*
X150710713Y-112149000D01*
X151282142Y-112149000D01*
X151567856Y-112291857D01*
X151710713Y-112434714D01*
X151853570Y-112720429D01*
X148282142Y-111006143D02*
X147996427Y-111006143D01*
X147710713Y-111149000D01*
X147567856Y-111291857D01*
X147424999Y-111577571D01*
X147282142Y-112149000D01*
X147282142Y-112863286D01*
X147424999Y-113434714D01*
X147567856Y-113720429D01*
X147710713Y-113863286D01*
X147996427Y-114006143D01*
X148282142Y-114006143D01*
X148567856Y-113863286D01*
X148710713Y-113720429D01*
X148853570Y-113434714D01*
X148996427Y-112863286D01*
X148996427Y-112149000D01*
X148853570Y-111577571D01*
X148710713Y-111291857D01*
X148567856Y-111149000D01*
X148282142Y-111006143D01*
X145567856Y-112291857D02*
X145853570Y-112149000D01*
X145996427Y-112006143D01*
X146139284Y-111720429D01*
X146139284Y-111577571D01*
X145996427Y-111291857D01*
X145853570Y-111149000D01*
X145567856Y-111006143D01*
X144996427Y-111006143D01*
X144710713Y-111149000D01*
X144567856Y-111291857D01*
X144424999Y-111577571D01*
X144424999Y-111720429D01*
X144567856Y-112006143D01*
X144710713Y-112149000D01*
X144996427Y-112291857D01*
X145567856Y-112291857D01*
X145853570Y-112434714D01*
X145996427Y-112577571D01*
X146139284Y-112863286D01*
X146139284Y-113434714D01*
X145996427Y-113720429D01*
X145853570Y-113863286D01*
X145567856Y-114006143D01*
X144996427Y-114006143D01*
X144710713Y-113863286D01*
X144567856Y-113720429D01*
X144424999Y-113434714D01*
X144424999Y-112863286D01*
X144567856Y-112577571D01*
X144710713Y-112434714D01*
X144996427Y-112291857D01*
X142567856Y-111006143D02*
X142282141Y-111006143D01*
X141996427Y-111149000D01*
X141853570Y-111291857D01*
X141710713Y-111577571D01*
X141567856Y-112149000D01*
X141567856Y-112863286D01*
X141710713Y-113434714D01*
X141853570Y-113720429D01*
X141996427Y-113863286D01*
X142282141Y-114006143D01*
X142567856Y-114006143D01*
X142853570Y-113863286D01*
X142996427Y-113720429D01*
X143139284Y-113434714D01*
X143282141Y-112863286D01*
X143282141Y-112149000D01*
X143139284Y-111577571D01*
X142996427Y-111291857D01*
X142853570Y-111149000D01*
X142567856Y-111006143D01*
X140424998Y-111291857D02*
X140282141Y-111149000D01*
X139996427Y-111006143D01*
X139282141Y-111006143D01*
X138996427Y-111149000D01*
X138853570Y-111291857D01*
X138710713Y-111577571D01*
X138710713Y-111863286D01*
X138853570Y-112291857D01*
X140567856Y-114006143D01*
X138710713Y-114006143D01*
D12*
X183706191Y-117798810D02*
X183630476Y-117836905D01*
X183504286Y-117836905D01*
X183453810Y-117798810D01*
X183428572Y-117760714D01*
X183403333Y-117684524D01*
X183403333Y-117608333D01*
X183428572Y-117532143D01*
X183453810Y-117494048D01*
X183504286Y-117455952D01*
X183605238Y-117417857D01*
X183655714Y-117379762D01*
X183680953Y-117341667D01*
X183706191Y-117265476D01*
X183706191Y-117189286D01*
X183680953Y-117113095D01*
X183655714Y-117075000D01*
X183605238Y-117036905D01*
X183479048Y-117036905D01*
X183403333Y-117075000D01*
X183176191Y-117836905D02*
X183176191Y-117036905D01*
X182974286Y-117036905D01*
X182923810Y-117075000D01*
X182898571Y-117113095D01*
X182873333Y-117189286D01*
X182873333Y-117303571D01*
X182898571Y-117379762D01*
X182923810Y-117417857D01*
X182974286Y-117455952D01*
X183176191Y-117455952D01*
X182646191Y-117836905D02*
X182646191Y-117036905D01*
X182343333Y-117836905D02*
X182570476Y-117379762D01*
X182343333Y-117036905D02*
X182646191Y-117494048D01*
X182116191Y-117417857D02*
X181712381Y-117417857D01*
X181712381Y-117646429D02*
X182116191Y-117646429D01*
X181460001Y-117836905D02*
X181460001Y-117036905D01*
X181333810Y-117036905D01*
X181258096Y-117075000D01*
X181207620Y-117151190D01*
X181182381Y-117227381D01*
X181157143Y-117379762D01*
X181157143Y-117494048D01*
X181182381Y-117646429D01*
X181207620Y-117722619D01*
X181258096Y-117798810D01*
X181333810Y-117836905D01*
X181460001Y-117836905D01*
X180702858Y-117036905D02*
X180803810Y-117036905D01*
X180854286Y-117075000D01*
X180879524Y-117113095D01*
X180930001Y-117227381D01*
X180955239Y-117379762D01*
X180955239Y-117684524D01*
X180930001Y-117760714D01*
X180904762Y-117798810D01*
X180854286Y-117836905D01*
X180753334Y-117836905D01*
X180702858Y-117798810D01*
X180677620Y-117760714D01*
X180652381Y-117684524D01*
X180652381Y-117494048D01*
X180677620Y-117417857D01*
X180702858Y-117379762D01*
X180753334Y-117341667D01*
X180854286Y-117341667D01*
X180904762Y-117379762D01*
X180930001Y-117417857D01*
X180955239Y-117494048D01*
X180021429Y-117036905D02*
X180021429Y-117684524D01*
X179996190Y-117760714D01*
X179970952Y-117798810D01*
X179920476Y-117836905D01*
X179819524Y-117836905D01*
X179769048Y-117798810D01*
X179743809Y-117760714D01*
X179718571Y-117684524D01*
X179718571Y-117036905D01*
X179491429Y-117798810D02*
X179415714Y-117836905D01*
X179289524Y-117836905D01*
X179239048Y-117798810D01*
X179213810Y-117760714D01*
X179188571Y-117684524D01*
X179188571Y-117608333D01*
X179213810Y-117532143D01*
X179239048Y-117494048D01*
X179289524Y-117455952D01*
X179390476Y-117417857D01*
X179440952Y-117379762D01*
X179466191Y-117341667D01*
X179491429Y-117265476D01*
X179491429Y-117189286D01*
X179466191Y-117113095D01*
X179440952Y-117075000D01*
X179390476Y-117036905D01*
X179264286Y-117036905D01*
X179188571Y-117075000D01*
X178784762Y-117417857D02*
X178709048Y-117455952D01*
X178683809Y-117494048D01*
X178658571Y-117570238D01*
X178658571Y-117684524D01*
X178683809Y-117760714D01*
X178709048Y-117798810D01*
X178759524Y-117836905D01*
X178961429Y-117836905D01*
X178961429Y-117036905D01*
X178784762Y-117036905D01*
X178734286Y-117075000D01*
X178709048Y-117113095D01*
X178683809Y-117189286D01*
X178683809Y-117265476D01*
X178709048Y-117341667D01*
X178734286Y-117379762D01*
X178784762Y-117417857D01*
X178961429Y-117417857D01*
X178431429Y-117417857D02*
X178027619Y-117417857D01*
X178027619Y-117646429D02*
X178431429Y-117646429D01*
X177775239Y-117836905D02*
X177775239Y-117036905D01*
X177649048Y-117036905D01*
X177573334Y-117075000D01*
X177522858Y-117151190D01*
X177497619Y-117227381D01*
X177472381Y-117379762D01*
X177472381Y-117494048D01*
X177497619Y-117646429D01*
X177522858Y-117722619D01*
X177573334Y-117798810D01*
X177649048Y-117836905D01*
X177775239Y-117836905D01*
X177018096Y-117303571D02*
X177018096Y-117836905D01*
X177144286Y-116998810D02*
X177270477Y-117570238D01*
X176942381Y-117570238D01*
X176033809Y-117836905D02*
X176210476Y-117455952D01*
X176336667Y-117836905D02*
X176336667Y-117036905D01*
X176134762Y-117036905D01*
X176084286Y-117075000D01*
X176059047Y-117113095D01*
X176033809Y-117189286D01*
X176033809Y-117303571D01*
X176059047Y-117379762D01*
X176084286Y-117417857D01*
X176134762Y-117455952D01*
X176336667Y-117455952D01*
X175806667Y-117417857D02*
X175402857Y-117417857D01*
X175402857Y-117646429D02*
X175806667Y-117646429D01*
X175150477Y-117836905D02*
X175150477Y-117036905D01*
X175024286Y-117036905D01*
X174948572Y-117075000D01*
X174898096Y-117151190D01*
X174872857Y-117227381D01*
X174847619Y-117379762D01*
X174847619Y-117494048D01*
X174872857Y-117646429D01*
X174898096Y-117722619D01*
X174948572Y-117798810D01*
X175024286Y-117836905D01*
X175150477Y-117836905D01*
X174342857Y-117836905D02*
X174645715Y-117836905D01*
X174494286Y-117836905D02*
X174494286Y-117036905D01*
X174544762Y-117151190D01*
X174595238Y-117227381D01*
X174645715Y-117265476D01*
X173888572Y-117036905D02*
X173989524Y-117036905D01*
X174040000Y-117075000D01*
X174065238Y-117113095D01*
X174115715Y-117227381D01*
X174140953Y-117379762D01*
X174140953Y-117684524D01*
X174115715Y-117760714D01*
X174090476Y-117798810D01*
X174040000Y-117836905D01*
X173939048Y-117836905D01*
X173888572Y-117798810D01*
X173863334Y-117760714D01*
X173838095Y-117684524D01*
X173838095Y-117494048D01*
X173863334Y-117417857D01*
X173888572Y-117379762D01*
X173939048Y-117341667D01*
X174040000Y-117341667D01*
X174090476Y-117379762D01*
X174115715Y-117417857D01*
X174140953Y-117494048D01*
X172929523Y-117075000D02*
X172980000Y-117036905D01*
X173055714Y-117036905D01*
X173131428Y-117075000D01*
X173181904Y-117151190D01*
X173207143Y-117227381D01*
X173232381Y-117379762D01*
X173232381Y-117494048D01*
X173207143Y-117646429D01*
X173181904Y-117722619D01*
X173131428Y-117798810D01*
X173055714Y-117836905D01*
X173005238Y-117836905D01*
X172929523Y-117798810D01*
X172904285Y-117760714D01*
X172904285Y-117494048D01*
X173005238Y-117494048D01*
X172677143Y-117417857D02*
X172273333Y-117417857D01*
X172273333Y-117646429D02*
X172677143Y-117646429D01*
X172020953Y-117836905D02*
X172020953Y-117036905D01*
X171894762Y-117036905D01*
X171819048Y-117075000D01*
X171768572Y-117151190D01*
X171743333Y-117227381D01*
X171718095Y-117379762D01*
X171718095Y-117494048D01*
X171743333Y-117646429D01*
X171768572Y-117722619D01*
X171819048Y-117798810D01*
X171894762Y-117836905D01*
X172020953Y-117836905D01*
X171516191Y-117113095D02*
X171490953Y-117075000D01*
X171440476Y-117036905D01*
X171314286Y-117036905D01*
X171263810Y-117075000D01*
X171238572Y-117113095D01*
X171213333Y-117189286D01*
X171213333Y-117265476D01*
X171238572Y-117379762D01*
X171541429Y-117836905D01*
X171213333Y-117836905D01*
X170405714Y-117417857D02*
X170330000Y-117455952D01*
X170304761Y-117494048D01*
X170279523Y-117570238D01*
X170279523Y-117684524D01*
X170304761Y-117760714D01*
X170330000Y-117798810D01*
X170380476Y-117836905D01*
X170582381Y-117836905D01*
X170582381Y-117036905D01*
X170405714Y-117036905D01*
X170355238Y-117075000D01*
X170330000Y-117113095D01*
X170304761Y-117189286D01*
X170304761Y-117265476D01*
X170330000Y-117341667D01*
X170355238Y-117379762D01*
X170405714Y-117417857D01*
X170582381Y-117417857D01*
X170052381Y-117417857D02*
X169648571Y-117417857D01*
X169648571Y-117646429D02*
X170052381Y-117646429D01*
X169396191Y-117836905D02*
X169396191Y-117036905D01*
X169270000Y-117036905D01*
X169194286Y-117075000D01*
X169143810Y-117151190D01*
X169118571Y-117227381D01*
X169093333Y-117379762D01*
X169093333Y-117494048D01*
X169118571Y-117646429D01*
X169143810Y-117722619D01*
X169194286Y-117798810D01*
X169270000Y-117836905D01*
X169396191Y-117836905D01*
X168588571Y-117836905D02*
X168891429Y-117836905D01*
X168740000Y-117836905D02*
X168740000Y-117036905D01*
X168790476Y-117151190D01*
X168840952Y-117227381D01*
X168891429Y-117265476D01*
X168109048Y-117036905D02*
X168361429Y-117036905D01*
X168386667Y-117417857D01*
X168361429Y-117379762D01*
X168310952Y-117341667D01*
X168184762Y-117341667D01*
X168134286Y-117379762D01*
X168109048Y-117417857D01*
X168083809Y-117494048D01*
X168083809Y-117684524D01*
X168109048Y-117760714D01*
X168134286Y-117798810D01*
X168184762Y-117836905D01*
X168310952Y-117836905D01*
X168361429Y-117798810D01*
X168386667Y-117760714D01*
D13*
X167228000Y-152542000D02*
X167228000Y-140792000D01*
X179228000Y-140792000D02*
X179228000Y-152542000D01*
X179228000Y-140792000D02*
X167228000Y-140792000D01*
X179228000Y-143892000D02*
X167228000Y-143892000D01*
X167228000Y-152542000D02*
X179228000Y-152542000D01*
D14*
G36*
X164246560Y-118069360D02*
X164216080Y-118054120D01*
X164152580Y-118013480D01*
X164058600Y-117952520D01*
X163949380Y-117878860D01*
X163837620Y-117802660D01*
X163748720Y-117741700D01*
X163685220Y-117701060D01*
X163657280Y-117688360D01*
X163644580Y-117693440D01*
X163591240Y-117718840D01*
X163515040Y-117756940D01*
X163471860Y-117779800D01*
X163400740Y-117810280D01*
X163367720Y-117815360D01*
X163360100Y-117807740D01*
X163334700Y-117754400D01*
X163296600Y-117662960D01*
X163243260Y-117541040D01*
X163182300Y-117401340D01*
X163118800Y-117248940D01*
X163052760Y-117094000D01*
X162991800Y-116944140D01*
X162938460Y-116812060D01*
X162895280Y-116702840D01*
X162864800Y-116629180D01*
X162854640Y-116596160D01*
X162857180Y-116588540D01*
X162892740Y-116555520D01*
X162953700Y-116509800D01*
X163085780Y-116403120D01*
X163215320Y-116240560D01*
X163294060Y-116055140D01*
X163322000Y-115851940D01*
X163299140Y-115661440D01*
X163222940Y-115478560D01*
X163095940Y-115316000D01*
X162943540Y-115194080D01*
X162763200Y-115115340D01*
X162560000Y-115092480D01*
X162366960Y-115112800D01*
X162181540Y-115186460D01*
X162016440Y-115310920D01*
X161947860Y-115392200D01*
X161851340Y-115557300D01*
X161798000Y-115735100D01*
X161790380Y-115780820D01*
X161800540Y-115976400D01*
X161856420Y-116161820D01*
X161960560Y-116329460D01*
X162102800Y-116466620D01*
X162120580Y-116481860D01*
X162189160Y-116530120D01*
X162232340Y-116565680D01*
X162267900Y-116593620D01*
X162018980Y-117193060D01*
X161978340Y-117287040D01*
X161909760Y-117452140D01*
X161851340Y-117591840D01*
X161803080Y-117703600D01*
X161770060Y-117779800D01*
X161754820Y-117810280D01*
X161752280Y-117810280D01*
X161731960Y-117815360D01*
X161686240Y-117797580D01*
X161602420Y-117756940D01*
X161546540Y-117729000D01*
X161483040Y-117698520D01*
X161455100Y-117688360D01*
X161429700Y-117701060D01*
X161368740Y-117739160D01*
X161279840Y-117800120D01*
X161173160Y-117873780D01*
X161071560Y-117942360D01*
X160977580Y-118003320D01*
X160909000Y-118046500D01*
X160875980Y-118064280D01*
X160870900Y-118064280D01*
X160840420Y-118049040D01*
X160787080Y-118003320D01*
X160705800Y-117927120D01*
X160588960Y-117812820D01*
X160571180Y-117795040D01*
X160477200Y-117698520D01*
X160401000Y-117617240D01*
X160347660Y-117561360D01*
X160329880Y-117533420D01*
X160329880Y-117533420D01*
X160347660Y-117500400D01*
X160390840Y-117434360D01*
X160451800Y-117337840D01*
X160528000Y-117226080D01*
X160726120Y-116939060D01*
X160616900Y-116667280D01*
X160583880Y-116583460D01*
X160540700Y-116481860D01*
X160510220Y-116410740D01*
X160494980Y-116377720D01*
X160464500Y-116367560D01*
X160390840Y-116349780D01*
X160281620Y-116326920D01*
X160152080Y-116304060D01*
X160030160Y-116281200D01*
X159920940Y-116260880D01*
X159839660Y-116245640D01*
X159804100Y-116238020D01*
X159793940Y-116232940D01*
X159788860Y-116215160D01*
X159783780Y-116177060D01*
X159781240Y-116111020D01*
X159778700Y-116004340D01*
X159778700Y-115851940D01*
X159778700Y-115834160D01*
X159781240Y-115686840D01*
X159783780Y-115572540D01*
X159786320Y-115496340D01*
X159791400Y-115465860D01*
X159791400Y-115465860D01*
X159826960Y-115458240D01*
X159905700Y-115440460D01*
X160014920Y-115420140D01*
X160147000Y-115394740D01*
X160157160Y-115392200D01*
X160286700Y-115366800D01*
X160398460Y-115343940D01*
X160474660Y-115326160D01*
X160507680Y-115316000D01*
X160515300Y-115305840D01*
X160540700Y-115255040D01*
X160578800Y-115173760D01*
X160621980Y-115074700D01*
X160665160Y-114970560D01*
X160703260Y-114879120D01*
X160728660Y-114808000D01*
X160736280Y-114777520D01*
X160733740Y-114777520D01*
X160715960Y-114744500D01*
X160670240Y-114675920D01*
X160606740Y-114581940D01*
X160528000Y-114470180D01*
X160522920Y-114462560D01*
X160446720Y-114350800D01*
X160385760Y-114256820D01*
X160345120Y-114188240D01*
X160329880Y-114157760D01*
X160329880Y-114157760D01*
X160355280Y-114124740D01*
X160411160Y-114061240D01*
X160492440Y-113974880D01*
X160591500Y-113878360D01*
X160621980Y-113847880D01*
X160728660Y-113741200D01*
X160804860Y-113672620D01*
X160850580Y-113634520D01*
X160873440Y-113626900D01*
X160875980Y-113626900D01*
X160909000Y-113647220D01*
X160977580Y-113692940D01*
X161074100Y-113758980D01*
X161185860Y-113835180D01*
X161193480Y-113840260D01*
X161305240Y-113916460D01*
X161399220Y-113979960D01*
X161465260Y-114023140D01*
X161493200Y-114040920D01*
X161498280Y-114040920D01*
X161544000Y-114025680D01*
X161622740Y-113997740D01*
X161719260Y-113962180D01*
X161823400Y-113919000D01*
X161914840Y-113880900D01*
X161985960Y-113847880D01*
X162018980Y-113830100D01*
X162018980Y-113827560D01*
X162031680Y-113789460D01*
X162052000Y-113705640D01*
X162074860Y-113591340D01*
X162100260Y-113454180D01*
X162105340Y-113431320D01*
X162130740Y-113299240D01*
X162151060Y-113190020D01*
X162166300Y-113113820D01*
X162173920Y-113083340D01*
X162194240Y-113078260D01*
X162257740Y-113073180D01*
X162356800Y-113070640D01*
X162476180Y-113070640D01*
X162600640Y-113070640D01*
X162725100Y-113073180D01*
X162829240Y-113078260D01*
X162905440Y-113083340D01*
X162935920Y-113088420D01*
X162935920Y-113090960D01*
X162948620Y-113131600D01*
X162966400Y-113215420D01*
X162989260Y-113329720D01*
X163017200Y-113466880D01*
X163022280Y-113492280D01*
X163045140Y-113624360D01*
X163068000Y-113731040D01*
X163083240Y-113807240D01*
X163093400Y-113835180D01*
X163103560Y-113842800D01*
X163159440Y-113865660D01*
X163248340Y-113903760D01*
X163357560Y-113946940D01*
X163611560Y-114051080D01*
X163923980Y-113835180D01*
X163954460Y-113817400D01*
X164066220Y-113741200D01*
X164157660Y-113677700D01*
X164221160Y-113637060D01*
X164249100Y-113621820D01*
X164251640Y-113624360D01*
X164282120Y-113649760D01*
X164343080Y-113708180D01*
X164429440Y-113792000D01*
X164525960Y-113888520D01*
X164599620Y-113962180D01*
X164685980Y-114048540D01*
X164739320Y-114106960D01*
X164769800Y-114145060D01*
X164779960Y-114167920D01*
X164777420Y-114183160D01*
X164757100Y-114216180D01*
X164711380Y-114284760D01*
X164647880Y-114378740D01*
X164571680Y-114490500D01*
X164508180Y-114581940D01*
X164442140Y-114686080D01*
X164396420Y-114762280D01*
X164381180Y-114797840D01*
X164386260Y-114813080D01*
X164406580Y-114874040D01*
X164444680Y-114968020D01*
X164490400Y-115077240D01*
X164599620Y-115323620D01*
X164762180Y-115356640D01*
X164861240Y-115374420D01*
X164998400Y-115399820D01*
X165127940Y-115425220D01*
X165333680Y-115465860D01*
X165341300Y-116217700D01*
X165310820Y-116232940D01*
X165280340Y-116240560D01*
X165204140Y-116258340D01*
X165094920Y-116278660D01*
X164967920Y-116304060D01*
X164858700Y-116324380D01*
X164746940Y-116344700D01*
X164668200Y-116359940D01*
X164632640Y-116367560D01*
X164625020Y-116377720D01*
X164597080Y-116431060D01*
X164558980Y-116517420D01*
X164515800Y-116619020D01*
X164470080Y-116723160D01*
X164431980Y-116822220D01*
X164404040Y-116895880D01*
X164393880Y-116933980D01*
X164409120Y-116961920D01*
X164452300Y-117027960D01*
X164513260Y-117119400D01*
X164586920Y-117228620D01*
X164660580Y-117337840D01*
X164724080Y-117431820D01*
X164767260Y-117497860D01*
X164787580Y-117528340D01*
X164777420Y-117551200D01*
X164734240Y-117602000D01*
X164650420Y-117688360D01*
X164528500Y-117810280D01*
X164508180Y-117828060D01*
X164411660Y-117922040D01*
X164327840Y-117998240D01*
X164271960Y-118049040D01*
X164246560Y-118069360D01*
X164246560Y-118069360D01*
G37*
X164246560Y-118069360D02*
X164216080Y-118054120D01*
X164152580Y-118013480D01*
X164058600Y-117952520D01*
X163949380Y-117878860D01*
X163837620Y-117802660D01*
X163748720Y-117741700D01*
X163685220Y-117701060D01*
X163657280Y-117688360D01*
X163644580Y-117693440D01*
X163591240Y-117718840D01*
X163515040Y-117756940D01*
X163471860Y-117779800D01*
X163400740Y-117810280D01*
X163367720Y-117815360D01*
X163360100Y-117807740D01*
X163334700Y-117754400D01*
X163296600Y-117662960D01*
X163243260Y-117541040D01*
X163182300Y-117401340D01*
X163118800Y-117248940D01*
X163052760Y-117094000D01*
X162991800Y-116944140D01*
X162938460Y-116812060D01*
X162895280Y-116702840D01*
X162864800Y-116629180D01*
X162854640Y-116596160D01*
X162857180Y-116588540D01*
X162892740Y-116555520D01*
X162953700Y-116509800D01*
X163085780Y-116403120D01*
X163215320Y-116240560D01*
X163294060Y-116055140D01*
X163322000Y-115851940D01*
X163299140Y-115661440D01*
X163222940Y-115478560D01*
X163095940Y-115316000D01*
X162943540Y-115194080D01*
X162763200Y-115115340D01*
X162560000Y-115092480D01*
X162366960Y-115112800D01*
X162181540Y-115186460D01*
X162016440Y-115310920D01*
X161947860Y-115392200D01*
X161851340Y-115557300D01*
X161798000Y-115735100D01*
X161790380Y-115780820D01*
X161800540Y-115976400D01*
X161856420Y-116161820D01*
X161960560Y-116329460D01*
X162102800Y-116466620D01*
X162120580Y-116481860D01*
X162189160Y-116530120D01*
X162232340Y-116565680D01*
X162267900Y-116593620D01*
X162018980Y-117193060D01*
X161978340Y-117287040D01*
X161909760Y-117452140D01*
X161851340Y-117591840D01*
X161803080Y-117703600D01*
X161770060Y-117779800D01*
X161754820Y-117810280D01*
X161752280Y-117810280D01*
X161731960Y-117815360D01*
X161686240Y-117797580D01*
X161602420Y-117756940D01*
X161546540Y-117729000D01*
X161483040Y-117698520D01*
X161455100Y-117688360D01*
X161429700Y-117701060D01*
X161368740Y-117739160D01*
X161279840Y-117800120D01*
X161173160Y-117873780D01*
X161071560Y-117942360D01*
X160977580Y-118003320D01*
X160909000Y-118046500D01*
X160875980Y-118064280D01*
X160870900Y-118064280D01*
X160840420Y-118049040D01*
X160787080Y-118003320D01*
X160705800Y-117927120D01*
X160588960Y-117812820D01*
X160571180Y-117795040D01*
X160477200Y-117698520D01*
X160401000Y-117617240D01*
X160347660Y-117561360D01*
X160329880Y-117533420D01*
X160329880Y-117533420D01*
X160347660Y-117500400D01*
X160390840Y-117434360D01*
X160451800Y-117337840D01*
X160528000Y-117226080D01*
X160726120Y-116939060D01*
X160616900Y-116667280D01*
X160583880Y-116583460D01*
X160540700Y-116481860D01*
X160510220Y-116410740D01*
X160494980Y-116377720D01*
X160464500Y-116367560D01*
X160390840Y-116349780D01*
X160281620Y-116326920D01*
X160152080Y-116304060D01*
X160030160Y-116281200D01*
X159920940Y-116260880D01*
X159839660Y-116245640D01*
X159804100Y-116238020D01*
X159793940Y-116232940D01*
X159788860Y-116215160D01*
X159783780Y-116177060D01*
X159781240Y-116111020D01*
X159778700Y-116004340D01*
X159778700Y-115851940D01*
X159778700Y-115834160D01*
X159781240Y-115686840D01*
X159783780Y-115572540D01*
X159786320Y-115496340D01*
X159791400Y-115465860D01*
X159791400Y-115465860D01*
X159826960Y-115458240D01*
X159905700Y-115440460D01*
X160014920Y-115420140D01*
X160147000Y-115394740D01*
X160157160Y-115392200D01*
X160286700Y-115366800D01*
X160398460Y-115343940D01*
X160474660Y-115326160D01*
X160507680Y-115316000D01*
X160515300Y-115305840D01*
X160540700Y-115255040D01*
X160578800Y-115173760D01*
X160621980Y-115074700D01*
X160665160Y-114970560D01*
X160703260Y-114879120D01*
X160728660Y-114808000D01*
X160736280Y-114777520D01*
X160733740Y-114777520D01*
X160715960Y-114744500D01*
X160670240Y-114675920D01*
X160606740Y-114581940D01*
X160528000Y-114470180D01*
X160522920Y-114462560D01*
X160446720Y-114350800D01*
X160385760Y-114256820D01*
X160345120Y-114188240D01*
X160329880Y-114157760D01*
X160329880Y-114157760D01*
X160355280Y-114124740D01*
X160411160Y-114061240D01*
X160492440Y-113974880D01*
X160591500Y-113878360D01*
X160621980Y-113847880D01*
X160728660Y-113741200D01*
X160804860Y-113672620D01*
X160850580Y-113634520D01*
X160873440Y-113626900D01*
X160875980Y-113626900D01*
X160909000Y-113647220D01*
X160977580Y-113692940D01*
X161074100Y-113758980D01*
X161185860Y-113835180D01*
X161193480Y-113840260D01*
X161305240Y-113916460D01*
X161399220Y-113979960D01*
X161465260Y-114023140D01*
X161493200Y-114040920D01*
X161498280Y-114040920D01*
X161544000Y-114025680D01*
X161622740Y-113997740D01*
X161719260Y-113962180D01*
X161823400Y-113919000D01*
X161914840Y-113880900D01*
X161985960Y-113847880D01*
X162018980Y-113830100D01*
X162018980Y-113827560D01*
X162031680Y-113789460D01*
X162052000Y-113705640D01*
X162074860Y-113591340D01*
X162100260Y-113454180D01*
X162105340Y-113431320D01*
X162130740Y-113299240D01*
X162151060Y-113190020D01*
X162166300Y-113113820D01*
X162173920Y-113083340D01*
X162194240Y-113078260D01*
X162257740Y-113073180D01*
X162356800Y-113070640D01*
X162476180Y-113070640D01*
X162600640Y-113070640D01*
X162725100Y-113073180D01*
X162829240Y-113078260D01*
X162905440Y-113083340D01*
X162935920Y-113088420D01*
X162935920Y-113090960D01*
X162948620Y-113131600D01*
X162966400Y-113215420D01*
X162989260Y-113329720D01*
X163017200Y-113466880D01*
X163022280Y-113492280D01*
X163045140Y-113624360D01*
X163068000Y-113731040D01*
X163083240Y-113807240D01*
X163093400Y-113835180D01*
X163103560Y-113842800D01*
X163159440Y-113865660D01*
X163248340Y-113903760D01*
X163357560Y-113946940D01*
X163611560Y-114051080D01*
X163923980Y-113835180D01*
X163954460Y-113817400D01*
X164066220Y-113741200D01*
X164157660Y-113677700D01*
X164221160Y-113637060D01*
X164249100Y-113621820D01*
X164251640Y-113624360D01*
X164282120Y-113649760D01*
X164343080Y-113708180D01*
X164429440Y-113792000D01*
X164525960Y-113888520D01*
X164599620Y-113962180D01*
X164685980Y-114048540D01*
X164739320Y-114106960D01*
X164769800Y-114145060D01*
X164779960Y-114167920D01*
X164777420Y-114183160D01*
X164757100Y-114216180D01*
X164711380Y-114284760D01*
X164647880Y-114378740D01*
X164571680Y-114490500D01*
X164508180Y-114581940D01*
X164442140Y-114686080D01*
X164396420Y-114762280D01*
X164381180Y-114797840D01*
X164386260Y-114813080D01*
X164406580Y-114874040D01*
X164444680Y-114968020D01*
X164490400Y-115077240D01*
X164599620Y-115323620D01*
X164762180Y-115356640D01*
X164861240Y-115374420D01*
X164998400Y-115399820D01*
X165127940Y-115425220D01*
X165333680Y-115465860D01*
X165341300Y-116217700D01*
X165310820Y-116232940D01*
X165280340Y-116240560D01*
X165204140Y-116258340D01*
X165094920Y-116278660D01*
X164967920Y-116304060D01*
X164858700Y-116324380D01*
X164746940Y-116344700D01*
X164668200Y-116359940D01*
X164632640Y-116367560D01*
X164625020Y-116377720D01*
X164597080Y-116431060D01*
X164558980Y-116517420D01*
X164515800Y-116619020D01*
X164470080Y-116723160D01*
X164431980Y-116822220D01*
X164404040Y-116895880D01*
X164393880Y-116933980D01*
X164409120Y-116961920D01*
X164452300Y-117027960D01*
X164513260Y-117119400D01*
X164586920Y-117228620D01*
X164660580Y-117337840D01*
X164724080Y-117431820D01*
X164767260Y-117497860D01*
X164787580Y-117528340D01*
X164777420Y-117551200D01*
X164734240Y-117602000D01*
X164650420Y-117688360D01*
X164528500Y-117810280D01*
X164508180Y-117828060D01*
X164411660Y-117922040D01*
X164327840Y-117998240D01*
X164271960Y-118049040D01*
X164246560Y-118069360D01*
M02*
