M48
;DRILL file {KiCad 4.0.2+dfsg1-stable} date 2016年08月02日 19時37分44秒
;FORMAT={-:-/ absolute / inch / decimal}
FMAT,2
INCH,TZ
T1C0.016
T2C0.023
T3C0.024
T4C0.026
T5C0.028
T6C0.031
T7C0.032
T8C0.032
T9C0.039
T10C0.039
T11C0.040
T12C0.060
T13C0.126
T14C0.157
%
G90
G05
M72
T1
X5.6169Y-4.65
X5.78Y-4.51
X5.8181Y-3.9065
X5.84Y-4.56
X5.8446Y-3.8646
X5.86Y-4.59
X5.9Y-3.89
X5.94Y-3.93
X5.94Y-4.62
X5.9591Y-4.5043
X6.0181Y-4.5043
X6.04Y-4.8
X6.08Y-4.42
X6.08Y-4.5
X6.125Y-4.675
X6.13Y-4.15
X6.16Y-4.19
X6.22Y-4.08
X6.265Y-4.365
X6.3025Y-4.7475
X6.31Y-4.26
X6.3225Y-4.445
X6.34Y-3.86
X6.375Y-4.95
X6.376Y-4.3159
X6.4287Y-4.3159
X6.43Y-4.6475
X6.44Y-5.42
X6.54Y-3.77
X6.56Y-4.71
X6.56Y-4.3031
X6.57Y-4.06
X6.72Y-4.3
X6.9Y-4.7
X7.19Y-4.6969
X7.2Y-4.3
T2
X7.7Y-4.8
X7.8Y-4.8
T3
X6.775Y-4.525
X6.825Y-3.75
X6.825Y-3.825
X6.825Y-3.9
X6.825Y-3.975
X7.07Y-4.88
X7.18Y-4.95
X7.18Y-5.05
X7.52Y-4.95
X7.52Y-5.05
X7.6Y-3.85
X7.6Y-3.95
X7.6Y-4.05
X7.6Y-4.15
X7.6Y-4.25
X7.6Y-4.35
X7.6Y-4.45
X7.6Y-4.55
X7.6Y-4.65
X7.61Y-5.09
X7.7Y-3.85
X7.7Y-3.95
X7.7Y-4.05
X7.7Y-4.15
X7.7Y-4.25
X7.7Y-4.35
X7.7Y-4.45
X7.7Y-4.55
X7.7Y-4.65
X7.8Y-3.85
X7.8Y-3.95
X7.8Y-4.05
X7.8Y-4.15
X7.8Y-4.25
X7.8Y-4.35
X7.8Y-4.45
X7.8Y-4.55
X7.8Y-4.65
X8.1Y-3.85
X8.1Y-3.95
X8.1Y-4.05
X8.1Y-4.15
X8.1Y-4.25
X8.1Y-4.35
X8.1Y-4.45
X8.1Y-4.55
X8.1Y-4.65
T4
X5.775Y-4.825
X5.875Y-4.825
X5.975Y-4.825
T5
X6.7Y-4.15
X6.8Y-4.15
X6.9Y-4.15
X7.Y-4.15
X7.1Y-3.75
X7.1Y-3.85
X7.1Y-3.95
X7.1Y-4.15
X7.4Y-3.85
X7.4Y-3.95
X7.4Y-4.05
X7.4Y-4.15
X7.4Y-4.25
X7.4Y-4.35
X7.4Y-4.45
X7.4Y-4.55
X7.4Y-4.65
X7.5Y-3.85
X7.5Y-3.95
X7.5Y-4.05
X7.5Y-4.15
X7.5Y-4.25
X7.5Y-4.35
X7.5Y-4.45
X7.5Y-4.55
X7.5Y-4.65
X7.9Y-3.85
X7.9Y-3.95
X7.9Y-4.05
X7.9Y-4.15
X7.9Y-4.25
X7.9Y-4.35
X7.9Y-4.45
X7.9Y-4.55
X7.9Y-4.65
X7.9Y-4.85
X7.9Y-5.025
X8.Y-4.85
X8.Y-5.025
X8.1Y-4.85
X8.1Y-5.025
T6
X6.075Y-4.95
X6.075Y-5.25
X6.175Y-4.95
X6.175Y-5.25
X6.25Y-4.675
X6.275Y-4.95
X6.275Y-5.25
X6.375Y-4.95
X6.375Y-5.25
X7.2Y-5.365
X7.2984Y-5.365
X7.69Y-4.93
T7
X5.87Y-5.11
X6.3484Y-4.675
X7.7884Y-4.93
T8
X5.475Y-4.825
X5.575Y-4.825
X6.025Y-4.675
X6.04Y-5.39
X6.125Y-4.675
X6.125Y-4.825
X6.14Y-5.39
X6.225Y-4.825
X6.25Y-5.39
X6.26Y-3.93
X6.26Y-4.23
X6.35Y-4.82
X6.35Y-5.39
X6.45Y-4.82
X6.46Y-3.93
X6.46Y-4.23
X6.56Y-4.97
X6.56Y-5.07
T10
X6.67Y-5.2499
X6.77Y-5.2499
X6.85Y-5.2499
X6.95Y-5.2499
T11
X7.45Y-5.35
X7.55Y-5.35
T12
X5.57Y-5.27
X5.67Y-5.145
X5.77Y-5.27
T13
X5.495Y-5.37
X5.67Y-5.02
X5.845Y-5.37
T14
X5.9315Y-4.1067
T3
X8.1219Y-5.1858G85X8.0864Y-5.1858
G05
X8.1219Y-5.4142G85X8.0864Y-5.4142
G05
T5
X7.738Y-5.1858G85X7.7065Y-5.1858
G05
X7.738Y-5.4142G85X7.7065Y-5.4142
G05
X7.8719Y-5.4142G85X7.8404Y-5.4142
G05
X7.9978Y-5.4142G85X7.9663Y-5.4142
G05
T9
X6.5558Y-5.2709G85X6.5558Y-5.3102
G05
X7.0598Y-5.2709G85X7.0598Y-5.3102
G05
T0
M30
