G04 #@! TF.FileFunction,Legend,Top*
%FSLAX46Y46*%
G04 Gerber Fmt 4.6, Leading zero omitted, Abs format (unit mm)*
G04 Created by KiCad (PCBNEW 4.0.2+dfsg1-stable) date 2016年08月02日 19時37分39秒*
%MOMM*%
G01*
G04 APERTURE LIST*
%ADD10C,0.100000*%
%ADD11C,0.200000*%
%ADD12C,2.000000*%
%ADD13C,0.500000*%
%ADD14C,0.150000*%
%ADD15C,0.250000*%
%ADD16C,0.300000*%
%ADD17C,0.175000*%
%ADD18C,0.170000*%
%ADD19C,0.125000*%
G04 APERTURE END LIST*
D10*
D11*
X187750762Y-138753810D02*
X187865048Y-138791905D01*
X188055524Y-138791905D01*
X188131714Y-138753810D01*
X188169810Y-138715714D01*
X188207905Y-138639524D01*
X188207905Y-138563333D01*
X188169810Y-138487143D01*
X188131714Y-138449048D01*
X188055524Y-138410952D01*
X187903143Y-138372857D01*
X187826952Y-138334762D01*
X187788857Y-138296667D01*
X187750762Y-138220476D01*
X187750762Y-138144286D01*
X187788857Y-138068095D01*
X187826952Y-138030000D01*
X187903143Y-137991905D01*
X188093619Y-137991905D01*
X188207905Y-138030000D01*
X188550762Y-138791905D02*
X188550762Y-137991905D01*
X188855524Y-137991905D01*
X188931715Y-138030000D01*
X188969810Y-138068095D01*
X189007905Y-138144286D01*
X189007905Y-138258571D01*
X188969810Y-138334762D01*
X188931715Y-138372857D01*
X188855524Y-138410952D01*
X188550762Y-138410952D01*
X189350762Y-138372857D02*
X189617429Y-138372857D01*
X189731715Y-138791905D02*
X189350762Y-138791905D01*
X189350762Y-137991905D01*
X189731715Y-137991905D01*
X190036477Y-138563333D02*
X190417429Y-138563333D01*
X189960286Y-138791905D02*
X190226953Y-137991905D01*
X190493620Y-138791905D01*
X190760286Y-138791905D02*
X190760286Y-137991905D01*
X191217429Y-138791905D02*
X190874572Y-138334762D01*
X191217429Y-137991905D02*
X190760286Y-138449048D01*
X191560286Y-138372857D02*
X191826953Y-138372857D01*
X191941239Y-138791905D02*
X191560286Y-138791905D01*
X191560286Y-137991905D01*
X191941239Y-137991905D01*
X192741239Y-138791905D02*
X192474572Y-138410952D01*
X192284096Y-138791905D02*
X192284096Y-137991905D01*
X192588858Y-137991905D01*
X192665049Y-138030000D01*
X192703144Y-138068095D01*
X192741239Y-138144286D01*
X192741239Y-138258571D01*
X192703144Y-138334762D01*
X192665049Y-138372857D01*
X192588858Y-138410952D01*
X192284096Y-138410952D01*
X137969810Y-127976381D02*
X138588858Y-127976381D01*
X138255524Y-128357333D01*
X138398382Y-128357333D01*
X138493620Y-128404952D01*
X138541239Y-128452571D01*
X138588858Y-128547810D01*
X138588858Y-128785905D01*
X138541239Y-128881143D01*
X138493620Y-128928762D01*
X138398382Y-128976381D01*
X138112667Y-128976381D01*
X138017429Y-128928762D01*
X137969810Y-128881143D01*
X139017429Y-128881143D02*
X139065048Y-128928762D01*
X139017429Y-128976381D01*
X138969810Y-128928762D01*
X139017429Y-128881143D01*
X139017429Y-128976381D01*
X139398381Y-127976381D02*
X140017429Y-127976381D01*
X139684095Y-128357333D01*
X139826953Y-128357333D01*
X139922191Y-128404952D01*
X139969810Y-128452571D01*
X140017429Y-128547810D01*
X140017429Y-128785905D01*
X139969810Y-128881143D01*
X139922191Y-128928762D01*
X139826953Y-128976381D01*
X139541238Y-128976381D01*
X139446000Y-128928762D01*
X139398381Y-128881143D01*
X140303143Y-127976381D02*
X140636476Y-128976381D01*
X140969810Y-127976381D01*
D10*
X202405810Y-115934857D02*
X202443905Y-115934857D01*
X202329619Y-115887238D02*
X202443905Y-115887238D01*
X202253429Y-115839619D02*
X202443905Y-115839619D01*
X202177238Y-115792000D02*
X202443905Y-115792000D01*
X202139143Y-115744381D02*
X202443905Y-115744381D01*
X202062952Y-115696762D02*
X202443905Y-115696762D01*
X201986762Y-115649142D02*
X202443905Y-115649142D01*
X201910571Y-115601523D02*
X202443905Y-115601523D01*
X201834381Y-115553904D02*
X202443905Y-115553904D01*
X201910571Y-115506285D02*
X202443905Y-115506285D01*
X201986762Y-115458666D02*
X202443905Y-115458666D01*
X202062952Y-115411047D02*
X202443905Y-115411047D01*
X202139143Y-115363428D02*
X202443905Y-115363428D01*
X202177238Y-115315809D02*
X202443905Y-115315809D01*
X202253429Y-115268190D02*
X202443905Y-115268190D01*
X202329619Y-115220571D02*
X202443905Y-115220571D01*
X202443905Y-115172952D02*
X201872476Y-115553904D01*
X202443905Y-115934857D01*
X202405810Y-115172952D02*
X202443905Y-115172952D01*
X201834381Y-115553904D02*
X202443905Y-115125333D01*
X202443905Y-115982476D01*
X201834381Y-115553904D01*
X202405810Y-110887237D02*
X202443905Y-110887237D01*
X202329619Y-110839618D02*
X202443905Y-110839618D01*
X202253429Y-110791999D02*
X202443905Y-110791999D01*
X202177238Y-110744380D02*
X202443905Y-110744380D01*
X202139143Y-110696761D02*
X202443905Y-110696761D01*
X202062952Y-110649142D02*
X202443905Y-110649142D01*
X201986762Y-110601522D02*
X202443905Y-110601522D01*
X201910571Y-110553903D02*
X202443905Y-110553903D01*
X201834381Y-110506284D02*
X202443905Y-110506284D01*
X201910571Y-110458665D02*
X202443905Y-110458665D01*
X201986762Y-110411046D02*
X202443905Y-110411046D01*
X202062952Y-110363427D02*
X202443905Y-110363427D01*
X202139143Y-110315808D02*
X202443905Y-110315808D01*
X202177238Y-110268189D02*
X202443905Y-110268189D01*
X202253429Y-110220570D02*
X202443905Y-110220570D01*
X202329619Y-110172951D02*
X202443905Y-110172951D01*
X202443905Y-110125332D02*
X201872476Y-110506284D01*
X202443905Y-110887237D01*
X202405810Y-110125332D02*
X202443905Y-110125332D01*
X201834381Y-110506284D02*
X202443905Y-110077713D01*
X202443905Y-110934856D01*
X201834381Y-110506284D01*
X202863905Y-117696761D02*
X202863905Y-117125332D01*
X203663905Y-117411047D02*
X202863905Y-117411047D01*
X203663905Y-116791999D02*
X202863905Y-116791999D01*
X203663905Y-116315809D02*
X202863905Y-116315809D01*
X203435333Y-115982475D01*
X202863905Y-115649142D01*
X203663905Y-115649142D01*
X203244857Y-115172952D02*
X203244857Y-114839618D01*
X203663905Y-114696761D02*
X203663905Y-115172952D01*
X202863905Y-115172952D01*
X202863905Y-114696761D01*
X203663905Y-113696761D02*
X203282952Y-114030095D01*
X203663905Y-114268190D02*
X202863905Y-114268190D01*
X202863905Y-113887237D01*
X202902000Y-113791999D01*
X202940095Y-113744380D01*
X203016286Y-113696761D01*
X203130571Y-113696761D01*
X203206762Y-113744380D01*
X203244857Y-113791999D01*
X203282952Y-113887237D01*
X203282952Y-114268190D01*
X202863905Y-112601523D02*
X203663905Y-112363428D01*
X203092476Y-112172951D01*
X203663905Y-111982475D01*
X202863905Y-111744380D01*
X203663905Y-111363428D02*
X202863905Y-111363428D01*
X203244857Y-110553904D02*
X203244857Y-110887238D01*
X203663905Y-110887238D02*
X202863905Y-110887238D01*
X202863905Y-110411047D01*
X203663905Y-110030095D02*
X202863905Y-110030095D01*
D12*
X198120000Y-97790000D02*
X200660000Y-97790000D01*
X198120000Y-100330000D02*
X200660000Y-100330000D01*
X187960000Y-115570000D02*
X190500000Y-115570000D01*
X187960000Y-118110000D02*
X190500000Y-118110000D01*
D13*
X162828000Y-127254000D02*
G75*
G03X162828000Y-127254000I-268000J0D01*
G01*
X176798000Y-128270000D02*
G75*
G03X176798000Y-128270000I-268000J0D01*
G01*
D11*
X171551904Y-120973905D02*
X172009047Y-120973905D01*
X171780476Y-121773905D02*
X171780476Y-120973905D01*
X172656667Y-121773905D02*
X172275714Y-121773905D01*
X172275714Y-120973905D01*
X172923333Y-121773905D02*
X172923333Y-120973905D01*
X173228095Y-120973905D01*
X173304286Y-121012000D01*
X173342381Y-121050095D01*
X173380476Y-121126286D01*
X173380476Y-121240571D01*
X173342381Y-121316762D01*
X173304286Y-121354857D01*
X173228095Y-121392952D01*
X172923333Y-121392952D01*
X173685238Y-121050095D02*
X173723333Y-121012000D01*
X173799524Y-120973905D01*
X173990000Y-120973905D01*
X174066190Y-121012000D01*
X174104286Y-121050095D01*
X174142381Y-121126286D01*
X174142381Y-121202476D01*
X174104286Y-121316762D01*
X173647143Y-121773905D01*
X174142381Y-121773905D01*
X174447143Y-121050095D02*
X174485238Y-121012000D01*
X174561429Y-120973905D01*
X174751905Y-120973905D01*
X174828095Y-121012000D01*
X174866191Y-121050095D01*
X174904286Y-121126286D01*
X174904286Y-121202476D01*
X174866191Y-121316762D01*
X174409048Y-121773905D01*
X174904286Y-121773905D01*
X175209048Y-121050095D02*
X175247143Y-121012000D01*
X175323334Y-120973905D01*
X175513810Y-120973905D01*
X175590000Y-121012000D01*
X175628096Y-121050095D01*
X175666191Y-121126286D01*
X175666191Y-121202476D01*
X175628096Y-121316762D01*
X175170953Y-121773905D01*
X175666191Y-121773905D01*
X175970953Y-121545333D02*
X176351905Y-121545333D01*
X175894762Y-121773905D02*
X176161429Y-120973905D01*
X176428096Y-121773905D01*
D14*
X147055143Y-127577905D02*
X147169429Y-127577905D01*
X147226571Y-127616000D01*
X147283714Y-127692190D01*
X147312286Y-127844571D01*
X147312286Y-128111238D01*
X147283714Y-128263619D01*
X147226571Y-128339810D01*
X147169429Y-128377905D01*
X147055143Y-128377905D01*
X146998000Y-128339810D01*
X146940857Y-128263619D01*
X146912286Y-128111238D01*
X146912286Y-127844571D01*
X146940857Y-127692190D01*
X146998000Y-127616000D01*
X147055143Y-127577905D01*
X147569428Y-128377905D02*
X147569428Y-127577905D01*
X147798000Y-127577905D01*
X147855142Y-127616000D01*
X147883714Y-127654095D01*
X147912285Y-127730286D01*
X147912285Y-127844571D01*
X147883714Y-127920762D01*
X147855142Y-127958857D01*
X147798000Y-127996952D01*
X147569428Y-127996952D01*
X148140857Y-128149333D02*
X148426571Y-128149333D01*
X148083714Y-128377905D02*
X148283714Y-127577905D01*
X148483714Y-128377905D01*
X148683714Y-128377905D02*
X148683714Y-127577905D01*
X148883714Y-128149333D01*
X149083714Y-127577905D01*
X149083714Y-128377905D01*
X149369428Y-128377905D02*
X149369428Y-127577905D01*
X149598000Y-127577905D01*
X149655142Y-127616000D01*
X149683714Y-127654095D01*
X149712285Y-127730286D01*
X149712285Y-127844571D01*
X149683714Y-127920762D01*
X149655142Y-127958857D01*
X149598000Y-127996952D01*
X149369428Y-127996952D01*
X149826571Y-128454095D02*
X150283714Y-128454095D01*
X150426571Y-127958857D02*
X150626571Y-127958857D01*
X150712285Y-128377905D02*
X150426571Y-128377905D01*
X150426571Y-127577905D01*
X150712285Y-127577905D01*
X150912285Y-127577905D02*
X151312285Y-128377905D01*
X151312285Y-127577905D02*
X150912285Y-128377905D01*
D11*
X138684096Y-131580000D02*
X138588858Y-131532381D01*
X138446001Y-131532381D01*
X138303143Y-131580000D01*
X138207905Y-131675238D01*
X138160286Y-131770476D01*
X138112667Y-131960952D01*
X138112667Y-132103810D01*
X138160286Y-132294286D01*
X138207905Y-132389524D01*
X138303143Y-132484762D01*
X138446001Y-132532381D01*
X138541239Y-132532381D01*
X138684096Y-132484762D01*
X138731715Y-132437143D01*
X138731715Y-132103810D01*
X138541239Y-132103810D01*
X139160286Y-132532381D02*
X139160286Y-131532381D01*
X139731715Y-132532381D01*
X139731715Y-131532381D01*
X140207905Y-132532381D02*
X140207905Y-131532381D01*
X140446000Y-131532381D01*
X140588858Y-131580000D01*
X140684096Y-131675238D01*
X140731715Y-131770476D01*
X140779334Y-131960952D01*
X140779334Y-132103810D01*
X140731715Y-132294286D01*
X140684096Y-132389524D01*
X140588858Y-132484762D01*
X140446000Y-132532381D01*
X140207905Y-132532381D01*
X144930762Y-139413905D02*
X144978381Y-139271048D01*
X144978381Y-139032952D01*
X144930762Y-138937714D01*
X144883143Y-138890095D01*
X144787905Y-138842476D01*
X144692667Y-138842476D01*
X144597429Y-138890095D01*
X144549810Y-138937714D01*
X144502190Y-139032952D01*
X144454571Y-139223429D01*
X144406952Y-139318667D01*
X144359333Y-139366286D01*
X144264095Y-139413905D01*
X144168857Y-139413905D01*
X144073619Y-139366286D01*
X144026000Y-139318667D01*
X143978381Y-139223429D01*
X143978381Y-138985333D01*
X144026000Y-138842476D01*
X144454571Y-138413905D02*
X144454571Y-138080571D01*
X144978381Y-137937714D02*
X144978381Y-138413905D01*
X143978381Y-138413905D01*
X143978381Y-137937714D01*
X144978381Y-137509143D02*
X143978381Y-137509143D01*
X144978381Y-136937714D01*
X143978381Y-136937714D01*
X144930762Y-136509143D02*
X144978381Y-136366286D01*
X144978381Y-136128190D01*
X144930762Y-136032952D01*
X144883143Y-135985333D01*
X144787905Y-135937714D01*
X144692667Y-135937714D01*
X144597429Y-135985333D01*
X144549810Y-136032952D01*
X144502190Y-136128190D01*
X144454571Y-136318667D01*
X144406952Y-136413905D01*
X144359333Y-136461524D01*
X144264095Y-136509143D01*
X144168857Y-136509143D01*
X144073619Y-136461524D01*
X144026000Y-136413905D01*
X143978381Y-136318667D01*
X143978381Y-136080571D01*
X144026000Y-135937714D01*
X143978381Y-135318667D02*
X143978381Y-135128190D01*
X144026000Y-135032952D01*
X144121238Y-134937714D01*
X144311714Y-134890095D01*
X144645048Y-134890095D01*
X144835524Y-134937714D01*
X144930762Y-135032952D01*
X144978381Y-135128190D01*
X144978381Y-135318667D01*
X144930762Y-135413905D01*
X144835524Y-135509143D01*
X144645048Y-135556762D01*
X144311714Y-135556762D01*
X144121238Y-135509143D01*
X144026000Y-135413905D01*
X143978381Y-135318667D01*
X144978381Y-133890095D02*
X144502190Y-134223429D01*
X144978381Y-134461524D02*
X143978381Y-134461524D01*
X143978381Y-134080571D01*
X144026000Y-133985333D01*
X144073619Y-133937714D01*
X144168857Y-133890095D01*
X144311714Y-133890095D01*
X144406952Y-133937714D01*
X144454571Y-133985333D01*
X144502190Y-134080571D01*
X144502190Y-134461524D01*
D15*
X169013524Y-119324381D02*
X169013524Y-118324381D01*
X169346858Y-119038667D01*
X169680191Y-118324381D01*
X169680191Y-119324381D01*
X170156381Y-119324381D02*
X170156381Y-118657714D01*
X170156381Y-118324381D02*
X170108762Y-118372000D01*
X170156381Y-118419619D01*
X170204000Y-118372000D01*
X170156381Y-118324381D01*
X170156381Y-118419619D01*
X170632571Y-118657714D02*
X170632571Y-119324381D01*
X170632571Y-118752952D02*
X170680190Y-118705333D01*
X170775428Y-118657714D01*
X170918286Y-118657714D01*
X171013524Y-118705333D01*
X171061143Y-118800571D01*
X171061143Y-119324381D01*
X171537333Y-119324381D02*
X171537333Y-118657714D01*
X171537333Y-118324381D02*
X171489714Y-118372000D01*
X171537333Y-118419619D01*
X171584952Y-118372000D01*
X171537333Y-118324381D01*
X171537333Y-118419619D01*
X171918285Y-118324381D02*
X172537333Y-118324381D01*
X172203999Y-118705333D01*
X172346857Y-118705333D01*
X172442095Y-118752952D01*
X172489714Y-118800571D01*
X172537333Y-118895810D01*
X172537333Y-119133905D01*
X172489714Y-119229143D01*
X172442095Y-119276762D01*
X172346857Y-119324381D01*
X172061142Y-119324381D01*
X171965904Y-119276762D01*
X171918285Y-119229143D01*
X173394476Y-118324381D02*
X173203999Y-118324381D01*
X173108761Y-118372000D01*
X173061142Y-118419619D01*
X172965904Y-118562476D01*
X172918285Y-118752952D01*
X172918285Y-119133905D01*
X172965904Y-119229143D01*
X173013523Y-119276762D01*
X173108761Y-119324381D01*
X173299238Y-119324381D01*
X173394476Y-119276762D01*
X173442095Y-119229143D01*
X173489714Y-119133905D01*
X173489714Y-118895810D01*
X173442095Y-118800571D01*
X173394476Y-118752952D01*
X173299238Y-118705333D01*
X173108761Y-118705333D01*
X173013523Y-118752952D01*
X172965904Y-118800571D01*
X172918285Y-118895810D01*
X174108761Y-118324381D02*
X174204000Y-118324381D01*
X174299238Y-118372000D01*
X174346857Y-118419619D01*
X174394476Y-118514857D01*
X174442095Y-118705333D01*
X174442095Y-118943429D01*
X174394476Y-119133905D01*
X174346857Y-119229143D01*
X174299238Y-119276762D01*
X174204000Y-119324381D01*
X174108761Y-119324381D01*
X174013523Y-119276762D01*
X173965904Y-119229143D01*
X173918285Y-119133905D01*
X173870666Y-118943429D01*
X173870666Y-118705333D01*
X173918285Y-118514857D01*
X173965904Y-118419619D01*
X174013523Y-118372000D01*
X174108761Y-118324381D01*
D14*
X186887429Y-95011143D02*
X186887429Y-95739714D01*
X186916001Y-95825429D01*
X186944572Y-95868286D01*
X187001715Y-95911143D01*
X187116001Y-95911143D01*
X187173143Y-95868286D01*
X187201715Y-95825429D01*
X187230286Y-95739714D01*
X187230286Y-95011143D01*
X187516000Y-95911143D02*
X187516000Y-95011143D01*
X187858857Y-95911143D01*
X187858857Y-95011143D01*
X188144571Y-95911143D02*
X188144571Y-95011143D01*
X188344571Y-95011143D02*
X188544571Y-95911143D01*
X188744571Y-95011143D01*
X188944571Y-95439714D02*
X189144571Y-95439714D01*
X189230285Y-95911143D02*
X188944571Y-95911143D01*
X188944571Y-95011143D01*
X189230285Y-95011143D01*
X189830285Y-95911143D02*
X189630285Y-95482571D01*
X189487428Y-95911143D02*
X189487428Y-95011143D01*
X189716000Y-95011143D01*
X189773142Y-95054000D01*
X189801714Y-95096857D01*
X189830285Y-95182571D01*
X189830285Y-95311143D01*
X189801714Y-95396857D01*
X189773142Y-95439714D01*
X189716000Y-95482571D01*
X189487428Y-95482571D01*
X190058857Y-95868286D02*
X190144571Y-95911143D01*
X190287428Y-95911143D01*
X190344571Y-95868286D01*
X190373142Y-95825429D01*
X190401714Y-95739714D01*
X190401714Y-95654000D01*
X190373142Y-95568286D01*
X190344571Y-95525429D01*
X190287428Y-95482571D01*
X190173142Y-95439714D01*
X190116000Y-95396857D01*
X190087428Y-95354000D01*
X190058857Y-95268286D01*
X190058857Y-95182571D01*
X190087428Y-95096857D01*
X190116000Y-95054000D01*
X190173142Y-95011143D01*
X190316000Y-95011143D01*
X190401714Y-95054000D01*
X190630286Y-95654000D02*
X190916000Y-95654000D01*
X190573143Y-95911143D02*
X190773143Y-95011143D01*
X190973143Y-95911143D01*
X191458857Y-95911143D02*
X191173143Y-95911143D01*
X191173143Y-95011143D01*
D16*
X180823571Y-106636429D02*
X180823571Y-108136429D01*
X180252143Y-108136429D01*
X180109285Y-108065000D01*
X180037857Y-107993571D01*
X179966428Y-107850714D01*
X179966428Y-107636429D01*
X180037857Y-107493571D01*
X180109285Y-107422143D01*
X180252143Y-107350714D01*
X180823571Y-107350714D01*
X178466428Y-106636429D02*
X178966428Y-107350714D01*
X179323571Y-106636429D02*
X179323571Y-108136429D01*
X178752143Y-108136429D01*
X178609285Y-108065000D01*
X178537857Y-107993571D01*
X178466428Y-107850714D01*
X178466428Y-107636429D01*
X178537857Y-107493571D01*
X178609285Y-107422143D01*
X178752143Y-107350714D01*
X179323571Y-107350714D01*
X177537857Y-108136429D02*
X177252143Y-108136429D01*
X177109285Y-108065000D01*
X176966428Y-107922143D01*
X176895000Y-107636429D01*
X176895000Y-107136429D01*
X176966428Y-106850714D01*
X177109285Y-106707857D01*
X177252143Y-106636429D01*
X177537857Y-106636429D01*
X177680714Y-106707857D01*
X177823571Y-106850714D01*
X177895000Y-107136429D01*
X177895000Y-107636429D01*
X177823571Y-107922143D01*
X177680714Y-108065000D01*
X177537857Y-108136429D01*
X175466428Y-108065000D02*
X175609285Y-108136429D01*
X175823571Y-108136429D01*
X176037856Y-108065000D01*
X176180714Y-107922143D01*
X176252142Y-107779286D01*
X176323571Y-107493571D01*
X176323571Y-107279286D01*
X176252142Y-106993571D01*
X176180714Y-106850714D01*
X176037856Y-106707857D01*
X175823571Y-106636429D01*
X175680714Y-106636429D01*
X175466428Y-106707857D01*
X175394999Y-106779286D01*
X175394999Y-107279286D01*
X175680714Y-107279286D01*
X173894999Y-106636429D02*
X174394999Y-107350714D01*
X174752142Y-106636429D02*
X174752142Y-108136429D01*
X174180714Y-108136429D01*
X174037856Y-108065000D01*
X173966428Y-107993571D01*
X173894999Y-107850714D01*
X173894999Y-107636429D01*
X173966428Y-107493571D01*
X174037856Y-107422143D01*
X174180714Y-107350714D01*
X174752142Y-107350714D01*
X173323571Y-107065000D02*
X172609285Y-107065000D01*
X173466428Y-106636429D02*
X172966428Y-108136429D01*
X172466428Y-106636429D01*
X171966428Y-106636429D02*
X171966428Y-108136429D01*
X171466428Y-107065000D01*
X170966428Y-108136429D01*
X170966428Y-106636429D01*
D14*
X192230856Y-95175429D02*
X192602285Y-95175429D01*
X192402285Y-95404000D01*
X192487999Y-95404000D01*
X192545142Y-95432571D01*
X192573713Y-95461143D01*
X192602285Y-95518286D01*
X192602285Y-95661143D01*
X192573713Y-95718286D01*
X192545142Y-95746857D01*
X192487999Y-95775429D01*
X192316571Y-95775429D01*
X192259428Y-95746857D01*
X192230856Y-95718286D01*
X192773714Y-95175429D02*
X192973714Y-95775429D01*
X193173714Y-95175429D01*
X193316571Y-95175429D02*
X193688000Y-95175429D01*
X193488000Y-95404000D01*
X193573714Y-95404000D01*
X193630857Y-95432571D01*
X193659428Y-95461143D01*
X193688000Y-95518286D01*
X193688000Y-95661143D01*
X193659428Y-95718286D01*
X193630857Y-95746857D01*
X193573714Y-95775429D01*
X193402286Y-95775429D01*
X193345143Y-95746857D01*
X193316571Y-95718286D01*
X194716572Y-95204000D02*
X194659429Y-95175429D01*
X194573715Y-95175429D01*
X194488000Y-95204000D01*
X194430858Y-95261143D01*
X194402286Y-95318286D01*
X194373715Y-95432571D01*
X194373715Y-95518286D01*
X194402286Y-95632571D01*
X194430858Y-95689714D01*
X194488000Y-95746857D01*
X194573715Y-95775429D01*
X194630858Y-95775429D01*
X194716572Y-95746857D01*
X194745143Y-95718286D01*
X194745143Y-95518286D01*
X194630858Y-95518286D01*
X195002286Y-95775429D02*
X195002286Y-95175429D01*
X195345143Y-95775429D01*
X195345143Y-95175429D01*
X195630857Y-95775429D02*
X195630857Y-95175429D01*
X195773714Y-95175429D01*
X195859429Y-95204000D01*
X195916571Y-95261143D01*
X195945143Y-95318286D01*
X195973714Y-95432571D01*
X195973714Y-95518286D01*
X195945143Y-95632571D01*
X195916571Y-95689714D01*
X195859429Y-95746857D01*
X195773714Y-95775429D01*
X195630857Y-95775429D01*
D16*
X184721428Y-134092143D02*
X183578571Y-134092143D01*
X184150000Y-134663571D02*
X184150000Y-133520714D01*
D14*
X205585713Y-129792143D02*
X205499999Y-129763571D01*
X205357142Y-129763571D01*
X205299999Y-129792143D01*
X205271428Y-129820714D01*
X205242856Y-129877857D01*
X205242856Y-129935000D01*
X205271428Y-129992143D01*
X205299999Y-130020714D01*
X205357142Y-130049286D01*
X205471428Y-130077857D01*
X205528570Y-130106429D01*
X205557142Y-130135000D01*
X205585713Y-130192143D01*
X205585713Y-130249286D01*
X205557142Y-130306429D01*
X205528570Y-130335000D01*
X205471428Y-130363571D01*
X205328570Y-130363571D01*
X205242856Y-130335000D01*
X204985713Y-130077857D02*
X204785713Y-130077857D01*
X204699999Y-129763571D02*
X204985713Y-129763571D01*
X204985713Y-130363571D01*
X204699999Y-130363571D01*
X204099999Y-129763571D02*
X204299999Y-130049286D01*
X204442856Y-129763571D02*
X204442856Y-130363571D01*
X204214284Y-130363571D01*
X204157142Y-130335000D01*
X204128570Y-130306429D01*
X204099999Y-130249286D01*
X204099999Y-130163571D01*
X204128570Y-130106429D01*
X204157142Y-130077857D01*
X204214284Y-130049286D01*
X204442856Y-130049286D01*
X203928570Y-130363571D02*
X203728570Y-129763571D01*
X203528570Y-130363571D01*
X203214284Y-130363571D02*
X203099998Y-130363571D01*
X203042856Y-130335000D01*
X202985713Y-130277857D01*
X202957141Y-130163571D01*
X202957141Y-129963571D01*
X202985713Y-129849286D01*
X203042856Y-129792143D01*
X203099998Y-129763571D01*
X203214284Y-129763571D01*
X203271427Y-129792143D01*
X203328570Y-129849286D01*
X203357141Y-129963571D01*
X203357141Y-130163571D01*
X203328570Y-130277857D01*
X203271427Y-130335000D01*
X203214284Y-130363571D01*
X202271427Y-130392143D02*
X202785713Y-129620714D01*
X202071428Y-129763571D02*
X202071428Y-130363571D01*
X201928571Y-130363571D01*
X201842856Y-130335000D01*
X201785714Y-130277857D01*
X201757142Y-130220714D01*
X201728571Y-130106429D01*
X201728571Y-130020714D01*
X201757142Y-129906429D01*
X201785714Y-129849286D01*
X201842856Y-129792143D01*
X201928571Y-129763571D01*
X202071428Y-129763571D01*
X201471428Y-129763571D02*
X201471428Y-130363571D01*
X201185714Y-129763571D02*
X201185714Y-130363571D01*
X200842857Y-129763571D01*
X200842857Y-130363571D01*
X205785715Y-128773571D02*
X205785715Y-129373571D01*
X205642858Y-129373571D01*
X205557143Y-129345000D01*
X205500001Y-129287857D01*
X205471429Y-129230714D01*
X205442858Y-129116429D01*
X205442858Y-129030714D01*
X205471429Y-128916429D01*
X205500001Y-128859286D01*
X205557143Y-128802143D01*
X205642858Y-128773571D01*
X205785715Y-128773571D01*
X204928572Y-129173571D02*
X204928572Y-128773571D01*
X205071429Y-129402143D02*
X205214286Y-128973571D01*
X204842858Y-128973571D01*
X204242857Y-129373571D02*
X204042857Y-128773571D01*
X203842857Y-129373571D01*
X203671428Y-128945000D02*
X203385714Y-128945000D01*
X203728571Y-128773571D02*
X203528571Y-129373571D01*
X203328571Y-128773571D01*
X203157142Y-128945000D02*
X202871428Y-128945000D01*
X203214285Y-128773571D02*
X203014285Y-129373571D01*
X202814285Y-128773571D01*
X201842856Y-129345000D02*
X201899999Y-129373571D01*
X201985713Y-129373571D01*
X202071428Y-129345000D01*
X202128570Y-129287857D01*
X202157142Y-129230714D01*
X202185713Y-129116429D01*
X202185713Y-129030714D01*
X202157142Y-128916429D01*
X202128570Y-128859286D01*
X202071428Y-128802143D01*
X201985713Y-128773571D01*
X201928570Y-128773571D01*
X201842856Y-128802143D01*
X201814285Y-128830714D01*
X201814285Y-129030714D01*
X201928570Y-129030714D01*
X201557142Y-128773571D02*
X201557142Y-129373571D01*
X201214285Y-128773571D01*
X201214285Y-129373571D01*
X200928571Y-128773571D02*
X200928571Y-129373571D01*
X200785714Y-129373571D01*
X200699999Y-129345000D01*
X200642857Y-129287857D01*
X200614285Y-129230714D01*
X200585714Y-129116429D01*
X200585714Y-129030714D01*
X200614285Y-128916429D01*
X200642857Y-128859286D01*
X200699999Y-128802143D01*
X200785714Y-128773571D01*
X200928571Y-128773571D01*
D10*
X208137143Y-119247714D02*
X208137143Y-119787714D01*
X207737143Y-119787714D02*
X207622857Y-119787714D01*
X207565715Y-119762000D01*
X207508572Y-119710571D01*
X207480000Y-119607714D01*
X207480000Y-119427714D01*
X207508572Y-119324857D01*
X207565715Y-119273429D01*
X207622857Y-119247714D01*
X207737143Y-119247714D01*
X207794286Y-119273429D01*
X207851429Y-119324857D01*
X207880000Y-119427714D01*
X207880000Y-119607714D01*
X207851429Y-119710571D01*
X207794286Y-119762000D01*
X207737143Y-119787714D01*
X206908572Y-119247714D02*
X207251429Y-119247714D01*
X207080001Y-119247714D02*
X207080001Y-119787714D01*
X207137144Y-119710571D01*
X207194286Y-119659143D01*
X207251429Y-119633429D01*
X206365715Y-119787714D02*
X206651429Y-119787714D01*
X206680000Y-119530571D01*
X206651429Y-119556286D01*
X206594286Y-119582000D01*
X206451429Y-119582000D01*
X206394286Y-119556286D01*
X206365715Y-119530571D01*
X206337143Y-119479143D01*
X206337143Y-119350571D01*
X206365715Y-119299143D01*
X206394286Y-119273429D01*
X206451429Y-119247714D01*
X206594286Y-119247714D01*
X206651429Y-119273429D01*
X206680000Y-119299143D01*
X208137143Y-116679714D02*
X208137143Y-117219714D01*
X207737143Y-117219714D02*
X207622857Y-117219714D01*
X207565715Y-117194000D01*
X207508572Y-117142571D01*
X207480000Y-117039714D01*
X207480000Y-116859714D01*
X207508572Y-116756857D01*
X207565715Y-116705429D01*
X207622857Y-116679714D01*
X207737143Y-116679714D01*
X207794286Y-116705429D01*
X207851429Y-116756857D01*
X207880000Y-116859714D01*
X207880000Y-117039714D01*
X207851429Y-117142571D01*
X207794286Y-117194000D01*
X207737143Y-117219714D01*
X206908572Y-116679714D02*
X207251429Y-116679714D01*
X207080001Y-116679714D02*
X207080001Y-117219714D01*
X207137144Y-117142571D01*
X207194286Y-117091143D01*
X207251429Y-117065429D01*
X206708572Y-117219714D02*
X206337143Y-117219714D01*
X206537143Y-117014000D01*
X206451429Y-117014000D01*
X206394286Y-116988286D01*
X206365715Y-116962571D01*
X206337143Y-116911143D01*
X206337143Y-116782571D01*
X206365715Y-116731143D01*
X206394286Y-116705429D01*
X206451429Y-116679714D01*
X206622857Y-116679714D01*
X206680000Y-116705429D01*
X206708572Y-116731143D01*
X208137143Y-114111714D02*
X208137143Y-114651714D01*
X207737143Y-114651714D02*
X207622857Y-114651714D01*
X207565715Y-114626000D01*
X207508572Y-114574571D01*
X207480000Y-114471714D01*
X207480000Y-114291714D01*
X207508572Y-114188857D01*
X207565715Y-114137429D01*
X207622857Y-114111714D01*
X207737143Y-114111714D01*
X207794286Y-114137429D01*
X207851429Y-114188857D01*
X207880000Y-114291714D01*
X207880000Y-114471714D01*
X207851429Y-114574571D01*
X207794286Y-114626000D01*
X207737143Y-114651714D01*
X206908572Y-114111714D02*
X207251429Y-114111714D01*
X207080001Y-114111714D02*
X207080001Y-114651714D01*
X207137144Y-114574571D01*
X207194286Y-114523143D01*
X207251429Y-114497429D01*
X206680000Y-114600286D02*
X206651429Y-114626000D01*
X206594286Y-114651714D01*
X206451429Y-114651714D01*
X206394286Y-114626000D01*
X206365715Y-114600286D01*
X206337143Y-114548857D01*
X206337143Y-114497429D01*
X206365715Y-114420286D01*
X206708572Y-114111714D01*
X206337143Y-114111714D01*
X208137143Y-111543714D02*
X208137143Y-112083714D01*
X207737143Y-112083714D02*
X207622857Y-112083714D01*
X207565715Y-112058000D01*
X207508572Y-112006571D01*
X207480000Y-111903714D01*
X207480000Y-111723714D01*
X207508572Y-111620857D01*
X207565715Y-111569429D01*
X207622857Y-111543714D01*
X207737143Y-111543714D01*
X207794286Y-111569429D01*
X207851429Y-111620857D01*
X207880000Y-111723714D01*
X207880000Y-111903714D01*
X207851429Y-112006571D01*
X207794286Y-112058000D01*
X207737143Y-112083714D01*
X206908572Y-111543714D02*
X207251429Y-111543714D01*
X207080001Y-111543714D02*
X207080001Y-112083714D01*
X207137144Y-112006571D01*
X207194286Y-111955143D01*
X207251429Y-111929429D01*
X206394286Y-111903714D02*
X206394286Y-111543714D01*
X206537143Y-112109429D02*
X206680000Y-111723714D01*
X206308572Y-111723714D01*
X208137143Y-108975714D02*
X208137143Y-109515714D01*
X207737143Y-109515714D02*
X207622857Y-109515714D01*
X207565715Y-109490000D01*
X207508572Y-109438571D01*
X207480000Y-109335714D01*
X207480000Y-109155714D01*
X207508572Y-109052857D01*
X207565715Y-109001429D01*
X207622857Y-108975714D01*
X207737143Y-108975714D01*
X207794286Y-109001429D01*
X207851429Y-109052857D01*
X207880000Y-109155714D01*
X207880000Y-109335714D01*
X207851429Y-109438571D01*
X207794286Y-109490000D01*
X207737143Y-109515714D01*
X207251429Y-109464286D02*
X207222858Y-109490000D01*
X207165715Y-109515714D01*
X207022858Y-109515714D01*
X206965715Y-109490000D01*
X206937144Y-109464286D01*
X206908572Y-109412857D01*
X206908572Y-109361429D01*
X206937144Y-109284286D01*
X207280001Y-108975714D01*
X206908572Y-108975714D01*
X208137143Y-106407714D02*
X208137143Y-106947714D01*
X207737143Y-106947714D02*
X207622857Y-106947714D01*
X207565715Y-106922000D01*
X207508572Y-106870571D01*
X207480000Y-106767714D01*
X207480000Y-106587714D01*
X207508572Y-106484857D01*
X207565715Y-106433429D01*
X207622857Y-106407714D01*
X207737143Y-106407714D01*
X207794286Y-106433429D01*
X207851429Y-106484857D01*
X207880000Y-106587714D01*
X207880000Y-106767714D01*
X207851429Y-106870571D01*
X207794286Y-106922000D01*
X207737143Y-106947714D01*
X207108572Y-106947714D02*
X207051429Y-106947714D01*
X206994286Y-106922000D01*
X206965715Y-106896286D01*
X206937144Y-106844857D01*
X206908572Y-106742000D01*
X206908572Y-106613429D01*
X206937144Y-106510571D01*
X206965715Y-106459143D01*
X206994286Y-106433429D01*
X207051429Y-106407714D01*
X207108572Y-106407714D01*
X207165715Y-106433429D01*
X207194286Y-106459143D01*
X207222858Y-106510571D01*
X207251429Y-106613429D01*
X207251429Y-106742000D01*
X207222858Y-106844857D01*
X207194286Y-106896286D01*
X207165715Y-106922000D01*
X207108572Y-106947714D01*
X208137143Y-103839714D02*
X208137143Y-104379714D01*
X207737143Y-104379714D02*
X207622857Y-104379714D01*
X207565715Y-104354000D01*
X207508572Y-104302571D01*
X207480000Y-104199714D01*
X207480000Y-104019714D01*
X207508572Y-103916857D01*
X207565715Y-103865429D01*
X207622857Y-103839714D01*
X207737143Y-103839714D01*
X207794286Y-103865429D01*
X207851429Y-103916857D01*
X207880000Y-104019714D01*
X207880000Y-104199714D01*
X207851429Y-104302571D01*
X207794286Y-104354000D01*
X207737143Y-104379714D01*
X206965715Y-104199714D02*
X206965715Y-103839714D01*
X207108572Y-104405429D02*
X207251429Y-104019714D01*
X206880001Y-104019714D01*
X208137143Y-101271714D02*
X208137143Y-101811714D01*
X207737143Y-101811714D02*
X207622857Y-101811714D01*
X207565715Y-101786000D01*
X207508572Y-101734571D01*
X207480000Y-101631714D01*
X207480000Y-101451714D01*
X207508572Y-101348857D01*
X207565715Y-101297429D01*
X207622857Y-101271714D01*
X207737143Y-101271714D01*
X207794286Y-101297429D01*
X207851429Y-101348857D01*
X207880000Y-101451714D01*
X207880000Y-101631714D01*
X207851429Y-101734571D01*
X207794286Y-101786000D01*
X207737143Y-101811714D01*
X206937144Y-101811714D02*
X207222858Y-101811714D01*
X207251429Y-101554571D01*
X207222858Y-101580286D01*
X207165715Y-101606000D01*
X207022858Y-101606000D01*
X206965715Y-101580286D01*
X206937144Y-101554571D01*
X206908572Y-101503143D01*
X206908572Y-101374571D01*
X206937144Y-101323143D01*
X206965715Y-101297429D01*
X207022858Y-101271714D01*
X207165715Y-101271714D01*
X207222858Y-101297429D01*
X207251429Y-101323143D01*
X208137143Y-98703714D02*
X208137143Y-99243714D01*
X207737143Y-99243714D02*
X207622857Y-99243714D01*
X207565715Y-99218000D01*
X207508572Y-99166571D01*
X207480000Y-99063714D01*
X207480000Y-98883714D01*
X207508572Y-98780857D01*
X207565715Y-98729429D01*
X207622857Y-98703714D01*
X207737143Y-98703714D01*
X207794286Y-98729429D01*
X207851429Y-98780857D01*
X207880000Y-98883714D01*
X207880000Y-99063714D01*
X207851429Y-99166571D01*
X207794286Y-99218000D01*
X207737143Y-99243714D01*
X206908572Y-98703714D02*
X207251429Y-98703714D01*
X207080001Y-98703714D02*
X207080001Y-99243714D01*
X207137144Y-99166571D01*
X207194286Y-99115143D01*
X207251429Y-99089429D01*
X206394286Y-99243714D02*
X206508572Y-99243714D01*
X206565715Y-99218000D01*
X206594286Y-99192286D01*
X206651429Y-99115143D01*
X206680000Y-99012286D01*
X206680000Y-98806571D01*
X206651429Y-98755143D01*
X206622857Y-98729429D01*
X206565715Y-98703714D01*
X206451429Y-98703714D01*
X206394286Y-98729429D01*
X206365715Y-98755143D01*
X206337143Y-98806571D01*
X206337143Y-98935143D01*
X206365715Y-98986571D01*
X206394286Y-99012286D01*
X206451429Y-99038000D01*
X206565715Y-99038000D01*
X206622857Y-99012286D01*
X206651429Y-98986571D01*
X206680000Y-98935143D01*
D17*
X181861667Y-101495000D02*
X182561667Y-101280714D01*
X182061667Y-101109285D01*
X182561667Y-100937857D01*
X181861667Y-100723571D01*
X182561667Y-99866429D02*
X182228333Y-100166429D01*
X182561667Y-100380714D02*
X181861667Y-100380714D01*
X181861667Y-100037857D01*
X181895000Y-99952143D01*
X181928333Y-99909286D01*
X181995000Y-99866429D01*
X182095000Y-99866429D01*
X182161667Y-99909286D01*
X182195000Y-99952143D01*
X182228333Y-100037857D01*
X182228333Y-100380714D01*
X182561667Y-99480714D02*
X181861667Y-99480714D01*
X181861667Y-99180715D02*
X181861667Y-98666429D01*
X182561667Y-98923572D02*
X181861667Y-98923572D01*
X182195000Y-98366429D02*
X182195000Y-98066429D01*
X182561667Y-97937858D02*
X182561667Y-98366429D01*
X181861667Y-98366429D01*
X181861667Y-97937858D01*
X182561667Y-96549286D02*
X182228333Y-96849286D01*
X182561667Y-97063571D02*
X181861667Y-97063571D01*
X181861667Y-96720714D01*
X181895000Y-96635000D01*
X181928333Y-96592143D01*
X181995000Y-96549286D01*
X182095000Y-96549286D01*
X182161667Y-96592143D01*
X182195000Y-96635000D01*
X182228333Y-96720714D01*
X182228333Y-97063571D01*
X181861667Y-96163571D02*
X182428333Y-96163571D01*
X182495000Y-96120714D01*
X182528333Y-96077857D01*
X182561667Y-95992143D01*
X182561667Y-95820714D01*
X182528333Y-95735000D01*
X182495000Y-95692143D01*
X182428333Y-95649286D01*
X181861667Y-95649286D01*
X182561667Y-95220714D02*
X181861667Y-95220714D01*
X182561667Y-94706429D01*
X181861667Y-94706429D01*
D18*
X163192667Y-97536666D02*
X163892667Y-97369999D01*
X163392667Y-97236666D01*
X163892667Y-97103333D01*
X163192667Y-96936666D01*
X163192667Y-96669999D02*
X163759333Y-96669999D01*
X163826000Y-96636666D01*
X163859333Y-96603333D01*
X163892667Y-96536666D01*
X163892667Y-96403333D01*
X163859333Y-96336666D01*
X163826000Y-96303333D01*
X163759333Y-96269999D01*
X163192667Y-96269999D01*
X163892667Y-95936666D02*
X163192667Y-95936666D01*
X163192667Y-95670000D01*
X163226000Y-95603333D01*
X163259333Y-95570000D01*
X163326000Y-95536666D01*
X163426000Y-95536666D01*
X163492667Y-95570000D01*
X163526000Y-95603333D01*
X163559333Y-95670000D01*
X163559333Y-95936666D01*
D12*
X198120000Y-118110000D02*
X200660000Y-118110000D01*
X187960000Y-113030000D02*
X190500000Y-113030000D01*
X198120000Y-115570000D02*
X200660000Y-115570000D01*
X187960000Y-110490000D02*
X190500000Y-110490000D01*
X187960000Y-107950000D02*
X190500000Y-107950000D01*
X198120000Y-113030000D02*
X200660000Y-113030000D01*
X198120000Y-110490000D02*
X200660000Y-110490000D01*
X198120000Y-107950000D02*
X200660000Y-107950000D01*
X187960000Y-105410000D02*
X190500000Y-105410000D01*
X187960000Y-102870000D02*
X190500000Y-102870000D01*
X187960000Y-100330000D02*
X190500000Y-100330000D01*
X198120000Y-105410000D02*
X200660000Y-105410000D01*
X187960000Y-97790000D02*
X190500000Y-97790000D01*
X198120000Y-102870000D02*
X200660000Y-102870000D01*
X195426000Y-97663000D02*
X195426000Y-118000000D01*
X193040000Y-97663000D02*
X193040000Y-118000000D01*
D14*
X198044190Y-94966143D02*
X198310857Y-94966143D01*
X198425143Y-95280429D02*
X198044190Y-95280429D01*
X198044190Y-94680429D01*
X198425143Y-94680429D01*
X198691810Y-94680429D02*
X199225143Y-95280429D01*
X199225143Y-94680429D02*
X198691810Y-95280429D01*
X199415619Y-94680429D02*
X199872762Y-94680429D01*
X199644191Y-95280429D02*
X199644191Y-94680429D01*
X200139429Y-95280429D02*
X200139429Y-94680429D01*
X200672762Y-94680429D02*
X200825143Y-94680429D01*
X200901334Y-94709000D01*
X200977524Y-94766143D01*
X201015619Y-94880429D01*
X201015619Y-95080429D01*
X200977524Y-95194714D01*
X200901334Y-95251857D01*
X200825143Y-95280429D01*
X200672762Y-95280429D01*
X200596572Y-95251857D01*
X200520381Y-95194714D01*
X200482286Y-95080429D01*
X200482286Y-94880429D01*
X200520381Y-94766143D01*
X200596572Y-94709000D01*
X200672762Y-94680429D01*
X198425142Y-96270429D02*
X197967999Y-96270429D01*
X198196570Y-96270429D02*
X198196570Y-95670429D01*
X198120380Y-95756143D01*
X198044189Y-95813286D01*
X197967999Y-95841857D01*
X200558476Y-95727571D02*
X200596571Y-95699000D01*
X200672762Y-95670429D01*
X200863238Y-95670429D01*
X200939428Y-95699000D01*
X200977524Y-95727571D01*
X201015619Y-95784714D01*
X201015619Y-95841857D01*
X200977524Y-95927571D01*
X200520381Y-96270429D01*
X201015619Y-96270429D01*
X207961667Y-118965479D02*
X207261667Y-118965479D01*
X207261667Y-118739288D01*
X207295000Y-118603574D01*
X207361667Y-118513098D01*
X207428333Y-118467859D01*
X207561667Y-118422621D01*
X207661667Y-118422621D01*
X207795000Y-118467859D01*
X207861667Y-118513098D01*
X207928333Y-118603574D01*
X207961667Y-118739288D01*
X207961667Y-118965479D01*
X207561667Y-117879764D02*
X207528333Y-117970240D01*
X207495000Y-118015479D01*
X207428333Y-118060717D01*
X207395000Y-118060717D01*
X207328333Y-118015479D01*
X207295000Y-117970240D01*
X207261667Y-117879764D01*
X207261667Y-117698812D01*
X207295000Y-117608336D01*
X207328333Y-117563098D01*
X207395000Y-117517859D01*
X207428333Y-117517859D01*
X207495000Y-117563098D01*
X207528333Y-117608336D01*
X207561667Y-117698812D01*
X207561667Y-117879764D01*
X207595000Y-117970240D01*
X207628333Y-118015479D01*
X207695000Y-118060717D01*
X207828333Y-118060717D01*
X207895000Y-118015479D01*
X207928333Y-117970240D01*
X207961667Y-117879764D01*
X207961667Y-117698812D01*
X207928333Y-117608336D01*
X207895000Y-117563098D01*
X207828333Y-117517859D01*
X207695000Y-117517859D01*
X207628333Y-117563098D01*
X207595000Y-117608336D01*
X207561667Y-117698812D01*
X207961667Y-116386907D02*
X207261667Y-116386907D01*
X207261667Y-116160716D01*
X207295000Y-116025002D01*
X207361667Y-115934526D01*
X207428333Y-115889287D01*
X207561667Y-115844049D01*
X207661667Y-115844049D01*
X207795000Y-115889287D01*
X207861667Y-115934526D01*
X207928333Y-116025002D01*
X207961667Y-116160716D01*
X207961667Y-116386907D01*
X207261667Y-115527383D02*
X207261667Y-114894049D01*
X207961667Y-115301192D01*
X207961667Y-113808335D02*
X207261667Y-113808335D01*
X207261667Y-113582144D01*
X207295000Y-113446430D01*
X207361667Y-113355954D01*
X207428333Y-113310715D01*
X207561667Y-113265477D01*
X207661667Y-113265477D01*
X207795000Y-113310715D01*
X207861667Y-113355954D01*
X207928333Y-113446430D01*
X207961667Y-113582144D01*
X207961667Y-113808335D01*
X207261667Y-112451192D02*
X207261667Y-112632144D01*
X207295000Y-112722620D01*
X207328333Y-112767858D01*
X207428333Y-112858335D01*
X207561667Y-112903573D01*
X207828333Y-112903573D01*
X207895000Y-112858335D01*
X207928333Y-112813096D01*
X207961667Y-112722620D01*
X207961667Y-112541668D01*
X207928333Y-112451192D01*
X207895000Y-112405954D01*
X207828333Y-112360715D01*
X207661667Y-112360715D01*
X207595000Y-112405954D01*
X207561667Y-112451192D01*
X207528333Y-112541668D01*
X207528333Y-112722620D01*
X207561667Y-112813096D01*
X207595000Y-112858335D01*
X207661667Y-112903573D01*
X207961667Y-111229763D02*
X207261667Y-111229763D01*
X207261667Y-111003572D01*
X207295000Y-110867858D01*
X207361667Y-110777382D01*
X207428333Y-110732143D01*
X207561667Y-110686905D01*
X207661667Y-110686905D01*
X207795000Y-110732143D01*
X207861667Y-110777382D01*
X207928333Y-110867858D01*
X207961667Y-111003572D01*
X207961667Y-111229763D01*
X207261667Y-109827382D02*
X207261667Y-110279763D01*
X207595000Y-110325001D01*
X207561667Y-110279763D01*
X207528333Y-110189286D01*
X207528333Y-109963096D01*
X207561667Y-109872620D01*
X207595000Y-109827382D01*
X207661667Y-109782143D01*
X207828333Y-109782143D01*
X207895000Y-109827382D01*
X207928333Y-109872620D01*
X207961667Y-109963096D01*
X207961667Y-110189286D01*
X207928333Y-110279763D01*
X207895000Y-110325001D01*
X207961667Y-108651191D02*
X207261667Y-108651191D01*
X207261667Y-108425000D01*
X207295000Y-108289286D01*
X207361667Y-108198810D01*
X207428333Y-108153571D01*
X207561667Y-108108333D01*
X207661667Y-108108333D01*
X207795000Y-108153571D01*
X207861667Y-108198810D01*
X207928333Y-108289286D01*
X207961667Y-108425000D01*
X207961667Y-108651191D01*
X207495000Y-107294048D02*
X207961667Y-107294048D01*
X207228333Y-107520238D02*
X207728333Y-107746429D01*
X207728333Y-107158333D01*
X207961667Y-106072619D02*
X207261667Y-106072619D01*
X207261667Y-105846428D01*
X207295000Y-105710714D01*
X207361667Y-105620238D01*
X207428333Y-105574999D01*
X207561667Y-105529761D01*
X207661667Y-105529761D01*
X207795000Y-105574999D01*
X207861667Y-105620238D01*
X207928333Y-105710714D01*
X207961667Y-105846428D01*
X207961667Y-106072619D01*
X207261667Y-105213095D02*
X207261667Y-104624999D01*
X207528333Y-104941666D01*
X207528333Y-104805952D01*
X207561667Y-104715476D01*
X207595000Y-104670238D01*
X207661667Y-104624999D01*
X207828333Y-104624999D01*
X207895000Y-104670238D01*
X207928333Y-104715476D01*
X207961667Y-104805952D01*
X207961667Y-105077380D01*
X207928333Y-105167857D01*
X207895000Y-105213095D01*
X207961667Y-103494047D02*
X207261667Y-103494047D01*
X207261667Y-103267856D01*
X207295000Y-103132142D01*
X207361667Y-103041666D01*
X207428333Y-102996427D01*
X207561667Y-102951189D01*
X207661667Y-102951189D01*
X207795000Y-102996427D01*
X207861667Y-103041666D01*
X207928333Y-103132142D01*
X207961667Y-103267856D01*
X207961667Y-103494047D01*
X207328333Y-102589285D02*
X207295000Y-102544047D01*
X207261667Y-102453570D01*
X207261667Y-102227380D01*
X207295000Y-102136904D01*
X207328333Y-102091666D01*
X207395000Y-102046427D01*
X207461667Y-102046427D01*
X207561667Y-102091666D01*
X207961667Y-102634523D01*
X207961667Y-102046427D01*
X207961667Y-100915475D02*
X207261667Y-100915475D01*
X207261667Y-100689284D01*
X207295000Y-100553570D01*
X207361667Y-100463094D01*
X207428333Y-100417855D01*
X207561667Y-100372617D01*
X207661667Y-100372617D01*
X207795000Y-100417855D01*
X207861667Y-100463094D01*
X207928333Y-100553570D01*
X207961667Y-100689284D01*
X207961667Y-100915475D01*
X207961667Y-99467855D02*
X207961667Y-100010713D01*
X207961667Y-99739284D02*
X207261667Y-99739284D01*
X207361667Y-99829760D01*
X207428333Y-99920236D01*
X207461667Y-100010713D01*
X207961667Y-98336903D02*
X207261667Y-98336903D01*
X207261667Y-98110712D01*
X207295000Y-97974998D01*
X207361667Y-97884522D01*
X207428333Y-97839283D01*
X207561667Y-97794045D01*
X207661667Y-97794045D01*
X207795000Y-97839283D01*
X207861667Y-97884522D01*
X207928333Y-97974998D01*
X207961667Y-98110712D01*
X207961667Y-98336903D01*
X207261667Y-97205950D02*
X207261667Y-97115474D01*
X207295000Y-97024998D01*
X207328333Y-96979760D01*
X207395000Y-96934522D01*
X207528333Y-96889283D01*
X207695000Y-96889283D01*
X207828333Y-96934522D01*
X207895000Y-96979760D01*
X207928333Y-97024998D01*
X207961667Y-97115474D01*
X207961667Y-97205950D01*
X207928333Y-97296426D01*
X207895000Y-97341664D01*
X207828333Y-97386903D01*
X207695000Y-97432141D01*
X207528333Y-97432141D01*
X207395000Y-97386903D01*
X207328333Y-97341664D01*
X207295000Y-97296426D01*
X207261667Y-97205950D01*
D19*
X199832381Y-120935000D02*
X199767619Y-120901667D01*
X199670476Y-120901667D01*
X199573334Y-120935000D01*
X199508572Y-121001667D01*
X199476191Y-121068333D01*
X199443810Y-121201667D01*
X199443810Y-121301667D01*
X199476191Y-121435000D01*
X199508572Y-121501667D01*
X199573334Y-121568333D01*
X199670476Y-121601667D01*
X199735238Y-121601667D01*
X199832381Y-121568333D01*
X199864762Y-121535000D01*
X199864762Y-121301667D01*
X199735238Y-121301667D01*
X200156191Y-121601667D02*
X200156191Y-120901667D01*
X200544762Y-121601667D01*
X200544762Y-120901667D01*
X200868572Y-121601667D02*
X200868572Y-120901667D01*
X201030477Y-120901667D01*
X201127619Y-120935000D01*
X201192381Y-121001667D01*
X201224762Y-121068333D01*
X201257143Y-121201667D01*
X201257143Y-121301667D01*
X201224762Y-121435000D01*
X201192381Y-121501667D01*
X201127619Y-121568333D01*
X201030477Y-121601667D01*
X200868572Y-121601667D01*
X202001905Y-120901667D02*
X202422857Y-120901667D01*
X202196191Y-121168333D01*
X202293333Y-121168333D01*
X202358095Y-121201667D01*
X202390476Y-121235000D01*
X202422857Y-121301667D01*
X202422857Y-121468333D01*
X202390476Y-121535000D01*
X202358095Y-121568333D01*
X202293333Y-121601667D01*
X202099048Y-121601667D01*
X202034286Y-121568333D01*
X202001905Y-121535000D01*
X202714286Y-121535000D02*
X202746667Y-121568333D01*
X202714286Y-121601667D01*
X202681905Y-121568333D01*
X202714286Y-121535000D01*
X202714286Y-121601667D01*
X202973334Y-120901667D02*
X203394286Y-120901667D01*
X203167620Y-121168333D01*
X203264762Y-121168333D01*
X203329524Y-121201667D01*
X203361905Y-121235000D01*
X203394286Y-121301667D01*
X203394286Y-121468333D01*
X203361905Y-121535000D01*
X203329524Y-121568333D01*
X203264762Y-121601667D01*
X203070477Y-121601667D01*
X203005715Y-121568333D01*
X202973334Y-121535000D01*
X203588572Y-120901667D02*
X203815239Y-121601667D01*
X204041905Y-120901667D01*
X204689524Y-120901667D02*
X205078095Y-120901667D01*
X204883810Y-121601667D02*
X204883810Y-120901667D01*
X205434286Y-120901667D02*
X205563809Y-120901667D01*
X205628571Y-120935000D01*
X205693333Y-121001667D01*
X205725714Y-121135000D01*
X205725714Y-121368333D01*
X205693333Y-121501667D01*
X205628571Y-121568333D01*
X205563809Y-121601667D01*
X205434286Y-121601667D01*
X205369524Y-121568333D01*
X205304762Y-121501667D01*
X205272381Y-121368333D01*
X205272381Y-121135000D01*
X205304762Y-121001667D01*
X205369524Y-120935000D01*
X205434286Y-120901667D01*
X206017143Y-120901667D02*
X206017143Y-121468333D01*
X206049524Y-121535000D01*
X206081905Y-121568333D01*
X206146667Y-121601667D01*
X206276190Y-121601667D01*
X206340952Y-121568333D01*
X206373333Y-121535000D01*
X206405714Y-121468333D01*
X206405714Y-120901667D01*
X206632381Y-120901667D02*
X207020952Y-120901667D01*
X206826667Y-121601667D02*
X206826667Y-120901667D01*
D14*
X181327617Y-103833571D02*
X180801903Y-103833571D01*
X181064760Y-103233571D02*
X181064760Y-103833571D01*
X180582855Y-103833571D02*
X179969522Y-103233571D01*
X179969522Y-103833571D02*
X180582855Y-103233571D01*
X178392380Y-103233571D02*
X178699047Y-103519286D01*
X178918094Y-103233571D02*
X178918094Y-103833571D01*
X178567618Y-103833571D01*
X178479999Y-103805000D01*
X178436190Y-103776429D01*
X178392380Y-103719286D01*
X178392380Y-103633571D01*
X178436190Y-103576429D01*
X178479999Y-103547857D01*
X178567618Y-103519286D01*
X178918094Y-103519286D01*
X178085713Y-103833571D02*
X177472380Y-103233571D01*
X177472380Y-103833571D02*
X178085713Y-103233571D01*
X175982857Y-103833571D02*
X176420952Y-103833571D01*
X176464762Y-103547857D01*
X176420952Y-103576429D01*
X176333333Y-103605000D01*
X176114286Y-103605000D01*
X176026667Y-103576429D01*
X175982857Y-103547857D01*
X175939048Y-103490714D01*
X175939048Y-103347857D01*
X175982857Y-103290714D01*
X176026667Y-103262143D01*
X176114286Y-103233571D01*
X176333333Y-103233571D01*
X176420952Y-103262143D01*
X176464762Y-103290714D01*
X175676191Y-103833571D02*
X175369524Y-103233571D01*
X175062858Y-103833571D01*
X174142858Y-103833571D02*
X173573335Y-103833571D01*
X173880001Y-103605000D01*
X173748573Y-103605000D01*
X173660954Y-103576429D01*
X173617144Y-103547857D01*
X173573335Y-103490714D01*
X173573335Y-103347857D01*
X173617144Y-103290714D01*
X173660954Y-103262143D01*
X173748573Y-103233571D01*
X174011430Y-103233571D01*
X174099049Y-103262143D01*
X174142858Y-103290714D01*
X173310478Y-103833571D02*
X173003811Y-103233571D01*
X172697145Y-103833571D01*
X171207622Y-103805000D02*
X171295241Y-103833571D01*
X171426669Y-103833571D01*
X171558098Y-103805000D01*
X171645717Y-103747857D01*
X171689526Y-103690714D01*
X171733336Y-103576429D01*
X171733336Y-103490714D01*
X171689526Y-103376429D01*
X171645717Y-103319286D01*
X171558098Y-103262143D01*
X171426669Y-103233571D01*
X171339050Y-103233571D01*
X171207622Y-103262143D01*
X171163812Y-103290714D01*
X171163812Y-103490714D01*
X171339050Y-103490714D01*
X170769526Y-103233571D02*
X170769526Y-103833571D01*
X170243812Y-103233571D01*
X170243812Y-103833571D01*
X169805716Y-103233571D02*
X169805716Y-103833571D01*
X169586669Y-103833571D01*
X169455240Y-103805000D01*
X169367621Y-103747857D01*
X169323812Y-103690714D01*
X169280002Y-103576429D01*
X169280002Y-103490714D01*
X169323812Y-103376429D01*
X169367621Y-103319286D01*
X169455240Y-103262143D01*
X169586669Y-103233571D01*
X169805716Y-103233571D01*
D17*
X165907334Y-103948667D02*
X165907334Y-103415333D01*
X165874000Y-103915333D02*
X165874000Y-103448667D01*
X165840667Y-103915333D02*
X165840667Y-103448667D01*
X165807334Y-103882000D02*
X165807334Y-103482000D01*
X165774000Y-103882000D02*
X165774000Y-103482000D01*
X165740667Y-103848667D02*
X165740667Y-103515333D01*
X165707334Y-103848667D02*
X165707334Y-103515333D01*
X165674000Y-103815333D02*
X165674000Y-103548667D01*
X165640667Y-103782000D02*
X165640667Y-103582000D01*
X165607334Y-103782000D02*
X165607334Y-103582000D01*
X165574000Y-103748667D02*
X165574000Y-103615333D01*
X165540667Y-103748667D02*
X165540667Y-103615333D01*
X165507334Y-103682000D02*
X165474000Y-103682000D01*
X165507334Y-103715333D02*
X165507334Y-103648667D01*
X165940667Y-103948667D02*
X165440667Y-103682000D01*
X165940667Y-103415333D01*
X165407334Y-103682000D02*
X165940667Y-103382000D01*
X165940667Y-103982000D01*
X165407334Y-103682000D01*
X166674001Y-103948667D02*
X166440667Y-103615333D01*
X166274001Y-103948667D02*
X166274001Y-103248667D01*
X166540667Y-103248667D01*
X166607334Y-103282000D01*
X166640667Y-103315333D01*
X166674001Y-103382000D01*
X166674001Y-103482000D01*
X166640667Y-103548667D01*
X166607334Y-103582000D01*
X166540667Y-103615333D01*
X166274001Y-103615333D01*
X166940667Y-103915333D02*
X167040667Y-103948667D01*
X167207334Y-103948667D01*
X167274001Y-103915333D01*
X167307334Y-103882000D01*
X167340667Y-103815333D01*
X167340667Y-103748667D01*
X167307334Y-103682000D01*
X167274001Y-103648667D01*
X167207334Y-103615333D01*
X167074001Y-103582000D01*
X167007334Y-103548667D01*
X166974001Y-103515333D01*
X166940667Y-103448667D01*
X166940667Y-103382000D01*
X166974001Y-103315333D01*
X167007334Y-103282000D01*
X167074001Y-103248667D01*
X167240667Y-103248667D01*
X167340667Y-103282000D01*
X167540668Y-103248667D02*
X167940668Y-103248667D01*
X167740668Y-103948667D02*
X167740668Y-103248667D01*
X158620667Y-97103333D02*
X159120667Y-97103333D01*
X159220667Y-97136667D01*
X159287333Y-97203333D01*
X159320667Y-97303333D01*
X159320667Y-97370000D01*
X159320667Y-96770000D02*
X158620667Y-96770000D01*
X158620667Y-96503334D01*
X158654000Y-96436667D01*
X158687333Y-96403334D01*
X158754000Y-96370000D01*
X158854000Y-96370000D01*
X158920667Y-96403334D01*
X158954000Y-96436667D01*
X158987333Y-96503334D01*
X158987333Y-96770000D01*
X158687333Y-96103334D02*
X158654000Y-96070000D01*
X158620667Y-96003334D01*
X158620667Y-95836667D01*
X158654000Y-95770000D01*
X158687333Y-95736667D01*
X158754000Y-95703334D01*
X158820667Y-95703334D01*
X158920667Y-95736667D01*
X159320667Y-96136667D01*
X159320667Y-95703334D01*
D14*
X172255000Y-95925000D02*
X171805000Y-95925000D01*
X176305000Y-98425000D02*
G75*
G03X176305000Y-98425000I-2950000J0D01*
G01*
X174455000Y-95925000D02*
X174905000Y-95925000D01*
X166418000Y-134350000D02*
X166418000Y-130850000D01*
X166418000Y-130850000D02*
X179418000Y-130850000D01*
X179418000Y-130850000D02*
X179418000Y-137850000D01*
X179418000Y-137850000D02*
X166418000Y-137850000D01*
X166418000Y-137850000D02*
X166418000Y-134350000D01*
X168690000Y-101100000D02*
X166590000Y-101100000D01*
X168690000Y-95750000D02*
X166590000Y-95750000D01*
X187690760Y-125730000D02*
G75*
G03X187690760Y-125730000I-1000760J0D01*
G01*
X192890140Y-125730000D02*
G75*
G03X192890140Y-125730000I-6200140J0D01*
G01*
X136660000Y-114410000D02*
X136660000Y-96410000D01*
X136660000Y-96410000D02*
X138060000Y-96410000D01*
X142460000Y-96410000D02*
X138060000Y-96410000D01*
X136860000Y-114410000D02*
X136660000Y-114410000D01*
X142560000Y-114410000D02*
X142560000Y-96410000D01*
X142860000Y-114410000D02*
X136860000Y-114410000D01*
X142860000Y-114410000D02*
X142460000Y-114410000D01*
X142460000Y-96410000D02*
X142860000Y-96410000D01*
X156860000Y-114410000D02*
X156860000Y-96410000D01*
X156860000Y-114410000D02*
X142860000Y-114410000D01*
X142860000Y-96410000D02*
X156860000Y-96410000D01*
X164220000Y-125865000D02*
X162950000Y-125865000D01*
X164220000Y-133215000D02*
X162950000Y-133215000D01*
X152010000Y-133215000D02*
X153280000Y-133215000D01*
X152010000Y-125865000D02*
X153280000Y-125865000D01*
X164220000Y-125865000D02*
X164220000Y-133215000D01*
X152010000Y-125865000D02*
X152010000Y-133215000D01*
X162950000Y-125865000D02*
X162950000Y-124930000D01*
X207645000Y-132120000D02*
X210145000Y-132120000D01*
X210145000Y-132120000D02*
X210145000Y-137120000D01*
X210145000Y-137120000D02*
X207645000Y-137120000D01*
X207645000Y-137120000D02*
X207645000Y-138120000D01*
X207645000Y-138120000D02*
X193145000Y-138120000D01*
X193145000Y-138120000D02*
X193145000Y-131120000D01*
X193145000Y-131120000D02*
X207645000Y-131120000D01*
X207645000Y-131120000D02*
X207645000Y-132120000D01*
X173625000Y-117300000D02*
X173625000Y-113300000D01*
X173625000Y-113300000D02*
X168625000Y-113300000D01*
X168625000Y-113300000D02*
X168625000Y-117300000D01*
X168625000Y-117300000D02*
X173625000Y-117300000D01*
X180039214Y-110300000D02*
G75*
G03X180039214Y-110300000I-1414214J0D01*
G01*
X181625000Y-119300000D02*
X181625000Y-112300000D01*
X181625000Y-112300000D02*
X174625000Y-112300000D01*
X174625000Y-112300000D02*
X174625000Y-119300000D01*
X174625000Y-119300000D02*
X181625000Y-119300000D01*
X181625000Y-119300000D02*
X181625000Y-113300000D01*
X175625000Y-119300000D02*
X181625000Y-119300000D01*
X183375000Y-120050000D02*
X165875000Y-120050000D01*
X165875000Y-120050000D02*
X165875000Y-108550000D01*
X165875000Y-108550000D02*
X183375000Y-108550000D01*
X183375000Y-108550000D02*
X183375000Y-120050000D01*
X153035000Y-118745000D02*
X155575000Y-118745000D01*
X154454903Y-118745000D02*
G75*
G03X154454903Y-118745000I-1419903J0D01*
G01*
X153416000Y-136906000D02*
X155956000Y-136906000D01*
X154835903Y-136906000D02*
G75*
G03X154835903Y-136906000I-1419903J0D01*
G01*
X158750000Y-136906000D02*
X161290000Y-136906000D01*
X160169903Y-136906000D02*
G75*
G03X160169903Y-136906000I-1419903J0D01*
G01*
X166624000Y-128778000D02*
X166624000Y-126238000D01*
X168043903Y-128778000D02*
G75*
G03X168043903Y-128778000I-1419903J0D01*
G01*
X161290000Y-122428000D02*
X163830000Y-122428000D01*
X162709903Y-122428000D02*
G75*
G03X162709903Y-122428000I-1419903J0D01*
G01*
X155575000Y-122555000D02*
X158115000Y-122555000D01*
X156994903Y-122555000D02*
G75*
G03X156994903Y-122555000I-1419903J0D01*
G01*
X139065000Y-122555000D02*
X141605000Y-122555000D01*
X140484903Y-122555000D02*
G75*
G03X140484903Y-122555000I-1419903J0D01*
G01*
X187690760Y-128270000D02*
G75*
G03X187690760Y-128270000I-1000760J0D01*
G01*
X192890140Y-128270000D02*
G75*
G03X192890140Y-128270000I-6200140J0D01*
G01*
X136398000Y-132588000D02*
X136398000Y-124968000D01*
X151638000Y-132588000D02*
X151638000Y-124968000D01*
X136398000Y-131318000D02*
X151638000Y-131318000D01*
X136398000Y-124968000D02*
X151638000Y-124968000D01*
X136398000Y-132588000D02*
X151638000Y-132588000D01*
X136398000Y-135128000D02*
X136398000Y-127508000D01*
X151638000Y-135128000D02*
X151638000Y-127508000D01*
X136398000Y-133858000D02*
X151638000Y-133858000D01*
X136398000Y-127508000D02*
X151638000Y-127508000D01*
X136398000Y-135128000D02*
X151638000Y-135128000D01*
X164084000Y-103632000D02*
G75*
G03X164084000Y-103632000I-2540000J0D01*
G01*
X165354000Y-99822000D02*
X165354000Y-107442000D01*
X165354000Y-107442000D02*
X157734000Y-107442000D01*
X157734000Y-107442000D02*
X157734000Y-99822000D01*
X165354000Y-99822000D02*
X157734000Y-99822000D01*
X139208000Y-117611000D02*
X141208000Y-117611000D01*
X141208000Y-115561000D02*
X139208000Y-115561000D01*
X148320000Y-117085000D02*
X146320000Y-117085000D01*
X146320000Y-119135000D02*
X148320000Y-119135000D01*
X187715000Y-128000000D02*
X187715000Y-126000000D01*
X185665000Y-126000000D02*
X185665000Y-128000000D01*
X195076000Y-123972000D02*
X198076000Y-123972000D01*
X198076000Y-126472000D02*
X195076000Y-126472000D01*
X184205000Y-133122000D02*
X184205000Y-139420000D01*
X184345000Y-133128000D02*
X184345000Y-139414000D01*
X184485000Y-133141000D02*
X184485000Y-135825000D01*
X184485000Y-136717000D02*
X184485000Y-139401000D01*
X184625000Y-133160000D02*
X184625000Y-135615000D01*
X184625000Y-136927000D02*
X184625000Y-139382000D01*
X184765000Y-133186000D02*
X184765000Y-135482000D01*
X184765000Y-137060000D02*
X184765000Y-139356000D01*
X184905000Y-133218000D02*
X184905000Y-135391000D01*
X184905000Y-137151000D02*
X184905000Y-139324000D01*
X185045000Y-133257000D02*
X185045000Y-135329000D01*
X185045000Y-137213000D02*
X185045000Y-139285000D01*
X185185000Y-133303000D02*
X185185000Y-135290000D01*
X185185000Y-137252000D02*
X185185000Y-139239000D01*
X185325000Y-133356000D02*
X185325000Y-135273000D01*
X185325000Y-137269000D02*
X185325000Y-139186000D01*
X185465000Y-133418000D02*
X185465000Y-135275000D01*
X185465000Y-137267000D02*
X185465000Y-139124000D01*
X185605000Y-133488000D02*
X185605000Y-135297000D01*
X185605000Y-137245000D02*
X185605000Y-139054000D01*
X185745000Y-133567000D02*
X185745000Y-135340000D01*
X185745000Y-137202000D02*
X185745000Y-138975000D01*
X185885000Y-133655000D02*
X185885000Y-135408000D01*
X185885000Y-137134000D02*
X185885000Y-138887000D01*
X186025000Y-133755000D02*
X186025000Y-135507000D01*
X186025000Y-137035000D02*
X186025000Y-138787000D01*
X186165000Y-133867000D02*
X186165000Y-135652000D01*
X186165000Y-136890000D02*
X186165000Y-138675000D01*
X186305000Y-133992000D02*
X186305000Y-135891000D01*
X186305000Y-136651000D02*
X186305000Y-138550000D01*
X186445000Y-134135000D02*
X186445000Y-138407000D01*
X186585000Y-134297000D02*
X186585000Y-138245000D01*
X186725000Y-134485000D02*
X186725000Y-138057000D01*
X186865000Y-134708000D02*
X186865000Y-137834000D01*
X187005000Y-134984000D02*
X187005000Y-137558000D01*
X187145000Y-135359000D02*
X187145000Y-137183000D01*
X186380000Y-136271000D02*
G75*
G03X186380000Y-136271000I-1000000J0D01*
G01*
X187317500Y-136271000D02*
G75*
G03X187317500Y-136271000I-3187500J0D01*
G01*
X158500000Y-117495000D02*
X161500000Y-117495000D01*
X161500000Y-119995000D02*
X158500000Y-119995000D01*
X163965000Y-110075000D02*
X163965000Y-112175000D01*
X158615000Y-110075000D02*
X158615000Y-112175000D01*
X190500000Y-137160000D02*
X187960000Y-137160000D01*
X193320000Y-137440000D02*
X191770000Y-137440000D01*
X190500000Y-137160000D02*
X190500000Y-134620000D01*
X191770000Y-134340000D02*
X193320000Y-134340000D01*
X193320000Y-134340000D02*
X193320000Y-137440000D01*
X190500000Y-134620000D02*
X187960000Y-134620000D01*
X187960000Y-134620000D02*
X187960000Y-137160000D01*
X141208000Y-120963000D02*
X139208000Y-120963000D01*
X139208000Y-118813000D02*
X141208000Y-118813000D01*
X175237140Y-127530860D02*
X175237140Y-126829820D01*
X175237140Y-126829820D02*
X176037240Y-126829820D01*
X171434760Y-127530860D02*
X176037240Y-127530860D01*
X176037240Y-127530860D02*
X176037240Y-123929140D01*
X176037240Y-123929140D02*
X171434760Y-123929140D01*
X171434760Y-123929140D02*
X171434760Y-127530860D01*
X172616905Y-94722381D02*
X172616905Y-93722381D01*
X172855000Y-93722381D01*
X172997858Y-93770000D01*
X173093096Y-93865238D01*
X173140715Y-93960476D01*
X173188334Y-94150952D01*
X173188334Y-94293810D01*
X173140715Y-94484286D01*
X173093096Y-94579524D01*
X172997858Y-94674762D01*
X172855000Y-94722381D01*
X172616905Y-94722381D01*
X173569286Y-93817619D02*
X173616905Y-93770000D01*
X173712143Y-93722381D01*
X173950239Y-93722381D01*
X174045477Y-93770000D01*
X174093096Y-93817619D01*
X174140715Y-93912857D01*
X174140715Y-94008095D01*
X174093096Y-94150952D01*
X173521667Y-94722381D01*
X174140715Y-94722381D01*
X182332381Y-103703333D02*
X183046667Y-103703333D01*
X183189524Y-103750953D01*
X183284762Y-103846191D01*
X183332381Y-103989048D01*
X183332381Y-104084286D01*
X183332381Y-103227143D02*
X182332381Y-103227143D01*
X182332381Y-102846190D01*
X182380000Y-102750952D01*
X182427619Y-102703333D01*
X182522857Y-102655714D01*
X182665714Y-102655714D01*
X182760952Y-102703333D01*
X182808571Y-102750952D01*
X182856190Y-102846190D01*
X182856190Y-103227143D01*
X183332381Y-101703333D02*
X183332381Y-102274762D01*
X183332381Y-101989048D02*
X182332381Y-101989048D01*
X182475238Y-102084286D01*
X182570476Y-102179524D01*
X182618095Y-102274762D01*
X148486905Y-119832381D02*
X148486905Y-118832381D01*
X148867858Y-118832381D01*
X148963096Y-118880000D01*
X149010715Y-118927619D01*
X149058334Y-119022857D01*
X149058334Y-119165714D01*
X149010715Y-119260952D01*
X148963096Y-119308571D01*
X148867858Y-119356190D01*
X148486905Y-119356190D01*
X150010715Y-119832381D02*
X149439286Y-119832381D01*
X149725000Y-119832381D02*
X149725000Y-118832381D01*
X149629762Y-118975238D01*
X149534524Y-119070476D01*
X149439286Y-119118095D01*
X173172381Y-126690286D02*
X172172381Y-126690286D01*
X172172381Y-126309333D01*
X172220000Y-126214095D01*
X172267619Y-126166476D01*
X172362857Y-126118857D01*
X172505714Y-126118857D01*
X172600952Y-126166476D01*
X172648571Y-126214095D01*
X172696190Y-126309333D01*
X172696190Y-126690286D01*
X173172381Y-125166476D02*
X173172381Y-125737905D01*
X173172381Y-125452191D02*
X172172381Y-125452191D01*
X172315238Y-125547429D01*
X172410476Y-125642667D01*
X172458095Y-125737905D01*
X172172381Y-124547429D02*
X172172381Y-124452190D01*
X172220000Y-124356952D01*
X172267619Y-124309333D01*
X172362857Y-124261714D01*
X172553333Y-124214095D01*
X172791429Y-124214095D01*
X172981905Y-124261714D01*
X173077143Y-124309333D01*
X173124762Y-124356952D01*
X173172381Y-124452190D01*
X173172381Y-124547429D01*
X173124762Y-124642667D01*
X173077143Y-124690286D01*
X172981905Y-124737905D01*
X172791429Y-124785524D01*
X172553333Y-124785524D01*
X172362857Y-124737905D01*
X172267619Y-124690286D01*
X172220000Y-124642667D01*
X172172381Y-124547429D01*
X166973334Y-95377381D02*
X166640000Y-94901190D01*
X166401905Y-95377381D02*
X166401905Y-94377381D01*
X166782858Y-94377381D01*
X166878096Y-94425000D01*
X166925715Y-94472619D01*
X166973334Y-94567857D01*
X166973334Y-94710714D01*
X166925715Y-94805952D01*
X166878096Y-94853571D01*
X166782858Y-94901190D01*
X166401905Y-94901190D01*
X167401905Y-95377381D02*
X167401905Y-94377381D01*
X167782858Y-94377381D01*
X167878096Y-94425000D01*
X167925715Y-94472619D01*
X167973334Y-94567857D01*
X167973334Y-94710714D01*
X167925715Y-94805952D01*
X167878096Y-94853571D01*
X167782858Y-94901190D01*
X167401905Y-94901190D01*
X168925715Y-95377381D02*
X168354286Y-95377381D01*
X168640000Y-95377381D02*
X168640000Y-94377381D01*
X168544762Y-94520238D01*
X168449524Y-94615476D01*
X168354286Y-94663095D01*
X191778095Y-119022762D02*
X191920952Y-119070381D01*
X192159048Y-119070381D01*
X192254286Y-119022762D01*
X192301905Y-118975143D01*
X192349524Y-118879905D01*
X192349524Y-118784667D01*
X192301905Y-118689429D01*
X192254286Y-118641810D01*
X192159048Y-118594190D01*
X191968571Y-118546571D01*
X191873333Y-118498952D01*
X191825714Y-118451333D01*
X191778095Y-118356095D01*
X191778095Y-118260857D01*
X191825714Y-118165619D01*
X191873333Y-118118000D01*
X191968571Y-118070381D01*
X192206667Y-118070381D01*
X192349524Y-118118000D01*
X192778095Y-119070381D02*
X192778095Y-118070381D01*
X193159048Y-118070381D01*
X193254286Y-118118000D01*
X193301905Y-118165619D01*
X193349524Y-118260857D01*
X193349524Y-118403714D01*
X193301905Y-118498952D01*
X193254286Y-118546571D01*
X193159048Y-118594190D01*
X192778095Y-118594190D01*
X194301905Y-119070381D02*
X193730476Y-119070381D01*
X194016190Y-119070381D02*
X194016190Y-118070381D01*
X193920952Y-118213238D01*
X193825714Y-118308476D01*
X193730476Y-118356095D01*
X183570952Y-133119762D02*
X183713809Y-133167381D01*
X183951905Y-133167381D01*
X184047143Y-133119762D01*
X184094762Y-133072143D01*
X184142381Y-132976905D01*
X184142381Y-132881667D01*
X184094762Y-132786429D01*
X184047143Y-132738810D01*
X183951905Y-132691190D01*
X183761428Y-132643571D01*
X183666190Y-132595952D01*
X183618571Y-132548333D01*
X183570952Y-132453095D01*
X183570952Y-132357857D01*
X183618571Y-132262619D01*
X183666190Y-132215000D01*
X183761428Y-132167381D01*
X183999524Y-132167381D01*
X184142381Y-132215000D01*
X184570952Y-133167381D02*
X184570952Y-132167381D01*
X184951905Y-132167381D01*
X185047143Y-132215000D01*
X185094762Y-132262619D01*
X185142381Y-132357857D01*
X185142381Y-132500714D01*
X185094762Y-132595952D01*
X185047143Y-132643571D01*
X184951905Y-132691190D01*
X184570952Y-132691190D01*
X185570952Y-132643571D02*
X185904286Y-132643571D01*
X186047143Y-133167381D02*
X185570952Y-133167381D01*
X185570952Y-132167381D01*
X186047143Y-132167381D01*
X186428095Y-132881667D02*
X186904286Y-132881667D01*
X186332857Y-133167381D02*
X186666190Y-132167381D01*
X186999524Y-133167381D01*
X187332857Y-133167381D02*
X187332857Y-132167381D01*
X187904286Y-133167381D02*
X187475714Y-132595952D01*
X187904286Y-132167381D02*
X187332857Y-132738810D01*
X188332857Y-132643571D02*
X188666191Y-132643571D01*
X188809048Y-133167381D02*
X188332857Y-133167381D01*
X188332857Y-132167381D01*
X188809048Y-132167381D01*
X189809048Y-133167381D02*
X189475714Y-132691190D01*
X189237619Y-133167381D02*
X189237619Y-132167381D01*
X189618572Y-132167381D01*
X189713810Y-132215000D01*
X189761429Y-132262619D01*
X189809048Y-132357857D01*
X189809048Y-132500714D01*
X189761429Y-132595952D01*
X189713810Y-132643571D01*
X189618572Y-132691190D01*
X189237619Y-132691190D01*
X182499048Y-123261429D02*
X183260953Y-123261429D01*
X182880001Y-123642381D02*
X182880001Y-122880476D01*
X157302857Y-106324286D02*
X158274286Y-106324286D01*
X158388571Y-106267143D01*
X158445714Y-106210000D01*
X158502857Y-106095714D01*
X158502857Y-105867143D01*
X158445714Y-105752857D01*
X158388571Y-105695714D01*
X158274286Y-105638571D01*
X157302857Y-105638571D01*
X158502857Y-104438571D02*
X158502857Y-105124286D01*
X158502857Y-104781428D02*
X157302857Y-104781428D01*
X157474286Y-104895714D01*
X157588571Y-105010000D01*
X157645714Y-105124286D01*
X166597381Y-126491905D02*
X167406905Y-126491905D01*
X167502143Y-126444286D01*
X167549762Y-126396667D01*
X167597381Y-126301429D01*
X167597381Y-126110952D01*
X167549762Y-126015714D01*
X167502143Y-125968095D01*
X167406905Y-125920476D01*
X166597381Y-125920476D01*
X166692619Y-125491905D02*
X166645000Y-125444286D01*
X166597381Y-125349048D01*
X166597381Y-125110952D01*
X166645000Y-125015714D01*
X166692619Y-124968095D01*
X166787857Y-124920476D01*
X166883095Y-124920476D01*
X167025952Y-124968095D01*
X167597381Y-125539524D01*
X167597381Y-124920476D01*
X154670571Y-130500381D02*
X154670571Y-129500381D01*
X155242000Y-130500381D01*
X155242000Y-129500381D01*
X156003905Y-129500381D02*
X156003905Y-130214667D01*
X155956285Y-130357524D01*
X155861047Y-130452762D01*
X155718190Y-130500381D01*
X155622952Y-130500381D01*
X156480095Y-130500381D02*
X156480095Y-129500381D01*
X156813429Y-130214667D01*
X157146762Y-129500381D01*
X157146762Y-130500381D01*
X158051524Y-129833714D02*
X158051524Y-130500381D01*
X157813428Y-129452762D02*
X157575333Y-130167048D01*
X158194381Y-130167048D01*
X159051524Y-129500381D02*
X158575333Y-129500381D01*
X158527714Y-129976571D01*
X158575333Y-129928952D01*
X158670571Y-129881333D01*
X158908667Y-129881333D01*
X159003905Y-129928952D01*
X159051524Y-129976571D01*
X159099143Y-130071810D01*
X159099143Y-130309905D01*
X159051524Y-130405143D01*
X159003905Y-130452762D01*
X158908667Y-130500381D01*
X158670571Y-130500381D01*
X158575333Y-130452762D01*
X158527714Y-130405143D01*
X160003905Y-129500381D02*
X159527714Y-129500381D01*
X159480095Y-129976571D01*
X159527714Y-129928952D01*
X159622952Y-129881333D01*
X159861048Y-129881333D01*
X159956286Y-129928952D01*
X160003905Y-129976571D01*
X160051524Y-130071810D01*
X160051524Y-130309905D01*
X160003905Y-130405143D01*
X159956286Y-130452762D01*
X159861048Y-130500381D01*
X159622952Y-130500381D01*
X159527714Y-130452762D01*
X159480095Y-130405143D01*
X160908667Y-129500381D02*
X160718190Y-129500381D01*
X160622952Y-129548000D01*
X160575333Y-129595619D01*
X160480095Y-129738476D01*
X160432476Y-129928952D01*
X160432476Y-130309905D01*
X160480095Y-130405143D01*
X160527714Y-130452762D01*
X160622952Y-130500381D01*
X160813429Y-130500381D01*
X160908667Y-130452762D01*
X160956286Y-130405143D01*
X161003905Y-130309905D01*
X161003905Y-130071810D01*
X160956286Y-129976571D01*
X160908667Y-129928952D01*
X160813429Y-129881333D01*
X160622952Y-129881333D01*
X160527714Y-129928952D01*
X160480095Y-129976571D01*
X160432476Y-130071810D01*
X161384857Y-130214667D02*
X161861048Y-130214667D01*
X161289619Y-130500381D02*
X161622952Y-129500381D01*
X161956286Y-130500381D01*
X184237381Y-120364048D02*
X184237381Y-120173571D01*
X184285000Y-120078333D01*
X184380238Y-119983095D01*
X184570714Y-119935476D01*
X184904048Y-119935476D01*
X185094524Y-119983095D01*
X185189762Y-120078333D01*
X185237381Y-120173571D01*
X185237381Y-120364048D01*
X185189762Y-120459286D01*
X185094524Y-120554524D01*
X184904048Y-120602143D01*
X184570714Y-120602143D01*
X184380238Y-120554524D01*
X184285000Y-120459286D01*
X184237381Y-120364048D01*
X184237381Y-119506905D02*
X185046905Y-119506905D01*
X185142143Y-119459286D01*
X185189762Y-119411667D01*
X185237381Y-119316429D01*
X185237381Y-119125952D01*
X185189762Y-119030714D01*
X185142143Y-118983095D01*
X185046905Y-118935476D01*
X184237381Y-118935476D01*
X184237381Y-118602143D02*
X184237381Y-118030714D01*
X185237381Y-118316429D02*
X184237381Y-118316429D01*
X184856429Y-117697381D02*
X184856429Y-116935476D01*
X185237381Y-117316428D02*
X184475476Y-117316428D01*
X184237381Y-110839048D02*
X184237381Y-110648571D01*
X184285000Y-110553333D01*
X184380238Y-110458095D01*
X184570714Y-110410476D01*
X184904048Y-110410476D01*
X185094524Y-110458095D01*
X185189762Y-110553333D01*
X185237381Y-110648571D01*
X185237381Y-110839048D01*
X185189762Y-110934286D01*
X185094524Y-111029524D01*
X184904048Y-111077143D01*
X184570714Y-111077143D01*
X184380238Y-111029524D01*
X184285000Y-110934286D01*
X184237381Y-110839048D01*
X184237381Y-109981905D02*
X185046905Y-109981905D01*
X185142143Y-109934286D01*
X185189762Y-109886667D01*
X185237381Y-109791429D01*
X185237381Y-109600952D01*
X185189762Y-109505714D01*
X185142143Y-109458095D01*
X185046905Y-109410476D01*
X184237381Y-109410476D01*
X184237381Y-109077143D02*
X184237381Y-108505714D01*
X185237381Y-108791429D02*
X184237381Y-108791429D01*
X184856429Y-108172381D02*
X184856429Y-107410476D01*
X167076381Y-107822857D02*
X166076381Y-107822857D01*
X167076381Y-107346667D02*
X166076381Y-107346667D01*
X167076381Y-106775238D01*
X166076381Y-106775238D01*
X166695429Y-106299048D02*
X166695429Y-105537143D01*
X165044381Y-120522857D02*
X164044381Y-120522857D01*
X165044381Y-120046667D02*
X164044381Y-120046667D01*
X165044381Y-119475238D01*
X164044381Y-119475238D01*
X164663429Y-118999048D02*
X164663429Y-118237143D01*
X165044381Y-118618095D02*
X164282476Y-118618095D01*
X153757334Y-117292381D02*
X153424000Y-116816190D01*
X153185905Y-117292381D02*
X153185905Y-116292381D01*
X153566858Y-116292381D01*
X153662096Y-116340000D01*
X153709715Y-116387619D01*
X153757334Y-116482857D01*
X153757334Y-116625714D01*
X153709715Y-116720952D01*
X153662096Y-116768571D01*
X153566858Y-116816190D01*
X153185905Y-116816190D01*
X154614477Y-116292381D02*
X154424000Y-116292381D01*
X154328762Y-116340000D01*
X154281143Y-116387619D01*
X154185905Y-116530476D01*
X154138286Y-116720952D01*
X154138286Y-117101905D01*
X154185905Y-117197143D01*
X154233524Y-117244762D01*
X154328762Y-117292381D01*
X154519239Y-117292381D01*
X154614477Y-117244762D01*
X154662096Y-117197143D01*
X154709715Y-117101905D01*
X154709715Y-116863810D01*
X154662096Y-116768571D01*
X154614477Y-116720952D01*
X154519239Y-116673333D01*
X154328762Y-116673333D01*
X154233524Y-116720952D01*
X154185905Y-116768571D01*
X154138286Y-116863810D01*
X153503334Y-139898381D02*
X153170000Y-139422190D01*
X152931905Y-139898381D02*
X152931905Y-138898381D01*
X153312858Y-138898381D01*
X153408096Y-138946000D01*
X153455715Y-138993619D01*
X153503334Y-139088857D01*
X153503334Y-139231714D01*
X153455715Y-139326952D01*
X153408096Y-139374571D01*
X153312858Y-139422190D01*
X152931905Y-139422190D01*
X153836667Y-138898381D02*
X154503334Y-138898381D01*
X154074762Y-139898381D01*
X158837334Y-139898381D02*
X158504000Y-139422190D01*
X158265905Y-139898381D02*
X158265905Y-138898381D01*
X158646858Y-138898381D01*
X158742096Y-138946000D01*
X158789715Y-138993619D01*
X158837334Y-139088857D01*
X158837334Y-139231714D01*
X158789715Y-139326952D01*
X158742096Y-139374571D01*
X158646858Y-139422190D01*
X158265905Y-139422190D01*
X159408762Y-139326952D02*
X159313524Y-139279333D01*
X159265905Y-139231714D01*
X159218286Y-139136476D01*
X159218286Y-139088857D01*
X159265905Y-138993619D01*
X159313524Y-138946000D01*
X159408762Y-138898381D01*
X159599239Y-138898381D01*
X159694477Y-138946000D01*
X159742096Y-138993619D01*
X159789715Y-139088857D01*
X159789715Y-139136476D01*
X159742096Y-139231714D01*
X159694477Y-139279333D01*
X159599239Y-139326952D01*
X159408762Y-139326952D01*
X159313524Y-139374571D01*
X159265905Y-139422190D01*
X159218286Y-139517429D01*
X159218286Y-139707905D01*
X159265905Y-139803143D01*
X159313524Y-139850762D01*
X159408762Y-139898381D01*
X159599239Y-139898381D01*
X159694477Y-139850762D01*
X159742096Y-139803143D01*
X159789715Y-139707905D01*
X159789715Y-139517429D01*
X159742096Y-139422190D01*
X159694477Y-139374571D01*
X159599239Y-139326952D01*
X169616381Y-128690666D02*
X169140190Y-129024000D01*
X169616381Y-129262095D02*
X168616381Y-129262095D01*
X168616381Y-128881142D01*
X168664000Y-128785904D01*
X168711619Y-128738285D01*
X168806857Y-128690666D01*
X168949714Y-128690666D01*
X169044952Y-128738285D01*
X169092571Y-128785904D01*
X169140190Y-128881142D01*
X169140190Y-129262095D01*
X169616381Y-128214476D02*
X169616381Y-128024000D01*
X169568762Y-127928761D01*
X169521143Y-127881142D01*
X169378286Y-127785904D01*
X169187810Y-127738285D01*
X168806857Y-127738285D01*
X168711619Y-127785904D01*
X168664000Y-127833523D01*
X168616381Y-127928761D01*
X168616381Y-128119238D01*
X168664000Y-128214476D01*
X168711619Y-128262095D01*
X168806857Y-128309714D01*
X169044952Y-128309714D01*
X169140190Y-128262095D01*
X169187810Y-128214476D01*
X169235429Y-128119238D01*
X169235429Y-127928761D01*
X169187810Y-127833523D01*
X169140190Y-127785904D01*
X169044952Y-127738285D01*
X163441143Y-124404381D02*
X163107809Y-123928190D01*
X162869714Y-124404381D02*
X162869714Y-123404381D01*
X163250667Y-123404381D01*
X163345905Y-123452000D01*
X163393524Y-123499619D01*
X163441143Y-123594857D01*
X163441143Y-123737714D01*
X163393524Y-123832952D01*
X163345905Y-123880571D01*
X163250667Y-123928190D01*
X162869714Y-123928190D01*
X164393524Y-124404381D02*
X163822095Y-124404381D01*
X164107809Y-124404381D02*
X164107809Y-123404381D01*
X164012571Y-123547238D01*
X163917333Y-123642476D01*
X163822095Y-123690095D01*
X165012571Y-123404381D02*
X165107810Y-123404381D01*
X165203048Y-123452000D01*
X165250667Y-123499619D01*
X165298286Y-123594857D01*
X165345905Y-123785333D01*
X165345905Y-124023429D01*
X165298286Y-124213905D01*
X165250667Y-124309143D01*
X165203048Y-124356762D01*
X165107810Y-124404381D01*
X165012571Y-124404381D01*
X164917333Y-124356762D01*
X164869714Y-124309143D01*
X164822095Y-124213905D01*
X164774476Y-124023429D01*
X164774476Y-123785333D01*
X164822095Y-123594857D01*
X164869714Y-123499619D01*
X164917333Y-123452000D01*
X165012571Y-123404381D01*
X157853143Y-124404381D02*
X157519809Y-123928190D01*
X157281714Y-124404381D02*
X157281714Y-123404381D01*
X157662667Y-123404381D01*
X157757905Y-123452000D01*
X157805524Y-123499619D01*
X157853143Y-123594857D01*
X157853143Y-123737714D01*
X157805524Y-123832952D01*
X157757905Y-123880571D01*
X157662667Y-123928190D01*
X157281714Y-123928190D01*
X158805524Y-124404381D02*
X158234095Y-124404381D01*
X158519809Y-124404381D02*
X158519809Y-123404381D01*
X158424571Y-123547238D01*
X158329333Y-123642476D01*
X158234095Y-123690095D01*
X159757905Y-124404381D02*
X159186476Y-124404381D01*
X159472190Y-124404381D02*
X159472190Y-123404381D01*
X159376952Y-123547238D01*
X159281714Y-123642476D01*
X159186476Y-123690095D01*
X138676143Y-125547381D02*
X138342809Y-125071190D01*
X138104714Y-125547381D02*
X138104714Y-124547381D01*
X138485667Y-124547381D01*
X138580905Y-124595000D01*
X138628524Y-124642619D01*
X138676143Y-124737857D01*
X138676143Y-124880714D01*
X138628524Y-124975952D01*
X138580905Y-125023571D01*
X138485667Y-125071190D01*
X138104714Y-125071190D01*
X139628524Y-125547381D02*
X139057095Y-125547381D01*
X139342809Y-125547381D02*
X139342809Y-124547381D01*
X139247571Y-124690238D01*
X139152333Y-124785476D01*
X139057095Y-124833095D01*
X139961857Y-124547381D02*
X140580905Y-124547381D01*
X140247571Y-124928333D01*
X140390429Y-124928333D01*
X140485667Y-124975952D01*
X140533286Y-125023571D01*
X140580905Y-125118810D01*
X140580905Y-125356905D01*
X140533286Y-125452143D01*
X140485667Y-125499762D01*
X140390429Y-125547381D01*
X140104714Y-125547381D01*
X140009476Y-125499762D01*
X139961857Y-125452143D01*
X185428095Y-120673762D02*
X185570952Y-120721381D01*
X185809048Y-120721381D01*
X185904286Y-120673762D01*
X185951905Y-120626143D01*
X185999524Y-120530905D01*
X185999524Y-120435667D01*
X185951905Y-120340429D01*
X185904286Y-120292810D01*
X185809048Y-120245190D01*
X185618571Y-120197571D01*
X185523333Y-120149952D01*
X185475714Y-120102333D01*
X185428095Y-120007095D01*
X185428095Y-119911857D01*
X185475714Y-119816619D01*
X185523333Y-119769000D01*
X185618571Y-119721381D01*
X185856667Y-119721381D01*
X185999524Y-119769000D01*
X186428095Y-120721381D02*
X186428095Y-119721381D01*
X186809048Y-119721381D01*
X186904286Y-119769000D01*
X186951905Y-119816619D01*
X186999524Y-119911857D01*
X186999524Y-120054714D01*
X186951905Y-120149952D01*
X186904286Y-120197571D01*
X186809048Y-120245190D01*
X186428095Y-120245190D01*
X187380476Y-119816619D02*
X187428095Y-119769000D01*
X187523333Y-119721381D01*
X187761429Y-119721381D01*
X187856667Y-119769000D01*
X187904286Y-119816619D01*
X187951905Y-119911857D01*
X187951905Y-120007095D01*
X187904286Y-120149952D01*
X187332857Y-120721381D01*
X187951905Y-120721381D01*
X185356667Y-120578571D02*
X185499524Y-120626190D01*
X185547143Y-120673810D01*
X185594762Y-120769048D01*
X185594762Y-120911905D01*
X185547143Y-121007143D01*
X185499524Y-121054762D01*
X185404286Y-121102381D01*
X185023333Y-121102381D01*
X185023333Y-120102381D01*
X185356667Y-120102381D01*
X185451905Y-120150000D01*
X185499524Y-120197619D01*
X185547143Y-120292857D01*
X185547143Y-120388095D01*
X185499524Y-120483333D01*
X185451905Y-120530952D01*
X185356667Y-120578571D01*
X185023333Y-120578571D01*
X186023333Y-120578571D02*
X186356667Y-120578571D01*
X186499524Y-121102381D02*
X186023333Y-121102381D01*
X186023333Y-120102381D01*
X186499524Y-120102381D01*
X186928095Y-120578571D02*
X187261429Y-120578571D01*
X187404286Y-121102381D02*
X186928095Y-121102381D01*
X186928095Y-120102381D01*
X187404286Y-120102381D01*
X187832857Y-121102381D02*
X187832857Y-120102381D01*
X188213810Y-120102381D01*
X188309048Y-120150000D01*
X188356667Y-120197619D01*
X188404286Y-120292857D01*
X188404286Y-120435714D01*
X188356667Y-120530952D01*
X188309048Y-120578571D01*
X188213810Y-120626190D01*
X187832857Y-120626190D01*
X182499048Y-125801429D02*
X183260953Y-125801429D01*
X182880001Y-126182381D02*
X182880001Y-125420476D01*
X143279905Y-124150381D02*
X143279905Y-123150381D01*
X143660858Y-123150381D01*
X143756096Y-123198000D01*
X143803715Y-123245619D01*
X143851334Y-123340857D01*
X143851334Y-123483714D01*
X143803715Y-123578952D01*
X143756096Y-123626571D01*
X143660858Y-123674190D01*
X143279905Y-123674190D01*
X144422762Y-123578952D02*
X144327524Y-123531333D01*
X144279905Y-123483714D01*
X144232286Y-123388476D01*
X144232286Y-123340857D01*
X144279905Y-123245619D01*
X144327524Y-123198000D01*
X144422762Y-123150381D01*
X144613239Y-123150381D01*
X144708477Y-123198000D01*
X144756096Y-123245619D01*
X144803715Y-123340857D01*
X144803715Y-123388476D01*
X144756096Y-123483714D01*
X144708477Y-123531333D01*
X144613239Y-123578952D01*
X144422762Y-123578952D01*
X144327524Y-123626571D01*
X144279905Y-123674190D01*
X144232286Y-123769429D01*
X144232286Y-123959905D01*
X144279905Y-124055143D01*
X144327524Y-124102762D01*
X144422762Y-124150381D01*
X144613239Y-124150381D01*
X144708477Y-124102762D01*
X144756096Y-124055143D01*
X144803715Y-123959905D01*
X144803715Y-123769429D01*
X144756096Y-123674190D01*
X144708477Y-123626571D01*
X144613239Y-123578952D01*
X142803714Y-126690381D02*
X142803714Y-125690381D01*
X143184667Y-125690381D01*
X143279905Y-125738000D01*
X143327524Y-125785619D01*
X143375143Y-125880857D01*
X143375143Y-126023714D01*
X143327524Y-126118952D01*
X143279905Y-126166571D01*
X143184667Y-126214190D01*
X142803714Y-126214190D01*
X144327524Y-126690381D02*
X143756095Y-126690381D01*
X144041809Y-126690381D02*
X144041809Y-125690381D01*
X143946571Y-125833238D01*
X143851333Y-125928476D01*
X143756095Y-125976095D01*
X144660857Y-125690381D02*
X145327524Y-125690381D01*
X144898952Y-126690381D01*
X162710762Y-104965333D02*
X162758381Y-104822476D01*
X162758381Y-104584380D01*
X162710762Y-104489142D01*
X162663143Y-104441523D01*
X162567905Y-104393904D01*
X162472667Y-104393904D01*
X162377429Y-104441523D01*
X162329810Y-104489142D01*
X162282190Y-104584380D01*
X162234571Y-104774857D01*
X162186952Y-104870095D01*
X162139333Y-104917714D01*
X162044095Y-104965333D01*
X161948857Y-104965333D01*
X161853619Y-104917714D01*
X161806000Y-104870095D01*
X161758381Y-104774857D01*
X161758381Y-104536761D01*
X161806000Y-104393904D01*
X161758381Y-104060571D02*
X162758381Y-103822476D01*
X162044095Y-103631999D01*
X162758381Y-103441523D01*
X161758381Y-103203428D01*
X162758381Y-102298666D02*
X162758381Y-102870095D01*
X162758381Y-102584381D02*
X161758381Y-102584381D01*
X161901238Y-102679619D01*
X161996476Y-102774857D01*
X162044095Y-102870095D01*
X140041334Y-119243143D02*
X139993715Y-119290762D01*
X139850858Y-119338381D01*
X139755620Y-119338381D01*
X139612762Y-119290762D01*
X139517524Y-119195524D01*
X139469905Y-119100286D01*
X139422286Y-118909810D01*
X139422286Y-118766952D01*
X139469905Y-118576476D01*
X139517524Y-118481238D01*
X139612762Y-118386000D01*
X139755620Y-118338381D01*
X139850858Y-118338381D01*
X139993715Y-118386000D01*
X140041334Y-118433619D01*
X140422286Y-118433619D02*
X140469905Y-118386000D01*
X140565143Y-118338381D01*
X140803239Y-118338381D01*
X140898477Y-118386000D01*
X140946096Y-118433619D01*
X140993715Y-118528857D01*
X140993715Y-118624095D01*
X140946096Y-118766952D01*
X140374667Y-119338381D01*
X140993715Y-119338381D01*
X150709334Y-117197143D02*
X150661715Y-117244762D01*
X150518858Y-117292381D01*
X150423620Y-117292381D01*
X150280762Y-117244762D01*
X150185524Y-117149524D01*
X150137905Y-117054286D01*
X150090286Y-116863810D01*
X150090286Y-116720952D01*
X150137905Y-116530476D01*
X150185524Y-116435238D01*
X150280762Y-116340000D01*
X150423620Y-116292381D01*
X150518858Y-116292381D01*
X150661715Y-116340000D01*
X150709334Y-116387619D01*
X151185524Y-117292381D02*
X151376000Y-117292381D01*
X151471239Y-117244762D01*
X151518858Y-117197143D01*
X151614096Y-117054286D01*
X151661715Y-116863810D01*
X151661715Y-116482857D01*
X151614096Y-116387619D01*
X151566477Y-116340000D01*
X151471239Y-116292381D01*
X151280762Y-116292381D01*
X151185524Y-116340000D01*
X151137905Y-116387619D01*
X151090286Y-116482857D01*
X151090286Y-116720952D01*
X151137905Y-116816190D01*
X151185524Y-116863810D01*
X151280762Y-116911429D01*
X151471239Y-116911429D01*
X151566477Y-116863810D01*
X151614096Y-116816190D01*
X151661715Y-116720952D01*
X189442381Y-127166666D02*
X189442381Y-127642857D01*
X188442381Y-127642857D01*
X188537619Y-126880952D02*
X188490000Y-126833333D01*
X188442381Y-126738095D01*
X188442381Y-126499999D01*
X188490000Y-126404761D01*
X188537619Y-126357142D01*
X188632857Y-126309523D01*
X188728095Y-126309523D01*
X188870952Y-126357142D01*
X189442381Y-126928571D01*
X189442381Y-126309523D01*
X196409334Y-123079143D02*
X196361715Y-123126762D01*
X196218858Y-123174381D01*
X196123620Y-123174381D01*
X195980762Y-123126762D01*
X195885524Y-123031524D01*
X195837905Y-122936286D01*
X195790286Y-122745810D01*
X195790286Y-122602952D01*
X195837905Y-122412476D01*
X195885524Y-122317238D01*
X195980762Y-122222000D01*
X196123620Y-122174381D01*
X196218858Y-122174381D01*
X196361715Y-122222000D01*
X196409334Y-122269619D01*
X197361715Y-123174381D02*
X196790286Y-123174381D01*
X197076000Y-123174381D02*
X197076000Y-122174381D01*
X196980762Y-122317238D01*
X196885524Y-122412476D01*
X196790286Y-122460095D01*
X180173334Y-138787143D02*
X180125715Y-138834762D01*
X179982858Y-138882381D01*
X179887620Y-138882381D01*
X179744762Y-138834762D01*
X179649524Y-138739524D01*
X179601905Y-138644286D01*
X179554286Y-138453810D01*
X179554286Y-138310952D01*
X179601905Y-138120476D01*
X179649524Y-138025238D01*
X179744762Y-137930000D01*
X179887620Y-137882381D01*
X179982858Y-137882381D01*
X180125715Y-137930000D01*
X180173334Y-137977619D01*
X180506667Y-137882381D02*
X181125715Y-137882381D01*
X180792381Y-138263333D01*
X180935239Y-138263333D01*
X181030477Y-138310952D01*
X181078096Y-138358571D01*
X181125715Y-138453810D01*
X181125715Y-138691905D01*
X181078096Y-138787143D01*
X181030477Y-138834762D01*
X180935239Y-138882381D01*
X180649524Y-138882381D01*
X180554286Y-138834762D01*
X180506667Y-138787143D01*
X159833334Y-116602143D02*
X159785715Y-116649762D01*
X159642858Y-116697381D01*
X159547620Y-116697381D01*
X159404762Y-116649762D01*
X159309524Y-116554524D01*
X159261905Y-116459286D01*
X159214286Y-116268810D01*
X159214286Y-116125952D01*
X159261905Y-115935476D01*
X159309524Y-115840238D01*
X159404762Y-115745000D01*
X159547620Y-115697381D01*
X159642858Y-115697381D01*
X159785715Y-115745000D01*
X159833334Y-115792619D01*
X160690477Y-116030714D02*
X160690477Y-116697381D01*
X160452381Y-115649762D02*
X160214286Y-116364048D01*
X160833334Y-116364048D01*
X158242381Y-111791666D02*
X157766190Y-112125000D01*
X158242381Y-112363095D02*
X157242381Y-112363095D01*
X157242381Y-111982142D01*
X157290000Y-111886904D01*
X157337619Y-111839285D01*
X157432857Y-111791666D01*
X157575714Y-111791666D01*
X157670952Y-111839285D01*
X157718571Y-111886904D01*
X157766190Y-111982142D01*
X157766190Y-112363095D01*
X158242381Y-111363095D02*
X157242381Y-111363095D01*
X157242381Y-110982142D01*
X157290000Y-110886904D01*
X157337619Y-110839285D01*
X157432857Y-110791666D01*
X157575714Y-110791666D01*
X157670952Y-110839285D01*
X157718571Y-110886904D01*
X157766190Y-110982142D01*
X157766190Y-111363095D01*
X157337619Y-110410714D02*
X157290000Y-110363095D01*
X157242381Y-110267857D01*
X157242381Y-110029761D01*
X157290000Y-109934523D01*
X157337619Y-109886904D01*
X157432857Y-109839285D01*
X157528095Y-109839285D01*
X157670952Y-109886904D01*
X158242381Y-110458333D01*
X158242381Y-109839285D01*
X196322381Y-136723333D02*
X197036667Y-136723333D01*
X197179524Y-136770953D01*
X197274762Y-136866191D01*
X197322381Y-137009048D01*
X197322381Y-137104286D01*
X197322381Y-136247143D02*
X196322381Y-136247143D01*
X196322381Y-135866190D01*
X196370000Y-135770952D01*
X196417619Y-135723333D01*
X196512857Y-135675714D01*
X196655714Y-135675714D01*
X196750952Y-135723333D01*
X196798571Y-135770952D01*
X196846190Y-135866190D01*
X196846190Y-136247143D01*
X196322381Y-135342381D02*
X196322381Y-134723333D01*
X196703333Y-135056667D01*
X196703333Y-134913809D01*
X196750952Y-134818571D01*
X196798571Y-134770952D01*
X196893810Y-134723333D01*
X197131905Y-134723333D01*
X197227143Y-134770952D01*
X197274762Y-134818571D01*
X197322381Y-134913809D01*
X197322381Y-135199524D01*
X197274762Y-135294762D01*
X197227143Y-135342381D01*
X140041334Y-118040381D02*
X139708000Y-117564190D01*
X139469905Y-118040381D02*
X139469905Y-117040381D01*
X139850858Y-117040381D01*
X139946096Y-117088000D01*
X139993715Y-117135619D01*
X140041334Y-117230857D01*
X140041334Y-117373714D01*
X139993715Y-117468952D01*
X139946096Y-117516571D01*
X139850858Y-117564190D01*
X139469905Y-117564190D01*
X140993715Y-118040381D02*
X140422286Y-118040381D01*
X140708000Y-118040381D02*
X140708000Y-117040381D01*
X140612762Y-117183238D01*
X140517524Y-117278476D01*
X140422286Y-117326095D01*
X172974095Y-128992381D02*
X172974095Y-129801905D01*
X173021714Y-129897143D01*
X173069333Y-129944762D01*
X173164571Y-129992381D01*
X173355048Y-129992381D01*
X173450286Y-129944762D01*
X173497905Y-129897143D01*
X173545524Y-129801905D01*
X173545524Y-128992381D01*
X174497905Y-128992381D02*
X174021714Y-128992381D01*
X173974095Y-129468571D01*
X174021714Y-129420952D01*
X174116952Y-129373333D01*
X174355048Y-129373333D01*
X174450286Y-129420952D01*
X174497905Y-129468571D01*
X174545524Y-129563810D01*
X174545524Y-129801905D01*
X174497905Y-129897143D01*
X174450286Y-129944762D01*
X174355048Y-129992381D01*
X174116952Y-129992381D01*
X174021714Y-129944762D01*
X173974095Y-129897143D01*
M02*
