M48
;DRILL file {KiCad 4.0.2+dfsg1-stable} date 2016年08月16日 15時24分36秒
;FORMAT={-:-/ absolute / inch / decimal}
FMAT,2
INCH,TZ
T1C0.016
T2C0.023
T3C0.024
T4C0.026
T5C0.028
T6C0.031
T7C0.032
T8C0.032
T9C0.039
T10C0.039
T11C0.045
T12C0.047
T13C0.126
T14C0.157
%
G90
G05
M72
T1
X5.104Y-4.345
X5.277Y-4.112
X5.405Y-4.185
X5.416Y-3.406
X5.4659Y-4.1793
X5.525Y-4.1793
X5.565Y-3.605
X5.5841Y-4.1793
X5.65Y-3.525
X5.66Y-4.13
X5.6864Y-4.0954
X5.7022Y-3.4707
X5.7148Y-4.1191
X5.8016Y-4.1556
X5.8154Y-3.6046
X5.825Y-4.655
X5.89Y-3.32
X5.89Y-4.18
X5.955Y-3.43
X5.9732Y-3.3237
X5.9743Y-3.4822
X5.979Y-4.086
X6.0227Y-4.2221
X6.1255Y-3.9705
X6.2175Y-4.95
X6.245Y-4.1992
X6.4761Y-4.039
X6.508Y-4.086
X6.616Y-3.642
X6.62Y-3.21
X6.6343Y-3.5452
X6.6458Y-3.169
X6.816Y-3.354
X7.302Y-3.46
T2
X7.Y-3.15
X7.1Y-3.15
T3
X5.76Y-4.45
X5.76Y-4.55
X6.1Y-4.45
X6.1Y-4.55
X6.15Y-3.25
X6.225Y-3.25
X6.3Y-3.25
X6.375Y-3.25
X6.9Y-3.5
X6.9Y-3.6
X6.9Y-3.7
X6.9Y-3.8
X6.9Y-3.9
X6.9Y-4.
X6.9Y-4.1
X6.9Y-4.2
X6.9Y-4.3
X7.Y-3.5
X7.Y-3.6
X7.Y-3.7
X7.Y-3.8
X7.Y-3.9
X7.Y-4.
X7.Y-4.1
X7.Y-4.2
X7.Y-4.3
X7.1Y-3.5
X7.1Y-3.6
X7.1Y-3.7
X7.1Y-3.8
X7.1Y-3.9
X7.1Y-4.
X7.1Y-4.1
X7.1Y-4.2
X7.1Y-4.3
X7.4Y-3.5
X7.4Y-3.6
X7.4Y-3.7
X7.4Y-3.8
X7.4Y-3.9
X7.4Y-4.
X7.4Y-4.1
X7.4Y-4.2
X7.4Y-4.3
T4
X5.05Y-4.3
X5.15Y-4.3
X5.25Y-4.3
T5
X5.674Y-4.812
X5.674Y-4.912
X5.725Y-3.175
X5.725Y-3.275
X5.725Y-3.375
X6.175Y-3.44
X6.275Y-3.44
X6.375Y-3.44
X6.475Y-3.44
X6.575Y-3.44
X6.7Y-3.5
X6.7Y-3.6
X6.7Y-3.7
X6.7Y-3.8
X6.7Y-3.9
X6.7Y-4.
X6.7Y-4.1
X6.7Y-4.2
X6.7Y-4.3
X6.8Y-3.5
X6.8Y-3.6
X6.8Y-3.7
X6.8Y-3.8
X6.8Y-3.9
X6.8Y-4.
X6.8Y-4.1
X6.8Y-4.2
X6.8Y-4.3
X6.9Y-3.25
X6.9Y-3.35
X7.Y-3.25
X7.Y-3.35
X7.1Y-3.25
X7.1Y-3.35
X7.2Y-3.5
X7.2Y-3.6
X7.2Y-3.7
X7.2Y-3.8
X7.2Y-3.9
X7.2Y-4.
X7.2Y-4.1
X7.2Y-4.2
X7.2Y-4.3
T6
X5.8266Y-4.9
X5.9Y-4.05
X5.925Y-4.9
X6.225Y-4.55
X6.3234Y-4.55
X6.48Y-4.56
X6.5784Y-4.56
T7
X5.875Y-4.825
X5.9Y-3.9516
T8
X5.875Y-3.175
X5.875Y-3.475
X5.875Y-3.55
X5.875Y-3.85
X6.075Y-3.175
X6.075Y-3.475
X6.075Y-3.55
X6.075Y-3.85
X6.725Y-4.5
X6.825Y-4.5
T9
X5.235Y-4.21
X5.4288Y-4.2912
X5.507Y-3.9395
X6.12Y-5.1
X6.19Y-3.71
X6.212Y-3.876
X6.2925Y-4.3462
X6.379Y-3.896
X6.4249Y-3.7012
X7.05Y-4.575
X7.05Y-4.75
X7.2Y-4.575
T10
X6.1276Y-4.7749
X6.2276Y-4.7749
X6.3076Y-4.7749
X6.4076Y-4.7749
T11
X6.212Y-3.976
X6.212Y-4.076
T12
X6.55Y-3.6273
X6.55Y-3.7175
X6.55Y-3.8077
T13
X6.975Y-4.5
X6.975Y-4.825
X7.275Y-4.5
T14
X5.5565Y-3.7817
T3
X5.1531Y-4.4108G85X5.1886Y-4.4108
G05
X5.1531Y-4.6392G85X5.1886Y-4.6392
G05
T5
X5.2772Y-4.4108G85X5.3087Y-4.4108
G05
X5.4031Y-4.4108G85X5.4346Y-4.4108
G05
X5.537Y-4.4108G85X5.5685Y-4.4108
G05
X5.537Y-4.6392G85X5.5685Y-4.6392
G05
T9
X6.0133Y-4.7959G85X6.0133Y-4.8352
G05
X6.5173Y-4.7959G85X6.5173Y-4.8352
G05
T0
M30
