G04 #@! TF.FileFunction,Legend,Top*
%FSLAX46Y46*%
G04 Gerber Fmt 4.6, Leading zero omitted, Abs format (unit mm)*
G04 Created by KiCad (PCBNEW 4.0.2+dfsg1-stable) date 2016年08月16日 15時24分34秒*
%MOMM*%
G01*
G04 APERTURE LIST*
%ADD10C,0.100000*%
%ADD11C,0.175000*%
%ADD12C,0.200000*%
%ADD13C,0.150000*%
%ADD14C,0.500000*%
%ADD15C,0.125000*%
%ADD16C,2.000000*%
%ADD17C,0.250000*%
%ADD18C,0.300000*%
%ADD19C,0.170000*%
G04 APERTURE END LIST*
D10*
D11*
X150323715Y-98995667D02*
X150323715Y-98295667D01*
X150514191Y-98295667D01*
X150628477Y-98329000D01*
X150704668Y-98395667D01*
X150742763Y-98462333D01*
X150780858Y-98595667D01*
X150780858Y-98695667D01*
X150742763Y-98829000D01*
X150704668Y-98895667D01*
X150628477Y-98962333D01*
X150514191Y-98995667D01*
X150323715Y-98995667D01*
X151123715Y-98995667D02*
X151123715Y-98295667D01*
X151504667Y-98995667D02*
X151504667Y-98295667D01*
X151961810Y-98995667D01*
X151961810Y-98295667D01*
X152342762Y-98962333D02*
X152342762Y-98995667D01*
X152380857Y-98895667D02*
X152380857Y-98995667D01*
X152418953Y-98829000D02*
X152418953Y-98995667D01*
X152457048Y-98762333D02*
X152457048Y-98995667D01*
X152495143Y-98729000D02*
X152495143Y-98995667D01*
X152533238Y-98662333D02*
X152533238Y-98995667D01*
X152571334Y-98595667D02*
X152571334Y-98995667D01*
X152609429Y-98529000D02*
X152609429Y-98995667D01*
X152647524Y-98462333D02*
X152647524Y-98995667D01*
X152685619Y-98529000D02*
X152685619Y-98995667D01*
X152723715Y-98595667D02*
X152723715Y-98995667D01*
X152761810Y-98662333D02*
X152761810Y-98995667D01*
X152799905Y-98729000D02*
X152799905Y-98995667D01*
X152838000Y-98762333D02*
X152838000Y-98995667D01*
X152876096Y-98829000D02*
X152876096Y-98995667D01*
X152914191Y-98895667D02*
X152914191Y-98995667D01*
X152952286Y-98995667D02*
X152647524Y-98495667D01*
X152342762Y-98995667D01*
X152952286Y-98962333D02*
X152952286Y-98995667D01*
X152647524Y-98462333D02*
X152990381Y-98995667D01*
X152304667Y-98995667D01*
X152647524Y-98462333D01*
D12*
X145866190Y-120211905D02*
X146018571Y-120211905D01*
X146094762Y-120250000D01*
X146170952Y-120326190D01*
X146209047Y-120478571D01*
X146209047Y-120745238D01*
X146170952Y-120897619D01*
X146094762Y-120973810D01*
X146018571Y-121011905D01*
X145866190Y-121011905D01*
X145790000Y-120973810D01*
X145713809Y-120897619D01*
X145675714Y-120745238D01*
X145675714Y-120478571D01*
X145713809Y-120326190D01*
X145790000Y-120250000D01*
X145866190Y-120211905D01*
X146551904Y-121011905D02*
X146551904Y-120211905D01*
X146856666Y-120211905D01*
X146932857Y-120250000D01*
X146970952Y-120288095D01*
X147009047Y-120364286D01*
X147009047Y-120478571D01*
X146970952Y-120554762D01*
X146932857Y-120592857D01*
X146856666Y-120630952D01*
X146551904Y-120630952D01*
X147313809Y-120783333D02*
X147694761Y-120783333D01*
X147237618Y-121011905D02*
X147504285Y-120211905D01*
X147770952Y-121011905D01*
X148037618Y-121011905D02*
X148037618Y-120211905D01*
X148304285Y-120783333D01*
X148570952Y-120211905D01*
X148570952Y-121011905D01*
X148951904Y-121011905D02*
X148951904Y-120211905D01*
X149256666Y-120211905D01*
X149332857Y-120250000D01*
X149370952Y-120288095D01*
X149409047Y-120364286D01*
X149409047Y-120478571D01*
X149370952Y-120554762D01*
X149332857Y-120592857D01*
X149256666Y-120630952D01*
X148951904Y-120630952D01*
X149561428Y-121088095D02*
X150170952Y-121088095D01*
X150361428Y-120592857D02*
X150628095Y-120592857D01*
X150742381Y-121011905D02*
X150361428Y-121011905D01*
X150361428Y-120211905D01*
X150742381Y-120211905D01*
X151009048Y-120211905D02*
X151542381Y-121011905D01*
X151542381Y-120211905D02*
X151009048Y-121011905D01*
X150225286Y-106132381D02*
X150844334Y-106132381D01*
X150511000Y-106513333D01*
X150653858Y-106513333D01*
X150749096Y-106560952D01*
X150796715Y-106608571D01*
X150844334Y-106703810D01*
X150844334Y-106941905D01*
X150796715Y-107037143D01*
X150749096Y-107084762D01*
X150653858Y-107132381D01*
X150368143Y-107132381D01*
X150272905Y-107084762D01*
X150225286Y-107037143D01*
X151177667Y-106132381D02*
X151796715Y-106132381D01*
X151463381Y-106513333D01*
X151606239Y-106513333D01*
X151701477Y-106560952D01*
X151749096Y-106608571D01*
X151796715Y-106703810D01*
X151796715Y-106941905D01*
X151749096Y-107037143D01*
X151701477Y-107084762D01*
X151606239Y-107132381D01*
X151320524Y-107132381D01*
X151225286Y-107084762D01*
X151177667Y-107037143D01*
X152749096Y-107132381D02*
X152177667Y-107132381D01*
X152463381Y-107132381D02*
X152463381Y-106132381D01*
X152368143Y-106275238D01*
X152272905Y-106370476D01*
X152177667Y-106418095D01*
X171323096Y-119292714D02*
X171323096Y-119959381D01*
X171085000Y-118911762D02*
X170846905Y-119626048D01*
X171465953Y-119626048D01*
X171751667Y-118959381D02*
X172418334Y-118959381D01*
X171989762Y-119959381D01*
X172751667Y-119054619D02*
X172799286Y-119007000D01*
X172894524Y-118959381D01*
X173132620Y-118959381D01*
X173227858Y-119007000D01*
X173275477Y-119054619D01*
X173323096Y-119149857D01*
X173323096Y-119245095D01*
X173275477Y-119387952D01*
X172704048Y-119959381D01*
X173323096Y-119959381D01*
X165139714Y-83692904D02*
X165806381Y-83692904D01*
X164758762Y-83931000D02*
X165473048Y-84169095D01*
X165473048Y-83550047D01*
X164806381Y-83264333D02*
X164806381Y-82597666D01*
X165806381Y-83026238D01*
X164901619Y-82264333D02*
X164854000Y-82216714D01*
X164806381Y-82121476D01*
X164806381Y-81883380D01*
X164854000Y-81788142D01*
X164901619Y-81740523D01*
X164996857Y-81692904D01*
X165092095Y-81692904D01*
X165234952Y-81740523D01*
X165806381Y-82311952D01*
X165806381Y-81692904D01*
D13*
X184702572Y-87280000D02*
X184645429Y-87246667D01*
X184559715Y-87246667D01*
X184474000Y-87280000D01*
X184416858Y-87346667D01*
X184388286Y-87413333D01*
X184359715Y-87546667D01*
X184359715Y-87646667D01*
X184388286Y-87780000D01*
X184416858Y-87846667D01*
X184474000Y-87913333D01*
X184559715Y-87946667D01*
X184616858Y-87946667D01*
X184702572Y-87913333D01*
X184731143Y-87880000D01*
X184731143Y-87646667D01*
X184616858Y-87646667D01*
X184988286Y-87946667D02*
X184988286Y-87246667D01*
X185216858Y-87246667D01*
X185274000Y-87280000D01*
X185302572Y-87313333D01*
X185331143Y-87380000D01*
X185331143Y-87480000D01*
X185302572Y-87546667D01*
X185274000Y-87580000D01*
X185216858Y-87613333D01*
X184988286Y-87613333D01*
X185588286Y-87946667D02*
X185588286Y-87246667D01*
X185988286Y-87246667D02*
X186102572Y-87246667D01*
X186159714Y-87280000D01*
X186216857Y-87346667D01*
X186245429Y-87480000D01*
X186245429Y-87713333D01*
X186216857Y-87846667D01*
X186159714Y-87913333D01*
X186102572Y-87946667D01*
X185988286Y-87946667D01*
X185931143Y-87913333D01*
X185874000Y-87846667D01*
X185845429Y-87713333D01*
X185845429Y-87480000D01*
X185874000Y-87346667D01*
X185931143Y-87280000D01*
X185988286Y-87246667D01*
X186959714Y-87446667D02*
X186959714Y-87413333D01*
X186931143Y-87513333D02*
X186931143Y-87413333D01*
X186902571Y-87580000D02*
X186902571Y-87413333D01*
X186874000Y-87646667D02*
X186874000Y-87413333D01*
X186845428Y-87680000D02*
X186845428Y-87413333D01*
X186816857Y-87746667D02*
X186816857Y-87413333D01*
X186788285Y-87813333D02*
X186788285Y-87413333D01*
X186759714Y-87880000D02*
X186759714Y-87413333D01*
X186731143Y-87946667D02*
X186731143Y-87413333D01*
X186702571Y-87880000D02*
X186702571Y-87413333D01*
X186674000Y-87813333D02*
X186674000Y-87413333D01*
X186645428Y-87746667D02*
X186645428Y-87413333D01*
X186616857Y-87680000D02*
X186616857Y-87413333D01*
X186588285Y-87646667D02*
X186588285Y-87413333D01*
X186559714Y-87580000D02*
X186559714Y-87413333D01*
X186531143Y-87513333D02*
X186531143Y-87413333D01*
X186502571Y-87413333D02*
X186731143Y-87913333D01*
X186959714Y-87413333D01*
X186502571Y-87446667D02*
X186502571Y-87413333D01*
X186731143Y-87946667D02*
X186474000Y-87413333D01*
X186988285Y-87413333D01*
X186731143Y-87946667D01*
X189755429Y-109262002D02*
X189755429Y-109747716D01*
X189155429Y-109747716D01*
X189412571Y-108776288D02*
X189384000Y-108873430D01*
X189355429Y-108922002D01*
X189298286Y-108970573D01*
X189269714Y-108970573D01*
X189212571Y-108922002D01*
X189184000Y-108873430D01*
X189155429Y-108776288D01*
X189155429Y-108582002D01*
X189184000Y-108484859D01*
X189212571Y-108436288D01*
X189269714Y-108387716D01*
X189298286Y-108387716D01*
X189355429Y-108436288D01*
X189384000Y-108484859D01*
X189412571Y-108582002D01*
X189412571Y-108776288D01*
X189441143Y-108873430D01*
X189469714Y-108922002D01*
X189526857Y-108970573D01*
X189641143Y-108970573D01*
X189698286Y-108922002D01*
X189726857Y-108873430D01*
X189755429Y-108776288D01*
X189755429Y-108582002D01*
X189726857Y-108484859D01*
X189698286Y-108436288D01*
X189641143Y-108387716D01*
X189526857Y-108387716D01*
X189469714Y-108436288D01*
X189441143Y-108484859D01*
X189412571Y-108582002D01*
X189755429Y-106687716D02*
X189755429Y-107173430D01*
X189155429Y-107173430D01*
X189155429Y-106444859D02*
X189155429Y-105764859D01*
X189755429Y-106202002D01*
X189755429Y-104113430D02*
X189755429Y-104599144D01*
X189155429Y-104599144D01*
X189155429Y-103336287D02*
X189155429Y-103530573D01*
X189184000Y-103627716D01*
X189212571Y-103676287D01*
X189298286Y-103773430D01*
X189412571Y-103822001D01*
X189641143Y-103822001D01*
X189698286Y-103773430D01*
X189726857Y-103724858D01*
X189755429Y-103627716D01*
X189755429Y-103433430D01*
X189726857Y-103336287D01*
X189698286Y-103287716D01*
X189641143Y-103239144D01*
X189498286Y-103239144D01*
X189441143Y-103287716D01*
X189412571Y-103336287D01*
X189384000Y-103433430D01*
X189384000Y-103627716D01*
X189412571Y-103724858D01*
X189441143Y-103773430D01*
X189498286Y-103822001D01*
X189755429Y-101879144D02*
X189726857Y-101976286D01*
X189669714Y-102024858D01*
X189155429Y-102024858D01*
X189155429Y-101004858D02*
X189155429Y-101490572D01*
X189441143Y-101539143D01*
X189412571Y-101490572D01*
X189384000Y-101393429D01*
X189384000Y-101150572D01*
X189412571Y-101053429D01*
X189441143Y-101004858D01*
X189498286Y-100956286D01*
X189641143Y-100956286D01*
X189698286Y-101004858D01*
X189726857Y-101053429D01*
X189755429Y-101150572D01*
X189755429Y-101393429D01*
X189726857Y-101490572D01*
X189698286Y-101539143D01*
X189755429Y-99256286D02*
X189755429Y-99742000D01*
X189155429Y-99742000D01*
X189355429Y-98479143D02*
X189755429Y-98479143D01*
X189126857Y-98722000D02*
X189555429Y-98964857D01*
X189555429Y-98333429D01*
X189755429Y-96682000D02*
X189755429Y-97167714D01*
X189155429Y-97167714D01*
X189155429Y-96439143D02*
X189155429Y-95807714D01*
X189384000Y-96147714D01*
X189384000Y-96002000D01*
X189412571Y-95904857D01*
X189441143Y-95856286D01*
X189498286Y-95807714D01*
X189641143Y-95807714D01*
X189698286Y-95856286D01*
X189726857Y-95904857D01*
X189755429Y-96002000D01*
X189755429Y-96293428D01*
X189726857Y-96390571D01*
X189698286Y-96439143D01*
X189755429Y-94107714D02*
X189755429Y-94593428D01*
X189155429Y-94593428D01*
X189212571Y-93816285D02*
X189184000Y-93767714D01*
X189155429Y-93670571D01*
X189155429Y-93427714D01*
X189184000Y-93330571D01*
X189212571Y-93282000D01*
X189269714Y-93233428D01*
X189326857Y-93233428D01*
X189412571Y-93282000D01*
X189755429Y-93864857D01*
X189755429Y-93233428D01*
X189755429Y-91533428D02*
X189755429Y-92019142D01*
X189155429Y-92019142D01*
X189755429Y-90659142D02*
X189755429Y-91241999D01*
X189755429Y-90950571D02*
X189155429Y-90950571D01*
X189241143Y-91047714D01*
X189298286Y-91144856D01*
X189326857Y-91241999D01*
X189755429Y-88959142D02*
X189755429Y-89444856D01*
X189155429Y-89444856D01*
X189155429Y-88424856D02*
X189155429Y-88327713D01*
X189184000Y-88230570D01*
X189212571Y-88181999D01*
X189269714Y-88133428D01*
X189384000Y-88084856D01*
X189526857Y-88084856D01*
X189641143Y-88133428D01*
X189698286Y-88181999D01*
X189726857Y-88230570D01*
X189755429Y-88327713D01*
X189755429Y-88424856D01*
X189726857Y-88521999D01*
X189698286Y-88570570D01*
X189641143Y-88619142D01*
X189526857Y-88667713D01*
X189384000Y-88667713D01*
X189269714Y-88619142D01*
X189212571Y-88570570D01*
X189184000Y-88521999D01*
X189155429Y-88424856D01*
D12*
X180170200Y-124713904D02*
X180122581Y-124809142D01*
X180122581Y-124951999D01*
X180170200Y-125094857D01*
X180265438Y-125190095D01*
X180360676Y-125237714D01*
X180551152Y-125285333D01*
X180694010Y-125285333D01*
X180884486Y-125237714D01*
X180979724Y-125190095D01*
X181074962Y-125094857D01*
X181122581Y-124951999D01*
X181122581Y-124856761D01*
X181074962Y-124713904D01*
X181027343Y-124666285D01*
X180694010Y-124666285D01*
X180694010Y-124856761D01*
X181122581Y-124237714D02*
X180122581Y-124237714D01*
X181122581Y-123666285D01*
X180122581Y-123666285D01*
X181122581Y-123190095D02*
X180122581Y-123190095D01*
X180122581Y-122952000D01*
X180170200Y-122809142D01*
X180265438Y-122713904D01*
X180360676Y-122666285D01*
X180551152Y-122618666D01*
X180694010Y-122618666D01*
X180884486Y-122666285D01*
X180979724Y-122713904D01*
X181074962Y-122809142D01*
X181122581Y-122952000D01*
X181122581Y-123190095D01*
D11*
X173923133Y-86577967D02*
X173823133Y-86544633D01*
X173656466Y-86544633D01*
X173589799Y-86577967D01*
X173556466Y-86611300D01*
X173523133Y-86677967D01*
X173523133Y-86744633D01*
X173556466Y-86811300D01*
X173589799Y-86844633D01*
X173656466Y-86877967D01*
X173789799Y-86911300D01*
X173856466Y-86944633D01*
X173889799Y-86977967D01*
X173923133Y-87044633D01*
X173923133Y-87111300D01*
X173889799Y-87177967D01*
X173856466Y-87211300D01*
X173789799Y-87244633D01*
X173623133Y-87244633D01*
X173523133Y-87211300D01*
X173223132Y-86911300D02*
X172989799Y-86911300D01*
X172889799Y-86544633D02*
X173223132Y-86544633D01*
X173223132Y-87244633D01*
X172889799Y-87244633D01*
X172189799Y-86544633D02*
X172423133Y-86877967D01*
X172589799Y-86544633D02*
X172589799Y-87244633D01*
X172323133Y-87244633D01*
X172256466Y-87211300D01*
X172223133Y-87177967D01*
X172189799Y-87111300D01*
X172189799Y-87011300D01*
X172223133Y-86944633D01*
X172256466Y-86911300D01*
X172323133Y-86877967D01*
X172589799Y-86877967D01*
X171989799Y-87244633D02*
X171756466Y-86544633D01*
X171523133Y-87244633D01*
X171156466Y-87244633D02*
X171023133Y-87244633D01*
X170956466Y-87211300D01*
X170889799Y-87144633D01*
X170856466Y-87011300D01*
X170856466Y-86777967D01*
X170889799Y-86644633D01*
X170956466Y-86577967D01*
X171023133Y-86544633D01*
X171156466Y-86544633D01*
X171223133Y-86577967D01*
X171289799Y-86644633D01*
X171323133Y-86777967D01*
X171323133Y-87011300D01*
X171289799Y-87144633D01*
X171223133Y-87211300D01*
X171156466Y-87244633D01*
X173673132Y-85389633D02*
X173673132Y-85922967D01*
X173706466Y-85422967D02*
X173706466Y-85889633D01*
X173739799Y-85422967D02*
X173739799Y-85889633D01*
X173773132Y-85456300D02*
X173773132Y-85856300D01*
X173806466Y-85456300D02*
X173806466Y-85856300D01*
X173839799Y-85489633D02*
X173839799Y-85822967D01*
X173873132Y-85489633D02*
X173873132Y-85822967D01*
X173906466Y-85522967D02*
X173906466Y-85789633D01*
X173939799Y-85556300D02*
X173939799Y-85756300D01*
X173973132Y-85556300D02*
X173973132Y-85756300D01*
X174006466Y-85589633D02*
X174006466Y-85722967D01*
X174039799Y-85589633D02*
X174039799Y-85722967D01*
X174073132Y-85656300D02*
X174106466Y-85656300D01*
X174073132Y-85622967D02*
X174073132Y-85689633D01*
X173639799Y-85389633D02*
X174139799Y-85656300D01*
X173639799Y-85922967D01*
X174173132Y-85656300D02*
X173639799Y-85956300D01*
X173639799Y-85356300D01*
X174173132Y-85656300D01*
X172806465Y-86122967D02*
X173406465Y-85222967D01*
X172573132Y-85389633D02*
X172573132Y-86089633D01*
X172406466Y-86089633D01*
X172306466Y-86056300D01*
X172239799Y-85989633D01*
X172206466Y-85922967D01*
X172173132Y-85789633D01*
X172173132Y-85689633D01*
X172206466Y-85556300D01*
X172239799Y-85489633D01*
X172306466Y-85422967D01*
X172406466Y-85389633D01*
X172573132Y-85389633D01*
X171873132Y-85389633D02*
X171873132Y-86089633D01*
X171539799Y-85389633D02*
X171539799Y-86089633D01*
X171139799Y-85389633D01*
X171139799Y-86089633D01*
X143826667Y-82908571D02*
X143126667Y-82908571D01*
X143626667Y-82608571D01*
X143126667Y-82308571D01*
X143826667Y-82308571D01*
X143126667Y-81708572D02*
X143126667Y-81537143D01*
X143160000Y-81451429D01*
X143226667Y-81365715D01*
X143360000Y-81322857D01*
X143593333Y-81322857D01*
X143726667Y-81365715D01*
X143793333Y-81451429D01*
X143826667Y-81537143D01*
X143826667Y-81708572D01*
X143793333Y-81794286D01*
X143726667Y-81880000D01*
X143593333Y-81922857D01*
X143360000Y-81922857D01*
X143226667Y-81880000D01*
X143160000Y-81794286D01*
X143126667Y-81708572D01*
X143826667Y-80937143D02*
X143126667Y-80937143D01*
X143126667Y-80722858D01*
X143160000Y-80594286D01*
X143226667Y-80508572D01*
X143293333Y-80465715D01*
X143426667Y-80422858D01*
X143526667Y-80422858D01*
X143660000Y-80465715D01*
X143726667Y-80508572D01*
X143793333Y-80594286D01*
X143826667Y-80722858D01*
X143826667Y-80937143D01*
X143460000Y-80037143D02*
X143460000Y-79737143D01*
X143826667Y-79608572D02*
X143826667Y-80037143D01*
X143126667Y-80037143D01*
X143126667Y-79608572D01*
D12*
X173462933Y-84848437D02*
X173462933Y-84467485D01*
X173691505Y-84924628D02*
X172891505Y-84657961D01*
X173691505Y-84391294D01*
X173691505Y-84124628D02*
X172891505Y-84124628D01*
X173691505Y-83667485D01*
X172891505Y-83667485D01*
X173462933Y-83324628D02*
X173462933Y-82943676D01*
X173691505Y-83400819D02*
X172891505Y-83134152D01*
X173691505Y-82867485D01*
X173691505Y-82219866D02*
X173691505Y-82600819D01*
X172891505Y-82600819D01*
X172891505Y-81800819D02*
X172891505Y-81648438D01*
X172929600Y-81572247D01*
X173005790Y-81496057D01*
X173158171Y-81457962D01*
X173424838Y-81457962D01*
X173577219Y-81496057D01*
X173653410Y-81572247D01*
X173691505Y-81648438D01*
X173691505Y-81800819D01*
X173653410Y-81877009D01*
X173577219Y-81953200D01*
X173424838Y-81991295D01*
X173158171Y-81991295D01*
X173005790Y-81953200D01*
X172929600Y-81877009D01*
X172891505Y-81800819D01*
X172929600Y-80696057D02*
X172891505Y-80772248D01*
X172891505Y-80886533D01*
X172929600Y-81000819D01*
X173005790Y-81077010D01*
X173081981Y-81115105D01*
X173234362Y-81153200D01*
X173348648Y-81153200D01*
X173501029Y-81115105D01*
X173577219Y-81077010D01*
X173653410Y-81000819D01*
X173691505Y-80886533D01*
X173691505Y-80810343D01*
X173653410Y-80696057D01*
X173615314Y-80657962D01*
X173348648Y-80657962D01*
X173348648Y-80810343D01*
D13*
X174629656Y-87047429D02*
X175001085Y-87047429D01*
X174801085Y-87276000D01*
X174886799Y-87276000D01*
X174943942Y-87304571D01*
X174972513Y-87333143D01*
X175001085Y-87390286D01*
X175001085Y-87533143D01*
X174972513Y-87590286D01*
X174943942Y-87618857D01*
X174886799Y-87647429D01*
X174715371Y-87647429D01*
X174658228Y-87618857D01*
X174629656Y-87590286D01*
X175172514Y-87047429D02*
X175372514Y-87647429D01*
X175572514Y-87047429D01*
X175715371Y-87047429D02*
X176086800Y-87047429D01*
X175886800Y-87276000D01*
X175972514Y-87276000D01*
X176029657Y-87304571D01*
X176058228Y-87333143D01*
X176086800Y-87390286D01*
X176086800Y-87533143D01*
X176058228Y-87590286D01*
X176029657Y-87618857D01*
X175972514Y-87647429D01*
X175801086Y-87647429D01*
X175743943Y-87618857D01*
X175715371Y-87590286D01*
X177115372Y-87076000D02*
X177058229Y-87047429D01*
X176972515Y-87047429D01*
X176886800Y-87076000D01*
X176829658Y-87133143D01*
X176801086Y-87190286D01*
X176772515Y-87304571D01*
X176772515Y-87390286D01*
X176801086Y-87504571D01*
X176829658Y-87561714D01*
X176886800Y-87618857D01*
X176972515Y-87647429D01*
X177029658Y-87647429D01*
X177115372Y-87618857D01*
X177143943Y-87590286D01*
X177143943Y-87390286D01*
X177029658Y-87390286D01*
X177401086Y-87647429D02*
X177401086Y-87047429D01*
X177743943Y-87647429D01*
X177743943Y-87047429D01*
X178029657Y-87647429D02*
X178029657Y-87047429D01*
X178172514Y-87047429D01*
X178258229Y-87076000D01*
X178315371Y-87133143D01*
X178343943Y-87190286D01*
X178372514Y-87304571D01*
X178372514Y-87390286D01*
X178343943Y-87504571D01*
X178315371Y-87561714D01*
X178258229Y-87618857D01*
X178172514Y-87647429D01*
X178029657Y-87647429D01*
D10*
X188442761Y-110824190D02*
X188252285Y-110824190D01*
X188252285Y-110324190D01*
X188576095Y-110324190D02*
X188576095Y-110728952D01*
X188595143Y-110776571D01*
X188614190Y-110800381D01*
X188652286Y-110824190D01*
X188728476Y-110824190D01*
X188766571Y-110800381D01*
X188785619Y-110776571D01*
X188804667Y-110728952D01*
X188804667Y-110324190D01*
X188976095Y-110681333D02*
X189166572Y-110681333D01*
X188938000Y-110824190D02*
X189071334Y-110324190D01*
X189204667Y-110824190D01*
X189338000Y-110800381D02*
X189338000Y-110824190D01*
X189357048Y-110752762D02*
X189357048Y-110824190D01*
X189376095Y-110705143D02*
X189376095Y-110824190D01*
X189395143Y-110657524D02*
X189395143Y-110824190D01*
X189414191Y-110633714D02*
X189414191Y-110824190D01*
X189433238Y-110586095D02*
X189433238Y-110824190D01*
X189452286Y-110538476D02*
X189452286Y-110824190D01*
X189471333Y-110490857D02*
X189471333Y-110824190D01*
X189490381Y-110443238D02*
X189490381Y-110824190D01*
X189509429Y-110490857D02*
X189509429Y-110824190D01*
X189528476Y-110538476D02*
X189528476Y-110824190D01*
X189547524Y-110586095D02*
X189547524Y-110824190D01*
X189566572Y-110633714D02*
X189566572Y-110824190D01*
X189585619Y-110657524D02*
X189585619Y-110824190D01*
X189604667Y-110705143D02*
X189604667Y-110824190D01*
X189623714Y-110752762D02*
X189623714Y-110824190D01*
X189642762Y-110824190D02*
X189490381Y-110467048D01*
X189338000Y-110824190D01*
X189642762Y-110800381D02*
X189642762Y-110824190D01*
X189490381Y-110443238D02*
X189661810Y-110824190D01*
X189318952Y-110824190D01*
X189490381Y-110443238D01*
X186937998Y-111100381D02*
X186595141Y-111743238D01*
X187071332Y-111624190D02*
X187071332Y-111124190D01*
X187299904Y-111624190D01*
X187299904Y-111124190D01*
X187547523Y-111624190D02*
X187509428Y-111600381D01*
X187490380Y-111576571D01*
X187471332Y-111528952D01*
X187471332Y-111386095D01*
X187490380Y-111338476D01*
X187509428Y-111314667D01*
X187547523Y-111290857D01*
X187604666Y-111290857D01*
X187642761Y-111314667D01*
X187661809Y-111338476D01*
X187680856Y-111386095D01*
X187680856Y-111528952D01*
X187661809Y-111576571D01*
X187642761Y-111600381D01*
X187604666Y-111624190D01*
X187547523Y-111624190D01*
X188023714Y-111624190D02*
X188023714Y-111124190D01*
X188023714Y-111600381D02*
X187985618Y-111624190D01*
X187909428Y-111624190D01*
X187871333Y-111600381D01*
X187852285Y-111576571D01*
X187833237Y-111528952D01*
X187833237Y-111386095D01*
X187852285Y-111338476D01*
X187871333Y-111314667D01*
X187909428Y-111290857D01*
X187985618Y-111290857D01*
X188023714Y-111314667D01*
X188366571Y-111600381D02*
X188328476Y-111624190D01*
X188252285Y-111624190D01*
X188214190Y-111600381D01*
X188195142Y-111552762D01*
X188195142Y-111362286D01*
X188214190Y-111314667D01*
X188252285Y-111290857D01*
X188328476Y-111290857D01*
X188366571Y-111314667D01*
X188385619Y-111362286D01*
X188385619Y-111409905D01*
X188195142Y-111457524D01*
X188557047Y-111624190D02*
X188557047Y-111124190D01*
X188690380Y-111481333D01*
X188823714Y-111124190D01*
X188823714Y-111624190D01*
X189242762Y-111576571D02*
X189223714Y-111600381D01*
X189166571Y-111624190D01*
X189128476Y-111624190D01*
X189071333Y-111600381D01*
X189033238Y-111552762D01*
X189014190Y-111505143D01*
X188995142Y-111409905D01*
X188995142Y-111338476D01*
X189014190Y-111243238D01*
X189033238Y-111195619D01*
X189071333Y-111148000D01*
X189128476Y-111124190D01*
X189166571Y-111124190D01*
X189223714Y-111148000D01*
X189242762Y-111171810D01*
X189414190Y-111124190D02*
X189414190Y-111528952D01*
X189433238Y-111576571D01*
X189452285Y-111600381D01*
X189490381Y-111624190D01*
X189566571Y-111624190D01*
X189604666Y-111600381D01*
X189623714Y-111576571D01*
X189642762Y-111528952D01*
X189642762Y-111124190D01*
X185788428Y-89102000D02*
X185274143Y-89102000D01*
X185531285Y-89102000D02*
X185531285Y-88262000D01*
X185445571Y-88382000D01*
X185359857Y-88462000D01*
X185274143Y-88502000D01*
X186559857Y-88262000D02*
X186388428Y-88262000D01*
X186302714Y-88302000D01*
X186259857Y-88342000D01*
X186174143Y-88462000D01*
X186131286Y-88622000D01*
X186131286Y-88942000D01*
X186174143Y-89022000D01*
X186217000Y-89062000D01*
X186302714Y-89102000D01*
X186474143Y-89102000D01*
X186559857Y-89062000D01*
X186602714Y-89022000D01*
X186645571Y-88942000D01*
X186645571Y-88742000D01*
X186602714Y-88662000D01*
X186559857Y-88622000D01*
X186474143Y-88582000D01*
X186302714Y-88582000D01*
X186217000Y-88622000D01*
X186174143Y-88662000D01*
X186131286Y-88742000D01*
X186602714Y-90814000D02*
X186174143Y-90814000D01*
X186131286Y-91214000D01*
X186174143Y-91174000D01*
X186259857Y-91134000D01*
X186474143Y-91134000D01*
X186559857Y-91174000D01*
X186602714Y-91214000D01*
X186645571Y-91294000D01*
X186645571Y-91494000D01*
X186602714Y-91574000D01*
X186559857Y-91614000D01*
X186474143Y-91654000D01*
X186259857Y-91654000D01*
X186174143Y-91614000D01*
X186131286Y-91574000D01*
X186559857Y-93646000D02*
X186559857Y-94206000D01*
X186345571Y-93326000D02*
X186131286Y-93926000D01*
X186688428Y-93926000D01*
X186345571Y-95918000D02*
X186431286Y-95918000D01*
X186517000Y-95958000D01*
X186559857Y-95998000D01*
X186602714Y-96078000D01*
X186645571Y-96238000D01*
X186645571Y-96438000D01*
X186602714Y-96598000D01*
X186559857Y-96678000D01*
X186517000Y-96718000D01*
X186431286Y-96758000D01*
X186345571Y-96758000D01*
X186259857Y-96718000D01*
X186217000Y-96678000D01*
X186174143Y-96598000D01*
X186131286Y-96438000D01*
X186131286Y-96238000D01*
X186174143Y-96078000D01*
X186217000Y-95998000D01*
X186259857Y-95958000D01*
X186345571Y-95918000D01*
X186131286Y-98550000D02*
X186174143Y-98510000D01*
X186259857Y-98470000D01*
X186474143Y-98470000D01*
X186559857Y-98510000D01*
X186602714Y-98550000D01*
X186645571Y-98630000D01*
X186645571Y-98710000D01*
X186602714Y-98830000D01*
X186088428Y-99310000D01*
X186645571Y-99310000D01*
X185788428Y-101862000D02*
X185274143Y-101862000D01*
X185531285Y-101862000D02*
X185531285Y-101022000D01*
X185445571Y-101142000D01*
X185359857Y-101222000D01*
X185274143Y-101262000D01*
X186559857Y-101302000D02*
X186559857Y-101862000D01*
X186345571Y-100982000D02*
X186131286Y-101582000D01*
X186688428Y-101582000D01*
X185788428Y-104414000D02*
X185274143Y-104414000D01*
X185531285Y-104414000D02*
X185531285Y-103574000D01*
X185445571Y-103694000D01*
X185359857Y-103774000D01*
X185274143Y-103814000D01*
X186131286Y-103654000D02*
X186174143Y-103614000D01*
X186259857Y-103574000D01*
X186474143Y-103574000D01*
X186559857Y-103614000D01*
X186602714Y-103654000D01*
X186645571Y-103734000D01*
X186645571Y-103814000D01*
X186602714Y-103934000D01*
X186088428Y-104414000D01*
X186645571Y-104414000D01*
X185788428Y-106966000D02*
X185274143Y-106966000D01*
X185531285Y-106966000D02*
X185531285Y-106126000D01*
X185445571Y-106246000D01*
X185359857Y-106326000D01*
X185274143Y-106366000D01*
X186088428Y-106126000D02*
X186645571Y-106126000D01*
X186345571Y-106446000D01*
X186474143Y-106446000D01*
X186559857Y-106486000D01*
X186602714Y-106526000D01*
X186645571Y-106606000D01*
X186645571Y-106806000D01*
X186602714Y-106886000D01*
X186559857Y-106926000D01*
X186474143Y-106966000D01*
X186217000Y-106966000D01*
X186131286Y-106926000D01*
X186088428Y-106886000D01*
X185788428Y-109518000D02*
X185274143Y-109518000D01*
X185531285Y-109518000D02*
X185531285Y-108678000D01*
X185445571Y-108798000D01*
X185359857Y-108878000D01*
X185274143Y-108918000D01*
X186602714Y-108678000D02*
X186174143Y-108678000D01*
X186131286Y-109078000D01*
X186174143Y-109038000D01*
X186259857Y-108998000D01*
X186474143Y-108998000D01*
X186559857Y-109038000D01*
X186602714Y-109078000D01*
X186645571Y-109158000D01*
X186645571Y-109358000D01*
X186602714Y-109438000D01*
X186559857Y-109478000D01*
X186474143Y-109518000D01*
X186259857Y-109518000D01*
X186174143Y-109478000D01*
X186131286Y-109438000D01*
D14*
X158574000Y-108331000D02*
G75*
G03X158574000Y-108331000I-268000J0D01*
G01*
D10*
X184430857Y-107044857D02*
X184459429Y-107044857D01*
X184373714Y-106997238D02*
X184459429Y-106997238D01*
X184316571Y-106949619D02*
X184459429Y-106949619D01*
X184259429Y-106902000D02*
X184459429Y-106902000D01*
X184230857Y-106854381D02*
X184459429Y-106854381D01*
X184173714Y-106806762D02*
X184459429Y-106806762D01*
X184116571Y-106759142D02*
X184459429Y-106759142D01*
X184059429Y-106711523D02*
X184459429Y-106711523D01*
X184002286Y-106663904D02*
X184459429Y-106663904D01*
X184059429Y-106616285D02*
X184459429Y-106616285D01*
X184116571Y-106568666D02*
X184459429Y-106568666D01*
X184173714Y-106521047D02*
X184459429Y-106521047D01*
X184230857Y-106473428D02*
X184459429Y-106473428D01*
X184259429Y-106425809D02*
X184459429Y-106425809D01*
X184316571Y-106378190D02*
X184459429Y-106378190D01*
X184373714Y-106330571D02*
X184459429Y-106330571D01*
X184459429Y-106282952D02*
X184030857Y-106663904D01*
X184459429Y-107044857D01*
X184430857Y-106282952D02*
X184459429Y-106282952D01*
X184002286Y-106663904D02*
X184459429Y-106235333D01*
X184459429Y-107092476D01*
X184002286Y-106663904D01*
X184430857Y-101997237D02*
X184459429Y-101997237D01*
X184373714Y-101949618D02*
X184459429Y-101949618D01*
X184316571Y-101901999D02*
X184459429Y-101901999D01*
X184259429Y-101854380D02*
X184459429Y-101854380D01*
X184230857Y-101806761D02*
X184459429Y-101806761D01*
X184173714Y-101759142D02*
X184459429Y-101759142D01*
X184116571Y-101711522D02*
X184459429Y-101711522D01*
X184059429Y-101663903D02*
X184459429Y-101663903D01*
X184002286Y-101616284D02*
X184459429Y-101616284D01*
X184059429Y-101568665D02*
X184459429Y-101568665D01*
X184116571Y-101521046D02*
X184459429Y-101521046D01*
X184173714Y-101473427D02*
X184459429Y-101473427D01*
X184230857Y-101425808D02*
X184459429Y-101425808D01*
X184259429Y-101378189D02*
X184459429Y-101378189D01*
X184316571Y-101330570D02*
X184459429Y-101330570D01*
X184373714Y-101282951D02*
X184459429Y-101282951D01*
X184459429Y-101235332D02*
X184030857Y-101616284D01*
X184459429Y-101997237D01*
X184430857Y-101235332D02*
X184459429Y-101235332D01*
X184002286Y-101616284D02*
X184459429Y-101187713D01*
X184459429Y-102044856D01*
X184002286Y-101616284D01*
X184799429Y-108806761D02*
X184799429Y-108235332D01*
X185399429Y-108521047D02*
X184799429Y-108521047D01*
X185399429Y-107901999D02*
X184799429Y-107901999D01*
X185399429Y-107425809D02*
X184799429Y-107425809D01*
X185228000Y-107092475D01*
X184799429Y-106759142D01*
X185399429Y-106759142D01*
X185085143Y-106282952D02*
X185085143Y-105949618D01*
X185399429Y-105806761D02*
X185399429Y-106282952D01*
X184799429Y-106282952D01*
X184799429Y-105806761D01*
X185399429Y-104806761D02*
X185113714Y-105140095D01*
X185399429Y-105378190D02*
X184799429Y-105378190D01*
X184799429Y-104997237D01*
X184828000Y-104901999D01*
X184856571Y-104854380D01*
X184913714Y-104806761D01*
X184999429Y-104806761D01*
X185056571Y-104854380D01*
X185085143Y-104901999D01*
X185113714Y-104997237D01*
X185113714Y-105378190D01*
X184799429Y-103711523D02*
X185399429Y-103473428D01*
X184970857Y-103282951D01*
X185399429Y-103092475D01*
X184799429Y-102854380D01*
X185399429Y-102473428D02*
X184799429Y-102473428D01*
X185085143Y-101663904D02*
X185085143Y-101997238D01*
X185399429Y-101997238D02*
X184799429Y-101997238D01*
X184799429Y-101521047D01*
X185399429Y-101140095D02*
X184799429Y-101140095D01*
D15*
X168688238Y-79952857D02*
X168759667Y-79990952D01*
X168783476Y-80029048D01*
X168807286Y-80105238D01*
X168807286Y-80219524D01*
X168783476Y-80295714D01*
X168759667Y-80333810D01*
X168712048Y-80371905D01*
X168521572Y-80371905D01*
X168521572Y-79571905D01*
X168688238Y-79571905D01*
X168735857Y-79610000D01*
X168759667Y-79648095D01*
X168783476Y-79724286D01*
X168783476Y-79800476D01*
X168759667Y-79876667D01*
X168735857Y-79914762D01*
X168688238Y-79952857D01*
X168521572Y-79952857D01*
X169307286Y-80371905D02*
X169140619Y-79990952D01*
X169021572Y-80371905D02*
X169021572Y-79571905D01*
X169212048Y-79571905D01*
X169259667Y-79610000D01*
X169283476Y-79648095D01*
X169307286Y-79724286D01*
X169307286Y-79838571D01*
X169283476Y-79914762D01*
X169259667Y-79952857D01*
X169212048Y-79990952D01*
X169021572Y-79990952D01*
X169521572Y-79952857D02*
X169688238Y-79952857D01*
X169759667Y-80371905D02*
X169521572Y-80371905D01*
X169521572Y-79571905D01*
X169759667Y-79571905D01*
X169950143Y-80143333D02*
X170188238Y-80143333D01*
X169902524Y-80371905D02*
X170069191Y-79571905D01*
X170235857Y-80371905D01*
X170402524Y-80371905D02*
X170402524Y-79571905D01*
X170521571Y-79571905D01*
X170593000Y-79610000D01*
X170640619Y-79686190D01*
X170664428Y-79762381D01*
X170688238Y-79914762D01*
X170688238Y-80029048D01*
X170664428Y-80181429D01*
X170640619Y-80257619D01*
X170593000Y-80333810D01*
X170521571Y-80371905D01*
X170402524Y-80371905D01*
X171069190Y-79952857D02*
X171140619Y-79990952D01*
X171164428Y-80029048D01*
X171188238Y-80105238D01*
X171188238Y-80219524D01*
X171164428Y-80295714D01*
X171140619Y-80333810D01*
X171093000Y-80371905D01*
X170902524Y-80371905D01*
X170902524Y-79571905D01*
X171069190Y-79571905D01*
X171116809Y-79610000D01*
X171140619Y-79648095D01*
X171164428Y-79724286D01*
X171164428Y-79800476D01*
X171140619Y-79876667D01*
X171116809Y-79914762D01*
X171069190Y-79952857D01*
X170902524Y-79952857D01*
X171497762Y-79571905D02*
X171593000Y-79571905D01*
X171640619Y-79610000D01*
X171688238Y-79686190D01*
X171712047Y-79838571D01*
X171712047Y-80105238D01*
X171688238Y-80257619D01*
X171640619Y-80333810D01*
X171593000Y-80371905D01*
X171497762Y-80371905D01*
X171450143Y-80333810D01*
X171402524Y-80257619D01*
X171378714Y-80105238D01*
X171378714Y-79838571D01*
X171402524Y-79686190D01*
X171450143Y-79610000D01*
X171497762Y-79571905D01*
X171902524Y-80143333D02*
X172140619Y-80143333D01*
X171854905Y-80371905D02*
X172021572Y-79571905D01*
X172188238Y-80371905D01*
X172640619Y-80371905D02*
X172473952Y-79990952D01*
X172354905Y-80371905D02*
X172354905Y-79571905D01*
X172545381Y-79571905D01*
X172593000Y-79610000D01*
X172616809Y-79648095D01*
X172640619Y-79724286D01*
X172640619Y-79838571D01*
X172616809Y-79914762D01*
X172593000Y-79952857D01*
X172545381Y-79990952D01*
X172354905Y-79990952D01*
X172854905Y-80371905D02*
X172854905Y-79571905D01*
X172973952Y-79571905D01*
X173045381Y-79610000D01*
X173093000Y-79686190D01*
X173116809Y-79762381D01*
X173140619Y-79914762D01*
X173140619Y-80029048D01*
X173116809Y-80181429D01*
X173093000Y-80257619D01*
X173045381Y-80333810D01*
X172973952Y-80371905D01*
X172854905Y-80371905D01*
X173735857Y-80371905D02*
X173735857Y-79571905D01*
X173926333Y-79571905D01*
X173973952Y-79610000D01*
X173997761Y-79648095D01*
X174021571Y-79724286D01*
X174021571Y-79838571D01*
X173997761Y-79914762D01*
X173973952Y-79952857D01*
X173926333Y-79990952D01*
X173735857Y-79990952D01*
X174331095Y-79571905D02*
X174426333Y-79571905D01*
X174473952Y-79610000D01*
X174521571Y-79686190D01*
X174545380Y-79838571D01*
X174545380Y-80105238D01*
X174521571Y-80257619D01*
X174473952Y-80333810D01*
X174426333Y-80371905D01*
X174331095Y-80371905D01*
X174283476Y-80333810D01*
X174235857Y-80257619D01*
X174212047Y-80105238D01*
X174212047Y-79838571D01*
X174235857Y-79686190D01*
X174283476Y-79610000D01*
X174331095Y-79571905D01*
X174712048Y-79571905D02*
X174831095Y-80371905D01*
X174926333Y-79800476D01*
X175021571Y-80371905D01*
X175140619Y-79571905D01*
X175331096Y-79952857D02*
X175497762Y-79952857D01*
X175569191Y-80371905D02*
X175331096Y-80371905D01*
X175331096Y-79571905D01*
X175569191Y-79571905D01*
X176069191Y-80371905D02*
X175902524Y-79990952D01*
X175783477Y-80371905D02*
X175783477Y-79571905D01*
X175973953Y-79571905D01*
X176021572Y-79610000D01*
X176045381Y-79648095D01*
X176069191Y-79724286D01*
X176069191Y-79838571D01*
X176045381Y-79914762D01*
X176021572Y-79952857D01*
X175973953Y-79990952D01*
X175783477Y-79990952D01*
X176307286Y-79762381D02*
X176307286Y-80371905D01*
X176331096Y-79800476D02*
X176331096Y-80333810D01*
X176354905Y-79800476D02*
X176354905Y-80333810D01*
X176378715Y-79838571D02*
X176378715Y-80295714D01*
X176402524Y-79838571D02*
X176402524Y-80295714D01*
X176426334Y-79876667D02*
X176426334Y-80257619D01*
X176450143Y-79876667D02*
X176450143Y-80257619D01*
X176473953Y-79914762D02*
X176473953Y-80219524D01*
X176497762Y-79952857D02*
X176497762Y-80181429D01*
X176521572Y-79952857D02*
X176521572Y-80181429D01*
X176545381Y-79990952D02*
X176545381Y-80143333D01*
X176569191Y-79990952D02*
X176569191Y-80143333D01*
X176593000Y-80067143D02*
X176616810Y-80067143D01*
X176593000Y-80029048D02*
X176593000Y-80105238D01*
X176283477Y-79762381D02*
X176640619Y-80067143D01*
X176283477Y-80371905D01*
X176664429Y-80067143D02*
X176283477Y-80410000D01*
X176283477Y-79724286D01*
X176664429Y-80067143D01*
D12*
X174257143Y-84181905D02*
X174257143Y-83381905D01*
X174638095Y-84181905D02*
X174638095Y-83381905D01*
X175095238Y-84181905D01*
X175095238Y-83381905D01*
X176009524Y-83381905D02*
X176504762Y-83381905D01*
X176238095Y-83686667D01*
X176352381Y-83686667D01*
X176428571Y-83724762D01*
X176466667Y-83762857D01*
X176504762Y-83839048D01*
X176504762Y-84029524D01*
X176466667Y-84105714D01*
X176428571Y-84143810D01*
X176352381Y-84181905D01*
X176123809Y-84181905D01*
X176047619Y-84143810D01*
X176009524Y-84105714D01*
X176847619Y-84105714D02*
X176885714Y-84143810D01*
X176847619Y-84181905D01*
X176809524Y-84143810D01*
X176847619Y-84105714D01*
X176847619Y-84181905D01*
X177152381Y-83381905D02*
X177647619Y-83381905D01*
X177380952Y-83686667D01*
X177495238Y-83686667D01*
X177571428Y-83724762D01*
X177609524Y-83762857D01*
X177647619Y-83839048D01*
X177647619Y-84029524D01*
X177609524Y-84105714D01*
X177571428Y-84143810D01*
X177495238Y-84181905D01*
X177266666Y-84181905D01*
X177190476Y-84143810D01*
X177152381Y-84105714D01*
X177876190Y-83381905D02*
X178142857Y-84181905D01*
X178409524Y-83381905D01*
X179704762Y-83420000D02*
X179628571Y-83381905D01*
X179514286Y-83381905D01*
X179400000Y-83420000D01*
X179323809Y-83496190D01*
X179285714Y-83572381D01*
X179247619Y-83724762D01*
X179247619Y-83839048D01*
X179285714Y-83991429D01*
X179323809Y-84067619D01*
X179400000Y-84143810D01*
X179514286Y-84181905D01*
X179590476Y-84181905D01*
X179704762Y-84143810D01*
X179742857Y-84105714D01*
X179742857Y-83839048D01*
X179590476Y-83839048D01*
X180085714Y-84181905D02*
X180085714Y-83381905D01*
X180542857Y-84181905D01*
X180542857Y-83381905D01*
X180923809Y-84181905D02*
X180923809Y-83381905D01*
X181114285Y-83381905D01*
X181228571Y-83420000D01*
X181304762Y-83496190D01*
X181342857Y-83572381D01*
X181380952Y-83724762D01*
X181380952Y-83839048D01*
X181342857Y-83991429D01*
X181304762Y-84067619D01*
X181228571Y-84143810D01*
X181114285Y-84181905D01*
X180923809Y-84181905D01*
X181279523Y-81680000D02*
X181355714Y-81718095D01*
X181469999Y-81718095D01*
X181584285Y-81680000D01*
X181660476Y-81603810D01*
X181698571Y-81527619D01*
X181736666Y-81375238D01*
X181736666Y-81260952D01*
X181698571Y-81108571D01*
X181660476Y-81032381D01*
X181584285Y-80956190D01*
X181469999Y-80918095D01*
X181393809Y-80918095D01*
X181279523Y-80956190D01*
X181241428Y-80994286D01*
X181241428Y-81260952D01*
X181393809Y-81260952D01*
X180898571Y-80918095D02*
X180898571Y-81718095D01*
X180441428Y-80918095D01*
X180441428Y-81718095D01*
X180060476Y-80918095D02*
X180060476Y-81718095D01*
X179870000Y-81718095D01*
X179755714Y-81680000D01*
X179679523Y-81603810D01*
X179641428Y-81527619D01*
X179603333Y-81375238D01*
X179603333Y-81260952D01*
X179641428Y-81108571D01*
X179679523Y-81032381D01*
X179755714Y-80956190D01*
X179870000Y-80918095D01*
X180060476Y-80918095D01*
X178727142Y-81718095D02*
X178231904Y-81718095D01*
X178498571Y-81413333D01*
X178384285Y-81413333D01*
X178308095Y-81375238D01*
X178269999Y-81337143D01*
X178231904Y-81260952D01*
X178231904Y-81070476D01*
X178269999Y-80994286D01*
X178308095Y-80956190D01*
X178384285Y-80918095D01*
X178612857Y-80918095D01*
X178689047Y-80956190D01*
X178727142Y-80994286D01*
X177889047Y-80994286D02*
X177850952Y-80956190D01*
X177889047Y-80918095D01*
X177927142Y-80956190D01*
X177889047Y-80994286D01*
X177889047Y-80918095D01*
X177584285Y-81718095D02*
X177089047Y-81718095D01*
X177355714Y-81413333D01*
X177241428Y-81413333D01*
X177165238Y-81375238D01*
X177127142Y-81337143D01*
X177089047Y-81260952D01*
X177089047Y-81070476D01*
X177127142Y-80994286D01*
X177165238Y-80956190D01*
X177241428Y-80918095D01*
X177470000Y-80918095D01*
X177546190Y-80956190D01*
X177584285Y-80994286D01*
X176860476Y-81718095D02*
X176593809Y-80918095D01*
X176327142Y-81718095D01*
X137204762Y-126180810D02*
X137319048Y-126218905D01*
X137509524Y-126218905D01*
X137585714Y-126180810D01*
X137623810Y-126142714D01*
X137661905Y-126066524D01*
X137661905Y-125990333D01*
X137623810Y-125914143D01*
X137585714Y-125876048D01*
X137509524Y-125837952D01*
X137357143Y-125799857D01*
X137280952Y-125761762D01*
X137242857Y-125723667D01*
X137204762Y-125647476D01*
X137204762Y-125571286D01*
X137242857Y-125495095D01*
X137280952Y-125457000D01*
X137357143Y-125418905D01*
X137547619Y-125418905D01*
X137661905Y-125457000D01*
X138004762Y-126218905D02*
X138004762Y-125418905D01*
X138309524Y-125418905D01*
X138385715Y-125457000D01*
X138423810Y-125495095D01*
X138461905Y-125571286D01*
X138461905Y-125685571D01*
X138423810Y-125761762D01*
X138385715Y-125799857D01*
X138309524Y-125837952D01*
X138004762Y-125837952D01*
X138804762Y-125799857D02*
X139071429Y-125799857D01*
X139185715Y-126218905D02*
X138804762Y-126218905D01*
X138804762Y-125418905D01*
X139185715Y-125418905D01*
X139490477Y-125990333D02*
X139871429Y-125990333D01*
X139414286Y-126218905D02*
X139680953Y-125418905D01*
X139947620Y-126218905D01*
X140214286Y-126218905D02*
X140214286Y-125418905D01*
X140671429Y-126218905D02*
X140328572Y-125761762D01*
X140671429Y-125418905D02*
X140214286Y-125876048D01*
X141014286Y-125799857D02*
X141280953Y-125799857D01*
X141395239Y-126218905D02*
X141014286Y-126218905D01*
X141014286Y-125418905D01*
X141395239Y-125418905D01*
X142195239Y-126218905D02*
X141928572Y-125837952D01*
X141738096Y-126218905D02*
X141738096Y-125418905D01*
X142042858Y-125418905D01*
X142119049Y-125457000D01*
X142157144Y-125495095D01*
X142195239Y-125571286D01*
X142195239Y-125685571D01*
X142157144Y-125761762D01*
X142119049Y-125799857D01*
X142042858Y-125837952D01*
X141738096Y-125837952D01*
X180300381Y-115268190D02*
X180300381Y-114649142D01*
X180681333Y-114982476D01*
X180681333Y-114839618D01*
X180728952Y-114744380D01*
X180776571Y-114696761D01*
X180871810Y-114649142D01*
X181109905Y-114649142D01*
X181205143Y-114696761D01*
X181252762Y-114744380D01*
X181300381Y-114839618D01*
X181300381Y-115125333D01*
X181252762Y-115220571D01*
X181205143Y-115268190D01*
X181205143Y-114220571D02*
X181252762Y-114172952D01*
X181300381Y-114220571D01*
X181252762Y-114268190D01*
X181205143Y-114220571D01*
X181300381Y-114220571D01*
X180300381Y-113839619D02*
X180300381Y-113220571D01*
X180681333Y-113553905D01*
X180681333Y-113411047D01*
X180728952Y-113315809D01*
X180776571Y-113268190D01*
X180871810Y-113220571D01*
X181109905Y-113220571D01*
X181205143Y-113268190D01*
X181252762Y-113315809D01*
X181300381Y-113411047D01*
X181300381Y-113696762D01*
X181252762Y-113792000D01*
X181205143Y-113839619D01*
X180300381Y-112934857D02*
X181300381Y-112601524D01*
X180300381Y-112268190D01*
D16*
X180341000Y-88900000D02*
X182881000Y-88900000D01*
X180341000Y-91440000D02*
X182881000Y-91440000D01*
X170181000Y-106680000D02*
X172721000Y-106680000D01*
X170181000Y-109220000D02*
X172721000Y-109220000D01*
D14*
X152668000Y-116459000D02*
G75*
G03X152668000Y-116459000I-268000J0D01*
G01*
X134634000Y-104013000D02*
G75*
G03X134634000Y-104013000I-268000J0D01*
G01*
D12*
X157899904Y-115004905D02*
X158357047Y-115004905D01*
X158128476Y-115804905D02*
X158128476Y-115004905D01*
X159004667Y-115804905D02*
X158623714Y-115804905D01*
X158623714Y-115004905D01*
X159271333Y-115804905D02*
X159271333Y-115004905D01*
X159576095Y-115004905D01*
X159652286Y-115043000D01*
X159690381Y-115081095D01*
X159728476Y-115157286D01*
X159728476Y-115271571D01*
X159690381Y-115347762D01*
X159652286Y-115385857D01*
X159576095Y-115423952D01*
X159271333Y-115423952D01*
X160033238Y-115081095D02*
X160071333Y-115043000D01*
X160147524Y-115004905D01*
X160338000Y-115004905D01*
X160414190Y-115043000D01*
X160452286Y-115081095D01*
X160490381Y-115157286D01*
X160490381Y-115233476D01*
X160452286Y-115347762D01*
X159995143Y-115804905D01*
X160490381Y-115804905D01*
X160795143Y-115081095D02*
X160833238Y-115043000D01*
X160909429Y-115004905D01*
X161099905Y-115004905D01*
X161176095Y-115043000D01*
X161214191Y-115081095D01*
X161252286Y-115157286D01*
X161252286Y-115233476D01*
X161214191Y-115347762D01*
X160757048Y-115804905D01*
X161252286Y-115804905D01*
X161557048Y-115081095D02*
X161595143Y-115043000D01*
X161671334Y-115004905D01*
X161861810Y-115004905D01*
X161938000Y-115043000D01*
X161976096Y-115081095D01*
X162014191Y-115157286D01*
X162014191Y-115233476D01*
X161976096Y-115347762D01*
X161518953Y-115804905D01*
X162014191Y-115804905D01*
X162318953Y-115576333D02*
X162699905Y-115576333D01*
X162242762Y-115804905D02*
X162509429Y-115004905D01*
X162776096Y-115804905D01*
D13*
X151504705Y-103973057D02*
X151504705Y-103858771D01*
X151542800Y-103801629D01*
X151618990Y-103744486D01*
X151771371Y-103715914D01*
X152038038Y-103715914D01*
X152190419Y-103744486D01*
X152266610Y-103801629D01*
X152304705Y-103858771D01*
X152304705Y-103973057D01*
X152266610Y-104030200D01*
X152190419Y-104087343D01*
X152038038Y-104115914D01*
X151771371Y-104115914D01*
X151618990Y-104087343D01*
X151542800Y-104030200D01*
X151504705Y-103973057D01*
X152304705Y-103458772D02*
X151504705Y-103458772D01*
X151504705Y-103230200D01*
X151542800Y-103173058D01*
X151580895Y-103144486D01*
X151657086Y-103115915D01*
X151771371Y-103115915D01*
X151847562Y-103144486D01*
X151885657Y-103173058D01*
X151923752Y-103230200D01*
X151923752Y-103458772D01*
X152076133Y-102887343D02*
X152076133Y-102601629D01*
X152304705Y-102944486D02*
X151504705Y-102744486D01*
X152304705Y-102544486D01*
X152304705Y-102344486D02*
X151504705Y-102344486D01*
X152076133Y-102144486D01*
X151504705Y-101944486D01*
X152304705Y-101944486D01*
X152304705Y-101658772D02*
X151504705Y-101658772D01*
X151504705Y-101430200D01*
X151542800Y-101373058D01*
X151580895Y-101344486D01*
X151657086Y-101315915D01*
X151771371Y-101315915D01*
X151847562Y-101344486D01*
X151885657Y-101373058D01*
X151923752Y-101430200D01*
X151923752Y-101658772D01*
X152380895Y-101201629D02*
X152380895Y-100744486D01*
X151885657Y-100601629D02*
X151885657Y-100401629D01*
X152304705Y-100315915D02*
X152304705Y-100601629D01*
X151504705Y-100601629D01*
X151504705Y-100315915D01*
X151504705Y-100115915D02*
X152304705Y-99715915D01*
X151504705Y-99715915D02*
X152304705Y-100115915D01*
D12*
X178053904Y-126179200D02*
X178149142Y-126226819D01*
X178291999Y-126226819D01*
X178434857Y-126179200D01*
X178530095Y-126083962D01*
X178577714Y-125988724D01*
X178625333Y-125798248D01*
X178625333Y-125655390D01*
X178577714Y-125464914D01*
X178530095Y-125369676D01*
X178434857Y-125274438D01*
X178291999Y-125226819D01*
X178196761Y-125226819D01*
X178053904Y-125274438D01*
X178006285Y-125322057D01*
X178006285Y-125655390D01*
X178196761Y-125655390D01*
X177577714Y-125226819D02*
X177577714Y-126226819D01*
X177006285Y-125226819D01*
X177006285Y-126226819D01*
X176530095Y-125226819D02*
X176530095Y-126226819D01*
X176292000Y-126226819D01*
X176149142Y-126179200D01*
X176053904Y-126083962D01*
X176006285Y-125988724D01*
X175958666Y-125798248D01*
X175958666Y-125655390D01*
X176006285Y-125464914D01*
X176053904Y-125369676D01*
X176149142Y-125274438D01*
X176292000Y-125226819D01*
X176530095Y-125226819D01*
X188771162Y-117722305D02*
X188818781Y-117579448D01*
X188818781Y-117341352D01*
X188771162Y-117246114D01*
X188723543Y-117198495D01*
X188628305Y-117150876D01*
X188533067Y-117150876D01*
X188437829Y-117198495D01*
X188390210Y-117246114D01*
X188342590Y-117341352D01*
X188294971Y-117531829D01*
X188247352Y-117627067D01*
X188199733Y-117674686D01*
X188104495Y-117722305D01*
X188009257Y-117722305D01*
X187914019Y-117674686D01*
X187866400Y-117627067D01*
X187818781Y-117531829D01*
X187818781Y-117293733D01*
X187866400Y-117150876D01*
X188294971Y-116722305D02*
X188294971Y-116388971D01*
X188818781Y-116246114D02*
X188818781Y-116722305D01*
X187818781Y-116722305D01*
X187818781Y-116246114D01*
X188818781Y-115817543D02*
X187818781Y-115817543D01*
X188818781Y-115246114D01*
X187818781Y-115246114D01*
X188771162Y-114817543D02*
X188818781Y-114674686D01*
X188818781Y-114436590D01*
X188771162Y-114341352D01*
X188723543Y-114293733D01*
X188628305Y-114246114D01*
X188533067Y-114246114D01*
X188437829Y-114293733D01*
X188390210Y-114341352D01*
X188342590Y-114436590D01*
X188294971Y-114627067D01*
X188247352Y-114722305D01*
X188199733Y-114769924D01*
X188104495Y-114817543D01*
X188009257Y-114817543D01*
X187914019Y-114769924D01*
X187866400Y-114722305D01*
X187818781Y-114627067D01*
X187818781Y-114388971D01*
X187866400Y-114246114D01*
X187818781Y-113627067D02*
X187818781Y-113436590D01*
X187866400Y-113341352D01*
X187961638Y-113246114D01*
X188152114Y-113198495D01*
X188485448Y-113198495D01*
X188675924Y-113246114D01*
X188771162Y-113341352D01*
X188818781Y-113436590D01*
X188818781Y-113627067D01*
X188771162Y-113722305D01*
X188675924Y-113817543D01*
X188485448Y-113865162D01*
X188152114Y-113865162D01*
X187961638Y-113817543D01*
X187866400Y-113722305D01*
X187818781Y-113627067D01*
X188818781Y-112198495D02*
X188342590Y-112531829D01*
X188818781Y-112769924D02*
X187818781Y-112769924D01*
X187818781Y-112388971D01*
X187866400Y-112293733D01*
X187914019Y-112246114D01*
X188009257Y-112198495D01*
X188152114Y-112198495D01*
X188247352Y-112246114D01*
X188294971Y-112293733D01*
X188342590Y-112388971D01*
X188342590Y-112769924D01*
D17*
X164345881Y-103781976D02*
X163345881Y-103781976D01*
X164060167Y-103448642D01*
X163345881Y-103115309D01*
X164345881Y-103115309D01*
X164345881Y-102639119D02*
X163679214Y-102639119D01*
X163345881Y-102639119D02*
X163393500Y-102686738D01*
X163441119Y-102639119D01*
X163393500Y-102591500D01*
X163345881Y-102639119D01*
X163441119Y-102639119D01*
X163679214Y-102162929D02*
X164345881Y-102162929D01*
X163774452Y-102162929D02*
X163726833Y-102115310D01*
X163679214Y-102020072D01*
X163679214Y-101877214D01*
X163726833Y-101781976D01*
X163822071Y-101734357D01*
X164345881Y-101734357D01*
X164345881Y-101258167D02*
X163679214Y-101258167D01*
X163345881Y-101258167D02*
X163393500Y-101305786D01*
X163441119Y-101258167D01*
X163393500Y-101210548D01*
X163345881Y-101258167D01*
X163441119Y-101258167D01*
X163345881Y-100877215D02*
X163345881Y-100258167D01*
X163726833Y-100591501D01*
X163726833Y-100448643D01*
X163774452Y-100353405D01*
X163822071Y-100305786D01*
X163917310Y-100258167D01*
X164155405Y-100258167D01*
X164250643Y-100305786D01*
X164298262Y-100353405D01*
X164345881Y-100448643D01*
X164345881Y-100734358D01*
X164298262Y-100829596D01*
X164250643Y-100877215D01*
X163345881Y-99401024D02*
X163345881Y-99591501D01*
X163393500Y-99686739D01*
X163441119Y-99734358D01*
X163583976Y-99829596D01*
X163774452Y-99877215D01*
X164155405Y-99877215D01*
X164250643Y-99829596D01*
X164298262Y-99781977D01*
X164345881Y-99686739D01*
X164345881Y-99496262D01*
X164298262Y-99401024D01*
X164250643Y-99353405D01*
X164155405Y-99305786D01*
X163917310Y-99305786D01*
X163822071Y-99353405D01*
X163774452Y-99401024D01*
X163726833Y-99496262D01*
X163726833Y-99686739D01*
X163774452Y-99781977D01*
X163822071Y-99829596D01*
X163917310Y-99877215D01*
X163345881Y-98686739D02*
X163345881Y-98591500D01*
X163393500Y-98496262D01*
X163441119Y-98448643D01*
X163536357Y-98401024D01*
X163726833Y-98353405D01*
X163964929Y-98353405D01*
X164155405Y-98401024D01*
X164250643Y-98448643D01*
X164298262Y-98496262D01*
X164345881Y-98591500D01*
X164345881Y-98686739D01*
X164298262Y-98781977D01*
X164250643Y-98829596D01*
X164155405Y-98877215D01*
X163964929Y-98924834D01*
X163726833Y-98924834D01*
X163536357Y-98877215D01*
X163441119Y-98829596D01*
X163393500Y-98781977D01*
X163345881Y-98686739D01*
D13*
X168727429Y-110632143D02*
X168727429Y-111360714D01*
X168756001Y-111446429D01*
X168784572Y-111489286D01*
X168841715Y-111532143D01*
X168956001Y-111532143D01*
X169013143Y-111489286D01*
X169041715Y-111446429D01*
X169070286Y-111360714D01*
X169070286Y-110632143D01*
X169356000Y-111532143D02*
X169356000Y-110632143D01*
X169698857Y-111532143D01*
X169698857Y-110632143D01*
X169984571Y-111532143D02*
X169984571Y-110632143D01*
X170184571Y-110632143D02*
X170384571Y-111532143D01*
X170584571Y-110632143D01*
X170784571Y-111060714D02*
X170984571Y-111060714D01*
X171070285Y-111532143D02*
X170784571Y-111532143D01*
X170784571Y-110632143D01*
X171070285Y-110632143D01*
X171670285Y-111532143D02*
X171470285Y-111103571D01*
X171327428Y-111532143D02*
X171327428Y-110632143D01*
X171556000Y-110632143D01*
X171613142Y-110675000D01*
X171641714Y-110717857D01*
X171670285Y-110803571D01*
X171670285Y-110932143D01*
X171641714Y-111017857D01*
X171613142Y-111060714D01*
X171556000Y-111103571D01*
X171327428Y-111103571D01*
X171898857Y-111489286D02*
X171984571Y-111532143D01*
X172127428Y-111532143D01*
X172184571Y-111489286D01*
X172213142Y-111446429D01*
X172241714Y-111360714D01*
X172241714Y-111275000D01*
X172213142Y-111189286D01*
X172184571Y-111146429D01*
X172127428Y-111103571D01*
X172013142Y-111060714D01*
X171956000Y-111017857D01*
X171927428Y-110975000D01*
X171898857Y-110889286D01*
X171898857Y-110803571D01*
X171927428Y-110717857D01*
X171956000Y-110675000D01*
X172013142Y-110632143D01*
X172156000Y-110632143D01*
X172241714Y-110675000D01*
X172470286Y-111275000D02*
X172756000Y-111275000D01*
X172413143Y-111532143D02*
X172613143Y-110632143D01*
X172813143Y-111532143D01*
X173298857Y-111532143D02*
X173013143Y-111532143D01*
X173013143Y-110632143D01*
D12*
X167913095Y-81331191D02*
X168713095Y-81331191D01*
X168713095Y-81635953D01*
X168675000Y-81712144D01*
X168636905Y-81750239D01*
X168560714Y-81788334D01*
X168446429Y-81788334D01*
X168370238Y-81750239D01*
X168332143Y-81712144D01*
X168294048Y-81635953D01*
X168294048Y-81331191D01*
X167913095Y-82588334D02*
X168294048Y-82321667D01*
X167913095Y-82131191D02*
X168713095Y-82131191D01*
X168713095Y-82435953D01*
X168675000Y-82512144D01*
X168636905Y-82550239D01*
X168560714Y-82588334D01*
X168446429Y-82588334D01*
X168370238Y-82550239D01*
X168332143Y-82512144D01*
X168294048Y-82435953D01*
X168294048Y-82131191D01*
X168713095Y-83083572D02*
X168713095Y-83235953D01*
X168675000Y-83312144D01*
X168598810Y-83388334D01*
X168446429Y-83426429D01*
X168179762Y-83426429D01*
X168027381Y-83388334D01*
X167951190Y-83312144D01*
X167913095Y-83235953D01*
X167913095Y-83083572D01*
X167951190Y-83007382D01*
X168027381Y-82931191D01*
X168179762Y-82893096D01*
X168446429Y-82893096D01*
X168598810Y-82931191D01*
X168675000Y-83007382D01*
X168713095Y-83083572D01*
X168675000Y-84188334D02*
X168713095Y-84112143D01*
X168713095Y-83997858D01*
X168675000Y-83883572D01*
X168598810Y-83807381D01*
X168522619Y-83769286D01*
X168370238Y-83731191D01*
X168255952Y-83731191D01*
X168103571Y-83769286D01*
X168027381Y-83807381D01*
X167951190Y-83883572D01*
X167913095Y-83997858D01*
X167913095Y-84074048D01*
X167951190Y-84188334D01*
X167989286Y-84226429D01*
X168255952Y-84226429D01*
X168255952Y-84074048D01*
X167913095Y-85026429D02*
X168294048Y-84759762D01*
X167913095Y-84569286D02*
X168713095Y-84569286D01*
X168713095Y-84874048D01*
X168675000Y-84950239D01*
X168636905Y-84988334D01*
X168560714Y-85026429D01*
X168446429Y-85026429D01*
X168370238Y-84988334D01*
X168332143Y-84950239D01*
X168294048Y-84874048D01*
X168294048Y-84569286D01*
X168141667Y-85331191D02*
X168141667Y-85712143D01*
X167913095Y-85255000D02*
X168713095Y-85521667D01*
X167913095Y-85788334D01*
X167913095Y-86055000D02*
X168713095Y-86055000D01*
X168141667Y-86321667D01*
X168713095Y-86588334D01*
X167913095Y-86588334D01*
X168484524Y-87578810D02*
X168522619Y-87578810D01*
X168408333Y-87540715D02*
X168522619Y-87540715D01*
X168332143Y-87502620D02*
X168522619Y-87502620D01*
X168255952Y-87464524D02*
X168522619Y-87464524D01*
X168217857Y-87426429D02*
X168522619Y-87426429D01*
X168141667Y-87388334D02*
X168522619Y-87388334D01*
X168065476Y-87350239D02*
X168522619Y-87350239D01*
X167989286Y-87312143D02*
X168522619Y-87312143D01*
X167913095Y-87274048D02*
X168522619Y-87274048D01*
X167989286Y-87235953D02*
X168522619Y-87235953D01*
X168065476Y-87197858D02*
X168522619Y-87197858D01*
X168141667Y-87159762D02*
X168522619Y-87159762D01*
X168217857Y-87121667D02*
X168522619Y-87121667D01*
X168255952Y-87083572D02*
X168522619Y-87083572D01*
X168332143Y-87045477D02*
X168522619Y-87045477D01*
X168408333Y-87007381D02*
X168522619Y-87007381D01*
X168522619Y-86969286D02*
X167951190Y-87274048D01*
X168522619Y-87578810D01*
X168484524Y-86969286D02*
X168522619Y-86969286D01*
X167913095Y-87274048D02*
X168522619Y-86931191D01*
X168522619Y-87616905D01*
X167913095Y-87274048D01*
D13*
X174578856Y-110796429D02*
X174950285Y-110796429D01*
X174750285Y-111025000D01*
X174835999Y-111025000D01*
X174893142Y-111053571D01*
X174921713Y-111082143D01*
X174950285Y-111139286D01*
X174950285Y-111282143D01*
X174921713Y-111339286D01*
X174893142Y-111367857D01*
X174835999Y-111396429D01*
X174664571Y-111396429D01*
X174607428Y-111367857D01*
X174578856Y-111339286D01*
X175121714Y-110796429D02*
X175321714Y-111396429D01*
X175521714Y-110796429D01*
X175664571Y-110796429D02*
X176036000Y-110796429D01*
X175836000Y-111025000D01*
X175921714Y-111025000D01*
X175978857Y-111053571D01*
X176007428Y-111082143D01*
X176036000Y-111139286D01*
X176036000Y-111282143D01*
X176007428Y-111339286D01*
X175978857Y-111367857D01*
X175921714Y-111396429D01*
X175750286Y-111396429D01*
X175693143Y-111367857D01*
X175664571Y-111339286D01*
X177064572Y-110825000D02*
X177007429Y-110796429D01*
X176921715Y-110796429D01*
X176836000Y-110825000D01*
X176778858Y-110882143D01*
X176750286Y-110939286D01*
X176721715Y-111053571D01*
X176721715Y-111139286D01*
X176750286Y-111253571D01*
X176778858Y-111310714D01*
X176836000Y-111367857D01*
X176921715Y-111396429D01*
X176978858Y-111396429D01*
X177064572Y-111367857D01*
X177093143Y-111339286D01*
X177093143Y-111139286D01*
X176978858Y-111139286D01*
X177350286Y-111396429D02*
X177350286Y-110796429D01*
X177693143Y-111396429D01*
X177693143Y-110796429D01*
X177978857Y-111396429D02*
X177978857Y-110796429D01*
X178121714Y-110796429D01*
X178207429Y-110825000D01*
X178264571Y-110882143D01*
X178293143Y-110939286D01*
X178321714Y-111053571D01*
X178321714Y-111139286D01*
X178293143Y-111253571D01*
X178264571Y-111310714D01*
X178207429Y-111367857D01*
X178121714Y-111396429D01*
X177978857Y-111396429D01*
D18*
X147764428Y-117328143D02*
X146621571Y-117328143D01*
X147193000Y-117899571D02*
X147193000Y-116756714D01*
D13*
X180638057Y-86201295D02*
X180638057Y-87001295D01*
X180447581Y-87001295D01*
X180333295Y-86963200D01*
X180257104Y-86887010D01*
X180219009Y-86810819D01*
X180180914Y-86658438D01*
X180180914Y-86544152D01*
X180219009Y-86391771D01*
X180257104Y-86315581D01*
X180333295Y-86239390D01*
X180447581Y-86201295D01*
X180638057Y-86201295D01*
X179495200Y-86734629D02*
X179495200Y-86201295D01*
X179685676Y-87039390D02*
X179876152Y-86467962D01*
X179380914Y-86467962D01*
X178085675Y-87001295D02*
X178466628Y-87001295D01*
X178504723Y-86620343D01*
X178466628Y-86658438D01*
X178390437Y-86696533D01*
X178199961Y-86696533D01*
X178123771Y-86658438D01*
X178085675Y-86620343D01*
X178047580Y-86544152D01*
X178047580Y-86353676D01*
X178085675Y-86277486D01*
X178123771Y-86239390D01*
X178199961Y-86201295D01*
X178390437Y-86201295D01*
X178466628Y-86239390D01*
X178504723Y-86277486D01*
X177819009Y-87001295D02*
X177552342Y-86201295D01*
X177285675Y-87001295D01*
X175990437Y-86963200D02*
X176066628Y-87001295D01*
X176180913Y-87001295D01*
X176295199Y-86963200D01*
X176371390Y-86887010D01*
X176409485Y-86810819D01*
X176447580Y-86658438D01*
X176447580Y-86544152D01*
X176409485Y-86391771D01*
X176371390Y-86315581D01*
X176295199Y-86239390D01*
X176180913Y-86201295D01*
X176104723Y-86201295D01*
X175990437Y-86239390D01*
X175952342Y-86277486D01*
X175952342Y-86544152D01*
X176104723Y-86544152D01*
X175609485Y-86201295D02*
X175609485Y-87001295D01*
X175152342Y-86201295D01*
X175152342Y-87001295D01*
X174771390Y-86201295D02*
X174771390Y-87001295D01*
X174580914Y-87001295D01*
X174466628Y-86963200D01*
X174390437Y-86887010D01*
X174352342Y-86810819D01*
X174314247Y-86658438D01*
X174314247Y-86544152D01*
X174352342Y-86391771D01*
X174390437Y-86315581D01*
X174466628Y-86239390D01*
X174580914Y-86201295D01*
X174771390Y-86201295D01*
D11*
X146936667Y-83080000D02*
X147636667Y-82865714D01*
X147136667Y-82694285D01*
X147636667Y-82522857D01*
X146936667Y-82308571D01*
X147636667Y-81451429D02*
X147303333Y-81751429D01*
X147636667Y-81965714D02*
X146936667Y-81965714D01*
X146936667Y-81622857D01*
X146970000Y-81537143D01*
X147003333Y-81494286D01*
X147070000Y-81451429D01*
X147170000Y-81451429D01*
X147236667Y-81494286D01*
X147270000Y-81537143D01*
X147303333Y-81622857D01*
X147303333Y-81965714D01*
X147636667Y-81065714D02*
X146936667Y-81065714D01*
X146936667Y-80765715D02*
X146936667Y-80251429D01*
X147636667Y-80508572D02*
X146936667Y-80508572D01*
X147270000Y-79951429D02*
X147270000Y-79651429D01*
X147636667Y-79522858D02*
X147636667Y-79951429D01*
X146936667Y-79951429D01*
X146936667Y-79522858D01*
X147636667Y-86389286D02*
X147303333Y-86689286D01*
X147636667Y-86903571D02*
X146936667Y-86903571D01*
X146936667Y-86560714D01*
X146970000Y-86475000D01*
X147003333Y-86432143D01*
X147070000Y-86389286D01*
X147170000Y-86389286D01*
X147236667Y-86432143D01*
X147270000Y-86475000D01*
X147303333Y-86560714D01*
X147303333Y-86903571D01*
X146936667Y-86003571D02*
X147503333Y-86003571D01*
X147570000Y-85960714D01*
X147603333Y-85917857D01*
X147636667Y-85832143D01*
X147636667Y-85660714D01*
X147603333Y-85575000D01*
X147570000Y-85532143D01*
X147503333Y-85489286D01*
X146936667Y-85489286D01*
X147636667Y-85060714D02*
X146936667Y-85060714D01*
X147636667Y-84546429D01*
X146936667Y-84546429D01*
D19*
X139953334Y-85341667D02*
X140120001Y-86041667D01*
X140253334Y-85541667D01*
X140386667Y-86041667D01*
X140553334Y-85341667D01*
X140820001Y-85341667D02*
X140820001Y-85908333D01*
X140853334Y-85975000D01*
X140886667Y-86008333D01*
X140953334Y-86041667D01*
X141086667Y-86041667D01*
X141153334Y-86008333D01*
X141186667Y-85975000D01*
X141220001Y-85908333D01*
X141220001Y-85341667D01*
X141553334Y-86041667D02*
X141553334Y-85341667D01*
X141820000Y-85341667D01*
X141886667Y-85375000D01*
X141920000Y-85408333D01*
X141953334Y-85475000D01*
X141953334Y-85575000D01*
X141920000Y-85641667D01*
X141886667Y-85675000D01*
X141820000Y-85708333D01*
X141553334Y-85708333D01*
D16*
X180341000Y-109220000D02*
X182881000Y-109220000D01*
X170181000Y-104140000D02*
X172721000Y-104140000D01*
X180341000Y-106680000D02*
X182881000Y-106680000D01*
X170181000Y-101600000D02*
X172721000Y-101600000D01*
X170181000Y-99060000D02*
X172721000Y-99060000D01*
X180341000Y-104140000D02*
X182881000Y-104140000D01*
X180341000Y-101600000D02*
X182881000Y-101600000D01*
X180341000Y-99060000D02*
X182881000Y-99060000D01*
X170181000Y-96520000D02*
X172721000Y-96520000D01*
X170181000Y-93980000D02*
X172721000Y-93980000D01*
X170181000Y-91440000D02*
X172721000Y-91440000D01*
X180341000Y-96520000D02*
X182881000Y-96520000D01*
X170181000Y-88900000D02*
X172721000Y-88900000D01*
X180341000Y-93980000D02*
X182881000Y-93980000D01*
X177647000Y-88773000D02*
X177647000Y-109110000D01*
X175261000Y-88773000D02*
X175261000Y-109110000D01*
D13*
X179757190Y-110587143D02*
X180023857Y-110587143D01*
X180138143Y-110901429D02*
X179757190Y-110901429D01*
X179757190Y-110301429D01*
X180138143Y-110301429D01*
X180404810Y-110301429D02*
X180938143Y-110901429D01*
X180938143Y-110301429D02*
X180404810Y-110901429D01*
X181128619Y-110301429D02*
X181585762Y-110301429D01*
X181357191Y-110901429D02*
X181357191Y-110301429D01*
X181852429Y-110901429D02*
X181852429Y-110301429D01*
X182385762Y-110301429D02*
X182538143Y-110301429D01*
X182614334Y-110330000D01*
X182690524Y-110387143D01*
X182728619Y-110501429D01*
X182728619Y-110701429D01*
X182690524Y-110815714D01*
X182614334Y-110872857D01*
X182538143Y-110901429D01*
X182385762Y-110901429D01*
X182309572Y-110872857D01*
X182233381Y-110815714D01*
X182195286Y-110701429D01*
X182195286Y-110501429D01*
X182233381Y-110387143D01*
X182309572Y-110330000D01*
X182385762Y-110301429D01*
X180138142Y-111891429D02*
X179680999Y-111891429D01*
X179909570Y-111891429D02*
X179909570Y-111291429D01*
X179833380Y-111377143D01*
X179757189Y-111434286D01*
X179680999Y-111462857D01*
X182271476Y-111348571D02*
X182309571Y-111320000D01*
X182385762Y-111291429D01*
X182576238Y-111291429D01*
X182652428Y-111320000D01*
X182690524Y-111348571D01*
X182728619Y-111405714D01*
X182728619Y-111462857D01*
X182690524Y-111548571D01*
X182233381Y-111891429D01*
X182728619Y-111891429D01*
X182862667Y-104291906D02*
X182862667Y-104768097D01*
X182162667Y-104768097D01*
X182462667Y-103815716D02*
X182429333Y-103910954D01*
X182396000Y-103958573D01*
X182329333Y-104006192D01*
X182296000Y-104006192D01*
X182229333Y-103958573D01*
X182196000Y-103910954D01*
X182162667Y-103815716D01*
X182162667Y-103625239D01*
X182196000Y-103530001D01*
X182229333Y-103482382D01*
X182296000Y-103434763D01*
X182329333Y-103434763D01*
X182396000Y-103482382D01*
X182429333Y-103530001D01*
X182462667Y-103625239D01*
X182462667Y-103815716D01*
X182496000Y-103910954D01*
X182529333Y-103958573D01*
X182596000Y-104006192D01*
X182729333Y-104006192D01*
X182796000Y-103958573D01*
X182829333Y-103910954D01*
X182862667Y-103815716D01*
X182862667Y-103625239D01*
X182829333Y-103530001D01*
X182796000Y-103482382D01*
X182729333Y-103434763D01*
X182596000Y-103434763D01*
X182529333Y-103482382D01*
X182496000Y-103530001D01*
X182462667Y-103625239D01*
X182862667Y-101768096D02*
X182862667Y-102244287D01*
X182162667Y-102244287D01*
X182162667Y-101530001D02*
X182162667Y-100863334D01*
X182862667Y-101291906D01*
X182862667Y-99244286D02*
X182862667Y-99720477D01*
X182162667Y-99720477D01*
X182162667Y-98482381D02*
X182162667Y-98672858D01*
X182196000Y-98768096D01*
X182229333Y-98815715D01*
X182329333Y-98910953D01*
X182462667Y-98958572D01*
X182729333Y-98958572D01*
X182796000Y-98910953D01*
X182829333Y-98863334D01*
X182862667Y-98768096D01*
X182862667Y-98577619D01*
X182829333Y-98482381D01*
X182796000Y-98434762D01*
X182729333Y-98387143D01*
X182562667Y-98387143D01*
X182496000Y-98434762D01*
X182462667Y-98482381D01*
X182429333Y-98577619D01*
X182429333Y-98768096D01*
X182462667Y-98863334D01*
X182496000Y-98910953D01*
X182562667Y-98958572D01*
X182862667Y-96720476D02*
X182862667Y-97196667D01*
X182162667Y-97196667D01*
X182162667Y-95910952D02*
X182162667Y-96387143D01*
X182496000Y-96434762D01*
X182462667Y-96387143D01*
X182429333Y-96291905D01*
X182429333Y-96053809D01*
X182462667Y-95958571D01*
X182496000Y-95910952D01*
X182562667Y-95863333D01*
X182729333Y-95863333D01*
X182796000Y-95910952D01*
X182829333Y-95958571D01*
X182862667Y-96053809D01*
X182862667Y-96291905D01*
X182829333Y-96387143D01*
X182796000Y-96434762D01*
X182862667Y-94196666D02*
X182862667Y-94672857D01*
X182162667Y-94672857D01*
X182396000Y-93434761D02*
X182862667Y-93434761D01*
X182129333Y-93672857D02*
X182629333Y-93910952D01*
X182629333Y-93291904D01*
X182862667Y-91672856D02*
X182862667Y-92149047D01*
X182162667Y-92149047D01*
X182162667Y-91434761D02*
X182162667Y-90815713D01*
X182429333Y-91149047D01*
X182429333Y-91006189D01*
X182462667Y-90910951D01*
X182496000Y-90863332D01*
X182562667Y-90815713D01*
X182729333Y-90815713D01*
X182796000Y-90863332D01*
X182829333Y-90910951D01*
X182862667Y-91006189D01*
X182862667Y-91291904D01*
X182829333Y-91387142D01*
X182796000Y-91434761D01*
X182862667Y-89149046D02*
X182862667Y-89625237D01*
X182162667Y-89625237D01*
X182229333Y-88863332D02*
X182196000Y-88815713D01*
X182162667Y-88720475D01*
X182162667Y-88482379D01*
X182196000Y-88387141D01*
X182229333Y-88339522D01*
X182296000Y-88291903D01*
X182362667Y-88291903D01*
X182462667Y-88339522D01*
X182862667Y-88910951D01*
X182862667Y-88291903D01*
X182862667Y-86625236D02*
X182862667Y-87101427D01*
X182162667Y-87101427D01*
X182862667Y-85768093D02*
X182862667Y-86339522D01*
X182862667Y-86053808D02*
X182162667Y-86053808D01*
X182262667Y-86149046D01*
X182329333Y-86244284D01*
X182362667Y-86339522D01*
X182862667Y-84101426D02*
X182862667Y-84577617D01*
X182162667Y-84577617D01*
X182162667Y-83577617D02*
X182162667Y-83482378D01*
X182196000Y-83387140D01*
X182229333Y-83339521D01*
X182296000Y-83291902D01*
X182429333Y-83244283D01*
X182596000Y-83244283D01*
X182729333Y-83291902D01*
X182796000Y-83339521D01*
X182829333Y-83387140D01*
X182862667Y-83482378D01*
X182862667Y-83577617D01*
X182829333Y-83672855D01*
X182796000Y-83720474D01*
X182729333Y-83768093D01*
X182596000Y-83815712D01*
X182429333Y-83815712D01*
X182296000Y-83768093D01*
X182229333Y-83720474D01*
X182196000Y-83672855D01*
X182162667Y-83577617D01*
X167510017Y-86180571D02*
X166984303Y-86180571D01*
X167247160Y-85580571D02*
X167247160Y-86180571D01*
X166765255Y-86180571D02*
X166151922Y-85580571D01*
X166151922Y-86180571D02*
X166765255Y-85580571D01*
X164574780Y-85580571D02*
X164881447Y-85866286D01*
X165100494Y-85580571D02*
X165100494Y-86180571D01*
X164750018Y-86180571D01*
X164662399Y-86152000D01*
X164618590Y-86123429D01*
X164574780Y-86066286D01*
X164574780Y-85980571D01*
X164618590Y-85923429D01*
X164662399Y-85894857D01*
X164750018Y-85866286D01*
X165100494Y-85866286D01*
X164268113Y-86180571D02*
X163654780Y-85580571D01*
X163654780Y-86180571D02*
X164268113Y-85580571D01*
X162165257Y-86180571D02*
X162603352Y-86180571D01*
X162647162Y-85894857D01*
X162603352Y-85923429D01*
X162515733Y-85952000D01*
X162296686Y-85952000D01*
X162209067Y-85923429D01*
X162165257Y-85894857D01*
X162121448Y-85837714D01*
X162121448Y-85694857D01*
X162165257Y-85637714D01*
X162209067Y-85609143D01*
X162296686Y-85580571D01*
X162515733Y-85580571D01*
X162603352Y-85609143D01*
X162647162Y-85637714D01*
X161858591Y-86180571D02*
X161551924Y-85580571D01*
X161245258Y-86180571D01*
X160325258Y-86180571D02*
X159755735Y-86180571D01*
X160062401Y-85952000D01*
X159930973Y-85952000D01*
X159843354Y-85923429D01*
X159799544Y-85894857D01*
X159755735Y-85837714D01*
X159755735Y-85694857D01*
X159799544Y-85637714D01*
X159843354Y-85609143D01*
X159930973Y-85580571D01*
X160193830Y-85580571D01*
X160281449Y-85609143D01*
X160325258Y-85637714D01*
X159492878Y-86180571D02*
X159186211Y-85580571D01*
X158879545Y-86180571D01*
X157390022Y-86152000D02*
X157477641Y-86180571D01*
X157609069Y-86180571D01*
X157740498Y-86152000D01*
X157828117Y-86094857D01*
X157871926Y-86037714D01*
X157915736Y-85923429D01*
X157915736Y-85837714D01*
X157871926Y-85723429D01*
X157828117Y-85666286D01*
X157740498Y-85609143D01*
X157609069Y-85580571D01*
X157521450Y-85580571D01*
X157390022Y-85609143D01*
X157346212Y-85637714D01*
X157346212Y-85837714D01*
X157521450Y-85837714D01*
X156951926Y-85580571D02*
X156951926Y-86180571D01*
X156426212Y-85580571D01*
X156426212Y-86180571D01*
X155988116Y-85580571D02*
X155988116Y-86180571D01*
X155769069Y-86180571D01*
X155637640Y-86152000D01*
X155550021Y-86094857D01*
X155506212Y-86037714D01*
X155462402Y-85923429D01*
X155462402Y-85837714D01*
X155506212Y-85723429D01*
X155550021Y-85666286D01*
X155637640Y-85609143D01*
X155769069Y-85580571D01*
X155988116Y-85580571D01*
D11*
X153295143Y-79566333D02*
X153561810Y-79899667D01*
X153752286Y-79566333D02*
X153752286Y-80266333D01*
X153447524Y-80266333D01*
X153371333Y-80233000D01*
X153333238Y-80199667D01*
X153295143Y-80133000D01*
X153295143Y-80033000D01*
X153333238Y-79966333D01*
X153371333Y-79933000D01*
X153447524Y-79899667D01*
X153752286Y-79899667D01*
X152952286Y-79933000D02*
X152685619Y-79933000D01*
X152571333Y-79566333D02*
X152952286Y-79566333D01*
X152952286Y-80266333D01*
X152571333Y-80266333D01*
X152266571Y-79599667D02*
X152152285Y-79566333D01*
X151961809Y-79566333D01*
X151885619Y-79599667D01*
X151847523Y-79633000D01*
X151809428Y-79699667D01*
X151809428Y-79766333D01*
X151847523Y-79833000D01*
X151885619Y-79866333D01*
X151961809Y-79899667D01*
X152114190Y-79933000D01*
X152190381Y-79966333D01*
X152228476Y-79999667D01*
X152266571Y-80066333D01*
X152266571Y-80133000D01*
X152228476Y-80199667D01*
X152190381Y-80233000D01*
X152114190Y-80266333D01*
X151923714Y-80266333D01*
X151809428Y-80233000D01*
X151466571Y-79933000D02*
X151199904Y-79933000D01*
X151085618Y-79566333D02*
X151466571Y-79566333D01*
X151466571Y-80266333D01*
X151085618Y-80266333D01*
X150857047Y-80266333D02*
X150399904Y-80266333D01*
X150628475Y-79566333D02*
X150628475Y-80266333D01*
X150133237Y-79599667D02*
X150133237Y-79566333D01*
X150095142Y-79666333D02*
X150095142Y-79566333D01*
X150057046Y-79733000D02*
X150057046Y-79566333D01*
X150018951Y-79799667D02*
X150018951Y-79566333D01*
X149980856Y-79833000D02*
X149980856Y-79566333D01*
X149942761Y-79899667D02*
X149942761Y-79566333D01*
X149904665Y-79966333D02*
X149904665Y-79566333D01*
X149866570Y-80033000D02*
X149866570Y-79566333D01*
X149828475Y-80099667D02*
X149828475Y-79566333D01*
X149790380Y-80033000D02*
X149790380Y-79566333D01*
X149752284Y-79966333D02*
X149752284Y-79566333D01*
X149714189Y-79899667D02*
X149714189Y-79566333D01*
X149676094Y-79833000D02*
X149676094Y-79566333D01*
X149637999Y-79799667D02*
X149637999Y-79566333D01*
X149599903Y-79733000D02*
X149599903Y-79566333D01*
X149561808Y-79666333D02*
X149561808Y-79566333D01*
X149523713Y-79566333D02*
X149828475Y-80066333D01*
X150133237Y-79566333D01*
X149523713Y-79599667D02*
X149523713Y-79566333D01*
X149828475Y-80099667D02*
X149485618Y-79566333D01*
X150171332Y-79566333D01*
X149828475Y-80099667D01*
X149095667Y-88848333D02*
X149595667Y-88848333D01*
X149695667Y-88881667D01*
X149762333Y-88948333D01*
X149795667Y-89048333D01*
X149795667Y-89115000D01*
X149795667Y-88515000D02*
X149095667Y-88515000D01*
X149095667Y-88248334D01*
X149129000Y-88181667D01*
X149162333Y-88148334D01*
X149229000Y-88115000D01*
X149329000Y-88115000D01*
X149395667Y-88148334D01*
X149429000Y-88181667D01*
X149462333Y-88248334D01*
X149462333Y-88515000D01*
X149162333Y-87848334D02*
X149129000Y-87815000D01*
X149095667Y-87748334D01*
X149095667Y-87581667D01*
X149129000Y-87515000D01*
X149162333Y-87481667D01*
X149229000Y-87448334D01*
X149295667Y-87448334D01*
X149395667Y-87481667D01*
X149795667Y-87881667D01*
X149795667Y-87448334D01*
D13*
X151622760Y-113030000D02*
G75*
G03X151622760Y-113030000I-1000760J0D01*
G01*
X156822140Y-113030000D02*
G75*
G03X156822140Y-113030000I-6200140J0D01*
G01*
X127135000Y-106155000D02*
X127135000Y-88155000D01*
X127135000Y-88155000D02*
X128535000Y-88155000D01*
X132935000Y-88155000D02*
X128535000Y-88155000D01*
X127335000Y-106155000D02*
X127135000Y-106155000D01*
X133035000Y-106155000D02*
X133035000Y-88155000D01*
X133335000Y-106155000D02*
X127335000Y-106155000D01*
X133335000Y-106155000D02*
X132935000Y-106155000D01*
X132935000Y-88155000D02*
X133335000Y-88155000D01*
X147335000Y-106155000D02*
X147335000Y-88155000D01*
X147335000Y-106155000D02*
X133335000Y-106155000D01*
X133335000Y-88155000D02*
X147335000Y-88155000D01*
X156885000Y-83650000D02*
X156885000Y-84100000D01*
X162335000Y-82550000D02*
G75*
G03X162335000Y-82550000I-2950000J0D01*
G01*
X156885000Y-81450000D02*
X156885000Y-81000000D01*
X129540000Y-117435000D02*
X127040000Y-117435000D01*
X127040000Y-117435000D02*
X127040000Y-112435000D01*
X127040000Y-112435000D02*
X129540000Y-112435000D01*
X129540000Y-112435000D02*
X129540000Y-111435000D01*
X129540000Y-111435000D02*
X144040000Y-111435000D01*
X144040000Y-111435000D02*
X144040000Y-118435000D01*
X144040000Y-118435000D02*
X129540000Y-118435000D01*
X129540000Y-118435000D02*
X129540000Y-117435000D01*
X164226500Y-98789500D02*
X160226500Y-98789500D01*
X160226500Y-98789500D02*
X160226500Y-103789500D01*
X160226500Y-103789500D02*
X164226500Y-103789500D01*
X164226500Y-103789500D02*
X164226500Y-98789500D01*
X158640714Y-93789500D02*
G75*
G03X158640714Y-93789500I-1414214J0D01*
G01*
X166226500Y-90789500D02*
X159226500Y-90789500D01*
X159226500Y-90789500D02*
X159226500Y-97789500D01*
X159226500Y-97789500D02*
X166226500Y-97789500D01*
X166226500Y-97789500D02*
X166226500Y-90789500D01*
X166226500Y-90789500D02*
X160226500Y-90789500D01*
X166226500Y-96789500D02*
X166226500Y-90789500D01*
X166976500Y-89039500D02*
X166976500Y-106539500D01*
X166976500Y-106539500D02*
X155476500Y-106539500D01*
X155476500Y-106539500D02*
X155476500Y-89039500D01*
X155476500Y-89039500D02*
X166976500Y-89039500D01*
X152639000Y-122285000D02*
X152639000Y-118785000D01*
X152639000Y-118785000D02*
X165639000Y-118785000D01*
X165639000Y-118785000D02*
X165639000Y-125785000D01*
X165639000Y-125785000D02*
X152639000Y-125785000D01*
X152639000Y-125785000D02*
X152639000Y-122285000D01*
X167769540Y-98023180D02*
X167370760Y-98424500D01*
X167769540Y-90426040D02*
X167269160Y-90426040D01*
X164970460Y-90426040D02*
X165470840Y-90426040D01*
X166669720Y-90426040D02*
X166169340Y-90426040D01*
X166669720Y-98424500D02*
X166169340Y-98424500D01*
X164970460Y-98424500D02*
X165470840Y-98424500D01*
X167769540Y-98424500D02*
X167269160Y-98424500D01*
X164970460Y-91424260D02*
X164970460Y-92122760D01*
X164970460Y-97423740D02*
X164970460Y-96725240D01*
X164970460Y-96125800D02*
X164970460Y-95427300D01*
X164970460Y-94825320D02*
X164970460Y-94126820D01*
X164970460Y-93524840D02*
X164970460Y-92826340D01*
X167769540Y-93524840D02*
X167769540Y-92826340D01*
X167769540Y-94825320D02*
X167769540Y-94126820D01*
X167769540Y-96125800D02*
X167769540Y-95427300D01*
X167769540Y-97423740D02*
X167769540Y-96725240D01*
X167769540Y-91424260D02*
X167769540Y-92122760D01*
X167769540Y-90423500D02*
X167769540Y-90824820D01*
X164970460Y-90423500D02*
X164970460Y-90824820D01*
X167769540Y-98424500D02*
X167769540Y-98023180D01*
X164970460Y-98424500D02*
X164970460Y-98023180D01*
X162170000Y-94250000D02*
X162170000Y-96250000D01*
X164220000Y-96250000D02*
X164220000Y-94250000D01*
X165917000Y-112675000D02*
X165917000Y-118973000D01*
X166057000Y-112681000D02*
X166057000Y-118967000D01*
X166197000Y-112694000D02*
X166197000Y-115378000D01*
X166197000Y-116270000D02*
X166197000Y-118954000D01*
X166337000Y-112713000D02*
X166337000Y-115168000D01*
X166337000Y-116480000D02*
X166337000Y-118935000D01*
X166477000Y-112739000D02*
X166477000Y-115035000D01*
X166477000Y-116613000D02*
X166477000Y-118909000D01*
X166617000Y-112771000D02*
X166617000Y-114944000D01*
X166617000Y-116704000D02*
X166617000Y-118877000D01*
X166757000Y-112810000D02*
X166757000Y-114882000D01*
X166757000Y-116766000D02*
X166757000Y-118838000D01*
X166897000Y-112856000D02*
X166897000Y-114843000D01*
X166897000Y-116805000D02*
X166897000Y-118792000D01*
X167037000Y-112909000D02*
X167037000Y-114826000D01*
X167037000Y-116822000D02*
X167037000Y-118739000D01*
X167177000Y-112971000D02*
X167177000Y-114828000D01*
X167177000Y-116820000D02*
X167177000Y-118677000D01*
X167317000Y-113041000D02*
X167317000Y-114850000D01*
X167317000Y-116798000D02*
X167317000Y-118607000D01*
X167457000Y-113120000D02*
X167457000Y-114893000D01*
X167457000Y-116755000D02*
X167457000Y-118528000D01*
X167597000Y-113208000D02*
X167597000Y-114961000D01*
X167597000Y-116687000D02*
X167597000Y-118440000D01*
X167737000Y-113308000D02*
X167737000Y-115060000D01*
X167737000Y-116588000D02*
X167737000Y-118340000D01*
X167877000Y-113420000D02*
X167877000Y-115205000D01*
X167877000Y-116443000D02*
X167877000Y-118228000D01*
X168017000Y-113545000D02*
X168017000Y-115444000D01*
X168017000Y-116204000D02*
X168017000Y-118103000D01*
X168157000Y-113688000D02*
X168157000Y-117960000D01*
X168297000Y-113850000D02*
X168297000Y-117798000D01*
X168437000Y-114038000D02*
X168437000Y-117610000D01*
X168577000Y-114261000D02*
X168577000Y-117387000D01*
X168717000Y-114537000D02*
X168717000Y-117111000D01*
X168857000Y-114912000D02*
X168857000Y-116736000D01*
X168092000Y-115824000D02*
G75*
G03X168092000Y-115824000I-1000000J0D01*
G01*
X169029500Y-115824000D02*
G75*
G03X169029500Y-115824000I-3187500J0D01*
G01*
X159153860Y-108054140D02*
X159153860Y-108755180D01*
X159153860Y-108755180D02*
X158353760Y-108755180D01*
X162956240Y-108054140D02*
X158353760Y-108054140D01*
X158353760Y-108054140D02*
X158353760Y-111655860D01*
X158353760Y-111655860D02*
X162956240Y-111655860D01*
X162956240Y-111655860D02*
X162956240Y-108054140D01*
X165195000Y-139715000D02*
X165195000Y-127965000D01*
X153195000Y-127965000D02*
X153195000Y-139715000D01*
X153195000Y-127965000D02*
X165195000Y-127965000D01*
X153195000Y-131065000D02*
X165195000Y-131065000D01*
X165195000Y-139715000D02*
X153195000Y-139715000D01*
X170815000Y-114300000D02*
X173355000Y-114300000D01*
X172234903Y-114300000D02*
G75*
G03X172234903Y-114300000I-1419903J0D01*
G01*
X151622760Y-115570000D02*
G75*
G03X151622760Y-115570000I-1000760J0D01*
G01*
X156822140Y-115570000D02*
G75*
G03X156822140Y-115570000I-6200140J0D01*
G01*
X154305000Y-84455000D02*
G75*
G03X154305000Y-84455000I-2540000J0D01*
G01*
X155575000Y-80645000D02*
X155575000Y-88265000D01*
X155575000Y-88265000D02*
X147955000Y-88265000D01*
X147955000Y-88265000D02*
X147955000Y-80645000D01*
X155575000Y-80645000D02*
X147955000Y-80645000D01*
X136160000Y-110245000D02*
X138160000Y-110245000D01*
X138160000Y-108195000D02*
X136160000Y-108195000D01*
X143875000Y-108195000D02*
X141875000Y-108195000D01*
X141875000Y-110245000D02*
X143875000Y-110245000D01*
X151774000Y-115349000D02*
X151774000Y-113349000D01*
X149724000Y-113349000D02*
X149724000Y-115349000D01*
X148610000Y-103120000D02*
X148610000Y-100120000D01*
X151110000Y-100120000D02*
X151110000Y-103120000D01*
X149170000Y-127609000D02*
X149170000Y-121311000D01*
X149030000Y-127603000D02*
X149030000Y-121317000D01*
X148890000Y-127590000D02*
X148890000Y-124906000D01*
X148890000Y-124014000D02*
X148890000Y-121330000D01*
X148750000Y-127571000D02*
X148750000Y-125116000D01*
X148750000Y-123804000D02*
X148750000Y-121349000D01*
X148610000Y-127545000D02*
X148610000Y-125249000D01*
X148610000Y-123671000D02*
X148610000Y-121375000D01*
X148470000Y-127513000D02*
X148470000Y-125340000D01*
X148470000Y-123580000D02*
X148470000Y-121407000D01*
X148330000Y-127474000D02*
X148330000Y-125402000D01*
X148330000Y-123518000D02*
X148330000Y-121446000D01*
X148190000Y-127428000D02*
X148190000Y-125441000D01*
X148190000Y-123479000D02*
X148190000Y-121492000D01*
X148050000Y-127375000D02*
X148050000Y-125458000D01*
X148050000Y-123462000D02*
X148050000Y-121545000D01*
X147910000Y-127313000D02*
X147910000Y-125456000D01*
X147910000Y-123464000D02*
X147910000Y-121607000D01*
X147770000Y-127243000D02*
X147770000Y-125434000D01*
X147770000Y-123486000D02*
X147770000Y-121677000D01*
X147630000Y-127164000D02*
X147630000Y-125391000D01*
X147630000Y-123529000D02*
X147630000Y-121756000D01*
X147490000Y-127076000D02*
X147490000Y-125323000D01*
X147490000Y-123597000D02*
X147490000Y-121844000D01*
X147350000Y-126976000D02*
X147350000Y-125224000D01*
X147350000Y-123696000D02*
X147350000Y-121944000D01*
X147210000Y-126864000D02*
X147210000Y-125079000D01*
X147210000Y-123841000D02*
X147210000Y-122056000D01*
X147070000Y-126739000D02*
X147070000Y-124840000D01*
X147070000Y-124080000D02*
X147070000Y-122181000D01*
X146930000Y-126596000D02*
X146930000Y-122324000D01*
X146790000Y-126434000D02*
X146790000Y-122486000D01*
X146650000Y-126246000D02*
X146650000Y-122674000D01*
X146510000Y-126023000D02*
X146510000Y-122897000D01*
X146370000Y-125747000D02*
X146370000Y-123173000D01*
X146230000Y-125372000D02*
X146230000Y-123548000D01*
X148995000Y-124460000D02*
G75*
G03X148995000Y-124460000I-1000000J0D01*
G01*
X152432500Y-124460000D02*
G75*
G03X152432500Y-124460000I-3187500J0D01*
G01*
X149090000Y-107730000D02*
X149090000Y-105630000D01*
X154440000Y-107730000D02*
X154440000Y-105630000D01*
X145389600Y-123494800D02*
X145389600Y-126034800D01*
X145669600Y-120674800D02*
X145669600Y-122224800D01*
X145389600Y-123494800D02*
X142849600Y-123494800D01*
X142569600Y-122224800D02*
X142569600Y-120674800D01*
X142569600Y-120674800D02*
X145669600Y-120674800D01*
X142849600Y-123494800D02*
X142849600Y-126034800D01*
X142849600Y-126034800D02*
X145389600Y-126034800D01*
X173085000Y-118550000D02*
X171085000Y-118550000D01*
X171085000Y-116400000D02*
X173085000Y-116400000D01*
X154305000Y-93980000D02*
G75*
G03X154305000Y-93980000I-2540000J0D01*
G01*
X147955000Y-97790000D02*
X147955000Y-90170000D01*
X147955000Y-90170000D02*
X155575000Y-90170000D01*
X155575000Y-90170000D02*
X155575000Y-97790000D01*
X147955000Y-97790000D02*
X155575000Y-97790000D01*
X160290000Y-105800000D02*
X162290000Y-105800000D01*
X162290000Y-103750000D02*
X160290000Y-103750000D01*
X158385000Y-93100000D02*
X160385000Y-93100000D01*
X160385000Y-91050000D02*
X158385000Y-91050000D01*
X159440000Y-112421000D02*
X159440000Y-118719000D01*
X159580000Y-112427000D02*
X159580000Y-118713000D01*
X159720000Y-112440000D02*
X159720000Y-115124000D01*
X159720000Y-116016000D02*
X159720000Y-118700000D01*
X159860000Y-112459000D02*
X159860000Y-114914000D01*
X159860000Y-116226000D02*
X159860000Y-118681000D01*
X160000000Y-112485000D02*
X160000000Y-114781000D01*
X160000000Y-116359000D02*
X160000000Y-118655000D01*
X160140000Y-112517000D02*
X160140000Y-114690000D01*
X160140000Y-116450000D02*
X160140000Y-118623000D01*
X160280000Y-112556000D02*
X160280000Y-114628000D01*
X160280000Y-116512000D02*
X160280000Y-118584000D01*
X160420000Y-112602000D02*
X160420000Y-114589000D01*
X160420000Y-116551000D02*
X160420000Y-118538000D01*
X160560000Y-112655000D02*
X160560000Y-114572000D01*
X160560000Y-116568000D02*
X160560000Y-118485000D01*
X160700000Y-112717000D02*
X160700000Y-114574000D01*
X160700000Y-116566000D02*
X160700000Y-118423000D01*
X160840000Y-112787000D02*
X160840000Y-114596000D01*
X160840000Y-116544000D02*
X160840000Y-118353000D01*
X160980000Y-112866000D02*
X160980000Y-114639000D01*
X160980000Y-116501000D02*
X160980000Y-118274000D01*
X161120000Y-112954000D02*
X161120000Y-114707000D01*
X161120000Y-116433000D02*
X161120000Y-118186000D01*
X161260000Y-113054000D02*
X161260000Y-114806000D01*
X161260000Y-116334000D02*
X161260000Y-118086000D01*
X161400000Y-113166000D02*
X161400000Y-114951000D01*
X161400000Y-116189000D02*
X161400000Y-117974000D01*
X161540000Y-113291000D02*
X161540000Y-115190000D01*
X161540000Y-115950000D02*
X161540000Y-117849000D01*
X161680000Y-113434000D02*
X161680000Y-117706000D01*
X161820000Y-113596000D02*
X161820000Y-117544000D01*
X161960000Y-113784000D02*
X161960000Y-117356000D01*
X162100000Y-114007000D02*
X162100000Y-117133000D01*
X162240000Y-114283000D02*
X162240000Y-116857000D01*
X162380000Y-114658000D02*
X162380000Y-116482000D01*
X161615000Y-115570000D02*
G75*
G03X161615000Y-115570000I-1000000J0D01*
G01*
X162552500Y-115570000D02*
G75*
G03X162552500Y-115570000I-3187500J0D01*
G01*
X157785000Y-96185000D02*
G75*
G03X157785000Y-96185000I-100000J0D01*
G01*
X157935000Y-95635000D02*
X157935000Y-96135000D01*
X160835000Y-95635000D02*
X157935000Y-95635000D01*
X160835000Y-96135000D02*
X160835000Y-95635000D01*
X157935000Y-96135000D02*
X160835000Y-96135000D01*
X164177000Y-80192500D02*
X166277000Y-80192500D01*
X164177000Y-85542500D02*
X166277000Y-85542500D01*
X155710095Y-106322762D02*
X155852952Y-106370381D01*
X156091048Y-106370381D01*
X156186286Y-106322762D01*
X156233905Y-106275143D01*
X156281524Y-106179905D01*
X156281524Y-106084667D01*
X156233905Y-105989429D01*
X156186286Y-105941810D01*
X156091048Y-105894190D01*
X155900571Y-105846571D01*
X155805333Y-105798952D01*
X155757714Y-105751333D01*
X155710095Y-105656095D01*
X155710095Y-105560857D01*
X155757714Y-105465619D01*
X155805333Y-105418000D01*
X155900571Y-105370381D01*
X156138667Y-105370381D01*
X156281524Y-105418000D01*
X156710095Y-106370381D02*
X156710095Y-105370381D01*
X157091048Y-105370381D01*
X157186286Y-105418000D01*
X157233905Y-105465619D01*
X157281524Y-105560857D01*
X157281524Y-105703714D01*
X157233905Y-105798952D01*
X157186286Y-105846571D01*
X157091048Y-105894190D01*
X156710095Y-105894190D01*
X158233905Y-106370381D02*
X157662476Y-106370381D01*
X157948190Y-106370381D02*
X157948190Y-105370381D01*
X157852952Y-105513238D01*
X157757714Y-105608476D01*
X157662476Y-105656095D01*
X147502952Y-111656762D02*
X147645809Y-111704381D01*
X147883905Y-111704381D01*
X147979143Y-111656762D01*
X148026762Y-111609143D01*
X148074381Y-111513905D01*
X148074381Y-111418667D01*
X148026762Y-111323429D01*
X147979143Y-111275810D01*
X147883905Y-111228190D01*
X147693428Y-111180571D01*
X147598190Y-111132952D01*
X147550571Y-111085333D01*
X147502952Y-110990095D01*
X147502952Y-110894857D01*
X147550571Y-110799619D01*
X147598190Y-110752000D01*
X147693428Y-110704381D01*
X147931524Y-110704381D01*
X148074381Y-110752000D01*
X148502952Y-111704381D02*
X148502952Y-110704381D01*
X148883905Y-110704381D01*
X148979143Y-110752000D01*
X149026762Y-110799619D01*
X149074381Y-110894857D01*
X149074381Y-111037714D01*
X149026762Y-111132952D01*
X148979143Y-111180571D01*
X148883905Y-111228190D01*
X148502952Y-111228190D01*
X149502952Y-111180571D02*
X149836286Y-111180571D01*
X149979143Y-111704381D02*
X149502952Y-111704381D01*
X149502952Y-110704381D01*
X149979143Y-110704381D01*
X150360095Y-111418667D02*
X150836286Y-111418667D01*
X150264857Y-111704381D02*
X150598190Y-110704381D01*
X150931524Y-111704381D01*
X151264857Y-111704381D02*
X151264857Y-110704381D01*
X151836286Y-111704381D02*
X151407714Y-111132952D01*
X151836286Y-110704381D02*
X151264857Y-111275810D01*
X152264857Y-111180571D02*
X152598191Y-111180571D01*
X152741048Y-111704381D02*
X152264857Y-111704381D01*
X152264857Y-110704381D01*
X152741048Y-110704381D01*
X153741048Y-111704381D02*
X153407714Y-111228190D01*
X153169619Y-111704381D02*
X153169619Y-110704381D01*
X153550572Y-110704381D01*
X153645810Y-110752000D01*
X153693429Y-110799619D01*
X153741048Y-110894857D01*
X153741048Y-111037714D01*
X153693429Y-111132952D01*
X153645810Y-111180571D01*
X153550572Y-111228190D01*
X153169619Y-111228190D01*
X145542048Y-110180429D02*
X146303953Y-110180429D01*
X145923001Y-110561381D02*
X145923001Y-109799476D01*
X147777857Y-98069286D02*
X148749286Y-98069286D01*
X148863571Y-98012143D01*
X148920714Y-97955000D01*
X148977857Y-97840714D01*
X148977857Y-97612143D01*
X148920714Y-97497857D01*
X148863571Y-97440714D01*
X148749286Y-97383571D01*
X147777857Y-97383571D01*
X148977857Y-96183571D02*
X148977857Y-96869286D01*
X148977857Y-96526428D02*
X147777857Y-96526428D01*
X147949286Y-96640714D01*
X148063571Y-96755000D01*
X148120714Y-96869286D01*
X155682381Y-83288095D02*
X154682381Y-83288095D01*
X154682381Y-83050000D01*
X154730000Y-82907142D01*
X154825238Y-82811904D01*
X154920476Y-82764285D01*
X155110952Y-82716666D01*
X155253810Y-82716666D01*
X155444286Y-82764285D01*
X155539524Y-82811904D01*
X155634762Y-82907142D01*
X155682381Y-83050000D01*
X155682381Y-83288095D01*
X154777619Y-82335714D02*
X154730000Y-82288095D01*
X154682381Y-82192857D01*
X154682381Y-81954761D01*
X154730000Y-81859523D01*
X154777619Y-81811904D01*
X154872857Y-81764285D01*
X154968095Y-81764285D01*
X155110952Y-81811904D01*
X155682381Y-82383333D01*
X155682381Y-81764285D01*
X161347352Y-89114381D02*
X161537829Y-89114381D01*
X161633067Y-89162000D01*
X161728305Y-89257238D01*
X161775924Y-89447714D01*
X161775924Y-89781048D01*
X161728305Y-89971524D01*
X161633067Y-90066762D01*
X161537829Y-90114381D01*
X161347352Y-90114381D01*
X161252114Y-90066762D01*
X161156876Y-89971524D01*
X161109257Y-89781048D01*
X161109257Y-89447714D01*
X161156876Y-89257238D01*
X161252114Y-89162000D01*
X161347352Y-89114381D01*
X162204495Y-89114381D02*
X162204495Y-89923905D01*
X162252114Y-90019143D01*
X162299733Y-90066762D01*
X162394971Y-90114381D01*
X162585448Y-90114381D01*
X162680686Y-90066762D01*
X162728305Y-90019143D01*
X162775924Y-89923905D01*
X162775924Y-89114381D01*
X163109257Y-89114381D02*
X163680686Y-89114381D01*
X163394971Y-90114381D02*
X163394971Y-89114381D01*
X164014019Y-89733429D02*
X164775924Y-89733429D01*
X164394972Y-90114381D02*
X164394972Y-89352476D01*
X157334152Y-89063581D02*
X157524629Y-89063581D01*
X157619867Y-89111200D01*
X157715105Y-89206438D01*
X157762724Y-89396914D01*
X157762724Y-89730248D01*
X157715105Y-89920724D01*
X157619867Y-90015962D01*
X157524629Y-90063581D01*
X157334152Y-90063581D01*
X157238914Y-90015962D01*
X157143676Y-89920724D01*
X157096057Y-89730248D01*
X157096057Y-89396914D01*
X157143676Y-89206438D01*
X157238914Y-89111200D01*
X157334152Y-89063581D01*
X158191295Y-89063581D02*
X158191295Y-89873105D01*
X158238914Y-89968343D01*
X158286533Y-90015962D01*
X158381771Y-90063581D01*
X158572248Y-90063581D01*
X158667486Y-90015962D01*
X158715105Y-89968343D01*
X158762724Y-89873105D01*
X158762724Y-89063581D01*
X159096057Y-89063581D02*
X159667486Y-89063581D01*
X159381771Y-90063581D02*
X159381771Y-89063581D01*
X160000819Y-89682629D02*
X160762724Y-89682629D01*
X158496143Y-107386381D02*
X158496143Y-106386381D01*
X158972333Y-107386381D02*
X158972333Y-106386381D01*
X159543762Y-107386381D01*
X159543762Y-106386381D01*
X160019952Y-107005429D02*
X160781857Y-107005429D01*
X165163643Y-108274881D02*
X165163643Y-107274881D01*
X165639833Y-108274881D02*
X165639833Y-107274881D01*
X166211262Y-108274881D01*
X166211262Y-107274881D01*
X166687452Y-107893929D02*
X167449357Y-107893929D01*
X167068405Y-108274881D02*
X167068405Y-107512976D01*
X154170714Y-118435381D02*
X154170714Y-117435381D01*
X154551667Y-117435381D01*
X154646905Y-117483000D01*
X154694524Y-117530619D01*
X154742143Y-117625857D01*
X154742143Y-117768714D01*
X154694524Y-117863952D01*
X154646905Y-117911571D01*
X154551667Y-117959190D01*
X154170714Y-117959190D01*
X155694524Y-118435381D02*
X155123095Y-118435381D01*
X155408809Y-118435381D02*
X155408809Y-117435381D01*
X155313571Y-117578238D01*
X155218333Y-117673476D01*
X155123095Y-117721095D01*
X156313571Y-117435381D02*
X156408810Y-117435381D01*
X156504048Y-117483000D01*
X156551667Y-117530619D01*
X156599286Y-117625857D01*
X156646905Y-117816333D01*
X156646905Y-118054429D01*
X156599286Y-118244905D01*
X156551667Y-118340143D01*
X156504048Y-118387762D01*
X156408810Y-118435381D01*
X156313571Y-118435381D01*
X156218333Y-118387762D01*
X156170714Y-118340143D01*
X156123095Y-118244905D01*
X156075476Y-118054429D01*
X156075476Y-117816333D01*
X156123095Y-117625857D01*
X156170714Y-117530619D01*
X156218333Y-117483000D01*
X156313571Y-117435381D01*
X169622221Y-95284965D02*
X170431745Y-95284965D01*
X170526983Y-95237346D01*
X170574602Y-95189727D01*
X170622221Y-95094489D01*
X170622221Y-94904012D01*
X170574602Y-94808774D01*
X170526983Y-94761155D01*
X170431745Y-94713536D01*
X169622221Y-94713536D01*
X170050792Y-94094489D02*
X170003173Y-94189727D01*
X169955554Y-94237346D01*
X169860316Y-94284965D01*
X169812697Y-94284965D01*
X169717459Y-94237346D01*
X169669840Y-94189727D01*
X169622221Y-94094489D01*
X169622221Y-93904012D01*
X169669840Y-93808774D01*
X169717459Y-93761155D01*
X169812697Y-93713536D01*
X169860316Y-93713536D01*
X169955554Y-93761155D01*
X170003173Y-93808774D01*
X170050792Y-93904012D01*
X170050792Y-94094489D01*
X170098411Y-94189727D01*
X170146030Y-94237346D01*
X170241269Y-94284965D01*
X170431745Y-94284965D01*
X170526983Y-94237346D01*
X170574602Y-94189727D01*
X170622221Y-94094489D01*
X170622221Y-93904012D01*
X170574602Y-93808774D01*
X170526983Y-93761155D01*
X170431745Y-93713536D01*
X170241269Y-93713536D01*
X170146030Y-93761155D01*
X170098411Y-93808774D01*
X170050792Y-93904012D01*
X161347381Y-95416666D02*
X161347381Y-95892857D01*
X160347381Y-95892857D01*
X161347381Y-94559523D02*
X161347381Y-95130952D01*
X161347381Y-94845238D02*
X160347381Y-94845238D01*
X160490238Y-94940476D01*
X160585476Y-95035714D01*
X160633095Y-95130952D01*
X165675334Y-111781143D02*
X165627715Y-111828762D01*
X165484858Y-111876381D01*
X165389620Y-111876381D01*
X165246762Y-111828762D01*
X165151524Y-111733524D01*
X165103905Y-111638286D01*
X165056286Y-111447810D01*
X165056286Y-111304952D01*
X165103905Y-111114476D01*
X165151524Y-111019238D01*
X165246762Y-110924000D01*
X165389620Y-110876381D01*
X165484858Y-110876381D01*
X165627715Y-110924000D01*
X165675334Y-110971619D01*
X166580096Y-110876381D02*
X166103905Y-110876381D01*
X166056286Y-111352571D01*
X166103905Y-111304952D01*
X166199143Y-111257333D01*
X166437239Y-111257333D01*
X166532477Y-111304952D01*
X166580096Y-111352571D01*
X166627715Y-111447810D01*
X166627715Y-111685905D01*
X166580096Y-111781143D01*
X166532477Y-111828762D01*
X166437239Y-111876381D01*
X166199143Y-111876381D01*
X166103905Y-111828762D01*
X166056286Y-111781143D01*
X152919181Y-101752305D02*
X153728705Y-101752305D01*
X153823943Y-101704686D01*
X153871562Y-101657067D01*
X153919181Y-101561829D01*
X153919181Y-101371352D01*
X153871562Y-101276114D01*
X153823943Y-101228495D01*
X153728705Y-101180876D01*
X152919181Y-101180876D01*
X152919181Y-100799924D02*
X152919181Y-100133257D01*
X153919181Y-100561829D01*
X155829095Y-109434381D02*
X155829095Y-110243905D01*
X155876714Y-110339143D01*
X155924333Y-110386762D01*
X156019571Y-110434381D01*
X156210048Y-110434381D01*
X156305286Y-110386762D01*
X156352905Y-110339143D01*
X156400524Y-110243905D01*
X156400524Y-109434381D01*
X157352905Y-109434381D02*
X156876714Y-109434381D01*
X156829095Y-109910571D01*
X156876714Y-109862952D01*
X156971952Y-109815333D01*
X157210048Y-109815333D01*
X157305286Y-109862952D01*
X157352905Y-109910571D01*
X157400524Y-110005810D01*
X157400524Y-110243905D01*
X157352905Y-110339143D01*
X157305286Y-110386762D01*
X157210048Y-110434381D01*
X156971952Y-110434381D01*
X156876714Y-110386762D01*
X156829095Y-110339143D01*
X130071905Y-106497381D02*
X130071905Y-105497381D01*
X130452858Y-105497381D01*
X130548096Y-105545000D01*
X130595715Y-105592619D01*
X130643334Y-105687857D01*
X130643334Y-105830714D01*
X130595715Y-105925952D01*
X130548096Y-105973571D01*
X130452858Y-106021190D01*
X130071905Y-106021190D01*
X131595715Y-106497381D02*
X131024286Y-106497381D01*
X131310000Y-106497381D02*
X131310000Y-105497381D01*
X131214762Y-105640238D01*
X131119524Y-105735476D01*
X131024286Y-105783095D01*
X168067085Y-114165029D02*
X167867085Y-113879314D01*
X167724228Y-114165029D02*
X167724228Y-113565029D01*
X167952800Y-113565029D01*
X168009942Y-113593600D01*
X168038514Y-113622171D01*
X168067085Y-113679314D01*
X168067085Y-113765029D01*
X168038514Y-113822171D01*
X168009942Y-113850743D01*
X167952800Y-113879314D01*
X167724228Y-113879314D01*
X168638514Y-114165029D02*
X168295657Y-114165029D01*
X168467085Y-114165029D02*
X168467085Y-113565029D01*
X168409942Y-113650743D01*
X168352800Y-113707886D01*
X168295657Y-113736457D01*
X168838514Y-113565029D02*
X169209943Y-113565029D01*
X169009943Y-113793600D01*
X169095657Y-113793600D01*
X169152800Y-113822171D01*
X169181371Y-113850743D01*
X169209943Y-113907886D01*
X169209943Y-114050743D01*
X169181371Y-114107886D01*
X169152800Y-114136457D01*
X169095657Y-114165029D01*
X168924229Y-114165029D01*
X168867086Y-114136457D01*
X168838514Y-114107886D01*
X149415667Y-117784571D02*
X149558524Y-117832190D01*
X149606143Y-117879810D01*
X149653762Y-117975048D01*
X149653762Y-118117905D01*
X149606143Y-118213143D01*
X149558524Y-118260762D01*
X149463286Y-118308381D01*
X149082333Y-118308381D01*
X149082333Y-117308381D01*
X149415667Y-117308381D01*
X149510905Y-117356000D01*
X149558524Y-117403619D01*
X149606143Y-117498857D01*
X149606143Y-117594095D01*
X149558524Y-117689333D01*
X149510905Y-117736952D01*
X149415667Y-117784571D01*
X149082333Y-117784571D01*
X150082333Y-117784571D02*
X150415667Y-117784571D01*
X150558524Y-118308381D02*
X150082333Y-118308381D01*
X150082333Y-117308381D01*
X150558524Y-117308381D01*
X150987095Y-117784571D02*
X151320429Y-117784571D01*
X151463286Y-118308381D02*
X150987095Y-118308381D01*
X150987095Y-117308381D01*
X151463286Y-117308381D01*
X151891857Y-118308381D02*
X151891857Y-117308381D01*
X152272810Y-117308381D01*
X152368048Y-117356000D01*
X152415667Y-117403619D01*
X152463286Y-117498857D01*
X152463286Y-117641714D01*
X152415667Y-117736952D01*
X152368048Y-117784571D01*
X152272810Y-117832190D01*
X151891857Y-117832190D01*
X147320048Y-112339429D02*
X148081953Y-112339429D01*
X147701001Y-112720381D02*
X147701001Y-111958476D01*
X152931762Y-85788333D02*
X152979381Y-85645476D01*
X152979381Y-85407380D01*
X152931762Y-85312142D01*
X152884143Y-85264523D01*
X152788905Y-85216904D01*
X152693667Y-85216904D01*
X152598429Y-85264523D01*
X152550810Y-85312142D01*
X152503190Y-85407380D01*
X152455571Y-85597857D01*
X152407952Y-85693095D01*
X152360333Y-85740714D01*
X152265095Y-85788333D01*
X152169857Y-85788333D01*
X152074619Y-85740714D01*
X152027000Y-85693095D01*
X151979381Y-85597857D01*
X151979381Y-85359761D01*
X152027000Y-85216904D01*
X151979381Y-84883571D02*
X152979381Y-84645476D01*
X152265095Y-84454999D01*
X152979381Y-84264523D01*
X151979381Y-84026428D01*
X152979381Y-83121666D02*
X152979381Y-83693095D01*
X152979381Y-83407381D02*
X151979381Y-83407381D01*
X152122238Y-83502619D01*
X152217476Y-83597857D01*
X152265095Y-83693095D01*
X136993334Y-111877143D02*
X136945715Y-111924762D01*
X136802858Y-111972381D01*
X136707620Y-111972381D01*
X136564762Y-111924762D01*
X136469524Y-111829524D01*
X136421905Y-111734286D01*
X136374286Y-111543810D01*
X136374286Y-111400952D01*
X136421905Y-111210476D01*
X136469524Y-111115238D01*
X136564762Y-111020000D01*
X136707620Y-110972381D01*
X136802858Y-110972381D01*
X136945715Y-111020000D01*
X136993334Y-111067619D01*
X137374286Y-111067619D02*
X137421905Y-111020000D01*
X137517143Y-110972381D01*
X137755239Y-110972381D01*
X137850477Y-111020000D01*
X137898096Y-111067619D01*
X137945715Y-111162857D01*
X137945715Y-111258095D01*
X137898096Y-111400952D01*
X137326667Y-111972381D01*
X137945715Y-111972381D01*
X146264334Y-108307143D02*
X146216715Y-108354762D01*
X146073858Y-108402381D01*
X145978620Y-108402381D01*
X145835762Y-108354762D01*
X145740524Y-108259524D01*
X145692905Y-108164286D01*
X145645286Y-107973810D01*
X145645286Y-107830952D01*
X145692905Y-107640476D01*
X145740524Y-107545238D01*
X145835762Y-107450000D01*
X145978620Y-107402381D01*
X146073858Y-107402381D01*
X146216715Y-107450000D01*
X146264334Y-107497619D01*
X146740524Y-108402381D02*
X146931000Y-108402381D01*
X147026239Y-108354762D01*
X147073858Y-108307143D01*
X147169096Y-108164286D01*
X147216715Y-107973810D01*
X147216715Y-107592857D01*
X147169096Y-107497619D01*
X147121477Y-107450000D01*
X147026239Y-107402381D01*
X146835762Y-107402381D01*
X146740524Y-107450000D01*
X146692905Y-107497619D01*
X146645286Y-107592857D01*
X146645286Y-107830952D01*
X146692905Y-107926190D01*
X146740524Y-107973810D01*
X146835762Y-108021429D01*
X147026239Y-108021429D01*
X147121477Y-107973810D01*
X147169096Y-107926190D01*
X147216715Y-107830952D01*
X153501381Y-114515666D02*
X153501381Y-114991857D01*
X152501381Y-114991857D01*
X152596619Y-114229952D02*
X152549000Y-114182333D01*
X152501381Y-114087095D01*
X152501381Y-113848999D01*
X152549000Y-113753761D01*
X152596619Y-113706142D01*
X152691857Y-113658523D01*
X152787095Y-113658523D01*
X152929952Y-113706142D01*
X153501381Y-114277571D01*
X153501381Y-113658523D01*
X147717143Y-101786666D02*
X147764762Y-101834285D01*
X147812381Y-101977142D01*
X147812381Y-102072380D01*
X147764762Y-102215238D01*
X147669524Y-102310476D01*
X147574286Y-102358095D01*
X147383810Y-102405714D01*
X147240952Y-102405714D01*
X147050476Y-102358095D01*
X146955238Y-102310476D01*
X146860000Y-102215238D01*
X146812381Y-102072380D01*
X146812381Y-101977142D01*
X146860000Y-101834285D01*
X146907619Y-101786666D01*
X147812381Y-100834285D02*
X147812381Y-101405714D01*
X147812381Y-101120000D02*
X146812381Y-101120000D01*
X146955238Y-101215238D01*
X147050476Y-101310476D01*
X147098095Y-101405714D01*
X152868334Y-122658143D02*
X152820715Y-122705762D01*
X152677858Y-122753381D01*
X152582620Y-122753381D01*
X152439762Y-122705762D01*
X152344524Y-122610524D01*
X152296905Y-122515286D01*
X152249286Y-122324810D01*
X152249286Y-122181952D01*
X152296905Y-121991476D01*
X152344524Y-121896238D01*
X152439762Y-121801000D01*
X152582620Y-121753381D01*
X152677858Y-121753381D01*
X152820715Y-121801000D01*
X152868334Y-121848619D01*
X153201667Y-121753381D02*
X153820715Y-121753381D01*
X153487381Y-122134333D01*
X153630239Y-122134333D01*
X153725477Y-122181952D01*
X153773096Y-122229571D01*
X153820715Y-122324810D01*
X153820715Y-122562905D01*
X153773096Y-122658143D01*
X153725477Y-122705762D01*
X153630239Y-122753381D01*
X153344524Y-122753381D01*
X153249286Y-122705762D01*
X153201667Y-122658143D01*
X143286267Y-116577181D02*
X143286267Y-117291467D01*
X143238647Y-117434324D01*
X143143409Y-117529562D01*
X143000552Y-117577181D01*
X142905314Y-117577181D01*
X143762457Y-117577181D02*
X143762457Y-116577181D01*
X144143410Y-116577181D01*
X144238648Y-116624800D01*
X144286267Y-116672419D01*
X144333886Y-116767657D01*
X144333886Y-116910514D01*
X144286267Y-117005752D01*
X144238648Y-117053371D01*
X144143410Y-117100990D01*
X143762457Y-117100990D01*
X144667219Y-116577181D02*
X145286267Y-116577181D01*
X144952933Y-116958133D01*
X145095791Y-116958133D01*
X145191029Y-117005752D01*
X145238648Y-117053371D01*
X145286267Y-117148610D01*
X145286267Y-117386705D01*
X145238648Y-117481943D01*
X145191029Y-117529562D01*
X145095791Y-117577181D01*
X144810076Y-117577181D01*
X144714838Y-117529562D01*
X144667219Y-117481943D01*
X175093334Y-117927381D02*
X174760000Y-117451190D01*
X174521905Y-117927381D02*
X174521905Y-116927381D01*
X174902858Y-116927381D01*
X174998096Y-116975000D01*
X175045715Y-117022619D01*
X175093334Y-117117857D01*
X175093334Y-117260714D01*
X175045715Y-117355952D01*
X174998096Y-117403571D01*
X174902858Y-117451190D01*
X174521905Y-117451190D01*
X176045715Y-117927381D02*
X175474286Y-117927381D01*
X175760000Y-117927381D02*
X175760000Y-116927381D01*
X175664762Y-117070238D01*
X175569524Y-117165476D01*
X175474286Y-117213095D01*
X151407762Y-95313333D02*
X151455381Y-95170476D01*
X151455381Y-94932380D01*
X151407762Y-94837142D01*
X151360143Y-94789523D01*
X151264905Y-94741904D01*
X151169667Y-94741904D01*
X151074429Y-94789523D01*
X151026810Y-94837142D01*
X150979190Y-94932380D01*
X150931571Y-95122857D01*
X150883952Y-95218095D01*
X150836333Y-95265714D01*
X150741095Y-95313333D01*
X150645857Y-95313333D01*
X150550619Y-95265714D01*
X150503000Y-95218095D01*
X150455381Y-95122857D01*
X150455381Y-94884761D01*
X150503000Y-94741904D01*
X150455381Y-94408571D02*
X151455381Y-94170476D01*
X150741095Y-93979999D01*
X151455381Y-93789523D01*
X150455381Y-93551428D01*
X150550619Y-93218095D02*
X150503000Y-93170476D01*
X150455381Y-93075238D01*
X150455381Y-92837142D01*
X150503000Y-92741904D01*
X150550619Y-92694285D01*
X150645857Y-92646666D01*
X150741095Y-92646666D01*
X150883952Y-92694285D01*
X151455381Y-93265714D01*
X151455381Y-92646666D01*
X161123334Y-107432143D02*
X161075715Y-107479762D01*
X160932858Y-107527381D01*
X160837620Y-107527381D01*
X160694762Y-107479762D01*
X160599524Y-107384524D01*
X160551905Y-107289286D01*
X160504286Y-107098810D01*
X160504286Y-106955952D01*
X160551905Y-106765476D01*
X160599524Y-106670238D01*
X160694762Y-106575000D01*
X160837620Y-106527381D01*
X160932858Y-106527381D01*
X161075715Y-106575000D01*
X161123334Y-106622619D01*
X161980477Y-106527381D02*
X161790000Y-106527381D01*
X161694762Y-106575000D01*
X161647143Y-106622619D01*
X161551905Y-106765476D01*
X161504286Y-106955952D01*
X161504286Y-107336905D01*
X161551905Y-107432143D01*
X161599524Y-107479762D01*
X161694762Y-107527381D01*
X161885239Y-107527381D01*
X161980477Y-107479762D01*
X162028096Y-107432143D01*
X162075715Y-107336905D01*
X162075715Y-107098810D01*
X162028096Y-107003571D01*
X161980477Y-106955952D01*
X161885239Y-106908333D01*
X161694762Y-106908333D01*
X161599524Y-106955952D01*
X161551905Y-107003571D01*
X161504286Y-107098810D01*
X159218334Y-94732143D02*
X159170715Y-94779762D01*
X159027858Y-94827381D01*
X158932620Y-94827381D01*
X158789762Y-94779762D01*
X158694524Y-94684524D01*
X158646905Y-94589286D01*
X158599286Y-94398810D01*
X158599286Y-94255952D01*
X158646905Y-94065476D01*
X158694524Y-93970238D01*
X158789762Y-93875000D01*
X158932620Y-93827381D01*
X159027858Y-93827381D01*
X159170715Y-93875000D01*
X159218334Y-93922619D01*
X159551667Y-93827381D02*
X160218334Y-93827381D01*
X159789762Y-94827381D01*
X159198334Y-111527143D02*
X159150715Y-111574762D01*
X159007858Y-111622381D01*
X158912620Y-111622381D01*
X158769762Y-111574762D01*
X158674524Y-111479524D01*
X158626905Y-111384286D01*
X158579286Y-111193810D01*
X158579286Y-111050952D01*
X158626905Y-110860476D01*
X158674524Y-110765238D01*
X158769762Y-110670000D01*
X158912620Y-110622381D01*
X159007858Y-110622381D01*
X159150715Y-110670000D01*
X159198334Y-110717619D01*
X159769762Y-111050952D02*
X159674524Y-111003333D01*
X159626905Y-110955714D01*
X159579286Y-110860476D01*
X159579286Y-110812857D01*
X159626905Y-110717619D01*
X159674524Y-110670000D01*
X159769762Y-110622381D01*
X159960239Y-110622381D01*
X160055477Y-110670000D01*
X160103096Y-110717619D01*
X160150715Y-110812857D01*
X160150715Y-110860476D01*
X160103096Y-110955714D01*
X160055477Y-111003333D01*
X159960239Y-111050952D01*
X159769762Y-111050952D01*
X159674524Y-111098571D01*
X159626905Y-111146190D01*
X159579286Y-111241429D01*
X159579286Y-111431905D01*
X159626905Y-111527143D01*
X159674524Y-111574762D01*
X159769762Y-111622381D01*
X159960239Y-111622381D01*
X160055477Y-111574762D01*
X160103096Y-111527143D01*
X160150715Y-111431905D01*
X160150715Y-111241429D01*
X160103096Y-111146190D01*
X160055477Y-111098571D01*
X159960239Y-111050952D01*
X156287381Y-96696905D02*
X157096905Y-96696905D01*
X157192143Y-96649286D01*
X157239762Y-96601667D01*
X157287381Y-96506429D01*
X157287381Y-96315952D01*
X157239762Y-96220714D01*
X157192143Y-96173095D01*
X157096905Y-96125476D01*
X156287381Y-96125476D01*
X156620714Y-95220714D02*
X157287381Y-95220714D01*
X156239762Y-95458810D02*
X156954048Y-95696905D01*
X156954048Y-95077857D01*
X148486905Y-120467381D02*
X148486905Y-119467381D01*
X148867858Y-119467381D01*
X148963096Y-119515000D01*
X149010715Y-119562619D01*
X149058334Y-119657857D01*
X149058334Y-119800714D01*
X149010715Y-119895952D01*
X148963096Y-119943571D01*
X148867858Y-119991190D01*
X148486905Y-119991190D01*
X149915477Y-119800714D02*
X149915477Y-120467381D01*
X149677381Y-119419762D02*
X149439286Y-120134048D01*
X150058334Y-120134048D01*
M02*
