G04 #@! TF.FileFunction,Copper,L1,Top,Signal*
%FSLAX46Y46*%
G04 Gerber Fmt 4.6, Leading zero omitted, Abs format (unit mm)*
G04 Created by KiCad (PCBNEW 4.0.2+dfsg1-stable) date 2016年08月16日 15時24分34秒*
%MOMM*%
G01*
G04 APERTURE LIST*
%ADD10C,0.100000*%
%ADD11C,2.000000*%
%ADD12R,0.900000X1.700000*%
%ADD13C,6.000000*%
%ADD14O,1.117600X1.400000*%
%ADD15R,1.117600X1.905000*%
%ADD16O,1.117600X1.905000*%
%ADD17C,2.540000*%
%ADD18R,2.500000X2.000000*%
%ADD19R,2.800000X1.800000*%
%ADD20R,2.000000X2.000000*%
%ADD21C,1.501140*%
%ADD22O,3.000000X3.000000*%
%ADD23C,1.699260*%
%ADD24R,1.600000X1.200000*%
%ADD25C,1.300000*%
%ADD26R,1.300000X1.300000*%
%ADD27O,2.540000X2.032000*%
%ADD28O,1.600000X1.600000*%
%ADD29C,5.000000*%
%ADD30R,1.998980X0.899160*%
%ADD31R,1.998980X1.000760*%
%ADD32O,2.000000X1.700000*%
%ADD33R,1.200000X0.800000*%
%ADD34O,1.700000X2.000000*%
%ADD35C,1.600000*%
%ADD36C,1.400000*%
%ADD37O,1.400000X1.400000*%
%ADD38R,1.000000X7.410000*%
%ADD39R,1.000000X6.410000*%
%ADD40C,1.397000*%
%ADD41R,1.200000X1.600000*%
%ADD42O,1.500000X1.600000*%
%ADD43C,1.700000*%
%ADD44R,0.900000X0.900000*%
%ADD45R,2.032000X2.032000*%
%ADD46O,2.032000X2.032000*%
%ADD47R,0.650000X1.060000*%
%ADD48C,1.998980*%
%ADD49C,0.600000*%
%ADD50C,1.016000*%
%ADD51C,1.270000*%
%ADD52C,0.203200*%
%ADD53C,0.508000*%
%ADD54C,0.635000*%
G04 APERTURE END LIST*
D10*
D11*
X146304000Y-113030000D03*
X154940000Y-113030000D03*
D12*
X134335000Y-88155000D03*
X134335000Y-106155000D03*
X135835000Y-88155000D03*
X135835000Y-106155000D03*
X137335000Y-88155000D03*
X137335000Y-106155000D03*
X138835000Y-88155000D03*
X138835000Y-106155000D03*
X140335000Y-88155000D03*
X140335000Y-106155000D03*
X141835000Y-88155000D03*
X141835000Y-106155000D03*
X143335000Y-88155000D03*
X143335000Y-106155000D03*
X144835000Y-88155000D03*
X144835000Y-106155000D03*
X146335000Y-88155000D03*
X146335000Y-106155000D03*
D13*
X141135000Y-96055000D03*
D14*
X156210000Y-82550000D03*
D15*
X158115000Y-82550000D03*
D16*
X160020000Y-82550000D03*
D14*
X161925000Y-82550000D03*
D17*
X179070000Y-120650000D03*
X179070000Y-116205000D03*
X182880000Y-116205000D03*
D18*
X141040000Y-117835000D03*
D19*
X131340000Y-117835000D03*
D18*
X137640000Y-112035000D03*
X141040000Y-112035000D03*
X131340000Y-112035000D03*
X134440000Y-112035000D03*
D20*
X166226500Y-89789500D03*
X156226500Y-89789500D03*
X156226500Y-105789500D03*
X166226500Y-105789500D03*
D21*
X162751860Y-121282880D03*
X160211860Y-121282880D03*
X158179860Y-121282880D03*
X155639860Y-121282880D03*
D22*
X165539000Y-122315000D03*
X152739000Y-122315000D03*
D23*
X166370000Y-94424000D03*
X166370000Y-92132920D03*
X166370000Y-96715080D03*
D24*
X163195000Y-96950000D03*
X163195000Y-93550000D03*
D25*
X167092000Y-115824000D03*
D26*
X164592000Y-115824000D03*
D27*
X157784800Y-103530400D03*
X157784800Y-100990400D03*
D28*
X157784800Y-98450400D03*
D29*
X177165000Y-122555000D03*
X177165000Y-114300000D03*
X184785000Y-114300000D03*
D30*
X156210000Y-111125000D03*
D31*
X156210000Y-108585000D03*
X165100000Y-108585000D03*
X165100000Y-111125000D03*
D32*
X145415000Y-85725000D03*
X145415000Y-83185000D03*
X145415000Y-80645000D03*
D33*
X142875000Y-83455000D03*
X142875000Y-85455000D03*
X142875000Y-84455000D03*
D34*
X133350000Y-109220000D03*
X130810000Y-109220000D03*
X128270000Y-109220000D03*
X156845000Y-87376000D03*
X161925000Y-87376000D03*
X159385000Y-87376000D03*
D35*
X164465000Y-87376000D03*
X167005000Y-87376000D03*
D36*
X180340000Y-85090000D03*
X177800000Y-85090000D03*
X175260000Y-85090000D03*
X180340000Y-82550000D03*
X177800000Y-82550000D03*
X175260000Y-82550000D03*
D37*
X177800000Y-80010000D03*
X180340000Y-80010000D03*
D38*
X155695000Y-134765000D03*
D39*
X158195000Y-134265000D03*
X160195000Y-134265000D03*
D38*
X162695000Y-134765000D03*
D40*
X170815000Y-114300000D03*
X173355000Y-114300000D03*
D11*
X146304000Y-115570000D03*
X154940000Y-115570000D03*
D40*
X154305000Y-88265000D03*
X149225000Y-88265000D03*
X154305000Y-80645000D03*
X149225000Y-80645000D03*
D41*
X138860000Y-109220000D03*
X135460000Y-109220000D03*
X141175000Y-109220000D03*
X144575000Y-109220000D03*
D24*
X150749000Y-112649000D03*
X150749000Y-116049000D03*
D26*
X149860000Y-102870000D03*
D25*
X149860000Y-100370000D03*
X147995000Y-124460000D03*
D26*
X150495000Y-124460000D03*
D32*
X187961000Y-109220000D03*
X187961000Y-99060000D03*
X187961000Y-101600000D03*
X187961000Y-106680000D03*
X187961000Y-104140000D03*
X187961000Y-93980000D03*
X187961000Y-96520000D03*
X187961000Y-91440000D03*
X187961000Y-88900000D03*
X180341000Y-109220000D03*
X180341000Y-99060000D03*
X180341000Y-101600000D03*
X180341000Y-106680000D03*
X180341000Y-104140000D03*
X180341000Y-93980000D03*
X180341000Y-96520000D03*
X180341000Y-91440000D03*
X180341000Y-88900000D03*
X175261000Y-109220000D03*
X175261000Y-99060000D03*
X175261000Y-101600000D03*
X175261000Y-106680000D03*
X175261000Y-104140000D03*
X175261000Y-93980000D03*
X175261000Y-96520000D03*
X175261000Y-91440000D03*
X175261000Y-88900000D03*
X177801000Y-109220000D03*
X177801000Y-99060000D03*
X177801000Y-101600000D03*
X177801000Y-106680000D03*
X177801000Y-104140000D03*
X177801000Y-93980000D03*
X177801000Y-96520000D03*
X177801000Y-91440000D03*
X177801000Y-88900000D03*
X182881000Y-109220000D03*
X182881000Y-99060000D03*
X182881000Y-101600000D03*
X182881000Y-106680000D03*
X182881000Y-104140000D03*
X182881000Y-93980000D03*
X182881000Y-96520000D03*
X182881000Y-91440000D03*
X182881000Y-88900000D03*
X170181000Y-109220000D03*
X170181000Y-99060000D03*
X170181000Y-101600000D03*
X170181000Y-106680000D03*
X170181000Y-104140000D03*
X170181000Y-93980000D03*
X170181000Y-96520000D03*
X170181000Y-91440000D03*
D42*
X170181000Y-88900000D03*
D43*
X172721000Y-109220000D03*
D32*
X172721000Y-99060000D03*
X172721000Y-101600000D03*
X172721000Y-106680000D03*
X172721000Y-104140000D03*
X172721000Y-93980000D03*
X172721000Y-96520000D03*
X172721000Y-91440000D03*
X172721000Y-88900000D03*
D44*
X153765000Y-105180000D03*
X149765000Y-105180000D03*
X152425000Y-105180000D03*
X151105000Y-105180000D03*
X152425000Y-108180000D03*
X153765000Y-108180000D03*
X149765000Y-108180000D03*
X151105000Y-108180000D03*
D45*
X144119600Y-122224800D03*
D46*
X144119600Y-124764800D03*
D12*
X170635000Y-117475000D03*
X173535000Y-117475000D03*
D40*
X149225000Y-90170000D03*
X154305000Y-90170000D03*
X149225000Y-97790000D03*
X154305000Y-97790000D03*
D41*
X162990000Y-104775000D03*
X159590000Y-104775000D03*
X161085000Y-92075000D03*
X157685000Y-92075000D03*
D25*
X160615000Y-115570000D03*
D26*
X158115000Y-115570000D03*
D47*
X158435000Y-96985000D03*
X159385000Y-96985000D03*
X160335000Y-96985000D03*
X160335000Y-94785000D03*
X158435000Y-94785000D03*
D44*
X166727000Y-84867500D03*
X166727000Y-80867500D03*
X166727000Y-83527500D03*
X166727000Y-82207500D03*
X163727000Y-83527500D03*
X163727000Y-84867500D03*
X163727000Y-80867500D03*
X163727000Y-82207500D03*
D48*
X149225000Y-122555000D03*
D11*
X132969000Y-106934000D03*
D49*
X151867796Y-103784400D03*
D11*
X163191969Y-94010760D03*
X137890388Y-108997620D03*
X159828613Y-110393027D03*
D49*
X173126400Y-85191600D03*
D11*
X157226000Y-94234000D03*
X155448000Y-129540000D03*
X162026600Y-98958400D03*
X139879033Y-100062824D03*
D49*
X141351000Y-91567000D03*
X149606000Y-84328000D03*
X168148000Y-81534000D03*
X168511210Y-90049289D03*
X151257000Y-87122000D03*
X143510000Y-89535000D03*
X147955000Y-118237000D03*
X151719675Y-84421620D03*
X151747721Y-88447461D03*
X185470800Y-87884000D03*
X157925000Y-125730000D03*
X168803042Y-80492600D03*
X137566400Y-86512400D03*
X144433893Y-104023283D03*
X149606000Y-106172000D03*
X129641600Y-110363000D03*
X134035800Y-104444800D03*
X144835000Y-88155000D03*
X165303200Y-103784400D03*
X152976219Y-107240341D03*
X141834980Y-106155019D03*
X147360054Y-105552955D03*
X143764000Y-104902000D03*
X137287000Y-106299000D03*
X140335000Y-106155000D03*
X147710903Y-91557097D03*
X168046400Y-92506800D03*
X145156694Y-104624903D03*
X155587473Y-100850473D03*
X158622512Y-106659260D03*
X164493589Y-102590600D03*
X138835000Y-106155000D03*
D50*
X134335000Y-106155000D02*
X133748000Y-106155000D01*
X133748000Y-106155000D02*
X132969000Y-106934000D01*
D51*
X157784800Y-100990400D02*
X158292800Y-100990400D01*
X158292800Y-100990400D02*
X159842200Y-102539800D01*
X159842200Y-102539800D02*
X160350200Y-102539800D01*
D52*
X177800000Y-82550000D02*
X177800000Y-80010000D01*
D51*
X133561283Y-106740985D02*
X133162015Y-106740985D01*
X133162015Y-106740985D02*
X132969000Y-106934000D01*
D53*
X151867796Y-103784400D02*
X151105000Y-104547196D01*
X151105000Y-104547196D02*
X151105000Y-105180000D01*
D51*
X163195000Y-93550000D02*
X163195000Y-94007729D01*
X163195000Y-94007729D02*
X163191969Y-94010760D01*
X160350200Y-102539800D02*
X161228013Y-103417613D01*
X161228013Y-103417613D02*
X161228013Y-108993627D01*
X160828612Y-109393028D02*
X159828613Y-110393027D01*
X161228013Y-108993627D02*
X160828612Y-109393028D01*
D53*
X151105000Y-105180000D02*
X149765000Y-105180000D01*
D51*
X138112768Y-109220000D02*
X137890388Y-108997620D01*
X138860000Y-109220000D02*
X138112768Y-109220000D01*
X159828613Y-113856387D02*
X159828613Y-111807240D01*
X159828613Y-111807240D02*
X159828613Y-110393027D01*
X158115000Y-115570000D02*
X159828613Y-113856387D01*
X173177200Y-85242400D02*
X173482000Y-85242400D01*
X173126400Y-85191600D02*
X173177200Y-85242400D01*
X177165000Y-114300000D02*
X179705000Y-116840000D01*
X175261000Y-109220000D02*
X175261000Y-112396000D01*
X175261000Y-112396000D02*
X177165000Y-114300000D01*
X157784800Y-100990400D02*
X157784800Y-100939600D01*
X157784800Y-100939600D02*
X156108400Y-99263200D01*
X156108400Y-99263200D02*
X156108400Y-95351600D01*
X156108400Y-95351600D02*
X157226000Y-94234000D01*
X175261000Y-88900000D02*
X175261000Y-88139000D01*
X175261000Y-88139000D02*
X173482000Y-86360000D01*
X175260000Y-80010000D02*
X177800000Y-80010000D01*
X173482000Y-81788000D02*
X175260000Y-80010000D01*
X173482000Y-86360000D02*
X173482000Y-85242400D01*
X173482000Y-85242400D02*
X173482000Y-81788000D01*
X158435000Y-94785000D02*
X157777000Y-94785000D01*
X157777000Y-94785000D02*
X157226000Y-94234000D01*
X157226000Y-94234000D02*
X156972000Y-93980000D01*
X166226500Y-89789500D02*
X166226500Y-91989420D01*
X166226500Y-91989420D02*
X166370000Y-92132920D01*
X161085000Y-92075000D02*
X161720000Y-92075000D01*
X161720000Y-92075000D02*
X163195000Y-93550000D01*
X175261000Y-96520000D02*
X175261000Y-93980000D01*
D54*
X133465283Y-106836985D02*
X133561283Y-106740985D01*
D51*
X175261000Y-91440000D02*
X175261000Y-88900000D01*
X175261000Y-93980000D02*
X175261000Y-91440000D01*
X175261000Y-99060000D02*
X175261000Y-96520000D01*
X175261000Y-101600000D02*
X175261000Y-99060000D01*
X175261000Y-104140000D02*
X175261000Y-101600000D01*
X175261000Y-106680000D02*
X175261000Y-104140000D01*
X175261000Y-109220000D02*
X175261000Y-106680000D01*
D50*
X155695000Y-134765000D02*
X155695000Y-129787000D01*
X155695000Y-129787000D02*
X155448000Y-129540000D01*
D51*
X160274000Y-98399600D02*
X161340800Y-98399600D01*
D53*
X159385000Y-97637600D02*
X160147000Y-98399600D01*
X160147000Y-98399600D02*
X160274000Y-98399600D01*
X159385000Y-96985000D02*
X159385000Y-97637600D01*
D51*
X161975800Y-98907600D02*
X162026600Y-98958400D01*
X161848800Y-98907600D02*
X161975800Y-98907600D01*
X161340800Y-98399600D02*
X161848800Y-98907600D01*
X154305000Y-90170000D02*
X154305000Y-88265000D01*
X156226500Y-89789500D02*
X155829500Y-89789500D01*
X155829500Y-89789500D02*
X154305000Y-88265000D01*
X154305000Y-90170000D02*
X155846000Y-90170000D01*
X155846000Y-90170000D02*
X156226500Y-89789500D01*
X154305000Y-97790000D02*
X154305000Y-90170000D01*
X156226500Y-89789500D02*
X156226500Y-90616500D01*
X156226500Y-90616500D02*
X157685000Y-92075000D01*
D52*
X180340000Y-82550000D02*
X180340000Y-85090000D01*
X180340000Y-82550000D02*
X180340000Y-80010000D01*
D51*
X142074886Y-102258677D02*
X140879032Y-101062823D01*
D54*
X137287000Y-97470791D02*
X138879034Y-99062825D01*
D51*
X144386448Y-102258677D02*
X142074886Y-102258677D01*
D54*
X137287000Y-97409000D02*
X137287000Y-97470791D01*
D51*
X140879032Y-101062823D02*
X139879033Y-100062824D01*
D54*
X138879034Y-99062825D02*
X139879033Y-100062824D01*
D51*
X144535000Y-102235000D02*
X144511323Y-102258677D01*
X144511323Y-102258677D02*
X144386448Y-102258677D01*
D54*
X146335000Y-104207229D02*
X144386448Y-102258677D01*
X146335000Y-106155000D02*
X146335000Y-104207229D01*
D51*
X146291696Y-103991696D02*
X144535000Y-102235000D01*
X146335000Y-106155000D02*
X146150011Y-105970011D01*
X146291696Y-105169705D02*
X146291696Y-103991696D01*
X146150011Y-105311390D02*
X146291696Y-105169705D01*
X146150011Y-105970011D02*
X146150011Y-105311390D01*
X157274260Y-110231578D02*
X159758002Y-107747836D01*
X159758002Y-107747836D02*
X159758002Y-104943002D01*
X157274260Y-111203740D02*
X157274260Y-110231578D01*
X159758002Y-104943002D02*
X159590000Y-104775000D01*
D53*
X152425000Y-108180000D02*
X152425000Y-109138000D01*
X154490740Y-111203740D02*
X154712670Y-111203740D01*
X152425000Y-109138000D02*
X154490740Y-111203740D01*
X154712670Y-111203740D02*
X156220160Y-111203740D01*
D51*
X150749000Y-116049000D02*
X150549000Y-116049000D01*
X146335000Y-108414152D02*
X146335000Y-107320600D01*
X148194854Y-110274006D02*
X146335000Y-108414152D01*
X148194854Y-113694854D02*
X148194854Y-110274006D01*
X150549000Y-116049000D02*
X148194854Y-113694854D01*
X131340000Y-112035000D02*
X131340000Y-111636400D01*
X131340000Y-111636400D02*
X133350000Y-109626400D01*
X133350000Y-109626400D02*
X133350000Y-109220000D01*
X154940000Y-115570000D02*
X155092400Y-115570000D01*
X155092400Y-115570000D02*
X157274260Y-113388140D01*
X157274260Y-113388140D02*
X157274260Y-111203740D01*
X154940000Y-115570000D02*
X154940000Y-118872000D01*
X154940000Y-118872000D02*
X152739000Y-121073000D01*
X152739000Y-121073000D02*
X152739000Y-122315000D01*
X177165000Y-122555000D02*
X176047400Y-122555000D01*
X176047400Y-122555000D02*
X173685200Y-120192800D01*
X173685200Y-120192800D02*
X172669200Y-120192800D01*
X172669200Y-120192800D02*
X170815000Y-118338600D01*
X170815000Y-118338600D02*
X170815000Y-114300000D01*
X177801000Y-88900000D02*
X177801000Y-87629000D01*
X177801000Y-87629000D02*
X180340000Y-85090000D01*
X180340000Y-85090000D02*
X180340000Y-80010000D01*
X170635000Y-117475000D02*
X170635000Y-118158600D01*
X175031400Y-122555000D02*
X177165000Y-122555000D01*
X170815000Y-114300000D02*
X170815000Y-117295000D01*
X170815000Y-117295000D02*
X170635000Y-117475000D01*
X152739000Y-122315000D02*
X152739000Y-118039000D01*
X152739000Y-118039000D02*
X150749000Y-116049000D01*
X135460000Y-109220000D02*
X133350000Y-109220000D01*
X144575000Y-109220000D02*
X145592800Y-109220000D01*
X146335000Y-108477800D02*
X146335000Y-107320600D01*
X146335000Y-107320600D02*
X146335000Y-106155000D01*
X145592800Y-109220000D02*
X146335000Y-108477800D01*
X154305000Y-88265000D02*
X154305000Y-80645000D01*
X156220160Y-111203740D02*
X157274260Y-111203740D01*
X157784800Y-103530400D02*
X158345400Y-103530400D01*
X158345400Y-103530400D02*
X159590000Y-104775000D01*
X156226500Y-105789500D02*
X156226500Y-105088700D01*
X156226500Y-105088700D02*
X157784800Y-103530400D01*
X141835000Y-89640000D02*
X141835000Y-91083000D01*
X141835000Y-91083000D02*
X141351000Y-91567000D01*
X141835000Y-88155000D02*
X141835000Y-89640000D01*
X134335000Y-88155000D02*
X134335000Y-90393000D01*
X134335000Y-90393000D02*
X135667235Y-91725235D01*
X145415000Y-80645000D02*
X145923000Y-80645000D01*
X156845000Y-87376000D02*
X156845000Y-89171000D01*
X156845000Y-89171000D02*
X156226500Y-89789500D01*
X158115000Y-82550000D02*
X158115000Y-86106000D01*
X158115000Y-86106000D02*
X156845000Y-87376000D01*
X144535000Y-102235000D02*
X142190001Y-99890001D01*
X128820000Y-114305000D02*
X128820000Y-111294000D01*
X131340000Y-112035000D02*
X131090000Y-112035000D01*
X131090000Y-112035000D02*
X128820000Y-114305000D01*
X128820000Y-114305000D02*
X128820000Y-115565000D01*
X128820000Y-115565000D02*
X131090000Y-117835000D01*
X131090000Y-117835000D02*
X131340000Y-117835000D01*
X140970000Y-91725235D02*
X135667235Y-91725235D01*
X135667235Y-91725235D02*
X134366235Y-91725235D01*
X134335000Y-95092000D02*
X134335000Y-91694000D01*
X134366235Y-91725235D02*
X134335000Y-91694000D01*
D54*
X140970000Y-91725235D02*
X141351000Y-91567000D01*
D51*
X141835000Y-90860235D02*
X140970000Y-91725235D01*
X139133001Y-99890001D02*
X134335000Y-95092000D01*
X142190001Y-99890001D02*
X139133001Y-99890001D01*
X177801000Y-106680000D02*
X177801000Y-109220000D01*
X177801000Y-104140000D02*
X177801000Y-106680000D01*
X177801000Y-101600000D02*
X177801000Y-104140000D01*
X177801000Y-99060000D02*
X177801000Y-101600000D01*
X177801000Y-96520000D02*
X177801000Y-99060000D01*
X177801000Y-93980000D02*
X177801000Y-96520000D01*
X177801000Y-91440000D02*
X177801000Y-93980000D01*
X177801000Y-88900000D02*
X177801000Y-91440000D01*
D52*
X156210000Y-82550000D02*
X156210000Y-81737200D01*
X156210000Y-81737200D02*
X156768800Y-81178400D01*
X156768800Y-81178400D02*
X158851600Y-81178400D01*
X158851600Y-81178400D02*
X159105600Y-81432400D01*
X159105600Y-81432400D02*
X159105600Y-83870800D01*
X159105600Y-83870800D02*
X160102300Y-84867500D01*
X160102300Y-84867500D02*
X163727000Y-84867500D01*
X163727000Y-83527500D02*
X163411300Y-83527500D01*
X163411300Y-83527500D02*
X162814000Y-84124800D01*
X162814000Y-84124800D02*
X161594800Y-84124800D01*
X161594800Y-84124800D02*
X160020000Y-82550000D01*
X163727000Y-82207500D02*
X162267500Y-82207500D01*
X162267500Y-82207500D02*
X161925000Y-82550000D01*
X151257000Y-89027000D02*
X151257000Y-99660250D01*
X150628312Y-87195112D02*
X146618200Y-83185000D01*
X146618200Y-83185000D02*
X145415000Y-83185000D01*
X151257000Y-89027000D02*
X150628312Y-88398312D01*
X150628312Y-88398312D02*
X150628312Y-87195112D01*
X153765000Y-105180000D02*
X153765000Y-104526800D01*
X153765000Y-104526800D02*
X151637981Y-102399781D01*
X151637981Y-102399781D02*
X151637981Y-100041231D01*
X151637981Y-100041231D02*
X151257000Y-99660250D01*
X149606000Y-84328000D02*
X147091400Y-81813400D01*
X147091400Y-81813400D02*
X143941800Y-81813400D01*
X167881810Y-81800190D02*
X168148000Y-81534000D01*
X167881810Y-82042000D02*
X167881810Y-82550000D01*
X167881810Y-82042000D02*
X167881810Y-81800190D01*
X167881810Y-82550000D02*
X167881810Y-84365890D01*
X167881810Y-82550000D02*
X167894000Y-82550000D01*
X167881810Y-84365890D02*
X167380200Y-84867500D01*
X142875000Y-83455000D02*
X142875000Y-82851800D01*
X142875000Y-82851800D02*
X143913400Y-81813400D01*
X143913400Y-81813400D02*
X143941800Y-81813400D01*
X168373411Y-88169110D02*
X168373411Y-89911490D01*
X168678211Y-87864310D02*
X168373411Y-88169110D01*
X168678211Y-86165511D02*
X168678211Y-87864310D01*
X167380200Y-84867500D02*
X168678211Y-86165511D01*
X168373411Y-89911490D02*
X168511210Y-90049289D01*
X167380200Y-84867500D02*
X166727000Y-84867500D01*
X142875000Y-84455000D02*
X142875000Y-83851800D01*
X142875000Y-84455000D02*
X142875000Y-83455000D01*
X135835000Y-88155000D02*
X135835000Y-86821400D01*
X142011400Y-84455000D02*
X142875000Y-84455000D01*
X141173200Y-85293200D02*
X142011400Y-84455000D01*
X137363200Y-85293200D02*
X141173200Y-85293200D01*
X135835000Y-86821400D02*
X137363200Y-85293200D01*
X150749000Y-82169000D02*
X149225000Y-80645000D01*
X150749000Y-86614000D02*
X150749000Y-82169000D01*
X151257000Y-87122000D02*
X150749000Y-86614000D01*
X147320000Y-84531200D02*
X147320000Y-84582000D01*
X149225000Y-86487000D02*
X149225000Y-88265000D01*
X147320000Y-84582000D02*
X149225000Y-86487000D01*
X142875000Y-85455000D02*
X143678200Y-85455000D01*
X144602000Y-84531200D02*
X147320000Y-84531200D01*
X147320000Y-84531200D02*
X147333974Y-84531200D01*
X143678200Y-85455000D02*
X144602000Y-84531200D01*
X138835000Y-87021800D02*
X138835000Y-88155000D01*
X142875000Y-85455000D02*
X141976600Y-85455000D01*
X139700000Y-86156800D02*
X138835000Y-87021800D01*
X141274800Y-86156800D02*
X139700000Y-86156800D01*
X141976600Y-85455000D02*
X141274800Y-86156800D01*
X143510000Y-89535000D02*
X143510000Y-88330000D01*
D51*
X157784800Y-98450400D02*
X158140400Y-98450400D01*
X158140400Y-98450400D02*
X159893000Y-100203000D01*
X159893000Y-100203000D02*
X160655000Y-100203000D01*
X167219629Y-104796371D02*
X167219629Y-97564709D01*
X167219629Y-97564709D02*
X166370000Y-96715080D01*
X166861500Y-106424500D02*
X167219629Y-104796371D01*
X160335000Y-94785000D02*
X160335000Y-94295000D01*
X160335000Y-94295000D02*
X159512000Y-93472000D01*
X161925000Y-88519000D02*
X161925000Y-87376000D01*
X159512000Y-90932000D02*
X161925000Y-88519000D01*
X159512000Y-93472000D02*
X159512000Y-90932000D01*
D53*
X158435000Y-96985000D02*
X158435000Y-96327000D01*
X159977000Y-94785000D02*
X160335000Y-94785000D01*
X158435000Y-96327000D02*
X159977000Y-94785000D01*
X158435000Y-96985000D02*
X158435000Y-97470000D01*
X158435000Y-97470000D02*
X157784800Y-98450400D01*
D51*
X162990000Y-102538000D02*
X162990000Y-104775000D01*
X160655000Y-100203000D02*
X162990000Y-102538000D01*
X164592000Y-115824000D02*
X164592000Y-114046000D01*
X167005000Y-112903000D02*
X167005000Y-106568000D01*
X164592000Y-114046000D02*
X167005000Y-112903000D01*
X167005000Y-106568000D02*
X166861500Y-106424500D01*
X162695000Y-128778000D02*
X162814000Y-128778000D01*
X164592000Y-117348000D02*
X164592000Y-115824000D01*
X168402000Y-121158000D02*
X164592000Y-117348000D01*
X168402000Y-123190000D02*
X168402000Y-121158000D01*
X162814000Y-128778000D02*
X168402000Y-123190000D01*
X166861500Y-106424500D02*
X164004500Y-105789500D01*
X164004500Y-105789500D02*
X162990000Y-104775000D01*
X165089840Y-108554520D02*
X165089840Y-107456430D01*
X165089840Y-107456430D02*
X166861500Y-106424500D01*
X162695000Y-134765000D02*
X162695000Y-128778000D01*
X162695000Y-128778000D02*
X162695000Y-128580000D01*
D52*
X147995000Y-124460000D02*
X147995000Y-124246000D01*
X147995000Y-124246000D02*
X147320000Y-123571000D01*
X147320000Y-120777000D02*
X147995000Y-120102000D01*
X147320000Y-123571000D02*
X147320000Y-120777000D01*
X147995000Y-118404000D02*
X147955000Y-118364000D01*
X147955000Y-118364000D02*
X147955000Y-118237000D01*
X147995000Y-120102000D02*
X147995000Y-118404000D01*
X151719675Y-84421620D02*
X151858620Y-84421620D01*
X152146000Y-88049182D02*
X151747721Y-88447461D01*
X152146000Y-84709000D02*
X152146000Y-88049182D01*
X151858620Y-84421620D02*
X152146000Y-84709000D01*
X144907000Y-86995000D02*
X144526000Y-86995000D01*
X144018000Y-86487000D02*
X144018000Y-86512400D01*
X144043400Y-86512400D02*
X144018000Y-86487000D01*
X144526000Y-86995000D02*
X144043400Y-86512400D01*
X147955000Y-88900000D02*
X147955000Y-87630000D01*
X147955000Y-87630000D02*
X147320000Y-86995000D01*
X147320000Y-86995000D02*
X144907000Y-86995000D01*
X147955000Y-88900000D02*
X149225000Y-90170000D01*
X149225000Y-90170000D02*
X149225000Y-97790000D01*
X185775600Y-88613064D02*
X185775600Y-89404600D01*
X185775600Y-89404600D02*
X187811000Y-91440000D01*
X187811000Y-91440000D02*
X187961000Y-91440000D01*
X185470800Y-87884000D02*
X185470800Y-88308264D01*
X185470800Y-88308264D02*
X185775600Y-88613064D01*
X140335000Y-88155000D02*
X140335000Y-87706200D01*
X140335000Y-87706200D02*
X141528800Y-86512400D01*
X141528800Y-86512400D02*
X144018000Y-86512400D01*
D53*
X160195000Y-134265000D02*
X160195000Y-124825000D01*
X158179860Y-122809860D02*
X158179860Y-121282880D01*
X160195000Y-124825000D02*
X158179860Y-122809860D01*
X158195000Y-134265000D02*
X158195000Y-126000000D01*
X158195000Y-126000000D02*
X157925000Y-125730000D01*
X173355000Y-114300000D02*
X172656501Y-113601501D01*
X172656501Y-113601501D02*
X172568353Y-113601501D01*
X172568353Y-113601501D02*
X168340862Y-109374010D01*
X168976990Y-89448717D02*
X168976990Y-88351283D01*
X168340862Y-109374010D02*
X168340862Y-93328262D01*
X169233822Y-85032822D02*
X168437421Y-84236420D01*
X168340862Y-93328262D02*
X168800402Y-92868722D01*
X168472086Y-82296000D02*
X169103041Y-81665045D01*
X168976990Y-88351283D02*
X169233822Y-88094451D01*
X168800402Y-92868722D02*
X168800402Y-92144878D01*
X168800402Y-92144878D02*
X168726990Y-92071466D01*
X169300422Y-90326430D02*
X169300422Y-89772149D01*
X168726990Y-92071466D02*
X168726990Y-90899862D01*
X169103041Y-81665045D02*
X169103041Y-80792599D01*
X168726990Y-90899862D02*
X169300422Y-90326430D01*
X169233822Y-88094451D02*
X169233822Y-85032822D01*
X169300422Y-89772149D02*
X168976990Y-89448717D01*
X168437421Y-84236420D02*
X168472086Y-82296000D01*
X169103041Y-80792599D02*
X168803042Y-80492600D01*
X137335000Y-88155000D02*
X137335000Y-86743800D01*
X137335000Y-86743800D02*
X137566400Y-86512400D01*
X183515000Y-116840000D02*
X183515000Y-115570000D01*
X183515000Y-115570000D02*
X184785000Y-114300000D01*
X173535000Y-117475000D02*
X175539400Y-117475000D01*
X181635400Y-118719600D02*
X183515000Y-116840000D01*
X176784000Y-118719600D02*
X181635400Y-118719600D01*
X175539400Y-117475000D02*
X176784000Y-118719600D01*
X173535000Y-117475000D02*
X173535000Y-114480000D01*
X173535000Y-114480000D02*
X173355000Y-114300000D01*
D50*
X165100000Y-111125000D02*
X163850320Y-111125000D01*
D51*
X162560000Y-112415320D02*
X163819840Y-111155480D01*
X162560000Y-116586000D02*
X162560000Y-112415320D01*
X160782000Y-118364000D02*
X162560000Y-116586000D01*
X158496000Y-118364000D02*
X160782000Y-118364000D01*
X158496000Y-118364000D02*
X155639860Y-121220140D01*
D52*
X163850320Y-111125000D02*
X163819840Y-111155480D01*
D51*
X155639860Y-121282880D02*
X155639860Y-121220140D01*
D52*
X144009629Y-104023283D02*
X144433893Y-104023283D01*
X137566717Y-104023283D02*
X144009629Y-104023283D01*
X135835000Y-105755000D02*
X137566717Y-104023283D01*
X135835000Y-106155000D02*
X135835000Y-105755000D01*
X149606000Y-106172000D02*
X149905999Y-106471999D01*
X149905999Y-106471999D02*
X150540999Y-106471999D01*
X150540999Y-106471999D02*
X151130000Y-107061000D01*
X135835000Y-106555000D02*
X135835000Y-106155000D01*
X139405774Y-107696000D02*
X136976000Y-107696000D01*
X139926574Y-108216800D02*
X139405774Y-107696000D01*
X140371800Y-108216800D02*
X139926574Y-108216800D01*
X141175000Y-109020000D02*
X140371800Y-108216800D01*
X141175000Y-109220000D02*
X141175000Y-109020000D01*
X136976000Y-107696000D02*
X135835000Y-106555000D01*
X151130000Y-107061000D02*
X151130000Y-108155000D01*
X151130000Y-108155000D02*
X151105000Y-108180000D01*
X129658390Y-110252790D02*
X129641600Y-110269580D01*
X129641600Y-110269580D02*
X129641600Y-110363000D01*
X133227801Y-104744799D02*
X129658390Y-108314210D01*
X129658390Y-108314210D02*
X129658390Y-110252790D01*
X134035800Y-104444800D02*
X133735801Y-104744799D01*
X133735801Y-104744799D02*
X133227801Y-104744799D01*
X150495000Y-124460000D02*
X150495000Y-123825000D01*
X150495000Y-123825000D02*
X149225000Y-122555000D01*
X150749000Y-112649000D02*
X154559000Y-112649000D01*
X154559000Y-112649000D02*
X154940000Y-113030000D01*
X165303200Y-103784400D02*
X165481000Y-103962200D01*
X164896800Y-103378000D02*
X165303200Y-103784400D01*
X164896800Y-88648570D02*
X164896800Y-102128841D01*
X165557200Y-86763830D02*
X165811200Y-87017830D01*
X166073800Y-82207500D02*
X165557200Y-82724100D01*
X166727000Y-82207500D02*
X166073800Y-82207500D01*
X165557200Y-82724100D02*
X165557200Y-86763830D01*
X165095190Y-102327231D02*
X165095190Y-102955569D01*
X165095190Y-102955569D02*
X164896800Y-103153959D01*
X164896800Y-103153959D02*
X164896800Y-103378000D01*
X165811200Y-87734170D02*
X164896800Y-88648570D01*
X164896800Y-102128841D02*
X165095190Y-102327231D01*
X165811200Y-87017830D02*
X165811200Y-87734170D01*
X152400000Y-106553000D02*
X152400000Y-106680000D01*
X152400000Y-105858200D02*
X152400000Y-106553000D01*
X152400000Y-106553000D02*
X152400000Y-106664122D01*
X152400000Y-106664122D02*
X152976219Y-107240341D01*
X152425000Y-105180000D02*
X152425000Y-105833200D01*
X152425000Y-105833200D02*
X152400000Y-105858200D01*
X149765000Y-108180000D02*
X149765000Y-107526800D01*
X147784318Y-105552955D02*
X147360054Y-105552955D01*
X149765000Y-107526800D02*
X147791155Y-105552955D01*
X147791155Y-105552955D02*
X147784318Y-105552955D01*
X143764000Y-105326000D02*
X143764000Y-104902000D01*
X143335000Y-106155000D02*
X143335000Y-105755000D01*
X143335000Y-105755000D02*
X143764000Y-105326000D01*
X143335000Y-106064473D02*
X143420378Y-105979095D01*
X143335000Y-106155000D02*
X143335000Y-106064473D01*
X137287000Y-106299000D02*
X137335000Y-106251000D01*
X137335000Y-106251000D02*
X137335000Y-106155000D01*
X166037550Y-83563750D02*
X166690750Y-83563750D01*
X166690750Y-83563750D02*
X166727000Y-83527500D01*
X166727000Y-80867500D02*
X167380200Y-80867500D01*
X167380200Y-83527500D02*
X166727000Y-83527500D01*
X167478601Y-83429099D02*
X167380200Y-83527500D01*
X167478601Y-80965901D02*
X167478601Y-83429099D01*
X167380200Y-80867500D02*
X167478601Y-80965901D01*
X147410904Y-91257098D02*
X147710903Y-91557097D01*
X146335000Y-90181194D02*
X147410904Y-91257098D01*
X146335000Y-88155000D02*
X146335000Y-90181194D01*
X167944800Y-90373251D02*
X167944800Y-92405200D01*
X167944800Y-92405200D02*
X168046400Y-92506800D01*
X167817800Y-90246251D02*
X167944800Y-90373251D01*
X167817800Y-88154495D02*
X167817800Y-90246251D01*
X168156601Y-87494401D02*
X168156601Y-87815694D01*
X168156601Y-87815694D02*
X167817800Y-88154495D01*
X168275000Y-87503000D02*
X168275000Y-87630002D01*
X168275000Y-87503000D02*
X168275000Y-87376002D01*
X168275000Y-87376002D02*
X168156601Y-87494401D01*
X168275000Y-86941630D02*
X168275000Y-87376002D01*
X165975399Y-85711399D02*
X167044769Y-85711399D01*
X167044769Y-85711399D02*
X168275000Y-86941630D01*
X166073800Y-83527500D02*
X166037550Y-83563750D01*
X166037550Y-83563750D02*
X165975399Y-83625901D01*
X165975399Y-83625901D02*
X165975399Y-85711399D01*
X144835000Y-106155000D02*
X144835000Y-104946597D01*
X144856695Y-104924902D02*
X145156694Y-104624903D01*
X144835000Y-104946597D02*
X144856695Y-104924902D01*
X155287474Y-101150472D02*
X155587473Y-100850473D01*
X154901672Y-101536274D02*
X155287474Y-101150472D01*
X154901672Y-106390128D02*
X154901672Y-101536274D01*
X153765000Y-107526800D02*
X154901672Y-106390128D01*
X153765000Y-108180000D02*
X153765000Y-107526800D01*
X158496000Y-106659262D02*
X158622510Y-106659262D01*
X156719270Y-108554520D02*
X158614530Y-106659260D01*
X156220160Y-108554520D02*
X156719270Y-108554520D01*
X158622510Y-106659262D02*
X158622512Y-106659260D01*
X158614530Y-106659260D02*
X158622512Y-106659260D01*
X164493589Y-92927815D02*
X164493589Y-102133400D01*
X164493589Y-102590600D02*
X164493589Y-102133400D01*
X163727000Y-80867500D02*
X164380200Y-80867500D01*
X164380200Y-80867500D02*
X164478601Y-80965901D01*
X164478601Y-80965901D02*
X164478601Y-85711399D01*
X164478601Y-85711399D02*
X163195000Y-86995000D01*
X163195000Y-86995000D02*
X163195000Y-91629226D01*
X163195000Y-91629226D02*
X164493589Y-92927815D01*
X142875000Y-119761000D02*
X142875000Y-108977118D01*
X142875000Y-108977118D02*
X141204483Y-107306601D01*
X141204483Y-107306601D02*
X139586601Y-107306601D01*
X139586601Y-107306601D02*
X138835000Y-106555000D01*
X138835000Y-106555000D02*
X138835000Y-106155000D01*
X144119600Y-122224800D02*
X144119600Y-121005600D01*
X144119600Y-121005600D02*
X142875000Y-119761000D01*
X138811000Y-106179000D02*
X138835000Y-106155000D01*
X138835000Y-105723736D02*
X138835000Y-106155000D01*
X146304000Y-115570000D02*
X146304000Y-122580400D01*
X146304000Y-122580400D02*
X144119600Y-124764800D01*
D54*
X160335000Y-96985000D02*
X163160000Y-96985000D01*
X163160000Y-96985000D02*
X163195000Y-96950000D01*
D52*
X163160000Y-96985000D02*
X163195000Y-96950000D01*
M02*
