G04 #@! TF.FileFunction,Soldermask,Top*
%FSLAX46Y46*%
G04 Gerber Fmt 4.6, Leading zero omitted, Abs format (unit mm)*
G04 Created by KiCad (PCBNEW 4.0.2+dfsg1-stable) date 2016年08月16日 15時24分34秒*
%MOMM*%
G01*
G04 APERTURE LIST*
%ADD10C,0.100000*%
%ADD11C,2.400000*%
%ADD12R,1.300000X2.100000*%
%ADD13C,6.400000*%
%ADD14O,1.517600X1.800000*%
%ADD15R,1.517600X2.305000*%
%ADD16O,1.517600X2.305000*%
%ADD17C,2.940000*%
%ADD18R,2.900000X2.400000*%
%ADD19R,3.200000X2.200000*%
%ADD20C,1.900000*%
%ADD21R,2.400000X2.400000*%
%ADD22C,1.901140*%
%ADD23O,3.400000X3.400000*%
%ADD24C,2.099260*%
%ADD25R,2.000000X1.600000*%
%ADD26C,1.700000*%
%ADD27R,1.700000X1.700000*%
%ADD28O,2.940000X2.432000*%
%ADD29O,2.000000X2.000000*%
%ADD30C,5.400000*%
%ADD31R,2.398980X1.299160*%
%ADD32R,2.398980X1.400760*%
%ADD33O,2.400000X2.100000*%
%ADD34R,1.600000X1.200000*%
%ADD35O,2.100000X2.400000*%
%ADD36C,2.000000*%
%ADD37C,1.800000*%
%ADD38O,1.800000X1.800000*%
%ADD39R,1.400000X7.810000*%
%ADD40R,1.400000X6.810000*%
%ADD41R,12.100000X12.100000*%
%ADD42C,1.797000*%
%ADD43R,1.600000X2.000000*%
%ADD44O,1.900000X2.000000*%
%ADD45C,2.100000*%
%ADD46R,1.300000X1.300000*%
%ADD47R,2.432000X2.432000*%
%ADD48O,2.432000X2.432000*%
%ADD49R,1.050000X1.460000*%
%ADD50C,2.398980*%
G04 APERTURE END LIST*
D10*
D11*
X146304000Y-113030000D03*
X154940000Y-113030000D03*
D12*
X134335000Y-88155000D03*
X134335000Y-106155000D03*
X135835000Y-88155000D03*
X135835000Y-106155000D03*
X137335000Y-88155000D03*
X137335000Y-106155000D03*
X138835000Y-88155000D03*
X138835000Y-106155000D03*
X140335000Y-88155000D03*
X140335000Y-106155000D03*
X141835000Y-88155000D03*
X141835000Y-106155000D03*
X143335000Y-88155000D03*
X143335000Y-106155000D03*
X144835000Y-88155000D03*
X144835000Y-106155000D03*
X146335000Y-88155000D03*
X146335000Y-106155000D03*
D13*
X141135000Y-96055000D03*
D14*
X156210000Y-82550000D03*
D15*
X158115000Y-82550000D03*
D16*
X160020000Y-82550000D03*
D14*
X161925000Y-82550000D03*
D17*
X179070000Y-120650000D03*
X179070000Y-116205000D03*
X182880000Y-116205000D03*
D18*
X141040000Y-117835000D03*
D19*
X131340000Y-117835000D03*
D18*
X137640000Y-112035000D03*
X141040000Y-112035000D03*
X131340000Y-112035000D03*
D20*
X132040000Y-114935000D03*
X141240000Y-114935000D03*
D18*
X134440000Y-112035000D03*
D21*
X166226500Y-89789500D03*
X156226500Y-89789500D03*
X156226500Y-105789500D03*
X166226500Y-105789500D03*
D22*
X162751860Y-121282880D03*
X160211860Y-121282880D03*
X158179860Y-121282880D03*
X155639860Y-121282880D03*
D23*
X165539000Y-122315000D03*
X152739000Y-122315000D03*
D24*
X166370000Y-94424000D03*
X166370000Y-92132920D03*
X166370000Y-96715080D03*
D25*
X163195000Y-96950000D03*
X163195000Y-93550000D03*
D26*
X167092000Y-115824000D03*
D27*
X164592000Y-115824000D03*
D28*
X157784800Y-103530400D03*
X157784800Y-100990400D03*
D29*
X157784800Y-98450400D03*
D30*
X177165000Y-122555000D03*
X177165000Y-114300000D03*
X184785000Y-114300000D03*
D31*
X156210000Y-111125000D03*
D32*
X156210000Y-108585000D03*
X165100000Y-108585000D03*
X165100000Y-111125000D03*
D33*
X145415000Y-85725000D03*
X145415000Y-83185000D03*
X145415000Y-80645000D03*
D34*
X142875000Y-83455000D03*
X142875000Y-85455000D03*
X142875000Y-84455000D03*
D35*
X133350000Y-109220000D03*
X130810000Y-109220000D03*
X128270000Y-109220000D03*
X156845000Y-87376000D03*
X161925000Y-87376000D03*
X159385000Y-87376000D03*
D36*
X164465000Y-87376000D03*
X167005000Y-87376000D03*
D37*
X180340000Y-85090000D03*
X177800000Y-85090000D03*
X175260000Y-85090000D03*
X180340000Y-82550000D03*
X177800000Y-82550000D03*
X175260000Y-82550000D03*
D38*
X177800000Y-80010000D03*
X180340000Y-80010000D03*
D39*
X155695000Y-134765000D03*
D40*
X158195000Y-134265000D03*
X160195000Y-134265000D03*
D39*
X162695000Y-134765000D03*
D41*
X159195000Y-133845000D03*
D42*
X170815000Y-114300000D03*
X173355000Y-114300000D03*
D11*
X146304000Y-115570000D03*
X154940000Y-115570000D03*
D42*
X154305000Y-88265000D03*
X149225000Y-88265000D03*
X154305000Y-80645000D03*
X149225000Y-80645000D03*
D43*
X138860000Y-109220000D03*
X135460000Y-109220000D03*
X141175000Y-109220000D03*
X144575000Y-109220000D03*
D25*
X150749000Y-112649000D03*
X150749000Y-116049000D03*
D27*
X149860000Y-102870000D03*
D26*
X149860000Y-100370000D03*
X147995000Y-124460000D03*
D27*
X150495000Y-124460000D03*
D33*
X187961000Y-109220000D03*
X187961000Y-99060000D03*
X187961000Y-101600000D03*
X187961000Y-106680000D03*
X187961000Y-104140000D03*
X187961000Y-93980000D03*
X187961000Y-96520000D03*
X187961000Y-91440000D03*
X187961000Y-88900000D03*
X180341000Y-109220000D03*
X180341000Y-99060000D03*
X180341000Y-101600000D03*
X180341000Y-106680000D03*
X180341000Y-104140000D03*
X180341000Y-93980000D03*
X180341000Y-96520000D03*
X180341000Y-91440000D03*
X180341000Y-88900000D03*
X175261000Y-109220000D03*
X175261000Y-99060000D03*
X175261000Y-101600000D03*
X175261000Y-106680000D03*
X175261000Y-104140000D03*
X175261000Y-93980000D03*
X175261000Y-96520000D03*
X175261000Y-91440000D03*
X175261000Y-88900000D03*
X177801000Y-109220000D03*
X177801000Y-99060000D03*
X177801000Y-101600000D03*
X177801000Y-106680000D03*
X177801000Y-104140000D03*
X177801000Y-93980000D03*
X177801000Y-96520000D03*
X177801000Y-91440000D03*
X177801000Y-88900000D03*
X182881000Y-109220000D03*
X182881000Y-99060000D03*
X182881000Y-101600000D03*
X182881000Y-106680000D03*
X182881000Y-104140000D03*
X182881000Y-93980000D03*
X182881000Y-96520000D03*
X182881000Y-91440000D03*
X182881000Y-88900000D03*
X170181000Y-109220000D03*
X170181000Y-99060000D03*
X170181000Y-101600000D03*
X170181000Y-106680000D03*
X170181000Y-104140000D03*
X170181000Y-93980000D03*
X170181000Y-96520000D03*
X170181000Y-91440000D03*
D44*
X170181000Y-88900000D03*
D45*
X172721000Y-109220000D03*
D33*
X172721000Y-99060000D03*
X172721000Y-101600000D03*
X172721000Y-106680000D03*
X172721000Y-104140000D03*
X172721000Y-93980000D03*
X172721000Y-96520000D03*
X172721000Y-91440000D03*
X172721000Y-88900000D03*
D46*
X153765000Y-105180000D03*
X149765000Y-105180000D03*
X152425000Y-105180000D03*
X151105000Y-105180000D03*
X152425000Y-108180000D03*
X153765000Y-108180000D03*
X149765000Y-108180000D03*
X151105000Y-108180000D03*
D47*
X144119600Y-122224800D03*
D48*
X144119600Y-124764800D03*
D12*
X170635000Y-117475000D03*
X173535000Y-117475000D03*
D42*
X149225000Y-90170000D03*
X154305000Y-90170000D03*
X149225000Y-97790000D03*
X154305000Y-97790000D03*
D43*
X162990000Y-104775000D03*
X159590000Y-104775000D03*
X161085000Y-92075000D03*
X157685000Y-92075000D03*
D26*
X160615000Y-115570000D03*
D27*
X158115000Y-115570000D03*
D49*
X158435000Y-96985000D03*
X159385000Y-96985000D03*
X160335000Y-96985000D03*
X160335000Y-94785000D03*
X158435000Y-94785000D03*
D46*
X166727000Y-84867500D03*
X166727000Y-80867500D03*
X166727000Y-83527500D03*
X166727000Y-82207500D03*
X163727000Y-83527500D03*
X163727000Y-84867500D03*
X163727000Y-80867500D03*
X163727000Y-82207500D03*
D50*
X149225000Y-122555000D03*
M02*
